<svg xmlns="http://www.w3.org/2000/svg" viewBox="0 0 496 695"><defs><style>.cls-1{fill:none;}.cls-2,.cls-3{fill:#fff;}.cls-3{stroke:#000;stroke-miterlimit:10;stroke-width:2px;}.cls-4{fill:#231f20;}</style></defs><g id="Layer_2" data-name="Layer 2"><g id="Layer_1-2" data-name="Layer 1"><path class="cls-1" d="M0,0V695H496V0ZM447.14,661.76a15,15,0,0,1-15,15H47a15,15,0,0,1-15-15V45.85a15,15,0,0,1,15-15H432.15a15,15,0,0,1,15,15Z"/><path class="cls-2" d="M237.21,379V355.48A102.51,102.51,0,0,1,216,357.57a83.15,83.15,0,0,1-19.34-2.18v27.84c2.52.17,5.07.28,7.67.28A116.31,116.31,0,0,0,237.21,379Z"/><path class="cls-2" d="M347.2,433.4c3.35-12-5.74-16.72-16.75-17.36a77.53,77.53,0,0,0-15.61-5.76q8.21,9.45,20.93,24.56,5,5.91,9.33,10.67C347.69,442.76,348.71,438.83,347.2,433.4Z"/><path class="cls-2" d="M276.65,333.58q8.76-7.79,17.51-7.78c-4.54,18.48-16.21,33.07-34.69,43.77A104.16,104.16,0,0,1,237.21,379v19.76l1.59.71c1.69-.79,3.43-1.54,5.2-2.27,1.65.22,3.28.46,4.88.72,0,1.09,0,2.3-.08,3.56l3.55-1.9.09-1c.44.08.86.18,1.29.27a208.33,208.33,0,0,0,30.17-19.71c19.13-15.24,28.85-29.18,28.85-42.47q0-14.1-10.7-24.32c-7.13-7.13-15.24-10.69-24.64-10.69-8.43,0-17.18,3.24-25.93,10-9.41,7.13-14.27,14.59-14.27,22.69v21.14a75.62,75.62,0,0,0,19-6.66C261.42,345.9,268.22,341,276.65,333.58Z"/><path class="cls-3" d="M432.15,30.85H47a15,15,0,0,0-15,15V661.76a15,15,0,0,0,15,15H432.15a15,15,0,0,0,15-15V45.85A15,15,0,0,0,432.15,30.85ZM372.67,76.47c4.83,4,10.48,6,16.15,3,3,.75,5.9,1.59,8.62,2.52A213.37,213.37,0,0,1,379.2,110.2c-11.91-9.73-22.09-21.18-29.59-35.3A179.77,179.77,0,0,1,372.67,76.47Zm0,75c4.83,4,10.48,6,16.15,3.05,3,.75,5.9,1.59,8.62,2.52A213.37,213.37,0,0,1,379.2,185.2c-11.91-9.73-22.08-21.17-29.59-35.29h0c7.51-14.12,17.68-25.57,29.59-35.29a212.72,212.72,0,0,1,18.24,28.16c-2.72.93-5.61,1.77-8.62,2.52-5.67-3-11.32-1-16.15,3.05a180.6,180.6,0,0,1-22.88,1.56A182.46,182.46,0,0,1,372.67,151.47Zm16.15,144.82c-5.67-3-11.32-1-16.15,3a183.45,183.45,0,0,1-23.06,1.57c7.5-14.13,17.68-25.58,29.59-35.3a212.72,212.72,0,0,1,18.24,28.16C394.72,294.7,391.83,295.54,388.82,296.29ZM397.44,403A213.37,213.37,0,0,1,379.2,431.2c-11.91-9.73-22.09-21.18-29.59-35.3a179.77,179.77,0,0,1,23.06,1.57c4.83,4,10.48,6,16.15,3C391.83,401.27,394.72,402.11,397.44,403ZM349.61,225.9a179.77,179.77,0,0,1,23.06,1.57c4.83,4,10.48,6,16.15,3.05,3,.75,5.9,1.59,8.62,2.52A213.37,213.37,0,0,1,379.2,261.2C367.29,251.47,357.11,240,349.61,225.9Zm-30.47-21.74,0,.05c-5.45,1.63-10.48,3.68-17.1,4.14-.36-.89-.75-2.25-1.19-3.7a42.7,42.7,0,0,0,4.81-4.5A46.23,46.23,0,0,0,319.14,204.16Zm0-33.51a46.23,46.23,0,0,0-13.46,4,43.72,43.72,0,0,0-4.81-4.51c.44-1.45.83-2.8,1.19-3.7,6.62.47,11.65,2.51,17.1,4.15A.17.17,0,0,1,319.14,170.65Zm11.3,34.11c11-.63,20.11-5.33,16.76-17.36,3.35-12-5.74-16.72-16.75-17.36-10-5.11-23.17-8.2-36.74-9.09,9.2-5,21.37-8.25,34.56-9.85,20.72,7.55,36.42,20.53,49.18,36.3-12.76,15.77-28.46,28.75-49.18,36.3-13.19-1.59-25.36-4.82-34.56-9.84C307.28,213,320.41,209.88,330.44,204.76Zm58.38,15.53c-5.67-3-11.32-1-16.15,3.05a183.45,183.45,0,0,1-23.06,1.57c7.5-14.13,17.68-25.58,29.59-35.3a212.72,212.72,0,0,1,18.24,28.16C394.72,218.7,391.83,219.54,388.82,220.29ZM328.27,76.1c20.72,7.55,36.42,20.53,49.18,36.3-12.76,15.77-28.46,28.75-49.18,36.3-13.19-1.59-25.36-4.82-34.56-9.84,13.57-.89,26.7-4,36.73-9.1,11-.63,20.11-5.33,16.76-17.36,3.35-12-5.74-16.72-16.75-17.36-10-5.11-23.17-8.2-36.74-9.09C302.91,80.93,315.08,77.7,328.27,76.1Zm-9.13,53.06,0,.05c-5.45,1.63-10.48,3.68-17.1,4.14-.36-.89-.75-2.25-1.19-3.7a42.7,42.7,0,0,0,4.81-4.5A46.23,46.23,0,0,0,319.14,129.16Zm0-33.51a46.23,46.23,0,0,0-13.46,4,43.72,43.72,0,0,0-4.81-4.51c.44-1.45.83-2.8,1.19-3.7,6.62.47,11.65,2.51,17.1,4.15A.17.17,0,0,1,319.14,95.65ZM299,100.26c.14-.26.27-.54.4-.83a73.25,73.25,0,0,1,11.25,13,73.31,73.31,0,0,1-11.25,13c-.13-.29-.26-.58-.4-.84a46.91,46.91,0,0,0-10.11-12.14A46.58,46.58,0,0,0,299,100.26Zm0,75c.14-.26.27-.54.4-.83a73.25,73.25,0,0,1,11.25,13,73.31,73.31,0,0,1-11.25,13c-.13-.29-.26-.58-.4-.84a46.91,46.91,0,0,0-10.11-12.14A46.58,46.58,0,0,0,299,175.26Zm0,76c.14-.26.27-.54.4-.83a73.25,73.25,0,0,1,11.25,13,73.31,73.31,0,0,1-11.25,13c-.13-.29-.26-.58-.4-.84a46.91,46.91,0,0,0-10.11-12.14A46.58,46.58,0,0,0,299,251.26Zm20.19-4.61a46.23,46.23,0,0,0-13.46,4,43.72,43.72,0,0,0-4.81-4.51c.44-1.45.83-2.8,1.19-3.7,6.62.47,11.65,2.51,17.1,4.15A.17.17,0,0,1,319.14,246.65Zm0,33.56c-5.45,1.63-10.48,3.68-17.1,4.14-.36-.89-.75-2.25-1.19-3.7a42.7,42.7,0,0,0,4.81-4.5,46.23,46.23,0,0,0,13.46,4Zm-45.68-139c0-.88,0-1.77.07-2.69,1.73.17,3.48.3,5.24.4Q276.2,140.16,273.48,141.23Zm5.31,19.63c-1.76.1-3.51.23-5.24.41,0-.92-.06-1.82-.07-2.7Q276.2,159.65,278.79,160.86Zm0-75c-1.76.1-3.51.23-5.24.41,0-.92-.06-1.82-.07-2.7Q276.2,84.65,278.79,85.86Zm3.11,26.54A37.43,37.43,0,0,1,268.36,120c-1.93-2.54-3.89-5-5.77-7.56,1.88-2.54,3.84-5,5.77-7.56A37.43,37.43,0,0,1,281.9,112.4ZM252.44,77.52a118.28,118.28,0,0,1,18,4.88c0,7.54,1.5,14.83,5,20.6a69.2,69.2,0,0,0-21.79-7.72,40.9,40.9,0,0,1-1.33-7.46A52,52,0,0,1,252.44,77.52ZM252.29,137h0a40.94,40.94,0,0,1,1.33-7.45,69.7,69.7,0,0,0,21.79-7.72c-3.5,5.76-5,13.05-5,20.59a119.46,119.46,0,0,1-18,4.89A52.08,52.08,0,0,1,252.29,137Zm.15,15.54a118.28,118.28,0,0,1,18,4.88c0,7.54,1.5,14.83,5,20.6a69.2,69.2,0,0,0-21.79-7.72,40.9,40.9,0,0,1-1.33-7.46A52,52,0,0,1,252.44,152.52ZM228.71,76.88q2.41-.39,4.89-.72c1.76.73,3.5,1.48,5.2,2.27,1.69-.79,3.43-1.54,5.2-2.27,1.65.22,3.28.46,4.88.72.1,4.67-.94,11.35.3,15.61a46.75,46.75,0,0,0-4.94,2.06,44.92,44.92,0,0,0-5.44.38,45.09,45.09,0,0,0-5.45-.38,45.89,45.89,0,0,0-4.94-2.06C229.65,88.23,228.62,81.55,228.71,76.88Zm4.64,53.38a47.22,47.22,0,0,0,5.45-.38,47,47,0,0,0,5.44.38,49,49,0,0,0,4.94,2.06c-1.24,4.26-.2,10.94-.3,15.6-1.6.27-3.23.51-4.88.72q-2.66-1.08-5.2-2.27-2.55,1.19-5.21,2.27c-1.64-.21-3.27-.45-4.88-.72-.09-4.66.94-11.34-.3-15.6A48,48,0,0,0,233.35,130.26Zm-4.64,21.62q2.41-.39,4.89-.72c1.76.73,3.5,1.48,5.2,2.27,1.69-.79,3.43-1.54,5.2-2.27,1.65.22,3.28.46,4.88.72.1,4.67-.94,11.35.3,15.61a46.75,46.75,0,0,0-4.94,2.06,44.92,44.92,0,0,0-5.44.38,45.09,45.09,0,0,0-5.45-.38,45.89,45.89,0,0,0-4.94-2.06C229.65,163.23,228.62,156.55,228.71,151.88Zm-29.9-12.94c1.75-.1,3.5-.23,5.23-.4,0,.92.06,1.81.07,2.69Q201.4,140.15,198.81,138.94Zm5.3,19.63c0,.88,0,1.78-.07,2.7-1.73-.18-3.48-.31-5.23-.41Q201.39,159.65,204.11,158.57Zm-1.93-36.76A69.7,69.7,0,0,0,224,129.53,40.94,40.94,0,0,1,225.3,137h0a51.33,51.33,0,0,1-.15,10.31,119.46,119.46,0,0,1-18-4.89C207.21,134.86,205.68,127.57,202.18,121.81Zm23-44.29a51.22,51.22,0,0,1,.15,10.3A40.9,40.9,0,0,1,224,95.28,69.45,69.45,0,0,0,202.18,103c3.5-5.77,5-13.06,5-20.6A118.28,118.28,0,0,1,225.15,77.52Zm-21,6c0,.88,0,1.78-.07,2.7-1.73-.18-3.48-.31-5.23-.41Q201.39,84.65,204.11,83.57Zm5.12,21.27c1.93,2.55,3.89,5,5.77,7.56-1.88,2.54-3.84,5-5.77,7.56a37.43,37.43,0,0,1-13.54-7.56A37.43,37.43,0,0,1,209.23,104.84Zm-20.48,7.56a46.65,46.65,0,0,0-10.1,12.14c-.14.26-.28.55-.41.84a72.85,72.85,0,0,1-11.24-13,72.79,72.79,0,0,1,11.24-13c.13.29.27.57.41.83A46.33,46.33,0,0,0,188.75,112.4Zm-30.3,16.76a46.13,46.13,0,0,0,13.46-4,42.7,42.7,0,0,0,4.81,4.5c-.44,1.45-.83,2.81-1.19,3.7-6.62-.46-11.65-2.51-17.1-4.14Zm0-33.56c5.45-1.64,10.48-3.68,17.1-4.15.36.9.75,2.25,1.19,3.7a43.72,43.72,0,0,0-4.81,4.51,46.13,46.13,0,0,0-13.46-4A.17.17,0,0,1,158.43,95.6ZM183.88,86c-13.57.89-26.7,4-36.73,9.09-11,.64-20.11,5.33-16.76,17.36-3.35,12,5.74,16.73,16.76,17.36,10,5.12,23.16,8.21,36.73,9.1-9.2,5-21.36,8.25-34.56,9.84-20.71-7.55-36.42-20.53-49.17-36.3,12.75-15.77,28.46-28.75,49.17-36.3C162.52,77.7,174.68,80.93,183.88,86Zm-55.9,64h0C120.48,164,110.3,175.47,98.4,185.2A213.44,213.44,0,0,1,80.15,157c2.73-.93,5.61-1.77,8.62-2.52,5.67,3,11.32,1,16.15-3.05a182.46,182.46,0,0,1,22.88-1.57,180.6,180.6,0,0,1-22.88-1.56c-4.83-4-10.48-6-16.15-3.05-3-.75-5.89-1.59-8.62-2.52A212.78,212.78,0,0,1,98.4,114.61c11.9,9.72,22.08,21.17,29.58,35.29h0ZM88.77,79.52c5.67,3,11.32,1,16.15-3A179.89,179.89,0,0,1,128,74.9C120.48,89,110.3,100.47,98.4,110.2A213.44,213.44,0,0,1,80.15,82C82.88,81.11,85.76,80.27,88.77,79.52Zm-21.06,15A201.48,201.48,0,0,1,95.63,112.4a201.54,201.54,0,0,1-27.92,17.93,144.19,144.19,0,0,1-4.62-17.93A144.49,144.49,0,0,1,67.71,94.48Zm0,75A201.48,201.48,0,0,1,95.63,187.4a201.54,201.54,0,0,1-27.92,17.93,144.19,144.19,0,0,1-4.62-17.93A144.49,144.49,0,0,1,67.71,169.48Zm0,76A201.48,201.48,0,0,1,95.63,263.4a201.54,201.54,0,0,1-27.92,17.93,144.19,144.19,0,0,1-4.62-17.93A144.49,144.49,0,0,1,67.71,245.48Zm90.74,204.68a46.13,46.13,0,0,0,13.46-4,42.7,42.7,0,0,0,4.81,4.5c-.44,1.45-.83,2.81-1.19,3.7-6.62-.46-11.65-2.51-17.1-4.14Zm0-33.56c5.45-1.64,10.48-3.68,17.1-4.15.36.9.75,2.25,1.19,3.7a43.72,43.72,0,0,0-4.81,4.51,46.13,46.13,0,0,0-13.46-4ZM167,433.4a72.79,72.79,0,0,1,11.24-13c.13.29.27.57.41.83a46.33,46.33,0,0,0,10.1,12.14,46.65,46.65,0,0,0-10.1,12.14c-.14.26-.28.55-.41.84A72.85,72.85,0,0,1,167,433.4ZM147.15,416c-11,.64-20.11,5.33-16.76,17.36-3.35,12,5.74,16.73,16.76,17.36,10,5.12,23.16,8.21,36.73,9.1-9.2,5-21.36,8.25-34.56,9.84-20.71-7.55-36.42-20.53-49.17-36.3,12.75-15.77,28.46-28.75,49.17-36.3,13.2,1.6,25.36,4.83,34.56,9.85C170.31,407.84,157.18,410.93,147.15,416Zm11.28,74.56c5.45-1.64,10.48-3.68,17.1-4.15.36.9.75,2.25,1.19,3.7a43.72,43.72,0,0,0-4.81,4.51,46.13,46.13,0,0,0-13.46-4Zm13.48,29.55a42.7,42.7,0,0,0,4.81,4.5c-.44,1.45-.83,2.81-1.19,3.7-6.62-.46-11.65-2.51-17.1-4.14l0-.05A46.13,46.13,0,0,0,171.91,520.15ZM147.15,490c-11,.64-20.11,5.33-16.76,17.36-3.35,12,5.74,16.73,16.76,17.36,10,5.12,23.16,8.21,36.73,9.1-9.2,5-21.36,8.25-34.56,9.84-20.71-7.55-36.42-20.53-49.17-36.3,12.75-15.77,28.46-28.75,49.17-36.3,13.2,1.6,25.36,4.83,34.56,9.85C170.31,481.84,157.18,484.93,147.15,490ZM128,544.91h-.54c-7.45,13.66-17.42,24.8-29,34.3A213.44,213.44,0,0,1,80.15,551c2.73-.93,5.61-1.77,8.62-2.52,5.67,3,11.32,1,16.15-3,3.42-.46,6.92-.81,10.45-1.07-3.53-.26-7-.61-10.45-1.06-4.83-4-10.48-6-16.15-3.05-3-.75-5.89-1.59-8.62-2.52A212.78,212.78,0,0,1,98.4,509.61a115.65,115.65,0,0,1,29,34.3H128l-.27.5Zm-23.06-75.57c-4.83-4-10.48-6-16.15-3-3-.75-5.89-1.59-8.62-2.52A212.78,212.78,0,0,1,98.4,435.61a115.65,115.65,0,0,1,29,34.3H128l-.27.5.27.51h-.54c-7.45,13.66-17.42,24.8-29,34.3A213.44,213.44,0,0,1,80.15,477c2.73-.93,5.61-1.77,8.62-2.52,5.67,3,11.32,1,16.15-3,3.42-.46,6.92-.81,10.45-1.07C111.84,470.14,108.34,469.79,104.92,469.34ZM98.4,431.2A213.44,213.44,0,0,1,80.15,403c2.73-.93,5.61-1.77,8.62-2.52,5.67,3,11.32,1,16.15-3A179.89,179.89,0,0,1,128,395.9C120.48,410,110.3,421.47,98.4,431.2ZM67.71,415.48A201.48,201.48,0,0,1,95.63,433.4a201.54,201.54,0,0,1-27.92,17.93,144.19,144.19,0,0,1-4.62-17.93A144.49,144.49,0,0,1,67.71,415.48Zm0,74A201.48,201.48,0,0,1,95.63,507.4a201.54,201.54,0,0,1-27.92,17.93,144.19,144.19,0,0,1-4.62-17.93A144.49,144.49,0,0,1,67.71,489.48ZM63.09,581.4a144.49,144.49,0,0,1,4.62-17.92A201.48,201.48,0,0,1,95.63,581.4a201.54,201.54,0,0,1-27.92,17.93A144.19,144.19,0,0,1,63.09,581.4Zm41.83,35.94c-4.83-4-10.48-6-16.15-3.05-3-.75-5.89-1.59-8.62-2.52A212.78,212.78,0,0,1,98.4,583.61c11.9,9.72,22.08,21.17,29.58,35.3A183.58,183.58,0,0,1,104.92,617.34Zm44.4.36c-20.71-7.55-36.42-20.53-49.17-36.3,12.75-15.77,28.46-28.75,49.17-36.3,13.2,1.6,25.36,4.83,34.56,9.85-13.57.89-26.7,4-36.73,9.09-11,.64-20.11,5.33-16.76,17.36-3.35,12,5.74,16.73,16.76,17.36,10,5.12,23.16,8.21,36.73,9.1C174.68,612.88,162.52,616.11,149.32,617.7Zm9.11-53.1c5.45-1.64,10.48-3.68,17.1-4.15.36.9.75,2.25,1.19,3.7a43.72,43.72,0,0,0-4.81,4.51,46.13,46.13,0,0,0-13.46-4Zm13.48,29.55a42.7,42.7,0,0,0,4.81,4.5c-.44,1.45-.83,2.81-1.19,3.7-6.62-.46-11.65-2.51-17.1-4.14l0-.05A46.13,46.13,0,0,0,171.91,594.15Zm6.74-.61c-.14.26-.28.55-.41.84a72.85,72.85,0,0,1-11.24-13,72.79,72.79,0,0,1,11.24-13c.13.29.27.57.41.83a46.33,46.33,0,0,0,10.1,12.14A46.65,46.65,0,0,0,178.65,593.54Zm28.53-42.14a118.28,118.28,0,0,1,18-4.88,51.22,51.22,0,0,1,.15,10.3,40.9,40.9,0,0,1-1.33,7.46A69.45,69.45,0,0,0,202.18,572C205.68,566.23,207.21,558.94,207.18,551.4Zm-8.37,3.46q2.58-1.22,5.3-2.29c0,.88,0,1.78-.07,2.7C202.31,555.09,200.56,555,198.81,554.86Zm0-20.92c1.75-.1,3.5-.23,5.23-.4,0,.92.06,1.81.07,2.69Q201.4,535.15,198.81,533.94Zm-3.12-26.54a37.43,37.43,0,0,1,13.54-7.56c1.93,2.55,3.89,5,5.77,7.56-1.88,2.54-3.84,5-5.77,7.56A37.43,37.43,0,0,1,195.69,507.4Zm13.54,66.44c1.93,2.55,3.89,5,5.77,7.56-1.88,2.54-3.84,5-5.77,7.56a37.43,37.43,0,0,1-13.54-7.56A37.43,37.43,0,0,1,209.23,573.84Zm-10.42,34.1c1.75-.1,3.5-.23,5.23-.4,0,.92.06,1.81.07,2.69Q201.4,609.15,198.81,607.94Zm26.34,8.35a119.46,119.46,0,0,1-18-4.89c0-7.54-1.5-14.83-5-20.59A69.7,69.7,0,0,0,224,598.53,40.94,40.94,0,0,1,225.3,606h0A51.33,51.33,0,0,1,225.15,616.29Zm0-74a119.46,119.46,0,0,1-18-4.89c0-7.54-1.5-14.83-5-20.59A69.7,69.7,0,0,0,224,524.53,40.94,40.94,0,0,1,225.3,532h0A51.33,51.33,0,0,1,225.15,542.29Zm23.73,74.63c-1.6.27-3.23.51-4.88.72q-2.66-1.08-5.2-2.27-2.55,1.18-5.21,2.27c-1.64-.21-3.27-.45-4.88-.72-.09-4.66.94-11.34-.3-15.6a48,48,0,0,0,4.94-2.06,47.22,47.22,0,0,0,5.45-.38,47,47,0,0,0,5.44.38,49,49,0,0,0,4.94,2.06C247.94,605.58,249,612.26,248.88,616.92Zm-4.64-53.37a44.92,44.92,0,0,0-5.44.38,45.09,45.09,0,0,0-5.45-.38,45.89,45.89,0,0,0-4.94-2.06c1.24-4.26.21-10.94.3-15.61q2.41-.39,4.89-.72c1.76.73,3.5,1.48,5.2,2.27,1.69-.79,3.43-1.54,5.2-2.27,1.65.22,3.28.46,4.88.72.1,4.67-.94,11.35.3,15.61A46.75,46.75,0,0,0,244.24,563.55Zm4.64-20.63c-1.6.27-3.23.51-4.88.72q-2.66-1.08-5.2-2.27-2.55,1.18-5.21,2.27c-1.64-.21-3.27-.45-4.88-.72-.09-4.66.94-11.34-.3-15.6a48,48,0,0,0,4.94-2.06,47.22,47.22,0,0,0,5.45-.38,47,47,0,0,0,5.44.38,49,49,0,0,0,4.94,2.06C247.94,531.58,249,538.26,248.88,542.92Zm3.56,73.37a52.08,52.08,0,0,1-.15-10.31h0a40.94,40.94,0,0,1,1.33-7.45,69.7,69.7,0,0,0,21.79-7.72c-3.5,5.76-5,13.05-5,20.59A119.46,119.46,0,0,1,252.44,616.29Zm1.18-165.76a69.7,69.7,0,0,0,21.79-7.72c-3.5,5.76-5,13.05-5,20.59a119.46,119.46,0,0,1-18,4.89,52.08,52.08,0,0,1-.15-10.31h0A40.94,40.94,0,0,1,253.62,450.53Zm19.86,11.7c0-.88,0-1.77.07-2.69,1.73.17,3.48.3,5.24.4Q276.2,461.16,273.48,462.23Zm5.31,18.63c-1.76.1-3.51.23-5.24.41,0-.92-.06-1.82-.07-2.7Q276.2,479.65,278.79,480.86Zm-26.35-8.34a118.28,118.28,0,0,1,18,4.88c0,7.54,1.5,14.83,5,20.6a69.2,69.2,0,0,0-21.79-7.72,40.9,40.9,0,0,1-1.33-7.46A52,52,0,0,1,252.44,472.52Zm1.18,52a69.7,69.7,0,0,0,21.79-7.72c-3.5,5.76-5,13.05-5,20.59a119.46,119.46,0,0,1-18,4.89,52.08,52.08,0,0,1-.15-10.31h0A40.94,40.94,0,0,1,253.62,524.53Zm19.86,11.7c0-.88,0-1.77.07-2.69,1.73.17,3.48.3,5.24.4Q276.2,535.16,273.48,536.23Zm5.31,18.63c-1.76.1-3.51.23-5.24.41,0-.92-.06-1.82-.07-2.7Q276.2,553.65,278.79,554.86Zm-26.35-8.34a118.28,118.28,0,0,1,18,4.88c0,7.54,1.5,14.83,5,20.6a69.2,69.2,0,0,0-21.79-7.72,40.9,40.9,0,0,1-1.33-7.46A52,52,0,0,1,252.44,546.52Zm21,63.71c0-.88,0-1.77.07-2.69,1.73.17,3.48.3,5.24.4Q276.2,609.16,273.48,610.23ZM268.36,589c-1.93-2.54-3.89-5-5.77-7.56,1.88-2.54,3.84-5,5.77-7.56a37.43,37.43,0,0,1,13.54,7.56A37.43,37.43,0,0,1,268.36,589Zm0-74c-1.93-2.54-3.89-5-5.77-7.56,1.88-2.54,3.84-5,5.77-7.56a37.43,37.43,0,0,1,13.54,7.56A37.43,37.43,0,0,1,268.36,515Zm0-74c-1.93-2.54-3.89-5-5.77-7.56,1.88-2.54,3.84-5,5.77-7.56a37.43,37.43,0,0,1,13.54,7.56A37.43,37.43,0,0,1,268.36,441ZM288.84,581.4A46.58,46.58,0,0,0,299,569.26c.14-.26.27-.54.4-.83a73.25,73.25,0,0,1,11.25,13,73.31,73.31,0,0,1-11.25,13c-.13-.29-.26-.58-.4-.84A46.91,46.91,0,0,0,288.84,581.4Zm30.3-90.75a46.23,46.23,0,0,0-13.46,4,43.72,43.72,0,0,0-4.81-4.51c.44-1.45.83-2.8,1.19-3.7,6.62.47,11.65,2.51,17.1,4.15Zm0,33.56c-5.45,1.63-10.48,3.68-17.1,4.14-.36-.89-.75-2.25-1.19-3.7a42.7,42.7,0,0,0,4.81-4.5,46.23,46.23,0,0,0,13.46,4ZM310.6,507.4a73.31,73.31,0,0,1-11.25,13c-.13-.29-.26-.58-.4-.84a46.91,46.91,0,0,0-10.11-12.14A46.58,46.58,0,0,0,299,495.26c.14-.26.27-.54.4-.83A73.25,73.25,0,0,1,310.6,507.4Zm8.54,57.25a46.23,46.23,0,0,0-13.46,4,43.72,43.72,0,0,0-4.81-4.51c.44-1.45.83-2.8,1.19-3.7,6.62.47,11.65,2.51,17.1,4.15Zm0,33.56c-5.45,1.63-10.48,3.68-17.1,4.14-.36-.89-.75-2.25-1.19-3.7a42.7,42.7,0,0,0,4.81-4.5,46.23,46.23,0,0,0,13.46,4Zm-25.45,9.65c13.57-.89,26.7-4,36.73-9.1,11-.63,20.11-5.33,16.76-17.36,3.35-12-5.74-16.72-16.75-17.36-10-5.11-23.17-8.2-36.74-9.09,9.2-5,21.37-8.25,34.56-9.85,20.72,7.55,36.42,20.53,49.18,36.3-12.76,15.77-28.46,28.75-49.18,36.3C315.08,616.11,302.91,612.88,293.71,607.86Zm79-62.39c4.83,4,10.48,6,16.15,3,3,.75,5.9,1.59,8.62,2.52A213.37,213.37,0,0,1,379.2,579.2c-11.62-9.5-21.59-20.64-29-34.3h-.55l.27-.51-.27-.5h.55a115.65,115.65,0,0,1,29-34.3,212.72,212.72,0,0,1,18.24,28.16c-2.72.93-5.61,1.77-8.62,2.52-5.67-3-11.32-1-16.15,3.05-3.42.45-6.92.8-10.45,1.06C365.75,544.66,369.25,545,372.67,545.47Zm16.15,68.82c-5.67-3-11.32-1-16.15,3.05a183.45,183.45,0,0,1-23.06,1.57c7.5-14.13,17.68-25.58,29.59-35.3a212.72,212.72,0,0,1,18.24,28.16C394.72,612.7,391.83,613.54,388.82,614.29Zm21.06-15A201.54,201.54,0,0,1,382,581.4a201.48,201.48,0,0,1,27.92-17.92,146.32,146.32,0,0,1,4.63,17.92A146,146,0,0,1,409.88,599.33Zm0-74A201.54,201.54,0,0,1,382,507.4a201.48,201.48,0,0,1,27.92-17.92,146.32,146.32,0,0,1,4.63,17.92A146,146,0,0,1,409.88,525.33Zm1-77.2.76,1.95c-6.88,11.11-12.55,19.78-17.11,26,1,.3,2,.61,2.92.94A213.37,213.37,0,0,1,379.2,505.2q-4.83-3.94-9.25-8.29l-1.38.53q4.67,4.76,8.88,10c-12.76,15.77-28.46,28.75-49.18,36.3-13.19-1.59-25.36-4.82-34.56-9.84,13.57-.89,26.7-4,36.73-9.1,11-.63,20.11-5.33,16.76-17.36a14.1,14.1,0,0,0,.1-8.51,39.52,39.52,0,0,1-18.71-9.75c-9.77-4.58-22.13-7.36-34.88-8.19a83.66,83.66,0,0,1,22-7.74L311,466.46a78.25,78.25,0,0,1-17.24-6.6c4-.26,7.88-.72,11.7-1.35l-2.93-4.2-.42,0c-.15-.36-.3-.81-.46-1.3L293,440.68c-9.73-13.94-21.73-21.07-35.67-21.07-8.1,0-13.61,1.29-16.86,3.56-4.21,2.92-6.16,8.11-6.16,15.57,0,4.58.15,8.73.41,12.46,1.37-.05,2.74-.14,4.1-.32a47,47,0,0,0,5.44.38,49,49,0,0,0,4.94,2.06c-1.24,4.26-.2,10.94-.3,15.6-1.6.27-3.23.51-4.88.72q-2.66-1.08-5.2-2.27l-1.25.56q.82,2.31,2,5.15,2.16-1,4.41-1.92c1.65.22,3.28.46,4.88.72.1,4.67-.94,11.35.3,15.61-.72.25-1.5.54-2.31.88a110.76,110.76,0,0,1,5.25,11.31h-70.6a53.67,53.67,0,0,0,7.23,7.72,46.65,46.65,0,0,0-10.1,12.14c-.14.26-.28.55-.41.84a72.85,72.85,0,0,1-11.24-13,72.79,72.79,0,0,1,11.24-13c.13.29.27.57.41.83a35.08,35.08,0,0,0,2.83,4.37c1-1.66,3.91-6.17,9.05-12.91,4.21-5.52,6.16-10.05,6.16-13.94V434.2l-1-.8,1-.79V383.23C171.78,381.6,150.31,372,132.06,354c-15.89-15.89-25.5-34.5-28.66-55.84-4.48-3.2-9.55-4.53-14.63-1.87-3-.75-5.89-1.59-8.62-2.52A212.78,212.78,0,0,1,98.4,265.61q2.28,1.86,4.47,3.81c.08-.82.17-1.63.27-2.44q-1.52-1.77-3-3.58,2.14-2.65,4.43-5.21c.2-1,.41-2,.64-2.95q-3.3,3.08-6.82,6A213.44,213.44,0,0,1,80.15,233c2.73-.93,5.61-1.77,8.62-2.52,5.67,3,11.32,1,16.15-3.05,3.85-.52,7.8-.9,11.78-1.17.34-.58.69-1.16,1-1.74-4.34-.27-8.63-.66-12.82-1.22-4.83-4-10.48-6-16.15-3.05-3-.75-5.89-1.59-8.62-2.52A212.78,212.78,0,0,1,98.4,189.61a119.07,119.07,0,0,1,24.65,27q1.67-2.3,3.47-4.53a122.08,122.08,0,0,1-26.37-24.64c12.75-15.77,28.46-28.75,49.17-36.3,13.2,1.6,25.36,4.83,34.56,9.85-13.57.89-26.7,4-36.73,9.09-11,.64-20.11,5.33-16.76,17.36-2,7.28.5,11.87,5.25,14.5a101,101,0,0,1,39.65-24.61c1-1,1.94-1.94,3-2.86.13.29.27.57.41.83s.32.57.49.85a107,107,0,0,1,25.72-3.91,44.24,44.24,0,0,0,2.32-14.8,118.28,118.28,0,0,1,18-4.88,51.22,51.22,0,0,1,.15,10.3,40.9,40.9,0,0,1-1.33,7.46,63.59,63.59,0,0,0-8.47,2q26.72,1.41,47.74,14.25c1.68-2.24,3.41-4.45,5.12-6.71a37.43,37.43,0,0,1,13.54,7.56,42.22,42.22,0,0,1-9,5.86,103.78,103.78,0,0,1,11.56,10.64c-5,4.58-9.7,8.64-14,12.23,0,.42,0,.84,0,1.27-.83.3-1.69.58-2.54.86-5.18,4.27-9.76,7.78-13.74,10.62a116,116,0,0,1,16.28,4.52c0,7.54,1.5,14.83,5,20.6a69.2,69.2,0,0,0-21.79-7.72,40.9,40.9,0,0,1-1.33-7.46,51,51,0,0,1,0-8.65c-.32.21-.63.43-.93.64-1.11-2.73-2.29-5.3-3.52-7.73-1.28.2-2.55.39-3.85.56q-2.66-1.08-5.2-2.27-2.55,1.19-5.21,2.27c-1.64-.21-3.27-.45-4.88-.72-.09-4.66.94-11.34-.3-15.6a48,48,0,0,0,4.94-2.06c.64,0,1.27,0,1.9-.08a44.92,44.92,0,0,0-24.06-12.76c-.66.84-1.31,1.69-2,2.54a32.57,32.57,0,0,1-7.69-3.38,47,47,0,0,0-20.92,4.79,31.47,31.47,0,0,0-2,3.17c-.14.26-.28.55-.41.84-.6-.55-1.17-1.13-1.76-1.7-1.22.76-2.43,1.59-3.61,2.48a45.55,45.55,0,0,0,3.85,3.49c-.44,1.45-.83,2.81-1.19,3.7a43.51,43.51,0,0,1-9-1.63q-1.8,1.83-3.51,3.88a114.69,114.69,0,0,0,20.83,3.26c-8,4.35-18.16,7.35-29.32,9.11q-1.27,2.24-2.43,4.5c12.1,1.7,23.21,4.81,31.75,9.48-13.57.89-26.7,4-36.73,9.09-.83.05-1.64.12-2.44.22a102.78,102.78,0,0,0-3.9,28.31c0,1.8.05,3.57.13,5.32a35.47,35.47,0,0,0,6.21.87c10,5.12,23.16,8.21,36.73,9.1-9.2,5-21.36,8.25-34.56,9.84-2.14-.78-4.21-1.63-6.24-2.52a78,78,0,0,0,17.51,35.75,66.33,66.33,0,0,0,36.1,22.46v-3.54c0-11.35-5.84-20.43-17.51-27.88v-7.46q15.9-1.45,51.9-17.24c-.79-.11-1.59-.22-2.37-.35-.09-4.66.94-11.34-.3-15.6a48,48,0,0,0,4.94-2.06,47.22,47.22,0,0,0,5.45-.38,47,47,0,0,0,5.44.38,49,49,0,0,0,4.94,2.06c-.71,2.44-.67,5.69-.53,8.89,1.17-.42,2.33-.84,3.48-1.23,0-1,.07-2,.16-3h0a40.94,40.94,0,0,1,1.33-7.45,69.7,69.7,0,0,0,21.79-7.72A35,35,0,0,0,271,285.69a81.41,81.41,0,0,1,16.48-1.92,89,89,0,0,1,24.8,3.39,80,80,0,0,0,18.18-6.4c11-.63,20.11-5.33,16.76-17.36,3.35-12-5.74-16.72-16.75-17.36-10-5.11-23.17-8.2-36.74-9.09,9.2-5,21.37-8.25,34.56-9.85,20.72,7.55,36.42,20.53,49.18,36.3-11.48,14.19-25.36,26.11-43.12,33.86,14,9.27,20.89,21.53,20.89,37.08,0,13.29-6.48,25.61-19.45,36.31l-35.34,24a74.26,74.26,0,0,1,6.63,6.82,122.72,122.72,0,0,1,21.21-4.36c20.72,7.55,36.42,20.53,49.18,36.3a124.41,124.41,0,0,1-22.64,22c1,.94,2,1.81,2.9,2.61a121.6,121.6,0,0,1,21.49-22.39c3.8,4.88,7.34,10,10.68,15.32a35.55,35.55,0,0,1,9.94-5.35A183.93,183.93,0,0,1,382,433.4a201.48,201.48,0,0,1,27.92-17.92,146.32,146.32,0,0,1,4.63,17.92A148,148,0,0,1,410.87,448.13Zm-234.15-278a43.72,43.72,0,0,0-4.81,4.51,46.13,46.13,0,0,0-13.46-4,.17.17,0,0,1,0-.05c5.45-1.64,10.48-3.68,17.1-4.15C175.89,167.35,176.28,168.7,176.72,170.15Zm102.07,66.71c-1.76.1-3.51.23-5.24.41,0-.92-.06-1.82-.07-2.7Q276.2,235.65,278.79,236.86Zm-5.31-20.63c0-.88,0-1.77.07-2.69,1.73.17,3.48.3,5.24.4Q276.2,215.16,273.48,216.23Zm8.42,47.17A37.43,37.43,0,0,1,268.36,271c-1.93-2.54-3.89-5-5.77-7.56,1.88-2.54,3.84-5,5.77-7.56A37.43,37.43,0,0,1,281.9,263.4Zm-53.19-35.52q2.41-.39,4.89-.72c1.76.73,3.5,1.48,5.2,2.27,1.69-.79,3.43-1.54,5.2-2.27,1.65.22,3.28.46,4.88.72.1,4.67-.94,11.35.3,15.61a46.75,46.75,0,0,0-4.94,2.06,44.92,44.92,0,0,0-5.44.38,45.09,45.09,0,0,0-5.45-.38,45.89,45.89,0,0,0-4.94-2.06C229.65,239.23,228.62,232.55,228.71,227.88Zm-24.6,6.69c0,.88,0,1.78-.07,2.7-1.73-.18-3.48-.31-5.23-.41Q201.39,235.65,204.11,234.57Zm-5.3-20.63c1.75-.1,3.5-.23,5.23-.4,0,.92.06,1.81.07,2.69Q201.4,215.15,198.81,213.94Zm8.37,19.46a118.28,118.28,0,0,1,18-4.88,51.22,51.22,0,0,1,.15,10.3,40.9,40.9,0,0,1-1.33,7.46A69.45,69.45,0,0,0,202.18,254C205.68,248.23,207.21,240.94,207.18,233.4Zm2,22.44c1.93,2.55,3.89,5,5.77,7.56-1.88,2.54-3.84,5-5.77,7.56a37.43,37.43,0,0,1-13.54-7.56A37.43,37.43,0,0,1,209.23,255.84Zm-7,17A69.7,69.7,0,0,0,224,280.53,40.94,40.94,0,0,1,225.3,288h0a51.33,51.33,0,0,1-.15,10.31,119.46,119.46,0,0,1-18-4.89C207.21,285.86,205.68,278.57,202.18,272.81Zm1.93,19.42q-2.72-1.08-5.3-2.29c1.75-.1,3.5-.23,5.23-.4C204.08,290.46,204.1,291.35,204.11,292.23Zm21-69.94a119.46,119.46,0,0,1-18-4.89c0-7.54-1.5-14.83-5-20.59A69.7,69.7,0,0,0,224,204.53,40.94,40.94,0,0,1,225.3,212h0A51.33,51.33,0,0,1,225.15,222.29Zm-66.7,57.87a46.13,46.13,0,0,0,13.46-4,42.7,42.7,0,0,0,4.81,4.5c-.44,1.45-.83,2.81-1.19,3.7-6.62-.46-11.65-2.51-17.1-4.14Zm0-33.56c5.45-1.64,10.48-3.68,17.1-4.15.36.9.75,2.25,1.19,3.7a43.72,43.72,0,0,0-4.81,4.51,46.13,46.13,0,0,0-13.46-4A.17.17,0,0,1,158.43,246.6ZM167,263.4a72.79,72.79,0,0,1,11.24-13c.13.29.27.57.41.83a46.33,46.33,0,0,0,10.1,12.14,46.65,46.65,0,0,0-10.1,12.14c-.14.26-.28.55-.41.84A72.85,72.85,0,0,1,167,263.4Zm242.88,17.93A201.54,201.54,0,0,1,382,263.4a201.48,201.48,0,0,1,27.92-17.92,146.32,146.32,0,0,1,4.63,17.92A146,146,0,0,1,409.88,281.33Zm0-76A201.54,201.54,0,0,1,382,187.4a201.48,201.48,0,0,1,27.92-17.92,146.32,146.32,0,0,1,4.63,17.92A146,146,0,0,1,409.88,205.33Zm0-75A201.54,201.54,0,0,1,382,112.4a201.48,201.48,0,0,1,27.92-17.92,146.32,146.32,0,0,1,4.63,17.92A146,146,0,0,1,409.88,130.33Z"/><path class="cls-4" d="M95.63,187.4a201.48,201.48,0,0,0-27.92-17.92,144.49,144.49,0,0,0-4.62,17.92,144.19,144.19,0,0,0,4.62,17.93A201.54,201.54,0,0,0,95.63,187.4Z"/><path class="cls-4" d="M281.9,187.4a37.43,37.43,0,0,0-13.54-7.56c-1.71,2.26-3.44,4.47-5.12,6.71a97.71,97.71,0,0,1,9.63,6.71A42.22,42.22,0,0,0,281.9,187.4Z"/><path class="cls-4" d="M382,187.4a201.54,201.54,0,0,0,27.92,17.93,146,146,0,0,0,4.63-17.93,146.32,146.32,0,0,0-4.63-17.92A201.48,201.48,0,0,0,382,187.4Z"/><path class="cls-4" d="M379.2,189.61c-11.91,9.72-22.09,21.17-29.59,35.3a183.45,183.45,0,0,0,23.06-1.57c4.83-4,10.48-6,16.15-3.05,3-.75,5.9-1.59,8.62-2.52A212.72,212.72,0,0,0,379.2,189.61Z"/><path class="cls-4" d="M98.4,189.61a212.78,212.78,0,0,0-18.25,28.16c2.73.93,5.61,1.77,8.62,2.52,5.67-3,11.32-1,16.15,3.05,4.19.56,8.48.95,12.82,1.22q2.46-4.08,5.31-8A119.07,119.07,0,0,0,98.4,189.61Z"/><path class="cls-4" d="M273.55,213.54c0,.92-.06,1.81-.07,2.69q2.72-1.08,5.31-2.29C277,213.84,275.28,213.71,273.55,213.54Z"/><path class="cls-4" d="M204,161.27c0-.92.06-1.82.07-2.7q-2.72,1.08-5.3,2.29C200.56,161,202.31,161.09,204,161.27Z"/><path class="cls-4" d="M238.8,169.93a44.92,44.92,0,0,1,5.44-.38,46.75,46.75,0,0,1,4.94-2.06c-1.24-4.26-.2-10.94-.3-15.61-1.6-.26-3.23-.5-4.88-.72-1.77.73-3.51,1.48-5.2,2.27-1.7-.79-3.44-1.54-5.2-2.27q-2.47.33-4.89.72c-.09,4.67.94,11.35-.3,15.61a45.89,45.89,0,0,1,4.94,2.06A45.09,45.09,0,0,1,238.8,169.93Z"/><path class="cls-4" d="M253.62,170.28A69.2,69.2,0,0,1,275.41,178c-3.5-5.77-5-13.06-5-20.6a118.28,118.28,0,0,0-18-4.88,52,52,0,0,0-.15,10.3A40.9,40.9,0,0,0,253.62,170.28Z"/><path class="cls-4" d="M178.24,200.38c.13-.29.27-.58.41-.84a31.47,31.47,0,0,1,2-3.17,44.37,44.37,0,0,0-4.14,2.31C177.07,199.25,177.64,199.83,178.24,200.38Z"/><path class="cls-4" d="M178.65,175.26c-.14-.26-.28-.54-.41-.83-1,.92-2,1.88-3,2.86,1.27-.42,2.55-.81,3.85-1.18C179,175.83,178.8,175.54,178.65,175.26Z"/><path class="cls-4" d="M166.56,206.72a43.51,43.51,0,0,0,9,1.63c.36-.89.75-2.25,1.19-3.7a45.55,45.55,0,0,1-3.85-3.49A57.1,57.1,0,0,0,166.56,206.72Z"/><path class="cls-4" d="M215.5,172.3a63.59,63.59,0,0,1,8.47-2,40.9,40.9,0,0,0,1.33-7.46,51.22,51.22,0,0,0-.15-10.3,118.28,118.28,0,0,0-18,4.88,44.24,44.24,0,0,1-2.32,14.8c1.34,0,2.68-.07,4-.07Q212.24,172.13,215.5,172.3Z"/><path class="cls-4" d="M270.41,217.4c0-.43,0-.85,0-1.27l-2.57,2.13C268.72,218,269.58,217.7,270.41,217.4Z"/><path class="cls-4" d="M300.87,204.65c.44,1.45.83,2.81,1.19,3.7,6.62-.46,11.65-2.51,17.1-4.14l0-.05a46.23,46.23,0,0,1-13.46-4A42.7,42.7,0,0,1,300.87,204.65Z"/><path class="cls-4" d="M273.55,161.27c1.73-.18,3.48-.31,5.24-.41q-2.6-1.22-5.31-2.29C273.49,159.45,273.51,160.35,273.55,161.27Z"/><path class="cls-4" d="M299,199.54c.14.26.27.55.4.84a73.31,73.31,0,0,0,11.25-13,73.25,73.25,0,0,0-11.25-13c-.13.29-.26.57-.4.83a46.58,46.58,0,0,1-10.11,12.14A46.91,46.91,0,0,1,299,199.54Z"/><path class="cls-4" d="M201.54,191.58a32.57,32.57,0,0,0,7.69,3.38c.65-.85,1.3-1.7,2-2.54a51.61,51.61,0,0,0-9.43-.84Z"/><path class="cls-4" d="M302.06,166.45c-.36.9-.75,2.25-1.19,3.7a43.72,43.72,0,0,1,4.81,4.51,46.23,46.23,0,0,1,13.46-4,.17.17,0,0,0,0-.05C313.71,169,308.68,166.92,302.06,166.45Z"/><path class="cls-4" d="M328.27,223.7c20.72-7.55,36.42-20.53,49.18-36.3-12.76-15.77-28.46-28.75-49.18-36.3-13.19,1.6-25.36,4.83-34.56,9.85,13.57.89,26.7,4,36.74,9.09,11,.64,20.1,5.33,16.75,17.36,3.35,12-5.74,16.73-16.76,17.36-10,5.12-23.16,8.21-36.73,9.1C302.91,218.88,315.08,222.11,328.27,223.7Z"/><path class="cls-4" d="M158.45,170.65a46.13,46.13,0,0,1,13.46,4,43.72,43.72,0,0,1,4.81-4.51c-.44-1.45-.83-2.8-1.19-3.7-6.62.47-11.65,2.51-17.1,4.15A.17.17,0,0,0,158.45,170.65Z"/><path class="cls-4" d="M379.2,185.2A213.37,213.37,0,0,0,397.44,157c-2.72-.93-5.61-1.77-8.62-2.52-5.67,3-11.32,1-16.15-3.05a182.46,182.46,0,0,0-22.88-1.57h-.18C357.12,164,367.29,175.47,379.2,185.2Z"/><polygon class="cls-4" points="349.61 149.9 349.61 149.9 349.61 149.9 349.61 149.9"/><path class="cls-4" d="M235.25,205.18c-.63,0-1.26.07-1.9.08a48,48,0,0,1-4.94,2.06c1.24,4.26.21,10.94.3,15.6,1.61.27,3.24.51,4.88.72q2.66-1.08,5.21-2.27,2.55,1.19,5.2,2.27c1.3-.17,2.57-.36,3.85-.56A68.92,68.92,0,0,0,235.25,205.18Z"/><path class="cls-4" d="M104.92,151.47c-4.83,4-10.48,6-16.15,3.05-3,.75-5.89,1.59-8.62,2.52A213.44,213.44,0,0,0,98.4,185.2c11.9-9.73,22.08-21.17,29.58-35.29h-.18A182.46,182.46,0,0,0,104.92,151.47Z"/><polygon class="cls-4" points="127.98 149.9 127.98 149.9 127.98 149.9 127.98 149.9"/><path class="cls-4" d="M225.3,212h0a40.94,40.94,0,0,0-1.33-7.45,69.7,69.7,0,0,1-21.79-7.72c3.5,5.76,5,13.05,5,20.59a119.46,119.46,0,0,0,18,4.89A51.33,51.33,0,0,0,225.3,212Z"/><path class="cls-4" d="M204,213.54c-1.73.17-3.48.3-5.23.4q2.58,1.22,5.3,2.29C204.1,215.35,204.08,214.46,204,213.54Z"/><path class="cls-4" d="M154.56,223c11.16-1.76,21.35-4.76,29.32-9.11a114.69,114.69,0,0,1-20.83-3.26,80.91,80.91,0,0,0-7,9.83C155.54,221.27,155.05,222.12,154.56,223Z"/><path class="cls-4" d="M135.64,201.9c-4.75-2.63-7.28-7.22-5.25-14.5-3.35-12,5.74-16.72,16.76-17.36,10-5.11,23.16-8.2,36.73-9.09-9.2-5-21.36-8.25-34.56-9.85-20.71,7.55-36.42,20.53-49.17,36.3A122.08,122.08,0,0,0,126.52,212q3.06-3.82,6.51-7.5C133.89,203.64,134.76,202.77,135.64,201.9Z"/><path class="cls-4" d="M95.63,112.4A201.48,201.48,0,0,0,67.71,94.48a144.49,144.49,0,0,0-4.62,17.92,144.19,144.19,0,0,0,4.62,17.93A201.54,201.54,0,0,0,95.63,112.4Z"/><path class="cls-4" d="M262.59,112.4c1.88,2.54,3.84,5,5.77,7.56a37.43,37.43,0,0,0,13.54-7.56,37.43,37.43,0,0,0-13.54-7.56C266.43,107.39,264.47,109.86,262.59,112.4Z"/><path class="cls-4" d="M382,112.4a201.54,201.54,0,0,0,27.92,17.93,146,146,0,0,0,4.63-17.93,146.32,146.32,0,0,0-4.63-17.92A201.48,201.48,0,0,0,382,112.4Z"/><path class="cls-4" d="M388.82,145.29c3-.75,5.9-1.59,8.62-2.52a212.72,212.72,0,0,0-18.24-28.16c-11.91,9.72-22.08,21.17-29.59,35.29h.18a180.6,180.6,0,0,0,22.88-1.56C377.5,144.31,383.15,142.32,388.82,145.29Z"/><path class="cls-4" d="M98.4,114.61a212.78,212.78,0,0,0-18.25,28.16c2.73.93,5.61,1.77,8.62,2.52,5.67-3,11.32-1,16.15,3.05a180.6,180.6,0,0,0,22.88,1.56H128C120.48,135.78,110.3,124.33,98.4,114.61Z"/><path class="cls-4" d="M273.55,138.54c0,.92-.06,1.81-.07,2.69q2.72-1.08,5.31-2.29C277,138.84,275.28,138.71,273.55,138.54Z"/><path class="cls-4" d="M204.11,83.57q-2.72,1.08-5.3,2.29c1.75.1,3.5.23,5.23.41C204.08,85.35,204.1,84.45,204.11,83.57Z"/><path class="cls-4" d="M233.35,94.55a45.09,45.09,0,0,1,5.45.38,44.92,44.92,0,0,1,5.44-.38,46.75,46.75,0,0,1,4.94-2.06c-1.24-4.26-.2-10.94-.3-15.61-1.6-.26-3.23-.5-4.88-.72-1.77.73-3.51,1.48-5.2,2.27-1.7-.79-3.44-1.54-5.2-2.27q-2.47.33-4.89.72c-.09,4.67.94,11.35-.3,15.61A45.89,45.89,0,0,1,233.35,94.55Z"/><path class="cls-4" d="M253.62,95.28A69.2,69.2,0,0,1,275.41,103c-3.5-5.77-5-13.06-5-20.6a118.28,118.28,0,0,0-18-4.88,52,52,0,0,0-.15,10.3A40.9,40.9,0,0,0,253.62,95.28Z"/><path class="cls-4" d="M178.24,99.43a72.79,72.79,0,0,0-11.24,13,72.85,72.85,0,0,0,11.24,13c.13-.29.27-.58.41-.84a46.65,46.65,0,0,1,10.1-12.14,46.33,46.33,0,0,1-10.1-12.14C178.51,100,178.37,99.72,178.24,99.43Z"/><path class="cls-4" d="M175.53,133.35c.36-.89.75-2.25,1.19-3.7a42.7,42.7,0,0,1-4.81-4.5,46.13,46.13,0,0,1-13.46,4l0,.05C163.88,130.84,168.91,132.89,175.53,133.35Z"/><path class="cls-4" d="M224,95.28a40.9,40.9,0,0,0,1.33-7.46,51.22,51.22,0,0,0-.15-10.3,118.28,118.28,0,0,0-18,4.88c0,7.54-1.5,14.83-5,20.6A69.45,69.45,0,0,1,224,95.28Z"/><path class="cls-4" d="M270.41,142.4c0-7.54,1.5-14.83,5-20.59a69.7,69.7,0,0,1-21.79,7.72,40.94,40.94,0,0,0-1.33,7.45h0a52.08,52.08,0,0,0,.15,10.31A119.46,119.46,0,0,0,270.41,142.4Z"/><path class="cls-4" d="M300.87,129.65c.44,1.45.83,2.81,1.19,3.7,6.62-.46,11.65-2.51,17.1-4.14l0-.05a46.23,46.23,0,0,1-13.46-4A42.7,42.7,0,0,1,300.87,129.65Z"/><path class="cls-4" d="M278.79,85.86q-2.6-1.22-5.31-2.29c0,.88,0,1.78.07,2.7C275.28,86.09,277,86,278.79,85.86Z"/><path class="cls-4" d="M299,124.54c.14.26.27.55.4.84a73.31,73.31,0,0,0,11.25-13,73.25,73.25,0,0,0-11.25-13c-.13.29-.26.57-.4.83a46.58,46.58,0,0,1-10.11,12.14A46.91,46.91,0,0,1,299,124.54Z"/><path class="cls-4" d="M215,112.4c-1.88-2.54-3.84-5-5.77-7.56a37.43,37.43,0,0,0-13.54,7.56A37.43,37.43,0,0,0,209.23,120C211.16,117.42,213.12,114.94,215,112.4Z"/><path class="cls-4" d="M302.06,91.45c-.36.9-.75,2.25-1.19,3.7a43.72,43.72,0,0,1,4.81,4.51,46.23,46.23,0,0,1,13.46-4,.17.17,0,0,0,0-.05C313.71,94,308.68,91.92,302.06,91.45Z"/><path class="cls-4" d="M347.2,112.4c3.35,12-5.74,16.73-16.76,17.36-10,5.12-23.16,8.21-36.73,9.1,9.2,5,21.37,8.25,34.56,9.84,20.72-7.55,36.42-20.53,49.18-36.3C364.69,96.63,349,83.65,328.27,76.1c-13.19,1.6-25.36,4.83-34.56,9.85,13.57.89,26.7,4,36.74,9.09C341.46,95.68,350.55,100.37,347.2,112.4Z"/><path class="cls-4" d="M171.91,99.66a43.72,43.72,0,0,1,4.81-4.51c-.44-1.45-.83-2.8-1.19-3.7-6.62.47-11.65,2.51-17.1,4.15a.17.17,0,0,0,0,.05A46.13,46.13,0,0,1,171.91,99.66Z"/><path class="cls-4" d="M379.2,110.2A213.37,213.37,0,0,0,397.44,82c-2.72-.93-5.61-1.77-8.62-2.52-5.67,3-11.32,1-16.15-3a179.77,179.77,0,0,0-23.06-1.57C357.11,89,367.29,100.47,379.2,110.2Z"/><path class="cls-4" d="M228.71,147.92c1.61.27,3.24.51,4.88.72q2.66-1.08,5.21-2.27,2.55,1.19,5.2,2.27c1.65-.21,3.28-.45,4.88-.72.1-4.66-.94-11.34.3-15.6a49,49,0,0,1-4.94-2.06,47,47,0,0,1-5.44-.38,47.22,47.22,0,0,1-5.45.38,48,48,0,0,1-4.94,2.06C229.65,136.58,228.62,143.26,228.71,147.92Z"/><path class="cls-4" d="M128,74.9a179.89,179.89,0,0,0-23.06,1.57c-4.83,4-10.48,6-16.15,3-3,.75-5.89,1.59-8.62,2.52A213.44,213.44,0,0,0,98.4,110.2C110.3,100.47,120.48,89,128,74.9Z"/><path class="cls-4" d="M225.15,147.29A51.33,51.33,0,0,0,225.3,137h0a40.94,40.94,0,0,0-1.33-7.45,69.7,69.7,0,0,1-21.79-7.72c3.5,5.76,5,13.05,5,20.59A119.46,119.46,0,0,0,225.15,147.29Z"/><path class="cls-4" d="M204,138.54c-1.73.17-3.48.3-5.23.4q2.58,1.22,5.3,2.29C204.1,140.35,204.08,139.46,204,138.54Z"/><path class="cls-4" d="M100.15,112.4c12.75,15.77,28.46,28.75,49.17,36.3,13.2-1.59,25.36-4.82,34.56-9.84-13.57-.89-26.7-4-36.73-9.1-11-.63-20.11-5.33-16.76-17.36-3.35-12,5.74-16.72,16.76-17.36,10-5.11,23.16-8.2,36.73-9.09-9.2-5-21.36-8.25-34.56-9.85C128.61,83.65,112.9,96.63,100.15,112.4Z"/><path class="cls-4" d="M95.63,263.4a201.48,201.48,0,0,0-27.92-17.92,144.49,144.49,0,0,0-4.62,17.92,144.19,144.19,0,0,0,4.62,17.93A201.54,201.54,0,0,0,95.63,263.4Z"/><path class="cls-4" d="M262.59,263.4c1.88,2.54,3.84,5,5.77,7.56a37.43,37.43,0,0,0,13.54-7.56,37.43,37.43,0,0,0-13.54-7.56C266.43,258.39,264.47,260.86,262.59,263.4Z"/><path class="cls-4" d="M382,263.4a201.54,201.54,0,0,0,27.92,17.93,146,146,0,0,0,4.63-17.93,146.32,146.32,0,0,0-4.63-17.92A201.48,201.48,0,0,0,382,263.4Z"/><path class="cls-4" d="M379.2,265.61c-11.91,9.72-22.09,21.17-29.59,35.3a183.45,183.45,0,0,0,23.06-1.57c4.83-4,10.48-6,16.15-3,3-.75,5.9-1.59,8.62-2.52A212.72,212.72,0,0,0,379.2,265.61Z"/><path class="cls-4" d="M102.87,269.42q-2.19-1.95-4.47-3.81a212.78,212.78,0,0,0-18.25,28.16c2.73.93,5.61,1.77,8.62,2.52,5.08-2.66,10.15-1.33,14.63,1.87A108.86,108.86,0,0,1,102.23,282,123.91,123.91,0,0,1,102.87,269.42Z"/><path class="cls-4" d="M204,237.27c0-.92.06-1.82.07-2.7q-2.72,1.08-5.3,2.29C200.56,237,202.31,237.09,204,237.27Z"/><path class="cls-4" d="M233.35,245.55a45.09,45.09,0,0,1,5.45.38,44.92,44.92,0,0,1,5.44-.38,46.75,46.75,0,0,1,4.94-2.06c-1.24-4.26-.2-10.94-.3-15.61-1.6-.26-3.23-.5-4.88-.72-1.77.73-3.51,1.48-5.2,2.27-1.7-.79-3.44-1.54-5.2-2.27q-2.47.33-4.89.72c-.09,4.67.94,11.35-.3,15.61A45.89,45.89,0,0,1,233.35,245.55Z"/><path class="cls-4" d="M252.29,238.82a40.9,40.9,0,0,0,1.33,7.46A69.2,69.2,0,0,1,275.41,254c-3.5-5.77-5-13.06-5-20.6a116,116,0,0,0-16.28-4.52l-1.83,1.29A51,51,0,0,0,252.29,238.82Z"/><path class="cls-4" d="M178.65,275.54a46.65,46.65,0,0,1,10.1-12.14,46.33,46.33,0,0,1-10.1-12.14c-.14-.26-.28-.54-.41-.83a72.79,72.79,0,0,0-11.24,13,72.85,72.85,0,0,0,11.24,13C178.37,276.09,178.51,275.8,178.65,275.54Z"/><path class="cls-4" d="M175.53,284.35c.36-.89.75-2.25,1.19-3.7a42.7,42.7,0,0,1-4.81-4.5,46.13,46.13,0,0,1-13.46,4l0,0C163.88,281.84,168.91,283.89,175.53,284.35Z"/><path class="cls-4" d="M224,246.28a40.9,40.9,0,0,0,1.33-7.46,51.22,51.22,0,0,0-.15-10.3,118.28,118.28,0,0,0-18,4.88c0,7.54-1.5,14.83-5,20.6A69.45,69.45,0,0,1,224,246.28Z"/><path class="cls-4" d="M275.41,272.81a69.7,69.7,0,0,1-21.79,7.72,40.94,40.94,0,0,0-1.33,7.45h0c-.09,1-.13,2-.16,3A156.54,156.54,0,0,1,271,285.69,35,35,0,0,1,275.41,272.81Z"/><path class="cls-4" d="M300.87,280.65c.44,1.45.83,2.81,1.19,3.7,6.62-.46,11.65-2.51,17.1-4.14l0,0a46.23,46.23,0,0,1-13.46-4A42.7,42.7,0,0,1,300.87,280.65Z"/><path class="cls-4" d="M273.55,237.27c1.73-.18,3.48-.31,5.24-.41q-2.6-1.22-5.31-2.29C273.49,235.45,273.51,236.35,273.55,237.27Z"/><path class="cls-4" d="M299,275.54c.14.26.27.55.4.84a73.31,73.31,0,0,0,11.25-13,73.25,73.25,0,0,0-11.25-13c-.13.29-.26.57-.4.83a46.58,46.58,0,0,1-10.11,12.14A46.91,46.91,0,0,1,299,275.54Z"/><path class="cls-4" d="M209.23,271c1.93-2.54,3.89-5,5.77-7.56-1.88-2.54-3.84-5-5.77-7.56a37.43,37.43,0,0,0-13.54,7.56A37.43,37.43,0,0,0,209.23,271Z"/><path class="cls-4" d="M302.06,242.45c-.36.9-.75,2.25-1.19,3.7a43.72,43.72,0,0,1,4.81,4.51,46.23,46.23,0,0,1,13.46-4,.17.17,0,0,0,0-.05C313.71,245,308.68,242.92,302.06,242.45Z"/><path class="cls-4" d="M334.33,297.26c17.76-7.75,31.64-19.67,43.12-33.86-12.76-15.77-28.46-28.75-49.18-36.3-13.19,1.6-25.36,4.83-34.56,9.85,13.57.89,26.7,4,36.74,9.09,11,.64,20.1,5.33,16.75,17.36,3.35,12-5.74,16.73-16.76,17.36a80,80,0,0,1-18.18,6.4,82.94,82.94,0,0,1,20.27,8.92C333.15,296.47,333.74,296.87,334.33,297.26Z"/><path class="cls-4" d="M171.91,250.66a43.72,43.72,0,0,1,4.81-4.51c-.44-1.45-.83-2.8-1.19-3.7-6.62.47-11.65,2.51-17.1,4.15a.17.17,0,0,0,0,.05A46.13,46.13,0,0,1,171.91,250.66Z"/><path class="cls-4" d="M388.82,230.52c-5.67,3-11.32,1-16.15-3.05a179.77,179.77,0,0,0-23.06-1.57c7.5,14.12,17.68,25.57,29.59,35.3A213.37,213.37,0,0,0,397.44,233C394.72,232.11,391.83,231.27,388.82,230.52Z"/><path class="cls-4" d="M248.65,292.21c-.14-3.2-.18-6.45.53-8.89a49,49,0,0,1-4.94-2.06,47,47,0,0,1-5.44-.38,47.22,47.22,0,0,1-5.45.38,48,48,0,0,1-4.94,2.06c1.24,4.26.21,10.94.3,15.6.78.13,1.58.24,2.37.35l.62-.27Q240.61,295.12,248.65,292.21Z"/><path class="cls-4" d="M104.92,227.47c-4.83,4-10.48,6-16.15,3.05-3,.75-5.89,1.59-8.62,2.52A213.44,213.44,0,0,0,98.4,261.2q3.51-2.88,6.82-6A105.34,105.34,0,0,1,116.7,226.3C112.72,226.57,108.77,227,104.92,227.47Z"/><path class="cls-4" d="M225.15,298.29A51.33,51.33,0,0,0,225.3,288h0a40.94,40.94,0,0,0-1.33-7.45,69.7,69.7,0,0,1-21.79-7.72c3.5,5.76,5,13.05,5,20.59A119.46,119.46,0,0,0,225.15,298.29Z"/><path class="cls-4" d="M204.11,292.23c0-.88,0-1.77-.07-2.69-1.73.17-3.48.3-5.23.4Q201.39,291.15,204.11,292.23Z"/><path class="cls-4" d="M149.32,299.7c13.2-1.59,25.36-4.82,34.56-9.84-13.57-.89-26.7-4-36.73-9.1a35.47,35.47,0,0,1-6.21-.87,104,104,0,0,0,2.14,17.29C145.11,298.07,147.18,298.92,149.32,299.7Z"/><path class="cls-4" d="M100.15,263.4q1.47,1.82,3,3.58.56-4.47,1.44-8.79Q102.3,260.74,100.15,263.4Z"/><path class="cls-4" d="M147.15,246c10-5.11,23.16-8.2,36.73-9.09-8.54-4.67-19.65-7.78-31.75-9.48a102.24,102.24,0,0,0-7.42,18.79C145.51,246.16,146.32,246.09,147.15,246Z"/><path class="cls-4" d="M95.63,433.4a201.48,201.48,0,0,0-27.92-17.92,144.49,144.49,0,0,0-4.62,17.92,144.19,144.19,0,0,0,4.62,17.93A201.54,201.54,0,0,0,95.63,433.4Z"/><path class="cls-4" d="M262.59,433.4c1.88,2.54,3.84,5,5.77,7.56a37.43,37.43,0,0,0,13.54-7.56,37.43,37.43,0,0,0-13.54-7.56C266.43,428.39,264.47,430.86,262.59,433.4Z"/><path class="cls-4" d="M382,433.4a183.93,183.93,0,0,0,17.86,12.18,26,26,0,0,1,9.54-1.34l1.51,3.89a148,148,0,0,0,3.64-14.73,146.32,146.32,0,0,0-4.63-17.92A201.48,201.48,0,0,0,382,433.4Z"/><path class="cls-4" d="M389.26,451.38l.62-.45c-3.34-5.3-6.88-10.44-10.68-15.32A121.6,121.6,0,0,0,357.71,458q8.54,7.33,13.07,7.32Z"/><path class="cls-4" d="M98.4,435.61a212.78,212.78,0,0,0-18.25,28.16c2.73.93,5.61,1.77,8.62,2.52,5.67-3,11.32-1,16.15,3,3.42.45,6.92.8,10.45,1.06q6-.43,12.07-.49A115.65,115.65,0,0,0,98.4,435.61Z"/><path class="cls-4" d="M128,470.91l-.27-.51-.27.5Z"/><path class="cls-4" d="M273.55,459.54c0,.92-.06,1.81-.07,2.69q2.72-1.08,5.31-2.29C277,459.84,275.28,459.71,273.55,459.54Z"/><path class="cls-4" d="M248.88,397.88c-1.6-.26-3.23-.5-4.88-.72-1.77.73-3.51,1.48-5.2,2.27l-1.59-.71v8.57c4-2,7.89-3.9,11.59-5.85C248.86,400.18,248.9,399,248.88,397.88Z"/><path class="cls-4" d="M252.35,399.54l1.38-.75c-.43-.09-.85-.19-1.29-.27Z"/><path class="cls-4" d="M178.65,445.54a46.65,46.65,0,0,1,10.1-12.14,46.33,46.33,0,0,1-10.1-12.14c-.14-.26-.28-.54-.41-.83a72.79,72.79,0,0,0-11.24,13,72.85,72.85,0,0,0,11.24,13C178.37,446.09,178.51,445.8,178.65,445.54Z"/><path class="cls-4" d="M175.53,454.35c.36-.89.75-2.25,1.19-3.7a42.7,42.7,0,0,1-4.81-4.5,46.13,46.13,0,0,1-13.46,4l0,0C163.88,451.84,168.91,453.89,175.53,454.35Z"/><path class="cls-4" d="M252.44,468.29a119.46,119.46,0,0,0,18-4.89c0-7.54,1.5-14.83,5-20.59a69.7,69.7,0,0,1-21.79,7.72,40.94,40.94,0,0,0-1.33,7.45h0A52.08,52.08,0,0,0,252.44,468.29Z"/><path class="cls-4" d="M302.06,454.35l.42,0-.88-1.26C301.76,453.54,301.91,454,302.06,454.35Z"/><path class="cls-4" d="M195.69,433.4l1,.8v-1.59Z"/><path class="cls-4" d="M330.45,416c11,.64,20.1,5.33,16.75,17.36,1.51,5.43.49,9.36-2.1,12.11q5.31,5.79,9.71,9.88a124.41,124.41,0,0,0,22.64-22c-12.76-15.77-28.46-28.75-49.18-36.3a122.72,122.72,0,0,0-21.21,4.36c2.13,2.36,4.72,5.29,7.78,8.82A77.53,77.53,0,0,1,330.45,416Z"/><path class="cls-4" d="M293.71,459.86a78.25,78.25,0,0,0,17.24,6.6l-5.54-7.95C301.59,459.14,297.67,459.6,293.71,459.86Z"/><path class="cls-4" d="M171.91,420.66a43.72,43.72,0,0,1,4.81-4.51c-.44-1.45-.83-2.8-1.19-3.7-6.62.47-11.65,2.51-17.1,4.15l0,0A46.13,46.13,0,0,1,171.91,420.66Z"/><path class="cls-4" d="M372.67,397.47a179.77,179.77,0,0,0-23.06-1.57c7.5,14.12,17.68,25.57,29.59,35.3A213.37,213.37,0,0,0,397.44,403c-2.72-.93-5.61-1.77-8.62-2.52C383.15,403.48,377.5,401.49,372.67,397.47Z"/><path class="cls-4" d="M237.55,467.93l1.25-.56q2.55,1.19,5.2,2.27c1.65-.21,3.28-.45,4.88-.72.1-4.66-.94-11.34.3-15.6a49,49,0,0,1-4.94-2.06,47,47,0,0,1-5.44-.38c-1.36.18-2.73.27-4.1.32A82.64,82.64,0,0,0,236.89,466C237.08,466.58,237.3,467.25,237.55,467.93Z"/><path class="cls-4" d="M88.77,400.52c-3,.75-5.89,1.59-8.62,2.52A213.44,213.44,0,0,0,98.4,431.2c11.9-9.73,22.08-21.18,29.58-35.3a179.89,179.89,0,0,0-23.06,1.57C100.09,401.49,94.44,403.48,88.77,400.52Z"/><path class="cls-4" d="M100.15,433.4c12.75,15.77,28.46,28.75,49.17,36.3,13.2-1.59,25.36-4.82,34.56-9.84-13.57-.89-26.7-4-36.73-9.1-11-.63-20.11-5.33-16.76-17.36-3.35-12,5.74-16.72,16.76-17.36,10-5.11,23.16-8.2,36.73-9.09-9.2-5-21.36-8.25-34.56-9.85C128.61,404.65,112.9,417.63,100.15,433.4Z"/><path class="cls-4" d="M95.63,507.4a201.48,201.48,0,0,0-27.92-17.92,144.49,144.49,0,0,0-4.62,17.92,144.19,144.19,0,0,0,4.62,17.93A201.54,201.54,0,0,0,95.63,507.4Z"/><path class="cls-4" d="M262.59,507.4c1.88,2.54,3.84,5,5.77,7.56a37.43,37.43,0,0,0,13.54-7.56,37.43,37.43,0,0,0-13.54-7.56C266.43,502.39,264.47,504.86,262.59,507.4Z"/><path class="cls-4" d="M382,507.4a201.54,201.54,0,0,0,27.92,17.93,146,146,0,0,0,4.63-17.93,146.32,146.32,0,0,0-4.63-17.92A201.48,201.48,0,0,0,382,507.4Z"/><path class="cls-4" d="M349.61,544.91h.55l-.28-.5Z"/><path class="cls-4" d="M388.82,540.29c3-.75,5.9-1.59,8.62-2.52a212.72,212.72,0,0,0-18.24-28.16,115.65,115.65,0,0,0-29,34.3c4,0,8.07.2,12.06.49,3.53-.26,7-.61,10.45-1.06C377.5,539.31,383.15,537.32,388.82,540.29Z"/><path class="cls-4" d="M128,544.91l-.27-.51-.27.5Z"/><path class="cls-4" d="M98.4,509.61a212.78,212.78,0,0,0-18.25,28.16c2.73.93,5.61,1.77,8.62,2.52,5.67-3,11.32-1,16.15,3.05,3.42.45,6.92.8,10.45,1.06q6-.43,12.07-.49A115.65,115.65,0,0,0,98.4,509.61Z"/><path class="cls-4" d="M273.55,533.54c0,.92-.06,1.81-.07,2.69q2.72-1.08,5.31-2.29C277,533.84,275.28,533.71,273.55,533.54Z"/><path class="cls-4" d="M246.87,488.37c.81-.34,1.59-.63,2.31-.88-1.24-4.26-.2-10.94-.3-15.61-1.6-.26-3.23-.5-4.88-.72q-2.25.93-4.41,1.92c1.28,3,2.88,6.48,4.75,10.39C245.26,485.23,246.1,486.85,246.87,488.37Z"/><path class="cls-4" d="M252.29,482.82a40.9,40.9,0,0,0,1.33,7.46A69.2,69.2,0,0,1,275.41,498c-3.5-5.77-5-13.06-5-20.6a118.28,118.28,0,0,0-18-4.88A52,52,0,0,0,252.29,482.82Z"/><path class="cls-4" d="M181.48,499.63a35.08,35.08,0,0,1-2.83-4.37c-.14-.26-.28-.54-.41-.83a72.79,72.79,0,0,0-11.24,13,72.85,72.85,0,0,0,11.24,13c.13-.29.27-.58.41-.84a46.65,46.65,0,0,1,10.1-12.14,53.67,53.67,0,0,1-7.23-7.72h-.07Z"/><path class="cls-4" d="M175.53,528.35c.36-.89.75-2.25,1.19-3.7a42.7,42.7,0,0,1-4.81-4.5,46.13,46.13,0,0,1-13.46,4l0,.05C163.88,525.84,168.91,527.89,175.53,528.35Z"/><path class="cls-4" d="M252.44,542.29a119.46,119.46,0,0,0,18-4.89c0-7.54,1.5-14.83,5-20.59a69.7,69.7,0,0,1-21.79,7.72,40.94,40.94,0,0,0-1.33,7.45h0A52.08,52.08,0,0,0,252.44,542.29Z"/><path class="cls-4" d="M300.87,524.65c.44,1.45.83,2.81,1.19,3.7,6.62-.46,11.65-2.51,17.1-4.14l0-.05a46.23,46.23,0,0,1-13.46-4A42.7,42.7,0,0,1,300.87,524.65Z"/><path class="cls-4" d="M273.55,481.27c1.73-.18,3.48-.31,5.24-.41q-2.6-1.22-5.31-2.29C273.49,479.45,273.51,480.35,273.55,481.27Z"/><path class="cls-4" d="M299,495.26a46.58,46.58,0,0,1-10.11,12.14A46.91,46.91,0,0,1,299,519.54c.14.26.27.55.4.84a73.31,73.31,0,0,0,11.25-13,73.25,73.25,0,0,0-11.25-13C299.22,494.72,299.09,495,299,495.26Z"/><path class="cls-4" d="M215,507.4c-1.88-2.54-3.84-5-5.77-7.56a37.43,37.43,0,0,0-13.54,7.56A37.43,37.43,0,0,0,209.23,515C211.16,512.42,213.12,509.94,215,507.4Z"/><path class="cls-4" d="M302.06,486.45c-.36.9-.75,2.25-1.19,3.7a43.72,43.72,0,0,1,4.81,4.51,46.23,46.23,0,0,1,13.46-4l0,0C313.71,489,308.68,486.92,302.06,486.45Z"/><path class="cls-4" d="M347.3,498.89a14.1,14.1,0,0,1-.1,8.51c3.35,12-5.74,16.73-16.76,17.36-10,5.12-23.16,8.21-36.73,9.1,9.2,5,21.37,8.25,34.56,9.84,20.72-7.55,36.42-20.53,49.18-36.3q-4.21-5.2-8.88-10a40,40,0,0,1-13.35,2.24A38.9,38.9,0,0,1,347.3,498.89Z"/><path class="cls-4" d="M319.88,479.26l-4.21-6.05a83.66,83.66,0,0,0-22,7.74c12.75.83,25.11,3.61,34.88,8.19A61.18,61.18,0,0,1,319.88,479.26Z"/><path class="cls-4" d="M176.72,490.15c-.44-1.45-.83-2.8-1.19-3.7-6.62.47-11.65,2.51-17.1,4.15l0,0a46.13,46.13,0,0,1,13.46,4A43.72,43.72,0,0,1,176.72,490.15Z"/><path class="cls-4" d="M370,496.91q4.41,4.35,9.25,8.29A213.37,213.37,0,0,0,397.44,477c-.95-.33-1.93-.64-2.92-.94-2.09,2.86-3.95,5.22-5.58,7C383,489.67,376.71,494.25,370,496.91Z"/><path class="cls-4" d="M238.8,524.88a47.22,47.22,0,0,1-5.45.38,48,48,0,0,1-4.94,2.06c1.24,4.26.21,10.94.3,15.6,1.61.27,3.24.51,4.88.72q2.66-1.08,5.21-2.27,2.55,1.18,5.2,2.27c1.65-.21,3.28-.45,4.88-.72.1-4.66-.94-11.34.3-15.6a49,49,0,0,1-4.94-2.06A47,47,0,0,1,238.8,524.88Z"/><path class="cls-4" d="M88.77,474.52c-3,.75-5.89,1.59-8.62,2.52A213.44,213.44,0,0,0,98.4,505.2c11.62-9.5,21.59-20.64,29-34.3l.27-.5.27-.5h-.54q-6.07,0-12.07.49c-3.53.26-7,.61-10.45,1.07C100.09,475.49,94.44,477.48,88.77,474.52Z"/><path class="cls-4" d="M225.3,532a40.94,40.94,0,0,0-1.33-7.45,69.7,69.7,0,0,1-21.79-7.72c3.5,5.76,5,13.05,5,20.59a119.46,119.46,0,0,0,18,4.89A51.33,51.33,0,0,0,225.3,532Z"/><path class="cls-4" d="M198.81,533.94q2.58,1.21,5.3,2.29c0-.88,0-1.77-.07-2.69C202.31,533.71,200.56,533.84,198.81,533.94Z"/><path class="cls-4" d="M149.32,471.1c-20.71,7.55-36.42,20.53-49.17,36.3,12.75,15.77,28.46,28.75,49.17,36.3,13.2-1.59,25.36-4.82,34.56-9.84-13.57-.89-26.7-4-36.73-9.1-11-.63-20.11-5.33-16.76-17.36-3.35-12,5.74-16.72,16.76-17.36,10-5.11,23.16-8.2,36.73-9.09C174.68,475.93,162.52,472.7,149.32,471.1Z"/><path class="cls-4" d="M67.71,563.48a144.49,144.49,0,0,0-4.62,17.92,144.19,144.19,0,0,0,4.62,17.93A201.54,201.54,0,0,0,95.63,581.4,201.48,201.48,0,0,0,67.71,563.48Z"/><path class="cls-4" d="M262.59,581.4c1.88,2.54,3.84,5,5.77,7.56a37.43,37.43,0,0,0,13.54-7.56,37.43,37.43,0,0,0-13.54-7.56C266.43,576.39,264.47,578.86,262.59,581.4Z"/><path class="cls-4" d="M382,581.4a201.54,201.54,0,0,0,27.92,17.93,146,146,0,0,0,4.63-17.93,146.32,146.32,0,0,0-4.63-17.92A201.48,201.48,0,0,0,382,581.4Z"/><path class="cls-4" d="M349.61,618.91a183.45,183.45,0,0,0,23.06-1.57c4.83-4,10.48-6,16.15-3.05,3-.75,5.9-1.59,8.62-2.52a212.72,212.72,0,0,0-18.24-28.16C367.29,593.33,357.11,604.78,349.61,618.91Z"/><path class="cls-4" d="M98.4,583.61a212.78,212.78,0,0,0-18.25,28.16c2.73.93,5.61,1.77,8.62,2.52,5.67-3,11.32-1,16.15,3.05A183.58,183.58,0,0,0,128,618.91C120.48,604.78,110.3,593.33,98.4,583.61Z"/><path class="cls-4" d="M273.48,610.23q2.72-1.08,5.31-2.29c-1.76-.1-3.51-.23-5.24-.4C273.51,608.46,273.49,609.35,273.48,610.23Z"/><path class="cls-4" d="M198.81,554.86c1.75.1,3.5.23,5.23.41,0-.92.06-1.82.07-2.7Q201.4,553.65,198.81,554.86Z"/><path class="cls-4" d="M248.88,545.88c-1.6-.26-3.23-.5-4.88-.72-1.77.73-3.51,1.48-5.2,2.27-1.7-.79-3.44-1.54-5.2-2.27q-2.47.33-4.89.72c-.09,4.67.94,11.35-.3,15.61a45.89,45.89,0,0,1,4.94,2.06,45.09,45.09,0,0,1,5.45.38,44.92,44.92,0,0,1,5.44-.38,46.75,46.75,0,0,1,4.94-2.06C247.94,557.23,249,550.55,248.88,545.88Z"/><path class="cls-4" d="M252.29,556.82a40.9,40.9,0,0,0,1.33,7.46A69.2,69.2,0,0,1,275.41,572c-3.5-5.77-5-13.06-5-20.6a118.28,118.28,0,0,0-18-4.88A52,52,0,0,0,252.29,556.82Z"/><path class="cls-4" d="M178.65,569.26c-.14-.26-.28-.54-.41-.83a72.79,72.79,0,0,0-11.24,13,72.85,72.85,0,0,0,11.24,13c.13-.29.27-.58.41-.84a46.65,46.65,0,0,1,10.1-12.14A46.33,46.33,0,0,1,178.65,569.26Z"/><path class="cls-4" d="M175.53,602.35c.36-.89.75-2.25,1.19-3.7a42.7,42.7,0,0,1-4.81-4.5,46.13,46.13,0,0,1-13.46,4l0,.05C163.88,599.84,168.91,601.89,175.53,602.35Z"/><path class="cls-4" d="M225.3,556.82a51.22,51.22,0,0,0-.15-10.3,118.28,118.28,0,0,0-18,4.88c0,7.54-1.5,14.83-5,20.6A69.45,69.45,0,0,1,224,564.28,40.9,40.9,0,0,0,225.3,556.82Z"/><path class="cls-4" d="M253.62,598.53a40.94,40.94,0,0,0-1.33,7.45h0a52.08,52.08,0,0,0,.15,10.31,119.46,119.46,0,0,0,18-4.89c0-7.54,1.5-14.83,5-20.59A69.7,69.7,0,0,1,253.62,598.53Z"/><path class="cls-4" d="M300.87,598.65c.44,1.45.83,2.81,1.19,3.7,6.62-.46,11.65-2.51,17.1-4.14l0-.05a46.23,46.23,0,0,1-13.46-4A42.7,42.7,0,0,1,300.87,598.65Z"/><path class="cls-4" d="M273.55,555.27c1.73-.18,3.48-.31,5.24-.41q-2.6-1.22-5.31-2.29C273.49,553.45,273.51,554.35,273.55,555.27Z"/><path class="cls-4" d="M299.35,594.38a73.31,73.31,0,0,0,11.25-13,73.25,73.25,0,0,0-11.25-13c-.13.29-.26.57-.4.83a46.58,46.58,0,0,1-10.11,12.14A46.91,46.91,0,0,1,299,593.54C299.09,593.8,299.22,594.09,299.35,594.38Z"/><path class="cls-4" d="M209.23,589c1.93-2.54,3.89-5,5.77-7.56-1.88-2.54-3.84-5-5.77-7.56a37.43,37.43,0,0,0-13.54,7.56A37.43,37.43,0,0,0,209.23,589Z"/><path class="cls-4" d="M302.06,560.45c-.36.9-.75,2.25-1.19,3.7a43.72,43.72,0,0,1,4.81,4.51,46.23,46.23,0,0,1,13.46-4l0,0C313.71,563,308.68,560.92,302.06,560.45Z"/><path class="cls-4" d="M377.45,581.4c-12.76-15.77-28.46-28.75-49.18-36.3-13.19,1.6-25.36,4.83-34.56,9.85,13.57.89,26.7,4,36.74,9.09,11,.64,20.1,5.33,16.75,17.36,3.35,12-5.74,16.73-16.76,17.36-10,5.12-23.16,8.21-36.73,9.1,9.2,5,21.37,8.25,34.56,9.84C349,610.15,364.69,597.17,377.45,581.4Z"/><path class="cls-4" d="M176.72,564.15c-.44-1.45-.83-2.8-1.19-3.7-6.62.47-11.65,2.51-17.1,4.15l0,0a46.13,46.13,0,0,1,13.46,4A43.72,43.72,0,0,1,176.72,564.15Z"/><path class="cls-4" d="M349.61,543.9l.27.5.28.5c7.45,13.66,17.42,24.8,29,34.3A213.37,213.37,0,0,0,397.44,551c-2.72-.93-5.61-1.77-8.62-2.52-5.67,3-11.32,1-16.15-3-3.42-.46-6.92-.81-10.45-1.07-4-.29-8-.46-12.06-.49Z"/><path class="cls-4" d="M244.24,599.26a47,47,0,0,1-5.44-.38,47.22,47.22,0,0,1-5.45.38,48,48,0,0,1-4.94,2.06c1.24,4.26.21,10.94.3,15.6,1.61.27,3.24.51,4.88.72q2.66-1.08,5.21-2.27,2.55,1.18,5.2,2.27c1.65-.21,3.28-.45,4.88-.72.1-4.66-.94-11.34.3-15.6A49,49,0,0,1,244.24,599.26Z"/><path class="cls-4" d="M127.44,543.91q-6.07,0-12.07.49c-3.53.26-7,.61-10.45,1.07-4.83,4-10.48,6-16.15,3-3,.75-5.89,1.59-8.62,2.52A213.44,213.44,0,0,0,98.4,579.2c11.62-9.5,21.59-20.64,29-34.3l.27-.5.27-.5Z"/><path class="cls-4" d="M225.3,606a40.94,40.94,0,0,0-1.33-7.45,69.7,69.7,0,0,1-21.79-7.72c3.5,5.76,5,13.05,5,20.59a119.46,119.46,0,0,0,18,4.89A51.33,51.33,0,0,0,225.3,606Z"/><path class="cls-4" d="M198.81,607.94q2.58,1.21,5.3,2.29c0-.88,0-1.77-.07-2.69C202.31,607.71,200.56,607.84,198.81,607.94Z"/><path class="cls-4" d="M130.39,581.4c-3.35-12,5.74-16.72,16.76-17.36,10-5.11,23.16-8.2,36.73-9.09-9.2-5-21.36-8.25-34.56-9.85-20.71,7.55-36.42,20.53-49.17,36.3,12.75,15.77,28.46,28.75,49.17,36.3,13.2-1.59,25.36-4.82,34.56-9.84-13.57-.89-26.7-4-36.73-9.1C136.13,598.13,127,593.43,130.39,581.4Z"/><path d="M160.59,332.93a78,78,0,0,1-17.51-35.75,104,104,0,0,1-2.14-17.29c-.08-1.75-.13-3.52-.13-5.32a102.23,102.23,0,0,1,11.32-47.1q1.16-2.26,2.43-4.5c.49-.85,1-1.7,1.49-2.54a80.91,80.91,0,0,1,7-9.83q1.71-2.06,3.51-3.88a57.1,57.1,0,0,1,6.31-5.56c1.18-.89,2.39-1.72,3.61-2.48a44.37,44.37,0,0,1,4.14-2.31,47,47,0,0,1,20.92-4.79h.22a51.61,51.61,0,0,1,9.43.84,44.92,44.92,0,0,1,24.06,12.76,68.92,68.92,0,0,1,12.6,17.9c1.23,2.43,2.41,5,3.52,7.73.3-.21.61-.43.93-.64l1.83-1.29c4-2.84,8.56-6.35,13.74-10.62l2.57-2.13c4.29-3.59,8.95-7.65,14-12.23a103.78,103.78,0,0,0-11.56-10.64,97.71,97.71,0,0,0-9.63-6.71q-21-12.81-47.74-14.25-3.27-.17-6.61-.17c-1.35,0-2.69,0-4,.07a107,107,0,0,0-25.72,3.91c-1.3.37-2.58.76-3.85,1.18a101,101,0,0,0-39.65,24.61c-.88.87-1.75,1.74-2.61,2.64q-3.45,3.68-6.51,7.5-1.8,2.24-3.47,4.53-2.85,3.92-5.31,8c-.35.58-.7,1.16-1,1.74a105.34,105.34,0,0,0-11.48,28.94c-.23,1-.44,2-.64,2.95q-.89,4.32-1.44,8.79c-.1.81-.19,1.62-.27,2.44a123.91,123.91,0,0,0-.64,12.61,108.86,108.86,0,0,0,1.17,16.13c3.16,21.34,12.77,39.95,28.66,55.84,18.25,18,39.72,27.6,64.63,29.23V355.39A66.33,66.33,0,0,1,160.59,332.93Z"/><path d="M259.47,369.57c18.48-10.7,30.15-25.29,34.69-43.77q-8.76,0-17.51,7.78c-8.43,7.46-15.23,12.32-20.42,15.24a75.62,75.62,0,0,1-19,6.66V379A104.16,104.16,0,0,0,259.47,369.57Z"/><path d="M399.82,445.58a35.55,35.55,0,0,0-9.94,5.35l-.62.45-18.48,13.94q-4.53,0-13.07-7.32c-.93-.8-1.9-1.67-2.9-2.61q-4.4-4.09-9.71-9.88-4.37-4.77-9.33-10.67Q323,419.72,314.84,410.28c-3.06-3.53-5.65-6.46-7.78-8.82a74.26,74.26,0,0,0-6.63-6.82l35.34-24c13-10.7,19.45-23,19.45-36.31,0-15.55-6.88-27.81-20.89-37.08-.59-.39-1.18-.79-1.8-1.18a82.94,82.94,0,0,0-20.27-8.92,89,89,0,0,0-24.8-3.39A81.41,81.41,0,0,0,271,285.69,156.54,156.54,0,0,0,252.13,291c-1.15.39-2.31.81-3.48,1.23q-8,2.91-17,6.79l-.62.27q-36,15.8-51.9,17.24V324c11.67,7.45,17.51,16.53,17.51,27.88v3.54A83.15,83.15,0,0,0,216,357.57a102.51,102.51,0,0,0,21.18-2.09V334.34c0-8.1,4.86-15.56,14.27-22.69,8.75-6.81,17.5-10,25.93-10,9.4,0,17.51,3.56,24.64,10.69q10.69,10.21,10.7,24.32c0,13.29-9.72,27.23-28.85,42.47a208.33,208.33,0,0,1-30.17,19.71l-1.38.75-3.55,1.9c-3.7,1.95-7.55,3.9-11.59,5.85V379a116.31,116.31,0,0,1-32.85,4.55c-2.6,0-5.15-.11-7.67-.28v89.55c0,3.89-1.95,8.42-6.16,13.94-5.14,6.74-8.05,11.25-9.05,12.91l0,.05h70.67a110.76,110.76,0,0,0-5.25-11.31c-.77-1.52-1.61-3.14-2.53-4.9-1.87-3.91-3.47-7.37-4.75-10.39q-1.22-2.83-2-5.15c-.25-.68-.47-1.35-.66-2a82.64,82.64,0,0,1-2.19-14.77c-.26-3.73-.41-7.88-.41-12.46,0-7.46,2-12.65,6.16-15.57,3.25-2.27,8.76-3.56,16.86-3.56,13.94,0,25.94,7.13,35.67,21.07l8.62,12.37.88,1.26,2.93,4.2,5.54,7.95,4.72,6.75,4.21,6.05a61.18,61.18,0,0,0,8.71,9.88,39.52,39.52,0,0,0,18.71,9.75,38.9,38.9,0,0,0,7.92.79,40,40,0,0,0,13.35-2.24l1.38-.53c6.76-2.66,13.05-7.24,19-13.76,1.63-1.83,3.49-4.19,5.58-7,4.56-6.24,10.23-14.91,17.11-26l-.76-1.95-1.51-3.89A26,26,0,0,0,399.82,445.58Z"/></g></g></svg>