<svg xmlns="http://www.w3.org/2000/svg" viewBox="0 0 480 690"><defs><style>.cls-1{fill:none;}.cls-2,.cls-3{fill:#fff;}.cls-3{stroke:#000;stroke-miterlimit:10;stroke-width:2px;}.cls-4{fill:#231f20;}</style></defs><g id="Layer_2" data-name="Layer 2"><g id="Layer_1-2" data-name="Layer 1"><path class="cls-1" d="M0,0V690H480V0ZM447.33,643.9a15,15,0,0,1-15,15H47.21a15,15,0,0,1-15-15V28a15,15,0,0,1,15-15H432.34a15,15,0,0,1,15,15Z"/><path class="cls-2" d="M226.14,349.66V338a50.31,50.31,0,0,1-10.5,1,41,41,0,0,1-9.59-1.09v13.81c1.26.08,2.52.13,3.81.13A57.65,57.65,0,0,0,226.14,349.66Z"/><path class="cls-2" d="M245.7,327.16q4.34-3.86,8.68-3.85c-2.25,9.16-8,16.39-17.2,21.69a51.87,51.87,0,0,1-11,4.66v14q14.48-7,23.15-14c9.48-7.55,14.3-14.47,14.3-21.05a16.12,16.12,0,0,0-5.3-12.06,16.74,16.74,0,0,0-12.22-5.3c-4.18,0-8.51,1.6-12.85,5-4.66,3.54-7.08,7.23-7.08,11.25V338a37.83,37.83,0,0,0,9.43-3.3A62,62,0,0,0,245.7,327.16Z"/><path class="cls-3" d="M432.34,13H47.21a15,15,0,0,0-15,15V643.9a15,15,0,0,0,15,15H432.34a15,15,0,0,0,15-15V28A15,15,0,0,0,432.34,13ZM369.67,60.47c4.83,4,10.48,6,16.15,3.05,3,.75,5.9,1.59,8.62,2.52A213.37,213.37,0,0,1,376.2,94.2C364.29,84.47,354.11,73,346.61,58.9A179.77,179.77,0,0,1,369.67,60.47Zm0,75c4.83,4,10.48,6,16.15,3.05,3,.75,5.9,1.59,8.62,2.52A213.37,213.37,0,0,1,376.2,169.2c-11.91-9.73-22.08-21.17-29.59-35.29h0c7.51-14.12,17.68-25.57,29.59-35.29a212.72,212.72,0,0,1,18.24,28.16c-2.72.93-5.61,1.77-8.62,2.52-5.67-3-11.32-1-16.15,3.05a180.6,180.6,0,0,1-22.88,1.56A182.46,182.46,0,0,1,369.67,135.47Zm0,320c4.83,4,10.48,6,16.15,3,3,.75,5.9,1.59,8.62,2.52A213.37,213.37,0,0,1,376.2,489.2c-11.62-9.5-21.59-20.64-29-34.3h-.55l.27-.51-.27-.5h.55a115.65,115.65,0,0,1,29-34.3,212.72,212.72,0,0,1,18.24,28.16c-2.72.93-5.61,1.77-8.62,2.52-5.67-3-11.32-1-16.15,3-3.42.45-6.92.8-10.45,1.06C362.75,454.66,366.25,455,369.67,455.47Zm0,74c4.83,4,10.48,6,16.15,3,3,.75,5.9,1.59,8.62,2.52A213.37,213.37,0,0,1,376.2,563.2c-11.62-9.5-21.59-20.64-29-34.3h-.55l.27-.51-.27-.5h.55a115.65,115.65,0,0,1,29-34.3,212.72,212.72,0,0,1,18.24,28.16c-2.72.93-5.61,1.77-8.62,2.52-5.67-3-11.32-1-16.15,3.05-3.42.45-6.92.8-10.45,1.06C362.75,528.66,366.25,529,369.67,529.47Zm-53.53-54.82a46.23,46.23,0,0,0-13.46,4,43.72,43.72,0,0,0-4.81-4.51c.44-1.45.83-2.8,1.19-3.7,6.62.47,11.65,2.51,17.1,4.15Zm0,33.56c-5.45,1.63-10.48,3.68-17.1,4.14-.36-.89-.75-2.25-1.19-3.7a42.7,42.7,0,0,0,4.81-4.5,46.23,46.23,0,0,0,13.46,4ZM307.6,491.4a73.31,73.31,0,0,1-11.25,13c-.13-.29-.26-.58-.4-.84a46.91,46.91,0,0,0-10.11-12.14A46.58,46.58,0,0,0,296,479.26c.14-.26.27-.54.4-.83A73.25,73.25,0,0,1,307.6,491.4Zm19.84,17.36c11-.63,20.11-5.33,16.76-17.36,3.35-12-5.74-16.72-16.75-17.36-10-5.11-23.17-8.2-36.74-9.09,9.2-5,21.37-8.25,34.56-9.85,20.72,7.55,36.42,20.53,49.18,36.3-12.76,15.77-28.46,28.75-49.18,36.3-13.19-1.59-25.36-4.82-34.56-9.84C304.28,517,317.41,513.88,327.44,508.76ZM346.61,379.9a179.77,179.77,0,0,1,23.06,1.57c4.83,4,10.48,6,16.15,3,3,.75,5.9,1.59,8.62,2.52A213.37,213.37,0,0,1,376.2,415.2C364.29,405.47,354.11,394,346.61,379.9ZM316.14,264.16l0,0c-5.45,1.63-10.48,3.68-17.1,4.14-.36-.89-.75-2.25-1.19-3.7a42.7,42.7,0,0,0,4.81-4.5A46.23,46.23,0,0,0,316.14,264.16Zm0-33.51a46.23,46.23,0,0,0-13.46,4,43.72,43.72,0,0,0-4.81-4.51c.44-1.45.83-2.8,1.19-3.7,6.62.47,11.65,2.51,17.1,4.15A.17.17,0,0,1,316.14,230.65Zm11.3,34.11c11-.63,20.11-5.33,16.76-17.36,3.35-12-5.74-16.72-16.75-17.36-10-5.11-23.17-8.2-36.74-9.09,9.2-5,21.37-8.25,34.56-9.85,20.72,7.55,36.42,20.53,49.18,36.3-12.76,15.77-28.46,28.75-49.18,36.3-13.19-1.59-25.36-4.82-34.56-9.84C304.28,273,317.41,269.88,327.44,264.76Zm-11.3-76.6,0,.05c-5.45,1.63-10.48,3.68-17.1,4.14-.36-.89-.75-2.25-1.19-3.7a42.7,42.7,0,0,0,4.81-4.5A46.23,46.23,0,0,0,316.14,188.16Zm0-33.51a46.23,46.23,0,0,0-13.46,4,43.72,43.72,0,0,0-4.81-4.51c.44-1.45.83-2.8,1.19-3.7,6.62.47,11.65,2.51,17.1,4.15A.17.17,0,0,1,316.14,154.65Zm11.3,34.11c11-.63,20.11-5.33,16.76-17.36,3.35-12-5.74-16.72-16.75-17.36-10-5.11-23.17-8.2-36.74-9.09,9.2-5,21.37-8.25,34.56-9.85,20.72,7.55,36.42,20.53,49.18,36.3-12.76,15.77-28.46,28.75-49.18,36.3-13.19-1.59-25.36-4.82-34.56-9.84C304.28,197,317.41,193.88,327.44,188.76Zm58.38,91.53c-5.67-3-11.32-1-16.15,3a183.45,183.45,0,0,1-23.06,1.57c7.5-14.13,17.68-25.58,29.59-35.3a212.72,212.72,0,0,1,18.24,28.16C391.72,278.7,388.83,279.54,385.82,280.29ZM346.61,209.9a179.77,179.77,0,0,1,23.06,1.57c4.83,4,10.48,6,16.15,3.05,3,.75,5.9,1.59,8.62,2.52A213.37,213.37,0,0,1,376.2,245.2C364.29,235.47,354.11,224,346.61,209.9Zm39.21-5.61c-5.67-3-11.32-1-16.15,3.05a183.45,183.45,0,0,1-23.06,1.57c7.5-14.13,17.68-25.58,29.59-35.3a212.72,212.72,0,0,1,18.24,28.16C391.72,202.7,388.83,203.54,385.82,204.29ZM325.27,60.1c20.72,7.55,36.42,20.53,49.18,36.3-12.76,15.77-28.46,28.75-49.18,36.3-13.19-1.59-25.36-4.82-34.56-9.84,13.57-.89,26.7-4,36.73-9.1,11-.63,20.11-5.33,16.76-17.36,3.35-12-5.74-16.72-16.75-17.36-10-5.11-23.17-8.2-36.74-9.09C299.91,64.93,312.08,61.7,325.27,60.1Zm-9.13,53.06,0,0c-5.45,1.63-10.48,3.68-17.1,4.14-.36-.89-.75-2.25-1.19-3.7a42.7,42.7,0,0,0,4.81-4.5A46.23,46.23,0,0,0,316.14,113.16Zm0-33.51a46.23,46.23,0,0,0-13.46,4,43.72,43.72,0,0,0-4.81-4.51c.44-1.45.83-2.8,1.19-3.7,6.62.47,11.65,2.51,17.1,4.15A.17.17,0,0,1,316.14,79.65ZM296,84.26c.14-.26.27-.54.4-.83a73.25,73.25,0,0,1,11.25,13,73.31,73.31,0,0,1-11.25,13c-.13-.29-.26-.58-.4-.84A46.91,46.91,0,0,0,285.84,96.4,46.58,46.58,0,0,0,296,84.26Zm0,75c.14-.26.27-.54.4-.83a73.25,73.25,0,0,1,11.25,13,73.31,73.31,0,0,1-11.25,13c-.13-.29-.26-.58-.4-.84a46.91,46.91,0,0,0-10.11-12.14A46.58,46.58,0,0,0,296,159.26Zm0,76c.14-.26.27-.54.4-.83a73.25,73.25,0,0,1,11.25,13,73.31,73.31,0,0,1-11.25,13c-.13-.29-.26-.58-.4-.84a46.91,46.91,0,0,0-10.11-12.14A46.58,46.58,0,0,0,296,235.26Zm-45.33,29.27a69.7,69.7,0,0,0,21.79-7.72c-3.5,5.76-5,13.05-5,20.59a119.46,119.46,0,0,1-18,4.89,52.08,52.08,0,0,1-.15-10.31h0A40.94,40.94,0,0,1,250.62,264.53Zm19.93,9c1.73.17,3.48.3,5.24.4q-2.6,1.21-5.31,2.29C270.49,275.35,270.51,274.46,270.55,273.54ZM265.36,255c-1.93-2.54-3.89-5-5.77-7.56,1.88-2.54,3.84-5,5.77-7.56a37.43,37.43,0,0,1,13.54,7.56A37.43,37.43,0,0,1,265.36,255Zm10.43-34.1c-1.76.1-3.51.23-5.24.41,0-.92-.06-1.82-.07-2.7Q273.2,219.65,275.79,220.86Zm-5.31-20.63c0-.88,0-1.77.07-2.69,1.73.17,3.48.3,5.24.4Q273.2,199.16,270.48,200.23ZM265.36,179c-1.93-2.54-3.89-5-5.77-7.56,1.88-2.54,3.84-5,5.77-7.56a37.43,37.43,0,0,1,13.54,7.56A37.43,37.43,0,0,1,265.36,179Zm10.43-34.1c-1.76.1-3.51.23-5.24.41,0-.92-.06-1.82-.07-2.7Q273.2,143.65,275.79,144.86Zm-5.31-19.63c0-.88,0-1.77.07-2.69,1.73.17,3.48.3,5.24.4Q273.2,124.16,270.48,125.23ZM265.36,104c-1.93-2.54-3.89-5-5.77-7.56,1.88-2.54,3.84-5,5.77-7.56A37.43,37.43,0,0,1,278.9,96.4,37.43,37.43,0,0,1,265.36,104Zm10.43-34.1c-1.76.1-3.51.23-5.24.41,0-.92-.06-1.82-.07-2.7Q273.2,68.65,275.79,69.86Zm-26.35-8.34a118.28,118.28,0,0,1,18,4.88c0,7.54,1.5,14.83,5,20.6a69.2,69.2,0,0,0-21.79-7.72,40.9,40.9,0,0,1-1.33-7.46A52,52,0,0,1,249.44,61.52ZM249.29,121h0a40.94,40.94,0,0,1,1.33-7.45,69.7,69.7,0,0,0,21.79-7.72c-3.5,5.76-5,13-5,20.59a119.46,119.46,0,0,1-18,4.89A52.08,52.08,0,0,1,249.29,121Zm.15,15.54a118.28,118.28,0,0,1,18,4.88c0,7.54,1.5,14.83,5,20.6a69.2,69.2,0,0,0-21.79-7.72,40.9,40.9,0,0,1-1.33-7.46A52,52,0,0,1,249.44,136.52ZM249.29,196h0a40.94,40.94,0,0,1,1.33-7.45,69.7,69.7,0,0,0,21.79-7.72c-3.5,5.76-5,13.05-5,20.59a119.46,119.46,0,0,1-18,4.89A52.08,52.08,0,0,1,249.29,196Zm.15,16.54a118.28,118.28,0,0,1,18,4.88c0,7.54,1.5,14.83,5,20.6a69.2,69.2,0,0,0-21.79-7.72,40.9,40.9,0,0,1-1.33-7.46A52,52,0,0,1,249.44,212.52ZM225.71,60.88q2.41-.39,4.89-.72c1.76.73,3.5,1.48,5.2,2.27,1.69-.79,3.43-1.54,5.2-2.27,1.65.22,3.28.46,4.88.72.1,4.67-.94,11.35.3,15.61a46.75,46.75,0,0,0-4.94,2.06,44.92,44.92,0,0,0-5.44.38,45.09,45.09,0,0,0-5.45-.38,45.89,45.89,0,0,0-4.94-2.06C226.65,72.23,225.62,65.55,225.71,60.88Zm4.64,53.38a47.22,47.22,0,0,0,5.45-.38,47,47,0,0,0,5.44.38,49,49,0,0,0,4.94,2.06c-1.24,4.26-.2,10.94-.3,15.6-1.6.27-3.23.51-4.88.72q-2.66-1.08-5.2-2.27-2.55,1.19-5.21,2.27c-1.64-.21-3.27-.45-4.88-.72-.09-4.66.94-11.34-.3-15.6A48,48,0,0,0,230.35,114.26Zm-4.64,21.62q2.41-.39,4.89-.72c1.76.73,3.5,1.48,5.2,2.27,1.69-.79,3.43-1.54,5.2-2.27,1.65.22,3.28.46,4.88.72.1,4.67-.94,11.35.3,15.61a46.75,46.75,0,0,0-4.94,2.06,44.92,44.92,0,0,0-5.44.38,45.09,45.09,0,0,0-5.45-.38,45.89,45.89,0,0,0-4.94-2.06C226.65,147.23,225.62,140.55,225.71,135.88Zm4.64,53.38a47.22,47.22,0,0,0,5.45-.38,47,47,0,0,0,5.44.38,49,49,0,0,0,4.94,2.06c-1.24,4.26-.2,10.94-.3,15.6-1.6.27-3.23.51-4.88.72q-2.66-1.08-5.2-2.27-2.55,1.19-5.21,2.27c-1.64-.21-3.27-.45-4.88-.72-.09-4.66.94-11.34-.3-15.6A48,48,0,0,0,230.35,189.26Zm-4.64,22.62q2.41-.39,4.89-.72c1.76.73,3.5,1.48,5.2,2.27,1.69-.79,3.43-1.54,5.2-2.27,1.65.22,3.28.46,4.88.72.1,4.67-.94,11.35.3,15.61a46.75,46.75,0,0,0-4.94,2.06,44.92,44.92,0,0,0-5.44.38,45.09,45.09,0,0,0-5.45-.38,45.89,45.89,0,0,0-4.94-2.06C226.65,223.23,225.62,216.55,225.71,211.88Zm-24.6,6.69c0,.88,0,1.78-.07,2.7-1.73-.18-3.48-.31-5.23-.41Q198.39,219.65,201.11,218.57Zm-5.3-20.63c1.75-.1,3.5-.23,5.23-.4,0,.92.06,1.81.07,2.69Q198.4,199.15,195.81,197.94Zm8.37,19.46a118.28,118.28,0,0,1,18-4.88,51.22,51.22,0,0,1,.15,10.3,40.9,40.9,0,0,1-1.33,7.46A69.45,69.45,0,0,0,199.18,238C202.68,232.23,204.21,224.94,204.18,217.4Zm18-11.11a119.46,119.46,0,0,1-18-4.89c0-7.54-1.5-14.83-5-20.59A69.7,69.7,0,0,0,221,188.53,40.94,40.94,0,0,1,222.3,196h0A51.33,51.33,0,0,1,222.15,206.29Zm-21-63.72c0,.88,0,1.78-.07,2.7-1.73-.18-3.48-.31-5.23-.41Q198.39,143.65,201.11,142.57Zm-5.3-19.63c1.75-.1,3.5-.23,5.23-.4,0,.92.06,1.81.07,2.69Q198.4,124.15,195.81,122.94Zm8.37,18.46a118.28,118.28,0,0,1,18-4.88,51.22,51.22,0,0,1,.15,10.3,40.9,40.9,0,0,1-1.33,7.46A69.45,69.45,0,0,0,199.18,162C202.68,156.23,204.21,148.94,204.18,141.4Zm18-10.11a119.46,119.46,0,0,1-18-4.89c0-7.54-1.5-14.83-5-20.59A69.7,69.7,0,0,0,221,113.53,40.94,40.94,0,0,1,222.3,121h0A51.33,51.33,0,0,1,222.15,131.29Zm0-69.77a51.22,51.22,0,0,1,.15,10.3A40.9,40.9,0,0,1,221,79.28,69.45,69.45,0,0,0,199.18,87c3.5-5.77,5-13.06,5-20.6A118.28,118.28,0,0,1,222.15,61.52Zm-21,6c0,.88,0,1.78-.07,2.7-1.73-.18-3.48-.31-5.23-.41Q198.39,68.65,201.11,67.57Zm5.12,21.27c1.93,2.55,3.89,5,5.77,7.56-1.88,2.54-3.84,5-5.77,7.56a37.43,37.43,0,0,1-13.54-7.56A37.43,37.43,0,0,1,206.23,88.84Zm0,75c1.93,2.55,3.89,5,5.77,7.56-1.88,2.54-3.84,5-5.77,7.56a37.43,37.43,0,0,1-13.54-7.56A37.43,37.43,0,0,1,206.23,163.84ZM185.75,96.4a46.65,46.65,0,0,0-10.1,12.14c-.14.26-.28.55-.41.84A72.85,72.85,0,0,1,164,96.4a72.79,72.79,0,0,1,11.24-13c.13.29.27.57.41.83A46.33,46.33,0,0,0,185.75,96.4Zm-10.51,138c.13.29.27.57.41.83a46.33,46.33,0,0,0,10.1,12.14,46.65,46.65,0,0,0-10.1,12.14c-.14.26-.28.55-.41.84a72.85,72.85,0,0,1-11.24-13A72.79,72.79,0,0,1,175.24,234.43Zm-19.79-3.78a.17.17,0,0,1,0-.05c5.45-1.64,10.48-3.68,17.1-4.15.36.9.75,2.25,1.19,3.7a43.72,43.72,0,0,0-4.81,4.51A46.13,46.13,0,0,0,155.45,230.65Zm0,170c5.45-1.64,10.48-3.68,17.1-4.15.36.9.75,2.25,1.19,3.7a43.72,43.72,0,0,0-4.81,4.51,46.13,46.13,0,0,0-13.46-4Zm13.48,29.55a42.7,42.7,0,0,0,4.81,4.5c-.44,1.45-.83,2.81-1.19,3.7-6.62-.46-11.65-2.51-17.1-4.14l0,0A46.13,46.13,0,0,0,168.91,430.15ZM144.15,400c-11,.64-20.11,5.33-16.76,17.36-3.35,12,5.74,16.73,16.76,17.36,10,5.12,23.16,8.21,36.73,9.1-9.2,5-21.36,8.25-34.56,9.84-20.71-7.55-36.42-20.53-49.17-36.3,12.75-15.77,28.46-28.75,49.17-36.3,13.2,1.6,25.36,4.83,34.56,9.85C167.31,391.84,154.18,394.93,144.15,400Zm11.28,74.56c5.45-1.64,10.48-3.68,17.1-4.15.36.9.75,2.25,1.19,3.7a43.72,43.72,0,0,0-4.81,4.51,46.13,46.13,0,0,0-13.46-4Zm13.48,29.55a42.7,42.7,0,0,0,4.81,4.5c-.44,1.45-.83,2.81-1.19,3.7-6.62-.46-11.65-2.51-17.1-4.14l0,0A46.13,46.13,0,0,0,168.91,504.15ZM144.15,474c-11,.64-20.11,5.33-16.76,17.36-3.35,12,5.74,16.73,16.76,17.36,10,5.12,23.16,8.21,36.73,9.1-9.2,5-21.36,8.25-34.56,9.84-20.71-7.55-36.42-20.53-49.17-36.3,12.75-15.77,28.46-28.75,49.17-36.3,13.2,1.6,25.36,4.83,34.56,9.85C167.31,465.84,154.18,468.93,144.15,474ZM125,528.91h-.54c-7.45,13.66-17.42,24.8-29,34.3A213.44,213.44,0,0,1,77.15,535c2.73-.93,5.61-1.77,8.62-2.52,5.67,3,11.32,1,16.15-3,3.42-.46,6.92-.81,10.45-1.07-3.53-.26-7-.61-10.45-1.06-4.83-4-10.48-6-16.15-3.05-3-.75-5.89-1.59-8.62-2.52A212.78,212.78,0,0,1,95.4,493.61a115.65,115.65,0,0,1,29,34.3H125l-.27.5Zm-23.06-75.57c-4.83-4-10.48-6-16.15-3-3-.75-5.89-1.59-8.62-2.52A212.78,212.78,0,0,1,95.4,419.61a115.65,115.65,0,0,1,29,34.3H125l-.27.5.27.51h-.54c-7.45,13.66-17.42,24.8-29,34.3A213.44,213.44,0,0,1,77.15,461c2.73-.93,5.61-1.77,8.62-2.52,5.67,3,11.32,1,16.15-3,3.42-.46,6.92-.81,10.45-1.07C108.84,454.14,105.34,453.79,101.92,453.34ZM95.4,415.2A213.44,213.44,0,0,1,77.15,387c2.73-.93,5.61-1.77,8.62-2.52,5.67,3,11.32,1,16.15-3A179.89,179.89,0,0,1,125,379.9C117.48,394,107.3,405.47,95.4,415.2Zm6.52-131.86c-4.83-4-10.48-6-16.15-3-3-.75-5.89-1.59-8.62-2.52A212.78,212.78,0,0,1,95.4,249.61c11.9,9.72,22.08,21.17,29.58,35.3A183.58,183.58,0,0,1,101.92,283.34ZM95.4,245.2A213.44,213.44,0,0,1,77.15,217c2.73-.93,5.61-1.77,8.62-2.52,5.67,3,11.32,1,16.15-3.05A179.89,179.89,0,0,1,125,209.9C117.48,224,107.3,235.47,95.4,245.2Zm6.52-112.86c-4.83-4-10.48-6-16.15-3.05-3-.75-5.89-1.59-8.62-2.52A212.78,212.78,0,0,1,95.4,98.61c11.9,9.72,22.08,21.17,29.58,35.29h0C117.48,148,107.3,159.47,95.4,169.2A213.44,213.44,0,0,1,77.15,141c2.73-.93,5.61-1.77,8.62-2.52,5.67,3,11.32,1,16.15-3.05a182.46,182.46,0,0,1,22.88-1.57A180.6,180.6,0,0,1,101.92,132.34ZM95.4,173.61c11.9,9.72,22.08,21.17,29.58,35.3a183.58,183.58,0,0,1-23.06-1.57c-4.83-4-10.48-6-16.15-3.05-3-.75-5.89-1.59-8.62-2.52A212.78,212.78,0,0,1,95.4,173.61Zm1.75-2.21c12.75-15.77,28.46-28.75,49.17-36.3,13.2,1.6,25.36,4.83,34.56,9.85-13.57.89-26.7,4-36.73,9.09-11,.64-20.11,5.33-16.76,17.36-3.35,12,5.74,16.73,16.76,17.36,10,5.12,23.16,8.21,36.73,9.1-9.2,5-21.36,8.25-34.56,9.84C125.61,200.15,109.9,187.17,97.15,171.4Zm58.28-16.8c5.45-1.64,10.48-3.68,17.1-4.15.36.9.75,2.25,1.19,3.7a43.72,43.72,0,0,0-4.81,4.51,46.13,46.13,0,0,0-13.46-4A.17.17,0,0,1,155.43,154.6Zm13.48,29.55a42.7,42.7,0,0,0,4.81,4.5c-.44,1.45-.83,2.81-1.19,3.7-6.62-.46-11.65-2.51-17.1-4.14l0-.05A46.13,46.13,0,0,0,168.91,184.15Zm6.74-.61c-.14.26-.28.55-.41.84a72.85,72.85,0,0,1-11.24-13,72.79,72.79,0,0,1,11.24-13c.13.29.27.57.41.83a46.33,46.33,0,0,0,10.1,12.14A46.65,46.65,0,0,0,175.65,183.54Zm-20.2-70.38a46.13,46.13,0,0,0,13.46-4,42.7,42.7,0,0,0,4.81,4.5c-.44,1.45-.83,2.81-1.19,3.7-6.62-.46-11.65-2.51-17.1-4.14Zm0-33.56c5.45-1.64,10.48-3.68,17.1-4.15.36.9.75,2.25,1.19,3.7a43.72,43.72,0,0,0-4.81,4.51,46.13,46.13,0,0,0-13.46-4A.17.17,0,0,1,155.43,79.6ZM180.88,70c-13.57.89-26.7,4-36.73,9.09-11,.64-20.11,5.33-16.76,17.36-3.35,12,5.74,16.73,16.76,17.36,10,5.12,23.16,8.21,36.73,9.1-9.2,5-21.36,8.25-34.56,9.84-20.71-7.55-36.42-20.53-49.17-36.3,12.75-15.77,28.46-28.75,49.17-36.3C159.52,61.7,171.68,64.93,180.88,70ZM85.77,63.52c5.67,3,11.32,1,16.15-3.05A179.89,179.89,0,0,1,125,58.9C117.48,73,107.3,84.47,95.4,94.2A213.44,213.44,0,0,1,77.15,66C79.88,65.11,82.76,64.27,85.77,63.52Zm-21.06,15A201.48,201.48,0,0,1,92.63,96.4a201.54,201.54,0,0,1-27.92,17.93A144.19,144.19,0,0,1,60.09,96.4,144.49,144.49,0,0,1,64.71,78.48Zm0,75A201.48,201.48,0,0,1,92.63,171.4a201.54,201.54,0,0,1-27.92,17.93,144.19,144.19,0,0,1-4.62-17.93A144.49,144.49,0,0,1,64.71,153.48Zm0,76A201.48,201.48,0,0,1,92.63,247.4a201.54,201.54,0,0,1-27.92,17.93,144.19,144.19,0,0,1-4.62-17.93A144.49,144.49,0,0,1,64.71,229.48Zm0,170A201.48,201.48,0,0,1,92.63,417.4a201.54,201.54,0,0,1-27.92,17.93,144.19,144.19,0,0,1-4.62-17.93A144.49,144.49,0,0,1,64.71,399.48Zm0,74A201.48,201.48,0,0,1,92.63,491.4a201.54,201.54,0,0,1-27.92,17.93,144.19,144.19,0,0,1-4.62-17.93A144.49,144.49,0,0,1,64.71,473.48ZM60.09,565.4a144.49,144.49,0,0,1,4.62-17.92A201.48,201.48,0,0,1,92.63,565.4a201.54,201.54,0,0,1-27.92,17.93A144.19,144.19,0,0,1,60.09,565.4Zm41.83,35.94c-4.83-4-10.48-6-16.15-3.05-3-.75-5.89-1.59-8.62-2.52A212.78,212.78,0,0,1,95.4,567.61c11.9,9.72,22.08,21.17,29.58,35.3A183.58,183.58,0,0,1,101.92,601.34Zm44.4.36c-20.71-7.55-36.42-20.53-49.17-36.3,12.75-15.77,28.46-28.75,49.17-36.3,13.2,1.6,25.36,4.83,34.56,9.85-13.57.89-26.7,4-36.73,9.09-11,.64-20.11,5.33-16.76,17.36-3.35,12,5.74,16.73,16.76,17.36,10,5.12,23.16,8.21,36.73,9.1C171.68,596.88,159.52,600.11,146.32,601.7Zm9.11-53.1c5.45-1.64,10.48-3.68,17.1-4.15.36.9.75,2.25,1.19,3.7a43.72,43.72,0,0,0-4.81,4.51,46.13,46.13,0,0,0-13.46-4Zm13.48,29.55a42.7,42.7,0,0,0,4.81,4.5c-.44,1.45-.83,2.81-1.19,3.7-6.62-.46-11.65-2.51-17.1-4.14l0-.05A46.13,46.13,0,0,0,168.91,578.15Zm6.74-.61c-.14.26-.28.55-.41.84a72.85,72.85,0,0,1-11.24-13,72.79,72.79,0,0,1,11.24-13c.13.29.27.57.41.83a46.33,46.33,0,0,0,10.1,12.14A46.65,46.65,0,0,0,175.65,577.54Zm0-74c-.14.26-.28.55-.41.84a72.85,72.85,0,0,1-11.24-13,72.79,72.79,0,0,1,11.24-13c.13.29.27.57.41.83a46.33,46.33,0,0,0,10.1,12.14A46.65,46.65,0,0,0,175.65,503.54Zm0-74c-.14.26-.28.55-.41.84a72.85,72.85,0,0,1-11.24-13,72.79,72.79,0,0,1,11.24-13c.13.29.27.57.41.83a46.33,46.33,0,0,0,10.1,12.14A46.65,46.65,0,0,0,175.65,429.54Zm28.53,31.86a118.28,118.28,0,0,1,18-4.88,51.22,51.22,0,0,1,.15,10.3,40.9,40.9,0,0,1-1.33,7.46A69.45,69.45,0,0,0,199.18,482C202.68,476.23,204.21,468.94,204.18,461.4Zm-8.37,3.46q2.58-1.22,5.3-2.29c0,.88,0,1.78-.07,2.7C199.31,465.09,197.56,465,195.81,464.86Zm0-20.92c1.75-.1,3.5-.23,5.23-.4,0,.92.06,1.81.07,2.69Q198.4,445.15,195.81,443.94Zm-3.12-26.54a37.43,37.43,0,0,1,13.54-7.56c1.93,2.55,3.89,5,5.77,7.56-1.88,2.54-3.84,5-5.77,7.56A37.43,37.43,0,0,1,192.69,417.4Zm13.54,66.44c1.93,2.55,3.89,5,5.77,7.56-1.88,2.54-3.84,5-5.77,7.56a37.43,37.43,0,0,1-13.54-7.56A37.43,37.43,0,0,1,206.23,483.84Zm-2,51.56a118.28,118.28,0,0,1,18-4.88,51.22,51.22,0,0,1,.15,10.3,40.9,40.9,0,0,1-1.33,7.46A69.45,69.45,0,0,0,199.18,556C202.68,550.23,204.21,542.94,204.18,535.4Zm-8.37,3.46q2.58-1.22,5.3-2.29c0,.88,0,1.78-.07,2.7C199.31,539.09,197.56,539,195.81,538.86Zm0-20.92c1.75-.1,3.5-.23,5.23-.4,0,.92.06,1.81.07,2.69Q198.4,519.15,195.81,517.94Zm10.42,39.9c1.93,2.55,3.89,5,5.77,7.56-1.88,2.54-3.84,5-5.77,7.56a37.43,37.43,0,0,1-13.54-7.56A37.43,37.43,0,0,1,206.23,557.84Zm-10.42,34.1c1.75-.1,3.5-.23,5.23-.4,0,.92.06,1.81.07,2.69Q198.4,593.15,195.81,591.94Zm26.34,8.35a119.46,119.46,0,0,1-18-4.89c0-7.54-1.5-14.83-5-20.59A69.7,69.7,0,0,0,221,582.53,40.94,40.94,0,0,1,222.3,590h0A51.33,51.33,0,0,1,222.15,600.29Zm0-74a119.46,119.46,0,0,1-18-4.89c0-7.54-1.5-14.83-5-20.59A69.7,69.7,0,0,0,221,508.53,40.94,40.94,0,0,1,222.3,516h0A51.33,51.33,0,0,1,222.15,526.29Zm0-74a119.46,119.46,0,0,1-18-4.89c0-7.54-1.5-14.83-5-20.59A69.7,69.7,0,0,0,221,434.53,40.94,40.94,0,0,1,222.3,442h0A51.33,51.33,0,0,1,222.15,452.29Zm23.73,148.63c-1.6.27-3.23.51-4.88.72q-2.66-1.08-5.2-2.27-2.55,1.18-5.21,2.27c-1.64-.21-3.27-.45-4.88-.72-.09-4.66.94-11.34-.3-15.6a48,48,0,0,0,4.94-2.06,47.22,47.22,0,0,0,5.45-.38,47,47,0,0,0,5.44.38,49,49,0,0,0,4.94,2.06C244.94,589.58,246,596.26,245.88,600.92Zm-4.64-53.37a44.92,44.92,0,0,0-5.44.38,45.09,45.09,0,0,0-5.45-.38,45.89,45.89,0,0,0-4.94-2.06c1.24-4.26.21-10.94.3-15.61q2.41-.39,4.89-.72c1.76.73,3.5,1.48,5.2,2.27,1.69-.79,3.43-1.54,5.2-2.27,1.65.22,3.28.46,4.88.72.1,4.67-.94,11.35.3,15.61A46.75,46.75,0,0,0,241.24,547.55Zm4.64-20.63c-1.6.27-3.23.51-4.88.72q-2.66-1.08-5.2-2.27-2.55,1.18-5.21,2.27c-1.64-.21-3.27-.45-4.88-.72-.09-4.66.94-11.34-.3-15.6a48,48,0,0,0,4.94-2.06,47.22,47.22,0,0,0,5.45-.38,47,47,0,0,0,5.44.38,49,49,0,0,0,4.94,2.06C244.94,515.58,246,522.26,245.88,526.92Zm-4.64-53.37a44.92,44.92,0,0,0-5.44.38,45.09,45.09,0,0,0-5.45-.38,45.89,45.89,0,0,0-4.94-2.06c1.24-4.26.21-10.94.3-15.61q2.41-.39,4.89-.72c1.76.73,3.5,1.48,5.2,2.27,1.69-.79,3.43-1.54,5.2-2.27,1.65.22,3.28.46,4.88.72.1,4.67-.94,11.35.3,15.61A46.75,46.75,0,0,0,241.24,473.55Zm4.64-20.63c-1.6.27-3.23.51-4.88.72q-2.66-1.08-5.2-2.27-2.55,1.19-5.21,2.27c-1.64-.21-3.27-.45-4.88-.72-.09-4.66.94-11.34-.3-15.6a48,48,0,0,0,4.94-2.06,47.22,47.22,0,0,0,5.45-.38,47,47,0,0,0,5.44.38,49,49,0,0,0,4.94,2.06C244.94,441.58,246,448.26,245.88,452.92Zm3.56,147.37a52.08,52.08,0,0,1-.15-10.31h0a40.94,40.94,0,0,1,1.33-7.45,69.7,69.7,0,0,0,21.79-7.72c-3.5,5.76-5,13.05-5,20.59A119.46,119.46,0,0,1,249.44,600.29Zm1.18-165.76a69.7,69.7,0,0,0,21.79-7.72c-3.5,5.76-5,13.05-5,20.59a119.46,119.46,0,0,1-18,4.89,52.08,52.08,0,0,1-.15-10.31h0A40.94,40.94,0,0,1,250.62,434.53Zm19.86,11.7c0-.88,0-1.77.07-2.69,1.73.17,3.48.3,5.24.4Q273.2,445.16,270.48,446.23Zm5.31,18.63c-1.76.1-3.51.23-5.24.41,0-.92-.06-1.82-.07-2.7Q273.2,463.65,275.79,464.86Zm-26.35-8.34a118.28,118.28,0,0,1,18,4.88c0,7.54,1.5,14.83,5,20.6a69.2,69.2,0,0,0-21.79-7.72,40.9,40.9,0,0,1-1.33-7.46A52,52,0,0,1,249.44,456.52ZM249.29,516h0a40.94,40.94,0,0,1,1.33-7.45,69.7,69.7,0,0,0,21.79-7.72c-3.5,5.76-5,13.05-5,20.59a119.46,119.46,0,0,1-18,4.89A52.08,52.08,0,0,1,249.29,516Zm21.19,4.25c0-.88,0-1.77.07-2.69,1.73.17,3.48.3,5.24.4Q273.2,519.16,270.48,520.23Zm5.31,18.63c-1.76.1-3.51.23-5.24.41,0-.92-.06-1.82-.07-2.7Q273.2,537.65,275.79,538.86Zm-26.35-8.34a118.28,118.28,0,0,1,18,4.88c0,7.54,1.5,14.83,5,20.6a69.2,69.2,0,0,0-21.79-7.72,40.9,40.9,0,0,1-1.33-7.46A52,52,0,0,1,249.44,530.52Zm21,63.71c0-.88,0-1.77.07-2.69,1.73.17,3.48.3,5.24.4Q273.2,593.16,270.48,594.23ZM265.36,573c-1.93-2.54-3.89-5-5.77-7.56,1.88-2.54,3.84-5,5.77-7.56a37.43,37.43,0,0,1,13.54,7.56A37.43,37.43,0,0,1,265.36,573Zm0-74c-1.93-2.54-3.89-5-5.77-7.56,1.88-2.54,3.84-5,5.77-7.56a37.43,37.43,0,0,1,13.54,7.56A37.43,37.43,0,0,1,265.36,499Zm0-74c-1.93-2.54-3.89-5-5.77-7.56,1.88-2.54,3.84-5,5.77-7.56a37.43,37.43,0,0,1,13.54,7.56A37.43,37.43,0,0,1,265.36,425ZM270,402.83a30.32,30.32,0,0,0,2.46,5.17,69.2,69.2,0,0,0-21.79-7.72,40.9,40.9,0,0,1-1.33-7.46,52,52,0,0,1,.15-10.3c2.4.46,4.73,1,7,1.57l-2.68-3.83c-4.82-6.91-10.77-10.45-17.68-10.45-4,0-6.75.64-8.36,1.77-2.09,1.44-3.05,4-3.05,7.71a56.1,56.1,0,0,0,1.28,13.5l0,.09c.1-3.66-.36-7.8-.3-11q2.41-.39,4.89-.72c1.76.73,3.5,1.48,5.2,2.27,1.69-.79,3.43-1.54,5.2-2.27,1.65.22,3.28.46,4.88.72.1,4.67-.94,11.35.3,15.61a46.75,46.75,0,0,0-4.94,2.06,44.92,44.92,0,0,0-5.44.38,45.09,45.09,0,0,0-5.45-.38c-.68-.33-1.35-.63-2-.91.41.89.85,1.83,1.33,2.83a80.19,80.19,0,0,1,3.86,8h-35c.2-.34.58-.93,1.12-1.74l-.44.23c3.5-5.77,5-13.06,5-20.6.61-.22,1.25-.42,1.87-.63v-35a50.18,50.18,0,0,1-46.82-50.17,55.36,55.36,0,0,1,4-21,130,130,0,0,1-16.86,3.12c-20.71-7.55-36.42-20.53-49.17-36.3,12.75-15.77,28.46-28.75,49.17-36.3,13.2,1.6,25.36,4.83,34.56,9.85-13.57.89-26.7,4-36.73,9.09-11,.64-20.11,5.33-16.76,17.36-3.35,12,5.74,16.73,16.76,17.36a85.53,85.53,0,0,0,23.33,7.46q1.32-2.09,2.85-4.09c-5.57-.71-10.07-2.47-14.9-3.92l0,0a46.13,46.13,0,0,0,13.46-4,42.2,42.2,0,0,0,4.51,4.25c.35-.4.71-.81,1.08-1.2a50.46,50.46,0,0,1,21.1-13.55q-1.5-1.08-2.91-2.25a37.43,37.43,0,0,1,13.54-7.56c1.86,2.46,3.75,4.85,5.56,7.29h.32c15.1,0,27.64,5.3,37.44,15.75-1.59,1.44-3.09,2.77-4.53,4,.4.16.79.3,1.16.43-1.24,4.26-.2,10.94-.3,15.6-1.6.27-3.23.51-4.88.72q-2.66-1.08-5.2-2.27-2.55,1.19-5.21,2.27c-1.64-.21-3.27-.45-4.88-.72-.09-4.66.94-11.34-.3-15.6.72-.25,1.5-.55,2.3-.88q-7.41-9.69-19.14-9.67a23.87,23.87,0,0,0-7.33,1.12A69.08,69.08,0,0,0,221,264.53,40.94,40.94,0,0,1,222.3,272h0a51.33,51.33,0,0,1-.15,10.31,119.46,119.46,0,0,1-18-4.89A40.78,40.78,0,0,0,200,258.32q-8.25,3.17-14.1,12.75a51,51,0,0,0-7.55,26.84c0,11.73,3.21,21.38,9.8,28.93A32.84,32.84,0,0,0,206.05,338v-1.75c0-5.63-2.89-10.13-8.67-13.82v-3.7q8-.72,26-8.68c11.41-5,20.73-7.55,27.65-7.55a42,42,0,0,1,22.34,6.11c7.55,4.66,11.25,10.92,11.25,19,0,6.59-3.22,12.7-9.65,18l-17.52,11.89c1.45,1.13,7.24,7.72,17.52,19.93,8.52,10.13,14.31,15.11,17.36,15.11l1.66-1.25c-1.1-.11-2.2-.2-3.31-.27a67.71,67.71,0,0,1,9-4l1.81-1.36c3.38-2.57,6.59-3.7,10-3.54l.52,1.34c4.24-.95,8.69-1.7,13.26-2.26,20.72,7.55,36.42,20.53,49.18,36.3-12.76,15.77-28.46,28.75-49.18,36.3-13.19-1.59-25.36-4.82-34.56-9.84,13.57-.89,26.7-4,36.73-9.1,11-.63,20.11-5.33,16.76-17.36,3.35-12-5.74-16.72-16.75-17.36a82.61,82.61,0,0,0-20.14-6.83q-1.5,2.25-2.76,4c4.13.87,7.77,2.22,11.61,3.37l0,0a46.23,46.23,0,0,0-13.46,4c-.73-.81-1.5-1.58-2.29-2.32a30.14,30.14,0,0,1-3.25,2.85A73.51,73.51,0,0,1,307.6,417.4a73.31,73.31,0,0,1-11.25,13c-.13-.29-.26-.58-.4-.84a46.91,46.91,0,0,0-10.11-12.14,48.35,48.35,0,0,0,9.4-10.92,19.87,19.87,0,0,1-10.59,3C279,409.51,274.16,407.28,270,402.83Zm-74.14-12q2.58-1.22,5.3-2.29c0,.88,0,1.78-.07,2.7C199.31,391.09,197.56,391,195.81,390.86Zm5.3-114.63q-2.72-1.08-5.3-2.29c1.75-.1,3.5-.23,5.23-.4C201.08,274.46,201.1,275.35,201.11,276.23Zm96.76,158.42a42.7,42.7,0,0,0,4.81-4.5,46.23,46.23,0,0,0,13.46,4l0,0c-5.45,1.63-10.48,3.68-17.1,4.14C298.7,437.46,298.31,436.1,297.87,434.65Zm-12,130.75A46.58,46.58,0,0,0,296,553.26c.14-.26.27-.54.4-.83a73.25,73.25,0,0,1,11.25,13,73.31,73.31,0,0,1-11.25,13c-.13-.29-.26-.58-.4-.84A46.91,46.91,0,0,0,285.84,565.4Zm30.3-16.75a46.23,46.23,0,0,0-13.46,4,43.72,43.72,0,0,0-4.81-4.51c.44-1.45.83-2.8,1.19-3.7,6.62.47,11.65,2.51,17.1,4.15Zm0,33.56c-5.45,1.63-10.48,3.68-17.1,4.14-.36-.89-.75-2.25-1.19-3.7a42.7,42.7,0,0,0,4.81-4.5,46.23,46.23,0,0,0,13.46,4Zm-25.45,9.65c13.57-.89,26.7-4,36.73-9.1,11-.63,20.11-5.33,16.76-17.36,3.35-12-5.74-16.72-16.75-17.36-10-5.11-23.17-8.2-36.74-9.09,9.2-5,21.37-8.25,34.56-9.85,20.72,7.55,36.42,20.53,49.18,36.3-12.76,15.77-28.46,28.75-49.18,36.3C312.08,600.11,299.91,596.88,290.71,591.86Zm95.11,6.43c-5.67-3-11.32-1-16.15,3.05a183.45,183.45,0,0,1-23.06,1.57c7.5-14.13,17.68-25.58,29.59-35.3a212.72,212.72,0,0,1,18.24,28.16C391.72,596.7,388.83,597.54,385.82,598.29Zm21.06-15A201.54,201.54,0,0,1,379,565.4a201.48,201.48,0,0,1,27.92-17.92,146.32,146.32,0,0,1,4.63,17.92A146,146,0,0,1,406.88,583.33Zm0-74A201.54,201.54,0,0,1,379,491.4a201.48,201.48,0,0,1,27.92-17.92,146.32,146.32,0,0,1,4.63,17.92A146,146,0,0,1,406.88,509.33Zm0-74A201.54,201.54,0,0,1,379,417.4a201.48,201.48,0,0,1,27.92-17.92,146.32,146.32,0,0,1,4.63,17.92A146,146,0,0,1,406.88,435.33Zm0-170A201.54,201.54,0,0,1,379,247.4a201.48,201.48,0,0,1,27.92-17.92,146.32,146.32,0,0,1,4.63,17.92A146,146,0,0,1,406.88,265.33Zm0-76A201.54,201.54,0,0,1,379,171.4a201.48,201.48,0,0,1,27.92-17.92,146.32,146.32,0,0,1,4.63,17.92A146,146,0,0,1,406.88,189.33Zm0-75A201.54,201.54,0,0,1,379,96.4a201.48,201.48,0,0,1,27.92-17.92,146.32,146.32,0,0,1,4.63,17.92A146,146,0,0,1,406.88,114.33Z"/><path class="cls-4" d="M92.63,171.4a201.48,201.48,0,0,0-27.92-17.92,144.49,144.49,0,0,0-4.62,17.92,144.19,144.19,0,0,0,4.62,17.93A201.54,201.54,0,0,0,92.63,171.4Z"/><path class="cls-4" d="M265.36,163.84c-1.93,2.55-3.89,5-5.77,7.56,1.88,2.54,3.84,5,5.77,7.56a37.43,37.43,0,0,0,13.54-7.56A37.43,37.43,0,0,0,265.36,163.84Z"/><path class="cls-4" d="M379,171.4a201.54,201.54,0,0,0,27.92,17.93,146,146,0,0,0,4.63-17.93,146.32,146.32,0,0,0-4.63-17.92A201.48,201.48,0,0,0,379,171.4Z"/><path class="cls-4" d="M376.2,173.61c-11.91,9.72-22.09,21.17-29.59,35.3a183.45,183.45,0,0,0,23.06-1.57c4.83-4,10.48-6,16.15-3.05,3-.75,5.9-1.59,8.62-2.52A212.72,212.72,0,0,0,376.2,173.61Z"/><path class="cls-4" d="M85.77,204.29c5.67-3,11.32-1,16.15,3.05A183.58,183.58,0,0,0,125,208.91c-7.5-14.13-17.68-25.58-29.58-35.3a212.78,212.78,0,0,0-18.25,28.16C79.88,202.7,82.76,203.54,85.77,204.29Z"/><path class="cls-4" d="M270.55,197.54c0,.92-.06,1.81-.07,2.69q2.72-1.08,5.31-2.29C274,197.84,272.28,197.71,270.55,197.54Z"/><path class="cls-4" d="M201,145.27c0-.92.06-1.82.07-2.7q-2.72,1.08-5.3,2.29C197.56,145,199.31,145.09,201,145.27Z"/><path class="cls-4" d="M235.8,153.93a44.92,44.92,0,0,1,5.44-.38,46.75,46.75,0,0,1,4.94-2.06c-1.24-4.26-.2-10.94-.3-15.61-1.6-.26-3.23-.5-4.88-.72-1.77.73-3.51,1.48-5.2,2.27-1.7-.79-3.44-1.54-5.2-2.27q-2.47.33-4.89.72c-.09,4.67.94,11.35-.3,15.61a45.89,45.89,0,0,1,4.94,2.06A45.09,45.09,0,0,1,235.8,153.93Z"/><path class="cls-4" d="M250.62,154.28A69.2,69.2,0,0,1,272.41,162c-3.5-5.77-5-13.06-5-20.6a118.28,118.28,0,0,0-18-4.88,52,52,0,0,0-.15,10.3A40.9,40.9,0,0,0,250.62,154.28Z"/><path class="cls-4" d="M175.65,159.26c-.14-.26-.28-.54-.41-.83a72.79,72.79,0,0,0-11.24,13,72.85,72.85,0,0,0,11.24,13c.13-.29.27-.58.41-.84a46.65,46.65,0,0,1,10.1-12.14A46.33,46.33,0,0,1,175.65,159.26Z"/><path class="cls-4" d="M172.53,192.35c.36-.89.75-2.25,1.19-3.7a42.7,42.7,0,0,1-4.81-4.5,46.13,46.13,0,0,1-13.46,4l0,.05C160.88,189.84,165.91,191.89,172.53,192.35Z"/><path class="cls-4" d="M222.3,146.82a51.22,51.22,0,0,0-.15-10.3,118.28,118.28,0,0,0-18,4.88c0,7.54-1.5,14.83-5,20.6A69.45,69.45,0,0,1,221,154.28,40.9,40.9,0,0,0,222.3,146.82Z"/><path class="cls-4" d="M267.41,201.4c0-7.54,1.5-14.83,5-20.59a69.7,69.7,0,0,1-21.79,7.72,40.94,40.94,0,0,0-1.33,7.45h0a52.08,52.08,0,0,0,.15,10.31A119.46,119.46,0,0,0,267.41,201.4Z"/><path class="cls-4" d="M297.87,188.65c.44,1.45.83,2.81,1.19,3.7,6.62-.46,11.65-2.51,17.1-4.14l0-.05a46.23,46.23,0,0,1-13.46-4A42.7,42.7,0,0,1,297.87,188.65Z"/><path class="cls-4" d="M270.55,145.27c1.73-.18,3.48-.31,5.24-.41q-2.6-1.22-5.31-2.29C270.49,143.45,270.51,144.35,270.55,145.27Z"/><path class="cls-4" d="M296,183.54c.14.26.27.55.4.84a73.31,73.31,0,0,0,11.25-13,73.25,73.25,0,0,0-11.25-13c-.13.29-.26.57-.4.83a46.58,46.58,0,0,1-10.11,12.14A46.91,46.91,0,0,1,296,183.54Z"/><path class="cls-4" d="M212,171.4c-1.88-2.54-3.84-5-5.77-7.56a37.43,37.43,0,0,0-13.54,7.56A37.43,37.43,0,0,0,206.23,179C208.16,176.42,210.12,173.94,212,171.4Z"/><path class="cls-4" d="M299.06,150.45c-.36.9-.75,2.25-1.19,3.7a43.72,43.72,0,0,1,4.81,4.51,46.23,46.23,0,0,1,13.46-4,.17.17,0,0,0,0-.05C310.71,153,305.68,150.92,299.06,150.45Z"/><path class="cls-4" d="M325.27,207.7c20.72-7.55,36.42-20.53,49.18-36.3-12.76-15.77-28.46-28.75-49.18-36.3-13.19,1.6-25.36,4.83-34.56,9.85,13.57.89,26.7,4,36.74,9.09,11,.64,20.1,5.33,16.75,17.36,3.35,12-5.74,16.73-16.76,17.36-10,5.12-23.16,8.21-36.73,9.1C299.91,202.88,312.08,206.11,325.27,207.7Z"/><path class="cls-4" d="M173.72,154.15c-.44-1.45-.83-2.8-1.19-3.7-6.62.47-11.65,2.51-17.1,4.15a.17.17,0,0,0,0,.05,46.13,46.13,0,0,1,13.46,4A43.72,43.72,0,0,1,173.72,154.15Z"/><polygon class="cls-4" points="346.61 133.9 346.61 133.9 346.61 133.9 346.61 133.9"/><path class="cls-4" d="M376.2,169.2A213.37,213.37,0,0,0,394.44,141c-2.72-.93-5.61-1.77-8.62-2.52-5.67,3-11.32,1-16.15-3.05a182.46,182.46,0,0,0-22.88-1.57h-.18C354.12,148,364.29,159.47,376.2,169.2Z"/><path class="cls-4" d="M225.71,206.92c1.61.27,3.24.51,4.88.72q2.66-1.08,5.21-2.27,2.55,1.19,5.2,2.27c1.65-.21,3.28-.45,4.88-.72.1-4.66-.94-11.34.3-15.6a49,49,0,0,1-4.94-2.06,47,47,0,0,1-5.44-.38,47.22,47.22,0,0,1-5.45.38,48,48,0,0,1-4.94,2.06C226.65,195.58,225.62,202.26,225.71,206.92Z"/><polygon class="cls-4" points="124.98 133.9 124.98 133.9 124.98 133.9 124.98 133.9"/><path class="cls-4" d="M85.77,138.52c-3,.75-5.89,1.59-8.62,2.52A213.44,213.44,0,0,0,95.4,169.2c11.9-9.73,22.08-21.17,29.58-35.29h-.18a182.46,182.46,0,0,0-22.88,1.57C97.09,139.49,91.44,141.48,85.77,138.52Z"/><path class="cls-4" d="M222.3,196h0a40.94,40.94,0,0,0-1.33-7.45,69.7,69.7,0,0,1-21.79-7.72c3.5,5.76,5,13.05,5,20.59a119.46,119.46,0,0,0,18,4.89A51.33,51.33,0,0,0,222.3,196Z"/><path class="cls-4" d="M201,197.54c-1.73.17-3.48.3-5.23.4q2.58,1.22,5.3,2.29C201.1,199.35,201.08,198.46,201,197.54Z"/><path class="cls-4" d="M180.88,197.86c-13.57-.89-26.7-4-36.73-9.1-11-.63-20.11-5.33-16.76-17.36-3.35-12,5.74-16.72,16.76-17.36,10-5.11,23.16-8.2,36.73-9.09-9.2-5-21.36-8.25-34.56-9.85-20.71,7.55-36.42,20.53-49.17,36.3,12.75,15.77,28.46,28.75,49.17,36.3C159.52,206.11,171.68,202.88,180.88,197.86Z"/><path class="cls-4" d="M92.63,96.4A201.48,201.48,0,0,0,64.71,78.48,144.49,144.49,0,0,0,60.09,96.4a144.19,144.19,0,0,0,4.62,17.93A201.54,201.54,0,0,0,92.63,96.4Z"/><path class="cls-4" d="M265.36,88.84c-1.93,2.55-3.89,5-5.77,7.56,1.88,2.54,3.84,5,5.77,7.56A37.43,37.43,0,0,0,278.9,96.4,37.43,37.43,0,0,0,265.36,88.84Z"/><path class="cls-4" d="M379,96.4a201.54,201.54,0,0,0,27.92,17.93,146,146,0,0,0,4.63-17.93,146.32,146.32,0,0,0-4.63-17.92A201.48,201.48,0,0,0,379,96.4Z"/><path class="cls-4" d="M385.82,129.29c3-.75,5.9-1.59,8.62-2.52A212.72,212.72,0,0,0,376.2,98.61c-11.91,9.72-22.08,21.17-29.59,35.29h.18a180.6,180.6,0,0,0,22.88-1.56C374.5,128.31,380.15,126.32,385.82,129.29Z"/><path class="cls-4" d="M125,133.91h0c-7.5-14.12-17.68-25.57-29.58-35.29a212.78,212.78,0,0,0-18.25,28.16c2.73.93,5.61,1.77,8.62,2.52,5.67-3,11.32-1,16.15,3.05a180.6,180.6,0,0,0,22.88,1.56Z"/><path class="cls-4" d="M270.55,122.54c0,.92-.06,1.81-.07,2.69q2.72-1.08,5.31-2.29C274,122.84,272.28,122.71,270.55,122.54Z"/><path class="cls-4" d="M201.11,67.57q-2.72,1.08-5.3,2.29c1.75.1,3.5.23,5.23.41C201.08,69.35,201.1,68.45,201.11,67.57Z"/><path class="cls-4" d="M230.35,78.55a45.09,45.09,0,0,1,5.45.38,44.92,44.92,0,0,1,5.44-.38,46.75,46.75,0,0,1,4.94-2.06c-1.24-4.26-.2-10.94-.3-15.61-1.6-.26-3.23-.5-4.88-.72-1.77.73-3.51,1.48-5.2,2.27-1.7-.79-3.44-1.54-5.2-2.27q-2.47.33-4.89.72c-.09,4.67.94,11.35-.3,15.61A45.89,45.89,0,0,1,230.35,78.55Z"/><path class="cls-4" d="M250.62,79.28A69.2,69.2,0,0,1,272.41,87c-3.5-5.77-5-13.06-5-20.6a118.28,118.28,0,0,0-18-4.88,52,52,0,0,0-.15,10.3A40.9,40.9,0,0,0,250.62,79.28Z"/><path class="cls-4" d="M175.24,83.43A72.79,72.79,0,0,0,164,96.4a72.85,72.85,0,0,0,11.24,13c.13-.29.27-.58.41-.84a46.65,46.65,0,0,1,10.1-12.14,46.33,46.33,0,0,1-10.1-12.14C175.51,84,175.37,83.72,175.24,83.43Z"/><path class="cls-4" d="M172.53,117.35c.36-.89.75-2.25,1.19-3.7a42.7,42.7,0,0,1-4.81-4.5,46.13,46.13,0,0,1-13.46,4l0,0C160.88,114.84,165.91,116.89,172.53,117.35Z"/><path class="cls-4" d="M221,79.28a40.9,40.9,0,0,0,1.33-7.46,51.22,51.22,0,0,0-.15-10.3,118.28,118.28,0,0,0-18,4.88c0,7.54-1.5,14.83-5,20.6A69.45,69.45,0,0,1,221,79.28Z"/><path class="cls-4" d="M267.41,126.4c0-7.54,1.5-14.83,5-20.59a69.7,69.7,0,0,1-21.79,7.72,40.94,40.94,0,0,0-1.33,7.45h0a52.08,52.08,0,0,0,.15,10.31A119.46,119.46,0,0,0,267.41,126.4Z"/><path class="cls-4" d="M297.87,113.65c.44,1.45.83,2.81,1.19,3.7,6.62-.46,11.65-2.51,17.1-4.14l0,0a46.23,46.23,0,0,1-13.46-4A42.7,42.7,0,0,1,297.87,113.65Z"/><path class="cls-4" d="M275.79,69.86q-2.6-1.22-5.31-2.29c0,.88,0,1.78.07,2.7C272.28,70.09,274,70,275.79,69.86Z"/><path class="cls-4" d="M296,108.54c.14.26.27.55.4.84a73.31,73.31,0,0,0,11.25-13,73.25,73.25,0,0,0-11.25-13c-.13.29-.26.57-.4.83A46.58,46.58,0,0,1,285.84,96.4,46.91,46.91,0,0,1,296,108.54Z"/><path class="cls-4" d="M212,96.4c-1.88-2.54-3.84-5-5.77-7.56a37.43,37.43,0,0,0-13.54,7.56A37.43,37.43,0,0,0,206.23,104C208.16,101.42,210.12,98.94,212,96.4Z"/><path class="cls-4" d="M299.06,75.45c-.36.9-.75,2.25-1.19,3.7a43.72,43.72,0,0,1,4.81,4.51,46.23,46.23,0,0,1,13.46-4,.17.17,0,0,0,0-.05C310.71,78,305.68,75.92,299.06,75.45Z"/><path class="cls-4" d="M344.2,96.4c3.35,12-5.74,16.73-16.76,17.36-10,5.12-23.16,8.21-36.73,9.1,9.2,5,21.37,8.25,34.56,9.84,20.72-7.55,36.42-20.53,49.18-36.3C361.69,80.63,346,67.65,325.27,60.1c-13.19,1.6-25.36,4.83-34.56,9.85,13.57.89,26.7,4,36.74,9.09C338.46,79.68,347.55,84.37,344.2,96.4Z"/><path class="cls-4" d="M168.91,83.66a43.72,43.72,0,0,1,4.81-4.51c-.44-1.45-.83-2.8-1.19-3.7-6.62.47-11.65,2.51-17.1,4.15a.17.17,0,0,0,0,.05A46.13,46.13,0,0,1,168.91,83.66Z"/><path class="cls-4" d="M376.2,94.2A213.37,213.37,0,0,0,394.44,66c-2.72-.93-5.61-1.77-8.62-2.52-5.67,3-11.32,1-16.15-3.05a179.77,179.77,0,0,0-23.06-1.57C354.11,73,364.29,84.47,376.2,94.2Z"/><path class="cls-4" d="M225.71,131.92c1.61.27,3.24.51,4.88.72q2.66-1.08,5.21-2.27,2.55,1.19,5.2,2.27c1.65-.21,3.28-.45,4.88-.72.1-4.66-.94-11.34.3-15.6a49,49,0,0,1-4.94-2.06,47,47,0,0,1-5.44-.38,47.22,47.22,0,0,1-5.45.38,48,48,0,0,1-4.94,2.06C226.65,120.58,225.62,127.26,225.71,131.92Z"/><path class="cls-4" d="M125,58.9a179.89,179.89,0,0,0-23.06,1.57c-4.83,4-10.48,6-16.15,3.05-3,.75-5.89,1.59-8.62,2.52A213.44,213.44,0,0,0,95.4,94.2C107.3,84.47,117.48,73,125,58.9Z"/><path class="cls-4" d="M222.3,121h0a40.94,40.94,0,0,0-1.33-7.45,69.7,69.7,0,0,1-21.79-7.72c3.5,5.76,5,13,5,20.59a119.46,119.46,0,0,0,18,4.89A51.33,51.33,0,0,0,222.3,121Z"/><path class="cls-4" d="M201,122.54c-1.73.17-3.48.3-5.23.4q2.58,1.22,5.3,2.29C201.1,124.35,201.08,123.46,201,122.54Z"/><path class="cls-4" d="M97.15,96.4c12.75,15.77,28.46,28.75,49.17,36.3,13.2-1.59,25.36-4.82,34.56-9.84-13.57-.89-26.7-4-36.73-9.1-11-.63-20.11-5.33-16.76-17.36-3.35-12,5.74-16.72,16.76-17.36,10-5.11,23.16-8.2,36.73-9.09-9.2-5-21.36-8.25-34.56-9.85C125.61,67.65,109.9,80.63,97.15,96.4Z"/><path class="cls-4" d="M92.63,247.4a201.48,201.48,0,0,0-27.92-17.92,144.49,144.49,0,0,0-4.62,17.92,144.19,144.19,0,0,0,4.62,17.93A201.54,201.54,0,0,0,92.63,247.4Z"/><path class="cls-4" d="M265.36,239.84c-1.93,2.55-3.89,5-5.77,7.56,1.88,2.54,3.84,5,5.77,7.56a37.43,37.43,0,0,0,13.54-7.56A37.43,37.43,0,0,0,265.36,239.84Z"/><path class="cls-4" d="M379,247.4a201.54,201.54,0,0,0,27.92,17.93,146,146,0,0,0,4.63-17.93,146.32,146.32,0,0,0-4.63-17.92A201.48,201.48,0,0,0,379,247.4Z"/><path class="cls-4" d="M376.2,249.61c-11.91,9.72-22.09,21.17-29.59,35.3a183.45,183.45,0,0,0,23.06-1.57c4.83-4,10.48-6,16.15-3,3-.75,5.9-1.59,8.62-2.52A212.72,212.72,0,0,0,376.2,249.61Z"/><path class="cls-4" d="M95.4,249.61a212.78,212.78,0,0,0-18.25,28.16c2.73.93,5.61,1.77,8.62,2.52,5.67-3,11.32-1,16.15,3A183.58,183.58,0,0,0,125,284.91C117.48,270.78,107.3,259.33,95.4,249.61Z"/><path class="cls-4" d="M270.55,273.54c0,.92-.06,1.81-.07,2.69q2.72-1.08,5.31-2.29C274,273.84,272.28,273.71,270.55,273.54Z"/><path class="cls-4" d="M201,221.27c0-.92.06-1.82.07-2.7q-2.72,1.08-5.3,2.29C197.56,221,199.31,221.09,201,221.27Z"/><path class="cls-4" d="M235.8,229.93a44.92,44.92,0,0,1,5.44-.38,46.75,46.75,0,0,1,4.94-2.06c-1.24-4.26-.2-10.94-.3-15.61-1.6-.26-3.23-.5-4.88-.72-1.77.73-3.51,1.48-5.2,2.27-1.7-.79-3.44-1.54-5.2-2.27q-2.47.33-4.89.72c-.09,4.67.94,11.35-.3,15.61a45.89,45.89,0,0,1,4.94,2.06A45.09,45.09,0,0,1,235.8,229.93Z"/><path class="cls-4" d="M250.62,230.28A69.2,69.2,0,0,1,272.41,238c-3.5-5.77-5-13.06-5-20.6a118.28,118.28,0,0,0-18-4.88,52,52,0,0,0-.15,10.3A40.9,40.9,0,0,0,250.62,230.28Z"/><path class="cls-4" d="M175.24,260.38c.13-.29.27-.58.41-.84a46.65,46.65,0,0,1,10.1-12.14,46.33,46.33,0,0,1-10.1-12.14c-.14-.26-.28-.54-.41-.83a72.79,72.79,0,0,0-11.24,13A72.85,72.85,0,0,0,175.24,260.38Z"/><path class="cls-4" d="M168.91,260.15a46.13,46.13,0,0,1-13.46,4l0,0c4.83,1.45,9.33,3.21,14.9,3.92,1-1.27,2-2.51,3.09-3.73A42.2,42.2,0,0,1,168.91,260.15Z"/><path class="cls-4" d="M222.3,222.82a51.22,51.22,0,0,0-.15-10.3,118.28,118.28,0,0,0-18,4.88c0,7.54-1.5,14.83-5,20.6A69.45,69.45,0,0,1,221,230.28,40.9,40.9,0,0,0,222.3,222.82Z"/><path class="cls-4" d="M249.44,282.29a119.46,119.46,0,0,0,18-4.89c0-7.54,1.5-14.83,5-20.59a69.7,69.7,0,0,1-21.79,7.72,40.94,40.94,0,0,0-1.33,7.45h0A52.08,52.08,0,0,0,249.44,282.29Z"/><path class="cls-4" d="M297.87,264.65c.44,1.45.83,2.81,1.19,3.7,6.62-.46,11.65-2.51,17.1-4.14l0,0a46.23,46.23,0,0,1-13.46-4A42.7,42.7,0,0,1,297.87,264.65Z"/><path class="cls-4" d="M270.55,221.27c1.73-.18,3.48-.31,5.24-.41q-2.6-1.22-5.31-2.29C270.49,219.45,270.51,220.35,270.55,221.27Z"/><path class="cls-4" d="M296,259.54c.14.26.27.55.4.84a73.31,73.31,0,0,0,11.25-13,73.25,73.25,0,0,0-11.25-13c-.13.29-.26.57-.4.83a46.58,46.58,0,0,1-10.11,12.14A46.91,46.91,0,0,1,296,259.54Z"/><path class="cls-4" d="M206.23,239.84a37.43,37.43,0,0,0-13.54,7.56q1.41,1.17,2.91,2.25a52.78,52.78,0,0,1,16.19-2.52C210,244.69,208.09,242.3,206.23,239.84Z"/><path class="cls-4" d="M299.06,226.45c-.36.9-.75,2.25-1.19,3.7a43.72,43.72,0,0,1,4.81,4.51,46.23,46.23,0,0,1,13.46-4,.17.17,0,0,0,0-.05C310.71,229,305.68,226.92,299.06,226.45Z"/><path class="cls-4" d="M325.27,283.7c20.72-7.55,36.42-20.53,49.18-36.3-12.76-15.77-28.46-28.75-49.18-36.3-13.19,1.6-25.36,4.83-34.56,9.85,13.57.89,26.7,4,36.74,9.09,11,.64,20.1,5.33,16.75,17.36,3.35,12-5.74,16.73-16.76,17.36-10,5.12-23.16,8.21-36.73,9.1C299.91,278.88,312.08,282.11,325.27,283.7Z"/><path class="cls-4" d="M173.72,230.15c-.44-1.45-.83-2.8-1.19-3.7-6.62.47-11.65,2.51-17.1,4.15a.17.17,0,0,0,0,.05,46.13,46.13,0,0,1,13.46,4A43.72,43.72,0,0,1,173.72,230.15Z"/><path class="cls-4" d="M385.82,214.52c-5.67,3-11.32,1-16.15-3.05a179.77,179.77,0,0,0-23.06-1.57c7.5,14.12,17.68,25.57,29.59,35.3A213.37,213.37,0,0,0,394.44,217C391.72,216.11,388.83,215.27,385.82,214.52Z"/><path class="cls-4" d="M227.71,266.44c-.8.33-1.58.63-2.3.88,1.24,4.26.21,10.94.3,15.6,1.61.27,3.24.51,4.88.72q2.66-1.08,5.21-2.27,2.55,1.19,5.2,2.27c1.65-.21,3.28-.45,4.88-.72.1-4.66-.94-11.34.3-15.6-.37-.13-.76-.27-1.16-.43a136.33,136.33,0,0,1-11.86,9.33A41.65,41.65,0,0,0,227.71,266.44Z"/><path class="cls-4" d="M125,209.9a179.89,179.89,0,0,0-23.06,1.57c-4.83,4-10.48,6-16.15,3.05-3,.75-5.89,1.59-8.62,2.52A213.44,213.44,0,0,0,95.4,245.2C107.3,235.47,117.48,224,125,209.9Z"/><path class="cls-4" d="M204.18,277.4a119.46,119.46,0,0,0,18,4.89A51.33,51.33,0,0,0,222.3,272h0a40.94,40.94,0,0,0-1.33-7.45,69.08,69.08,0,0,1-19.73-6.64c-.41.13-.83.27-1.23.43A40.78,40.78,0,0,1,204.18,277.4Z"/><path class="cls-4" d="M201.11,276.23c0-.88,0-1.77-.07-2.69-1.73.17-3.48.3-5.23.4Q198.39,275.15,201.11,276.23Z"/><path class="cls-4" d="M144.15,264.76c-11-.63-20.11-5.33-16.76-17.36-3.35-12,5.74-16.72,16.76-17.36,10-5.11,23.16-8.2,36.73-9.09-9.2-5-21.36-8.25-34.56-9.85-20.71,7.55-36.42,20.53-49.17,36.3,12.75,15.77,28.46,28.75,49.17,36.3a130,130,0,0,0,16.86-3.12,52.85,52.85,0,0,1,4.3-8.36A85.53,85.53,0,0,1,144.15,264.76Z"/><path class="cls-4" d="M92.63,417.4a201.48,201.48,0,0,0-27.92-17.92,144.49,144.49,0,0,0-4.62,17.92,144.19,144.19,0,0,0,4.62,17.93A201.54,201.54,0,0,0,92.63,417.4Z"/><path class="cls-4" d="M259.59,417.4c1.88,2.54,3.84,5,5.77,7.56a37.43,37.43,0,0,0,13.54-7.56,37.43,37.43,0,0,0-13.54-7.56C263.43,412.39,261.47,414.86,259.59,417.4Z"/><path class="cls-4" d="M379,417.4a201.54,201.54,0,0,0,27.92,17.93,146,146,0,0,0,4.63-17.93,146.32,146.32,0,0,0-4.63-17.92A201.48,201.48,0,0,0,379,417.4Z"/><path class="cls-4" d="M346.61,454.91h.55l-.28-.5Z"/><path class="cls-4" d="M385.82,450.29c3-.75,5.9-1.59,8.62-2.52a212.72,212.72,0,0,0-18.24-28.16,115.65,115.65,0,0,0-29,34.3c4,0,8.07.2,12.06.49,3.53-.26,7-.61,10.45-1.06C374.5,449.31,380.15,447.32,385.82,450.29Z"/><path class="cls-4" d="M95.4,419.61a212.78,212.78,0,0,0-18.25,28.16c2.73.93,5.61,1.77,8.62,2.52,5.67-3,11.32-1,16.15,3,3.42.45,6.92.8,10.45,1.06q6-.43,12.07-.49A115.65,115.65,0,0,0,95.4,419.61Z"/><path class="cls-4" d="M125,454.91l-.27-.51-.27.5Z"/><path class="cls-4" d="M270.55,443.54c0,.92-.06,1.81-.07,2.69q2.72-1.08,5.31-2.29C274,443.84,272.28,443.71,270.55,443.54Z"/><path class="cls-4" d="M201.11,388.57q-2.72,1.08-5.3,2.29c1.75.1,3.5.23,5.23.41C201.08,390.35,201.1,389.45,201.11,388.57Z"/><path class="cls-4" d="M230.35,399.55a45.09,45.09,0,0,1,5.45.38,44.92,44.92,0,0,1,5.44-.38,46.75,46.75,0,0,1,4.94-2.06c-1.24-4.26-.2-10.94-.3-15.61-1.6-.26-3.23-.5-4.88-.72-1.77.73-3.51,1.48-5.2,2.27-1.7-.79-3.44-1.54-5.2-2.27q-2.47.33-4.89.72c-.06,3.2.4,7.34.3,11a51.42,51.42,0,0,0,2.34,5.76C229,398.92,229.67,399.22,230.35,399.55Z"/><path class="cls-4" d="M256.47,384.09c-2.3-.57-4.63-1.11-7-1.57a52,52,0,0,0-.15,10.3,40.9,40.9,0,0,0,1.33,7.46A69.2,69.2,0,0,1,272.41,408a30.32,30.32,0,0,1-2.46-5.17,31,31,0,0,1-2.82-3.45Z"/><path class="cls-4" d="M175.65,405.26c-.14-.26-.28-.54-.41-.83a72.79,72.79,0,0,0-11.24,13,72.85,72.85,0,0,0,11.24,13c.13-.29.27-.58.41-.84a46.65,46.65,0,0,1,10.1-12.14A46.33,46.33,0,0,1,175.65,405.26Z"/><path class="cls-4" d="M172.53,438.35c.36-.89.75-2.25,1.19-3.7a42.7,42.7,0,0,1-4.81-4.5,46.13,46.13,0,0,1-13.46,4l0,0C160.88,435.84,165.91,437.89,172.53,438.35Z"/><path class="cls-4" d="M206.05,396.17v-9.4c-.62.21-1.26.41-1.87.63,0,7.54-1.5,14.83-5,20.6l.44-.23c.77-1.14,1.88-2.72,3.38-4.69C205.09,400.34,206.05,398.09,206.05,396.17Z"/><path class="cls-4" d="M249.44,452.29a119.46,119.46,0,0,0,18-4.89c0-7.54,1.5-14.83,5-20.59a69.7,69.7,0,0,1-21.79,7.72,40.94,40.94,0,0,0-1.33,7.45h0A52.08,52.08,0,0,0,249.44,452.29Z"/><path class="cls-4" d="M316.14,434.16a46.23,46.23,0,0,1-13.46-4,42.7,42.7,0,0,1-4.81,4.5c.44,1.45.83,2.81,1.19,3.7,6.62-.46,11.65-2.51,17.1-4.14Z"/><path class="cls-4" d="M285.84,417.4A46.91,46.91,0,0,1,296,429.54c.14.26.27.55.4.84a73.31,73.31,0,0,0,11.25-13,73.51,73.51,0,0,0-10.46-12.21c-.63.47-1.26.9-1.9,1.29A48.35,48.35,0,0,1,285.84,417.4Z"/><path class="cls-4" d="M212,417.4c-1.88-2.54-3.84-5-5.77-7.56a37.43,37.43,0,0,0-13.54,7.56A37.43,37.43,0,0,0,206.23,425C208.16,422.42,210.12,419.94,212,417.4Z"/><path class="cls-4" d="M300.39,402.34c.79.74,1.56,1.51,2.29,2.32a46.23,46.23,0,0,1,13.46-4l0,0c-3.84-1.15-7.48-2.5-11.61-3.37a49.73,49.73,0,0,1-3.19,4.08C301,401.66,300.71,402,300.39,402.34Z"/><path class="cls-4" d="M307.31,393.21A82.61,82.61,0,0,1,327.45,400c11,.64,20.1,5.33,16.75,17.36,3.35,12-5.74,16.73-16.76,17.36-10,5.12-23.16,8.21-36.73,9.1,9.2,5,21.37,8.25,34.56,9.84,20.72-7.55,36.42-20.53,49.18-36.3-12.76-15.77-28.46-28.75-49.18-36.3-4.57.56-9,1.31-13.26,2.26l.6,1.56Q309.67,389.66,307.31,393.21Z"/><path class="cls-4" d="M290.71,391c1.11.07,2.21.16,3.31.27l5.69-4.3A67.71,67.71,0,0,0,290.71,391Z"/><path class="cls-4" d="M173.72,400.15c-.44-1.45-.83-2.8-1.19-3.7-6.62.47-11.65,2.51-17.1,4.15l0,0a46.13,46.13,0,0,1,13.46,4A43.72,43.72,0,0,1,173.72,400.15Z"/><path class="cls-4" d="M385.82,384.52c-5.67,3-11.32,1-16.15-3a179.77,179.77,0,0,0-23.06-1.57c7.5,14.12,17.68,25.57,29.59,35.3A213.37,213.37,0,0,0,394.44,387C391.72,386.11,388.83,385.27,385.82,384.52Z"/><path class="cls-4" d="M235.8,434.88a47.22,47.22,0,0,1-5.45.38,48,48,0,0,1-4.94,2.06c1.24,4.26.21,10.94.3,15.6,1.61.27,3.24.51,4.88.72q2.66-1.08,5.21-2.27,2.55,1.19,5.2,2.27c1.65-.21,3.28-.45,4.88-.72.1-4.66-.94-11.34.3-15.6a49,49,0,0,1-4.94-2.06A47,47,0,0,1,235.8,434.88Z"/><path class="cls-4" d="M85.77,384.52c-3,.75-5.89,1.59-8.62,2.52A213.44,213.44,0,0,0,95.4,415.2c11.9-9.73,22.08-21.18,29.58-35.3a179.89,179.89,0,0,0-23.06,1.57C97.09,385.49,91.44,387.48,85.77,384.52Z"/><path class="cls-4" d="M222.3,442a40.94,40.94,0,0,0-1.33-7.45,69.7,69.7,0,0,1-21.79-7.72c3.5,5.76,5,13.05,5,20.59a119.46,119.46,0,0,0,18,4.89A51.33,51.33,0,0,0,222.3,442Z"/><path class="cls-4" d="M195.81,443.94q2.58,1.21,5.3,2.29c0-.88,0-1.77-.07-2.69C199.31,443.71,197.56,443.84,195.81,443.94Z"/><path class="cls-4" d="M146.32,381.1c-20.71,7.55-36.42,20.53-49.17,36.3,12.75,15.77,28.46,28.75,49.17,36.3,13.2-1.59,25.36-4.82,34.56-9.84-13.57-.89-26.7-4-36.73-9.1-11-.63-20.11-5.33-16.76-17.36-3.35-12,5.74-16.72,16.76-17.36,10-5.11,23.16-8.2,36.73-9.09C171.68,385.93,159.52,382.7,146.32,381.1Z"/><path class="cls-4" d="M92.63,491.4a201.48,201.48,0,0,0-27.92-17.92,144.49,144.49,0,0,0-4.62,17.92,144.19,144.19,0,0,0,4.62,17.93A201.54,201.54,0,0,0,92.63,491.4Z"/><path class="cls-4" d="M259.59,491.4c1.88,2.54,3.84,5,5.77,7.56a37.43,37.43,0,0,0,13.54-7.56,37.43,37.43,0,0,0-13.54-7.56C263.43,486.39,261.47,488.86,259.59,491.4Z"/><path class="cls-4" d="M379,491.4a201.54,201.54,0,0,0,27.92,17.93,146,146,0,0,0,4.63-17.93,146.32,146.32,0,0,0-4.63-17.92A201.48,201.48,0,0,0,379,491.4Z"/><path class="cls-4" d="M385.82,524.29c3-.75,5.9-1.59,8.62-2.52a212.72,212.72,0,0,0-18.24-28.16,115.65,115.65,0,0,0-29,34.3c4,0,8.07.2,12.06.49,3.53-.26,7-.61,10.45-1.06C374.5,523.31,380.15,521.32,385.82,524.29Z"/><path class="cls-4" d="M346.61,528.91h.55l-.28-.5Z"/><path class="cls-4" d="M95.4,493.61a212.78,212.78,0,0,0-18.25,28.16c2.73.93,5.61,1.77,8.62,2.52,5.67-3,11.32-1,16.15,3.05,3.42.45,6.92.8,10.45,1.06q6-.43,12.07-.49A115.65,115.65,0,0,0,95.4,493.61Z"/><path class="cls-4" d="M125,528.91l-.27-.51-.27.5Z"/><path class="cls-4" d="M270.55,517.54c0,.92-.06,1.81-.07,2.69q2.72-1.08,5.31-2.29C274,517.84,272.28,517.71,270.55,517.54Z"/><path class="cls-4" d="M195.81,464.86c1.75.1,3.5.23,5.23.41,0-.92.06-1.82.07-2.7Q198.4,463.65,195.81,464.86Z"/><path class="cls-4" d="M245.88,455.88c-1.6-.26-3.23-.5-4.88-.72-1.77.73-3.51,1.48-5.2,2.27-1.7-.79-3.44-1.54-5.2-2.27q-2.47.33-4.89.72c-.09,4.67.94,11.35-.3,15.61a45.89,45.89,0,0,1,4.94,2.06,45.09,45.09,0,0,1,5.45.38,44.92,44.92,0,0,1,5.44-.38,46.75,46.75,0,0,1,4.94-2.06C244.94,467.23,246,460.55,245.88,455.88Z"/><path class="cls-4" d="M249.29,466.82a40.9,40.9,0,0,0,1.33,7.46A69.2,69.2,0,0,1,272.41,482c-3.5-5.77-5-13.06-5-20.6a118.28,118.28,0,0,0-18-4.88A52,52,0,0,0,249.29,466.82Z"/><path class="cls-4" d="M175.65,479.26c-.14-.26-.28-.54-.41-.83a72.79,72.79,0,0,0-11.24,13,72.85,72.85,0,0,0,11.24,13c.13-.29.27-.58.41-.84a46.65,46.65,0,0,1,10.1-12.14A46.33,46.33,0,0,1,175.65,479.26Z"/><path class="cls-4" d="M172.53,512.35c.36-.89.75-2.25,1.19-3.7a42.7,42.7,0,0,1-4.81-4.5,46.13,46.13,0,0,1-13.46,4l0,0C160.88,509.84,165.91,511.89,172.53,512.35Z"/><path class="cls-4" d="M222.3,466.82a51.22,51.22,0,0,0-.15-10.3,118.28,118.28,0,0,0-18,4.88c0,7.54-1.5,14.83-5,20.6A69.45,69.45,0,0,1,221,474.28,40.9,40.9,0,0,0,222.3,466.82Z"/><path class="cls-4" d="M249.44,526.29a119.46,119.46,0,0,0,18-4.89c0-7.54,1.5-14.83,5-20.59a69.7,69.7,0,0,1-21.79,7.72,40.94,40.94,0,0,0-1.33,7.45h0A52.08,52.08,0,0,0,249.44,526.29Z"/><path class="cls-4" d="M297.87,508.65c.44,1.45.83,2.81,1.19,3.7,6.62-.46,11.65-2.51,17.1-4.14l0,0a46.23,46.23,0,0,1-13.46-4A42.7,42.7,0,0,1,297.87,508.65Z"/><path class="cls-4" d="M270.55,465.27c1.73-.18,3.48-.31,5.24-.41q-2.6-1.22-5.31-2.29C270.49,463.45,270.51,464.35,270.55,465.27Z"/><path class="cls-4" d="M296,479.26a46.58,46.58,0,0,1-10.11,12.14A46.91,46.91,0,0,1,296,503.54c.14.26.27.55.4.84a73.31,73.31,0,0,0,11.25-13,73.25,73.25,0,0,0-11.25-13C296.22,478.72,296.09,479,296,479.26Z"/><path class="cls-4" d="M206.23,499c1.93-2.54,3.89-5,5.77-7.56-1.88-2.54-3.84-5-5.77-7.56a37.43,37.43,0,0,0-13.54,7.56A37.43,37.43,0,0,0,206.23,499Z"/><path class="cls-4" d="M299.06,470.45c-.36.9-.75,2.25-1.19,3.7a43.72,43.72,0,0,1,4.81,4.51,46.23,46.23,0,0,1,13.46-4l0,0C310.71,473,305.68,470.92,299.06,470.45Z"/><path class="cls-4" d="M374.45,491.4c-12.76-15.77-28.46-28.75-49.18-36.3-13.19,1.6-25.36,4.83-34.56,9.85,13.57.89,26.7,4,36.74,9.09,11,.64,20.1,5.33,16.75,17.36,3.35,12-5.74,16.73-16.76,17.36-10,5.12-23.16,8.21-36.73,9.1,9.2,5,21.37,8.25,34.56,9.84C346,520.15,361.69,507.17,374.45,491.4Z"/><path class="cls-4" d="M173.72,474.15c-.44-1.45-.83-2.8-1.19-3.7-6.62.47-11.65,2.51-17.1,4.15l0,0a46.13,46.13,0,0,1,13.46,4A43.72,43.72,0,0,1,173.72,474.15Z"/><path class="cls-4" d="M346.61,453.9l.27.5.28.5c7.45,13.66,17.42,24.8,29,34.3A213.37,213.37,0,0,0,394.44,461c-2.72-.93-5.61-1.77-8.62-2.52-5.67,3-11.32,1-16.15-3-3.42-.46-6.92-.81-10.45-1.07-4-.29-8-.46-12.06-.49Z"/><path class="cls-4" d="M235.8,508.88a47.22,47.22,0,0,1-5.45.38,48,48,0,0,1-4.94,2.06c1.24,4.26.21,10.94.3,15.6,1.61.27,3.24.51,4.88.72q2.66-1.08,5.21-2.27,2.55,1.18,5.2,2.27c1.65-.21,3.28-.45,4.88-.72.1-4.66-.94-11.34.3-15.6a49,49,0,0,1-4.94-2.06A47,47,0,0,1,235.8,508.88Z"/><path class="cls-4" d="M85.77,458.52c-3,.75-5.89,1.59-8.62,2.52A213.44,213.44,0,0,0,95.4,489.2c11.62-9.5,21.59-20.64,29-34.3l.27-.5.27-.5h-.54q-6.07,0-12.07.49c-3.53.26-7,.61-10.45,1.07C97.09,459.49,91.44,461.48,85.77,458.52Z"/><path class="cls-4" d="M222.3,516a40.94,40.94,0,0,0-1.33-7.45,69.7,69.7,0,0,1-21.79-7.72c3.5,5.76,5,13.05,5,20.59a119.46,119.46,0,0,0,18,4.89A51.33,51.33,0,0,0,222.3,516Z"/><path class="cls-4" d="M195.81,517.94q2.58,1.21,5.3,2.29c0-.88,0-1.77-.07-2.69C199.31,517.71,197.56,517.84,195.81,517.94Z"/><path class="cls-4" d="M146.32,455.1c-20.71,7.55-36.42,20.53-49.17,36.3,12.75,15.77,28.46,28.75,49.17,36.3,13.2-1.59,25.36-4.82,34.56-9.84-13.57-.89-26.7-4-36.73-9.1-11-.63-20.11-5.33-16.76-17.36-3.35-12,5.74-16.72,16.76-17.36,10-5.11,23.16-8.2,36.73-9.09C171.68,459.93,159.52,456.7,146.32,455.1Z"/><path class="cls-4" d="M64.71,547.48a144.49,144.49,0,0,0-4.62,17.92,144.19,144.19,0,0,0,4.62,17.93A201.54,201.54,0,0,0,92.63,565.4,201.48,201.48,0,0,0,64.71,547.48Z"/><path class="cls-4" d="M259.59,565.4c1.88,2.54,3.84,5,5.77,7.56a37.43,37.43,0,0,0,13.54-7.56,37.43,37.43,0,0,0-13.54-7.56C263.43,560.39,261.47,562.86,259.59,565.4Z"/><path class="cls-4" d="M379,565.4a201.54,201.54,0,0,0,27.92,17.93,146,146,0,0,0,4.63-17.93,146.32,146.32,0,0,0-4.63-17.92A201.48,201.48,0,0,0,379,565.4Z"/><path class="cls-4" d="M346.61,602.91a183.45,183.45,0,0,0,23.06-1.57c4.83-4,10.48-6,16.15-3.05,3-.75,5.9-1.59,8.62-2.52a212.72,212.72,0,0,0-18.24-28.16C364.29,577.33,354.11,588.78,346.61,602.91Z"/><path class="cls-4" d="M95.4,567.61a212.78,212.78,0,0,0-18.25,28.16c2.73.93,5.61,1.77,8.62,2.52,5.67-3,11.32-1,16.15,3.05A183.58,183.58,0,0,0,125,602.91C117.48,588.78,107.3,577.33,95.4,567.61Z"/><path class="cls-4" d="M270.48,594.23q2.72-1.08,5.31-2.29c-1.76-.1-3.51-.23-5.24-.4C270.51,592.46,270.49,593.35,270.48,594.23Z"/><path class="cls-4" d="M195.81,538.86c1.75.1,3.5.23,5.23.41,0-.92.06-1.82.07-2.7Q198.4,537.65,195.81,538.86Z"/><path class="cls-4" d="M245.88,529.88c-1.6-.26-3.23-.5-4.88-.72-1.77.73-3.51,1.48-5.2,2.27-1.7-.79-3.44-1.54-5.2-2.27q-2.47.33-4.89.72c-.09,4.67.94,11.35-.3,15.61a45.89,45.89,0,0,1,4.94,2.06,45.09,45.09,0,0,1,5.45.38,44.92,44.92,0,0,1,5.44-.38,46.75,46.75,0,0,1,4.94-2.06C244.94,541.23,246,534.55,245.88,529.88Z"/><path class="cls-4" d="M249.29,540.82a40.9,40.9,0,0,0,1.33,7.46A69.2,69.2,0,0,1,272.41,556c-3.5-5.77-5-13.06-5-20.6a118.28,118.28,0,0,0-18-4.88A52,52,0,0,0,249.29,540.82Z"/><path class="cls-4" d="M175.65,553.26c-.14-.26-.28-.54-.41-.83a72.79,72.79,0,0,0-11.24,13,72.85,72.85,0,0,0,11.24,13c.13-.29.27-.58.41-.84a46.65,46.65,0,0,1,10.1-12.14A46.33,46.33,0,0,1,175.65,553.26Z"/><path class="cls-4" d="M172.53,586.35c.36-.89.75-2.25,1.19-3.7a42.7,42.7,0,0,1-4.81-4.5,46.13,46.13,0,0,1-13.46,4l0,.05C160.88,583.84,165.91,585.89,172.53,586.35Z"/><path class="cls-4" d="M222.3,540.82a51.22,51.22,0,0,0-.15-10.3,118.28,118.28,0,0,0-18,4.88c0,7.54-1.5,14.83-5,20.6A69.45,69.45,0,0,1,221,548.28,40.9,40.9,0,0,0,222.3,540.82Z"/><path class="cls-4" d="M250.62,582.53a40.94,40.94,0,0,0-1.33,7.45h0a52.08,52.08,0,0,0,.15,10.31,119.46,119.46,0,0,0,18-4.89c0-7.54,1.5-14.83,5-20.59A69.7,69.7,0,0,1,250.62,582.53Z"/><path class="cls-4" d="M297.87,582.65c.44,1.45.83,2.81,1.19,3.7,6.62-.46,11.65-2.51,17.1-4.14l0-.05a46.23,46.23,0,0,1-13.46-4A42.7,42.7,0,0,1,297.87,582.65Z"/><path class="cls-4" d="M270.55,539.27c1.73-.18,3.48-.31,5.24-.41q-2.6-1.22-5.31-2.29C270.49,537.45,270.51,538.35,270.55,539.27Z"/><path class="cls-4" d="M296.35,578.38a73.31,73.31,0,0,0,11.25-13,73.25,73.25,0,0,0-11.25-13c-.13.29-.26.57-.4.83a46.58,46.58,0,0,1-10.11,12.14A46.91,46.91,0,0,1,296,577.54C296.09,577.8,296.22,578.09,296.35,578.38Z"/><path class="cls-4" d="M206.23,573c1.93-2.54,3.89-5,5.77-7.56-1.88-2.54-3.84-5-5.77-7.56a37.43,37.43,0,0,0-13.54,7.56A37.43,37.43,0,0,0,206.23,573Z"/><path class="cls-4" d="M299.06,544.45c-.36.9-.75,2.25-1.19,3.7a43.72,43.72,0,0,1,4.81,4.51,46.23,46.23,0,0,1,13.46-4l0,0C310.71,547,305.68,544.92,299.06,544.45Z"/><path class="cls-4" d="M374.45,565.4c-12.76-15.77-28.46-28.75-49.18-36.3-13.19,1.6-25.36,4.83-34.56,9.85,13.57.89,26.7,4,36.74,9.09,11,.64,20.1,5.33,16.75,17.36,3.35,12-5.74,16.73-16.76,17.36-10,5.12-23.16,8.21-36.73,9.1,9.2,5,21.37,8.25,34.56,9.84C346,594.15,361.69,581.17,374.45,565.4Z"/><path class="cls-4" d="M173.72,548.15c-.44-1.45-.83-2.8-1.19-3.7-6.62.47-11.65,2.51-17.1,4.15l0,0a46.13,46.13,0,0,1,13.46,4A43.72,43.72,0,0,1,173.72,548.15Z"/><path class="cls-4" d="M346.61,527.9l.27.5.28.5c7.45,13.66,17.42,24.8,29,34.3A213.37,213.37,0,0,0,394.44,535c-2.72-.93-5.61-1.77-8.62-2.52-5.67,3-11.32,1-16.15-3-3.42-.46-6.92-.81-10.45-1.07-4-.29-8-.46-12.06-.49Z"/><path class="cls-4" d="M241.24,583.26a47,47,0,0,1-5.44-.38,47.22,47.22,0,0,1-5.45.38,48,48,0,0,1-4.94,2.06c1.24,4.26.21,10.94.3,15.6,1.61.27,3.24.51,4.88.72q2.66-1.08,5.21-2.27,2.55,1.18,5.2,2.27c1.65-.21,3.28-.45,4.88-.72.1-4.66-.94-11.34.3-15.6A49,49,0,0,1,241.24,583.26Z"/><path class="cls-4" d="M124.44,527.91q-6.07,0-12.07.49c-3.53.26-7,.61-10.45,1.07-4.83,4-10.48,6-16.15,3-3,.75-5.89,1.59-8.62,2.52A213.44,213.44,0,0,0,95.4,563.2c11.62-9.5,21.59-20.64,29-34.3l.27-.5.27-.5Z"/><path class="cls-4" d="M222.3,590a40.94,40.94,0,0,0-1.33-7.45,69.7,69.7,0,0,1-21.79-7.72c3.5,5.76,5,13.05,5,20.59a119.46,119.46,0,0,0,18,4.89A51.33,51.33,0,0,0,222.3,590Z"/><path class="cls-4" d="M195.81,591.94q2.58,1.21,5.3,2.29c0-.88,0-1.77-.07-2.69C199.31,591.71,197.56,591.84,195.81,591.94Z"/><path class="cls-4" d="M127.39,565.4c-3.35-12,5.74-16.72,16.76-17.36,10-5.11,23.16-8.2,36.73-9.09-9.2-5-21.36-8.25-34.56-9.85-20.71,7.55-36.42,20.53-49.17,36.3,12.75,15.77,28.46,28.75,49.17,36.3,13.2-1.59,25.36-4.82,34.56-9.84-13.57-.89-26.7-4-36.73-9.1C133.13,582.13,124,577.43,127.39,565.4Z"/><path d="M188.16,326.84c-6.59-7.55-9.8-17.2-9.8-28.93a51,51,0,0,1,7.55-26.84q5.85-9.57,14.1-12.75c.4-.16.82-.3,1.23-.43a23.87,23.87,0,0,1,7.33-1.12q11.73,0,19.14,9.67a41.65,41.65,0,0,1,5.45,9.78A136.33,136.33,0,0,0,245,266.89c1.44-1.24,2.94-2.57,4.53-4-9.8-10.45-22.34-15.75-37.44-15.75h-.32a52.78,52.78,0,0,0-16.19,2.52,50.46,50.46,0,0,0-21.1,13.55c-.37.39-.73.8-1.08,1.2-1.1,1.22-2.12,2.46-3.09,3.73s-2,2.7-2.85,4.09a52.85,52.85,0,0,0-4.3,8.36,55.36,55.36,0,0,0-4,21,50.18,50.18,0,0,0,46.82,50.17V338A32.84,32.84,0,0,1,188.16,326.84Z"/><path d="M237.18,345c9.16-5.3,14.95-12.53,17.2-21.69q-4.35,0-8.68,3.85a62,62,0,0,1-10.13,7.56,37.83,37.83,0,0,1-9.43,3.3v11.64A51.87,51.87,0,0,0,237.18,345Z"/><path d="M297.14,405.19a30.14,30.14,0,0,0,3.25-2.85c.32-.34.65-.68,1-1a49.73,49.73,0,0,0,3.19-4.08q1.26-1.77,2.76-4,2.37-3.56,5.3-8.29l-.6-1.56-.52-1.34c-3.38-.16-6.59,1-10,3.54l-1.81,1.36-5.69,4.3-1.66,1.25c-3.05,0-8.84-5-17.36-15.11-10.28-12.21-16.07-18.8-17.52-19.93L275,345.54c6.43-5.3,9.65-11.41,9.65-18,0-8-3.7-14.3-11.25-19a42,42,0,0,0-22.34-6.11c-6.92,0-16.24,2.57-27.65,7.55q-18.07,8-26,8.68v3.7c5.78,3.69,8.67,8.19,8.67,13.82V338a41,41,0,0,0,9.59,1.09,50.31,50.31,0,0,0,10.5-1V327.54c0-4,2.42-7.71,7.08-11.25,4.34-3.38,8.67-5,12.85-5a16.74,16.74,0,0,1,12.22,5.3,16.12,16.12,0,0,1,5.3,12.06c0,6.58-4.82,13.5-14.3,21.05q-8.68,7-23.15,14v-14a57.65,57.65,0,0,1-16.28,2.25c-1.29,0-2.55-.05-3.81-.13v44.39c0,1.92-1,4.17-3.05,6.91-1.5,2-2.61,3.55-3.38,4.69-.54.81-.92,1.4-1.12,1.74h35a80.19,80.19,0,0,0-3.86-8c-.48-1-.92-1.94-1.33-2.83a51.42,51.42,0,0,1-2.34-5.76l0-.09a56.1,56.1,0,0,1-1.28-13.5c0-3.69,1-6.27,3.05-7.71,1.61-1.13,4.34-1.77,8.36-1.77,6.91,0,12.86,3.54,17.68,10.45l2.68,3.83,10.66,15.29a31,31,0,0,0,2.82,3.45c4.21,4.45,9.08,6.68,14.7,6.68a19.87,19.87,0,0,0,10.59-3C295.88,406.09,296.51,405.66,297.14,405.19Z"/></g></g></svg>