<svg xmlns="http://www.w3.org/2000/svg" viewBox="0 0 497 696"><defs><style>.cls-1{fill:none;}.cls-1,.cls-2,.cls-3,.cls-4,.cls-5{stroke:#ffebcd;}.cls-1,.cls-2,.cls-3,.cls-4,.cls-5,.cls-6,.cls-7,.cls-8{stroke-miterlimit:10;}.cls-3,.cls-7,.cls-8{fill:#fff;}.cls-4{stroke-width:2px;}.cls-5{fill:#231f20;}.cls-6{fill:#fcfbfa;}.cls-6,.cls-7{stroke:#231f20;}.cls-8{stroke:#000;stroke-width:4px;}</style></defs><g id="Layer_2" data-name="Layer 2"><g id="Layer_1-2" data-name="Layer 1"><path class="cls-1" d="M.5.5v695h496V.5ZM447.64,662.26a15,15,0,0,1-15,15H47.52a15,15,0,0,1-15-15V46.35a15,15,0,0,1,15-15H432.65a15,15,0,0,1,15,15Z"/><path class="cls-2" d="M237.71,379.46V356a102.51,102.51,0,0,1-21.18,2.09,83.15,83.15,0,0,1-19.34-2.18v27.84c2.52.17,5.07.28,7.67.28A116.31,116.31,0,0,0,237.71,379.46Z"/><path class="cls-3" d="M347.7,433.9c3.35-12-5.74-16.72-16.75-17.36a77.53,77.53,0,0,0-15.61-5.76q8.21,9.45,20.93,24.56,5,5.91,9.33,10.67C348.19,443.26,349.21,439.33,347.7,433.9Z"/><path class="cls-2" d="M277.15,334.08q8.76-7.79,17.51-7.78c-4.54,18.48-16.21,33.07-34.69,43.77a104.16,104.16,0,0,1-22.26,9.39v19.76l1.59.71c1.69-.79,3.43-1.54,5.2-2.27,1.65.22,3.28.46,4.88.72,0,1.09,0,2.3-.08,3.56l3.55-1.9.09-1c.44.08.86.18,1.29.27a208.33,208.33,0,0,0,30.17-19.71c19.13-15.24,28.85-29.18,28.85-42.47q0-14.1-10.7-24.32c-7.13-7.13-15.24-10.69-24.64-10.69-8.43,0-17.18,3.24-25.93,10-9.41,7.13-14.27,14.59-14.27,22.69V356a75.62,75.62,0,0,0,19-6.66C261.92,346.4,268.72,341.54,277.15,334.08Z"/><path class="cls-4" d="M432.65,31.35H47.52a15,15,0,0,0-15,15V662.26a15,15,0,0,0,15,15H432.65a15,15,0,0,0,15-15V46.35A15,15,0,0,0,432.65,31.35ZM373.17,77c4.83,4,10.48,6,16.15,3,3,.75,5.9,1.59,8.62,2.52A213.37,213.37,0,0,1,379.7,110.7c-11.91-9.73-22.09-21.18-29.59-35.3A179.77,179.77,0,0,1,373.17,77Zm0,75c4.83,4,10.48,6,16.15,3.05,3,.75,5.9,1.59,8.62,2.52A213.37,213.37,0,0,1,379.7,185.7c-11.91-9.73-22.08-21.17-29.59-35.29h0c7.51-14.12,17.68-25.57,29.59-35.29a212.72,212.72,0,0,1,18.24,28.16c-2.72.93-5.61,1.77-8.62,2.52-5.67-3-11.32-1-16.15,3.05a180.6,180.6,0,0,1-22.88,1.56A182.46,182.46,0,0,1,373.17,152Zm16.15,144.82c-5.67-3-11.32-1-16.15,3a183.45,183.45,0,0,1-23.06,1.57c7.5-14.13,17.68-25.58,29.59-35.3a212.72,212.72,0,0,1,18.24,28.16C395.22,295.2,392.33,296,389.32,296.79Zm8.62,106.75A213.37,213.37,0,0,1,379.7,431.7c-11.91-9.73-22.09-21.18-29.59-35.3A179.77,179.77,0,0,1,373.17,398c4.83,4,10.48,6,16.15,3C392.33,401.77,395.22,402.61,397.94,403.54ZM350.11,226.4A179.77,179.77,0,0,1,373.17,228c4.83,4,10.48,6,16.15,3.05,3,.75,5.9,1.59,8.62,2.52A213.37,213.37,0,0,1,379.7,261.7C367.79,252,357.61,240.52,350.11,226.4Zm-30.47-21.74,0,.05c-5.45,1.63-10.48,3.68-17.1,4.14-.36-.89-.75-2.25-1.19-3.7a42.7,42.7,0,0,0,4.81-4.5A46.23,46.23,0,0,0,319.64,204.66Zm0-33.51a46.23,46.23,0,0,0-13.46,4,43.72,43.72,0,0,0-4.81-4.51c.44-1.45.83-2.8,1.19-3.7,6.62.47,11.65,2.51,17.1,4.15A.17.17,0,0,1,319.64,171.15Zm11.3,34.11c11-.63,20.11-5.33,16.76-17.36,3.35-12-5.74-16.72-16.75-17.36-10-5.11-23.17-8.2-36.74-9.09,9.2-5,21.37-8.25,34.56-9.85,20.72,7.55,36.42,20.53,49.18,36.3-12.76,15.77-28.46,28.75-49.18,36.3-13.19-1.59-25.36-4.82-34.56-9.84C307.78,213.47,320.91,210.38,330.94,205.26Zm58.38,15.53c-5.67-3-11.32-1-16.15,3.05a183.45,183.45,0,0,1-23.06,1.57c7.5-14.13,17.68-25.58,29.59-35.3a212.72,212.72,0,0,1,18.24,28.16C395.22,219.2,392.33,220,389.32,220.79ZM328.77,76.6c20.72,7.55,36.42,20.53,49.18,36.3-12.76,15.77-28.46,28.75-49.18,36.3-13.19-1.59-25.36-4.82-34.56-9.84,13.57-.89,26.7-4,36.73-9.1,11-.63,20.11-5.33,16.76-17.36,3.35-12-5.74-16.72-16.75-17.36-10-5.11-23.17-8.2-36.74-9.09C303.41,81.43,315.58,78.2,328.77,76.6Zm-9.13,53.06,0,.05c-5.45,1.63-10.48,3.68-17.1,4.14-.36-.89-.75-2.25-1.19-3.7a42.7,42.7,0,0,0,4.81-4.5A46.23,46.23,0,0,0,319.64,129.66Zm0-33.51a46.23,46.23,0,0,0-13.46,4,43.72,43.72,0,0,0-4.81-4.51c.44-1.45.83-2.8,1.19-3.7,6.62.47,11.65,2.51,17.1,4.15A.17.17,0,0,1,319.64,96.15Zm-20.19,4.61c.14-.26.27-.54.4-.83a73.25,73.25,0,0,1,11.25,13,73.31,73.31,0,0,1-11.25,13c-.13-.29-.26-.58-.4-.84a46.91,46.91,0,0,0-10.11-12.14A46.58,46.58,0,0,0,299.45,100.76Zm0,75c.14-.26.27-.54.4-.83a73.25,73.25,0,0,1,11.25,13,73.31,73.31,0,0,1-11.25,13c-.13-.29-.26-.58-.4-.84a46.91,46.91,0,0,0-10.11-12.14A46.58,46.58,0,0,0,299.45,175.76Zm0,76c.14-.26.27-.54.4-.83a73.25,73.25,0,0,1,11.25,13,73.31,73.31,0,0,1-11.25,13c-.13-.29-.26-.58-.4-.84a46.91,46.91,0,0,0-10.11-12.14A46.58,46.58,0,0,0,299.45,251.76Zm20.19-4.61a46.23,46.23,0,0,0-13.46,4,43.72,43.72,0,0,0-4.81-4.51c.44-1.45.83-2.8,1.19-3.7,6.62.47,11.65,2.51,17.1,4.15A.17.17,0,0,1,319.64,247.15Zm0,33.56c-5.45,1.63-10.48,3.68-17.1,4.14-.36-.89-.75-2.25-1.19-3.7a42.7,42.7,0,0,0,4.81-4.5,46.23,46.23,0,0,0,13.46,4ZM274,141.73c0-.88,0-1.77.07-2.69,1.73.17,3.48.3,5.24.4Q276.7,140.66,274,141.73Zm5.31,19.63c-1.76.1-3.51.23-5.24.41,0-.92-.06-1.82-.07-2.7Q276.7,160.15,279.29,161.36Zm0-75c-1.76.1-3.51.23-5.24.41,0-.92-.06-1.82-.07-2.7Q276.7,85.15,279.29,86.36Zm3.11,26.54a37.43,37.43,0,0,1-13.54,7.56c-1.93-2.54-3.89-5-5.77-7.56,1.88-2.54,3.84-5,5.77-7.56A37.43,37.43,0,0,1,282.4,112.9ZM252.94,78a118.28,118.28,0,0,1,18,4.88c0,7.54,1.5,14.83,5,20.6a69.2,69.2,0,0,0-21.79-7.72,40.9,40.9,0,0,1-1.33-7.46A52,52,0,0,1,252.94,78Zm-.15,59.46h0a40.94,40.94,0,0,1,1.33-7.45,69.7,69.7,0,0,0,21.79-7.72c-3.5,5.76-5,13.05-5,20.59a119.46,119.46,0,0,1-18,4.89A52.08,52.08,0,0,1,252.79,137.48Zm.15,15.54a118.28,118.28,0,0,1,18,4.88c0,7.54,1.5,14.83,5,20.6a69.2,69.2,0,0,0-21.79-7.72,40.9,40.9,0,0,1-1.33-7.46A52,52,0,0,1,252.94,153ZM229.21,77.38q2.41-.39,4.89-.72c1.76.73,3.5,1.48,5.2,2.27,1.69-.79,3.43-1.54,5.2-2.27,1.65.22,3.28.46,4.88.72.1,4.67-.94,11.35.3,15.61a46.75,46.75,0,0,0-4.94,2.06,44.92,44.92,0,0,0-5.44.38,45.09,45.09,0,0,0-5.45-.38A45.89,45.89,0,0,0,228.91,93C230.15,88.73,229.12,82.05,229.21,77.38Zm4.64,53.38a47.22,47.22,0,0,0,5.45-.38,47,47,0,0,0,5.44.38,49,49,0,0,0,4.94,2.06c-1.24,4.26-.2,10.94-.3,15.6-1.6.27-3.23.51-4.88.72q-2.66-1.08-5.2-2.27-2.55,1.19-5.21,2.27c-1.64-.21-3.27-.45-4.88-.72-.09-4.66.94-11.34-.3-15.6A48,48,0,0,0,233.85,130.76Zm-4.64,21.62q2.41-.39,4.89-.72c1.76.73,3.5,1.48,5.2,2.27,1.69-.79,3.43-1.54,5.2-2.27,1.65.22,3.28.46,4.88.72.1,4.67-.94,11.35.3,15.61a46.75,46.75,0,0,0-4.94,2.06,44.92,44.92,0,0,0-5.44.38,45.09,45.09,0,0,0-5.45-.38,45.89,45.89,0,0,0-4.94-2.06C230.15,163.73,229.12,157.05,229.21,152.38Zm-29.9-12.94c1.75-.1,3.5-.23,5.23-.4,0,.92.06,1.81.07,2.69Q201.9,140.65,199.31,139.44Zm5.3,19.63c0,.88,0,1.78-.07,2.7-1.73-.18-3.48-.31-5.23-.41Q201.89,160.15,204.61,159.07Zm-1.93-36.76A69.7,69.7,0,0,0,224.47,130a40.94,40.94,0,0,1,1.33,7.45h0a51.33,51.33,0,0,1-.15,10.31,119.46,119.46,0,0,1-18-4.89C207.71,135.36,206.18,128.07,202.68,122.31Zm23-44.29a51.22,51.22,0,0,1,.15,10.3,40.9,40.9,0,0,1-1.33,7.46,69.45,69.45,0,0,0-21.79,7.72c3.5-5.77,5-13.06,5-20.6A118.28,118.28,0,0,1,225.65,78Zm-21,6c0,.88,0,1.78-.07,2.7-1.73-.18-3.48-.31-5.23-.41Q201.89,85.15,204.61,84.07Zm5.12,21.27c1.93,2.55,3.89,5,5.77,7.56-1.88,2.54-3.84,5-5.77,7.56a37.43,37.43,0,0,1-13.54-7.56A37.43,37.43,0,0,1,209.73,105.34Zm-20.48,7.56A46.65,46.65,0,0,0,179.15,125c-.14.26-.28.55-.41.84a72.85,72.85,0,0,1-11.24-13,72.79,72.79,0,0,1,11.24-13c.13.29.27.57.41.83A46.33,46.33,0,0,0,189.25,112.9ZM159,129.66a46.13,46.13,0,0,0,13.46-4,42.7,42.7,0,0,0,4.81,4.5c-.44,1.45-.83,2.81-1.19,3.7-6.62-.46-11.65-2.51-17.1-4.14Zm0-33.56c5.45-1.64,10.48-3.68,17.1-4.15.36.9.75,2.25,1.19,3.7a43.72,43.72,0,0,0-4.81,4.51,46.13,46.13,0,0,0-13.46-4A.17.17,0,0,1,158.93,96.1Zm25.45-9.65c-13.57.89-26.7,4-36.73,9.09-11,.64-20.11,5.33-16.76,17.36-3.35,12,5.74,16.73,16.76,17.36,10,5.12,23.16,8.21,36.73,9.1-9.2,5-21.36,8.25-34.56,9.84-20.71-7.55-36.42-20.53-49.17-36.3,12.75-15.77,28.46-28.75,49.17-36.3C163,78.2,175.18,81.43,184.38,86.45Zm-55.9,64h0C121,164.53,110.8,176,98.9,185.7a213.44,213.44,0,0,1-18.25-28.16c2.73-.93,5.61-1.77,8.62-2.52,5.67,3,11.32,1,16.15-3.05a182.46,182.46,0,0,1,22.88-1.57,180.6,180.6,0,0,1-22.88-1.56c-4.83-4-10.48-6-16.15-3.05-3-.75-5.89-1.59-8.62-2.52A212.78,212.78,0,0,1,98.9,115.11c11.9,9.72,22.08,21.17,29.58,35.29h0ZM89.27,80c5.67,3,11.32,1,16.15-3a179.89,179.89,0,0,1,23.06-1.57C121,89.52,110.8,101,98.9,110.7A213.44,213.44,0,0,1,80.65,82.54C83.38,81.61,86.26,80.77,89.27,80ZM68.21,95A201.48,201.48,0,0,1,96.13,112.9a201.54,201.54,0,0,1-27.92,17.93,144.19,144.19,0,0,1-4.62-17.93A144.49,144.49,0,0,1,68.21,95Zm0,75A201.48,201.48,0,0,1,96.13,187.9a201.54,201.54,0,0,1-27.92,17.93,144.19,144.19,0,0,1-4.62-17.93A144.49,144.49,0,0,1,68.21,170Zm0,76A201.48,201.48,0,0,1,96.13,263.9a201.54,201.54,0,0,1-27.92,17.93,144.19,144.19,0,0,1-4.62-17.93A144.49,144.49,0,0,1,68.21,246ZM159,450.66a46.13,46.13,0,0,0,13.46-4,42.7,42.7,0,0,0,4.81,4.5c-.44,1.45-.83,2.81-1.19,3.7-6.62-.46-11.65-2.51-17.1-4.14Zm0-33.56c5.45-1.64,10.48-3.68,17.1-4.15.36.9.75,2.25,1.19,3.7a43.72,43.72,0,0,0-4.81,4.51,46.13,46.13,0,0,0-13.46-4Zm8.57,16.8a72.79,72.79,0,0,1,11.24-13c.13.29.27.57.41.83a46.33,46.33,0,0,0,10.1,12.14A46.65,46.65,0,0,0,179.15,446c-.14.26-.28.55-.41.84A72.85,72.85,0,0,1,167.5,433.9Zm-19.85-17.36c-11,.64-20.11,5.33-16.76,17.36-3.35,12,5.74,16.73,16.76,17.36,10,5.12,23.16,8.21,36.73,9.1-9.2,5-21.36,8.25-34.56,9.84-20.71-7.55-36.42-20.53-49.17-36.3,12.75-15.77,28.46-28.75,49.17-36.3,13.2,1.6,25.36,4.83,34.56,9.85C170.81,408.34,157.68,411.43,147.65,416.54Zm11.28,74.56c5.45-1.64,10.48-3.68,17.1-4.15.36.9.75,2.25,1.19,3.7a43.72,43.72,0,0,0-4.81,4.51,46.13,46.13,0,0,0-13.46-4Zm13.48,29.55a42.7,42.7,0,0,0,4.81,4.5c-.44,1.45-.83,2.81-1.19,3.7-6.62-.46-11.65-2.51-17.1-4.14l0-.05A46.13,46.13,0,0,0,172.41,520.65Zm-24.76-30.11c-11,.64-20.11,5.33-16.76,17.36-3.35,12,5.74,16.73,16.76,17.36,10,5.12,23.16,8.21,36.73,9.1-9.2,5-21.36,8.25-34.56,9.84-20.71-7.55-36.42-20.53-49.17-36.3,12.75-15.77,28.46-28.75,49.17-36.3,13.2,1.6,25.36,4.83,34.56,9.85C170.81,482.34,157.68,485.43,147.65,490.54Zm-19.17,54.87h-.54c-7.45,13.66-17.42,24.8-29,34.3a213.44,213.44,0,0,1-18.25-28.16c2.73-.93,5.61-1.77,8.62-2.52,5.67,3,11.32,1,16.15-3,3.42-.46,6.92-.81,10.45-1.07-3.53-.26-7-.61-10.45-1.06-4.83-4-10.48-6-16.15-3.05-3-.75-5.89-1.59-8.62-2.52A212.78,212.78,0,0,1,98.9,510.11a115.65,115.65,0,0,1,29,34.3h.54l-.27.5Zm-23.06-75.57c-4.83-4-10.48-6-16.15-3-3-.75-5.89-1.59-8.62-2.52A212.78,212.78,0,0,1,98.9,436.11a115.65,115.65,0,0,1,29,34.3h.54l-.27.5.27.51h-.54c-7.45,13.66-17.42,24.8-29,34.3a213.44,213.44,0,0,1-18.25-28.16c2.73-.93,5.61-1.77,8.62-2.52,5.67,3,11.32,1,16.15-3,3.42-.46,6.92-.81,10.45-1.07C112.34,470.64,108.84,470.29,105.42,469.84ZM98.9,431.7a213.44,213.44,0,0,1-18.25-28.16c2.73-.93,5.61-1.77,8.62-2.52,5.67,3,11.32,1,16.15-3a179.89,179.89,0,0,1,23.06-1.57C121,410.52,110.8,422,98.9,431.7ZM68.21,416A201.48,201.48,0,0,1,96.13,433.9a201.54,201.54,0,0,1-27.92,17.93,144.19,144.19,0,0,1-4.62-17.93A144.49,144.49,0,0,1,68.21,416Zm0,74A201.48,201.48,0,0,1,96.13,507.9a201.54,201.54,0,0,1-27.92,17.93,144.19,144.19,0,0,1-4.62-17.93A144.49,144.49,0,0,1,68.21,490ZM63.59,581.9A144.49,144.49,0,0,1,68.21,564,201.48,201.48,0,0,1,96.13,581.9a201.54,201.54,0,0,1-27.92,17.93A144.19,144.19,0,0,1,63.59,581.9Zm41.83,35.94c-4.83-4-10.48-6-16.15-3.05-3-.75-5.89-1.59-8.62-2.52A212.78,212.78,0,0,1,98.9,584.11c11.9,9.72,22.08,21.17,29.58,35.3A183.58,183.58,0,0,1,105.42,617.84Zm44.4.36c-20.71-7.55-36.42-20.53-49.17-36.3,12.75-15.77,28.46-28.75,49.17-36.3,13.2,1.6,25.36,4.83,34.56,9.85-13.57.89-26.7,4-36.73,9.09-11,.64-20.11,5.33-16.76,17.36-3.35,12,5.74,16.73,16.76,17.36,10,5.12,23.16,8.21,36.73,9.1C175.18,613.38,163,616.61,149.82,618.2Zm9.11-53.1c5.45-1.64,10.48-3.68,17.1-4.15.36.9.75,2.25,1.19,3.7a43.72,43.72,0,0,0-4.81,4.51,46.13,46.13,0,0,0-13.46-4Zm13.48,29.55a42.7,42.7,0,0,0,4.81,4.5c-.44,1.45-.83,2.81-1.19,3.7-6.62-.46-11.65-2.51-17.1-4.14l0-.05A46.13,46.13,0,0,0,172.41,594.65Zm6.74-.61c-.14.26-.28.55-.41.84a72.85,72.85,0,0,1-11.24-13,72.79,72.79,0,0,1,11.24-13c.13.29.27.57.41.83a46.33,46.33,0,0,0,10.1,12.14A46.65,46.65,0,0,0,179.15,594Zm28.53-42.14a118.28,118.28,0,0,1,18-4.88,51.22,51.22,0,0,1,.15,10.3,40.9,40.9,0,0,1-1.33,7.46,69.45,69.45,0,0,0-21.79,7.72C206.18,566.73,207.71,559.44,207.68,551.9Zm-8.37,3.46q2.58-1.22,5.3-2.29c0,.88,0,1.78-.07,2.7C202.81,555.59,201.06,555.46,199.31,555.36Zm0-20.92c1.75-.1,3.5-.23,5.23-.4,0,.92.06,1.81.07,2.69Q201.9,535.65,199.31,534.44Zm-3.12-26.54a37.43,37.43,0,0,1,13.54-7.56c1.93,2.55,3.89,5,5.77,7.56-1.88,2.54-3.84,5-5.77,7.56A37.43,37.43,0,0,1,196.19,507.9Zm13.54,66.44c1.93,2.55,3.89,5,5.77,7.56-1.88,2.54-3.84,5-5.77,7.56a37.43,37.43,0,0,1-13.54-7.56A37.43,37.43,0,0,1,209.73,574.34Zm-10.42,34.1c1.75-.1,3.5-.23,5.23-.4,0,.92.06,1.81.07,2.69Q201.9,609.65,199.31,608.44Zm26.34,8.35a119.46,119.46,0,0,1-18-4.89c0-7.54-1.5-14.83-5-20.59A69.7,69.7,0,0,0,224.47,599a40.94,40.94,0,0,1,1.33,7.45h0A51.33,51.33,0,0,1,225.65,616.79Zm0-74a119.46,119.46,0,0,1-18-4.89c0-7.54-1.5-14.83-5-20.59A69.7,69.7,0,0,0,224.47,525a40.94,40.94,0,0,1,1.33,7.45h0A51.33,51.33,0,0,1,225.65,542.79Zm23.73,74.63c-1.6.27-3.23.51-4.88.72q-2.66-1.08-5.2-2.27-2.55,1.18-5.21,2.27c-1.64-.21-3.27-.45-4.88-.72-.09-4.66.94-11.34-.3-15.6a48,48,0,0,0,4.94-2.06,47.22,47.22,0,0,0,5.45-.38,47,47,0,0,0,5.44.38,49,49,0,0,0,4.94,2.06C248.44,606.08,249.48,612.76,249.38,617.42Zm-4.64-53.37a44.92,44.92,0,0,0-5.44.38,45.09,45.09,0,0,0-5.45-.38,45.89,45.89,0,0,0-4.94-2.06c1.24-4.26.21-10.94.3-15.61q2.41-.39,4.89-.72c1.76.73,3.5,1.48,5.2,2.27,1.69-.79,3.43-1.54,5.2-2.27,1.65.22,3.28.46,4.88.72.1,4.67-.94,11.35.3,15.61A46.75,46.75,0,0,0,244.74,564.05Zm4.64-20.63c-1.6.27-3.23.51-4.88.72q-2.66-1.08-5.2-2.27-2.55,1.18-5.21,2.27c-1.64-.21-3.27-.45-4.88-.72-.09-4.66.94-11.34-.3-15.6a48,48,0,0,0,4.94-2.06,47.22,47.22,0,0,0,5.45-.38,47,47,0,0,0,5.44.38,49,49,0,0,0,4.94,2.06C248.44,532.08,249.48,538.76,249.38,543.42Zm3.56,73.37a52.08,52.08,0,0,1-.15-10.31h0a40.94,40.94,0,0,1,1.33-7.45,69.7,69.7,0,0,0,21.79-7.72c-3.5,5.76-5,13.05-5,20.59A119.46,119.46,0,0,1,252.94,616.79ZM254.12,451a69.7,69.7,0,0,0,21.79-7.72c-3.5,5.76-5,13.05-5,20.59a119.46,119.46,0,0,1-18,4.89,52.08,52.08,0,0,1-.15-10.31h0A40.94,40.94,0,0,1,254.12,451ZM274,462.73c0-.88,0-1.77.07-2.69,1.73.17,3.48.3,5.24.4Q276.7,461.66,274,462.73Zm5.31,18.63c-1.76.1-3.51.23-5.24.41,0-.92-.06-1.82-.07-2.7Q276.7,480.15,279.29,481.36ZM252.94,473a118.28,118.28,0,0,1,18,4.88c0,7.54,1.5,14.83,5,20.6a69.2,69.2,0,0,0-21.79-7.72,40.9,40.9,0,0,1-1.33-7.46A52,52,0,0,1,252.94,473Zm1.18,52a69.7,69.7,0,0,0,21.79-7.72c-3.5,5.76-5,13.05-5,20.59a119.46,119.46,0,0,1-18,4.89,52.08,52.08,0,0,1-.15-10.31h0A40.94,40.94,0,0,1,254.12,525ZM274,536.73c0-.88,0-1.77.07-2.69,1.73.17,3.48.3,5.24.4Q276.7,535.66,274,536.73Zm5.31,18.63c-1.76.1-3.51.23-5.24.41,0-.92-.06-1.82-.07-2.7Q276.7,554.15,279.29,555.36ZM252.94,547a118.28,118.28,0,0,1,18,4.88c0,7.54,1.5,14.83,5,20.6a69.2,69.2,0,0,0-21.79-7.72,40.9,40.9,0,0,1-1.33-7.46A52,52,0,0,1,252.94,547Zm21,63.71c0-.88,0-1.77.07-2.69,1.73.17,3.48.3,5.24.4Q276.7,609.66,274,610.73Zm-5.12-21.27c-1.93-2.54-3.89-5-5.77-7.56,1.88-2.54,3.84-5,5.77-7.56a37.43,37.43,0,0,1,13.54,7.56A37.43,37.43,0,0,1,268.86,589.46Zm0-74c-1.93-2.54-3.89-5-5.77-7.56,1.88-2.54,3.84-5,5.77-7.56a37.43,37.43,0,0,1,13.54,7.56A37.43,37.43,0,0,1,268.86,515.46Zm0-74c-1.93-2.54-3.89-5-5.77-7.56,1.88-2.54,3.84-5,5.77-7.56a37.43,37.43,0,0,1,13.54,7.56A37.43,37.43,0,0,1,268.86,441.46ZM289.34,581.9a46.58,46.58,0,0,0,10.11-12.14c.14-.26.27-.54.4-.83a73.25,73.25,0,0,1,11.25,13,73.31,73.31,0,0,1-11.25,13c-.13-.29-.26-.58-.4-.84A46.91,46.91,0,0,0,289.34,581.9Zm30.3-90.75a46.23,46.23,0,0,0-13.46,4,43.72,43.72,0,0,0-4.81-4.51c.44-1.45.83-2.8,1.19-3.7,6.62.47,11.65,2.51,17.1,4.15Zm0,33.56c-5.45,1.63-10.48,3.68-17.1,4.14-.36-.89-.75-2.25-1.19-3.7a42.7,42.7,0,0,0,4.81-4.5,46.23,46.23,0,0,0,13.46,4ZM311.1,507.9a73.31,73.31,0,0,1-11.25,13c-.13-.29-.26-.58-.4-.84a46.91,46.91,0,0,0-10.11-12.14,46.58,46.58,0,0,0,10.11-12.14c.14-.26.27-.54.4-.83A73.25,73.25,0,0,1,311.1,507.9Zm8.54,57.25a46.23,46.23,0,0,0-13.46,4,43.72,43.72,0,0,0-4.81-4.51c.44-1.45.83-2.8,1.19-3.7,6.62.47,11.65,2.51,17.1,4.15Zm0,33.56c-5.45,1.63-10.48,3.68-17.1,4.14-.36-.89-.75-2.25-1.19-3.7a42.7,42.7,0,0,0,4.81-4.5,46.23,46.23,0,0,0,13.46,4Zm-25.45,9.65c13.57-.89,26.7-4,36.73-9.1,11-.63,20.11-5.33,16.76-17.36,3.35-12-5.74-16.72-16.75-17.36-10-5.11-23.17-8.2-36.74-9.09,9.2-5,21.37-8.25,34.56-9.85,20.72,7.55,36.42,20.53,49.18,36.3-12.76,15.77-28.46,28.75-49.18,36.3C315.58,616.61,303.41,613.38,294.21,608.36Zm79-62.39c4.83,4,10.48,6,16.15,3,3,.75,5.9,1.59,8.62,2.52A213.37,213.37,0,0,1,379.7,579.7c-11.62-9.5-21.59-20.64-29-34.3h-.55l.27-.51-.27-.5h.55a115.65,115.65,0,0,1,29-34.3,212.72,212.72,0,0,1,18.24,28.16c-2.72.93-5.61,1.77-8.62,2.52-5.67-3-11.32-1-16.15,3.05-3.42.45-6.92.8-10.45,1.06C366.25,545.16,369.75,545.51,373.17,546Zm16.15,68.82c-5.67-3-11.32-1-16.15,3.05a183.45,183.45,0,0,1-23.06,1.57c7.5-14.13,17.68-25.58,29.59-35.3a212.72,212.72,0,0,1,18.24,28.16C395.22,613.2,392.33,614,389.32,614.79Zm21.06-15a201.54,201.54,0,0,1-27.92-17.93A201.48,201.48,0,0,1,410.38,564,146.32,146.32,0,0,1,415,581.9,146,146,0,0,1,410.38,599.83Zm0-74a201.54,201.54,0,0,1-27.92-17.93A201.48,201.48,0,0,1,410.38,490,146.32,146.32,0,0,1,415,507.9,146,146,0,0,1,410.38,525.83Zm1-77.2.76,1.95c-6.88,11.11-12.55,19.78-17.11,26,1,.3,2,.61,2.92.94A213.37,213.37,0,0,1,379.7,505.7q-4.83-3.94-9.25-8.29l-1.38.53q4.67,4.76,8.88,10c-12.76,15.77-28.46,28.75-49.18,36.3-13.19-1.59-25.36-4.82-34.56-9.84,13.57-.89,26.7-4,36.73-9.1,11-.63,20.11-5.33,16.76-17.36a14.1,14.1,0,0,0,.1-8.51,39.52,39.52,0,0,1-18.71-9.75c-9.77-4.58-22.13-7.36-34.88-8.19a83.66,83.66,0,0,1,22-7.74L311.45,467a78.25,78.25,0,0,1-17.24-6.6c4-.26,7.88-.72,11.7-1.35l-2.93-4.2-.42,0c-.15-.36-.3-.81-.46-1.3l-8.62-12.37c-9.73-13.94-21.73-21.07-35.67-21.07-8.1,0-13.61,1.29-16.86,3.56-4.21,2.92-6.16,8.11-6.16,15.57,0,4.58.15,8.73.41,12.46,1.37-.05,2.74-.14,4.1-.32a47,47,0,0,0,5.44.38,49,49,0,0,0,4.94,2.06c-1.24,4.26-.2,10.94-.3,15.6-1.6.27-3.23.51-4.88.72q-2.66-1.08-5.2-2.27l-1.25.56q.82,2.31,2,5.15,2.16-1,4.41-1.92c1.65.22,3.28.46,4.88.72.1,4.67-.94,11.35.3,15.61-.72.25-1.5.54-2.31.88a110.76,110.76,0,0,1,5.25,11.31H182a53.67,53.67,0,0,0,7.23,7.72A46.65,46.65,0,0,0,179.15,520c-.14.26-.28.55-.41.84a72.85,72.85,0,0,1-11.24-13,72.79,72.79,0,0,1,11.24-13c.13.29.27.57.41.83a35.08,35.08,0,0,0,2.83,4.37c1-1.66,3.91-6.17,9.05-12.91,4.21-5.52,6.16-10.05,6.16-13.94V434.7l-1-.8,1-.79V383.73c-24.91-1.63-46.38-11.27-64.63-29.23-15.89-15.89-25.5-34.5-28.66-55.84-4.48-3.2-9.55-4.53-14.63-1.87-3-.75-5.89-1.59-8.62-2.52A212.78,212.78,0,0,1,98.9,266.11q2.28,1.86,4.47,3.81c.08-.82.17-1.63.27-2.44q-1.52-1.77-3-3.58,2.14-2.65,4.43-5.21c.2-1,.41-2,.64-2.95q-3.3,3.08-6.82,6a213.44,213.44,0,0,1-18.25-28.16c2.73-.93,5.61-1.77,8.62-2.52,5.67,3,11.32,1,16.15-3.05,3.85-.52,7.8-.9,11.78-1.17.34-.58.69-1.16,1-1.74-4.34-.27-8.63-.66-12.82-1.22-4.83-4-10.48-6-16.15-3.05-3-.75-5.89-1.59-8.62-2.52A212.78,212.78,0,0,1,98.9,190.11a119.07,119.07,0,0,1,24.65,27q1.67-2.3,3.47-4.53a122.08,122.08,0,0,1-26.37-24.64c12.75-15.77,28.46-28.75,49.17-36.3,13.2,1.6,25.36,4.83,34.56,9.85-13.57.89-26.7,4-36.73,9.09-11,.64-20.11,5.33-16.76,17.36-2,7.28.5,11.87,5.25,14.5a101,101,0,0,1,39.65-24.61c1-1,1.94-1.94,3-2.86.13.29.27.57.41.83s.32.57.49.85a107,107,0,0,1,25.72-3.91,44.24,44.24,0,0,0,2.32-14.8,118.28,118.28,0,0,1,18-4.88,51.22,51.22,0,0,1,.15,10.3,40.9,40.9,0,0,1-1.33,7.46,63.59,63.59,0,0,0-8.47,2q26.72,1.41,47.74,14.25c1.68-2.24,3.41-4.45,5.12-6.71a37.43,37.43,0,0,1,13.54,7.56,42.22,42.22,0,0,1-9,5.86,103.78,103.78,0,0,1,11.56,10.64c-5,4.58-9.7,8.64-14,12.23,0,.42,0,.84,0,1.27-.83.3-1.69.58-2.54.86-5.18,4.27-9.76,7.78-13.74,10.62a116,116,0,0,1,16.28,4.52c0,7.54,1.5,14.83,5,20.6a69.2,69.2,0,0,0-21.79-7.72,40.9,40.9,0,0,1-1.33-7.46,51,51,0,0,1,0-8.65c-.32.21-.63.43-.93.64-1.11-2.73-2.29-5.3-3.52-7.73-1.28.2-2.55.39-3.85.56q-2.66-1.08-5.2-2.27-2.55,1.19-5.21,2.27c-1.64-.21-3.27-.45-4.88-.72-.09-4.66.94-11.34-.3-15.6a48,48,0,0,0,4.94-2.06c.64,0,1.27,0,1.9-.08a44.92,44.92,0,0,0-24.06-12.76c-.66.84-1.31,1.69-2,2.54a32.57,32.57,0,0,1-7.69-3.38,47,47,0,0,0-20.92,4.79,31.47,31.47,0,0,0-2,3.17c-.14.26-.28.55-.41.84-.6-.55-1.17-1.13-1.76-1.7-1.22.76-2.43,1.59-3.61,2.48a45.55,45.55,0,0,0,3.85,3.49c-.44,1.45-.83,2.81-1.19,3.7a43.51,43.51,0,0,1-9-1.63q-1.8,1.83-3.51,3.88a114.69,114.69,0,0,0,20.83,3.26c-8,4.35-18.16,7.35-29.32,9.11q-1.27,2.24-2.43,4.5c12.1,1.7,23.21,4.81,31.75,9.48-13.57.89-26.7,4-36.73,9.09-.83.05-1.64.12-2.44.22a102.78,102.78,0,0,0-3.9,28.31c0,1.8.05,3.57.13,5.32a35.47,35.47,0,0,0,6.21.87c10,5.12,23.16,8.21,36.73,9.1-9.2,5-21.36,8.25-34.56,9.84-2.14-.78-4.21-1.63-6.24-2.52a78,78,0,0,0,17.51,35.75,66.33,66.33,0,0,0,36.1,22.46v-3.54c0-11.35-5.84-20.43-17.51-27.88V317q15.9-1.45,51.9-17.24c-.79-.11-1.59-.22-2.37-.35-.09-4.66.94-11.34-.3-15.6a48,48,0,0,0,4.94-2.06,47.22,47.22,0,0,0,5.45-.38,47,47,0,0,0,5.44.38,49,49,0,0,0,4.94,2.06c-.71,2.44-.67,5.69-.53,8.89,1.17-.42,2.33-.84,3.48-1.23,0-1,.07-2,.16-3h0a40.94,40.94,0,0,1,1.33-7.45,69.7,69.7,0,0,0,21.79-7.72,35,35,0,0,0-4.43,12.88A81.41,81.41,0,0,1,288,284.27a89,89,0,0,1,24.8,3.39,80,80,0,0,0,18.18-6.4c11-.63,20.11-5.33,16.76-17.36,3.35-12-5.74-16.72-16.75-17.36-10-5.11-23.17-8.2-36.74-9.09,9.2-5,21.37-8.25,34.56-9.85,20.72,7.55,36.42,20.53,49.18,36.3-11.48,14.19-25.36,26.11-43.12,33.86,14,9.27,20.89,21.53,20.89,37.08,0,13.29-6.48,25.61-19.45,36.31l-35.34,24a74.26,74.26,0,0,1,6.63,6.82,122.72,122.72,0,0,1,21.21-4.36c20.72,7.55,36.42,20.53,49.18,36.3a124.41,124.41,0,0,1-22.64,22c1,.94,2,1.81,2.9,2.61a121.6,121.6,0,0,1,21.49-22.39c3.8,4.88,7.34,10,10.68,15.32a35.55,35.55,0,0,1,9.94-5.35,183.93,183.93,0,0,1-17.86-12.18A201.48,201.48,0,0,1,410.38,416,146.32,146.32,0,0,1,415,433.9,148,148,0,0,1,411.37,448.63Zm-234.15-278a43.72,43.72,0,0,0-4.81,4.51,46.13,46.13,0,0,0-13.46-4,.17.17,0,0,1,0-.05c5.45-1.64,10.48-3.68,17.1-4.15C176.39,167.85,176.78,169.2,177.22,170.65Zm102.07,66.71c-1.76.1-3.51.23-5.24.41,0-.92-.06-1.82-.07-2.7Q276.7,236.15,279.29,237.36ZM274,216.73c0-.88,0-1.77.07-2.69,1.73.17,3.48.3,5.24.4Q276.7,215.66,274,216.73Zm8.42,47.17a37.43,37.43,0,0,1-13.54,7.56c-1.93-2.54-3.89-5-5.77-7.56,1.88-2.54,3.84-5,5.77-7.56A37.43,37.43,0,0,1,282.4,263.9Zm-53.19-35.52q2.41-.39,4.89-.72c1.76.73,3.5,1.48,5.2,2.27,1.69-.79,3.43-1.54,5.2-2.27,1.65.22,3.28.46,4.88.72.1,4.67-.94,11.35.3,15.61a46.75,46.75,0,0,0-4.94,2.06,44.92,44.92,0,0,0-5.44.38,45.09,45.09,0,0,0-5.45-.38,45.89,45.89,0,0,0-4.94-2.06C230.15,239.73,229.12,233.05,229.21,228.38Zm-24.6,6.69c0,.88,0,1.78-.07,2.7-1.73-.18-3.48-.31-5.23-.41Q201.89,236.15,204.61,235.07Zm-5.3-20.63c1.75-.1,3.5-.23,5.23-.4,0,.92.06,1.81.07,2.69Q201.9,215.65,199.31,214.44Zm8.37,19.46a118.28,118.28,0,0,1,18-4.88,51.22,51.22,0,0,1,.15,10.3,40.9,40.9,0,0,1-1.33,7.46,69.45,69.45,0,0,0-21.79,7.72C206.18,248.73,207.71,241.44,207.68,233.9Zm2,22.44c1.93,2.55,3.89,5,5.77,7.56-1.88,2.54-3.84,5-5.77,7.56a37.43,37.43,0,0,1-13.54-7.56A37.43,37.43,0,0,1,209.73,256.34Zm-7,17A69.7,69.7,0,0,0,224.47,281a40.94,40.94,0,0,1,1.33,7.45h0a51.33,51.33,0,0,1-.15,10.31,119.46,119.46,0,0,1-18-4.89C207.71,286.36,206.18,279.07,202.68,273.31Zm1.93,19.42q-2.72-1.08-5.3-2.29c1.75-.1,3.5-.23,5.23-.4C204.58,291,204.6,291.85,204.61,292.73Zm21-69.94a119.46,119.46,0,0,1-18-4.89c0-7.54-1.5-14.83-5-20.59A69.7,69.7,0,0,0,224.47,205a40.94,40.94,0,0,1,1.33,7.45h0A51.33,51.33,0,0,1,225.65,222.79ZM159,280.66a46.13,46.13,0,0,0,13.46-4,42.7,42.7,0,0,0,4.81,4.5c-.44,1.45-.83,2.81-1.19,3.7-6.62-.46-11.65-2.51-17.1-4.14Zm0-33.56c5.45-1.64,10.48-3.68,17.1-4.15.36.9.75,2.25,1.19,3.7a43.72,43.72,0,0,0-4.81,4.51,46.13,46.13,0,0,0-13.46-4A.17.17,0,0,1,158.93,247.1Zm8.57,16.8a72.79,72.79,0,0,1,11.24-13c.13.29.27.57.41.83a46.33,46.33,0,0,0,10.1,12.14A46.65,46.65,0,0,0,179.15,276c-.14.26-.28.55-.41.84A72.85,72.85,0,0,1,167.5,263.9Zm242.88,17.93a201.54,201.54,0,0,1-27.92-17.93A201.48,201.48,0,0,1,410.38,246,146.32,146.32,0,0,1,415,263.9,146,146,0,0,1,410.38,281.83Zm0-76a201.54,201.54,0,0,1-27.92-17.93A201.48,201.48,0,0,1,410.38,170,146.32,146.32,0,0,1,415,187.9,146,146,0,0,1,410.38,205.83Zm0-75a201.54,201.54,0,0,1-27.92-17.93A201.48,201.48,0,0,1,410.38,95,146.32,146.32,0,0,1,415,112.9,146,146,0,0,1,410.38,130.83Z"/><path class="cls-5" d="M96.13,187.9A201.48,201.48,0,0,0,68.21,170a144.49,144.49,0,0,0-4.62,17.92,144.19,144.19,0,0,0,4.62,17.93A201.54,201.54,0,0,0,96.13,187.9Z"/><path class="cls-5" d="M282.4,187.9a37.43,37.43,0,0,0-13.54-7.56c-1.71,2.26-3.44,4.47-5.12,6.71a97.71,97.71,0,0,1,9.63,6.71A42.22,42.22,0,0,0,282.4,187.9Z"/><path class="cls-5" d="M382.46,187.9a201.54,201.54,0,0,0,27.92,17.93A146,146,0,0,0,415,187.9,146.32,146.32,0,0,0,410.38,170,201.48,201.48,0,0,0,382.46,187.9Z"/><path class="cls-5" d="M379.7,190.11c-11.91,9.72-22.09,21.17-29.59,35.3a183.45,183.45,0,0,0,23.06-1.57c4.83-4,10.48-6,16.15-3.05,3-.75,5.9-1.59,8.62-2.52A212.72,212.72,0,0,0,379.7,190.11Z"/><path class="cls-5" d="M98.9,190.11a212.78,212.78,0,0,0-18.25,28.16c2.73.93,5.61,1.77,8.62,2.52,5.67-3,11.32-1,16.15,3.05,4.19.56,8.48.95,12.82,1.22q2.46-4.08,5.31-8A119.07,119.07,0,0,0,98.9,190.11Z"/><path class="cls-5" d="M274.05,214c0,.92-.06,1.81-.07,2.69q2.72-1.08,5.31-2.29C277.53,214.34,275.78,214.21,274.05,214Z"/><path class="cls-5" d="M204.54,161.77c0-.92.06-1.82.07-2.7q-2.72,1.08-5.3,2.29C201.06,161.46,202.81,161.59,204.54,161.77Z"/><path class="cls-5" d="M239.3,170.43a44.92,44.92,0,0,1,5.44-.38,46.75,46.75,0,0,1,4.94-2.06c-1.24-4.26-.2-10.94-.3-15.61-1.6-.26-3.23-.5-4.88-.72-1.77.73-3.51,1.48-5.2,2.27-1.7-.79-3.44-1.54-5.2-2.27q-2.47.33-4.89.72c-.09,4.67.94,11.35-.3,15.61a45.89,45.89,0,0,1,4.94,2.06A45.09,45.09,0,0,1,239.3,170.43Z"/><path class="cls-5" d="M254.12,170.78a69.2,69.2,0,0,1,21.79,7.72c-3.5-5.77-5-13.06-5-20.6a118.28,118.28,0,0,0-18-4.88,52,52,0,0,0-.15,10.3A40.9,40.9,0,0,0,254.12,170.78Z"/><path class="cls-5" d="M178.74,200.88c.13-.29.27-.58.41-.84a31.47,31.47,0,0,1,2-3.17,44.37,44.37,0,0,0-4.14,2.31C177.57,199.75,178.14,200.33,178.74,200.88Z"/><path class="cls-5" d="M179.15,175.76c-.14-.26-.28-.54-.41-.83-1,.92-2,1.88-3,2.86,1.27-.42,2.55-.81,3.85-1.18C179.47,176.33,179.3,176,179.15,175.76Z"/><path class="cls-5" d="M167.06,207.22a43.51,43.51,0,0,0,9,1.63c.36-.89.75-2.25,1.19-3.7a45.55,45.55,0,0,1-3.85-3.49A57.1,57.1,0,0,0,167.06,207.22Z"/><path class="cls-5" d="M216,172.8a63.59,63.59,0,0,1,8.47-2,40.9,40.9,0,0,0,1.33-7.46,51.22,51.22,0,0,0-.15-10.3,118.28,118.28,0,0,0-18,4.88,44.24,44.24,0,0,1-2.32,14.8c1.34,0,2.68-.07,4-.07Q212.74,172.63,216,172.8Z"/><path class="cls-5" d="M270.91,217.9c0-.43,0-.85,0-1.27l-2.57,2.13C269.22,218.48,270.08,218.2,270.91,217.9Z"/><path class="cls-5" d="M301.37,205.15c.44,1.45.83,2.81,1.19,3.7,6.62-.46,11.65-2.51,17.1-4.14l0-.05a46.23,46.23,0,0,1-13.46-4A42.7,42.7,0,0,1,301.37,205.15Z"/><path class="cls-5" d="M274.05,161.77c1.73-.18,3.48-.31,5.24-.41q-2.6-1.22-5.31-2.29C274,160,274,160.85,274.05,161.77Z"/><path class="cls-5" d="M299.45,200c.14.26.27.55.4.84a73.31,73.31,0,0,0,11.25-13,73.25,73.25,0,0,0-11.25-13c-.13.29-.26.57-.4.83a46.58,46.58,0,0,1-10.11,12.14A46.91,46.91,0,0,1,299.45,200Z"/><path class="cls-5" d="M202,192.08a32.57,32.57,0,0,0,7.69,3.38c.65-.85,1.3-1.7,2-2.54a51.61,51.61,0,0,0-9.43-.84Z"/><path class="cls-5" d="M302.56,167c-.36.9-.75,2.25-1.19,3.7a43.72,43.72,0,0,1,4.81,4.51,46.23,46.23,0,0,1,13.46-4,.17.17,0,0,0,0-.05C314.21,169.46,309.18,167.42,302.56,167Z"/><path class="cls-5" d="M328.77,224.2c20.72-7.55,36.42-20.53,49.18-36.3-12.76-15.77-28.46-28.75-49.18-36.3-13.19,1.6-25.36,4.83-34.56,9.85,13.57.89,26.7,4,36.74,9.09,11,.64,20.1,5.33,16.75,17.36,3.35,12-5.74,16.73-16.76,17.36-10,5.12-23.16,8.21-36.73,9.1C303.41,219.38,315.58,222.61,328.77,224.2Z"/><path class="cls-5" d="M159,171.15a46.13,46.13,0,0,1,13.46,4,43.72,43.72,0,0,1,4.81-4.51c-.44-1.45-.83-2.8-1.19-3.7-6.62.47-11.65,2.51-17.1,4.15A.17.17,0,0,0,159,171.15Z"/><path class="cls-5" d="M379.7,185.7a213.37,213.37,0,0,0,18.24-28.16c-2.72-.93-5.61-1.77-8.62-2.52-5.67,3-11.32,1-16.15-3.05a182.46,182.46,0,0,0-22.88-1.57h-.18C357.62,164.53,367.79,176,379.7,185.7Z"/><polygon class="cls-5" points="350.11 150.4 350.11 150.4 350.11 150.4 350.11 150.4"/><path class="cls-5" d="M235.75,205.68c-.63,0-1.26.07-1.9.08a48,48,0,0,1-4.94,2.06c1.24,4.26.21,10.94.3,15.6,1.61.27,3.24.51,4.88.72q2.66-1.08,5.21-2.27,2.55,1.19,5.2,2.27c1.3-.17,2.57-.36,3.85-.56A68.92,68.92,0,0,0,235.75,205.68Z"/><path class="cls-5" d="M105.42,152c-4.83,4-10.48,6-16.15,3.05-3,.75-5.89,1.59-8.62,2.52A213.44,213.44,0,0,0,98.9,185.7c11.9-9.73,22.08-21.17,29.58-35.29h-.18A182.46,182.46,0,0,0,105.42,152Z"/><polygon class="cls-5" points="128.48 150.4 128.48 150.4 128.49 150.4 128.48 150.4"/><path class="cls-5" d="M225.8,212.48h0a40.94,40.94,0,0,0-1.33-7.45,69.7,69.7,0,0,1-21.79-7.72c3.5,5.76,5,13.05,5,20.59a119.46,119.46,0,0,0,18,4.89A51.33,51.33,0,0,0,225.8,212.48Z"/><path class="cls-5" d="M204.54,214c-1.73.17-3.48.3-5.23.4q2.58,1.22,5.3,2.29C204.6,215.85,204.58,215,204.54,214Z"/><path class="cls-5" d="M155.06,223.47c11.16-1.76,21.35-4.76,29.32-9.11a114.69,114.69,0,0,1-20.83-3.26,80.91,80.91,0,0,0-7,9.83C156,221.77,155.55,222.62,155.06,223.47Z"/><path class="cls-5" d="M136.14,202.4c-4.75-2.63-7.28-7.22-5.25-14.5-3.35-12,5.74-16.72,16.76-17.36,10-5.11,23.16-8.2,36.73-9.09-9.2-5-21.36-8.25-34.56-9.85-20.71,7.55-36.42,20.53-49.17,36.3A122.08,122.08,0,0,0,127,212.54q3.06-3.82,6.51-7.5C134.39,204.14,135.26,203.27,136.14,202.4Z"/><path class="cls-5" d="M96.13,112.9A201.48,201.48,0,0,0,68.21,95a144.49,144.49,0,0,0-4.62,17.92,144.19,144.19,0,0,0,4.62,17.93A201.54,201.54,0,0,0,96.13,112.9Z"/><path class="cls-5" d="M263.09,112.9c1.88,2.54,3.84,5,5.77,7.56a37.43,37.43,0,0,0,13.54-7.56,37.43,37.43,0,0,0-13.54-7.56C266.93,107.89,265,110.36,263.09,112.9Z"/><path class="cls-5" d="M382.46,112.9a201.54,201.54,0,0,0,27.92,17.93A146,146,0,0,0,415,112.9,146.32,146.32,0,0,0,410.38,95,201.48,201.48,0,0,0,382.46,112.9Z"/><path class="cls-5" d="M389.32,145.79c3-.75,5.9-1.59,8.62-2.52a212.72,212.72,0,0,0-18.24-28.16c-11.91,9.72-22.08,21.17-29.59,35.29h.18a180.6,180.6,0,0,0,22.88-1.56C378,144.81,383.65,142.82,389.32,145.79Z"/><path class="cls-5" d="M98.9,115.11a212.78,212.78,0,0,0-18.25,28.16c2.73.93,5.61,1.77,8.62,2.52,5.67-3,11.32-1,16.15,3.05a180.6,180.6,0,0,0,22.88,1.56h.18C121,136.28,110.8,124.83,98.9,115.11Z"/><path class="cls-5" d="M274.05,139c0,.92-.06,1.81-.07,2.69q2.72-1.08,5.31-2.29C277.53,139.34,275.78,139.21,274.05,139Z"/><path class="cls-5" d="M204.61,84.07q-2.72,1.08-5.3,2.29c1.75.1,3.5.23,5.23.41C204.58,85.85,204.6,85,204.61,84.07Z"/><path class="cls-5" d="M233.85,95.05a45.09,45.09,0,0,1,5.45.38,44.92,44.92,0,0,1,5.44-.38A46.75,46.75,0,0,1,249.68,93c-1.24-4.26-.2-10.94-.3-15.61-1.6-.26-3.23-.5-4.88-.72-1.77.73-3.51,1.48-5.2,2.27-1.7-.79-3.44-1.54-5.2-2.27q-2.47.33-4.89.72c-.09,4.67.94,11.35-.3,15.61A45.89,45.89,0,0,1,233.85,95.05Z"/><path class="cls-5" d="M254.12,95.78a69.2,69.2,0,0,1,21.79,7.72c-3.5-5.77-5-13.06-5-20.6a118.28,118.28,0,0,0-18-4.88,52,52,0,0,0-.15,10.3A40.9,40.9,0,0,0,254.12,95.78Z"/><path class="cls-5" d="M178.74,99.93a72.79,72.79,0,0,0-11.24,13,72.85,72.85,0,0,0,11.24,13c.13-.29.27-.58.41-.84a46.65,46.65,0,0,1,10.1-12.14,46.33,46.33,0,0,1-10.1-12.14C179,100.5,178.87,100.22,178.74,99.93Z"/><path class="cls-5" d="M176,133.85c.36-.89.75-2.25,1.19-3.7a42.7,42.7,0,0,1-4.81-4.5,46.13,46.13,0,0,1-13.46,4l0,.05C164.38,131.34,169.41,133.39,176,133.85Z"/><path class="cls-5" d="M224.47,95.78a40.9,40.9,0,0,0,1.33-7.46,51.22,51.22,0,0,0-.15-10.3,118.28,118.28,0,0,0-18,4.88c0,7.54-1.5,14.83-5,20.6A69.45,69.45,0,0,1,224.47,95.78Z"/><path class="cls-5" d="M270.91,142.9c0-7.54,1.5-14.83,5-20.59A69.7,69.7,0,0,1,254.12,130a40.94,40.94,0,0,0-1.33,7.45h0a52.08,52.08,0,0,0,.15,10.31A119.46,119.46,0,0,0,270.91,142.9Z"/><path class="cls-5" d="M301.37,130.15c.44,1.45.83,2.81,1.19,3.7,6.62-.46,11.65-2.51,17.1-4.14l0-.05a46.23,46.23,0,0,1-13.46-4A42.7,42.7,0,0,1,301.37,130.15Z"/><path class="cls-5" d="M279.29,86.36q-2.6-1.22-5.31-2.29c0,.88,0,1.78.07,2.7C275.78,86.59,277.53,86.46,279.29,86.36Z"/><path class="cls-5" d="M299.45,125c.14.26.27.55.4.84a73.31,73.31,0,0,0,11.25-13,73.25,73.25,0,0,0-11.25-13c-.13.29-.26.57-.4.83a46.58,46.58,0,0,1-10.11,12.14A46.91,46.91,0,0,1,299.45,125Z"/><path class="cls-5" d="M215.5,112.9c-1.88-2.54-3.84-5-5.77-7.56a37.43,37.43,0,0,0-13.54,7.56,37.43,37.43,0,0,0,13.54,7.56C211.66,117.92,213.62,115.44,215.5,112.9Z"/><path class="cls-5" d="M302.56,92c-.36.9-.75,2.25-1.19,3.7a43.72,43.72,0,0,1,4.81,4.51,46.23,46.23,0,0,1,13.46-4,.17.17,0,0,0,0-.05C314.21,94.46,309.18,92.42,302.56,92Z"/><path class="cls-5" d="M347.7,112.9c3.35,12-5.74,16.73-16.76,17.36-10,5.12-23.16,8.21-36.73,9.1,9.2,5,21.37,8.25,34.56,9.84,20.72-7.55,36.42-20.53,49.18-36.3-12.76-15.77-28.46-28.75-49.18-36.3-13.19,1.6-25.36,4.83-34.56,9.85,13.57.89,26.7,4,36.74,9.09C342,96.18,351.05,100.87,347.7,112.9Z"/><path class="cls-5" d="M172.41,100.16a43.72,43.72,0,0,1,4.81-4.51c-.44-1.45-.83-2.8-1.19-3.7-6.62.47-11.65,2.51-17.1,4.15a.17.17,0,0,0,0,.05A46.13,46.13,0,0,1,172.41,100.16Z"/><path class="cls-5" d="M379.7,110.7a213.37,213.37,0,0,0,18.24-28.16c-2.72-.93-5.61-1.77-8.62-2.52-5.67,3-11.32,1-16.15-3a179.77,179.77,0,0,0-23.06-1.57C357.61,89.52,367.79,101,379.7,110.7Z"/><path class="cls-5" d="M229.21,148.42c1.61.27,3.24.51,4.88.72q2.66-1.08,5.21-2.27,2.55,1.19,5.2,2.27c1.65-.21,3.28-.45,4.88-.72.1-4.66-.94-11.34.3-15.6a49,49,0,0,1-4.94-2.06,47,47,0,0,1-5.44-.38,47.22,47.22,0,0,1-5.45.38,48,48,0,0,1-4.94,2.06C230.15,137.08,229.12,143.76,229.21,148.42Z"/><path class="cls-5" d="M128.48,75.4A179.89,179.89,0,0,0,105.42,77c-4.83,4-10.48,6-16.15,3-3,.75-5.89,1.59-8.62,2.52A213.44,213.44,0,0,0,98.9,110.7C110.8,101,121,89.52,128.48,75.4Z"/><path class="cls-5" d="M225.65,147.79a51.33,51.33,0,0,0,.15-10.31h0a40.94,40.94,0,0,0-1.33-7.45,69.7,69.7,0,0,1-21.79-7.72c3.5,5.76,5,13.05,5,20.59A119.46,119.46,0,0,0,225.65,147.79Z"/><path class="cls-5" d="M204.54,139c-1.73.17-3.48.3-5.23.4q2.58,1.22,5.3,2.29C204.6,140.85,204.58,140,204.54,139Z"/><path class="cls-5" d="M100.65,112.9c12.75,15.77,28.46,28.75,49.17,36.3,13.2-1.59,25.36-4.82,34.56-9.84-13.57-.89-26.7-4-36.73-9.1-11-.63-20.11-5.33-16.76-17.36-3.35-12,5.74-16.72,16.76-17.36,10-5.11,23.16-8.2,36.73-9.09-9.2-5-21.36-8.25-34.56-9.85C129.11,84.15,113.4,97.13,100.65,112.9Z"/><path class="cls-5" d="M96.13,263.9A201.48,201.48,0,0,0,68.21,246a144.49,144.49,0,0,0-4.62,17.92,144.19,144.19,0,0,0,4.62,17.93A201.54,201.54,0,0,0,96.13,263.9Z"/><path class="cls-5" d="M263.09,263.9c1.88,2.54,3.84,5,5.77,7.56a37.43,37.43,0,0,0,13.54-7.56,37.43,37.43,0,0,0-13.54-7.56C266.93,258.89,265,261.36,263.09,263.9Z"/><path class="cls-5" d="M382.46,263.9a201.54,201.54,0,0,0,27.92,17.93A146,146,0,0,0,415,263.9,146.32,146.32,0,0,0,410.38,246,201.48,201.48,0,0,0,382.46,263.9Z"/><path class="cls-5" d="M379.7,266.11c-11.91,9.72-22.09,21.17-29.59,35.3a183.45,183.45,0,0,0,23.06-1.57c4.83-4,10.48-6,16.15-3,3-.75,5.9-1.59,8.62-2.52A212.72,212.72,0,0,0,379.7,266.11Z"/><path class="cls-5" d="M103.37,269.92q-2.19-1.95-4.47-3.81a212.78,212.78,0,0,0-18.25,28.16c2.73.93,5.61,1.77,8.62,2.52,5.08-2.66,10.15-1.33,14.63,1.87a108.86,108.86,0,0,1-1.17-16.13A123.91,123.91,0,0,1,103.37,269.92Z"/><path class="cls-5" d="M204.54,237.77c0-.92.06-1.82.07-2.7q-2.72,1.08-5.3,2.29C201.06,237.46,202.81,237.59,204.54,237.77Z"/><path class="cls-5" d="M233.85,246.05a45.09,45.09,0,0,1,5.45.38,44.92,44.92,0,0,1,5.44-.38,46.75,46.75,0,0,1,4.94-2.06c-1.24-4.26-.2-10.94-.3-15.61-1.6-.26-3.23-.5-4.88-.72-1.77.73-3.51,1.48-5.2,2.27-1.7-.79-3.44-1.54-5.2-2.27q-2.47.33-4.89.72c-.09,4.67.94,11.35-.3,15.61A45.89,45.89,0,0,1,233.85,246.05Z"/><path class="cls-5" d="M252.79,239.32a40.9,40.9,0,0,0,1.33,7.46,69.2,69.2,0,0,1,21.79,7.72c-3.5-5.77-5-13.06-5-20.6a116,116,0,0,0-16.28-4.52l-1.83,1.29A51,51,0,0,0,252.79,239.32Z"/><path class="cls-5" d="M179.15,276a46.65,46.65,0,0,1,10.1-12.14,46.33,46.33,0,0,1-10.1-12.14c-.14-.26-.28-.54-.41-.83a72.79,72.79,0,0,0-11.24,13,72.85,72.85,0,0,0,11.24,13C178.87,276.59,179,276.3,179.15,276Z"/><path class="cls-5" d="M176,284.85c.36-.89.75-2.25,1.19-3.7a42.7,42.7,0,0,1-4.81-4.5,46.13,46.13,0,0,1-13.46,4l0,0C164.38,282.34,169.41,284.39,176,284.85Z"/><path class="cls-5" d="M224.47,246.78a40.9,40.9,0,0,0,1.33-7.46,51.22,51.22,0,0,0-.15-10.3,118.28,118.28,0,0,0-18,4.88c0,7.54-1.5,14.83-5,20.6A69.45,69.45,0,0,1,224.47,246.78Z"/><path class="cls-5" d="M275.91,273.31A69.7,69.7,0,0,1,254.12,281a40.94,40.94,0,0,0-1.33,7.45h0c-.09,1-.13,2-.16,3a156.54,156.54,0,0,1,18.85-5.29A35,35,0,0,1,275.91,273.31Z"/><path class="cls-5" d="M301.37,281.15c.44,1.45.83,2.81,1.19,3.7,6.62-.46,11.65-2.51,17.1-4.14l0,0a46.23,46.23,0,0,1-13.46-4A42.7,42.7,0,0,1,301.37,281.15Z"/><path class="cls-5" d="M274.05,237.77c1.73-.18,3.48-.31,5.24-.41q-2.6-1.22-5.31-2.29C274,236,274,236.85,274.05,237.77Z"/><path class="cls-5" d="M299.45,276c.14.26.27.55.4.84a73.31,73.31,0,0,0,11.25-13,73.25,73.25,0,0,0-11.25-13c-.13.29-.26.57-.4.83a46.58,46.58,0,0,1-10.11,12.14A46.91,46.91,0,0,1,299.45,276Z"/><path class="cls-5" d="M209.73,271.46c1.93-2.54,3.89-5,5.77-7.56-1.88-2.54-3.84-5-5.77-7.56a37.43,37.43,0,0,0-13.54,7.56A37.43,37.43,0,0,0,209.73,271.46Z"/><path class="cls-5" d="M302.56,243c-.36.9-.75,2.25-1.19,3.7a43.72,43.72,0,0,1,4.81,4.51,46.23,46.23,0,0,1,13.46-4,.17.17,0,0,0,0-.05C314.21,245.46,309.18,243.42,302.56,243Z"/><path class="cls-5" d="M334.83,297.76C352.59,290,366.47,278.09,378,263.9c-12.76-15.77-28.46-28.75-49.18-36.3-13.19,1.6-25.36,4.83-34.56,9.85,13.57.89,26.7,4,36.74,9.09,11,.64,20.1,5.33,16.75,17.36,3.35,12-5.74,16.73-16.76,17.36a80,80,0,0,1-18.18,6.4A82.94,82.94,0,0,1,333,296.58C333.65,297,334.24,297.37,334.83,297.76Z"/><path class="cls-5" d="M172.41,251.16a43.72,43.72,0,0,1,4.81-4.51c-.44-1.45-.83-2.8-1.19-3.7-6.62.47-11.65,2.51-17.1,4.15a.17.17,0,0,0,0,.05A46.13,46.13,0,0,1,172.41,251.16Z"/><path class="cls-5" d="M389.32,231c-5.67,3-11.32,1-16.15-3.05a179.77,179.77,0,0,0-23.06-1.57c7.5,14.12,17.68,25.57,29.59,35.3a213.37,213.37,0,0,0,18.24-28.16C395.22,232.61,392.33,231.77,389.32,231Z"/><path class="cls-5" d="M249.15,292.71c-.14-3.2-.18-6.45.53-8.89a49,49,0,0,1-4.94-2.06,47,47,0,0,1-5.44-.38,47.22,47.22,0,0,1-5.45.38,48,48,0,0,1-4.94,2.06c1.24,4.26.21,10.94.3,15.6.78.13,1.58.24,2.37.35l.62-.27Q241.11,295.62,249.15,292.71Z"/><path class="cls-5" d="M105.42,228c-4.83,4-10.48,6-16.15,3.05-3,.75-5.89,1.59-8.62,2.52A213.44,213.44,0,0,0,98.9,261.7q3.51-2.88,6.82-6A105.34,105.34,0,0,1,117.2,226.8C113.22,227.07,109.27,227.45,105.42,228Z"/><path class="cls-5" d="M225.65,298.79a51.33,51.33,0,0,0,.15-10.31h0a40.94,40.94,0,0,0-1.33-7.45,69.7,69.7,0,0,1-21.79-7.72c3.5,5.76,5,13.05,5,20.59A119.46,119.46,0,0,0,225.65,298.79Z"/><path class="cls-5" d="M204.61,292.73c0-.88,0-1.77-.07-2.69-1.73.17-3.48.3-5.23.4Q201.89,291.65,204.61,292.73Z"/><path class="cls-5" d="M149.82,300.2c13.2-1.59,25.36-4.82,34.56-9.84-13.57-.89-26.7-4-36.73-9.1a35.47,35.47,0,0,1-6.21-.87,104,104,0,0,0,2.14,17.29C145.61,298.57,147.68,299.42,149.82,300.2Z"/><path class="cls-5" d="M100.65,263.9q1.47,1.82,3,3.58.56-4.47,1.44-8.79Q102.8,261.24,100.65,263.9Z"/><path class="cls-5" d="M147.65,246.54c10-5.11,23.16-8.2,36.73-9.09-8.54-4.67-19.65-7.78-31.75-9.48a102.24,102.24,0,0,0-7.42,18.79C146,246.66,146.82,246.59,147.65,246.54Z"/><path class="cls-6" d="M96.13,433.9A201.48,201.48,0,0,0,68.21,416a144.49,144.49,0,0,0-4.62,17.92,144.19,144.19,0,0,0,4.62,17.93A201.54,201.54,0,0,0,96.13,433.9Z"/><path class="cls-6" d="M263.09,433.9c1.88,2.54,3.84,5,5.77,7.56a37.43,37.43,0,0,0,13.54-7.56,37.43,37.43,0,0,0-13.54-7.56C266.93,428.89,265,431.36,263.09,433.9Z"/><path class="cls-6" d="M382.46,433.9a183.93,183.93,0,0,0,17.86,12.18,26,26,0,0,1,9.54-1.34l1.51,3.89A148,148,0,0,0,415,433.9,146.32,146.32,0,0,0,410.38,416,201.48,201.48,0,0,0,382.46,433.9Z"/><path class="cls-6" d="M389.76,451.88l.62-.45c-3.34-5.3-6.88-10.44-10.68-15.32a121.6,121.6,0,0,0-21.49,22.39q8.54,7.33,13.07,7.32Z"/><path class="cls-6" d="M98.9,436.11a212.78,212.78,0,0,0-18.25,28.16c2.73.93,5.61,1.77,8.62,2.52,5.67-3,11.32-1,16.15,3,3.42.45,6.92.8,10.45,1.06q6-.43,12.07-.49A115.65,115.65,0,0,0,98.9,436.11Z"/><path class="cls-5" d="M128.48,471.41l-.27-.51-.27.5Z"/><path class="cls-5" d="M274.05,460c0,.92-.06,1.81-.07,2.69q2.72-1.08,5.31-2.29C277.53,460.34,275.78,460.21,274.05,460Z"/><path class="cls-5" d="M249.38,398.38c-1.6-.26-3.23-.5-4.88-.72-1.77.73-3.51,1.48-5.2,2.27l-1.59-.71v8.57c4-2,7.89-3.9,11.59-5.85C249.36,400.68,249.4,399.47,249.38,398.38Z"/><path class="cls-5" d="M252.85,400l1.38-.75c-.43-.09-.85-.19-1.29-.27Z"/><path class="cls-6" d="M179.15,446a46.65,46.65,0,0,1,10.1-12.14,46.33,46.33,0,0,1-10.1-12.14c-.14-.26-.28-.54-.41-.83a72.79,72.79,0,0,0-11.24,13,72.85,72.85,0,0,0,11.24,13C178.87,446.59,179,446.3,179.15,446Z"/><path class="cls-6" d="M176,454.85c.36-.89.75-2.25,1.19-3.7a42.7,42.7,0,0,1-4.81-4.5,46.13,46.13,0,0,1-13.46,4l0,0C164.38,452.34,169.41,454.39,176,454.85Z"/><path class="cls-6" d="M252.94,468.79a119.46,119.46,0,0,0,18-4.89c0-7.54,1.5-14.83,5-20.59A69.7,69.7,0,0,1,254.12,451a40.94,40.94,0,0,0-1.33,7.45h0A52.08,52.08,0,0,0,252.94,468.79Z"/><path class="cls-5" d="M302.56,454.85l.42,0-.88-1.26C302.26,454,302.41,454.49,302.56,454.85Z"/><path class="cls-5" d="M196.19,433.9l1,.8v-1.59Z"/><path class="cls-6" d="M331,416.54c11,.64,20.1,5.33,16.75,17.36,1.51,5.43.49,9.36-2.1,12.11q5.31,5.79,9.71,9.88a124.41,124.41,0,0,0,22.64-22c-12.76-15.77-28.46-28.75-49.18-36.3A122.72,122.72,0,0,0,307.56,402c2.13,2.36,4.72,5.29,7.78,8.82A77.53,77.53,0,0,1,331,416.54Z"/><path class="cls-6" d="M294.21,460.36a78.25,78.25,0,0,0,17.24,6.6L305.91,459C302.09,459.64,298.17,460.1,294.21,460.36Z"/><path class="cls-6" d="M172.41,421.16a43.72,43.72,0,0,1,4.81-4.51c-.44-1.45-.83-2.8-1.19-3.7-6.62.47-11.65,2.51-17.1,4.15l0,0A46.13,46.13,0,0,1,172.41,421.16Z"/><path class="cls-6" d="M373.17,398a179.77,179.77,0,0,0-23.06-1.57c7.5,14.12,17.68,25.57,29.59,35.3a213.37,213.37,0,0,0,18.24-28.16c-2.72-.93-5.61-1.77-8.62-2.52C383.65,404,378,402,373.17,398Z"/><path class="cls-5" d="M238.05,468.43l1.25-.56q2.55,1.19,5.2,2.27c1.65-.21,3.28-.45,4.88-.72.1-4.66-.94-11.34.3-15.6a49,49,0,0,1-4.94-2.06,47,47,0,0,1-5.44-.38c-1.36.18-2.73.27-4.1.32a82.64,82.64,0,0,0,2.19,14.77C237.58,467.08,237.8,467.75,238.05,468.43Z"/><path class="cls-6" d="M89.27,401c-3,.75-5.89,1.59-8.62,2.52A213.44,213.44,0,0,0,98.9,431.7c11.9-9.73,22.08-21.18,29.58-35.3A179.89,179.89,0,0,0,105.42,398C100.59,402,94.94,404,89.27,401Z"/><path class="cls-6" d="M100.65,433.9c12.75,15.77,28.46,28.75,49.17,36.3,13.2-1.59,25.36-4.82,34.56-9.84-13.57-.89-26.7-4-36.73-9.1-11-.63-20.11-5.33-16.76-17.36-3.35-12,5.74-16.72,16.76-17.36,10-5.11,23.16-8.2,36.73-9.09-9.2-5-21.36-8.25-34.56-9.85C129.11,405.15,113.4,418.13,100.65,433.9Z"/><path class="cls-6" d="M96.13,507.9A201.48,201.48,0,0,0,68.21,490a144.49,144.49,0,0,0-4.62,17.92,144.19,144.19,0,0,0,4.62,17.93A201.54,201.54,0,0,0,96.13,507.9Z"/><path class="cls-6" d="M263.09,507.9c1.88,2.54,3.84,5,5.77,7.56a37.43,37.43,0,0,0,13.54-7.56,37.43,37.43,0,0,0-13.54-7.56C266.93,502.89,265,505.36,263.09,507.9Z"/><path class="cls-6" d="M382.46,507.9a201.54,201.54,0,0,0,27.92,17.93A146,146,0,0,0,415,507.9,146.32,146.32,0,0,0,410.38,490,201.48,201.48,0,0,0,382.46,507.9Z"/><path class="cls-5" d="M350.11,545.41h.55l-.28-.5Z"/><path class="cls-6" d="M389.32,540.79c3-.75,5.9-1.59,8.62-2.52a212.72,212.72,0,0,0-18.24-28.16,115.65,115.65,0,0,0-29,34.3c4,0,8.07.2,12.06.49,3.53-.26,7-.61,10.45-1.06C378,539.81,383.65,537.82,389.32,540.79Z"/><path class="cls-5" d="M128.48,545.41l-.27-.51-.27.5Z"/><path class="cls-6" d="M98.9,510.11a212.78,212.78,0,0,0-18.25,28.16c2.73.93,5.61,1.77,8.62,2.52,5.67-3,11.32-1,16.15,3.05,3.42.45,6.92.8,10.45,1.06q6-.43,12.07-.49A115.65,115.65,0,0,0,98.9,510.11Z"/><path class="cls-6" d="M274.05,534c0,.92-.06,1.81-.07,2.69q2.72-1.08,5.31-2.29C277.53,534.34,275.78,534.21,274.05,534Z"/><path class="cls-5" d="M247.37,488.87c.81-.34,1.59-.63,2.31-.88-1.24-4.26-.2-10.94-.3-15.61-1.6-.26-3.23-.5-4.88-.72q-2.25.93-4.41,1.92c1.28,3,2.88,6.48,4.75,10.39C245.76,485.73,246.6,487.35,247.37,488.87Z"/><path class="cls-6" d="M252.79,483.32a40.9,40.9,0,0,0,1.33,7.46,69.2,69.2,0,0,1,21.79,7.72c-3.5-5.77-5-13.06-5-20.6a118.28,118.28,0,0,0-18-4.88A52,52,0,0,0,252.79,483.32Z"/><path class="cls-6" d="M182,500.13a35.08,35.08,0,0,1-2.83-4.37c-.14-.26-.28-.54-.41-.83a72.79,72.79,0,0,0-11.24,13,72.85,72.85,0,0,0,11.24,13c.13-.29.27-.58.41-.84a46.65,46.65,0,0,1,10.1-12.14,53.67,53.67,0,0,1-7.23-7.72H182Z"/><path class="cls-6" d="M176,528.85c.36-.89.75-2.25,1.19-3.7a42.7,42.7,0,0,1-4.81-4.5,46.13,46.13,0,0,1-13.46,4l0,.05C164.38,526.34,169.41,528.39,176,528.85Z"/><path class="cls-6" d="M252.94,542.79a119.46,119.46,0,0,0,18-4.89c0-7.54,1.5-14.83,5-20.59A69.7,69.7,0,0,1,254.12,525a40.94,40.94,0,0,0-1.33,7.45h0A52.08,52.08,0,0,0,252.94,542.79Z"/><path class="cls-6" d="M301.37,525.15c.44,1.45.83,2.81,1.19,3.7,6.62-.46,11.65-2.51,17.1-4.14l0-.05a46.23,46.23,0,0,1-13.46-4A42.7,42.7,0,0,1,301.37,525.15Z"/><path class="cls-5" d="M274.05,481.77c1.73-.18,3.48-.31,5.24-.41q-2.6-1.22-5.31-2.29C274,480,274,480.85,274.05,481.77Z"/><path class="cls-6" d="M299.45,495.76a46.58,46.58,0,0,1-10.11,12.14A46.91,46.91,0,0,1,299.45,520c.14.26.27.55.4.84a73.31,73.31,0,0,0,11.25-13,73.25,73.25,0,0,0-11.25-13C299.72,495.22,299.59,495.5,299.45,495.76Z"/><path class="cls-6" d="M215.5,507.9c-1.88-2.54-3.84-5-5.77-7.56a37.43,37.43,0,0,0-13.54,7.56,37.43,37.43,0,0,0,13.54,7.56C211.66,512.92,213.62,510.44,215.5,507.9Z"/><path class="cls-6" d="M302.56,487c-.36.9-.75,2.25-1.19,3.7a43.72,43.72,0,0,1,4.81,4.51,46.23,46.23,0,0,1,13.46-4l0,0C314.21,489.46,309.18,487.42,302.56,487Z"/><path class="cls-6" d="M347.8,499.39a14.1,14.1,0,0,1-.1,8.51c3.35,12-5.74,16.73-16.76,17.36-10,5.12-23.16,8.21-36.73,9.1,9.2,5,21.37,8.25,34.56,9.84,20.72-7.55,36.42-20.53,49.18-36.3q-4.21-5.2-8.88-10a40,40,0,0,1-13.35,2.24A38.9,38.9,0,0,1,347.8,499.39Z"/><path class="cls-6" d="M320.38,479.76l-4.21-6.05a83.66,83.66,0,0,0-22,7.74c12.75.83,25.11,3.61,34.88,8.19A61.18,61.18,0,0,1,320.38,479.76Z"/><path class="cls-6" d="M177.22,490.65c-.44-1.45-.83-2.8-1.19-3.7-6.62.47-11.65,2.51-17.1,4.15l0,0a46.13,46.13,0,0,1,13.46,4A43.72,43.72,0,0,1,177.22,490.65Z"/><path class="cls-5" d="M370.45,497.41q4.41,4.35,9.25,8.29a213.37,213.37,0,0,0,18.24-28.16c-.95-.33-1.93-.64-2.92-.94-2.09,2.86-3.95,5.22-5.58,7C383.5,490.17,377.21,494.75,370.45,497.41Z"/><path class="cls-6" d="M239.3,525.38a47.22,47.22,0,0,1-5.45.38,48,48,0,0,1-4.94,2.06c1.24,4.26.21,10.94.3,15.6,1.61.27,3.24.51,4.88.72q2.66-1.08,5.21-2.27,2.55,1.18,5.2,2.27c1.65-.21,3.28-.45,4.88-.72.1-4.66-.94-11.34.3-15.6a49,49,0,0,1-4.94-2.06A47,47,0,0,1,239.3,525.38Z"/><path class="cls-7" d="M89.27,475c-3,.75-5.89,1.59-8.62,2.52A213.44,213.44,0,0,0,98.9,505.7c11.62-9.5,21.59-20.64,29-34.3l.27-.5.27-.5h-.54q-6.07,0-12.07.49c-3.53.26-7,.61-10.45,1.07C100.59,476,94.94,478,89.27,475Z"/><path class="cls-6" d="M225.8,532.48a40.94,40.94,0,0,0-1.33-7.45,69.7,69.7,0,0,1-21.79-7.72c3.5,5.76,5,13.05,5,20.59a119.46,119.46,0,0,0,18,4.89,51.33,51.33,0,0,0,.15-10.31Z"/><path class="cls-6" d="M199.31,534.44q2.58,1.21,5.3,2.29c0-.88,0-1.77-.07-2.69C202.81,534.21,201.06,534.34,199.31,534.44Z"/><path class="cls-6" d="M149.82,471.6c-20.71,7.55-36.42,20.53-49.17,36.3,12.75,15.77,28.46,28.75,49.17,36.3,13.2-1.59,25.36-4.82,34.56-9.84-13.57-.89-26.7-4-36.73-9.1-11-.63-20.11-5.33-16.76-17.36-3.35-12,5.74-16.72,16.76-17.36,10-5.11,23.16-8.2,36.73-9.09C175.18,476.43,163,473.2,149.82,471.6Z"/><path class="cls-6" d="M68.21,564a144.49,144.49,0,0,0-4.62,17.92,144.19,144.19,0,0,0,4.62,17.93A201.54,201.54,0,0,0,96.13,581.9,201.48,201.48,0,0,0,68.21,564Z"/><path class="cls-6" d="M263.09,581.9c1.88,2.54,3.84,5,5.77,7.56a37.43,37.43,0,0,0,13.54-7.56,37.43,37.43,0,0,0-13.54-7.56C266.93,576.89,265,579.36,263.09,581.9Z"/><path class="cls-6" d="M382.46,581.9a201.54,201.54,0,0,0,27.92,17.93A146,146,0,0,0,415,581.9,146.32,146.32,0,0,0,410.38,564,201.48,201.48,0,0,0,382.46,581.9Z"/><path class="cls-6" d="M350.11,619.41a183.45,183.45,0,0,0,23.06-1.57c4.83-4,10.48-6,16.15-3.05,3-.75,5.9-1.59,8.62-2.52a212.72,212.72,0,0,0-18.24-28.16C367.79,593.83,357.61,605.28,350.11,619.41Z"/><path class="cls-6" d="M98.9,584.11a212.78,212.78,0,0,0-18.25,28.16c2.73.93,5.61,1.77,8.62,2.52,5.67-3,11.32-1,16.15,3.05a183.58,183.58,0,0,0,23.06,1.57C121,605.28,110.8,593.83,98.9,584.11Z"/><path class="cls-5" d="M274,610.73q2.72-1.08,5.31-2.29c-1.76-.1-3.51-.23-5.24-.4C274,609,274,609.85,274,610.73Z"/><path class="cls-6" d="M199.31,555.36c1.75.1,3.5.23,5.23.41,0-.92.06-1.82.07-2.7Q201.9,554.15,199.31,555.36Z"/><path class="cls-6" d="M249.38,546.38c-1.6-.26-3.23-.5-4.88-.72-1.77.73-3.51,1.48-5.2,2.27-1.7-.79-3.44-1.54-5.2-2.27q-2.47.33-4.89.72c-.09,4.67.94,11.35-.3,15.61a45.89,45.89,0,0,1,4.94,2.06,45.09,45.09,0,0,1,5.45.38,44.92,44.92,0,0,1,5.44-.38,46.75,46.75,0,0,1,4.94-2.06C248.44,557.73,249.48,551.05,249.38,546.38Z"/><path class="cls-6" d="M252.79,557.32a40.9,40.9,0,0,0,1.33,7.46,69.2,69.2,0,0,1,21.79,7.72c-3.5-5.77-5-13.06-5-20.6a118.28,118.28,0,0,0-18-4.88A52,52,0,0,0,252.79,557.32Z"/><path class="cls-6" d="M179.15,569.76c-.14-.26-.28-.54-.41-.83a72.79,72.79,0,0,0-11.24,13,72.85,72.85,0,0,0,11.24,13c.13-.29.27-.58.41-.84a46.65,46.65,0,0,1,10.1-12.14A46.33,46.33,0,0,1,179.15,569.76Z"/><path class="cls-6" d="M176,602.85c.36-.89.75-2.25,1.19-3.7a42.7,42.7,0,0,1-4.81-4.5,46.13,46.13,0,0,1-13.46,4l0,.05C164.38,600.34,169.41,602.39,176,602.85Z"/><path class="cls-6" d="M225.8,557.32a51.22,51.22,0,0,0-.15-10.3,118.28,118.28,0,0,0-18,4.88c0,7.54-1.5,14.83-5,20.6a69.45,69.45,0,0,1,21.79-7.72A40.9,40.9,0,0,0,225.8,557.32Z"/><path class="cls-6" d="M254.12,599a40.94,40.94,0,0,0-1.33,7.45h0a52.08,52.08,0,0,0,.15,10.31,119.46,119.46,0,0,0,18-4.89c0-7.54,1.5-14.83,5-20.59A69.7,69.7,0,0,1,254.12,599Z"/><path class="cls-6" d="M301.37,599.15c.44,1.45.83,2.81,1.19,3.7,6.62-.46,11.65-2.51,17.1-4.14l0-.05a46.23,46.23,0,0,1-13.46-4A42.7,42.7,0,0,1,301.37,599.15Z"/><path class="cls-6" d="M274.05,555.77c1.73-.18,3.48-.31,5.24-.41q-2.6-1.22-5.31-2.29C274,554,274,554.85,274.05,555.77Z"/><path class="cls-6" d="M299.85,594.88a73.31,73.31,0,0,0,11.25-13,73.25,73.25,0,0,0-11.25-13c-.13.29-.26.57-.4.83a46.58,46.58,0,0,1-10.11,12.14A46.91,46.91,0,0,1,299.45,594C299.59,594.3,299.72,594.59,299.85,594.88Z"/><path class="cls-6" d="M209.73,589.46c1.93-2.54,3.89-5,5.77-7.56-1.88-2.54-3.84-5-5.77-7.56a37.43,37.43,0,0,0-13.54,7.56A37.43,37.43,0,0,0,209.73,589.46Z"/><path class="cls-6" d="M302.56,561c-.36.9-.75,2.25-1.19,3.7a43.72,43.72,0,0,1,4.81,4.51,46.23,46.23,0,0,1,13.46-4l0,0C314.21,563.46,309.18,561.42,302.56,561Z"/><path class="cls-6" d="M378,581.9c-12.76-15.77-28.46-28.75-49.18-36.3-13.19,1.6-25.36,4.83-34.56,9.85,13.57.89,26.7,4,36.74,9.09,11,.64,20.1,5.33,16.75,17.36,3.35,12-5.74,16.73-16.76,17.36-10,5.12-23.16,8.21-36.73,9.1,9.2,5,21.37,8.25,34.56,9.84C349.49,610.65,365.19,597.67,378,581.9Z"/><path class="cls-6" d="M177.22,564.65c-.44-1.45-.83-2.8-1.19-3.7-6.62.47-11.65,2.51-17.1,4.15l0,0a46.13,46.13,0,0,1,13.46,4A43.72,43.72,0,0,1,177.22,564.65Z"/><path class="cls-6" d="M350.11,544.4l.27.5.28.5c7.45,13.66,17.42,24.8,29,34.3a213.37,213.37,0,0,0,18.24-28.16c-2.72-.93-5.61-1.77-8.62-2.52-5.67,3-11.32,1-16.15-3-3.42-.46-6.92-.81-10.45-1.07-4-.29-8-.46-12.06-.49Z"/><path class="cls-6" d="M244.74,599.76a47,47,0,0,1-5.44-.38,47.22,47.22,0,0,1-5.45.38,48,48,0,0,1-4.94,2.06c1.24,4.26.21,10.94.3,15.6,1.61.27,3.24.51,4.88.72q2.66-1.08,5.21-2.27,2.55,1.18,5.2,2.27c1.65-.21,3.28-.45,4.88-.72.1-4.66-.94-11.34.3-15.6A49,49,0,0,1,244.74,599.76Z"/><path class="cls-6" d="M127.94,544.41q-6.07,0-12.07.49c-3.53.26-7,.61-10.45,1.07-4.83,4-10.48,6-16.15,3-3,.75-5.89,1.59-8.62,2.52A213.44,213.44,0,0,0,98.9,579.7c11.62-9.5,21.59-20.64,29-34.3l.27-.5.27-.5Z"/><path class="cls-6" d="M225.8,606.48a40.94,40.94,0,0,0-1.33-7.45,69.7,69.7,0,0,1-21.79-7.72c3.5,5.76,5,13.05,5,20.59a119.46,119.46,0,0,0,18,4.89,51.33,51.33,0,0,0,.15-10.31Z"/><path class="cls-5" d="M199.31,608.44q2.58,1.21,5.3,2.29c0-.88,0-1.77-.07-2.69C202.81,608.21,201.06,608.34,199.31,608.44Z"/><path class="cls-6" d="M130.89,581.9c-3.35-12,5.74-16.72,16.76-17.36,10-5.11,23.16-8.2,36.73-9.09-9.2-5-21.36-8.25-34.56-9.85-20.71,7.55-36.42,20.53-49.17,36.3,12.75,15.77,28.46,28.75,49.17,36.3,13.2-1.59,25.36-4.82,34.56-9.84-13.57-.89-26.7-4-36.73-9.1C136.63,598.63,127.54,593.93,130.89,581.9Z"/><path class="cls-8" d="M161.09,333.43a78,78,0,0,1-17.51-35.75,104,104,0,0,1-2.14-17.29c-.08-1.75-.13-3.52-.13-5.32A102.23,102.23,0,0,1,152.63,228q1.16-2.26,2.43-4.5c.49-.85,1-1.7,1.49-2.54a80.91,80.91,0,0,1,7-9.83q1.71-2.06,3.51-3.88a57.1,57.1,0,0,1,6.31-5.56c1.18-.89,2.39-1.72,3.61-2.48a44.37,44.37,0,0,1,4.14-2.31A47,47,0,0,1,202,192.08h.22a51.61,51.61,0,0,1,9.43.84,44.92,44.92,0,0,1,24.06,12.76,68.92,68.92,0,0,1,12.6,17.9c1.23,2.43,2.41,5,3.52,7.73.3-.21.61-.43.93-.64l1.83-1.29c4-2.84,8.56-6.35,13.74-10.62l2.57-2.13c4.29-3.59,8.95-7.65,14-12.23a103.78,103.78,0,0,0-11.56-10.64,97.71,97.71,0,0,0-9.63-6.71q-21-12.81-47.74-14.25-3.27-.17-6.61-.17c-1.35,0-2.69,0-4,.07a107,107,0,0,0-25.72,3.91c-1.3.37-2.58.76-3.85,1.18a101,101,0,0,0-39.65,24.61c-.88.87-1.75,1.74-2.61,2.64q-3.45,3.68-6.51,7.5-1.8,2.24-3.47,4.53-2.85,3.92-5.31,8c-.35.58-.7,1.16-1,1.74a105.34,105.34,0,0,0-11.48,28.94c-.23,1-.44,2-.64,2.95q-.89,4.32-1.44,8.79c-.1.81-.19,1.62-.27,2.44a123.91,123.91,0,0,0-.64,12.61,108.86,108.86,0,0,0,1.17,16.13c3.16,21.34,12.77,39.95,28.66,55.84,18.25,18,39.72,27.6,64.63,29.23V355.89A66.33,66.33,0,0,1,161.09,333.43Z"/><path class="cls-8" d="M260,370.07c18.48-10.7,30.15-25.29,34.69-43.77q-8.76,0-17.51,7.78c-8.43,7.46-15.23,12.32-20.42,15.24a75.62,75.62,0,0,1-19,6.66v23.48A104.16,104.16,0,0,0,260,370.07Z"/><path class="cls-8" d="M400.32,446.08a35.55,35.55,0,0,0-9.94,5.35l-.62.45-18.48,13.94q-4.53,0-13.07-7.32c-.93-.8-1.9-1.67-2.9-2.61q-4.4-4.09-9.71-9.88-4.37-4.77-9.33-10.67-12.74-15.12-20.93-24.56c-3.06-3.53-5.65-6.46-7.78-8.82a74.26,74.26,0,0,0-6.63-6.82l35.34-24c13-10.7,19.45-23,19.45-36.31,0-15.55-6.88-27.81-20.89-37.08-.59-.39-1.18-.79-1.8-1.18a82.94,82.94,0,0,0-20.27-8.92,89,89,0,0,0-24.8-3.39,81.41,81.41,0,0,0-16.48,1.92,156.54,156.54,0,0,0-18.85,5.29c-1.15.39-2.31.81-3.48,1.23q-8,2.91-17,6.79l-.62.27q-36,15.8-51.9,17.24v7.46c11.67,7.45,17.51,16.53,17.51,27.88v3.54a83.15,83.15,0,0,0,19.34,2.18A102.51,102.51,0,0,0,237.71,356V334.84c0-8.1,4.86-15.56,14.27-22.69,8.75-6.81,17.5-10,25.93-10,9.4,0,17.51,3.56,24.64,10.69q10.69,10.21,10.7,24.32c0,13.29-9.72,27.23-28.85,42.47a208.33,208.33,0,0,1-30.17,19.71l-1.38.75-3.55,1.9c-3.7,1.95-7.55,3.9-11.59,5.85V379.46A116.31,116.31,0,0,1,204.86,384c-2.6,0-5.15-.11-7.67-.28v89.55c0,3.89-1.95,8.42-6.16,13.94C185.89,494,183,498.47,182,500.13l0,.05h70.67a110.76,110.76,0,0,0-5.25-11.31c-.77-1.52-1.61-3.14-2.53-4.9-1.87-3.91-3.47-7.37-4.75-10.39q-1.22-2.83-2-5.15c-.25-.68-.47-1.35-.66-2a82.64,82.64,0,0,1-2.19-14.77c-.26-3.73-.41-7.88-.41-12.46,0-7.46,2-12.65,6.16-15.57,3.25-2.27,8.76-3.56,16.86-3.56,13.94,0,25.94,7.13,35.67,21.07l8.62,12.37.88,1.26,2.93,4.2,5.54,7.95,4.72,6.75,4.21,6.05a61.18,61.18,0,0,0,8.71,9.88,39.52,39.52,0,0,0,18.71,9.75,38.9,38.9,0,0,0,7.92.79,40,40,0,0,0,13.35-2.24l1.38-.53c6.76-2.66,13.05-7.24,19-13.76,1.63-1.83,3.49-4.19,5.58-7,4.56-6.24,10.23-14.91,17.11-26l-.76-1.95-1.51-3.89A26,26,0,0,0,400.32,446.08Z"/></g></g></svg>