<svg xmlns="http://www.w3.org/2000/svg" viewBox="0 0 459 722"><defs><style>.cls-1,.cls-6{fill:none;}.cls-2{fill:#fff;}.cls-3{fill:#f7f500;}.cls-4{fill:#ff0f1e;}.cls-5{fill:#231f20;}.cls-6{stroke:#000;stroke-miterlimit:10;stroke-width:2px;}</style></defs><g id="Layer_2" data-name="Layer 2"><g id="Layer_1-2" data-name="Layer 1"><path class="cls-1" d="M0,0V722H459V0ZM440.67,645.9a15,15,0,0,1-15,15H40.55a15,15,0,0,1-15-15V30a15,15,0,0,1,15-15H425.68a15,15,0,0,1,15,15Z"/><path class="cls-2" d="M425.68,15H40.55a15,15,0,0,0-15,15V645.9a15,15,0,0,0,15,15H425.68a15,15,0,0,0,15-15V30A15,15,0,0,0,425.68,15Zm5.64,65.29V637.44a15,15,0,0,1-15,15H48.26a15,15,0,0,1-15-15V36a15,15,0,0,1,15-15H416.33a15,15,0,0,1,15,15Z"/><path class="cls-2" d="M33.27,637.44a15,15,0,0,0,15,15H63.93L33.27,601.28Z"/><path class="cls-2" d="M251.31,401.61c-8.1,0-13.61,1.29-16.86,3.56-4.21,2.92-6.16,8.11-6.16,15.57,0,4.58.15,8.73.41,12.46,1.37-.05,2.74-.14,4.1-.32a47,47,0,0,0,5.44.38,49,49,0,0,0,4.94,2.06,17.57,17.57,0,0,0-.57,3.77l4.12-2.47a41.54,41.54,0,0,1,.89-4.09,64.56,64.56,0,0,0,10.4-2.68l23.46-14.05C272.84,406.4,262.73,401.61,251.31,401.61ZM262.36,423c-1.93-2.54-3.89-5-5.77-7.56,1.88-2.54,3.84-5,5.77-7.56a37.43,37.43,0,0,1,13.54,7.56A37.43,37.43,0,0,1,262.36,423Z"/><path class="cls-2" d="M242.8,383.43h0l3.55-1.9a1.94,1.94,0,0,0,0-.24Z"/><path class="cls-2" d="M308.84,392.28q1.91,2.19,4.05,4.69l3.78-2.27C314.17,393.79,311.55,393,308.84,392.28Z"/><path class="cls-2" d="M61.71,545.48l1.77,1,13.64-8.17c-1-1.74-2-3.48-3-5.24,2.73-.93,5.61-1.77,8.62-2.52a12.07,12.07,0,0,0,5,1.39l11.08-6.64c-4.81-4-10.42-5.93-16.06-3-3-.75-5.89-1.59-8.62-2.52A212.78,212.78,0,0,1,92.4,491.61a121,121,0,0,1,22.61,24l4.12-2.47a123.22,123.22,0,0,1-25-23.7c12.75-15.77,28.46-28.75,49.17-36.3,13.2,1.6,25.36,4.83,34.56,9.85-13.57.89-26.7,4-36.73,9.09-11,.64-20.11,5.33-16.76,17.36-2.39,8.59,1.56,13.44,8,15.74l30.36-18.2a73.2,73.2,0,0,1,9.47-10.51c.13.29.27.57.41.83.49.91,1.06,1.83,1.68,2.75l3.59-2.15c1.53-2.27,3.72-5.35,6.61-9.14,4.21-5.52,6.16-10.05,6.16-13.94V416.2l-1-.8.67-.53-15.66,9.39a33.14,33.14,0,0,0-2,3.28c-.14.26-.28.55-.41.84-.58-.53-1.13-1.09-1.69-1.64L166.74,429a47.22,47.22,0,0,0,4,3.62c-.44,1.45-.83,2.81-1.19,3.7a48.16,48.16,0,0,1-11.2-2.28l-5.55,3.33a111.23,111.23,0,0,0,25.1,4.46c-9.2,5-21.36,8.25-34.56,9.84-2.93-1.07-5.76-2.26-8.5-3.54l-16.31,9.78A117.94,117.94,0,0,1,92.4,487.2c-2.4-3.07-4.68-6.25-6.88-9.49l-6.66,4q5.56,3.68,10.77,7.7a201.54,201.54,0,0,1-27.92,17.93c-1.42-4.32-2.62-8.72-3.63-13.18l-23.2,13.91-1.61-2.69v59.19L60.94,548C61.19,547.15,61.44,546.31,61.71,545.48Zm104.2-68.82a46.13,46.13,0,0,0-13.46-4l0,0c5.45-1.64,10.48-3.68,17.1-4.15.36.9.75,2.25,1.19,3.7A43.72,43.72,0,0,0,165.91,476.66Z"/><path class="cls-2" d="M329.77,352.65l-35.34,24a74.26,74.26,0,0,1,6.63,6.82,122.72,122.72,0,0,1,21.21-4.36,105.14,105.14,0,0,1,11.82,5.16l9.79-5.87-.27-.49,1.06,0L431.32,326V270.44l-82.26,49.31C348,331.74,341.62,342.87,329.77,352.65Z"/><path class="cls-2" d="M247.73,380.79a237.33,237.33,0,0,0,21.14-13l-21.52,12.9Z"/><path class="cls-2" d="M364.39,161.33l1.27-.76a111.59,111.59,0,0,1-21.66-28l-9.65,5.79A111,111,0,0,1,364.39,161.33Z"/><path class="cls-2" d="M408.51,94.4a146,146,0,0,1-4.63,17.93q-6.78-3.67-13.21-7.69l-8.27,5q4.77,7.38,9,15.17c-2.72.93-5.61,1.77-8.62,2.52-5.67-3-11.32-1-16.15,3a178.92,178.92,0,0,1-21.43,1.53l-.1.06a180.59,180.59,0,0,1,21.53,1.54c4.83,4,10.48,6,16.15,3.05,3,.75,5.9,1.59,8.62,2.52-1.73,3.14-3.53,6.24-5.37,9.3l45.25-27.13V80.28L408.42,94Z"/><path class="cls-2" d="M278.43,185.9c-5,4.58-9.7,8.64-14,12.23,0,.42,0,.84,0,1.27-.83.3-1.69.58-2.54.86-5.18,4.27-9.76,7.78-13.74,10.62a116,116,0,0,1,16.28,4.52,53.2,53.2,0,0,0,.29,5.68l3.06-1.83-.21,0c0-.92-.06-1.82-.07-2.7.95.38,1.88.77,2.8,1.17l28.55-17.11a69.92,69.92,0,0,1-11.12-4.77,108,108,0,0,0,28.23-5.49l25.94-15.55a17,17,0,0,0-.68-5.42c3.35-12-5.74-16.72-16.75-17.36a69.68,69.68,0,0,0-7.47-3.23l-5.47,3.28,1.65.51a.17.17,0,0,1,0,.05c-1.27.19-2.52.43-3.74.7l-11.95,7.16a73.79,73.79,0,0,1,7.15,8.89,73.31,73.31,0,0,1-11.25,13c-.13-.29-.26-.58-.4-.84a46.91,46.91,0,0,0-10.11-12.14c.15-.12.28-.25.42-.38l-13.86,8.31A105.17,105.17,0,0,1,278.43,185.9Zm-10.95,12.33c0-.88,0-1.77.07-2.69,1.73.17,3.48.3,5.24.4Q270.2,197.16,267.48,198.23Zm32.2-16.08a46.23,46.23,0,0,0,13.46,4,.08.08,0,0,1,0,.05c-5.45,1.63-10.48,3.68-17.1,4.14-.36-.89-.75-2.25-1.19-3.7A42.7,42.7,0,0,0,299.68,182.15Z"/><path class="cls-2" d="M246.29,220.82a51,51,0,0,1,0-8.65c-.32.21-.63.43-.93.64-1.11-2.73-2.29-5.3-3.52-7.73-1.28.2-2.55.39-3.85.56q-2.66-1.08-5.2-2.27-2.55,1.19-5.21,2.27c-1.47-.19-2.92-.41-4.36-.64l-12.37,7.41c2.7-.71,5.45-1.35,8.29-1.89a51.22,51.22,0,0,1,.15,10.3,40.9,40.9,0,0,1-1.33,7.46A69.45,69.45,0,0,0,196.18,236a37.91,37.91,0,0,0,4.93-17.74l-27.58,16.53a49,49,0,0,0,9.22,10.61,46.65,46.65,0,0,0-10.1,12.14c-.14.26-.28.55-.41.84a72.85,72.85,0,0,1-11.24-13c1.34-2,2.79-3.86,4.31-5.69L134.83,258c0,1.31,0,2.62.11,3.91a35.47,35.47,0,0,0,6.21.87c10,5.12,23.16,8.21,36.73,9.1-9.2,5-21.36,8.25-34.56,9.84-2.14-.78-4.21-1.63-6.24-2.52a84,84,0,0,0,4.85,15.49l56.92-34.12a30.71,30.71,0,0,0-2.67-5.74c2.18,1.19,4.46,2.28,6.78,3.27l48.45-29c-1.26-.3-2.52-.56-3.79-.77A40.9,40.9,0,0,1,246.29,220.82Zm-76.76,45.53c-6.62-.46-11.65-2.51-17.1-4.14l0,0a46.13,46.13,0,0,0,13.46-4,42.7,42.7,0,0,0,4.81,4.5C170.28,264.1,169.89,265.46,169.53,266.35ZM203.23,253a37.43,37.43,0,0,1-13.54-7.56,37.43,37.43,0,0,1,13.54-7.56c1.93,2.55,3.89,5,5.77,7.56C207.12,247.94,205.16,250.42,203.23,253Zm35-25.41a44.92,44.92,0,0,0-5.44.38,45.09,45.09,0,0,0-5.45-.38,45.89,45.89,0,0,0-4.94-2.06c1.24-4.26.21-10.94.3-15.61q2.41-.39,4.89-.72c1.76.73,3.5,1.48,5.2,2.27,1.69-.79,3.43-1.54,5.2-2.27,1.65.22,3.28.46,4.88.72.1,4.67-.94,11.35.3,15.61A46.75,46.75,0,0,0,238.24,227.55Z"/><path class="cls-2" d="M97.43,280.4,33.27,318.86v40.93l75.95-45.52A95.43,95.43,0,0,1,97.43,280.4Z"/><path class="cls-2" d="M61.71,151.48l1,.52,14-8.42c-.87-1.5-1.73-3-2.57-4.54,2.73-.93,5.61-1.77,8.62-2.52a12.39,12.39,0,0,0,3.66,1.24l12.45-7.46c-4.83-4-10.46-6-16.11-3-3-.75-5.89-1.59-8.62-2.52A212.78,212.78,0,0,1,92.4,96.61a121.14,121.14,0,0,1,22.64,24l4.14-2.49a122.82,122.82,0,0,1-25-23.73c12.75-15.77,28.46-28.75,49.17-36.3,13.2,1.6,25.36,4.83,34.56,9.85-13.57.89-26.7,4-36.73,9.09-11,.64-20.11,5.33-16.76,17.36-2.4,8.62,1.58,13.47,8.08,15.77l30.22-18.12a72.89,72.89,0,0,1,9.55-10.62c.13.29.27.57.41.83a31.41,31.41,0,0,0,1.71,2.8l26.61-16q.21-2.33.21-4.71a115.14,115.14,0,0,1,14.61-4.17l65.37-39.18H48.26a15,15,0,0,0-15,15V169.63l28-16.8C61.44,152.38,61.56,151.93,61.71,151.48Zm104.2-69.82a46.13,46.13,0,0,0-13.46-4,.17.17,0,0,1,0-.05c5.45-1.64,10.48-3.68,17.1-4.15.36.9.75,2.25,1.19,3.7A43.72,43.72,0,0,0,165.91,81.66Zm32.2-16.09c0,.88,0,1.78-.07,2.7-1.73-.18-3.48-.31-5.23-.41Q195.39,66.65,198.11,65.57Zm-115.34-4c5.67,3,11.32,1,16.15-3.05A179.89,179.89,0,0,1,122,56.9C114.48,71,104.3,82.47,92.4,92.2A213.44,213.44,0,0,1,74.15,64C76.88,63.11,79.76,62.27,82.77,61.52Zm-21.06,15A201.48,201.48,0,0,1,89.63,94.4a201.54,201.54,0,0,1-27.92,17.93A144.19,144.19,0,0,1,57.09,94.4,144.49,144.49,0,0,1,61.71,76.48Z"/><path class="cls-2" d="M408.51,489.4a146,146,0,0,1-4.63,17.93q-6.81-3.69-13.26-7.72l-8.25,4.94q4.78,7.41,9.07,15.22c-2.72.93-5.61,1.77-8.62,2.52-5.67-3-11.32-1-16.15,3.05-3.42.45-6.92.8-10.45,1.06,3.53.26,7,.61,10.45,1.07,4.83,4,10.48,6,16.15,3,3,.75,5.9,1.59,8.62,2.52A213.37,213.37,0,0,1,373.2,561.2a115.83,115.83,0,0,1-28.81-33.88l-9.21,5.52c14.54,7.65,26.31,18.25,36.27,30.56-12.76,15.77-28.46,28.75-49.18,36.3-13.2-1.59-25.36-4.82-34.56-9.84,13.57-.89,26.7-4,36.73-9.1,11-.63,20.11-5.33,16.76-17.36,3.35-12-5.74-16.72-16.75-17.36a70.57,70.57,0,0,0-6.51-2.87l-5.4,3.23.62.2,0,0c-.47.07-.94.16-1.4.24L298,555.12a74.33,74.33,0,0,1,6.59,8.28,73.31,73.31,0,0,1-11.25,13c-.13-.29-.26-.58-.4-.84a45.89,45.89,0,0,0-9.58-11.65L264,575.47q2.76-1.23,5.37-2.66c-3.5,5.76-5,13.05-5,20.59a119.46,119.46,0,0,1-18,4.89,52.08,52.08,0,0,1-.15-10.31h0c.06-.68.14-1.34.22-2l-3.94,2.36c0,3.56.37,7.51.31,10.58-1.6.27-3.23.51-4.88.72q-2.66-1.08-5.2-2.27-2.55,1.18-5.21,2.27c-1.05-.14-2.07-.3-3.1-.46l-88.85,53.25H416.33a15,15,0,0,0,15-15V475.21l-22.91,13.73C408.44,489.1,408.48,489.25,408.51,489.4ZM299.68,576.15a46.23,46.23,0,0,0,13.46,4,.08.08,0,0,1,0,.05c-5.45,1.63-10.48,3.68-17.1,4.14-.36-.89-.75-2.25-1.19-3.7A42.7,42.7,0,0,0,299.68,576.15Zm-32.2,16.08c0-.88,0-1.77.07-2.69,1.73.17,3.48.3,5.24.4Q270.2,591.16,267.48,592.23Zm115.34,4.06c-5.67-3-11.32-1-16.15,3.05a183.45,183.45,0,0,1-23.06,1.57c7.5-14.13,17.68-25.58,29.59-35.3a212.72,212.72,0,0,1,18.24,28.16C388.72,594.7,385.83,595.54,382.82,596.29Zm21.06-15A201.54,201.54,0,0,1,376,563.4a201.48,201.48,0,0,1,27.92-17.92,146.32,146.32,0,0,1,4.63,17.92A146,146,0,0,1,403.88,581.33Z"/><path class="cls-3" d="M345.14,131.93l.1-.06-1.45,0Z"/><path class="cls-3" d="M98.92,133.47a182.46,182.46,0,0,1,22.88-1.57,180.6,180.6,0,0,1-22.88-1.56s0,0,0,0l-12.45,7.46C90.84,138.51,95.13,136.62,98.92,133.47Z"/><path class="cls-4" d="M172.24,232.43c.13.29.27.57.41.83.27.51.56,1,.88,1.53l27.58-16.53c0-.95.07-1.9.07-2.86q4.66-1.68,9.68-3L223.23,205l-.52-.08c-.09-4.66.94-11.34-.3-15.6a48,48,0,0,0,4.94-2.06c.64,0,1.27,0,1.9-.08a44.92,44.92,0,0,0-24.06-12.76c-.66.84-1.31,1.69-2,2.54a32.57,32.57,0,0,1-7.69-3.38,47,47,0,0,0-20.92,4.79,31.47,31.47,0,0,0-2,3.17c-.14.26-.28.55-.41.84-.6-.55-1.17-1.13-1.76-1.7-1.22.76-2.43,1.59-3.61,2.48a45.55,45.55,0,0,0,3.85,3.49c-.44,1.45-.83,2.81-1.19,3.7a43.51,43.51,0,0,1-9-1.63q-1.8,1.83-3.51,3.88a114.69,114.69,0,0,0,20.83,3.26c-8,4.35-18.16,7.35-29.32,9.11q-1.27,2.24-2.43,4.5c12.1,1.7,23.21,4.81,31.75,9.48-13.57.89-26.7,4-36.73,9.09-.83.05-1.64.12-2.44.22a102.78,102.78,0,0,0-3.9,28.31c0,.48,0,.94,0,1.41l30.48-18.27A74.4,74.4,0,0,1,172.24,232.43ZM218,186.53A40.94,40.94,0,0,1,219.3,194h0a51.33,51.33,0,0,1-.15,10.31,119.46,119.46,0,0,1-18-4.89c0-7.54-1.5-14.83-5-20.59A69.7,69.7,0,0,0,218,186.53Zm-19.93,9c0,.92.06,1.81.07,2.69q-2.72-1.08-5.3-2.29C194.56,195.84,196.31,195.71,198,195.54Zm.07,21c0,.88,0,1.78-.07,2.7-1.73-.18-3.48-.31-5.23-.41Q195.39,217.65,198.11,216.57Zm-28.58,7.88c.36.9.75,2.25,1.19,3.7a43.72,43.72,0,0,0-4.81,4.51,46.13,46.13,0,0,0-13.46-4,.17.17,0,0,1,0-.05C157.88,227,162.91,224.92,169.53,224.45Z"/><path class="cls-4" d="M416.33,21.05H281.16L215.79,60.23c1.11-.25,2.22-.49,3.36-.71a51.22,51.22,0,0,1,.15,10.3A40.9,40.9,0,0,1,218,77.28,69.45,69.45,0,0,0,196.18,85,36.83,36.83,0,0,0,201,69.11l-26.61,16a51,51,0,0,0,8.39,9.34,46.65,46.65,0,0,0-10.1,12.14c-.14.26-.28.55-.41.84A72.85,72.85,0,0,1,161,94.4c.54-.8,1.12-1.57,1.69-2.35l-30.22,18.12a32.26,32.26,0,0,0,8.68,1.59c10,5.12,23.16,8.21,36.73,9.1-9.2,5-21.36,8.25-34.56,9.84a103.9,103.9,0,0,1-24.14-12.57L115,120.62A105.34,105.34,0,0,1,122,131.9h0C114.48,146,104.3,157.47,92.4,167.2a201.54,201.54,0,0,1-15.68-23.62l-14,8.42a199.88,199.88,0,0,1,27,17.4,201.54,201.54,0,0,1-27.92,17.93,144.19,144.19,0,0,1-4.62-17.93,144.05,144.05,0,0,1,4.2-16.57l-28,16.8V318.86L97.43,280.4l0-.24c-4.48-3.2-9.55-4.53-14.63-1.87-3-.75-5.89-1.59-8.62-2.52A212.78,212.78,0,0,1,92.4,247.61q2.28,1.86,4.47,3.81c.08-.82.17-1.63.27-2.44q-1.52-1.77-3-3.58,2.14-2.66,4.43-5.21c.2-1,.41-2,.64-2.95q-3.3,3.07-6.82,6A213.44,213.44,0,0,1,74.15,215c2.73-.93,5.61-1.77,8.62-2.52,5.67,3,11.32,1,16.15-3.05,3.85-.52,7.8-.9,11.78-1.17.34-.58.69-1.16,1-1.74-4.34-.27-8.63-.66-12.82-1.22-4.83-4-10.48-6-16.15-3.05-3-.75-5.89-1.59-8.62-2.52A212.78,212.78,0,0,1,92.4,171.61a119.07,119.07,0,0,1,24.65,27q1.67-2.3,3.47-4.53A122.08,122.08,0,0,1,94.15,169.4c12.75-15.77,28.46-28.75,49.17-36.3,13.2,1.6,25.36,4.83,34.56,9.85-13.57.89-26.7,4-36.73,9.09-11,.64-20.11,5.33-16.76,17.36-2,7.28.5,11.87,5.25,14.5a101,101,0,0,1,39.65-24.61c1-1,1.94-1.94,3-2.86.13.29.27.57.41.83s.32.57.49.85a107,107,0,0,1,25.72-3.91,44.24,44.24,0,0,0,2.32-14.8,118.28,118.28,0,0,1,18-4.88,51.22,51.22,0,0,1,.15,10.3,40.9,40.9,0,0,1-1.33,7.46,63.59,63.59,0,0,0-8.47,2q26.72,1.41,47.74,14.25c1.68-2.24,3.41-4.45,5.12-6.71a37.43,37.43,0,0,1,13.54,7.56,42.22,42.22,0,0,1-9,5.86c.86.67,1.7,1.36,2.53,2.07L283.26,169A46.22,46.22,0,0,0,293,157.26c.14-.26.27-.54.4-.83,1.43,1.3,2.78,2.68,4.1,4.08l11.95-7.16a41.61,41.61,0,0,0-9.72,3.31,43.72,43.72,0,0,0-4.81-4.51c.44-1.45.83-2.8,1.19-3.7,5.94.42,10.61,2.11,15.45,3.64l5.47-3.28A106.63,106.63,0,0,0,287.71,143c9.2-5,21.37-8.25,34.56-9.85a103,103,0,0,1,12.08,5.3l9.65-5.79-.39-.7h0c7.51-14.12,17.68-25.57,29.59-35.29,3.24,4.16,6.3,8.51,9.2,13l8.27-5A179,179,0,0,1,376,94.4a201.48,201.48,0,0,1,27.92-17.92A145.3,145.3,0,0,1,408.42,94l22.9-13.72V36A15,15,0,0,0,416.33,21.05Zm-246.8,94.3c-6.62-.46-11.65-2.51-17.1-4.14l0,0a46.13,46.13,0,0,0,13.46-4,42.7,42.7,0,0,0,4.81,4.5C170.28,113.1,169.89,114.46,169.53,115.35ZM89.63,245.4a201.54,201.54,0,0,1-27.92,17.93,144.19,144.19,0,0,1-4.62-17.93,144.49,144.49,0,0,1,4.62-17.92A201.48,201.48,0,0,1,89.63,245.4Zm76.28-88.74a46.13,46.13,0,0,0-13.46-4,.17.17,0,0,1,0-.05c5.45-1.64,10.48-3.68,17.1-4.15.36.9.75,2.25,1.19,3.7A43.72,43.72,0,0,0,165.91,156.66Zm106.88-88.8c-1.76.1-3.51.23-5.24.41,0-.92-.06-1.82-.07-2.7Q270.2,66.65,272.79,67.86Zm-26.35-8.34a118.28,118.28,0,0,1,18,4.88c0,7.54,1.5,14.83,5,20.6a69.2,69.2,0,0,0-21.79-7.72,40.9,40.9,0,0,1-1.33-7.46A52,52,0,0,1,246.44,59.52ZM246.29,119h0a40.94,40.94,0,0,1,1.33-7.45,69.7,69.7,0,0,0,21.79-7.72c-3.5,5.76-5,13-5,20.59a119.46,119.46,0,0,1-18,4.89A52.08,52.08,0,0,1,246.29,119ZM203.23,86.84c1.93,2.55,3.89,5,5.77,7.56-1.88,2.54-3.84,5-5.77,7.56a37.43,37.43,0,0,1-13.54-7.56A37.43,37.43,0,0,1,203.23,86.84ZM198,143.27c-1.73-.18-3.48-.31-5.23-.41q2.58-1.22,5.3-2.29C198.1,141.45,198.08,142.35,198,143.27Zm-5.23-22.33c1.75-.1,3.5-.23,5.23-.4,0,.92.06,1.81.07,2.69Q195.4,122.15,192.81,120.94Zm26.34,8.35a119.46,119.46,0,0,1-18-4.89c0-7.54-1.5-14.83-5-20.59A69.7,69.7,0,0,0,218,111.53,40.94,40.94,0,0,1,219.3,119h0A51.33,51.33,0,0,1,219.15,129.29Zm19.09,22.26a44.92,44.92,0,0,0-5.44.38,45.09,45.09,0,0,0-5.45-.38,45.89,45.89,0,0,0-4.94-2.06c1.24-4.26.21-10.94.3-15.61q2.41-.39,4.89-.72c1.76.73,3.5,1.48,5.2,2.27,1.69-.79,3.43-1.54,5.2-2.27,1.65.22,3.28.46,4.88.72.1,4.67-.94,11.35.3,15.61A46.75,46.75,0,0,0,238.24,151.55Zm4.64-21.63c-1.6.27-3.23.51-4.88.72q-2.66-1.08-5.2-2.27-2.55,1.19-5.21,2.27c-1.64-.21-3.27-.45-4.88-.72-.09-4.66.94-11.34-.3-15.6a48,48,0,0,0,4.94-2.06,47.22,47.22,0,0,0,5.45-.38,47,47,0,0,0,5.44.38,49,49,0,0,0,4.94,2.06C241.94,118.58,243,125.26,242.88,129.92Zm-4.64-53.37a44.92,44.92,0,0,0-5.44.38,45.09,45.09,0,0,0-5.45-.38,45.89,45.89,0,0,0-4.94-2.06c1.24-4.26.21-10.94.3-15.61q2.41-.39,4.89-.72c1.76.73,3.5,1.48,5.2,2.27,1.69-.79,3.43-1.54,5.2-2.27,1.65.22,3.28.46,4.88.72.1,4.67-.94,11.35.3,15.61A46.75,46.75,0,0,0,238.24,76.55Zm9.38,75.73a40.9,40.9,0,0,1-1.33-7.46,52,52,0,0,1,.15-10.3,118.28,118.28,0,0,1,18,4.88c0,7.54,1.5,14.83,5,20.6A69.2,69.2,0,0,0,247.62,152.28Zm19.93-9c0-.92-.06-1.82-.07-2.7q2.72,1.08,5.31,2.29C271,143,269.28,143.09,267.55,143.27Zm-.07-20c0-.88,0-1.77.07-2.69,1.73.17,3.48.3,5.24.4Q270.2,122.16,267.48,123.23ZM262.36,102c-1.93-2.54-3.89-5-5.77-7.56,1.88-2.54,3.84-5,5.77-7.56A37.43,37.43,0,0,1,275.9,94.4,37.43,37.43,0,0,1,262.36,102Zm20.48-7.56A46.58,46.58,0,0,0,293,82.26c.14-.26.27-.54.4-.83a73.25,73.25,0,0,1,11.25,13,73.31,73.31,0,0,1-11.25,13c-.13-.29-.26-.58-.4-.84A46.91,46.91,0,0,0,282.84,94.4Zm30.3-16.75a46.23,46.23,0,0,0-13.46,4,43.72,43.72,0,0,0-4.81-4.51c.44-1.45.83-2.8,1.19-3.7,6.62.47,11.65,2.51,17.1,4.15A.17.17,0,0,1,313.14,77.65Zm0,33.56c-5.45,1.63-10.48,3.68-17.1,4.14-.36-.89-.75-2.25-1.19-3.7a42.7,42.7,0,0,0,4.81-4.5,46.23,46.23,0,0,0,13.46,4A.08.08,0,0,1,313.16,111.21Zm9.11,19.49c-13.2-1.59-25.36-4.82-34.56-9.84,13.57-.89,26.7-4,36.73-9.1,11-.63,20.11-5.33,16.76-17.36,3.35-12-5.74-16.72-16.75-17.36-10-5.11-23.17-8.2-36.74-9.09,9.2-5,21.37-8.25,34.56-9.85,20.72,7.55,36.42,20.53,49.18,36.3C358.69,110.17,343,123.15,322.27,130.7ZM373.2,92.2C361.29,82.47,351.11,71,343.61,56.9a179.77,179.77,0,0,1,23.06,1.57c4.83,4,10.48,6,16.15,3.05,3,.75,5.9,1.59,8.62,2.52A213.37,213.37,0,0,1,373.2,92.2Z"/><path class="cls-4" d="M198.36,365.51A116.31,116.31,0,0,0,231.21,361V337.48A102.51,102.51,0,0,1,210,339.57a83.15,83.15,0,0,1-19.34-2.18v27.84C193.21,365.4,195.76,365.51,198.36,365.51Z"/><path class="cls-4" d="M58.08,494.15c-.36-1.58-.69-3.16-1-4.75a144.49,144.49,0,0,1,4.62-17.92c5.92,3.2,11.65,6.59,17.15,10.22l6.66-4c-4.07-6-7.83-12.26-11.37-18.67,2.73-.93,5.61-1.77,8.62-2.52,5.67,3,11.32,1,16.15-3,3.42-.46,6.92-.81,10.45-1.07-3.53-.26-7-.61-10.45-1.06-4.83-4-10.48-6-16.15-3-3-.75-5.89-1.59-8.62-2.52A212.78,212.78,0,0,1,92.4,417.61a115.65,115.65,0,0,1,29,34.3H122l-.27.5.27.51h-.54q-1.41,2.57-2.93,5l16.31-9.78c-16.6-7.76-29.73-19.22-40.67-32.76,12.75-15.77,28.46-28.75,49.17-36.3,13.2,1.6,25.36,4.83,34.56,9.85-13.57.89-26.7,4-36.73,9.09-11,.64-20.11,5.33-16.76,17.36-3.35,12,5.74,16.73,16.76,17.36a73.8,73.8,0,0,0,11.63,4.64l5.55-3.33c-2-.61-3.91-1.27-5.9-1.86l0,0a46.13,46.13,0,0,0,13.46-4c.27.3.55.59.83.88l3.81-2.29A72.52,72.52,0,0,1,161,415.4a72.79,72.79,0,0,1,11.24-13c.13.29.27.57.41.83a46.33,46.33,0,0,0,10.1,12.14,52.13,52.13,0,0,0-8.05,8.86l15.66-9.39.33-.26V365.23C165.78,363.6,144.31,354,126.06,336a104.68,104.68,0,0,1-16.84-21.73L33.27,359.79V505.37l1.61,2.69Zm107.83-91.49a46.13,46.13,0,0,0-13.46-4l0,0c5.45-1.64,10.48-3.68,17.1-4.15.36.9.75,2.25,1.19,3.7A43.72,43.72,0,0,0,165.91,402.66ZM82.77,382.52c5.67,3,11.32,1,16.15-3A179.89,179.89,0,0,1,122,377.9c-7.5,14.12-17.68,25.57-29.58,35.3A213.44,213.44,0,0,1,74.15,385C76.88,384.11,79.76,383.27,82.77,382.52Zm-21.06,15A201.48,201.48,0,0,1,89.63,415.4a201.54,201.54,0,0,1-27.92,17.93,144.19,144.19,0,0,1-4.62-17.93A144.49,144.49,0,0,1,61.71,397.48Z"/><path class="cls-4" d="M232.8,381.43c1.69-.79,3.43-1.54,5.2-2.27,1.65.22,3.28.46,4.88.72,0,1.09,0,2.3-.08,3.55l3.57-2.13c0-.26,0-.52.07-.78l.91.19,21.52-12.9q4.85-3.36,9-6.73c19.13-15.24,28.85-29.18,28.85-42.47q0-14.1-10.7-24.32c-7.13-7.13-15.24-10.69-24.64-10.69-8.43,0-17.18,3.24-25.93,10-9.41,7.13-14.27,14.59-14.27,22.69v21.14a75.62,75.62,0,0,0,19-6.66c5.19-2.92,12-7.78,20.42-15.24q8.76-7.79,17.51-7.78c-4.54,18.48-16.21,33.07-34.69,43.77A104.16,104.16,0,0,1,231.21,361v19.76Z"/><path class="cls-3" d="M341.88,174.82l-25.94,15.55a67.84,67.84,0,0,0,8.5-3.61C333.62,186.24,341.46,182.88,341.88,174.82Z"/><path class="cls-4" d="M373.2,167.2q-3.9-3.19-7.54-6.63l-1.27.76c2.45,2.59,4.8,5.29,7.06,8.07-12.76,15.77-28.46,28.75-49.18,36.3a118.36,118.36,0,0,1-23.44-5.07l-28.55,17.11c.84.36,1.68.74,2.51,1.12-1.69.1-3.37.22-5,.39l-3.06,1.83A36.22,36.22,0,0,0,269.41,236a70.87,70.87,0,0,0-18-6.95l-48.45,29a66.4,66.4,0,0,0,15,4.45A40.94,40.94,0,0,1,219.3,270h0a51.33,51.33,0,0,1-.15,10.31,119.46,119.46,0,0,1-18-4.89,44.54,44.54,0,0,0-2.33-14.85l-56.92,34.12a75.32,75.32,0,0,0,12.66,20.26,66.33,66.33,0,0,0,36.1,22.46v-3.54c0-11.35-5.84-20.43-17.51-27.88v-7.46q15.9-1.45,51.9-17.24c-.79-.11-1.59-.22-2.37-.35-.09-4.66.94-11.34-.3-15.6a48,48,0,0,0,4.94-2.06,47.22,47.22,0,0,0,5.45-.38,47,47,0,0,0,5.44.38,49,49,0,0,0,4.94,2.06c-.71,2.44-.67,5.69-.53,8.89,1.17-.42,2.33-.84,3.48-1.23,0-1,.07-2,.16-3h0a40.94,40.94,0,0,1,1.33-7.45,69.7,69.7,0,0,0,21.79-7.72A35,35,0,0,0,265,267.69a81.41,81.41,0,0,1,16.48-1.92,89,89,0,0,1,24.8,3.39,80,80,0,0,0,18.18-6.4c11-.63,20.11-5.33,16.76-17.36,3.35-12-5.74-16.72-16.75-17.36-10-5.11-23.17-8.2-36.74-9.09,9.2-5,21.37-8.25,34.56-9.85,20.72,7.55,36.42,20.53,49.18,36.3-11.48,14.19-25.36,26.11-43.12,33.86,14,9.27,20.89,21.53,20.89,37.08,0,1.14-.06,2.28-.16,3.41l82.26-49.31V121.21l-45.25,27.13A196.31,196.31,0,0,1,373.2,167.2ZM192.81,271.94c1.75-.1,3.5-.23,5.23-.4,0,.92.06,1.81.07,2.69Q195.4,273.15,192.81,271.94Zm69.55-19c-1.93-2.54-3.89-5-5.77-7.56,1.88-2.54,3.84-5,5.77-7.56a37.43,37.43,0,0,1,13.54,7.56A37.43,37.43,0,0,1,262.36,253Zm33.7,13.39c-.36-.89-.75-2.25-1.19-3.7a42.7,42.7,0,0,0,4.81-4.5,46.23,46.23,0,0,0,13.46,4,.08.08,0,0,1,0,0C307.71,263.84,302.68,265.89,296.06,266.35Zm0-41.9c6.62.47,11.65,2.51,17.1,4.15a.17.17,0,0,1,0,.05,46.23,46.23,0,0,0-13.46,4,43.72,43.72,0,0,0-4.81-4.51C295.31,226.7,295.7,225.35,296.06,224.45ZM293,233.26c.14-.26.27-.54.4-.83a73.25,73.25,0,0,1,11.25,13,73.31,73.31,0,0,1-11.25,13c-.13-.29-.26-.58-.4-.84a46.91,46.91,0,0,0-10.11-12.14A46.58,46.58,0,0,0,293,233.26Zm80.25-61.65a212.72,212.72,0,0,1,18.24,28.16c-2.72.93-5.61,1.77-8.62,2.52-5.67-3-11.32-1-16.15,3.05a183.45,183.45,0,0,1-23.06,1.57C351.11,192.78,361.29,181.33,373.2,171.61ZM343.61,207.9a179.77,179.77,0,0,1,23.06,1.57c4.83,4,10.48,6,16.15,3.05,3,.75,5.9,1.59,8.62,2.52A213.37,213.37,0,0,1,373.2,243.2C361.29,233.47,351.11,222,343.61,207.9Zm39.21,70.39c-5.67-3-11.32-1-16.15,3a183.45,183.45,0,0,1-23.06,1.57c7.5-14.13,17.68-25.58,29.59-35.3a212.72,212.72,0,0,1,18.24,28.16C388.72,276.7,385.83,277.54,382.82,278.29Zm21.06-15A201.54,201.54,0,0,1,376,245.4a201.48,201.48,0,0,1,27.92-17.92,146.32,146.32,0,0,1,4.63,17.92A146,146,0,0,1,403.88,263.33Zm0-76A201.54,201.54,0,0,1,376,169.4a201.48,201.48,0,0,1,27.92-17.92,146.32,146.32,0,0,1,4.63,17.92A146,146,0,0,1,403.88,187.33Z"/><path class="cls-3" d="M177.92,477.86,174.33,480c.36.54.75,1.08,1.15,1.62C175.92,480.9,176.72,479.63,177.92,477.86Z"/><path class="cls-3" d="M98.92,527.47c3.42-.46,6.92-.81,10.45-1.07-3.53-.26-7-.61-10.45-1.06l-.09-.07-11.08,6.64C91.69,532.12,95.51,530.31,98.92,527.47Z"/><path class="cls-4" d="M366.67,379.47c4.83,4,10.48,6,16.15,3,3,.75,5.9,1.59,8.62,2.52A213.37,213.37,0,0,1,373.2,413.2c-11.77-9.61-21.84-20.91-29.32-34.81l-9.79,5.87c15,7.7,27.15,18.52,37.36,31.14a124.41,124.41,0,0,1-22.64,22c1,.94,2,1.81,2.9,2.61a121.6,121.6,0,0,1,21.49-22.39c3.8,4.88,7.34,10,10.68,15.32a35.55,35.55,0,0,1,9.94-5.35A183.93,183.93,0,0,1,376,415.4a201.48,201.48,0,0,1,27.92-17.92,146.32,146.32,0,0,1,4.63,17.92,148,148,0,0,1-3.64,14.73l.76,1.95c-6.88,11.11-12.55,19.78-17.11,26,1,.3,2,.61,2.92.94A213.37,213.37,0,0,1,373.2,487.2q-4.83-3.94-9.25-8.29l-1.38.53q4.67,4.76,8.88,10c-12.76,15.77-28.46,28.75-49.18,36.3-13.2-1.59-25.36-4.82-34.56-9.84,13.57-.89,26.7-4,36.73-9.1,11-.63,20.11-5.33,16.76-17.36a14.1,14.1,0,0,0,.1-8.51,39.52,39.52,0,0,1-18.71-9.75c-9.77-4.58-22.13-7.36-34.88-8.19a83.66,83.66,0,0,1,22-7.74L305,448.46a78.25,78.25,0,0,1-17.24-6.6c4-.26,7.88-.72,11.7-1.35l-2.93-4.2-.42,0c-.15-.36-.3-.81-.46-1.3L287,422.68a66.29,66.29,0,0,0-5.5-6.88L258,429.85a73.64,73.64,0,0,0,11.39-5c-3.5,5.76-5,13.05-5,20.59a119.46,119.46,0,0,1-18,4.89,52.08,52.08,0,0,1-.15-10.31h0c.1-1.16.25-2.27.44-3.36l-4.12,2.47c-.2,3.85.34,8.39.27,11.83-1.6.27-3.23.51-4.88.72q-2.66-1.08-5.2-2.27l-1.25.56q.82,2.31,2,5.15,2.16-1,4.41-1.92c1.65.22,3.28.46,4.88.72.1,4.67-.94,11.35.3,15.61-.72.25-1.5.54-2.31.88a110.76,110.76,0,0,1,5.25,11.31h-70.6a53.67,53.67,0,0,0,7.23,7.72,46.65,46.65,0,0,0-10.1,12.14c-.14.26-.28.55-.41.84a72.85,72.85,0,0,1-11.24-13c.57-.84,1.17-1.65,1.77-2.46l-30.36,18.2a31.42,31.42,0,0,0,8.74,1.62c10,5.12,23.16,8.21,36.73,9.1-9.2,5-21.36,8.25-34.56,9.84a104.34,104.34,0,0,1-24.19-12.6L115,515.57a107.57,107.57,0,0,1,6.43,10.34H122l-.27.5.27.51h-.54c-7.45,13.66-17.42,24.8-29,34.3a203.34,203.34,0,0,1-15.28-22.92l-13.64,8.17A199.67,199.67,0,0,1,89.63,563.4a201.54,201.54,0,0,1-27.92,17.93,144.19,144.19,0,0,1-4.62-17.93A145.37,145.37,0,0,1,60.94,548L33.27,564.56v36.72l30.66,51.15h71.71l88.85-53.25c-.59-.09-1.2-.16-1.78-.26-.09-4.66.94-11.34-.3-15.6a48,48,0,0,0,4.94-2.06,47.22,47.22,0,0,0,5.45-.38,47,47,0,0,0,5.44.38,49,49,0,0,0,4.94,2.06,19.66,19.66,0,0,0-.61,5l3.94-2.36a42,42,0,0,1,1.11-5.45A66.9,66.9,0,0,0,264,575.47l19.33-11.58-.53-.49A46.58,46.58,0,0,0,293,551.26c.14-.26.27-.54.4-.83,1.63,1.49,3.17,3.07,4.66,4.69l13.73-8.23a44.43,44.43,0,0,0-12.06,3.77,43.72,43.72,0,0,0-4.81-4.51c.44-1.45.83-2.8,1.19-3.7,6.37.45,11.27,2.36,16.48,3.95l5.4-3.23A105.41,105.41,0,0,0,287.71,537c9.2-5,21.37-8.25,34.56-9.85a105,105,0,0,1,12.91,5.74l9.21-5.52c-.08-.14-.16-.28-.23-.42h-.55l.27-.51-.27-.5h.55a115.51,115.51,0,0,1,29-34.3c3.23,4.15,6.27,8.48,9.17,12.94l8.25-4.94A177.83,177.83,0,0,1,376,489.4a201.48,201.48,0,0,1,27.92-17.92,146.71,146.71,0,0,1,4.53,17.46l22.91-13.73V326l-86.65,51.94A182.11,182.11,0,0,1,366.67,379.47ZM169.53,510.35c-6.62-.46-11.65-2.51-17.1-4.14l0,0a46.13,46.13,0,0,0,13.46-4,42.7,42.7,0,0,0,4.81,4.5C170.28,508.1,169.89,509.46,169.53,510.35Zm-70.61,89c-4.83-4-10.48-6-16.15-3.05-3-.75-5.89-1.59-8.62-2.52A212.78,212.78,0,0,1,92.4,565.61c11.9,9.72,22.08,21.17,29.58,35.3A183.58,183.58,0,0,1,98.92,599.34Zm44.4.36c-20.71-7.55-36.42-20.53-49.17-36.3,12.75-15.77,28.46-28.75,49.17-36.3,13.2,1.6,25.36,4.83,34.56,9.85-13.57.89-26.7,4-36.73,9.09-11,.64-20.11,5.33-16.76,17.36-3.35,12,5.74,16.73,16.76,17.36,10,5.12,23.16,8.21,36.73,9.1C168.68,594.88,156.52,598.11,143.32,599.7Zm9.11-53.1c5.45-1.64,10.48-3.68,17.1-4.15.36.9.75,2.25,1.19,3.7a43.72,43.72,0,0,0-4.81,4.51,46.13,46.13,0,0,0-13.46-4Zm13.48,29.55a42.7,42.7,0,0,0,4.81,4.5c-.44,1.45-.83,2.81-1.19,3.7-6.62-.46-11.65-2.51-17.1-4.14l0-.05A46.13,46.13,0,0,0,165.91,576.15Zm6.74-.61c-.14.26-.28.55-.41.84a72.85,72.85,0,0,1-11.24-13,72.79,72.79,0,0,1,11.24-13c.13.29.27.57.41.83a46.33,46.33,0,0,0,10.1,12.14A46.65,46.65,0,0,0,172.65,575.54Zm30.58-93.7c1.93,2.55,3.89,5,5.77,7.56-1.88,2.54-3.84,5-5.77,7.56a37.43,37.43,0,0,1-13.54-7.56A37.43,37.43,0,0,1,203.23,481.84Zm-2,51.56a118.28,118.28,0,0,1,18-4.88,51.22,51.22,0,0,1,.15,10.3,40.9,40.9,0,0,1-1.33,7.46A69.45,69.45,0,0,0,196.18,554C199.68,548.23,201.21,540.94,201.18,533.4Zm-8.37,3.46q2.58-1.22,5.3-2.29c0,.88,0,1.78-.07,2.7C196.31,537.09,194.56,537,192.81,536.86Zm0-20.92c1.75-.1,3.5-.23,5.23-.4,0,.92.06,1.81.07,2.69Q195.4,517.15,192.81,515.94Zm10.42,39.9c1.93,2.55,3.89,5,5.77,7.56-1.88,2.54-3.84,5-5.77,7.56a37.43,37.43,0,0,1-13.54-7.56A37.43,37.43,0,0,1,203.23,555.84Zm-10.42,34.1c1.75-.1,3.5-.23,5.23-.4,0,.92.06,1.81.07,2.69Q195.4,591.15,192.81,589.94Zm26.34,8.35a119.46,119.46,0,0,1-18-4.89c0-7.54-1.5-14.83-5-20.59A69.7,69.7,0,0,0,218,580.53,40.94,40.94,0,0,1,219.3,588h0A51.33,51.33,0,0,1,219.15,598.29Zm0-74a119.46,119.46,0,0,1-18-4.89c0-7.54-1.5-14.83-5-20.59A69.7,69.7,0,0,0,218,506.53,40.94,40.94,0,0,1,219.3,514h0A51.33,51.33,0,0,1,219.15,524.29Zm48.4-82.75c1.73.17,3.48.3,5.24.4q-2.6,1.21-5.31,2.29C267.49,443.35,267.51,442.46,267.55,441.54Zm5.24,21.32c-1.76.1-3.51.23-5.24.41,0-.92-.06-1.82-.07-2.7Q270.2,461.65,272.79,462.86Zm-26.35-8.34a118.28,118.28,0,0,1,18,4.88c0,7.54,1.5,14.83,5,20.6a69.2,69.2,0,0,0-21.79-7.72,40.9,40.9,0,0,1-1.33-7.46A52,52,0,0,1,246.44,454.52ZM246.29,514h0a40.94,40.94,0,0,1,1.33-7.45,69.7,69.7,0,0,0,21.79-7.72c-3.5,5.76-5,13.05-5,20.59a119.46,119.46,0,0,1-18,4.89A52.08,52.08,0,0,1,246.29,514Zm21.19,4.25c0-.88,0-1.77.07-2.69,1.73.17,3.48.3,5.24.4Q270.2,517.16,267.48,518.23Zm5.31,18.63c-1.76.1-3.51.23-5.24.41,0-.92-.06-1.82-.07-2.7Q270.2,535.65,272.79,536.86Zm-34.55,8.69a44.92,44.92,0,0,0-5.44.38,45.09,45.09,0,0,0-5.45-.38,45.89,45.89,0,0,0-4.94-2.06c1.24-4.26.21-10.94.3-15.61q2.41-.39,4.89-.72c1.76.73,3.5,1.48,5.2,2.27,1.69-.79,3.43-1.54,5.2-2.27,1.65.22,3.28.46,4.88.72.1,4.67-.94,11.35.3,15.61A46.75,46.75,0,0,0,238.24,545.55Zm4.64-20.63c-1.6.27-3.23.51-4.88.72q-2.66-1.08-5.2-2.27-2.55,1.18-5.21,2.27c-1.64-.21-3.27-.45-4.88-.72-.09-4.66.94-11.34-.3-15.6a48,48,0,0,0,4.94-2.06,47.22,47.22,0,0,0,5.45-.38,47,47,0,0,0,5.44.38,49,49,0,0,0,4.94,2.06C241.94,513.58,243,520.26,242.88,524.92Zm4.74,21.36a40.9,40.9,0,0,1-1.33-7.46,52,52,0,0,1,.15-10.3,118.28,118.28,0,0,1,18,4.88c0,7.54,1.5,14.83,5,20.6A69.2,69.2,0,0,0,247.62,546.28ZM262.36,571c-1.93-2.54-3.89-5-5.77-7.56,1.88-2.54,3.84-5,5.77-7.56a37.43,37.43,0,0,1,13.54,7.56A37.43,37.43,0,0,1,262.36,571Zm0-74c-1.93-2.54-3.89-5-5.77-7.56,1.88-2.54,3.84-5,5.77-7.56a37.43,37.43,0,0,1,13.54,7.56A37.43,37.43,0,0,1,262.36,497Zm33.7,13.39c-.36-.89-.75-2.25-1.19-3.7a42.7,42.7,0,0,0,4.81-4.5,46.23,46.23,0,0,0,13.46,4,.08.08,0,0,1,0,0C307.71,507.84,302.68,509.89,296.06,510.35Zm0-41.9c6.62.47,11.65,2.51,17.1,4.15l0,0a46.23,46.23,0,0,0-13.46,4,43.72,43.72,0,0,0-4.81-4.51C295.31,470.7,295.7,469.35,296.06,468.45ZM282.84,489.4A46.58,46.58,0,0,0,293,477.26c.14-.26.27-.54.4-.83a73.25,73.25,0,0,1,11.25,13,73.31,73.31,0,0,1-11.25,13c-.13-.29-.26-.58-.4-.84A46.91,46.91,0,0,0,282.84,489.4Z"/><path class="cls-4" d="M341.2,415.4c3.35-12-5.74-16.72-16.75-17.36a68.17,68.17,0,0,0-7.78-3.34L312.89,397q7.11,8.26,16.88,19.87,5,5.91,9.33,10.67C341.69,424.76,342.71,420.83,341.2,415.4Z"/><path class="cls-5" d="M61.29,152.83a144.05,144.05,0,0,0-4.2,16.57,144.19,144.19,0,0,0,4.62,17.93A201.54,201.54,0,0,0,89.63,169.4a199.88,199.88,0,0,0-27-17.4l-1-.52C61.56,151.93,61.44,152.38,61.29,152.83Z"/><path class="cls-5" d="M275.9,169.4a37.43,37.43,0,0,0-13.54-7.56c-1.71,2.26-3.44,4.47-5.12,6.71a97.71,97.71,0,0,1,9.63,6.71A42.22,42.22,0,0,0,275.9,169.4Z"/><path class="cls-5" d="M376,169.4a201.54,201.54,0,0,0,27.92,17.93,146,146,0,0,0,4.63-17.93,146.32,146.32,0,0,0-4.63-17.92A201.48,201.48,0,0,0,376,169.4Z"/><path class="cls-5" d="M382.82,202.29c3-.75,5.9-1.59,8.62-2.52a212.72,212.72,0,0,0-18.24-28.16c-11.91,9.72-22.09,21.17-29.59,35.3a183.45,183.45,0,0,0,23.06-1.57C371.5,201.31,377.15,199.32,382.82,202.29Z"/><path class="cls-5" d="M92.4,171.61a212.78,212.78,0,0,0-18.25,28.16c2.73.93,5.61,1.77,8.62,2.52,5.67-3,11.32-1,16.15,3.05,4.19.56,8.48.95,12.82,1.22q2.46-4.08,5.31-8A119.07,119.07,0,0,0,92.4,171.61Z"/><path class="cls-5" d="M267.48,198.23q2.72-1.08,5.31-2.29c-1.76-.1-3.51-.23-5.24-.4C267.51,196.46,267.49,197.35,267.48,198.23Z"/><path class="cls-5" d="M198,143.27c0-.92.06-1.82.07-2.7q-2.72,1.08-5.3,2.29C194.56,143,196.31,143.09,198,143.27Z"/><path class="cls-5" d="M242.88,133.88c-1.6-.26-3.23-.5-4.88-.72-1.77.73-3.51,1.48-5.2,2.27-1.7-.79-3.44-1.54-5.2-2.27q-2.47.33-4.89.72c-.09,4.67.94,11.35-.3,15.61a45.89,45.89,0,0,1,4.94,2.06,45.09,45.09,0,0,1,5.45.38,44.92,44.92,0,0,1,5.44-.38,46.75,46.75,0,0,1,4.94-2.06C241.94,145.23,243,138.55,242.88,133.88Z"/><path class="cls-5" d="M246.44,134.52a52,52,0,0,0-.15,10.3,40.9,40.9,0,0,0,1.33,7.46A69.2,69.2,0,0,1,269.41,160c-3.5-5.77-5-13.06-5-20.6A118.28,118.28,0,0,0,246.44,134.52Z"/><path class="cls-5" d="M172.65,157.26c-.14-.26-.28-.54-.41-.83-1,.92-2,1.88-3,2.86,1.27-.42,2.55-.81,3.85-1.18C173,157.83,172.8,157.54,172.65,157.26Z"/><path class="cls-5" d="M172.65,181.54a31.47,31.47,0,0,1,2-3.17,44.37,44.37,0,0,0-4.14,2.31c.59.57,1.16,1.15,1.76,1.7C172.37,182.09,172.51,181.8,172.65,181.54Z"/><path class="cls-5" d="M170.72,186.65a45.55,45.55,0,0,1-3.85-3.49,57.1,57.1,0,0,0-6.31,5.56,43.51,43.51,0,0,0,9,1.63C169.89,189.46,170.28,188.1,170.72,186.65Z"/><path class="cls-5" d="M209.5,154.3a63.59,63.59,0,0,1,8.47-2,40.9,40.9,0,0,0,1.33-7.46,51.22,51.22,0,0,0-.15-10.3,118.28,118.28,0,0,0-18,4.88,44.24,44.24,0,0,1-2.32,14.8c1.34,0,2.68-.07,4-.07Q206.24,154.13,209.5,154.3Z"/><path class="cls-5" d="M264.44,198.13l-2.57,2.13c.85-.28,1.71-.56,2.54-.86C264.41,199,264.43,198.55,264.44,198.13Z"/><path class="cls-5" d="M313.16,186.21a.08.08,0,0,0,0-.05,46.23,46.23,0,0,1-13.46-4,42.7,42.7,0,0,1-4.81,4.5c.44,1.45.83,2.81,1.19,3.7C302.68,189.89,307.71,187.84,313.16,186.21Z"/><path class="cls-5" d="M267.55,143.27c1.73-.18,3.48-.31,5.24-.41q-2.6-1.22-5.31-2.29C267.49,141.45,267.51,142.35,267.55,143.27Z"/><path class="cls-5" d="M293,181.54c.14.26.27.55.4.84a73.31,73.31,0,0,0,11.25-13,73.79,73.79,0,0,0-7.15-8.89c-1.32-1.4-2.67-2.78-4.1-4.08-.13.29-.26.57-.4.83A46.22,46.22,0,0,1,283.26,169c-.14.13-.27.26-.42.38A46.91,46.91,0,0,1,293,181.54Z"/><path class="cls-5" d="M205.19,174.42a51.61,51.61,0,0,0-9.43-.84h-.22a32.57,32.57,0,0,0,7.69,3.38C203.88,176.11,204.53,175.26,205.19,174.42Z"/><path class="cls-5" d="M313.16,152.6l-1.65-.51c-4.84-1.53-9.51-3.22-15.45-3.64-.36.9-.75,2.25-1.19,3.7a43.72,43.72,0,0,1,4.81,4.51,41.61,41.61,0,0,1,9.72-3.31c1.22-.27,2.47-.51,3.74-.7A.17.17,0,0,0,313.16,152.6Z"/><path class="cls-5" d="M341.2,169.4a17,17,0,0,1,.68,5.42c-.42,8.06-8.26,11.42-17.44,11.94a67.84,67.84,0,0,1-8.5,3.61,108,108,0,0,1-28.23,5.49,69.92,69.92,0,0,0,11.12,4.77,118.36,118.36,0,0,0,23.44,5.07c20.72-7.55,36.42-20.53,49.18-36.3-2.26-2.78-4.61-5.48-7.06-8.07a111,111,0,0,0-30-22.93,103,103,0,0,0-12.08-5.3c-13.19,1.6-25.36,4.83-34.56,9.85A106.63,106.63,0,0,1,317,148.81a69.68,69.68,0,0,1,7.47,3.23C335.46,152.68,344.55,157.37,341.2,169.4Z"/><path class="cls-5" d="M152.43,152.6a.17.17,0,0,0,0,.05,46.13,46.13,0,0,1,13.46,4,43.72,43.72,0,0,1,4.81-4.51c-.44-1.45-.83-2.8-1.19-3.7C162.91,148.92,157.88,151,152.43,152.6Z"/><path class="cls-5" d="M365.66,160.57q3.64,3.44,7.54,6.63a196.31,196.31,0,0,0,12.87-18.86c1.84-3.06,3.64-6.16,5.37-9.3-2.72-.93-5.61-1.77-8.62-2.52-5.67,3-11.32,1-16.15-3.05a180.59,180.59,0,0,0-21.53-1.54l-1.35,0h-.18l.39.7A111.59,111.59,0,0,0,365.66,160.57Z"/><polygon class="cls-5" points="343.61 131.9 343.61 131.9 343.61 131.9 343.61 131.9"/><path class="cls-5" d="M222.41,189.32c1.24,4.26.21,10.94.3,15.6l.52.08c1.44.23,2.89.45,4.36.64q2.66-1.08,5.21-2.27,2.55,1.19,5.2,2.27c1.3-.17,2.57-.36,3.85-.56a68.92,68.92,0,0,0-12.6-17.9c-.63,0-1.26.07-1.9.08A48,48,0,0,1,222.41,189.32Z"/><polygon class="cls-5" points="121.98 131.9 121.98 131.9 121.98 131.9 121.98 131.9"/><path class="cls-5" d="M98.92,133.47c-3.79,3.15-8.08,5-12.49,4.29a12.39,12.39,0,0,1-3.66-1.24c-3,.75-5.89,1.59-8.62,2.52.84,1.52,1.7,3,2.57,4.54A201.54,201.54,0,0,0,92.4,167.2c11.9-9.73,22.08-21.17,29.58-35.29h-.18A182.46,182.46,0,0,0,98.92,133.47Z"/><path class="cls-5" d="M219.15,204.29A51.33,51.33,0,0,0,219.3,194h0a40.94,40.94,0,0,0-1.33-7.45,69.7,69.7,0,0,1-21.79-7.72c3.5,5.76,5,13.05,5,20.59A119.46,119.46,0,0,0,219.15,204.29Z"/><path class="cls-5" d="M198,195.54c-1.73.17-3.48.3-5.23.4q2.58,1.22,5.3,2.29C198.1,197.35,198.08,196.46,198,195.54Z"/><path class="cls-5" d="M129.64,183.9c-4.75-2.63-7.28-7.22-5.25-14.5-3.35-12,5.74-16.72,16.76-17.36,10-5.11,23.16-8.2,36.73-9.09-9.2-5-21.36-8.25-34.56-9.85-20.71,7.55-36.42,20.53-49.17,36.3A122.08,122.08,0,0,0,120.52,194q3.06-3.82,6.51-7.5C127.89,185.64,128.76,184.77,129.64,183.9Z"/><path class="cls-5" d="M157.05,192.6a80.91,80.91,0,0,0-7,9.83c-.51.84-1,1.69-1.49,2.54,11.16-1.76,21.35-4.76,29.32-9.11A114.69,114.69,0,0,1,157.05,192.6Z"/><path class="cls-5" d="M89.63,94.4A201.48,201.48,0,0,0,61.71,76.48,144.49,144.49,0,0,0,57.09,94.4a144.19,144.19,0,0,0,4.62,17.93A201.54,201.54,0,0,0,89.63,94.4Z"/><path class="cls-5" d="M256.59,94.4c1.88,2.54,3.84,5,5.77,7.56A37.43,37.43,0,0,0,275.9,94.4a37.43,37.43,0,0,0-13.54-7.56C260.43,89.39,258.47,91.86,256.59,94.4Z"/><path class="cls-5" d="M408.51,94.4l-.09-.4a145.3,145.3,0,0,0-4.54-17.52A201.48,201.48,0,0,0,376,94.4a179,179,0,0,0,14.71,10.24q6.42,4,13.21,7.69A146,146,0,0,0,408.51,94.4Z"/><path class="cls-5" d="M345.24,131.87a178.92,178.92,0,0,0,21.43-1.53c4.83-4,10.48-6,16.15-3,3-.75,5.9-1.59,8.62-2.52q-4.29-7.77-9-15.17c-2.9-4.48-6-8.83-9.2-13-11.91,9.72-22.08,21.17-29.59,35.29h.18Z"/><path class="cls-5" d="M92.4,96.61a212.78,212.78,0,0,0-18.25,28.16c2.73.93,5.61,1.77,8.62,2.52,5.65-3,11.28-1,16.11,3,0,0,0,0,0,0a180.6,180.6,0,0,0,22.88,1.56H122A105.34,105.34,0,0,0,115,120.62,121.14,121.14,0,0,0,92.4,96.61Z"/><path class="cls-5" d="M267.48,123.23q2.72-1.08,5.31-2.29c-1.76-.1-3.51-.23-5.24-.4C267.51,121.46,267.49,122.35,267.48,123.23Z"/><path class="cls-5" d="M198.11,65.57q-2.72,1.08-5.3,2.29c1.75.1,3.5.23,5.23.41C198.08,67.35,198.1,66.45,198.11,65.57Z"/><path class="cls-5" d="M242.88,58.88c-1.6-.26-3.23-.5-4.88-.72-1.77.73-3.51,1.48-5.2,2.27-1.7-.79-3.44-1.54-5.2-2.27q-2.47.33-4.89.72c-.09,4.67.94,11.35-.3,15.61a45.89,45.89,0,0,1,4.94,2.06,45.09,45.09,0,0,1,5.45.38,44.92,44.92,0,0,1,5.44-.38,46.75,46.75,0,0,1,4.94-2.06C241.94,70.23,243,63.55,242.88,58.88Z"/><path class="cls-5" d="M247.62,77.28A69.2,69.2,0,0,1,269.41,85c-3.5-5.77-5-13.06-5-20.6a118.28,118.28,0,0,0-18-4.88,52,52,0,0,0-.15,10.3A40.9,40.9,0,0,0,247.62,77.28Z"/><path class="cls-5" d="M172.24,81.43a72.89,72.89,0,0,0-9.55,10.62c-.57.78-1.15,1.55-1.69,2.35a72.85,72.85,0,0,0,11.24,13c.13-.29.27-.58.41-.84a46.65,46.65,0,0,1,10.1-12.14,51,51,0,0,1-8.39-9.34,31.41,31.41,0,0,1-1.71-2.8C172.51,82,172.37,81.72,172.24,81.43Z"/><path class="cls-5" d="M165.91,107.15a46.13,46.13,0,0,1-13.46,4l0,0c5.45,1.63,10.48,3.68,17.1,4.14.36-.89.75-2.25,1.19-3.7A42.7,42.7,0,0,1,165.91,107.15Z"/><path class="cls-5" d="M201,69.11A36.83,36.83,0,0,1,196.18,85,69.45,69.45,0,0,1,218,77.28a40.9,40.9,0,0,0,1.33-7.46,51.22,51.22,0,0,0-.15-10.3c-1.14.22-2.25.46-3.36.71a115.14,115.14,0,0,0-14.61,4.17Q201.18,66.79,201,69.11Z"/><path class="cls-5" d="M264.41,124.4c0-7.54,1.5-14.83,5-20.59a69.7,69.7,0,0,1-21.79,7.72,40.94,40.94,0,0,0-1.33,7.45h0a52.08,52.08,0,0,0,.15,10.31A119.46,119.46,0,0,0,264.41,124.4Z"/><path class="cls-5" d="M294.87,111.65c.44,1.45.83,2.81,1.19,3.7,6.62-.46,11.65-2.51,17.1-4.14a.08.08,0,0,0,0,0,46.23,46.23,0,0,1-13.46-4A42.7,42.7,0,0,1,294.87,111.65Z"/><path class="cls-5" d="M272.79,67.86q-2.6-1.22-5.31-2.29c0,.88,0,1.78.07,2.7C269.28,68.09,271,68,272.79,67.86Z"/><path class="cls-5" d="M293.35,107.38a73.31,73.31,0,0,0,11.25-13,73.25,73.25,0,0,0-11.25-13c-.13.29-.26.57-.4.83A46.58,46.58,0,0,1,282.84,94.4,46.91,46.91,0,0,1,293,106.54C293.09,106.8,293.22,107.09,293.35,107.38Z"/><path class="cls-5" d="M209,94.4c-1.88-2.54-3.84-5-5.77-7.56a37.43,37.43,0,0,0-13.54,7.56A37.43,37.43,0,0,0,203.23,102C205.16,99.42,207.12,96.94,209,94.4Z"/><path class="cls-5" d="M296.06,73.45c-.36.9-.75,2.25-1.19,3.7a43.72,43.72,0,0,1,4.81,4.51,46.23,46.23,0,0,1,13.46-4,.17.17,0,0,0,0-.05C307.71,76,302.68,73.92,296.06,73.45Z"/><path class="cls-5" d="M322.27,58.1c-13.19,1.6-25.36,4.83-34.56,9.85,13.57.89,26.7,4,36.74,9.09,11,.64,20.1,5.33,16.75,17.36,3.35,12-5.74,16.73-16.76,17.36-10,5.12-23.16,8.21-36.73,9.1,9.2,5,21.36,8.25,34.56,9.84,20.72-7.55,36.42-20.53,49.18-36.3C358.69,78.63,343,65.65,322.27,58.1Z"/><path class="cls-5" d="M152.43,77.6a.17.17,0,0,0,0,.05,46.13,46.13,0,0,1,13.46,4,43.72,43.72,0,0,1,4.81-4.51c-.44-1.45-.83-2.8-1.19-3.7C162.91,73.92,157.88,76,152.43,77.6Z"/><path class="cls-5" d="M366.67,58.47a179.77,179.77,0,0,0-23.06-1.57c7.5,14.12,17.68,25.57,29.59,35.3A213.37,213.37,0,0,0,391.44,64c-2.72-.93-5.61-1.77-8.62-2.52C377.15,64.48,371.5,62.49,366.67,58.47Z"/><path class="cls-5" d="M232.8,111.88a47.22,47.22,0,0,1-5.45.38,48,48,0,0,1-4.94,2.06c1.24,4.26.21,10.94.3,15.6,1.61.27,3.24.51,4.88.72q2.66-1.08,5.21-2.27,2.55,1.19,5.2,2.27c1.65-.21,3.28-.45,4.88-.72.1-4.66-.94-11.34.3-15.6a49,49,0,0,1-4.94-2.06A47,47,0,0,1,232.8,111.88Z"/><path class="cls-5" d="M122,56.9a179.89,179.89,0,0,0-23.06,1.57c-4.83,4-10.48,6-16.15,3.05-3,.75-5.89,1.59-8.62,2.52A213.44,213.44,0,0,0,92.4,92.2C104.3,82.47,114.48,71,122,56.9Z"/><path class="cls-5" d="M219.3,119a40.94,40.94,0,0,0-1.33-7.45,69.7,69.7,0,0,1-21.79-7.72c3.5,5.76,5,13,5,20.59a119.46,119.46,0,0,0,18,4.89A51.33,51.33,0,0,0,219.3,119Z"/><path class="cls-5" d="M192.81,120.94q2.58,1.22,5.3,2.29c0-.88,0-1.77-.07-2.69C196.31,120.71,194.56,120.84,192.81,120.94Z"/><path class="cls-5" d="M124.39,94.4c-3.35-12,5.74-16.72,16.76-17.36,10-5.11,23.16-8.2,36.73-9.09-9.2-5-21.36-8.25-34.56-9.85-20.71,7.55-36.42,20.53-49.17,36.3a122.82,122.82,0,0,0,25,23.73,103.9,103.9,0,0,0,24.14,12.57c13.2-1.59,25.36-4.82,34.56-9.84-13.57-.89-26.7-4-36.73-9.1a32.26,32.26,0,0,1-8.68-1.59C126,107.87,122,103,124.39,94.4Z"/><path class="cls-5" d="M57.09,245.4a144.19,144.19,0,0,0,4.62,17.93A201.54,201.54,0,0,0,89.63,245.4a201.48,201.48,0,0,0-27.92-17.92A144.49,144.49,0,0,0,57.09,245.4Z"/><path class="cls-5" d="M256.59,245.4c1.88,2.54,3.84,5,5.77,7.56a37.43,37.43,0,0,0,13.54-7.56,37.43,37.43,0,0,0-13.54-7.56C260.43,240.39,258.47,242.86,256.59,245.4Z"/><path class="cls-5" d="M376,245.4a201.54,201.54,0,0,0,27.92,17.93,146,146,0,0,0,4.63-17.93,146.32,146.32,0,0,0-4.63-17.92A201.48,201.48,0,0,0,376,245.4Z"/><path class="cls-5" d="M343.61,282.91a183.45,183.45,0,0,0,23.06-1.57c4.83-4,10.48-6,16.15-3,3-.75,5.9-1.59,8.62-2.52a212.72,212.72,0,0,0-18.24-28.16C361.29,257.33,351.11,268.78,343.61,282.91Z"/><path class="cls-5" d="M96.87,251.42q-2.19-1.95-4.47-3.81a212.78,212.78,0,0,0-18.25,28.16c2.73.93,5.61,1.77,8.62,2.52,5.08-2.66,10.15-1.33,14.63,1.87A108.86,108.86,0,0,1,96.23,264,123.91,123.91,0,0,1,96.87,251.42Z"/><path class="cls-5" d="M198.11,216.57q-2.72,1.08-5.3,2.29c1.75.1,3.5.23,5.23.41C198.08,218.35,198.1,217.45,198.11,216.57Z"/><path class="cls-5" d="M242.88,209.88c-1.6-.26-3.23-.5-4.88-.72-1.77.73-3.51,1.48-5.2,2.27-1.7-.79-3.44-1.54-5.2-2.27q-2.47.33-4.89.72c-.09,4.67.94,11.35-.3,15.61a45.89,45.89,0,0,1,4.94,2.06,45.09,45.09,0,0,1,5.45.38,44.92,44.92,0,0,1,5.44-.38,46.75,46.75,0,0,1,4.94-2.06C241.94,221.23,243,214.55,242.88,209.88Z"/><path class="cls-5" d="M248.13,210.88l-1.83,1.29a51,51,0,0,0,0,8.65,40.9,40.9,0,0,0,1.33,7.46c1.27.21,2.53.47,3.79.77a70.87,70.87,0,0,1,18,6.95,36.22,36.22,0,0,1-4.71-14.92,53.2,53.2,0,0,1-.29-5.68A116,116,0,0,0,248.13,210.88Z"/><path class="cls-5" d="M172.24,232.43a74.4,74.4,0,0,0-6.93,7.28c-1.52,1.83-3,3.71-4.31,5.69a72.85,72.85,0,0,0,11.24,13c.13-.29.27-.58.41-.84a46.65,46.65,0,0,1,10.1-12.14,49,49,0,0,1-9.22-10.61c-.32-.51-.61-1-.88-1.53C172.51,233,172.37,232.72,172.24,232.43Z"/><path class="cls-5" d="M165.91,258.15a46.13,46.13,0,0,1-13.46,4l0,0c5.45,1.63,10.48,3.68,17.1,4.14.36-.89.75-2.25,1.19-3.7A42.7,42.7,0,0,1,165.91,258.15Z"/><path class="cls-5" d="M201.11,218.26A37.91,37.91,0,0,1,196.18,236,69.45,69.45,0,0,1,218,228.28a40.9,40.9,0,0,0,1.33-7.46,51.22,51.22,0,0,0-.15-10.3c-2.84.54-5.59,1.18-8.29,1.89q-5,1.32-9.68,3C201.18,216.36,201.16,217.31,201.11,218.26Z"/><path class="cls-5" d="M269.41,254.81a69.7,69.7,0,0,1-21.79,7.72,40.94,40.94,0,0,0-1.33,7.45h0c-.09,1-.13,2-.16,3A156.54,156.54,0,0,1,265,267.69,35,35,0,0,1,269.41,254.81Z"/><path class="cls-5" d="M299.68,258.15a42.7,42.7,0,0,1-4.81,4.5c.44,1.45.83,2.81,1.19,3.7,6.62-.46,11.65-2.51,17.1-4.14a.08.08,0,0,0,0,0A46.23,46.23,0,0,1,299.68,258.15Z"/><path class="cls-5" d="M267.55,219.27l.21,0c1.66-.17,3.34-.29,5-.39-.83-.38-1.67-.76-2.51-1.12s-1.85-.79-2.8-1.17C267.49,217.45,267.51,218.35,267.55,219.27Z"/><path class="cls-5" d="M282.84,245.4A46.91,46.91,0,0,1,293,257.54c.14.26.27.55.4.84a73.31,73.31,0,0,0,11.25-13,73.25,73.25,0,0,0-11.25-13c-.13.29-.26.57-.4.83A46.58,46.58,0,0,1,282.84,245.4Z"/><path class="cls-5" d="M189.69,245.4A37.43,37.43,0,0,0,203.23,253c1.93-2.54,3.89-5,5.77-7.56-1.88-2.54-3.84-5-5.77-7.56A37.43,37.43,0,0,0,189.69,245.4Z"/><path class="cls-5" d="M299.68,232.66a46.23,46.23,0,0,1,13.46-4,.17.17,0,0,0,0-.05c-5.45-1.64-10.48-3.68-17.1-4.15-.36.9-.75,2.25-1.19,3.7A43.72,43.72,0,0,1,299.68,232.66Z"/><path class="cls-5" d="M328.33,279.26c17.76-7.75,31.64-19.67,43.12-33.86-12.76-15.77-28.46-28.75-49.18-36.3-13.19,1.6-25.36,4.83-34.56,9.85,13.57.89,26.7,4,36.74,9.09,11,.64,20.1,5.33,16.75,17.36,3.35,12-5.74,16.73-16.76,17.36a80,80,0,0,1-18.18,6.4,82.94,82.94,0,0,1,20.27,8.92C327.15,278.47,327.74,278.87,328.33,279.26Z"/><path class="cls-5" d="M165.91,232.66a43.72,43.72,0,0,1,4.81-4.51c-.44-1.45-.83-2.8-1.19-3.7-6.62.47-11.65,2.51-17.1,4.15a.17.17,0,0,0,0,.05A46.13,46.13,0,0,1,165.91,232.66Z"/><path class="cls-5" d="M391.44,215c-2.72-.93-5.61-1.77-8.62-2.52-5.67,3-11.32,1-16.15-3.05a179.77,179.77,0,0,0-23.06-1.57c7.5,14.12,17.68,25.57,29.59,35.3A213.37,213.37,0,0,0,391.44,215Z"/><path class="cls-5" d="M242.65,274.21c-.14-3.2-.18-6.45.53-8.89a49,49,0,0,1-4.94-2.06,47,47,0,0,1-5.44-.38,47.22,47.22,0,0,1-5.45.38,48,48,0,0,1-4.94,2.06c1.24,4.26.21,10.94.3,15.6.78.13,1.58.24,2.37.35l.62-.27Q234.61,277.12,242.65,274.21Z"/><path class="cls-5" d="M98.92,209.47c-4.83,4-10.48,6-16.15,3.05-3,.75-5.89,1.59-8.62,2.52A213.44,213.44,0,0,0,92.4,243.2q3.51-2.88,6.82-6A105.34,105.34,0,0,1,110.7,208.3C106.72,208.57,102.77,209,98.92,209.47Z"/><path class="cls-5" d="M198.85,260.55a44.54,44.54,0,0,1,2.33,14.85,119.46,119.46,0,0,0,18,4.89A51.33,51.33,0,0,0,219.3,270h0a40.94,40.94,0,0,0-1.33-7.45,66.4,66.4,0,0,1-15-4.45c-2.32-1-4.6-2.08-6.78-3.27A30.71,30.71,0,0,1,198.85,260.55Z"/><path class="cls-5" d="M192.81,271.94q2.58,1.21,5.3,2.29c0-.88,0-1.77-.07-2.69C196.31,271.71,194.56,271.84,192.81,271.94Z"/><path class="cls-5" d="M177.88,271.86c-13.57-.89-26.7-4-36.73-9.1a35.47,35.47,0,0,1-6.21-.87,104,104,0,0,0,2.14,17.29c2,.89,4.1,1.74,6.24,2.52C156.52,280.11,168.68,276.88,177.88,271.86Z"/><path class="cls-5" d="M94.15,245.4q1.47,1.82,3,3.58.56-4.47,1.44-8.79Q96.3,242.74,94.15,245.4Z"/><path class="cls-5" d="M177.88,219c-8.54-4.67-19.65-7.78-31.75-9.48a102.24,102.24,0,0,0-7.42,18.79c.8-.1,1.61-.17,2.44-.22C151.18,222.93,164.31,219.84,177.88,219Z"/><path class="cls-5" d="M89.63,415.4a201.48,201.48,0,0,0-27.92-17.92,144.49,144.49,0,0,0-4.62,17.92,144.19,144.19,0,0,0,4.62,17.93A201.54,201.54,0,0,0,89.63,415.4Z"/><path class="cls-5" d="M256.59,415.4c1.88,2.54,3.84,5,5.77,7.56a37.43,37.43,0,0,0,13.54-7.56,37.43,37.43,0,0,0-13.54-7.56C260.43,410.39,258.47,412.86,256.59,415.4Z"/><path class="cls-5" d="M403.36,426.24l1.51,3.89a148,148,0,0,0,3.64-14.73,146.32,146.32,0,0,0-4.63-17.92A201.48,201.48,0,0,0,376,415.4a183.93,183.93,0,0,0,17.86,12.18A26,26,0,0,1,403.36,426.24Z"/><path class="cls-5" d="M383.26,433.38l.62-.45c-3.34-5.3-6.88-10.44-10.68-15.32A121.6,121.6,0,0,0,351.71,440q8.54,7.33,13.07,7.32Z"/><path class="cls-5" d="M92.4,417.61a212.78,212.78,0,0,0-18.25,28.16c2.73.93,5.61,1.77,8.62,2.52,5.67-3,11.32-1,16.15,3,3.42.45,6.92.8,10.45,1.06q6-.43,12.07-.49A115.65,115.65,0,0,0,92.4,417.61Z"/><path class="cls-5" d="M122,452.91l-.27-.51-.27.5Z"/><path class="cls-5" d="M267.55,441.54c0,.92-.06,1.81-.07,2.69q2.72-1.08,5.31-2.29C271,441.84,269.28,441.71,267.55,441.54Z"/><path class="cls-5" d="M242.88,379.88c-1.6-.26-3.23-.5-4.88-.72-1.77.73-3.51,1.48-5.2,2.27l-1.59-.71v8.57c4-2,7.89-3.9,11.59-5.85h0C242.86,382.18,242.9,381,242.88,379.88Z"/><path class="cls-5" d="M246.44,380.52c0,.26,0,.52-.07.78a1.94,1.94,0,0,1,0,.24l1.38-.75-.38-.08Z"/><path class="cls-5" d="M182.75,415.4a46.33,46.33,0,0,1-10.1-12.14c-.14-.26-.28-.54-.41-.83a72.79,72.79,0,0,0-11.24,13,72.52,72.52,0,0,0,9.55,11.34c.56.55,1.11,1.11,1.69,1.64.13-.29.27-.58.41-.84a33.14,33.14,0,0,1,2-3.28A52.13,52.13,0,0,1,182.75,415.4Z"/><path class="cls-5" d="M152.45,432.16l0,0c2,.59,3.92,1.25,5.9,1.86a48.16,48.16,0,0,0,11.2,2.28c.36-.89.75-2.25,1.19-3.7a47.22,47.22,0,0,1-4-3.62c-.28-.29-.56-.58-.83-.88A46.13,46.13,0,0,1,152.45,432.16Z"/><path class="cls-5" d="M246.73,436.62c-.19,1.09-.34,2.2-.44,3.36h0a52.08,52.08,0,0,0,.15,10.31,119.46,119.46,0,0,0,18-4.89c0-7.54,1.5-14.83,5-20.59a73.64,73.64,0,0,1-11.39,5,64.56,64.56,0,0,1-10.4,2.68A41.54,41.54,0,0,0,246.73,436.62Z"/><path class="cls-5" d="M296.06,436.35l.42,0-.88-1.26C295.76,435.54,295.91,436,296.06,436.35Z"/><path class="cls-5" d="M190.69,414.61l-.33.26-.67.53,1,.8Z"/><path d="M316.67,394.7a68.17,68.17,0,0,1,7.78,3.34c11,.64,20.1,5.33,16.75,17.36,1.51,5.43.49,9.36-2.1,12.11q5.31,5.79,9.71,9.88a124.41,124.41,0,0,0,22.64-22c-10.21-12.62-22.32-23.44-37.36-31.14a105.14,105.14,0,0,0-11.82-5.16,122.72,122.72,0,0,0-21.21,4.36c2.13,2.36,4.72,5.29,7.78,8.82C311.55,393,314.17,393.79,316.67,394.7Z"/><path class="cls-5" d="M287.71,441.86a78.25,78.25,0,0,0,17.24,6.6l-5.54-7.95C295.59,441.14,291.67,441.6,287.71,441.86Z"/><path class="cls-5" d="M152.43,398.6l0,0a46.13,46.13,0,0,1,13.46,4,43.72,43.72,0,0,1,4.81-4.51c-.44-1.45-.83-2.8-1.19-3.7C162.91,394.92,157.88,397,152.43,398.6Z"/><path class="cls-5" d="M373.2,413.2A213.37,213.37,0,0,0,391.44,385c-2.72-.93-5.61-1.77-8.62-2.52-5.67,3-11.32,1-16.15-3a182.11,182.11,0,0,0-22-1.55l-1.06,0,.27.49C351.36,392.29,361.43,403.59,373.2,413.2Z"/><path class="cls-5" d="M238.24,433.26a47,47,0,0,1-5.44-.38c-1.36.18-2.73.27-4.1.32A82.64,82.64,0,0,0,230.89,448c.19.61.41,1.28.66,2l1.25-.56q2.55,1.19,5.2,2.27c1.65-.21,3.28-.45,4.88-.72.07-3.44-.47-8-.27-11.83a17.57,17.57,0,0,1,.57-3.77A49,49,0,0,1,238.24,433.26Z"/><path class="cls-5" d="M122,377.9a179.89,179.89,0,0,0-23.06,1.57c-4.83,4-10.48,6-16.15,3-3,.75-5.89,1.59-8.62,2.52A213.44,213.44,0,0,0,92.4,413.2C104.3,403.47,114.48,392,122,377.9Z"/><path class="cls-5" d="M124.39,415.4c-3.35-12,5.74-16.72,16.76-17.36,10-5.11,23.16-8.2,36.73-9.09-9.2-5-21.36-8.25-34.56-9.85-20.71,7.55-36.42,20.53-49.17,36.3,10.94,13.54,24.07,25,40.67,32.76,2.74,1.28,5.57,2.47,8.5,3.54,13.2-1.59,25.36-4.82,34.56-9.84a111.23,111.23,0,0,1-25.1-4.46,73.8,73.8,0,0,1-11.63-4.64C130.13,432.13,121,427.43,124.39,415.4Z"/><path class="cls-5" d="M57.09,489.4c.3,1.59.63,3.17,1,4.75,1,4.46,2.21,8.86,3.63,13.18A201.54,201.54,0,0,0,89.63,489.4q-5.19-4-10.77-7.7c-5.5-3.63-11.23-7-17.15-10.22A144.49,144.49,0,0,0,57.09,489.4Z"/><path class="cls-5" d="M256.59,489.4c1.88,2.54,3.84,5,5.77,7.56a37.43,37.43,0,0,0,13.54-7.56,37.43,37.43,0,0,0-13.54-7.56C260.43,484.39,258.47,486.86,256.59,489.4Z"/><path class="cls-5" d="M408.51,489.4c0-.15-.07-.3-.1-.46a146.71,146.71,0,0,0-4.53-17.46A201.48,201.48,0,0,0,376,489.4a177.83,177.83,0,0,0,14.66,10.21q6.45,4,13.26,7.72A146,146,0,0,0,408.51,489.4Z"/><path class="cls-5" d="M356.22,526.4c3.53-.26,7-.61,10.45-1.06,4.83-4,10.48-6,16.15-3.05,3-.75,5.9-1.59,8.62-2.52q-4.29-7.8-9.07-15.22c-2.9-4.46-5.94-8.79-9.17-12.94a115.51,115.51,0,0,0-29,34.3C348.2,525.94,352.23,526.11,356.22,526.4Z"/><path class="cls-5" d="M343.61,526.91h.55l-.28-.5Z"/><path class="cls-5" d="M92.4,491.61a212.78,212.78,0,0,0-18.25,28.16c2.73.93,5.61,1.77,8.62,2.52,5.64-2.95,11.25-1,16.06,3l.09.07c3.42.45,6.92.8,10.45,1.06q6-.43,12.07-.49A107.57,107.57,0,0,0,115,515.57,121,121,0,0,0,92.4,491.61Z"/><path class="cls-5" d="M122,526.91l-.27-.51-.27.5Z"/><path class="cls-5" d="M267.55,515.54c0,.92-.06,1.81-.07,2.69q2.72-1.08,5.31-2.29C271,515.84,269.28,515.71,267.55,515.54Z"/><path class="cls-5" d="M240.87,470.37c.81-.34,1.59-.63,2.31-.88-1.24-4.26-.2-10.94-.3-15.61-1.6-.26-3.23-.5-4.88-.72q-2.25.93-4.41,1.92c1.28,3,2.88,6.48,4.75,10.39C239.26,467.23,240.1,468.85,240.87,470.37Z"/><path class="cls-5" d="M247.62,472.28A69.2,69.2,0,0,1,269.41,480c-3.5-5.77-5-13.06-5-20.6a118.28,118.28,0,0,0-18-4.88,52,52,0,0,0-.15,10.3A40.9,40.9,0,0,0,247.62,472.28Z"/><path class="cls-5" d="M175.48,481.63c-.4-.54-.79-1.08-1.15-1.62-.62-.92-1.19-1.84-1.68-2.75-.14-.26-.28-.54-.41-.83a73.2,73.2,0,0,0-9.47,10.51c-.6.81-1.2,1.62-1.77,2.46a72.85,72.85,0,0,0,11.24,13c.13-.29.27-.58.41-.84a46.65,46.65,0,0,1,10.1-12.14,53.67,53.67,0,0,1-7.23-7.72h-.07Z"/><path class="cls-5" d="M165.91,502.15a46.13,46.13,0,0,1-13.46,4l0,0c5.45,1.63,10.48,3.68,17.1,4.14.36-.89.75-2.25,1.19-3.7A42.7,42.7,0,0,1,165.91,502.15Z"/><path class="cls-5" d="M264.41,519.4c0-7.54,1.5-14.83,5-20.59a69.7,69.7,0,0,1-21.79,7.72,40.94,40.94,0,0,0-1.33,7.45h0a52.08,52.08,0,0,0,.15,10.31A119.46,119.46,0,0,0,264.41,519.4Z"/><path class="cls-5" d="M299.68,502.15a42.7,42.7,0,0,1-4.81,4.5c.44,1.45.83,2.81,1.19,3.7,6.62-.46,11.65-2.51,17.1-4.14a.08.08,0,0,0,0,0A46.23,46.23,0,0,1,299.68,502.15Z"/><path class="cls-5" d="M272.79,462.86q-2.6-1.22-5.31-2.29c0,.88,0,1.78.07,2.7C269.28,463.09,271,463,272.79,462.86Z"/><path class="cls-5" d="M293.35,502.38a73.31,73.31,0,0,0,11.25-13,73.25,73.25,0,0,0-11.25-13c-.13.29-.26.57-.4.83a46.58,46.58,0,0,1-10.11,12.14A46.91,46.91,0,0,1,293,501.54C293.09,501.8,293.22,502.09,293.35,502.38Z"/><path class="cls-5" d="M209,489.4c-1.88-2.54-3.84-5-5.77-7.56a37.43,37.43,0,0,0-13.54,7.56A37.43,37.43,0,0,0,203.23,497C205.16,494.42,207.12,491.94,209,489.4Z"/><path class="cls-5" d="M299.68,476.66a46.23,46.23,0,0,1,13.46-4l0,0c-5.45-1.64-10.48-3.68-17.1-4.15-.36.9-.75,2.25-1.19,3.7A43.72,43.72,0,0,1,299.68,476.66Z"/><path class="cls-5" d="M341.3,480.89a14.1,14.1,0,0,1-.1,8.51c3.35,12-5.74,16.73-16.76,17.36-10,5.12-23.16,8.21-36.73,9.1,9.2,5,21.36,8.25,34.56,9.84,20.72-7.55,36.42-20.53,49.18-36.3q-4.21-5.2-8.88-10a40,40,0,0,1-13.35,2.24A38.9,38.9,0,0,1,341.3,480.89Z"/><path class="cls-5" d="M313.88,461.26l-4.21-6.05a83.66,83.66,0,0,0-22,7.74c12.75.83,25.11,3.61,34.88,8.19A61.18,61.18,0,0,1,313.88,461.26Z"/><path class="cls-5" d="M152.43,472.6l0,0a46.13,46.13,0,0,1,13.46,4,43.72,43.72,0,0,1,4.81-4.51c-.44-1.45-.83-2.8-1.19-3.7C162.91,468.92,157.88,471,152.43,472.6Z"/><path class="cls-5" d="M364,478.91q4.41,4.35,9.25,8.29A213.37,213.37,0,0,0,391.44,459c-.95-.33-1.93-.64-2.92-.94-2.09,2.86-3.95,5.22-5.58,7C377,471.67,370.71,476.25,364,478.91Z"/><path class="cls-5" d="M232.8,506.88a47.22,47.22,0,0,1-5.45.38,48,48,0,0,1-4.94,2.06c1.24,4.26.21,10.94.3,15.6,1.61.27,3.24.51,4.88.72q2.66-1.08,5.21-2.27,2.55,1.18,5.2,2.27c1.65-.21,3.28-.45,4.88-.72.1-4.66-.94-11.34.3-15.6a49,49,0,0,1-4.94-2.06A47,47,0,0,1,232.8,506.88Z"/><path class="cls-5" d="M121.71,452.4l.27-.5h-.54q-6.07,0-12.07.49c-3.53.26-7,.61-10.45,1.07-4.83,4-10.48,6-16.15,3-3,.75-5.89,1.59-8.62,2.52,3.54,6.41,7.3,12.67,11.37,18.67,2.2,3.24,4.48,6.42,6.88,9.49a117.94,117.94,0,0,0,26.11-29.26q1.51-2.47,2.93-5Z"/><path class="cls-5" d="M219.3,514a40.94,40.94,0,0,0-1.33-7.45,69.7,69.7,0,0,1-21.79-7.72c3.5,5.76,5,13.05,5,20.59a119.46,119.46,0,0,0,18,4.89A51.33,51.33,0,0,0,219.3,514Z"/><path class="cls-5" d="M192.81,515.94q2.58,1.21,5.3,2.29c0-.88,0-1.77-.07-2.69C196.31,515.71,194.56,515.84,192.81,515.94Z"/><path class="cls-5" d="M124.39,489.4c-3.35-12,5.74-16.72,16.76-17.36,10-5.11,23.16-8.2,36.73-9.09-9.2-5-21.36-8.25-34.56-9.85-20.71,7.55-36.42,20.53-49.17,36.3a123.22,123.22,0,0,0,25,23.7,104.34,104.34,0,0,0,24.19,12.6c13.2-1.59,25.36-4.82,34.56-9.84-13.57-.89-26.7-4-36.73-9.1a31.42,31.42,0,0,1-8.74-1.62C126,502.84,122,498,124.39,489.4Z"/><path class="cls-5" d="M60.94,548a145.37,145.37,0,0,0-3.85,15.42,144.19,144.19,0,0,0,4.62,17.93A201.54,201.54,0,0,0,89.63,563.4a199.67,199.67,0,0,0-26.15-16.95l-1.77-1C61.44,546.31,61.19,547.15,60.94,548Z"/><path class="cls-5" d="M256.59,563.4c1.88,2.54,3.84,5,5.77,7.56a37.43,37.43,0,0,0,13.54-7.56,37.43,37.43,0,0,0-13.54-7.56C260.43,558.39,258.47,560.86,256.59,563.4Z"/><path class="cls-5" d="M376,563.4a201.54,201.54,0,0,0,27.92,17.93,146,146,0,0,0,4.63-17.93,146.32,146.32,0,0,0-4.63-17.92A201.48,201.48,0,0,0,376,563.4Z"/><path class="cls-5" d="M343.61,600.91a183.45,183.45,0,0,0,23.06-1.57c4.83-4,10.48-6,16.15-3.05,3-.75,5.9-1.59,8.62-2.52a212.72,212.72,0,0,0-18.24-28.16C361.29,575.33,351.11,586.78,343.61,600.91Z"/><path class="cls-5" d="M92.4,565.61a212.78,212.78,0,0,0-18.25,28.16c2.73.93,5.61,1.77,8.62,2.52,5.67-3,11.32-1,16.15,3.05A183.58,183.58,0,0,0,122,600.91C114.48,586.78,104.3,575.33,92.4,565.61Z"/><path class="cls-5" d="M267.48,592.23q2.72-1.08,5.31-2.29c-1.76-.1-3.51-.23-5.24-.4C267.51,590.46,267.49,591.35,267.48,592.23Z"/><path class="cls-5" d="M192.81,536.86c1.75.1,3.5.23,5.23.41,0-.92.06-1.82.07-2.7Q195.4,535.65,192.81,536.86Z"/><path class="cls-5" d="M242.88,527.88c-1.6-.26-3.23-.5-4.88-.72-1.77.73-3.51,1.48-5.2,2.27-1.7-.79-3.44-1.54-5.2-2.27q-2.47.33-4.89.72c-.09,4.67.94,11.35-.3,15.61a45.89,45.89,0,0,1,4.94,2.06,45.09,45.09,0,0,1,5.45.38,44.92,44.92,0,0,1,5.44-.38,46.75,46.75,0,0,1,4.94-2.06C241.94,539.23,243,532.55,242.88,527.88Z"/><path class="cls-5" d="M264.41,533.4a118.28,118.28,0,0,0-18-4.88,52,52,0,0,0-.15,10.3,40.9,40.9,0,0,0,1.33,7.46A69.2,69.2,0,0,1,269.41,554C265.91,548.23,264.38,540.94,264.41,533.4Z"/><path class="cls-5" d="M172.65,551.26c-.14-.26-.28-.54-.41-.83a72.79,72.79,0,0,0-11.24,13,72.85,72.85,0,0,0,11.24,13c.13-.29.27-.58.41-.84a46.65,46.65,0,0,1,10.1-12.14A46.33,46.33,0,0,1,172.65,551.26Z"/><path class="cls-5" d="M169.53,584.35c.36-.89.75-2.25,1.19-3.7a42.7,42.7,0,0,1-4.81-4.5,46.13,46.13,0,0,1-13.46,4l0,.05C157.88,581.84,162.91,583.89,169.53,584.35Z"/><path class="cls-5" d="M219.3,538.82a51.22,51.22,0,0,0-.15-10.3,118.28,118.28,0,0,0-18,4.88c0,7.54-1.5,14.83-5,20.6A69.45,69.45,0,0,1,218,546.28,40.9,40.9,0,0,0,219.3,538.82Z"/><path class="cls-5" d="M246.29,588a52.08,52.08,0,0,0,.15,10.31,119.46,119.46,0,0,0,18-4.89c0-7.54,1.5-14.83,5-20.59q-2.61,1.43-5.37,2.66a66.9,66.9,0,0,1-16.42,5.06,42,42,0,0,0-1.11,5.45c-.08.66-.16,1.32-.22,2Z"/><path class="cls-5" d="M313.16,580.21a.08.08,0,0,0,0-.05,46.23,46.23,0,0,1-13.46-4,42.7,42.7,0,0,1-4.81,4.5c.44,1.45.83,2.81,1.19,3.7C302.68,583.89,307.71,581.84,313.16,580.21Z"/><path class="cls-5" d="M267.55,537.27c1.73-.18,3.48-.31,5.24-.41q-2.6-1.22-5.31-2.29C267.49,535.45,267.51,536.35,267.55,537.27Z"/><path class="cls-5" d="M293,575.54c.14.26.27.55.4.84a73.31,73.31,0,0,0,11.25-13,74.33,74.33,0,0,0-6.59-8.28c-1.49-1.62-3-3.2-4.66-4.69-.13.29-.26.57-.4.83a46.58,46.58,0,0,1-10.11,12.14l.53.49A45.89,45.89,0,0,1,293,575.54Z"/><path class="cls-5" d="M209,563.4c-1.88-2.54-3.84-5-5.77-7.56a37.43,37.43,0,0,0-13.54,7.56A37.43,37.43,0,0,0,203.23,571C205.16,568.42,207.12,565.94,209,563.4Z"/><path class="cls-5" d="M313.16,546.6l-.62-.2c-5.21-1.59-10.11-3.5-16.48-3.95-.36.9-.75,2.25-1.19,3.7a43.72,43.72,0,0,1,4.81,4.51,44.43,44.43,0,0,1,12.06-3.77c.46-.08.93-.17,1.4-.24Z"/><path class="cls-5" d="M341.2,563.4c3.35,12-5.74,16.73-16.76,17.36-10,5.12-23.16,8.21-36.73,9.1,9.2,5,21.36,8.25,34.56,9.84,20.72-7.55,36.42-20.53,49.18-36.3-10-12.31-21.73-22.91-36.27-30.56a105,105,0,0,0-12.91-5.74c-13.19,1.6-25.36,4.83-34.56,9.85a105.41,105.41,0,0,1,30.23,6.22,70.57,70.57,0,0,1,6.51,2.87C335.46,546.68,344.55,551.37,341.2,563.4Z"/><path class="cls-5" d="M170.72,546.15c-.44-1.45-.83-2.8-1.19-3.7-6.62.47-11.65,2.51-17.1,4.15l0,0a46.13,46.13,0,0,1,13.46,4A43.72,43.72,0,0,1,170.72,546.15Z"/><path class="cls-5" d="M373.2,561.2A213.37,213.37,0,0,0,391.44,533c-2.72-.93-5.61-1.77-8.62-2.52-5.67,3-11.32,1-16.15-3-3.42-.46-6.92-.81-10.45-1.07-4-.29-8-.46-12.06-.49h-.55l.27.5.28.5c.07.14.15.28.23.42A115.83,115.83,0,0,0,373.2,561.2Z"/><path class="cls-5" d="M232.8,597.37q2.55,1.18,5.2,2.27c1.65-.21,3.28-.45,4.88-.72.06-3.07-.36-7-.31-10.58a19.66,19.66,0,0,1,.61-5,49,49,0,0,1-4.94-2.06,47,47,0,0,1-5.44-.38,47.22,47.22,0,0,1-5.45.38,48,48,0,0,1-4.94,2.06c1.24,4.26.21,10.94.3,15.6.58.1,1.19.17,1.78.26,1,.16,2,.32,3.1.46Q230.25,598.56,232.8,597.37Z"/><path class="cls-5" d="M98.92,527.47c-3.41,2.84-7.23,4.65-11.17,4.44a12.07,12.07,0,0,1-5-1.39c-3,.75-5.89,1.59-8.62,2.52,1,1.76,2,3.5,3,5.24A203.34,203.34,0,0,0,92.4,561.2c11.62-9.5,21.59-20.64,29-34.3l.27-.5.27-.5h-.54q-6.07,0-12.07.49C105.84,526.66,102.34,527,98.92,527.47Z"/><path class="cls-5" d="M219.3,588a40.94,40.94,0,0,0-1.33-7.45,69.7,69.7,0,0,1-21.79-7.72c3.5,5.76,5,13.05,5,20.59a119.46,119.46,0,0,0,18,4.89A51.33,51.33,0,0,0,219.3,588Z"/><path class="cls-5" d="M192.81,589.94q2.58,1.21,5.3,2.29c0-.88,0-1.77-.07-2.69C196.31,589.71,194.56,589.84,192.81,589.94Z"/><path class="cls-5" d="M124.39,563.4c-3.35-12,5.74-16.72,16.76-17.36,10-5.11,23.16-8.2,36.73-9.09-9.2-5-21.36-8.25-34.56-9.85-20.71,7.55-36.42,20.53-49.17,36.3,12.75,15.77,28.46,28.75,49.17,36.3,13.2-1.59,25.36-4.82,34.56-9.84-13.57-.89-26.7-4-36.73-9.1C130.13,580.13,121,575.43,124.39,563.4Z"/><path d="M126.06,336c18.25,18,39.72,27.6,64.63,29.23V337.39a66.33,66.33,0,0,1-36.1-22.46,75.32,75.32,0,0,1-12.66-20.26,84,84,0,0,1-4.85-15.49,104,104,0,0,1-2.14-17.29c-.06-1.29-.09-2.6-.11-3.91,0-.47,0-.93,0-1.41a102.23,102.23,0,0,1,11.32-47.1q1.16-2.26,2.43-4.5c.49-.85,1-1.7,1.49-2.54a80.91,80.91,0,0,1,7-9.83q1.71-2.06,3.51-3.88a57.1,57.1,0,0,1,6.31-5.56c1.18-.89,2.39-1.72,3.61-2.48a44.37,44.37,0,0,1,4.14-2.31,47,47,0,0,1,20.92-4.79h.22a51.61,51.61,0,0,1,9.43.84,44.92,44.92,0,0,1,24.06,12.76,68.92,68.92,0,0,1,12.6,17.9c1.23,2.43,2.41,5,3.52,7.73.3-.21.61-.43.93-.64l1.83-1.29c4-2.84,8.56-6.35,13.74-10.62l2.57-2.13c4.29-3.59,8.95-7.65,14-12.23a105.17,105.17,0,0,0-9-8.57c-.83-.71-1.67-1.4-2.53-2.07a97.71,97.71,0,0,0-9.63-6.71q-21-12.81-47.74-14.25-3.27-.17-6.61-.17c-1.35,0-2.69,0-4,.07a107,107,0,0,0-25.72,3.91c-1.3.37-2.58.76-3.85,1.18a101,101,0,0,0-39.65,24.61c-.88.87-1.75,1.74-2.61,2.64q-3.45,3.68-6.51,7.5-1.8,2.24-3.47,4.53-2.85,3.92-5.31,8c-.35.58-.7,1.16-1,1.74a105.34,105.34,0,0,0-11.48,28.94c-.23,1-.44,2-.64,2.95q-.89,4.32-1.44,8.79c-.1.81-.19,1.62-.27,2.44A123.91,123.91,0,0,0,96.23,264a108.86,108.86,0,0,0,1.17,16.13l0,.24a95.43,95.43,0,0,0,11.79,33.87A104.68,104.68,0,0,0,126.06,336Z"/><path d="M288.16,307.8q-8.76,0-17.51,7.78c-8.43,7.46-15.23,12.32-20.42,15.24a75.62,75.62,0,0,1-19,6.66V361a104.16,104.16,0,0,0,22.26-9.39C272,340.87,283.62,326.28,288.16,307.8Z"/><path d="M231.21,337.48V316.34c0-8.1,4.86-15.56,14.27-22.69,8.75-6.81,17.5-10,25.93-10,9.4,0,17.51,3.56,24.64,10.69q10.69,10.21,10.7,24.32c0,13.29-9.72,27.23-28.85,42.47q-4.18,3.36-9,6.73a237.33,237.33,0,0,1-21.14,13l-1.38.75-3.55,1.9c-3.7,1.95-7.55,3.9-11.59,5.85V361a116.31,116.31,0,0,1-32.85,4.55c-2.6,0-5.15-.11-7.67-.28v89.55c0,3.89-1.95,8.42-6.16,13.94-2.89,3.79-5.08,6.87-6.61,9.14-1.2,1.77-2,3-2.44,3.77l0,.05h70.67a110.76,110.76,0,0,0-5.25-11.31c-.77-1.52-1.61-3.14-2.53-4.9-1.87-3.91-3.47-7.37-4.75-10.39q-1.22-2.83-2-5.15c-.25-.68-.47-1.35-.66-2a82.64,82.64,0,0,1-2.19-14.77c-.26-3.73-.41-7.88-.41-12.46,0-7.46,2-12.65,6.16-15.57,3.25-2.27,8.76-3.56,16.86-3.56,11.42,0,21.53,4.79,30.17,14.19a66.29,66.29,0,0,1,5.5,6.88l8.62,12.37.88,1.26,2.93,4.2,5.54,7.95,4.72,6.75,4.21,6.05a61.18,61.18,0,0,0,8.71,9.88,39.52,39.52,0,0,0,18.71,9.75,38.9,38.9,0,0,0,7.92.79,40,40,0,0,0,13.35-2.24l1.38-.53c6.76-2.66,13.05-7.24,19-13.76,1.63-1.83,3.49-4.19,5.58-7,4.56-6.24,10.23-14.91,17.11-26l-.76-1.95-1.51-3.89a26,26,0,0,0-9.54,1.34,35.55,35.55,0,0,0-9.94,5.35l-.62.45-18.48,13.94q-4.53,0-13.07-7.32c-.93-.8-1.9-1.67-2.9-2.61q-4.4-4.09-9.71-9.88-4.37-4.77-9.33-10.67Q320,405.23,312.89,397q-2.14-2.5-4.05-4.69c-3.06-3.53-5.65-6.46-7.78-8.82a74.26,74.26,0,0,0-6.63-6.82l35.34-24c11.85-9.78,18.27-20.91,19.29-32.9.1-1.13.16-2.27.16-3.41,0-15.55-6.88-27.81-20.89-37.08-.59-.39-1.18-.79-1.8-1.18a82.94,82.94,0,0,0-20.27-8.92,89,89,0,0,0-24.8-3.39A81.41,81.41,0,0,0,265,267.69,156.54,156.54,0,0,0,246.13,273c-1.15.39-2.31.81-3.48,1.23q-8,2.91-17,6.79l-.62.27q-36,15.8-51.9,17.24V306c11.67,7.45,17.51,16.53,17.51,27.88v3.54A83.15,83.15,0,0,0,210,339.57,102.51,102.51,0,0,0,231.21,337.48Z"/><rect class="cls-6" x="23.21" y="12.85" width="415.11" height="645.9" rx="14.99"/></g></g></svg>