<svg xmlns="http://www.w3.org/2000/svg" viewBox="0 0 359.58 541.13"><defs><style>.cls-1{fill:none;}.cls-1,.cls-8{stroke:#000;}.cls-1,.cls-2,.cls-3,.cls-4,.cls-5,.cls-6,.cls-7,.cls-8{stroke-miterlimit:10;}.cls-2,.cls-3,.cls-4,.cls-5{stroke:#ffebcd;}.cls-3,.cls-7,.cls-8{fill:#fff;}.cls-4{stroke-width:2px;}.cls-5{fill:#231f20;}.cls-6{fill:#fcfbfa;}.cls-6,.cls-7{stroke:#231f20;}.cls-8{stroke-width:4px;}</style></defs><g id="Layer_2" data-name="Layer 2"><g id="Layer_1-2" data-name="Layer 1"><path class="cls-1" d="M356,515.15c0,6.64-5.7,12-12.73,12H16.31c-7,0-12.73-5.39-12.73-12h0v-494c0-6.64,5.7-12,12.73-12h327c7,0,12.73,5.39,12.73,12Z"/><path class="cls-2" d="M177.74,291.56V272a90.72,90.72,0,0,1-18.24,1.74,73.45,73.45,0,0,1-16.66-1.82v23.24c2.17.14,4.37.24,6.61.24A103.11,103.11,0,0,0,177.74,291.56Z"/><path class="cls-3" d="M272.48,337c2.89-10-4.94-13.95-14.42-14.49a68.64,68.64,0,0,0-13.45-4.81q7.06,7.89,18,20.5,4.31,4.94,8,8.91C272.91,344.81,273.78,341.53,272.48,337Z"/><path class="cls-2" d="M211.71,253.68q7.54-6.5,15.09-6.49c-3.91,15.42-14,27.6-29.88,36.53a90.84,90.84,0,0,1-19.18,7.84v16.49l1.37.6c1.46-.66,3-1.29,4.48-1.9,1.42.19,2.83.39,4.2.6,0,.91,0,1.92-.06,3l3.05-1.58.08-.84,1.11.23a180.6,180.6,0,0,0,26-16.45c16.48-12.72,24.85-24.36,24.85-35.45q0-11.78-9.22-20.3c-6.14-6-13.12-8.92-21.22-8.92-7.26,0-14.8,2.7-22.34,8.34-8.1,6-12.29,12.18-12.29,18.94V272a66.74,66.74,0,0,0,16.37-5.56A107.13,107.13,0,0,0,211.71,253.68Z"/><path class="cls-4" d="M345.66,1H13.92A12.72,12.72,0,0,0,1,13.52V527.61a12.72,12.72,0,0,0,12.92,12.52H345.66a12.73,12.73,0,0,0,12.92-12.52h0V13.52A12.73,12.73,0,0,0,345.66,1ZM294.42,39.1c4.16,3.34,9,5,13.91,2.51,2.59.62,5.09,1.32,7.43,2.1a178,178,0,0,1-15.71,23.52c-10.26-8.12-19-17.68-25.49-29.46A160.78,160.78,0,0,1,294.42,39.1Zm0,62.6c4.16,3.34,9,5,13.91,2.55,2.59.63,5.09,1.33,7.43,2.1a177.92,177.92,0,0,1-15.71,23.48c-10.26-8.12-19-17.67-25.49-29.45h0a96.91,96.91,0,0,1,25.49-29.46,177.25,177.25,0,0,1,15.71,23.51c-2.34.77-4.83,1.47-7.43,2.1-4.88-2.5-9.75-.84-13.91,2.55a162.14,162.14,0,0,1-19.71,1.3A162.16,162.16,0,0,1,294.42,101.7Zm13.91,120.88c-4.88-2.5-9.75-.83-13.91,2.51a162.73,162.73,0,0,1-19.86,1.31c6.46-11.8,15.23-21.35,25.49-29.47a177.25,177.25,0,0,1,15.71,23.51c-2.34.79-4.83,1.46-7.43,2.12Zm7.43,89.11a178.48,178.48,0,0,1-15.71,23.47c-10.26-8.12-19-17.67-25.49-29.46A158.87,158.87,0,0,1,294.42,307c4.16,3.33,9,5,13.91,2.5,2.6.64,5.09,1.34,7.43,2.12ZM274.56,163.8a160.79,160.79,0,0,1,19.86,1.34c4.16,3.34,9,5,13.91,2.55,2.59.62,5.09,1.32,7.43,2.1a179.24,179.24,0,0,1-15.71,23.48A96.69,96.69,0,0,1,274.56,163.8Zm-26.25-18.14v0c-4.69,1.36-9,3.07-14.73,3.46-.31-.75-.64-1.88-1-3.09a36,36,0,0,0,4.14-3.76,41,41,0,0,0,11.61,3.35Zm0-28A40.66,40.66,0,0,0,236.72,121a37,37,0,0,0-4.14-3.77c.38-1.21.71-2.33,1-3.09,5.7.4,10,2.1,14.73,3.47,0,0,0,0,0,0Zm9.74,28.47c9.47-.53,17.32-4.45,14.43-14.49,2.89-10-4.94-14-14.42-14.49-8.62-4.27-20-6.85-31.65-7.59,7.92-4.17,18.41-6.88,29.77-8.22,17.85,6.3,31.37,17.14,42.36,30.3-11,13.16-24.51,24-42.36,30.3-11.36-1.33-21.85-4-29.77-8.21,11.69-.75,23-3.33,31.64-7.6Zm50.28,13c-4.88-2.5-9.75-.83-13.91,2.55A162.73,162.73,0,0,1,274.56,163c6.46-11.8,15.23-21.35,25.49-29.47A178.56,178.56,0,0,1,315.76,157c-2.34.77-4.83,1.44-7.43,2.1ZM256.18,38.77c17.85,6.3,31.37,17.14,42.36,30.3-11,13.16-24.51,24-42.36,30.3-11.36-1.33-21.85-4-29.77-8.22,11.69-.74,23-3.33,31.64-7.59,9.47-.53,17.32-4.45,14.43-14.49,2.89-10-4.94-14-14.42-14.49-8.62-4.27-20-6.85-31.65-7.59C234.33,42.8,244.82,40.1,256.18,38.77Zm-7.87,44.29v0c-4.69,1.36-9,3.07-14.73,3.45-.31-.74-.64-1.87-1-3.08a37,37,0,0,0,4.14-3.76,41,41,0,0,0,11.61,3.35Zm0-28a40.66,40.66,0,0,0-11.59,3.34,37,37,0,0,0-4.14-3.77c.38-1.21.71-2.34,1-3.09,5.7.4,10,2.1,14.73,3.47l0,.05Zm-17.39,3.85c.12-.22.24-.46.35-.7A62,62,0,0,1,241,69.09a61.24,61.24,0,0,1-9.69,10.85c-.11-.24-.23-.48-.35-.7a39.38,39.38,0,0,0-8.71-10.13,39.17,39.17,0,0,0,8.71-10.17Zm0,62.6c.12-.22.24-.45.35-.7A62,62,0,0,1,241,131.69a61.65,61.65,0,0,1-9.69,10.86c-.11-.25-.23-.49-.35-.71a39.38,39.38,0,0,0-8.71-10.13,39,39,0,0,0,8.71-10.17Zm0,63.43c.12-.21.24-.45.35-.69A62,62,0,0,1,241,195.13,62,62,0,0,1,231.27,206c-.11-.24-.23-.48-.35-.7a39.22,39.22,0,0,0-8.71-10.13A39.05,39.05,0,0,0,230.92,185Zm17.39-3.85a41,41,0,0,0-11.59,3.34,37.85,37.85,0,0,0-4.14-3.76c.38-1.21.71-2.34,1-3.09,5.7.39,10,2.1,14.73,3.46a.08.08,0,0,1,0,.05Zm0,28c-4.69,1.36-9,3.07-14.73,3.45-.31-.74-.64-1.88-1-3.09a35.93,35.93,0,0,0,4.14-3.75,41,41,0,0,0,11.6,3.34ZM209,93.13c0-.73,0-1.48.06-2.24,1.49.14,3,.25,4.51.33C212.08,91.9,210.55,92.54,209,93.13Zm4.57,16.39c-1.51.08-3,.19-4.51.34,0-.77-.05-1.52-.06-2.25,1.55.6,3.07,1.23,4.56,1.91Zm0-62.6c-1.51.08-3,.19-4.51.34,0-.77-.05-1.52-.06-2.26,1.55.61,3.07,1.24,4.56,1.92Zm2.68,22.15a32.49,32.49,0,0,1-11.66,6.31c-1.66-2.12-3.35-4.17-5-6.31,1.62-2.12,3.31-4.18,5-6.31a32.53,32.53,0,0,1,11.65,6.31ZM190.86,39.94A104.68,104.68,0,0,1,206.37,44c0,6.29,1.29,12.38,4.3,17.2a60.57,60.57,0,0,0-18.77-6.45,32.9,32.9,0,0,1-1.14-6.22A41.89,41.89,0,0,1,190.86,39.94Zm-.13,49.63h0a32.92,32.92,0,0,1,1.15-6.22,61.52,61.52,0,0,0,18.77-6.44c-3,4.8-4.31,10.89-4.31,17.18a104.59,104.59,0,0,1-15.5,4.08,41.8,41.8,0,0,1-.11-8.59Zm.13,13a104.68,104.68,0,0,1,15.51,4.07c0,6.3,1.29,12.38,4.3,17.2a60.83,60.83,0,0,0-18.77-6.45,32.9,32.9,0,0,1-1.14-6.22,41.89,41.89,0,0,1,.1-8.6ZM170.42,39.42c1.38-.22,2.79-.42,4.21-.6,1.52.61,3,1.23,4.48,1.89,1.46-.66,3-1.28,4.48-1.89,1.42.18,2.83.38,4.2.6.09,3.9-.81,9.47.26,13a40.17,40.17,0,0,0-4.25,1.72,38.76,38.76,0,0,0-4.69.32,38.62,38.62,0,0,0-4.69-.32,41.15,41.15,0,0,0-4.26-1.71C171.23,48.89,170.34,43.32,170.42,39.42Zm4,44.56a43.29,43.29,0,0,0,4.69-.32,43.29,43.29,0,0,0,4.69.32,44.94,44.94,0,0,0,4.25,1.72c-1.07,3.55-.17,9.13-.26,13-1.37.22-2.78.42-4.2.6-1.53-.6-3-1.24-4.48-1.9-1.46.66-3,1.3-4.49,1.9q-2.12-.27-4.2-.6c-.08-3.89.81-9.47-.26-13A43.58,43.58,0,0,0,174.42,84Zm-4,18c1.38-.22,2.79-.42,4.21-.6,1.52.61,3,1.24,4.48,1.9,1.46-.66,3-1.29,4.48-1.9,1.42.18,2.83.38,4.2.6.09,3.9-.81,9.48.26,13a40.17,40.17,0,0,0-4.25,1.72,38.76,38.76,0,0,0-4.69.32,38.62,38.62,0,0,0-4.69-.32,41.22,41.22,0,0,0-4.26-1.72c1.07-3.55.18-9.13.26-13Zm-25.75-10.8c1.5-.08,3-.19,4.5-.33,0,.76.05,1.51.06,2.24-1.55-.6-3.08-1.24-4.56-1.91Zm4.56,16.39c0,.73,0,1.48-.06,2.25-1.49-.15-3-.26-4.5-.34,1.48-.68,3-1.31,4.56-1.91Zm-1.66-30.69a61.13,61.13,0,0,0,18.77,6.42,33,33,0,0,1,1.14,6.22h0a40.63,40.63,0,0,1-.13,8.61,105.86,105.86,0,0,1-15.5-4.09c.05-6.26-1.27-12.35-4.28-17.16Zm19.81-37a41.91,41.91,0,0,1,.13,8.6,33,33,0,0,1-1.15,6.23,61.26,61.26,0,0,0-18.77,6.44c3-4.81,4.31-10.9,4.31-17.19a104,104,0,0,1,15.45-4.09Zm-18.09,5c0,.74,0,1.49-.06,2.26-1.49-.15-3-.26-4.5-.35q2.16-1,4.5-1.87Zm4.41,17.76c1.66,2.12,3.35,4.17,5,6.31-1.62,2.12-3.31,4.17-5,6.31A32.49,32.49,0,0,1,142,69a32.46,32.46,0,0,1,11.6-6.27ZM136.06,69a39.29,39.29,0,0,0-8.76,10.14c-.12.21-.24.46-.35.7A61.49,61.49,0,0,1,117.27,69,60.79,60.79,0,0,1,127,58.17c.11.24.23.47.35.69A39,39,0,0,0,136,69.07Zm-26.12,14a41,41,0,0,0,11.6-3.34,35.93,35.93,0,0,0,4.14,3.75c-.38,1.22-.71,2.35-1,3.09-5.71-.38-10-2.09-14.73-3.45Zm0-28c4.7-1.37,9-3.08,14.73-3.47.31.75.65,1.88,1,3.09a37,37,0,0,0-4.14,3.76A40.62,40.62,0,0,0,110,55.1l-.08-.05ZM131.87,47c-11.69.74-23,3.34-31.64,7.59-9.48.53-17.32,4.45-14.44,14.49-2.88,10,4.95,14,14.44,14.49,8.61,4.27,20,6.85,31.64,7.59-7.93,4.18-18.4,6.89-29.77,8.22-17.84-6.3-31.37-17.14-42.36-30.3,11-13.16,24.52-24,42.36-30.3,11.29,1.33,21.78,4,29.71,8.22ZM83.72,100.41h0a97.83,97.83,0,0,1-25.54,29.42,176.89,176.89,0,0,1-15.72-23.5c2.35-.78,4.83-1.48,7.42-2.1,4.89,2.5,9.75.83,13.91-2.55a160.43,160.43,0,0,1,19.71-1.31,162.41,162.41,0,0,1-19.71-1.3c-4.16-3.34-9-5-13.91-2.55-2.58-.63-5.07-1.33-7.42-2.1A176.35,176.35,0,0,1,58.18,70.91c10.25,8.12,19,17.67,25.48,29.46h0ZM49.88,41.61c4.89,2.5,9.75.83,13.91-2.51a160.92,160.92,0,0,1,19.87-1.31A96.78,96.78,0,0,1,58.18,67.23a176.89,176.89,0,0,1-15.72-23.5C44.81,43,47.29,42.25,49.88,41.61ZM31.74,54.13A174.27,174.27,0,0,1,55.79,69.07a174.39,174.39,0,0,1-24,15,119.48,119.48,0,0,1-4-15A118.72,118.72,0,0,1,31.74,54.13Zm0,62.6a174.27,174.27,0,0,1,24.05,14.94,174.46,174.46,0,0,1-24,15,119.63,119.63,0,0,1-4-15A118.72,118.72,0,0,1,31.74,116.73Zm0,63.43a174.33,174.33,0,0,1,24.05,15,174.39,174.39,0,0,1-24,15,119.48,119.48,0,0,1-4-15A119.33,119.33,0,0,1,31.74,180.16ZM109.94,351a40.64,40.64,0,0,0,11.6-3.34,36,36,0,0,0,4.14,3.76c-.38,1.21-.71,2.34-1,3.09-5.71-.39-10-2.1-14.73-3.46Zm0-28c4.7-1.37,9-3.07,14.73-3.47.31.76.65,1.88,1,3.09a36.1,36.1,0,0,0-4.14,3.77A40.64,40.64,0,0,0,110,323Zm7.39,14A61.14,61.14,0,0,1,127,326.15c.11.24.23.48.35.69a38.87,38.87,0,0,0,8.7,10.14,39.2,39.2,0,0,0-8.76,10.12c-.12.22-.24.46-.35.7a60.83,60.83,0,0,1-9.68-10.8Zm-17.1-14.49c-9.48.54-17.32,4.45-14.44,14.49-2.88,10,4.95,14,14.44,14.49,8.61,4.27,20,6.85,31.64,7.6-7.93,4.17-18.4,6.88-29.77,8.21C84.26,361,70.73,350.16,59.74,337c11-13.16,24.52-24,42.36-30.3,11.37,1.34,21.84,4,29.77,8.22-11.75.75-23.06,3.33-31.7,7.59Zm9.71,62.23c4.7-1.36,9-3.07,14.73-3.46.31.75.65,1.88,1,3.09a37,37,0,0,0-4.14,3.76,41,41,0,0,0-11.6-3.34Zm11.62,24.67a37,37,0,0,0,4.14,3.76c-.38,1.21-.72,2.34-1,3.08-5.7-.38-10-2.09-14.73-3.45v0a40.72,40.72,0,0,0,11.56-3.35Zm-21.33-25.13c-9.48.53-17.32,4.45-14.44,14.49-2.88,10,4.95,14,14.44,14.49,8.61,4.27,20,6.85,31.64,7.59-7.93,4.18-18.4,6.89-29.77,8.22-17.84-6.31-31.37-17.14-42.36-30.3,11-13.17,24.52-24,42.36-30.3,11.37,1.33,21.84,4,29.77,8.22-11.75.74-23.06,3.32-31.7,7.59Zm-16.51,45.8h-.47a97.87,97.87,0,0,1-25,28.63A178.63,178.63,0,0,1,42.55,435.2Q46.08,434,50,433.1c4.88,2.5,9.75.83,13.91-2.51,2.94-.38,6-.67,9-.89-3-.22-6-.51-9-.88-4.16-3.34-9-5-13.91-2.55-2.59-.63-5.08-1.33-7.43-2.1a176.88,176.88,0,0,1,15.63-23.56,97.59,97.59,0,0,1,25,28.63h.46l-.23.42ZM63.85,367c-4.16-3.34-9-5-13.91-2.5-2.58-.63-5.07-1.33-7.42-2.11a176.88,176.88,0,0,1,15.66-23.54,97.47,97.47,0,0,1,25,28.63h.46l-.23.41.23.43h-.46a98,98,0,0,1-25,28.63,177,177,0,0,1-15.72-23.51c2.35-.77,4.83-1.47,7.42-2.1,4.89,2.5,9.75.83,13.91-2.5,2.95-.39,6-.68,9-.9-3-.27-6.05-.56-9-.94Zm-5.67-31.84a176.89,176.89,0,0,1-15.72-23.5c2.35-.78,4.83-1.48,7.42-2.1,4.89,2.5,9.75.83,13.91-2.51a160.92,160.92,0,0,1,19.87-1.31A96.82,96.82,0,0,1,58.18,335.16Zm-26.44-13.1A174.27,174.27,0,0,1,55.79,337a174.46,174.46,0,0,1-24,15,119.17,119.17,0,0,1-4-15A118.72,118.72,0,0,1,31.74,322.06Zm0,61.77a174.27,174.27,0,0,1,24.05,14.94,174.39,174.39,0,0,1-24,15,119.48,119.48,0,0,1-4-15A118.72,118.72,0,0,1,31.74,383.83Zm-4,76.7a119.64,119.64,0,0,1,4-14.94,174.27,174.27,0,0,1,24.05,14.94,174.46,174.46,0,0,1-24,15A119.17,119.17,0,0,1,27.76,460.53Zm36,30c-4.16-3.34-9-5-13.91-2.54-2.58-.63-5.07-1.33-7.42-2.11a176.89,176.89,0,0,1,15.72-23.5c10.25,8.11,19,17.67,25.48,29.46A162.89,162.89,0,0,1,63.79,490.53Zm38.25.3c-17.84-6.3-31.37-17.13-42.36-30.3,11-13.16,24.52-24,42.36-30.3,11.37,1.34,21.84,4,29.77,8.23-11.69.74-23,3.34-31.64,7.58-9.48.54-17.32,4.45-14.44,14.49-2.88,10,5,14,14.44,14.49,8.61,4.28,20,6.86,31.64,7.6C123.88,486.81,113.39,489.51,102,490.83Zm7.84-44.32c4.7-1.37,9-3.07,14.73-3.46.31.75.65,1.88,1,3.09a37,37,0,0,0-4.14,3.76,40.64,40.64,0,0,0-11.6-3.34Zm11.62,24.67a35.12,35.12,0,0,0,4.14,3.75c-.38,1.21-.72,2.35-1,3.09-5.7-.38-10-2.09-14.73-3.46v0A40.77,40.77,0,0,0,121.5,471.18Zm5.8-.51c-.12.21-.24.46-.35.7a61.49,61.49,0,0,1-9.68-10.85A60.79,60.79,0,0,1,127,449.67c.11.24.23.47.35.69a39,39,0,0,0,8.7,10.13,39.39,39.39,0,0,0-8.7,10.14Zm24.58-35.18a104.55,104.55,0,0,1,15.5-4.07,41.89,41.89,0,0,1,.13,8.6,32.92,32.92,0,0,1-1.15,6.22,61.28,61.28,0,0,0-18.77,6.45c3-4.82,4.31-10.9,4.29-17.2Zm-7.21,2.89c1.48-.68,3-1.31,4.56-1.91,0,.73,0,1.49-.06,2.25-1.49-.15-3-.26-4.5-.34Zm0-17.46c1.5-.08,3-.19,4.5-.33,0,.76.05,1.51.06,2.24-1.55-.6-3.08-1.24-4.56-1.91ZM142,398.77a32.49,32.49,0,0,1,11.66-6.31c1.66,2.13,3.35,4.17,5,6.31-1.62,2.12-3.31,4.17-5,6.31A32.49,32.49,0,0,1,142,398.77Zm11.66,55.45c1.66,2.13,3.35,4.18,5,6.31-1.62,2.12-3.31,4.18-5,6.31A32.49,32.49,0,0,1,142,460.53a32.64,32.64,0,0,1,11.66-6.31Zm-9,28.47c1.5-.09,3-.2,4.5-.34,0,.77.05,1.51.06,2.25-1.55-.6-3.08-1.24-4.56-1.91Zm22.68,7a105.86,105.86,0,0,1-15.5-4.09c0-6.29-1.29-12.37-4.31-17.18a61.39,61.39,0,0,0,18.8,6.42,32.76,32.76,0,0,1,1.14,6.22h0a40.83,40.83,0,0,1-.13,8.63Zm0-61.77a105.83,105.83,0,0,1-15.5-4.08c0-6.3-1.29-12.38-4.31-17.19a61.39,61.39,0,0,0,18.8,6.42,32.9,32.9,0,0,1,1.14,6.22h0a40.83,40.83,0,0,1-.13,8.63Zm20.44,62.29c-1.37.23-2.78.43-4.2.6q-2.29-.9-4.48-1.89c-1.46.65-3,1.29-4.49,1.89q-2.12-.25-4.2-.6c-.08-3.89.81-9.46-.26-13a43.58,43.58,0,0,0,4.26-1.72,40.9,40.9,0,0,0,4.69-.32,40.9,40.9,0,0,0,4.69.32,42.42,42.42,0,0,0,4.25,1.72c-1.07,3.56-.17,9.13-.26,13Zm-4-44.55a40.9,40.9,0,0,0-4.69.32,40.74,40.74,0,0,0-4.69-.32,41.15,41.15,0,0,0-4.26-1.71c1.07-3.56.18-9.14.26-13,1.38-.22,2.79-.42,4.21-.6,1.52.6,3,1.23,4.48,1.89,1.46-.66,3-1.29,4.48-1.89,1.42.18,2.83.38,4.2.6.09,3.89-.81,9.47.26,13a40.11,40.11,0,0,0-4.25,1.71Zm4-17.21c-1.37.22-2.78.42-4.2.6-1.53-.6-3-1.24-4.48-1.9q-2.19,1-4.49,1.9-2.12-.27-4.2-.6c-.08-3.89.81-9.47-.26-13a41.22,41.22,0,0,0,4.26-1.72,40.88,40.88,0,0,0,4.69-.31,40.88,40.88,0,0,0,4.69.31,40.17,40.17,0,0,0,4.25,1.72c-1.07,3.56-.17,9.14-.26,13Zm3.07,61.24a42,42,0,0,1-.13-8.61h0a33.07,33.07,0,0,1,1.15-6.22,61.52,61.52,0,0,0,18.77-6.44c-3,4.81-4.31,10.89-4.31,17.18a105.61,105.61,0,0,1-15.48,4.09Zm1-138.39a61.26,61.26,0,0,0,18.77-6.44c-3,4.81-4.31,10.89-4.31,17.19a105.83,105.83,0,0,1-15.5,4.08,42,42,0,0,1-.13-8.61h0A33.11,33.11,0,0,1,191.88,351.27ZM209,361.06c0-.73,0-1.47.06-2.24,1.49.14,3,.25,4.51.33C212.08,359.83,210.55,360.47,209,361.06Zm4.57,15.55c-1.51.09-3,.2-4.51.35,0-.77-.05-1.52-.06-2.26q2.33.9,4.56,1.91Zm-22.71-7a104.68,104.68,0,0,1,15.51,4.07c0,6.29,1.29,12.38,4.3,17.19a60.81,60.81,0,0,0-18.77-6.44,33,33,0,0,1-1.14-6.23A41.8,41.8,0,0,1,190.86,369.64Zm1,43.4a61.52,61.52,0,0,0,18.77-6.44c-3,4.8-4.31,10.89-4.31,17.18a104.59,104.59,0,0,1-15.5,4.08,41.9,41.9,0,0,1-.13-8.6h0A33,33,0,0,1,191.88,413ZM209,422.83c0-.73,0-1.48.06-2.24,1.49.14,3,.25,4.51.33C212.08,421.6,210.55,422.24,209,422.83Zm4.57,15.55c-1.51.08-3,.19-4.51.34,0-.76-.05-1.52-.06-2.25q2.33.9,4.56,1.91Zm-22.71-7a104.71,104.71,0,0,1,15.51,4.08c0,6.29,1.29,12.38,4.3,17.19a60.81,60.81,0,0,0-18.77-6.44,33,33,0,0,1-1.14-6.23A41.9,41.9,0,0,1,190.86,431.4ZM209,484.58c0-.73,0-1.48.06-2.24,1.49.14,3,.25,4.51.33q-2.19,1-4.52,1.93Zm-4.41-17.75c-1.66-2.12-3.35-4.18-5-6.31,1.62-2.12,3.31-4.18,5-6.31a32.49,32.49,0,0,1,11.66,6.31,32.53,32.53,0,0,1-11.63,6.32Zm0-61.77c-1.66-2.12-3.35-4.17-5-6.31,1.62-2.12,3.31-4.17,5-6.31a32.49,32.49,0,0,1,11.66,6.31,32.56,32.56,0,0,1-11.63,6.33Zm0-61.77c-1.66-2.12-3.35-4.17-5-6.31,1.62-2.12,3.31-4.17,5-6.31A32.8,32.8,0,0,1,216.2,337a32.4,32.4,0,0,1-11.63,6.33Zm17.67,117.24a39,39,0,0,0,8.71-10.13c.12-.22.24-.45.35-.69A61.59,61.59,0,0,1,241,460.56a62,62,0,0,1-9.69,10.85c-.11-.24-.23-.48-.35-.7A39.24,39.24,0,0,0,222.21,460.53Zm26.1-75.74a40.66,40.66,0,0,0-11.59,3.34,37,37,0,0,0-4.14-3.77c.38-1.21.71-2.34,1-3.09,5.7.39,10,2.1,14.73,3.47Zm0,28c-4.69,1.36-9,3.07-14.73,3.45-.31-.74-.64-1.87-1-3.08a37,37,0,0,0,4.14-3.76,41,41,0,0,0,11.6,3.34Zm-7.35-14a62,62,0,0,1-9.69,10.85c-.11-.24-.23-.49-.35-.7a39.43,39.43,0,0,0-8.71-10.14,39,39,0,0,0,8.71-10.13c.12-.22.24-.45.35-.69A61.74,61.74,0,0,1,241,398.77Zm7.35,47.78a41,41,0,0,0-11.59,3.34,37.85,37.85,0,0,0-4.14-3.76c.38-1.21.71-2.34,1-3.09,5.7.39,10,2.09,14.73,3.46Zm0,28c-4.69,1.37-9,3.08-14.73,3.46-.31-.74-.64-1.88-1-3.09a35.93,35.93,0,0,0,4.14-3.75,40.94,40.94,0,0,0,11.6,3.33Zm-21.92,8.06c11.69-.74,23-3.34,31.64-7.6,9.47-.52,17.32-4.44,14.44-14.49,2.88-10-5-13.95-14.43-14.49-8.62-4.26-20-6.84-31.65-7.58,7.93-4.18,18.41-6.89,29.77-8.23,17.85,6.31,31.37,17.14,42.36,30.3-11,13.17-24.51,24-42.36,30.3-11.34-1.32-21.83-4-29.75-8.21Zm68.05-52.08c4.16,3.34,9,5,13.91,2.51,2.58.62,5.08,1.32,7.43,2.1a178.46,178.46,0,0,1-15.73,23.55,96.87,96.87,0,0,1-25-28.63h-.48l.24-.43-.24-.42h.48a97.14,97.14,0,0,1,25-28.62,177.8,177.8,0,0,1,15.71,23.5c-2.34.78-4.83,1.48-7.43,2.1-4.88-2.5-9.75-.83-13.91,2.55-2.94.37-6,.67-9,.88,3,.24,6.06.53,9,.94ZM308.35,488c-4.88-2.51-9.75-.84-13.91,2.54a162.86,162.86,0,0,1-19.86,1.31c6.46-11.79,15.23-21.35,25.48-29.46a177.87,177.87,0,0,1,15.72,23.5c-2.36.78-4.85,1.45-7.45,2.11Zm18.14-12.52a174.46,174.46,0,0,1-24.05-15,174.47,174.47,0,0,1,24-14.91,119.64,119.64,0,0,1,4,14.94,117.48,117.48,0,0,1-4,15Zm0-61.77a174.46,174.46,0,0,1-24.05-15,174.4,174.4,0,0,1,24-14.9,118.72,118.72,0,0,1,4,14.94,117.78,117.78,0,0,1-4,15Zm.86-64.44.66,1.63c-5.93,9.27-10.81,16.51-14.74,21.7.86.25,1.72.51,2.51.79a177.48,177.48,0,0,1-15.73,23.55q-4.17-3.29-8-6.92l-1.19.44q4,4,7.65,8.35c-11,13.16-24.51,24-42.36,30.3-11.36-1.33-21.85-4-29.77-8.21,11.69-.75,23-3.34,31.64-7.6,9.47-.53,17.32-4.45,14.43-14.49a11.34,11.34,0,0,0,.09-7.1,34.5,34.5,0,0,1-16.12-8.14c-8.41-3.82-19.06-6.14-30-6.84a73.68,73.68,0,0,1,19-6.46l-4.1-5.63a68.48,68.48,0,0,1-14.85-5.51c3.44-.22,6.79-.6,10.08-1.13l-2.53-3.5h-.36c-.13-.3-.26-.68-.39-1.09l-7.43-10.32c-8.38-11.64-18.72-17.59-30.72-17.59-7,0-11.73,1.08-14.53,3-3.62,2.44-5.3,6.77-5.3,13,0,3.82.13,7.28.35,10.4,1.18,0,2.36-.12,3.53-.27a43.29,43.29,0,0,0,4.69.32,42.42,42.42,0,0,0,4.25,1.72c-1.07,3.55-.17,9.13-.26,13-1.37.22-2.78.42-4.2.6q-2.29-.9-4.48-1.89l-1.07.46q.71,1.94,1.72,4.3c1.24-.56,2.5-1.09,3.8-1.6q2.13.27,4.2.6c.09,3.9-.81,9.47.26,13-.62.21-1.29.45-2,.73a91.71,91.71,0,0,1,4.52,9.44H129.76a45.14,45.14,0,0,0,6.22,6.45,39.16,39.16,0,0,0-8.68,10.1c-.12.21-.24.46-.35.7a61.49,61.49,0,0,1-9.68-10.85A60.79,60.79,0,0,1,127,387.87c.11.24.23.47.35.69a29.37,29.37,0,0,0,2.44,3.65,132.53,132.53,0,0,1,7.79-10.78c3.63-4.61,5.31-8.39,5.31-11.63V337.67L142,337l.86-.66V295.13a86.1,86.1,0,0,1-55.67-24.4c-13.69-13.27-22-28.8-24.69-46.61-3.86-2.67-8.22-3.78-12.6-1.56-2.58-.63-5.07-1.33-7.42-2.11A176.89,176.89,0,0,1,58.18,197q2,1.55,3.85,3.18c.07-.68.14-1.36.23-2-.87-1-1.73-2-2.58-3,1.22-1.48,2.5-2.93,3.81-4.35.17-.84.35-1.67.55-2.47q-2.84,2.58-5.87,5a176.89,176.89,0,0,1-15.72-23.5c2.35-.78,4.83-1.48,7.42-2.11,4.89,2.51,9.75.84,13.91-2.54,3.32-.44,6.72-.75,10.15-1,.29-.48.6-1,.86-1.45-3.74-.23-7.43-.55-11-1-4.16-3.34-9-5-13.91-2.54-2.58-.63-5.07-1.33-7.43-2.11a177.66,177.66,0,0,1,15.77-23.54,100.68,100.68,0,0,1,21.23,22.54c1-1.28,2-2.54,3-3.78A104.06,104.06,0,0,1,59.68,131.7c11-13.16,24.52-24,42.36-30.3,11.37,1.34,21.84,4,29.77,8.23-11.69.74-23,3.33-31.64,7.58-9.48.54-17.32,4.45-14.44,14.49-1.72,6.08.43,9.91,4.52,12.11a87.48,87.48,0,0,1,34.16-20.55c.86-.83,1.67-1.62,2.58-2.38.11.24.23.47.35.69s.28.48.43.71A94.69,94.69,0,0,1,149.92,119a35.91,35.91,0,0,0,2-12.36,104.55,104.55,0,0,1,15.5-4.07,41.19,41.19,0,0,1,.13,8.6,32.9,32.9,0,0,1-1.14,6.22,58.47,58.47,0,0,0-7.3,1.67q23,1.19,41.12,11.9c1.45-1.87,2.94-3.72,4.41-5.6a32.53,32.53,0,0,1,11.67,6.31,36.93,36.93,0,0,1-7.76,4.89,87.6,87.6,0,0,1,10,8.88c-4.31,3.82-8.35,7.21-12.06,10.21v1.06c-.71.25-1.45.48-2.19.71-4.46,3.57-8.4,6.5-11.83,8.87a102.44,102.44,0,0,1,14,3.77c0,6.29,1.29,12.38,4.31,17.2A60.92,60.92,0,0,0,192,180.83a33.73,33.73,0,0,1-1.15-6.22,41.45,41.45,0,0,1,0-7.22l-.8.53c-.95-2.28-2-4.42-3-6.45-1.1.16-2.2.32-3.32.46-1.52-.6-3-1.23-4.47-1.89-1.47.66-3,1.29-4.49,1.89-1.42-.17-2.82-.37-4.21-.6-.07-3.89.81-9.46-.25-13a40.17,40.17,0,0,0,4.25-1.72,15,15,0,0,0,1.64-.06,39,39,0,0,0-20.73-10.65c-.57.7-1.13,1.41-1.72,2.12a28.69,28.69,0,0,1-6.62-2.82,41.41,41.41,0,0,0-18,4,25.63,25.63,0,0,0-1.73,2.65c-.12.22-.24.46-.35.7-.52-.46-1-.94-1.51-1.42-1.06.64-2.1,1.33-3.11,2.07a36.64,36.64,0,0,0,3.31,2.91c-.38,1.21-.71,2.35-1,3.09a38.46,38.46,0,0,1-7.76-1.36q-1.55,1.53-3,3.24a101.5,101.5,0,0,0,17.94,2.72c-6.89,3.63-15.64,6.14-25.25,7.61-.73,1.24-1.43,2.49-2.09,3.75,10.42,1.42,20,4,27.34,7.91-11.69.75-23,3.34-31.63,7.59-.72,0-1.42.1-2.11.19a83.31,83.31,0,0,0-3.36,23.63c0,1.5,0,3,.12,4.44a31.87,31.87,0,0,0,5.35.72c8.61,4.28,19.94,6.85,31.63,7.6-7.92,4.17-18.4,6.88-29.77,8.21-1.84-.65-3.62-1.36-5.37-2.1a64.42,64.42,0,0,0,15.08,29.84,57.42,57.42,0,0,0,31.1,18.74V269c0-9.47-5-17-15.09-23.27v-6.25q13.71-1.22,44.71-14.39c-.68-.09-1.37-.19-2-.3-.08-3.88.81-9.46-.26-13a40.17,40.17,0,0,0,4.25-1.72,41.06,41.06,0,0,0,4.7-.31,40.71,40.71,0,0,0,4.68.31,41.22,41.22,0,0,0,4.26,1.72,24.06,24.06,0,0,0-.46,7.42c1-.35,2-.7,3-1,0-.84.06-1.67.14-2.51h0a33.87,33.87,0,0,1,1.14-6.22A61.08,61.08,0,0,0,210.66,203a28.68,28.68,0,0,0-3.81,10.75,72.19,72.19,0,0,1,14.21-1.59,78.59,78.59,0,0,1,21.36,2.83,71.13,71.13,0,0,0,15.66-5.34c9.48-.53,17.32-4.45,14.44-14.49,2.88-10-4.95-14-14.43-14.49-8.61-4.27-20-6.85-31.65-7.59,7.93-4.18,18.41-6.89,29.77-8.22,17.85,6.3,31.37,17.13,42.36,30.3-9.88,11.84-21.84,21.79-37.14,28.26,12.06,7.73,18,18,18,30.95,0,11.09-5.59,21.37-16.76,30.3l-30.44,20a61.33,61.33,0,0,1,5.71,5.69,109,109,0,0,1,18.27-3.64c17.85,6.3,31.37,17.14,42.36,30.3a105.49,105.49,0,0,1-19.5,18.36c.86.79,1.73,1.51,2.5,2.18a103,103,0,0,1,18.51-18.69,157.16,157.16,0,0,1,9.2,12.79,31.06,31.06,0,0,1,8.56-4.47A157.81,157.81,0,0,1,302.46,337a174.57,174.57,0,0,1,24-15,118.72,118.72,0,0,1,4,14.94,121.69,121.69,0,0,1-3.12,12.3Zm-201.69-232a37,37,0,0,0-4.14,3.77,40.48,40.48,0,0,0-11.59-3.34v0c4.69-1.37,9-3.08,14.73-3.47.26.79.6,1.92,1,3.13Zm87.92,55.68c-1.51.09-3,.19-4.51.34,0-.76,0-1.51-.06-2.25q2.31,1,4.55,2ZM209,155.73c0-.73,0-1.47.06-2.24,1.49.14,3,.25,4.51.33C212.08,154.5,210.55,155.14,209,155.73Zm7.25,39.38a32.8,32.8,0,0,1-11.66,6.31c-1.66-2.12-3.35-4.18-5-6.31,1.62-2.12,3.31-4.18,5-6.32a32.7,32.7,0,0,1,11.65,6.32Zm-45.81-29.65c1.38-.22,2.79-.42,4.21-.6,1.52.61,3,1.23,4.48,1.89,1.45-.66,3-1.28,4.48-1.89q2.13.27,4.2.6c.09,3.9-.81,9.47.26,13a39.1,39.1,0,0,0-4.26,1.72,40.71,40.71,0,0,0-4.68.31,41.06,41.06,0,0,0-4.7-.31,38.15,38.15,0,0,0-4.25-1.72c1-3.56.16-9.13.24-13ZM149.25,171c0,.74,0,1.49-.06,2.25-1.49-.15-3-.25-4.51-.34q2.2-1,4.55-1.91Zm-4.57-17.22c1.51-.08,3-.19,4.51-.33,0,.77.05,1.51.06,2.24-1.57-.6-3.1-1.23-4.58-1.91Zm7.21,16.24A104.68,104.68,0,0,1,167.4,166a41.91,41.91,0,0,1,.13,8.6,34,34,0,0,1-1.15,6.23,60.9,60.9,0,0,0-18.77,6.44c3-4.82,4.29-10.9,4.27-17.2Zm1.73,18.73c1.66,2.13,3.35,4.18,5,6.32-1.62,2.12-3.31,4.17-5,6.31A32.84,32.84,0,0,1,142,195.11a32.48,32.48,0,0,1,11.69-6.32Zm-6,14.19a61.24,61.24,0,0,0,18.75,6.4,32.76,32.76,0,0,1,1.14,6.22h0a40.53,40.53,0,0,1-.13,8.6,104.59,104.59,0,0,1-15.5-4.08c.05-6.27-1.27-12.35-4.28-17.16Zm1.66,16.21c-1.56-.6-3.09-1.23-4.57-1.91,1.51-.08,3-.19,4.51-.33,0,.78,0,1.48,0,2.22Zm18.09-58.37a106,106,0,0,1-15.51-4.09c0-6.29-1.29-12.37-4.3-17.18a61.3,61.3,0,0,0,18.81,6.39,33,33,0,0,1,1.14,6.22h0a40.82,40.82,0,0,1-.13,8.63Zm-57.4,48.27a40.62,40.62,0,0,0,11.6-3.33,36.87,36.87,0,0,0,4.14,3.75c-.38,1.21-.71,2.35-1,3.09-5.71-.38-10-2.09-14.73-3.46Zm0-28c4.7-1.37,9-3.07,14.73-3.46.31.75.65,1.88,1,3.09a37,37,0,0,0-4.14,3.76,41,41,0,0,0-11.6-3.34.14.14,0,0,1-.08,0Zm7.39,14A61.2,61.2,0,0,1,127,184.25c.11.25.23.48.35.7a39,39,0,0,0,8.7,10.13,39.37,39.37,0,0,0-8.76,10.12c-.12.22-.24.46-.35.71a61.18,61.18,0,0,1-9.68-10.8Zm209.2,15a175,175,0,0,1-24-15,175.27,175.27,0,0,1,24-15,119.33,119.33,0,0,1,4,15,117.78,117.78,0,0,1-4,15Zm0-63.43a175.06,175.06,0,0,1-24-15,174.23,174.23,0,0,1,24-14.94,118.72,118.72,0,0,1,4,14.94,118.37,118.37,0,0,1-4,15Zm0-62.61a175,175,0,0,1-24-15,174.23,174.23,0,0,1,24-14.94,118.72,118.72,0,0,1,4,14.94,117.78,117.78,0,0,1-4,15Z"/><path class="cls-5" d="M55.79,131.67a174.27,174.27,0,0,0-24-14.94,119,119,0,0,0-4,15,119.48,119.48,0,0,0,4,15A173.57,173.57,0,0,0,55.79,131.67Z"/><path class="cls-5" d="M216.24,131.67a32.53,32.53,0,0,0-11.67-6.31c-1.47,1.89-3,3.73-4.41,5.6a83.16,83.16,0,0,1,8.3,5.6A36.67,36.67,0,0,0,216.24,131.67Z"/><path class="cls-5" d="M302.42,131.67a175.06,175.06,0,0,0,24.05,15,118.37,118.37,0,0,0,4-15,118.72,118.72,0,0,0-4-14.94A174.87,174.87,0,0,0,302.42,131.67Z"/><path class="cls-5" d="M300.05,133.51c-10.26,8.12-19,17.67-25.49,29.47a162.73,162.73,0,0,0,19.86-1.31c4.16-3.34,9-5,13.91-2.55,2.59-.62,5.09-1.33,7.43-2.1A178.56,178.56,0,0,0,300.05,133.51Z"/><path class="cls-5" d="M58.18,133.51A177,177,0,0,0,42.46,157c2.35.77,4.83,1.48,7.42,2.1,4.89-2.5,9.75-.83,13.91,2.55,3.61.47,7.31.79,11.05,1Q77,159.28,79.41,156A100.71,100.71,0,0,0,58.18,133.51Z"/><path class="cls-5" d="M209,153.45c0,.77,0,1.52-.06,2.25,1.57-.6,3.09-1.24,4.58-1.91C212,153.74,210.53,153.63,209,153.45Z"/><path class="cls-5" d="M149.17,109.86c0-.77.05-1.52.06-2.25-1.56.6-3.08,1.23-4.56,1.91C146.17,109.6,147.68,109.71,149.17,109.86Z"/><path class="cls-5" d="M179.11,117.09a38.76,38.76,0,0,1,4.69-.32,40.17,40.17,0,0,1,4.25-1.72c-1.07-3.55-.17-9.13-.26-13-1.37-.22-2.78-.42-4.2-.6-1.52.61-3,1.24-4.48,1.9-1.46-.66-3-1.29-4.48-1.9-1.42.18-2.82.38-4.21.6-.08,3.9.81,9.48-.26,13a41.22,41.22,0,0,1,4.26,1.72A38.62,38.62,0,0,1,179.11,117.09Z"/><path class="cls-5" d="M191.88,117.38a60.9,60.9,0,0,1,18.77,6.44c-3-4.81-4.31-10.9-4.31-17.19a104.55,104.55,0,0,0-15.5-4.07,41.8,41.8,0,0,0-.13,8.59A33.06,33.06,0,0,0,191.88,117.38Z"/><path class="cls-5" d="M127,142.5c.11-.24.23-.48.35-.7a27.15,27.15,0,0,1,1.72-2.64,39.3,39.3,0,0,0-3.56,1.92C125.94,141.56,126.43,142,127,142.5Z"/><path class="cls-5" d="M127.3,121.54c-.12-.22-.24-.45-.35-.7-.86.77-1.72,1.57-2.59,2.39,1.1-.35,2.2-.68,3.32-1A4.78,4.78,0,0,0,127.3,121.54Z"/><path class="cls-5" d="M116.89,147.8a39,39,0,0,0,7.75,1.36c.31-.75.65-1.88,1-3.09a38.18,38.18,0,0,1-3.31-2.92A48.56,48.56,0,0,0,116.89,147.8Z"/><path class="cls-5" d="M159,119.07a55.12,55.12,0,0,1,7.3-1.67,33,33,0,0,0,1.14-6.23,40.54,40.54,0,0,0-.13-8.6,103.37,103.37,0,0,0-15.5,4.08,35.89,35.89,0,0,1-2,12.35c1.16,0,2.31-.06,3.45-.06C155.26,118.93,157.17,119,159,119.07Z"/><path class="cls-5" d="M206.34,156.71v-1.06l-2.21,1.78C204.88,157.19,205.62,157,206.34,156.71Z"/><path class="cls-5" d="M232.58,146.07c.38,1.21.71,2.34,1,3.09,5.7-.39,10-2.1,14.73-3.46v0a40.8,40.8,0,0,1-11.59-3.34A38,38,0,0,1,232.58,146.07Z"/><path class="cls-5" d="M209,109.86c1.49-.15,3-.26,4.52-.34-1.5-.68-3-1.32-4.58-1.91C209,108.38,209,109.09,209,109.86Z"/><path class="cls-5" d="M230.92,141.77c.12.22.24.46.35.7A62,62,0,0,0,241,131.62a61.59,61.59,0,0,0-9.69-10.85c-.11.24-.23.47-.35.69a39,39,0,0,1-8.71,10.13A39.24,39.24,0,0,1,230.92,141.77Z"/><path class="cls-5" d="M147,135.16a28.76,28.76,0,0,0,6.63,2.82c.56-.71,1.12-1.42,1.72-2.12a46.06,46.06,0,0,0-8.12-.7Z"/><path class="cls-5" d="M233.6,114.22c-.31.76-.64,1.88-1,3.09a37,37,0,0,1,4.14,3.77,40.66,40.66,0,0,1,11.59-3.34s0,0,0,0C243.64,116.28,239.3,114.58,233.6,114.22Z"/><path class="cls-5" d="M256.18,162c17.85-6.3,31.37-17.14,42.36-30.3-11-13.16-24.51-24-42.36-30.3-11.36,1.34-21.85,4-29.77,8.22,11.69.74,23,3.34,31.65,7.59,9.47.53,17.31,4.45,14.42,14.49,2.89,10-4.94,14-14.43,14.49-8.62,4.27-20,6.85-31.64,7.6C234.33,158,244.82,160.64,256.18,162Z"/><path class="cls-5" d="M109.94,117.69a40.64,40.64,0,0,1,11.6,3.34,36.1,36.1,0,0,1,4.14-3.77c-.38-1.21-.71-2.33-1-3.09-5.71.4-10,2.1-14.73,3.47C109.93,117.66,109.94,117.67,109.94,117.69Z"/><path class="cls-5" d="M300.05,129.83a177.8,177.8,0,0,0,15.71-23.5c-2.34-.78-4.83-1.48-7.43-2.1-4.88,2.5-9.75.83-13.91-2.55a160.16,160.16,0,0,0-19.71-1.31h-.15A96.67,96.67,0,0,0,300.05,129.83Z"/><path class="cls-5" d="M176.05,146.51c-.54,0-1.08.06-1.63.07a43.58,43.58,0,0,1-4.26,1.72c1.07,3.55.18,9.13.26,13q2.09.33,4.2.6,2.3-.9,4.49-1.9,2.2,1,4.48,1.9c1.12-.14,2.21-.3,3.32-.47A57.66,57.66,0,0,0,176.05,146.51Z"/><path class="cls-5" d="M63.79,101.7c-4.16,3.34-9,5-13.91,2.55-2.58.63-5.07,1.33-7.42,2.1a176,176,0,0,0,15.72,23.48c10.25-8.12,19-17.67,25.48-29.45H83.5A162.43,162.43,0,0,0,63.79,101.7Z"/><polygon class="cls-5" points="83.66 100.37 83.66 100.37 83.67 100.37 83.66 100.37"/><path class="cls-5" d="M167.48,152.19h0a32.76,32.76,0,0,0-1.14-6.22,61.19,61.19,0,0,1-18.77-6.45c3,4.81,4.31,10.9,4.31,17.19a105.83,105.83,0,0,0,15.5,4.08A41.21,41.21,0,0,0,167.48,152.19Z"/><path class="cls-5" d="M149.17,153.45c-1.49.15-3,.25-4.5.34,1.48.68,3,1.31,4.56,1.91C149.22,155,149.21,154.29,149.17,153.45Z"/><path class="cls-5" d="M106.55,161.36c9.61-1.47,18.39-4,25.26-7.6a102.56,102.56,0,0,1-18-2.73,69,69,0,0,0-6,8.21C107.36,159.94,107,160.65,106.55,161.36Z"/><path class="cls-5" d="M90.25,143.77c-4.09-2.19-6.27-6-4.52-12.1-2.88-10,5-14,14.44-14.49,8.61-4.27,20-6.85,31.64-7.59-7.93-4.17-18.4-6.88-29.77-8.22-17.84,6.3-31.37,17.14-42.36,30.3a104.18,104.18,0,0,0,22.7,20.57Q85,149,88,146C88.75,145.22,89.5,144.5,90.25,143.77Z"/><path class="cls-5" d="M55.79,69.07a174.27,174.27,0,0,0-24-14.94,119.33,119.33,0,0,0-4,14.95,119.17,119.17,0,0,0,4,15A174.52,174.52,0,0,0,55.79,69.07Z"/><path class="cls-5" d="M199.6,69.07c1.62,2.12,3.31,4.17,5,6.31a32.53,32.53,0,0,0,11.67-6.31,32.53,32.53,0,0,0-11.67-6.31C202.91,64.89,201.25,67,199.6,69.07Z"/><path class="cls-5" d="M302.42,69.07a175,175,0,0,0,24.05,15,117.78,117.78,0,0,0,4-15,118.72,118.72,0,0,0-4-14.94A174.87,174.87,0,0,0,302.42,69.07Z"/><path class="cls-5" d="M308.33,96.52c2.59-.63,5.09-1.33,7.43-2.1a177.25,177.25,0,0,0-15.71-23.51c-10.26,8.12-19,17.67-25.49,29.46h.15a162.14,162.14,0,0,0,19.71-1.3C298.58,95.7,303.45,94,308.33,96.52Z"/><path class="cls-5" d="M58.18,70.91A176.35,176.35,0,0,0,42.46,94.42c2.35.77,4.83,1.47,7.42,2.1,4.89-2.5,9.75-.83,13.91,2.55a162.41,162.41,0,0,0,19.71,1.3h.16C77.21,88.58,68.43,79,58.18,70.91Z"/><path class="cls-5" d="M209,90.85c0,.77,0,1.51-.06,2.25,1.57-.6,3.09-1.24,4.58-1.91C212,91.14,210.53,91,209,90.85Z"/><path class="cls-5" d="M149.23,45c-1.56.61-3.08,1.24-4.56,1.92,1.5.08,3,.19,4.5.34C149.21,46.49,149.22,45.78,149.23,45Z"/><path class="cls-5" d="M174.42,54.17a38.62,38.62,0,0,1,4.69.32,38.76,38.76,0,0,1,4.69-.32,40.11,40.11,0,0,1,4.25-1.71c-1.07-3.56-.17-9.13-.26-13-1.37-.22-2.78-.42-4.2-.6-1.52.61-3,1.23-4.48,1.89-1.46-.66-3-1.28-4.48-1.89-1.42.18-2.82.38-4.21.6-.08,3.9.81,9.47-.26,13A41.15,41.15,0,0,1,174.42,54.17Z"/><path class="cls-5" d="M191.88,54.78a60.9,60.9,0,0,1,18.77,6.44c-3-4.81-4.31-10.9-4.31-17.19A104.59,104.59,0,0,0,190.84,40a41.91,41.91,0,0,0-.13,8.6A33.06,33.06,0,0,0,191.88,54.78Z"/><path class="cls-5" d="M127,58.24a61.49,61.49,0,0,0-9.68,10.85A60.79,60.79,0,0,0,127,79.94c.11-.24.23-.48.35-.7A39.37,39.37,0,0,1,136,69.11,39,39,0,0,1,127.3,59C127.17,58.72,127.06,58.48,127,58.24Z"/><path class="cls-5" d="M124.59,86.55c.31-.74.64-1.87,1-3.08a37,37,0,0,1-4.14-3.76,40.66,40.66,0,0,1-11.59,3.34v0C114.58,84.46,118.91,86.17,124.59,86.55Z"/><path class="cls-5" d="M166.34,54.78a33,33,0,0,0,1.14-6.23,40.54,40.54,0,0,0-.13-8.6A104.59,104.59,0,0,0,151.85,44c0,6.29-1.29,12.38-4.31,17.19A61.08,61.08,0,0,1,166.34,54.78Z"/><path class="cls-5" d="M206.34,94.11c0-6.29,1.29-12.38,4.31-17.19a61.22,61.22,0,0,1-18.77,6.42,33.07,33.07,0,0,0-1.15,6.22h0a42,42,0,0,0,.13,8.61A105.51,105.51,0,0,0,206.34,94.11Z"/><path class="cls-5" d="M232.58,83.47c.38,1.21.71,2.34,1,3.08,5.7-.38,10-2.09,14.73-3.45v0a40.8,40.8,0,0,1-11.59-3.34A38,38,0,0,1,232.58,83.47Z"/><path class="cls-5" d="M213.56,46.92c-1.5-.68-3-1.32-4.58-1.92,0,.74,0,1.49.06,2.26C210.53,47.11,212,47,213.56,46.92Z"/><path class="cls-5" d="M230.92,79.17c.12.21.24.46.35.7A62,62,0,0,0,241,69a61.59,61.59,0,0,0-9.69-10.85c-.11.24-.23.47-.35.69A39,39,0,0,1,222.21,69,39.24,39.24,0,0,1,230.92,79.17Z"/><path class="cls-5" d="M158.61,69.07c-1.62-2.12-3.31-4.18-5-6.31A32.49,32.49,0,0,0,142,69.07a32.49,32.49,0,0,0,11.66,6.31C155.3,73.26,157,71.19,158.61,69.07Z"/><path class="cls-5" d="M233.6,51.62c-.31.75-.64,1.88-1,3.09a37,37,0,0,1,4.14,3.77,40.66,40.66,0,0,1,11.59-3.34s0,0,0,0C243.64,53.68,239.3,52,233.6,51.62Z"/><path class="cls-5" d="M272.48,69.07c2.89,10-4.94,14-14.43,14.49-8.62,4.27-20,6.85-31.64,7.59,7.92,4.18,18.41,6.89,29.77,8.22,17.85-6.3,31.37-17.14,42.36-30.3-11-13.16-24.51-24-42.36-30.3-11.36,1.33-21.85,4-29.77,8.22,11.69.74,23,3.34,31.65,7.59C267.57,55.11,275.37,59,272.48,69.07Z"/><path class="cls-5" d="M121.5,58.43a37,37,0,0,1,4.14-3.76c-.38-1.21-.72-2.34-1-3.09-5.7.39-10,2.1-14.73,3.47v0A40.77,40.77,0,0,1,121.5,58.43Z"/><path class="cls-5" d="M300.05,67.23a177.8,177.8,0,0,0,15.71-23.5c-2.34-.78-4.83-1.48-7.43-2.11-4.88,2.51-9.75.84-13.91-2.5a158.84,158.84,0,0,0-19.86-1.31A97,97,0,0,0,300.05,67.23Z"/><path class="cls-5" d="M170.42,98.72q2.09.33,4.2.6c1.53-.6,3-1.24,4.49-1.9,1.47.66,3,1.3,4.48,1.9,1.42-.18,2.83-.38,4.2-.6.09-3.89-.81-9.47.26-13A44.94,44.94,0,0,1,183.8,84a43.29,43.29,0,0,1-4.69-.32,43.29,43.29,0,0,1-4.69.32,43.58,43.58,0,0,1-4.26,1.72C171.23,89.25,170.34,94.83,170.42,98.72Z"/><path class="cls-5" d="M83.66,37.77A160.94,160.94,0,0,0,63.79,39.1c-4.16,3.34-9,5-13.91,2.51-2.58.62-5.07,1.32-7.42,2.1A177.1,177.1,0,0,0,58.18,67.23,96.62,96.62,0,0,0,83.66,37.77Z"/><path class="cls-5" d="M167.35,98.19a40.63,40.63,0,0,0,.13-8.61h0a32.8,32.8,0,0,0-1.14-6.21,61.19,61.19,0,0,1-18.77-6.45c3,4.81,4.31,10.9,4.31,17.19A105.45,105.45,0,0,0,167.35,98.19Z"/><path class="cls-5" d="M149.17,90.85c-1.49.15-3,.25-4.5.34,1.48.68,3,1.31,4.56,1.91C149.22,92.4,149.21,91.69,149.17,90.85Z"/><path class="cls-5" d="M59.68,69.07c11,13.16,24.52,24,42.36,30.3,11.37-1.33,21.84-4,29.77-8.22-11.69-.74-23-3.33-31.64-7.59C90.69,83,82.85,79.11,85.73,69.07c-2.88-10,5-14,14.44-14.49,8.61-4.27,20-6.85,31.64-7.59-7.93-4.17-18.4-6.89-29.77-8.22C84.2,45.07,70.67,55.91,59.68,69.07Z"/><path class="cls-5" d="M55.79,195.11a174.33,174.33,0,0,0-24-15,119.48,119.48,0,0,0-4,15,119.17,119.17,0,0,0,4,15A175.49,175.49,0,0,0,55.79,195.11Z"/><path class="cls-5" d="M199.6,195.11c1.62,2.12,3.31,4.17,5,6.31a32.84,32.84,0,0,0,11.67-6.31,32.71,32.71,0,0,0-11.67-6.32C202.91,190.92,201.25,193,199.6,195.11Z"/><path class="cls-5" d="M302.42,195.11a175,175,0,0,0,24.05,15,117.78,117.78,0,0,0,4-15,119.33,119.33,0,0,0-4-15A174.93,174.93,0,0,0,302.42,195.11Z"/><path class="cls-5" d="M300.05,197c-10.26,8.11-19,17.67-25.49,29.46a162.73,162.73,0,0,0,19.86-1.31c4.16-3.34,9-5,13.91-2.5,2.59-.63,5.09-1.33,7.43-2.1A176.69,176.69,0,0,0,300.05,197Z"/><path class="cls-5" d="M62,200.13q-1.89-1.63-3.85-3.18a176.89,176.89,0,0,0-15.72,23.5c2.35.78,4.83,1.48,7.42,2.11,4.38-2.22,8.74-1.11,12.6,1.56a88,88,0,0,1-1-13.46A100.09,100.09,0,0,1,62,200.13Z"/><path class="cls-5" d="M149.17,173.29c0-.76.05-1.51.06-2.25q-2.34.9-4.56,1.91C146.17,173,147.68,173.14,149.17,173.29Z"/><path class="cls-5" d="M174.42,180.21a40.74,40.74,0,0,1,4.69.31,40.88,40.88,0,0,1,4.69-.31,38.15,38.15,0,0,1,4.25-1.72c-1.07-3.56-.17-9.13-.26-13-1.37-.22-2.78-.42-4.2-.6-1.52.61-3,1.23-4.48,1.89-1.46-.66-3-1.28-4.48-1.89-1.42.18-2.82.38-4.21.6-.08,3.9.81,9.47-.26,13A39.1,39.1,0,0,1,174.42,180.21Z"/><path class="cls-5" d="M190.73,174.59a33.17,33.17,0,0,0,1.15,6.23,60.9,60.9,0,0,1,18.77,6.44c-3-4.82-4.31-10.9-4.31-17.2a103.9,103.9,0,0,0-14-3.77l-1.58,1.08A41.45,41.45,0,0,0,190.73,174.59Z"/><path class="cls-5" d="M127.3,205.2a39.54,39.54,0,0,1,8.7-10.13,39,39,0,0,1-8.7-10.13c-.12-.22-.24-.45-.35-.69a60.79,60.79,0,0,0-9.68,10.85A61.49,61.49,0,0,0,127,206C127.06,205.7,127.17,205.46,127.3,205.2Z"/><path class="cls-5" d="M124.59,212.59c.31-.74.64-1.88,1-3.09a35.93,35.93,0,0,1-4.14-3.75,41,41,0,0,1-11.59,3.34h0C114.58,210.5,118.91,212.21,124.59,212.59Z"/><path class="cls-5" d="M166.34,180.82a33.15,33.15,0,0,0,1.14-6.23,40.54,40.54,0,0,0-.13-8.6,104.55,104.55,0,0,0-15.5,4.07c0,6.3-1.29,12.38-4.31,17.2A61.08,61.08,0,0,1,166.34,180.82Z"/><path class="cls-5" d="M210.65,203a61.22,61.22,0,0,1-18.77,6.42,32.77,32.77,0,0,0-1.15,6.22h0c-.08.83-.11,1.67-.14,2.5a138.11,138.11,0,0,1,16.24-4.41A28.54,28.54,0,0,1,210.65,203Z"/><path class="cls-5" d="M232.58,209.5c.38,1.21.71,2.35,1,3.09,5.7-.38,10-2.09,14.73-3.45h0a40.8,40.8,0,0,1-11.59-3.34A37.52,37.52,0,0,1,232.58,209.5Z"/><path class="cls-5" d="M209,173.29c1.49-.15,3-.25,4.52-.34-1.5-.68-3-1.31-4.58-1.91C209,171.82,209,172.53,209,173.29Z"/><path class="cls-5" d="M230.92,205.2c.12.22.24.46.35.71A62,62,0,0,0,241,195.06a61.65,61.65,0,0,0-9.69-10.86c-.11.25-.23.48-.35.7A39,39,0,0,1,222.21,195,39.36,39.36,0,0,1,230.92,205.2Z"/><path class="cls-5" d="M153.64,201.42c1.66-2.12,3.35-4.18,5-6.31-1.62-2.12-3.31-4.18-5-6.32A32.66,32.66,0,0,0,142,195.11,32.8,32.8,0,0,0,153.64,201.42Z"/><path class="cls-5" d="M233.6,177.66c-.31.75-.64,1.88-1,3.09a37.85,37.85,0,0,1,4.14,3.76,41,41,0,0,1,11.59-3.34s0,0,0,0C243.64,179.71,239.3,178,233.6,177.66Z"/><path class="cls-5" d="M261.4,223.37c15.3-6.48,27.25-16.42,37.18-28.26-11-13.17-24.51-24-42.36-30.3-11.36,1.33-21.84,4-29.77,8.22,11.69.74,23,3.34,31.65,7.59,9.47.53,17.31,4.44,14.43,14.49,2.88,10-4.95,14-14.44,14.49a71.13,71.13,0,0,1-15.66,5.34,72.74,72.74,0,0,1,17.39,7.44C260.38,222.73,260.89,223,261.4,223.37Z"/><path class="cls-5" d="M121.5,184.47a37,37,0,0,1,4.14-3.76c-.38-1.21-.72-2.34-1-3.09-5.7.39-10,2.09-14.73,3.46v0A41.11,41.11,0,0,1,121.5,184.47Z"/><path class="cls-5" d="M308.33,167.64c-4.88,2.51-9.75.84-13.91-2.54a158.84,158.84,0,0,0-19.86-1.31c6.46,11.78,15.23,21.34,25.49,29.46a177.8,177.8,0,0,0,15.71-23.5C313.42,169,310.93,168.29,308.33,167.64Z"/><path class="cls-5" d="M187.6,219.15a24.08,24.08,0,0,1,.45-7.42A42.42,42.42,0,0,1,183.8,210a43.28,43.28,0,0,1-4.69-.31,43.28,43.28,0,0,1-4.69.31,41.22,41.22,0,0,1-4.26,1.72c1.07,3.56.18,9.13.26,13,.67.11,1.36.2,2,.3l.54-.23Q180.67,221.58,187.6,219.15Z"/><path class="cls-5" d="M63.79,165.14c-4.16,3.34-9,5-13.91,2.55-2.58.62-5.07,1.32-7.42,2.1a177.34,177.34,0,0,0,15.72,23.48q3-2.4,5.87-5a86.41,86.41,0,0,1,9.89-24.12C70.51,164.36,67.11,164.68,63.79,165.14Z"/><path class="cls-5" d="M167.35,224.23a40.63,40.63,0,0,0,.13-8.61h0a33,33,0,0,0-1.14-6.22A61.43,61.43,0,0,1,147.57,203c3,4.81,4.31,10.89,4.31,17.19A106.72,106.72,0,0,0,167.35,224.23Z"/><path class="cls-5" d="M149.23,219.17c0-.74,0-1.48-.06-2.25-1.49.15-3,.25-4.5.34Q146.89,218.27,149.23,219.17Z"/><path class="cls-5" d="M102,225.4c11.37-1.32,21.84-4,29.77-8.21-11.69-.74-23-3.34-31.64-7.59a32.17,32.17,0,0,1-5.35-.73,84.53,84.53,0,0,0,1.84,14.43C98.41,224,100.19,224.75,102,225.4Z"/><path class="cls-5" d="M59.68,195.11c.85,1,1.71,2,2.59,3,.32-2.48.73-4.93,1.24-7.33C62.19,192.18,60.92,193.62,59.68,195.11Z"/><path class="cls-5" d="M100.17,180.62c8.61-4.27,20-6.85,31.64-7.59-7.36-3.9-16.93-6.5-27.35-7.91a83.63,83.63,0,0,0-6.39,15.68Q99.09,180.68,100.17,180.62Z"/><path class="cls-6" d="M55.79,337a174.27,174.27,0,0,0-24-14.94,119,119,0,0,0-4,15,119.48,119.48,0,0,0,4,15A173.57,173.57,0,0,0,55.79,337Z"/><path class="cls-6" d="M199.6,337c1.62,2.12,3.31,4.17,5,6.31A32.53,32.53,0,0,0,216.24,337a32.53,32.53,0,0,0-11.67-6.31C202.91,332.82,201.25,334.88,199.6,337Z"/><path class="cls-6" d="M302.42,337a159.9,159.9,0,0,0,15.39,10.17,22.88,22.88,0,0,1,8.22-1.12l1.3,3.25a121.69,121.69,0,0,0,3.12-12.3,118.72,118.72,0,0,0-4-14.94A174.87,174.87,0,0,0,302.42,337Z"/><path class="cls-6" d="M308.71,352l.54-.38c-2.88-4.42-5.93-8.71-9.2-12.78a102.6,102.6,0,0,0-18.51,18.68q7.35,6.12,11.25,6.11Z"/><path class="cls-6" d="M58.18,338.85a176.89,176.89,0,0,0-15.72,23.5c2.35.78,4.83,1.48,7.42,2.1,4.89-2.5,9.75-.83,13.91,2.51,2.95.37,6,.67,9,.88,3.45-.24,6.92-.37,10.4-.41A97.38,97.38,0,0,0,58.18,338.85Z"/><path class="cls-5" d="M83.66,368.31l-.24-.43-.23.42Z"/><path class="cls-5" d="M209,358.79c0,.76,0,1.51-.06,2.24,1.57-.6,3.09-1.24,4.58-1.91C212,359.07,210.53,359,209,358.79Z"/><path class="cls-5" d="M187.79,307.35c-1.37-.21-2.78-.41-4.2-.6-1.52.61-3,1.24-4.48,1.9l-1.37-.6v7.16c3.45-1.67,6.8-3.26,10-4.89C187.78,309.27,187.81,308.26,187.79,307.35Z"/><path class="cls-5" d="M190.78,308.71l1.19-.63-1.11-.23Z"/><path class="cls-6" d="M127.3,347.1A39.37,39.37,0,0,1,136,337a38.87,38.87,0,0,1-8.7-10.14c-.12-.21-.24-.45-.35-.69A61.49,61.49,0,0,0,117.27,337,60.79,60.79,0,0,0,127,347.84C127.06,347.59,127.17,347.35,127.3,347.1Z"/><path class="cls-6" d="M124.59,354.49c.31-.75.64-1.88,1-3.09a36,36,0,0,1-4.14-3.76A40.66,40.66,0,0,1,109.88,351h0C114.58,352.39,118.91,354.1,124.59,354.49Z"/><path class="cls-6" d="M190.86,366.12A105,105,0,0,0,206.37,362c0-6.29,1.29-12.38,4.3-17.18a61.49,61.49,0,0,1-18.79,6.41,33.07,33.07,0,0,0-1.15,6.22h0A42.18,42.18,0,0,0,190.86,366.12Z"/><path class="cls-5" d="M233.6,354.49H234l-.75-1.05C233.34,353.78,233.47,354.19,233.6,354.49Z"/><path class="cls-5" d="M142,337l.86.67v-1.33Z"/><path class="cls-6" d="M258.1,322.51c9.47.54,17.31,4.45,14.43,14.49,1.3,4.53.42,7.81-1.81,10.11q4.57,4.83,8.36,8.25A105.88,105.88,0,0,0,298.58,337c-11-13.16-24.51-24-42.36-30.3a109.58,109.58,0,0,0-18.31,3.68q2.75,3,6.7,7.37A67.6,67.6,0,0,1,258.1,322.51Z"/><path class="cls-6" d="M226.41,359.09a69.54,69.54,0,0,0,14.85,5.51L236.49,358C233.2,358.49,229.82,358.87,226.41,359.09Z"/><path class="cls-6" d="M121.5,326.37a36.1,36.1,0,0,1,4.14-3.77c-.38-1.21-.72-2.33-1-3.09-5.7.4-10,2.1-14.73,3.47h0A40.76,40.76,0,0,1,121.5,326.37Z"/><path class="cls-6" d="M294.42,307a158.84,158.84,0,0,0-19.86-1.31c6.46,11.78,15.23,21.34,25.49,29.46a177.8,177.8,0,0,0,15.71-23.5c-2.34-.78-4.83-1.48-7.43-2.11C303.45,312,298.58,310.37,294.42,307Z"/><path class="cls-5" d="M178,365.82l1.07-.46q2.2,1,4.48,1.89c1.42-.18,2.83-.38,4.2-.6.09-3.89-.81-9.47.26-13a42.42,42.42,0,0,1-4.25-1.72,43.29,43.29,0,0,1-4.69-.32c-1.17.15-2.35.23-3.53.27a67,67,0,0,0,1.89,12.33C177.63,364.7,177.82,365.25,178,365.82Z"/><path class="cls-6" d="M49.88,309.54c-2.58.63-5.07,1.33-7.42,2.1a176.45,176.45,0,0,0,15.72,23.52c10.25-8.12,19-17.67,25.48-29.46A159,159,0,0,0,63.79,307C59.63,310.37,54.77,312,49.88,309.54Z"/><path class="cls-6" d="M59.68,337c11,13.16,24.52,24,42.36,30.3,11.37-1.33,21.84-4,29.77-8.21-11.69-.75-23-3.34-31.64-7.6C90.69,351,82.85,347,85.73,337c-2.88-10,5-13.95,14.44-14.49,8.61-4.26,20-6.84,31.64-7.59-7.93-4.17-18.4-6.88-29.77-8.22C84.2,313,70.67,323.84,59.68,337Z"/><path class="cls-6" d="M55.79,398.77a174.27,174.27,0,0,0-24-14.94,118.87,118.87,0,0,0-4,14.95,119.17,119.17,0,0,0,4,15A174.52,174.52,0,0,0,55.79,398.77Z"/><path class="cls-6" d="M199.6,398.77c1.62,2.12,3.31,4.17,5,6.31a32.53,32.53,0,0,0,11.67-6.31,32.53,32.53,0,0,0-11.67-6.31C202.91,394.59,201.25,396.65,199.6,398.77Z"/><path class="cls-6" d="M302.42,398.77a175,175,0,0,0,24.05,15,117.78,117.78,0,0,0,4-15,118.72,118.72,0,0,0-4-14.94A174.87,174.87,0,0,0,302.42,398.77Z"/><path class="cls-5" d="M274.56,430.08H275l-.24-.42Z"/><path class="cls-6" d="M308.33,426.22c2.59-.63,5.09-1.33,7.43-2.1a177.25,177.25,0,0,0-15.71-23.51,97.3,97.3,0,0,0-25,28.63c3.44,0,6.95.17,10.39.41,3-.22,6-.51,9-.88C298.58,425.4,303.45,423.74,308.33,426.22Z"/><path class="cls-5" d="M83.66,430.08l-.24-.43-.23.42Z"/><path class="cls-6" d="M58.18,400.61a176.35,176.35,0,0,0-15.72,23.51c2.35.77,4.83,1.47,7.42,2.1,4.89-2.5,9.75-.83,13.91,2.55,2.95.37,6,.66,9,.88q5.17-.36,10.4-.41A97.41,97.41,0,0,0,58.18,400.61Z"/><path class="cls-6" d="M209,420.55c0,.77,0,1.51-.06,2.25,1.57-.6,3.09-1.24,4.58-1.91C212,420.84,210.53,420.73,209,420.55Z"/><path class="cls-5" d="M186.06,382.88c.7-.28,1.37-.52,2-.73-1.07-3.56-.17-9.13-.26-13-1.37-.22-2.78-.42-4.2-.6-1.29.52-2.56,1.05-3.8,1.6,1.1,2.51,2.48,5.41,4.09,8.67C184.68,380.26,185.4,381.61,186.06,382.88Z"/><path class="cls-6" d="M190.73,378.25a33,33,0,0,0,1.15,6.23,60.9,60.9,0,0,1,18.77,6.44c-3-4.81-4.31-10.9-4.31-17.19a104.59,104.59,0,0,0-15.5-4.08A41.91,41.91,0,0,0,190.73,378.25Z"/><path class="cls-6" d="M129.76,392.28a28,28,0,0,1-2.44-3.65c-.12-.21-.24-.45-.35-.69a62,62,0,0,0-9.69,10.85A61.24,61.24,0,0,0,127,409.64c.11-.24.23-.48.35-.7a39.18,39.18,0,0,1,8.7-10.13,45.14,45.14,0,0,1-6.23-6.44h0Z"/><path class="cls-6" d="M124.59,416.25c.31-.74.64-1.87,1-3.08a37,37,0,0,1-4.14-3.76,40.66,40.66,0,0,1-11.59,3.34v0C114.58,414.16,118.91,415.87,124.59,416.25Z"/><path class="cls-6" d="M190.86,427.89a106.29,106.29,0,0,0,15.51-4.08c0-6.3,1.29-12.38,4.3-17.19A61.24,61.24,0,0,1,191.88,413a32.92,32.92,0,0,0-1.15,6.22h0A42.2,42.2,0,0,0,190.86,427.89Z"/><path class="cls-6" d="M232.58,413.17c.38,1.21.71,2.34,1,3.08,5.7-.38,10-2.09,14.73-3.45v0a40.8,40.8,0,0,1-11.59-3.34A38,38,0,0,1,232.58,413.17Z"/><path class="cls-5" d="M209,377c1.49-.15,3-.26,4.52-.35-1.5-.67-3-1.31-4.58-1.91C209,375.48,209,376.19,209,377Z"/><path class="cls-6" d="M230.92,388.63a39.07,39.07,0,0,1-8.71,10.14,39.28,39.28,0,0,1,8.71,10.1c.12.21.24.46.35.7A62,62,0,0,0,241,398.72a61.24,61.24,0,0,0-9.69-10.85A4.57,4.57,0,0,1,230.92,388.63Z"/><path class="cls-6" d="M158.61,398.77c-1.62-2.12-3.31-4.18-5-6.31A32.49,32.49,0,0,0,142,398.77a32.49,32.49,0,0,0,11.66,6.31C155.3,403,157,400.89,158.61,398.77Z"/><path class="cls-6" d="M233.6,381.32c-.31.75-.64,1.88-1,3.09a37,37,0,0,1,4.14,3.77,40.66,40.66,0,0,1,11.59-3.34h0C243.64,383.38,239.3,381.67,233.6,381.32Z"/><path class="cls-6" d="M272.57,391.66a11.37,11.37,0,0,1-.09,7.11c2.89,10-4.94,14-14.43,14.49-8.62,4.27-20,6.85-31.64,7.59,7.92,4.18,18.41,6.89,29.77,8.22,17.85-6.31,31.37-17.14,42.36-30.3q-3.63-4.35-7.65-8.35a35.62,35.62,0,0,1-11.5,1.87A34,34,0,0,1,272.57,391.66Z"/><path class="cls-6" d="M249,375.28l-3.63-5a73.94,73.94,0,0,0-18.95,6.46c11,.69,21.63,3,30.05,6.84A51.68,51.68,0,0,1,249,375.28Z"/><path class="cls-6" d="M125.64,384.37c-.38-1.21-.72-2.34-1-3.09-5.7.39-10,2.1-14.73,3.46h0a41,41,0,0,1,11.6,3.34A37.61,37.61,0,0,1,125.64,384.37Z"/><path class="cls-5" d="M292.08,390q3.8,3.63,8,6.92a177.8,177.8,0,0,0,15.71-23.5c-.82-.28-1.66-.54-2.52-.79a70.28,70.28,0,0,1-4.8,5.84A43.88,43.88,0,0,1,292.08,390Z"/><path class="cls-6" d="M179.11,413.36a40.88,40.88,0,0,1-4.69.31,41.22,41.22,0,0,1-4.26,1.72c1.07,3.56.18,9.14.26,13q2.09.33,4.2.6c1.53-.6,3-1.24,4.49-1.9q2.2,1,4.48,1.9c1.42-.18,2.83-.38,4.2-.6.09-3.89-.81-9.47.26-13a40.17,40.17,0,0,1-4.25-1.72A40.88,40.88,0,0,1,179.11,413.36Z"/><path class="cls-7" d="M49.88,371.31c-2.58.62-5.07,1.32-7.42,2.1a177.1,177.1,0,0,0,15.72,23.52,97,97,0,0,0,25-28.63l.23-.42.23-.41h-.46c-3.49,0-7,.13-10.4.41-3,.21-6,.51-9,.89C59.63,372.14,54.77,373.81,49.88,371.31Z"/><path class="cls-6" d="M167.48,419.28a32.8,32.8,0,0,0-1.14-6.21,61.45,61.45,0,0,1-18.77-6.45c3,4.81,4.31,10.89,4.31,17.19a105.83,105.83,0,0,0,15.5,4.08,42,42,0,0,0,.13-8.61Z"/><path class="cls-6" d="M144.67,420.92q2.22,1,4.56,1.91c0-.73,0-1.48-.06-2.24C147.68,420.73,146.17,420.84,144.67,420.92Z"/><path class="cls-6" d="M102,368.47c-17.84,6.3-31.37,17.13-42.36,30.3,11,13.16,24.52,24,42.36,30.3,11.37-1.33,21.84-4,29.77-8.22-11.69-.74-23-3.34-31.64-7.59-9.48-.53-17.32-4.45-14.44-14.49-2.88-10,5-14,14.44-14.49,8.61-4.27,20-6.85,31.64-7.59C123.88,372.5,113.39,369.8,102,368.47Z"/><path class="cls-6" d="M31.74,445.59a119.48,119.48,0,0,0-4,15,119.17,119.17,0,0,0,4,15,174.59,174.59,0,0,0,24.05-15A174.27,174.27,0,0,0,31.74,445.59Z"/><path class="cls-6" d="M199.6,460.53c1.62,2.12,3.31,4.18,5,6.31a32.53,32.53,0,0,0,11.67-6.31,32.68,32.68,0,0,0-11.67-6.31C202.91,456.35,201.25,458.41,199.6,460.53Z"/><path class="cls-6" d="M302.42,460.53a175.06,175.06,0,0,0,24.05,15,117.48,117.48,0,0,0,4-15,119.64,119.64,0,0,0-4-14.94A174.87,174.87,0,0,0,302.42,460.53Z"/><path class="cls-6" d="M274.56,491.84a162.73,162.73,0,0,0,19.86-1.31c4.16-3.34,9-5,13.91-2.54,2.59-.63,5.09-1.33,7.43-2.11a177.8,177.8,0,0,0-15.71-23.5C289.79,470.49,281,480.05,274.56,491.84Z"/><path class="cls-6" d="M58.18,462.38a176.89,176.89,0,0,0-15.72,23.5c2.35.78,4.83,1.48,7.42,2.11,4.89-2.51,9.75-.84,13.91,2.54a162.89,162.89,0,0,0,19.87,1.31C77.21,480.05,68.43,470.49,58.18,462.38Z"/><path class="cls-5" d="M209,484.6c1.56-.6,3.09-1.24,4.57-1.91-1.51-.09-3-.2-4.51-.34C209,483.15,209,483.86,209,484.6Z"/><path class="cls-6" d="M144.67,438.38c1.5.08,3,.19,4.5.34,0-.76.05-1.52.06-2.25C147.68,437.07,146.15,437.71,144.67,438.38Z"/><path class="cls-6" d="M187.79,430.89c-1.37-.22-2.78-.42-4.2-.6-1.52.6-3,1.23-4.48,1.89-1.46-.66-3-1.29-4.48-1.89-1.42.18-2.82.38-4.21.6-.08,3.89.81,9.47-.26,13a41.15,41.15,0,0,1,4.26,1.71,40.74,40.74,0,0,1,4.69.32,40.9,40.9,0,0,1,4.69-.32,40.11,40.11,0,0,1,4.25-1.71C187,440.36,187.88,434.78,187.79,430.89Z"/><path class="cls-6" d="M190.73,440a32.92,32.92,0,0,0,1.15,6.22,61.19,61.19,0,0,1,18.77,6.45c-3-4.82-4.31-10.9-4.31-17.2a104.55,104.55,0,0,0-15.5-4.07A41.91,41.91,0,0,0,190.73,440Z"/><path class="cls-6" d="M127.3,450.4c-.12-.22-.24-.45-.35-.69a60.79,60.79,0,0,0-9.68,10.85A61.14,61.14,0,0,0,127,471.41c.11-.24.23-.48.35-.7a39.37,39.37,0,0,1,8.7-10.13A39.2,39.2,0,0,1,127.3,450.4Z"/><path class="cls-6" d="M124.59,478c.31-.74.64-1.88,1-3.09a35.93,35.93,0,0,1-4.14-3.75,40.65,40.65,0,0,1-11.59,3.33v.05C114.58,475.93,118.91,477.64,124.59,478Z"/><path class="cls-6" d="M167.48,440a40.52,40.52,0,0,0-.13-8.6,104.55,104.55,0,0,0-15.5,4.07c0,6.3-1.29,12.38-4.31,17.2a61.19,61.19,0,0,1,18.77-6.45A33,33,0,0,0,167.48,440Z"/><path class="cls-6" d="M191.88,474.81a32.77,32.77,0,0,0-1.15,6.22h0a41.91,41.91,0,0,0,.13,8.6,106.29,106.29,0,0,0,15.51-4.08c0-6.29,1.29-12.38,4.3-17.19A61.3,61.3,0,0,1,191.88,474.81Z"/><path class="cls-6" d="M232.58,474.93c.38,1.21.71,2.35,1,3.09,5.7-.38,10-2.09,14.73-3.46v0a40.48,40.48,0,0,1-11.59-3.34A36,36,0,0,1,232.58,474.93Z"/><path class="cls-6" d="M209,438.72c1.49-.15,3-.26,4.52-.34-1.5-.68-3-1.31-4.58-1.91C209,437.25,209,438,209,438.72Z"/><path class="cls-6" d="M231.27,471.37A62,62,0,0,0,241,460.52a61.24,61.24,0,0,0-9.69-10.85c-.11.24-.23.47-.35.69a39,39,0,0,1-8.71,10.13,39.43,39.43,0,0,1,8.71,10.14Z"/><path class="cls-6" d="M153.64,466.84c1.66-2.12,3.35-4.17,5-6.31-1.62-2.12-3.31-4.17-5-6.31A32.64,32.64,0,0,0,142,460.53,32.49,32.49,0,0,0,153.64,466.84Z"/><path class="cls-6" d="M233.6,443.09c-.31.75-.64,1.88-1,3.09a37.85,37.85,0,0,1,4.14,3.76,41,41,0,0,1,11.59-3.34h0C243.64,445.14,239.3,443.44,233.6,443.09Z"/><path class="cls-6" d="M298.58,460.53c-11-13.16-24.51-24-42.36-30.3-11.36,1.34-21.84,4-29.77,8.23,11.69.74,23,3.34,31.65,7.58,9.47.54,17.31,4.45,14.43,14.49,2.88,10-4.95,14-14.44,14.49-8.61,4.28-19.95,6.86-31.64,7.6,7.93,4.17,18.41,6.89,29.77,8.21C274,484.53,287.55,473.7,298.58,460.53Z"/><path class="cls-6" d="M125.64,446.14c-.38-1.21-.72-2.34-1-3.09-5.7.39-10,2.09-14.73,3.46h0a40.64,40.64,0,0,1,11.6,3.34A36.62,36.62,0,0,1,125.64,446.14Z"/><path class="cls-6" d="M274.56,429.23l.23.42.24.42a98,98,0,0,0,25,28.63,176.93,176.93,0,0,0,15.71-23.51c-2.34-.77-4.83-1.47-7.42-2.1-4.89,2.5-9.75.83-13.91-2.5-2.95-.39-6-.68-9-.9-3.45-.24-6.89-.38-10.39-.41Z"/><path class="cls-6" d="M183.8,475.44a40.9,40.9,0,0,1-4.69-.32,40.9,40.9,0,0,1-4.69.32,43.58,43.58,0,0,1-4.26,1.72c1.07,3.56.18,9.13.26,13q2.09.35,4.2.6,2.3-.9,4.49-1.89c1.47.65,3,1.29,4.48,1.89,1.42-.17,2.83-.37,4.2-.6.09-3.89-.81-9.46.26-13A42.42,42.42,0,0,1,183.8,475.44Z"/><path class="cls-6" d="M83.19,429.24q-5.22,0-10.4.41c-3,.22-6,.51-9,.89-4.16,3.34-9,5-13.91,2.51-2.58.62-5.07,1.32-7.42,2.1A177.41,177.41,0,0,0,58.18,458.7a97,97,0,0,0,25-28.63l.23-.42.23-.42Z"/><path class="cls-6" d="M167.48,481.05a33,33,0,0,0-1.14-6.22,61.43,61.43,0,0,1-18.77-6.44c3,4.81,4.31,10.89,4.31,17.18a105.86,105.86,0,0,0,15.5,4.09,42,42,0,0,0,.13-8.61Z"/><path class="cls-5" d="M144.67,482.69q2.22,1,4.56,1.91c0-.74,0-1.48-.06-2.25C147.68,482.49,146.17,482.6,144.67,482.69Z"/><path class="cls-6" d="M85.73,460.53c-2.88-10,5-13.95,14.44-14.49,8.61-4.26,20-6.84,31.64-7.58-7.93-4.18-18.4-6.89-29.77-8.23-17.84,6.31-31.37,17.14-42.36,30.3,11,13.17,24.52,24,42.36,30.3,11.37-1.32,21.84-4,29.77-8.21-11.69-.74-23-3.34-31.64-7.6C90.68,474.5,82.85,470.58,85.73,460.53Z"/><path class="cls-8" d="M111.74,253.14A64.37,64.37,0,0,1,96.66,223.3a84.53,84.53,0,0,1-1.84-14.43c-.07-1.46-.11-2.94-.11-4.44a83.09,83.09,0,0,1,9.75-39.29c.66-1.26,1.36-2.51,2.09-3.76.42-.71.86-1.41,1.28-2.12a68.87,68.87,0,0,1,6-8.2c1-1.15,2-2.23,3-3.24a50.15,50.15,0,0,1,5.43-4.64c1-.74,2.06-1.44,3.11-2.07a38.26,38.26,0,0,1,3.57-1.93,41.59,41.59,0,0,1,18-4h.19a46.09,46.09,0,0,1,8.13.7A39.14,39.14,0,0,1,176,146.51a57.39,57.39,0,0,1,10.85,14.94c1.06,2,2.08,4.17,3,6.45.26-.17.53-.36.81-.53l1.57-1.08c3.45-2.37,7.38-5.3,11.84-8.86l2.21-1.78c3.7-3,7.71-6.39,12.06-10.21a87.6,87.6,0,0,0-10-8.88,81.88,81.88,0,0,0-8.29-5.6q-18.09-10.7-41.12-11.89-2.82-.15-5.7-.15c-1.16,0-2.31,0-3.44.06a94.71,94.71,0,0,0-22.16,3.27c-1.12.3-2.22.63-3.31,1a87.57,87.57,0,0,0-34.16,20.54c-.75.73-1.5,1.45-2.24,2.21-2,2-3.85,4.13-5.61,6.26-1,1.24-2,2.5-3,3.78q-2.46,3.27-4.57,6.67c-.31.49-.61,1-.87,1.46a86.27,86.27,0,0,0-9.88,24.15c-.2.84-.38,1.67-.56,2.46-.51,2.41-.92,4.85-1.24,7.34-.08.68-.16,1.35-.23,2a100,100,0,0,0-.55,10.52,88,88,0,0,0,1,13.47c2.72,17.81,11,33.34,24.68,46.61a85.91,85.91,0,0,0,55.67,24.39V271.89A57.53,57.53,0,0,1,111.74,253.14Z"/><path class="cls-8" d="M196.94,283.72c15.92-8.93,26-21.11,29.88-36.53q-7.55,0-15.08,6.49a106.42,106.42,0,0,1-17.59,12.72A66.25,66.25,0,0,1,177.79,272v19.6A90.81,90.81,0,0,0,196.94,283.72Z"/><path class="cls-8" d="M317.81,347.17a30.77,30.77,0,0,0-8.56,4.46l-.54.38-15.92,11.63q-3.9,0-11.25-6.11c-.8-.66-1.64-1.39-2.5-2.17q-3.8-3.42-8.37-8.25c-2.5-2.66-5.18-5.62-8-8.91q-11-12.61-18-20.5-4-4.41-6.7-7.36a65.24,65.24,0,0,0-5.71-5.69l30.44-20c11.2-8.93,16.75-19.2,16.75-30.31,0-13-5.92-23.21-18-30.95l-1.55-1a72.83,72.83,0,0,0-17.46-7.44A79,79,0,0,0,221,212.1a72,72,0,0,0-14.2,1.6,138.15,138.15,0,0,0-16.24,4.42c-1,.32-2,.67-3,1q-6.9,2.43-14.65,5.67l-.53.23q-31,13.19-44.71,14.39v6.22c10.06,6.22,15.09,13.8,15.09,23.27v3a73.45,73.45,0,0,0,16.66,1.82A91.09,91.09,0,0,0,177.74,272V254.32c0-6.76,4.19-13,12.29-18.94,7.54-5.69,15.08-8.35,22.34-8.35,8.1,0,15.08,3,21.22,8.92q9.21,8.53,9.22,20.3c0,11.1-8.37,22.73-24.85,35.45a179.74,179.74,0,0,1-26,16.45l-1.19.63-3.05,1.59c-3.19,1.62-6.51,3.25-10,4.88V291.56a103.08,103.08,0,0,1-28.29,3.79c-2.24,0-4.44-.09-6.61-.23v74.74c0,3.25-1.68,7-5.31,11.64-4.42,5.67-6.91,9.4-7.77,10.78v0h60.87a91.71,91.71,0,0,0-4.52-9.44c-.67-1.27-1.39-2.62-2.18-4.09-1.61-3.26-3-6.15-4.09-8.67-.71-1.57-1.28-3-1.73-4.3-.21-.57-.4-1.12-.57-1.67a66.69,66.69,0,0,1-1.88-12.33c-.23-3.11-.36-6.57-.36-10.4,0-6.22,1.73-10.55,5.31-13,2.8-1.9,7.55-3,14.52-3,12,0,22.35,6,30.73,17.58l7.42,10.33.76,1.05,2.52,3.51,4.78,6.63,4.06,5.64,3.63,5.05a51.8,51.8,0,0,0,7.5,8.24,34.41,34.41,0,0,0,16.12,8.14,33.91,33.91,0,0,0,6.82.66,35.66,35.66,0,0,0,11.5-1.87l1.19-.44a44.22,44.22,0,0,0,16.36-11.49c1.41-1.52,3-3.49,4.81-5.84,3.93-5.21,8.81-12.44,14.74-21.7l-.66-1.63-1.3-3.25A23.11,23.11,0,0,0,317.81,347.17Z"/></g></g></svg>