<svg xmlns="http://www.w3.org/2000/svg" viewBox="0 0 360 540"><defs><style>.cls-1{fill:#fff;stroke:#000;}</style></defs><g id="Layer_2" data-name="Layer 2"><g id="svg2"><g id="g14606"><rect id="rect14608" class="cls-1" x="0.5" y="0.5" width="359" height="539" rx="29.94"/><g id="g14610"><path id="path14612" d="M15,30l-5,7v7l5-7V80h5V30H15"/><path id="path14614" d="M35,30A10,10,0,0,0,25,40V70a10,10,0,0,0,20,0V40A10,10,0,0,0,35,30m0,5a5,5,0,0,1,5,5V70a5,5,0,0,1-10,0V40a5,5,0,0,1,5-5"/></g><g id="g14616"><path id="path14618" d="M345,510l5-7v-7l-5,7V460h-5v50h5"/><path id="path14620" d="M325,510a10,10,0,0,0,10-10V470a10,10,0,1,0-20,0v30a10,10,0,0,0,10,10m0-5a5,5,0,0,1-5-5V470a5,5,0,1,1,10,0v30a5,5,0,0,1-5,5"/></g><path id="path14622" d="M100,50c-1.33,6.67-2.86,8.39-5.33,12-2.14,3.11-5.13,5.56-8,8s-6.25,4.41-9.34,6.67c-3.58,2.62-7.82,4.59-10.66,8C63.48,88.48,60,93,60,98c0,4,2.41,8,5.33,10.67A19.89,19.89,0,0,0,78.67,114c5.37-.12,10.8-2.94,14.66-6.67,2.86-2.75,5.34-10.66,5.34-10.66v2.66c0,1.34-.14,7.29-1.34,10.67a31.92,31.92,0,0,1-6.66,10.67c-3,3.27-10.67,8-10.67,8V130s10.61-2.22,16-2.67a48.57,48.57,0,0,1,8,0c5.39.45,16,2.67,16,2.67v-1.33s-7.66-4.73-10.67-8A31.92,31.92,0,0,1,102.67,110c-1.2-3.38-1.34-10.67-1.34-10.67V96.67s2.47,7.9,5.34,10.66c3.86,3.73,9.29,6.55,14.66,6.67a19.89,19.89,0,0,0,13.34-5.33C137.59,106,140,102,140,98c0-5-3.48-9.52-6.67-13.33-2.85-3.41-7.08-5.38-10.67-8-3.08-2.26-6.41-4.2-9.33-6.67s-5.86-4.89-8-8c-2.48-3.61-4-5.33-5.33-12"/><path id="path14624" d="M260,50c-1.33,6.67-2.86,8.39-5.33,12-2.14,3.11-5.13,5.56-8,8s-6.25,4.41-9.34,6.67c-3.58,2.62-7.82,4.59-10.66,8C223.48,88.48,220,93,220,98c0,4,2.41,8,5.33,10.67A19.89,19.89,0,0,0,238.67,114c5.37-.12,10.8-2.94,14.66-6.67,2.87-2.75,5.34-10.66,5.34-10.66v2.66c0,1.34-.14,7.29-1.34,10.67a31.92,31.92,0,0,1-6.66,10.67c-3,3.27-10.67,8-10.67,8V130s10.61-2.22,16-2.67a48.57,48.57,0,0,1,8,0c5.39.45,16,2.67,16,2.67v-1.33s-7.66-4.73-10.67-8A31.92,31.92,0,0,1,262.67,110c-1.2-3.38-1.34-10.67-1.34-10.67V96.67s2.47,7.9,5.34,10.66c3.86,3.73,9.29,6.55,14.66,6.67a19.89,19.89,0,0,0,13.34-5.33C297.59,106,300,102,300,98c0-5-3.48-9.52-6.67-13.33-2.85-3.41-7.08-5.38-10.67-8-3.08-2.26-6.41-4.2-9.33-6.67s-5.86-4.89-8-8c-2.48-3.61-4-5.33-5.33-12"/><path id="path14626" d="M180,110c-1.33,6.67-2.85,8.39-5.33,12-2.14,3.11-5.13,5.56-8,8s-6.25,4.41-9.34,6.67c-3.58,2.62-7.82,4.59-10.66,8C143.48,148.48,140,153,140,158c0,4,2.41,8,5.33,10.67A19.89,19.89,0,0,0,158.67,174c5.37-.12,10.8-2.94,14.66-6.67,2.87-2.75,5.34-10.66,5.34-10.66v2.66c0,1.34-.14,7.29-1.34,10.67a31.92,31.92,0,0,1-6.66,10.67c-3,3.27-10.67,8-10.67,8V190s10.61-2.22,16-2.67a48.57,48.57,0,0,1,8,0c5.39.45,16,2.67,16,2.67v-1.33s-7.66-4.73-10.67-8A31.92,31.92,0,0,1,182.67,170c-1.2-3.38-1.34-10.67-1.34-10.67v-2.66s2.47,7.9,5.34,10.66c3.86,3.73,9.29,6.55,14.66,6.67a19.89,19.89,0,0,0,13.34-5.33C217.59,166,220,162,220,158c0-5-3.48-9.52-6.67-13.33-2.85-3.41-7.08-5.38-10.67-8-3.08-2.26-6.41-4.2-9.33-6.67s-5.86-4.89-8-8c-2.48-3.61-4-5.33-5.33-12"/><path id="path14628" d="M100,170c-1.33,6.67-2.86,8.39-5.33,12-2.14,3.11-5.13,5.56-8,8s-6.25,4.41-9.34,6.67c-3.58,2.62-7.82,4.59-10.66,8C63.48,208.48,60,213,60,218c0,4,2.41,8,5.33,10.67A19.89,19.89,0,0,0,78.67,234c5.37-.12,10.8-2.94,14.66-6.67,2.86-2.75,5.34-10.66,5.34-10.66v2.66c0,1.34-.14,7.29-1.34,10.67a31.92,31.92,0,0,1-6.66,10.67c-3,3.27-10.67,8-10.67,8V250s10.61-2.22,16-2.67a48.57,48.57,0,0,1,8,0c5.39.45,16,2.67,16,2.67v-1.33s-7.66-4.73-10.67-8A31.92,31.92,0,0,1,102.67,230c-1.2-3.38-1.34-10.67-1.34-10.67v-2.66s2.47,7.9,5.34,10.66c3.86,3.73,9.29,6.55,14.66,6.67a19.89,19.89,0,0,0,13.34-5.33C137.59,226,140,222,140,218c0-5-3.48-9.52-6.67-13.33-2.85-3.41-7.08-5.38-10.67-8-3.08-2.26-6.41-4.2-9.33-6.67s-5.86-4.89-8-8c-2.48-3.61-4-5.33-5.33-12"/><path id="path14630" d="M260,170c-1.33,6.67-2.86,8.39-5.33,12-2.14,3.11-5.13,5.56-8,8s-6.25,4.41-9.34,6.67c-3.58,2.62-7.82,4.59-10.66,8C223.48,208.48,220,213,220,218c0,4,2.41,8,5.33,10.67A19.89,19.89,0,0,0,238.67,234c5.37-.12,10.8-2.94,14.66-6.67,2.87-2.75,5.34-10.66,5.34-10.66v2.66c0,1.34-.14,7.29-1.34,10.67a31.92,31.92,0,0,1-6.66,10.67c-3,3.27-10.67,8-10.67,8V250s10.61-2.22,16-2.67a48.57,48.57,0,0,1,8,0c5.39.45,16,2.67,16,2.67v-1.33s-7.66-4.73-10.67-8A31.92,31.92,0,0,1,262.67,230c-1.2-3.38-1.34-10.67-1.34-10.67v-2.66s2.47,7.9,5.34,10.66c3.86,3.73,9.29,6.55,14.66,6.67a19.89,19.89,0,0,0,13.34-5.33C297.59,226,300,222,300,218c0-5-3.48-9.52-6.67-13.33-2.85-3.41-7.08-5.38-10.67-8-3.08-2.26-6.41-4.2-9.33-6.67s-5.86-4.89-8-8c-2.48-3.61-4-5.33-5.33-12"/><path id="path14632" d="M100,370c-1.33-6.67-2.86-8.39-5.33-12-2.14-3.11-5.13-5.56-8-8s-6.25-4.41-9.34-6.67c-3.58-2.62-7.82-4.59-10.66-8C63.48,331.52,60,327,60,322c0-4,2.41-8,5.33-10.66A19.86,19.86,0,0,1,78.67,306c5.37.13,10.8,2.94,14.66,6.67,2.86,2.76,5.34,10.67,5.34,10.67v-2.67c0-1.33-.14-7.29-1.34-10.67a31.78,31.78,0,0,0-6.66-10.66c-3-3.28-10.67-8-10.67-8V290s10.61,2.22,16,2.67a48.57,48.57,0,0,0,8,0c5.39-.45,16-2.67,16-2.67v1.34s-7.66,4.72-10.67,8A31.78,31.78,0,0,0,102.67,310c-1.2,3.38-1.34,10.67-1.34,10.67v2.67s2.47-7.91,5.34-10.67c3.86-3.73,9.29-6.54,14.66-6.67a19.86,19.86,0,0,1,13.34,5.34C137.59,314,140,318,140,322c0,5-3.48,9.52-6.67,13.34-2.85,3.41-7.08,5.37-10.67,8-3.08,2.25-6.41,4.19-9.33,6.66s-5.86,4.89-8,8c-2.48,3.61-4,5.34-5.33,12"/><path id="path14634" d="M260,370c-1.33-6.67-2.86-8.39-5.33-12-2.14-3.11-5.13-5.56-8-8s-6.25-4.41-9.34-6.67c-3.58-2.62-7.82-4.59-10.66-8C223.48,331.52,220,327,220,322c0-4,2.41-8,5.33-10.67A19.89,19.89,0,0,1,238.67,306c5.37.12,10.8,2.94,14.66,6.67,2.87,2.75,5.34,10.66,5.34,10.66v-2.66c0-1.34-.14-7.29-1.34-10.67a31.92,31.92,0,0,0-6.66-10.67c-3-3.27-10.67-8-10.67-8V290s10.61,2.22,16,2.67a48.57,48.57,0,0,0,8,0c5.39-.45,16-2.67,16-2.67v1.33s-7.66,4.73-10.67,8A31.92,31.92,0,0,0,262.67,310c-1.2,3.38-1.34,10.67-1.34,10.67v2.66s2.47-7.9,5.34-10.66c3.86-3.73,9.29-6.55,14.66-6.67a19.89,19.89,0,0,1,13.34,5.33C297.59,314,300,318,300,322c0,5-3.48,9.52-6.67,13.33-2.85,3.41-7.08,5.38-10.67,8-3.08,2.26-6.41,4.2-9.33,6.67s-5.86,4.89-8,8c-2.48,3.61-4,5.33-5.33,12"/><path id="path14636" d="M180,430c-1.33-6.67-2.85-8.39-5.33-12-2.14-3.11-5.13-5.56-8-8s-6.25-4.41-9.34-6.67c-3.58-2.62-7.82-4.59-10.66-8C143.48,391.52,140,387,140,382c0-4,2.41-8,5.33-10.67A19.89,19.89,0,0,1,158.67,366c5.37.12,10.8,2.94,14.66,6.67,2.87,2.75,5.34,10.66,5.34,10.66v-2.66c0-1.34-.14-7.29-1.34-10.67a31.92,31.92,0,0,0-6.66-10.67c-3-3.27-10.67-8-10.67-8V350s10.61,2.22,16,2.67a48.57,48.57,0,0,0,8,0c5.39-.45,16-2.67,16-2.67v1.33s-7.66,4.73-10.67,8A31.92,31.92,0,0,0,182.67,370c-1.2,3.38-1.34,10.67-1.34,10.67v2.66s2.47-7.9,5.34-10.66c3.86-3.73,9.29-6.55,14.66-6.67a19.89,19.89,0,0,1,13.34,5.33C217.59,374,220,378,220,382c0,5-3.48,9.52-6.67,13.33-2.85,3.41-7.08,5.38-10.67,8-3.08,2.26-6.41,4.2-9.33,6.67s-5.86,4.89-8,8c-2.48,3.61-4,5.33-5.33,12"/><path id="path14638" d="M100,490c-1.33-6.67-2.86-8.39-5.33-12-2.14-3.11-5.13-5.56-8-8s-6.25-4.41-9.34-6.67c-3.58-2.62-7.82-4.58-10.66-8C63.48,451.52,60,447,60,442c0-4,2.41-8,5.33-10.66A19.9,19.9,0,0,1,78.67,426c5.37.13,10.8,2.94,14.66,6.67,2.86,2.76,5.34,10.67,5.34,10.67v-2.67c0-1.33-.14-7.29-1.34-10.67a31.78,31.78,0,0,0-6.66-10.66c-3-3.28-10.67-8-10.67-8V410s10.61,2.22,16,2.67a48.57,48.57,0,0,0,8,0c5.39-.45,16-2.67,16-2.67v1.34s-7.66,4.72-10.67,8A31.78,31.78,0,0,0,102.67,430c-1.2,3.38-1.34,10.67-1.34,10.67v2.67s2.47-7.91,5.34-10.67c3.86-3.73,9.29-6.54,14.66-6.67a19.9,19.9,0,0,1,13.34,5.34C137.59,434,140,438,140,442c0,5-3.48,9.52-6.67,13.34-2.85,3.41-7.08,5.37-10.67,8-3.08,2.25-6.41,4.19-9.33,6.66s-5.86,4.89-8,8c-2.48,3.61-4,5.34-5.33,12"/><path id="path14640" d="M260,490c-1.33-6.67-2.86-8.39-5.33-12-2.14-3.11-5.13-5.56-8-8s-6.25-4.41-9.34-6.67c-3.58-2.62-7.82-4.58-10.66-8C223.48,451.56,220,447,220,442c0-4,2.41-8,5.33-10.67A19.89,19.89,0,0,1,238.67,426c5.37.12,10.8,2.94,14.66,6.67,2.87,2.76,5.34,10.66,5.34,10.66v-2.66c0-1.34-.14-7.29-1.34-10.67a31.92,31.92,0,0,0-6.66-10.67c-3-3.27-10.67-8-10.67-8V410s10.61,2.22,16,2.67a48.57,48.57,0,0,0,8,0c5.39-.45,16-2.67,16-2.67v1.33s-7.66,4.73-10.67,8A31.92,31.92,0,0,0,262.67,430c-1.2,3.38-1.34,10.67-1.34,10.67v2.66s2.47-7.9,5.34-10.66c3.86-3.73,9.29-6.55,14.66-6.67a19.89,19.89,0,0,1,13.34,5.33c2.92,2.7,5.33,6.69,5.33,10.67,0,5-3.48,9.52-6.67,13.33-2.85,3.42-7.08,5.38-10.67,8-3.08,2.26-6.41,4.2-9.33,6.67s-5.86,4.89-8,8c-2.48,3.61-4,5.33-5.33,12"/><path id="path14642" d="M30,90a9.4,9.4,0,0,1-2,4.5,15.78,15.78,0,0,1-3,3c-1.09.93-2.34,1.65-3.5,2.5-1.34,1-2.93,1.72-4,3-1.19,1.43-2.5,3.14-2.5,5a5.79,5.79,0,0,0,2,4,7.42,7.42,0,0,0,5,2,8.6,8.6,0,0,0,5.5-2.5c1.07-1,2-4,2-4v1a15.14,15.14,0,0,1-.5,4,12.1,12.1,0,0,1-2.5,4,25.65,25.65,0,0,1-4,3v.5s4-.83,6-1a18.78,18.78,0,0,1,3,0c2,.17,6,1,6,1v-.5a25.65,25.65,0,0,1-4-3,12.1,12.1,0,0,1-2.5-4,17.68,17.68,0,0,1-.5-4v-1s.93,3,2,4A8.6,8.6,0,0,0,38,114a7.44,7.44,0,0,0,5-2,5.79,5.79,0,0,0,2-4c0-1.86-1.31-3.57-2.5-5-1.07-1.28-2.65-2-4-3-1.16-.85-2.41-1.57-3.5-2.5a15.78,15.78,0,0,1-3-3A9.4,9.4,0,0,1,30,90"/><path id="path14644" d="M330,450a9.4,9.4,0,0,0-2-4.5,15.78,15.78,0,0,0-3-3c-1.09-.93-2.34-1.65-3.5-2.5-1.35-1-2.93-1.72-4-3-1.19-1.43-2.5-3.14-2.5-5a5.79,5.79,0,0,1,2-4,7.42,7.42,0,0,1,5-2,8.6,8.6,0,0,1,5.5,2.5c1.07,1,2,4,2,4v-1a15.14,15.14,0,0,0-.5-4,12.1,12.1,0,0,0-2.5-4,25.65,25.65,0,0,0-4-3V420s4,.83,6,1a18.78,18.78,0,0,0,3,0c2-.17,6-1,6-1v.5a25.65,25.65,0,0,0-4,3,12.1,12.1,0,0,0-2.5,4,17.68,17.68,0,0,0-.5,4v1s.93-3,2-4A8.6,8.6,0,0,1,338,426a7.42,7.42,0,0,1,5,2,5.79,5.79,0,0,1,2,4c0,1.86-1.31,3.57-2.5,5-1.07,1.28-2.65,2-4,3-1.16.85-2.41,1.57-3.5,2.5a15.78,15.78,0,0,0-3,3,9.4,9.4,0,0,0-2,4.5"/></g></g></g></svg>