<svg xmlns="http://www.w3.org/2000/svg" viewBox="0 0 360 540"><defs><style>.cls-1{fill:#fff;stroke:#000;}.cls-2{fill:#f55;}</style></defs><g id="Layer_2" data-name="Layer 2"><g id="svg2"><g id="g378"><rect id="rect380" class="cls-1" x="0.5" y="0.5" width="359" height="539" rx="29.94"/><g id="g382"><path id="path384" class="cls-2" d="M30,97.5s.68-4.18,2-5.5a8.56,8.56,0,0,1,11,0,8.28,8.28,0,0,1,2,5.5,9.45,9.45,0,0,1-2,5.5c-1,1-2,1.5-3,2.5s-1.5,1-2.5,2L35,110a17.81,17.81,0,0,0-5,10,21.42,21.42,0,0,0-1.5-5,21.54,21.54,0,0,0-3.5-5l-2.5-2.5c-1-1-1.5-1-2.5-2s-2-1.5-3-2.5a9.45,9.45,0,0,1-2-5.5A8.28,8.28,0,0,1,17,92a8.56,8.56,0,0,1,11,0c1.32,1.32,2,5.5,2,5.5"/><path id="path386" class="cls-2" d="M330,442.5s.68,4.18,2,5.5a7.51,7.51,0,0,0,13-5.5,9.45,9.45,0,0,0-2-5.5c-1-1-2-1.5-3-2.5s-1.5-1-2.5-2L335,430a17.81,17.81,0,0,1-5-10,17.81,17.81,0,0,1-5,10l-2.5,2.5c-1,1-1.5,1-2.5,2s-2,1.5-3,2.5a9.45,9.45,0,0,0-2,5.5,7.79,7.79,0,0,0,13,5.5c1.32-1.32,2-5.5,2-5.5"/><path id="path388" class="cls-2" d="M100,70s1.82-11.15,5.33-14.67S115,50,120,50s11.15,1.82,14.67,5.33S140,65,140,70s-2.67,12-5.33,14.67-5.34,4-8,6.66-4,2.67-6.67,5.34l-6.67,6.66A57.73,57.73,0,0,0,104,116.67C101.33,122,100,130,100,130s-1.33-8-4-13.33a57.73,57.73,0,0,0-9.33-13.34L80,96.67C77.33,94,76,94,73.33,91.33s-5.33-4-8-6.66S60,75,60,70s1.82-11.16,5.33-14.67S75,50,80,50s11.15,1.82,14.67,5.33S100,70,100,70"/><path id="path390" class="cls-2" d="M100,470s1.82,11.15,5.33,14.67S115,490,120,490s11.15-1.82,14.67-5.33S140,475,140,470s-2.67-12-5.33-14.67-5.34-4-8-6.66-4-2.67-6.67-5.34l-6.67-6.66A57.73,57.73,0,0,1,104,423.33C101.33,418,100,410,100,410s-1.33,8-4,13.33a57.73,57.73,0,0,1-9.33,13.34L80,443.33c-2.67,2.67-4,2.67-6.67,5.34s-5.33,4-8,6.66S60,465,60,470s1.82,11.16,5.33,14.67S75,490,80,490s11.15-1.82,14.67-5.33S100,470,100,470"/><path id="path392" class="cls-2" d="M260,470s1.82,11.15,5.33,14.67S275,490,280,490s11.15-1.82,14.67-5.33S300,475,300,470s-2.67-12-5.33-14.67-5.34-4-8-6.66-4-2.67-6.67-5.34l-6.67-6.66A57.73,57.73,0,0,1,264,423.33C261.33,418,260,410,260,410s-1.33,8-4,13.33a57.73,57.73,0,0,1-9.33,13.34L240,443.33c-2.67,2.67-4,2.67-6.67,5.34s-5.33,4-8,6.66S220,465,220,470s1.82,11.15,5.33,14.67S235,490,240,490s11.15-1.82,14.67-5.33S260,470,260,470"/><path id="path394" class="cls-2" d="M260,70s1.82-11.15,5.33-14.67S275,50,280,50s11.15,1.82,14.67,5.33S300,65,300,70s-2.67,12-5.33,14.67-5.34,4-8,6.66-4,2.67-6.67,5.34l-6.67,6.66A57.73,57.73,0,0,0,264,116.67C261.33,122,260,130,260,130s-1.33-8-4-13.33a57.73,57.73,0,0,0-9.33-13.34L240,96.67c-2.67-2.67-4-2.67-6.67-5.34s-5.33-4-8-6.66S220,75,220,70s1.82-11.16,5.34-14.67S235,50,240,50s11.16,1.82,14.67,5.33S260,70,260,70"/><path id="path396" class="cls-2" d="M20,30V50H30a5,5,0,0,1,5,5V70a5,5,0,0,1-10,0V65H20v5a10,10,0,0,0,20,0V55A10,10,0,0,0,30,45H25V35H40V30H20Z"/><path id="path398" class="cls-2" d="M340,510V490H330a5,5,0,0,1-5-5V470a5,5,0,1,1,10,0v5h5v-5a10,10,0,1,0-20,0v15a10,10,0,0,0,10,10h5v10H320v5h20Z"/><path id="path400" class="cls-2" d="M180,250s1.82-11.15,5.33-14.67S195,230,200,230s11.15,1.82,14.67,5.33S220,245,220,250s-2.67,12-5.33,14.67-5.34,4-8,6.66-4,2.67-6.67,5.34l-6.67,6.66A57.73,57.73,0,0,0,184,296.67C181.33,302,180,310,180,310s-1.33-8-4-13.33a57.73,57.73,0,0,0-9.33-13.34L160,276.67c-2.67-2.67-4-2.67-6.67-5.34s-5.33-4-8-6.66S140,255,140,250s1.82-11.16,5.34-14.67S155,230,160,230s11.16,1.82,14.67,5.33S180,250,180,250"/></g></g></g></g></svg>