<svg xmlns="http://www.w3.org/2000/svg" viewBox="0 0 360 540"><defs><style>.cls-1{fill:#fff;stroke:#000;}.cls-2{fill:#f55;}</style></defs><g id="Layer_2" data-name="Layer 2"><g id="svg2"><g id="g428"><rect id="rect430" class="cls-1" x="0.5" y="0.5" width="359" height="539" rx="29.94"/><g id="g432"><path id="path434" class="cls-2" d="M100,50s8,13.33,17.33,22.67S140,90,140,90s-13.33,8-22.67,17.33S100,130,100,130s-8-13.33-17.33-22.66S60,90,60,90s13.34-8,22.67-17.34S100,50,100,50"/><path id="path436" class="cls-2" d="M260,50s8,13.33,17.33,22.67S300,90,300,90s-13.33,8-22.67,17.33S260,130,260,130s-8-13.33-17.33-22.66S220,90,220,90s13.33-8,22.67-17.34S260,50,260,50"/><path id="path438" class="cls-2" d="M180,140s8,13.33,17.33,22.67S220,180,220,180s-13.33,8-22.67,17.33S180,220,180,220s-8-13.33-17.33-22.66S140,180,140,180s13.33-8,22.67-17.34S180,140,180,140"/><path id="path440" class="cls-2" d="M100,230s8,13.33,17.33,22.67S140,270,140,270s-13.33,8-22.67,17.33S100,310,100,310s-8-13.33-17.33-22.66S60,270,60,270s13.34-8,22.67-17.34S100,230,100,230"/><path id="path442" class="cls-2" d="M260,230s8,13.33,17.33,22.67S300,270,300,270s-13.33,8-22.67,17.33S260,310,260,310s-8-13.33-17.33-22.66S220,270,220,270s13.33-8,22.67-17.34S260,230,260,230"/><path id="path444" class="cls-2" d="M100,410s8,13.33,17.33,22.67S140,450,140,450s-13.33,8-22.67,17.33S100,490,100,490s-8-13.33-17.33-22.66S60,450,60,450s13.34-8,22.67-17.34S100,410,100,410"/><path id="path446" class="cls-2" d="M260,410s8,13.33,17.33,22.67S300,450,300,450s-13.33,8-22.67,17.33S260,490,260,490s-8-13.33-17.33-22.66S220,450,220,450s13.33-8,22.67-17.34S260,410,260,410"/><path id="path448" class="cls-2" d="M330,420a40.48,40.48,0,0,0,15,15,40.48,40.48,0,0,0-15,15,40.48,40.48,0,0,0-15-15,40.48,40.48,0,0,0,15-15"/><path id="path450" class="cls-2" d="M30,90a51.6,51.6,0,0,0,6.5,8.5A51.6,51.6,0,0,0,45,105a51.6,51.6,0,0,0-8.5,6.5A51.6,51.6,0,0,0,30,120a51.6,51.6,0,0,0-6.5-8.5A51.6,51.6,0,0,0,15,105a51.6,51.6,0,0,0,8.5-6.5A51.6,51.6,0,0,0,30,90"/><path id="path452" class="cls-2" d="M20,30V40h5V35H35L25,80h5L40,35V30H20"/><path id="path454" class="cls-2" d="M340,510V500h-5v5H325l10-45h-5l-10,45v5h20"/></g></g></g></g></svg>