<svg xmlns="http://www.w3.org/2000/svg" viewBox="0 0 360 540"><defs><style>.cls-1{fill:#fff;stroke:#000;}</style></defs><g id="Layer_2" data-name="Layer 2"><g id="svg2"><g id="g252"><rect id="rect254" class="cls-1" x="0.5" y="0.5" width="359" height="539" rx="29.94"/><path id="path256" d="M30,30A10,10,0,0,0,20,40v5a9.92,9.92,0,0,0,3.41,7.5A9.92,9.92,0,0,0,20,60V70a10,10,0,0,0,20,0V60a9.92,9.92,0,0,0-3.41-7.5A9.92,9.92,0,0,0,40,45V40A10,10,0,0,0,30,30m0,5a5,5,0,0,1,5,5v5a5,5,0,0,1-10,0V40a5,5,0,0,1,5-5m0,20a5,5,0,0,1,5,5V70a5,5,0,0,1-10,0V60a5,5,0,0,1,5-5"/><path id="path258" d="M330,510a10,10,0,0,1-10-10v-5a9.92,9.92,0,0,1,3.41-7.5A9.92,9.92,0,0,1,320,480V470a10,10,0,1,1,20,0v10a9.92,9.92,0,0,1-3.41,7.5A9.92,9.92,0,0,1,340,495v5a10,10,0,0,1-10,10m0-5a5,5,0,0,0,5-5v-5a5,5,0,1,0-10,0v5a5,5,0,0,0,5,5m0-20a5,5,0,0,0,5-5V470a5,5,0,1,0-10,0v10a5,5,0,0,0,5,5"/><path id="path260" d="M100,50c-4-.08-6.67,1.33-9.33,4a12.09,12.09,0,0,0-4,9.33c0,4,1.51,6.38,4,9.34s4,4,5.33,6.66A31.48,31.48,0,0,1,98.67,90v4H96c-2.67,0-8-2.67-9.33-4l-4-4A12.89,12.89,0,0,0,64,86a12.88,12.88,0,0,0,0,18.66,12.89,12.89,0,0,0,18.67,0l4-4c1.33-1.33,6.66-4,9.33-4h2.67c-.07,3.78-.35,10.37-1.34,13.34a29,29,0,0,1-6.66,10.66c-2.67,2.67-10.67,8-10.67,8V130s13.33-2.67,16-2.67h8c2.67,0,16,2.67,16,2.67v-1.34s-8-5.33-10.67-8A29,29,0,0,1,102.67,110c-1-3-1.27-9.56-1.34-13.34H104c2.67,0,8,2.67,9.34,4l4,4a12.88,12.88,0,0,0,18.66,0A12.88,12.88,0,0,0,136,86a12.88,12.88,0,0,0-18.66,0l-4,4c-1.34,1.33-6.67,4-9.34,4h-2.66V90A31.46,31.46,0,0,1,104,79.34c1.34-2.66,2.67-4,5.34-6.66a12.17,12.17,0,0,0,4-9.34,12.12,12.12,0,0,0-4-9.33A12.11,12.11,0,0,0,100,50"/><path id="path262" d="M260,50c-4-.08-6.67,1.33-9.33,4a12.09,12.09,0,0,0-4,9.33c0,4,1.51,6.38,4,9.34s4,4,5.33,6.66A31.48,31.48,0,0,1,258.67,90v4H256c-2.67,0-8-2.67-9.34-4l-4-4A13.33,13.33,0,0,0,220,95.34a13.2,13.2,0,0,0,22.66,9.33l4-4c1.34-1.33,6.67-4,9.34-4h2.66c-.06,3.78-.34,10.37-1.33,13.34a28.87,28.87,0,0,1-6.67,10.66c-2.66,2.67-10.66,8-10.66,8V130s13.33-2.67,16-2.67h8c2.66,0,16,2.67,16,2.67v-1.34s-8-5.33-10.67-8A29,29,0,0,1,262.66,110c-1-3-1.26-9.56-1.33-13.34H264c2.67,0,8,2.67,9.33,4l4,4A13.34,13.34,0,0,0,300,95.34,13.2,13.2,0,0,0,277.33,86l-4,4c-1.33,1.33-6.66,4-9.33,4h-2.67V90A31.48,31.48,0,0,1,264,79.34c1.33-2.66,2.67-4,5.33-6.66a12.13,12.13,0,0,0,4-9.34,12.09,12.09,0,0,0-4-9.33A12.08,12.08,0,0,0,260,50"/><path id="path264" d="M100,230c-4-.08-6.67,1.33-9.33,4a12.09,12.09,0,0,0-4,9.33c0,4,1.51,6.38,4,9.34s4,4,5.33,6.66A31.48,31.48,0,0,1,98.67,270v4H96c-2.67,0-8-2.67-9.33-4l-4-4A12.89,12.89,0,0,0,64,266a12.88,12.88,0,0,0,0,18.66,12.89,12.89,0,0,0,18.67,0l4-4c1.33-1.33,6.66-4,9.33-4h2.67c-.07,3.78-.35,10.37-1.34,13.34a29,29,0,0,1-6.66,10.66c-2.67,2.67-10.67,8-10.67,8V310s13.33-2.67,16-2.67h8c2.67,0,16,2.67,16,2.67v-1.34s-8-5.33-10.67-8A29,29,0,0,1,102.67,290c-1-3-1.27-9.56-1.34-13.34H104c2.67,0,8,2.67,9.34,4l4,4a12.88,12.88,0,0,0,18.66,0A13.33,13.33,0,0,0,126.67,262a12.08,12.08,0,0,0-9.33,4l-4,4c-1.34,1.33-6.67,4-9.34,4h-2.66v-4A31.46,31.46,0,0,1,104,259.34c1.34-2.66,2.67-4,5.34-6.66A13.34,13.34,0,0,0,100,230"/><path id="path266" d="M260,230c-4-.08-6.67,1.33-9.33,4a12.09,12.09,0,0,0-4,9.33c0,4,1.51,6.38,4,9.34s4,4,5.33,6.66A31.48,31.48,0,0,1,258.67,270v4H256c-2.67,0-8-2.67-9.34-4l-4-4a13.33,13.33,0,1,0,0,18.66l4-4c1.34-1.33,6.67-4,9.34-4h2.66c-.06,3.78-.34,10.37-1.33,13.34a28.87,28.87,0,0,1-6.67,10.66c-2.66,2.67-10.66,8-10.66,8V310s13.33-2.67,16-2.67h8c2.66,0,16,2.67,16,2.67v-1.34s-8-5.33-10.67-8A29,29,0,0,1,262.66,290c-1-3-1.26-9.56-1.33-13.34H264c2.67,0,8,2.67,9.33,4l4,4a13.33,13.33,0,1,0,0-18.66l-4,4c-1.33,1.33-6.66,4-9.33,4h-2.67v-4A31.48,31.48,0,0,1,264,259.34c1.33-2.66,2.67-4,5.33-6.66A13.34,13.34,0,0,0,260,230"/><path id="path268" d="M180,140c-4-.08-6.67,1.33-9.33,4a12.09,12.09,0,0,0-4,9.33c0,4,1.51,6.38,4,9.34s4,4,5.33,6.66A31.48,31.48,0,0,1,178.67,180v4H176c-2.67,0-8-2.67-9.34-4l-4-4A12.88,12.88,0,0,0,144,176a13.33,13.33,0,0,0,9.33,22.66,12.08,12.08,0,0,0,9.33-4l4-4c1.34-1.33,6.67-4,9.34-4h2.66c-.06,3.78-.34,10.37-1.33,13.34a28.87,28.87,0,0,1-6.67,10.66c-2.66,2.67-10.66,8-10.66,8V220s13.33-2.67,16-2.67h8c2.66,0,16,2.67,16,2.67v-1.34s-8-5.33-10.67-8A29,29,0,0,1,182.66,200c-1-3-1.26-9.56-1.33-13.34H184c2.67,0,8,2.67,9.33,4l4,4A13.2,13.2,0,1,0,216,176a12.89,12.89,0,0,0-18.67,0l-4,4c-1.33,1.33-6.66,4-9.33,4h-2.67v-4A31.48,31.48,0,0,1,184,169.34c1.33-2.66,2.67-4,5.33-6.66a12.89,12.89,0,0,0,0-18.67,12.08,12.08,0,0,0-9.33-4"/><path id="path270" d="M260,490c4,.08,6.67-1.33,9.33-4a12.09,12.09,0,0,0,4-9.33c0-4-1.51-6.37-4-9.34s-4-4-5.33-6.66A31.48,31.48,0,0,1,261.33,450v-4H264c2.67,0,8,2.67,9.34,4l4,4a13.33,13.33,0,1,0,0-18.66l-4,4c-1.34,1.33-6.67,4-9.34,4h-2.66c.06-3.78.34-10.37,1.33-13.34a28.87,28.87,0,0,1,6.67-10.66c2.66-2.67,10.66-8,10.66-8V410s-13.33,2.67-16,2.67h-8c-2.66,0-16-2.67-16-2.67v1.34s8,5.33,10.67,8A29,29,0,0,1,257.34,430c1,3,1.26,9.56,1.33,13.34H256c-2.67,0-8-2.67-9.33-4l-4-4a13.33,13.33,0,1,0,0,18.66l4-4c1.33-1.33,6.66-4,9.33-4h2.67v4A31.48,31.48,0,0,1,256,460.71c-1.33,2.67-2.67,4-5.33,6.66A13.34,13.34,0,0,0,260,490"/><path id="path272" d="M100,490c4,.08,6.67-1.33,9.33-4a12.09,12.09,0,0,0,4-9.33c0-4-1.51-6.37-4-9.34s-4-4-5.33-6.66A31.48,31.48,0,0,1,101.33,450v-4H104c2.67,0,8,2.67,9.34,4l4,4A12.88,12.88,0,0,0,136,454a13.33,13.33,0,0,0-9.33-22.66,12.08,12.08,0,0,0-9.33,4l-4,4c-1.34,1.33-6.67,4-9.34,4h-2.66c.06-3.78.34-10.37,1.33-13.34a28.87,28.87,0,0,1,6.67-10.66c2.66-2.67,10.66-8,10.66-8V410s-13.33,2.67-16,2.67H96c-2.66,0-16-2.67-16-2.67v1.34s8,5.33,10.67,8A29,29,0,0,1,97.34,430c1,3,1.26,9.56,1.33,13.34H96c-2.66,0-8-2.67-9.33-4l-4-4a12.89,12.89,0,0,0-18.67,0A12.88,12.88,0,0,0,64,454a12.89,12.89,0,0,0,18.67,0l4-4c1.33-1.33,6.67-4,9.33-4h2.67v4A31.25,31.25,0,0,1,96,460.71c-1.33,2.67-2.66,4-5.33,6.66A13.34,13.34,0,0,0,100,490"/><path id="path274" d="M180,400c4,.08,6.67-1.33,9.33-4a12.09,12.09,0,0,0,4-9.33c0-4-1.51-6.38-4-9.34s-4-4-5.33-6.66A31.48,31.48,0,0,1,181.33,360v-4H184c2.67,0,8,2.67,9.34,4l4,4a13.33,13.33,0,1,0,0-18.66l-4,4c-1.34,1.33-6.67,4-9.34,4h-2.66c.06-3.78.34-10.37,1.33-13.34a28.87,28.87,0,0,1,6.67-10.66c2.66-2.67,10.66-8,10.66-8V320s-13.33,2.67-16,2.67h-8c-2.66,0-16-2.67-16-2.67v1.34s8,5.33,10.67,8A29,29,0,0,1,177.34,340c1,3,1.26,9.56,1.33,13.34H176c-2.67,0-8-2.67-9.33-4l-4-4a12.89,12.89,0,0,0-18.67,0A13.33,13.33,0,0,0,153.33,368a12.11,12.11,0,0,0,9.34-4l4-4c1.33-1.33,6.66-4,9.33-4h2.67v4A31.48,31.48,0,0,1,176,370.67c-1.33,2.66-2.67,4-5.33,6.66A13.34,13.34,0,0,0,180,400"/><path id="path276" d="M30,90a4.44,4.44,0,0,0-3.5,1.5A4.54,4.54,0,0,0,25,95a5,5,0,0,0,1.5,3.5,12.79,12.79,0,0,1,2,2.5,11.77,11.77,0,0,1,1,4v1.5h-1A7.47,7.47,0,0,1,25,105l-1.5-1.5A4.54,4.54,0,0,0,20,102a4.54,4.54,0,0,0-3.5,1.5,4.83,4.83,0,0,0,0,7A4.54,4.54,0,0,0,20,112a4.54,4.54,0,0,0,3.5-1.5L25,109a7.47,7.47,0,0,1,3.5-1.5h1a22.24,22.24,0,0,1-.5,5,10.89,10.89,0,0,1-2.5,4,39.87,39.87,0,0,1-4,3v.5s5-1,6-1h3c1,0,6,1,6,1v-.5a39.87,39.87,0,0,1-4-3,10.89,10.89,0,0,1-2.5-4,22.24,22.24,0,0,1-.5-5h1A7.47,7.47,0,0,1,35,109l1.5,1.5a4.83,4.83,0,0,0,7,0A5,5,0,0,0,40,102a4.54,4.54,0,0,0-3.5,1.5L35,105a7.47,7.47,0,0,1-3.5,1.5h-1V105a11.77,11.77,0,0,1,1-4,8.78,8.78,0,0,1,2-2.5,4.83,4.83,0,0,0,0-7A4.54,4.54,0,0,0,30,90"/><path id="path278" d="M330,450a4.44,4.44,0,0,0,3.5-1.5A4.54,4.54,0,0,0,335,445a5,5,0,0,0-1.5-3.5,12.79,12.79,0,0,1-2-2.5,11.77,11.77,0,0,1-1-4v-1.5h1A7.47,7.47,0,0,1,335,435l1.5,1.5a5,5,0,1,0,0-7L335,431a7.47,7.47,0,0,1-3.5,1.5h-1a22.24,22.24,0,0,1,.5-5,10.89,10.89,0,0,1,2.5-4,39.87,39.87,0,0,1,4-3V420s-5,1-6,1h-3c-1,0-6-1-6-1v.5a39.87,39.87,0,0,1,4,3,10.89,10.89,0,0,1,2.5,4,22.24,22.24,0,0,1,.5,5h-1A7.47,7.47,0,0,1,325,431l-1.5-1.5a5,5,0,1,0,0,7L325,435a7.47,7.47,0,0,1,3.5-1.5h1V435a11.77,11.77,0,0,1-1,4,8.78,8.78,0,0,1-2,2.5A5,5,0,0,0,330,450"/></g></g></g></svg>