<svg xmlns="http://www.w3.org/2000/svg" viewBox="0 0 360 540"><defs><style>.cls-1{fill:#fff;stroke:#000;}</style></defs><g id="Layer_2" data-name="Layer 2"><g id="svg2"><g id="g21017"><rect id="rect56" class="cls-1" x="0.5" y="0.5" width="359" height="539" rx="29.94"/><path id="path58" d="M180,230c-4-.08-6.67,1.33-9.33,4a12.09,12.09,0,0,0-4,9.33c0,4,1.51,6.37,4,9.34s4,4,5.33,6.66A31.48,31.48,0,0,1,178.67,270v4H176c-2.67,0-8-2.67-9.34-4l-4-4A12.88,12.88,0,0,0,144,266a13.33,13.33,0,0,0,9.33,22.66,12.08,12.08,0,0,0,9.33-4l4-4c1.34-1.33,6.67-4,9.34-4h2.66c-.06,3.78-.34,10.37-1.33,13.34a28.87,28.87,0,0,1-6.67,10.66c-2.66,2.67-10.66,8-10.66,8V310s13.33-2.67,16-2.67h8c2.66,0,16,2.67,16,2.67v-1.34s-8-5.33-10.67-8A29,29,0,0,1,182.66,290c-1-3-1.26-9.56-1.33-13.34H184c2.66,0,8,2.67,9.33,4l4,4a13.33,13.33,0,1,0,0-18.66l-4,4c-1.33,1.33-6.67,4-9.33,4h-2.67v-4A31.25,31.25,0,0,1,184,259.34c1.33-2.66,2.66-4,5.33-6.66A13.34,13.34,0,0,0,180,230"/><path id="path60" d="M30,90a4.44,4.44,0,0,0-3.5,1.5A4.54,4.54,0,0,0,25,95a5,5,0,0,0,1.5,3.5,12.79,12.79,0,0,1,2,2.5,11.77,11.77,0,0,1,1,4v1.5h-1A7.47,7.47,0,0,1,25,105l-1.5-1.5A4.54,4.54,0,0,0,20,102a4.54,4.54,0,0,0-3.5,1.5,4.83,4.83,0,0,0,0,7A4.54,4.54,0,0,0,20,112a4.54,4.54,0,0,0,3.5-1.5L25,109a7.47,7.47,0,0,1,3.5-1.5h1a22.83,22.83,0,0,1-.5,5,10.89,10.89,0,0,1-2.5,4,39.87,39.87,0,0,1-4,3v.5s5-1,6-1h3c1,0,6,1,6,1v-.5a39.87,39.87,0,0,1-4-3,10.89,10.89,0,0,1-2.5-4,22.83,22.83,0,0,1-.5-5h1A7.47,7.47,0,0,1,35,109l1.5,1.5a4.83,4.83,0,0,0,7,0A5,5,0,0,0,40,102a4.54,4.54,0,0,0-3.5,1.5L35,105a7.47,7.47,0,0,1-3.5,1.5h-1V105a11.77,11.77,0,0,1,1-4,8.78,8.78,0,0,1,2-2.5,4.83,4.83,0,0,0,0-7A4.54,4.54,0,0,0,30,90"/><path id="path62" d="M330,450a4.44,4.44,0,0,0,3.5-1.5A4.54,4.54,0,0,0,335,445a5,5,0,0,0-1.5-3.5,12.79,12.79,0,0,1-2-2.5,11.77,11.77,0,0,1-1-4v-1.5h1A7.47,7.47,0,0,1,335,435l1.5,1.5a5,5,0,1,0,0-7L335,431a7.47,7.47,0,0,1-3.5,1.5h-1a22.24,22.24,0,0,1,.5-5,10.89,10.89,0,0,1,2.5-4,39.87,39.87,0,0,1,4-3V420s-5,1-6,1h-3c-1,0-6-1-6-1v.5a39.87,39.87,0,0,1,4,3,10.89,10.89,0,0,1,2.5,4,22.24,22.24,0,0,1,.5,5h-1A7.47,7.47,0,0,1,325,431l-1.5-1.5a5,5,0,1,0,0,7L325,435a7.47,7.47,0,0,1,3.5-1.5h1V435a11.77,11.77,0,0,1-1,4,8.78,8.78,0,0,1-2,2.5A5,5,0,0,0,330,450"/><g id="text19537"><path id="path20993" d="M44.65,79.7H40.53L37.68,67.47H25.1L22.25,79.7H18.33L28.91,35.81h5.16ZM36.49,62.46l-5.1-21.55L26.28,62.46Z"/></g><g id="text19541"><path id="path20990" d="M342.22,456.59H338.1l-2.86,12.23H322.67l-2.86-12.23h-3.92l10.58,43.89h5.16Zm-8.17,17.24L329,495.38l-5.11-21.55Z"/></g></g></g></g></svg>