<svg xmlns="http://www.w3.org/2000/svg" viewBox="0 0 360 540"><defs><style>.cls-1{fill:#fff;stroke:#000;}.cls-2{fill:#f55;}</style></defs><g id="Layer_2" data-name="Layer 2"><g id="svg2"><g id="g21027"><rect id="rect40" class="cls-1" x="0.5" y="0.5" width="359" height="539" rx="29.94"/><g id="g42"><path id="path46" class="cls-2" d="M180,230s8,13.33,17.33,22.67S220,270,220,270s-13.33,8-22.67,17.33S180,310,180,310s-8-13.33-17.33-22.66S140,270,140,270s13.33-8,22.67-17.34S180,230,180,230"/><path id="path48" class="cls-2" d="M330,420a40.48,40.48,0,0,0,15,15,40.48,40.48,0,0,0-15,15,40.48,40.48,0,0,0-15-15,40.48,40.48,0,0,0,15-15"/><path id="path50" class="cls-2" d="M30,90a51.6,51.6,0,0,0,6.5,8.5A51.6,51.6,0,0,0,45,105a51.6,51.6,0,0,0-8.5,6.5A51.6,51.6,0,0,0,30,120a51.6,51.6,0,0,0-6.5-8.5A51.6,51.6,0,0,0,15,105a51.6,51.6,0,0,0,8.5-6.5A51.6,51.6,0,0,0,30,90"/></g><g id="text19492"><path id="path20999" class="cls-2" d="M45.31,81.47H41.19L38.33,69.23H25.76L22.91,81.47H19l10.59-43.9h5.15ZM37.14,64.22,32.05,42.67,26.93,64.22Z"/></g><g id="text19496"><path id="path20996" class="cls-2" d="M342.87,458.35h-4.12l-2.85,12.24H323.32l-2.85-12.24h-3.93l10.59,43.9h5.15l10.59-43.9Zm-8.16,17.25-5.1,21.55-5.12-21.55Z"/></g></g></g></g></svg>