<svg xmlns="http://www.w3.org/2000/svg" viewBox="0 0 360 540"><defs><style>.cls-1{fill:#fff;stroke:#000;}.cls-2{fill:#f55;}</style></defs><g id="Layer_2" data-name="Layer 2"><g id="svg2"><g id="g21038"><rect id="rect26" class="cls-1" x="0.5" y="0.5" width="359" height="539" rx="29.94"/><path id="path34" class="cls-2" d="M180,250s1.82-11.15,5.33-14.67S195,230,200,230s11.15,1.82,14.67,5.33S220,245,220,250s-2.67,12-5.33,14.67-5.34,4-8,6.66-4,2.67-6.67,5.34l-6.67,6.66A57.73,57.73,0,0,0,184,296.67C181.33,302,180,310,180,310s-1.33-8-4-13.33a57.73,57.73,0,0,0-9.33-13.34L160,276.67c-2.67-2.67-4-2.67-6.67-5.34s-5.33-4-8-6.66S140,255,140,250s1.82-11.15,5.33-14.67S155,230,160,230s11.15,1.82,14.67,5.33S180,250,180,250"/><path id="path36" class="cls-2" d="M30,97.5s.68-4.18,2-5.5a8.56,8.56,0,0,1,11,0,8.28,8.28,0,0,1,2,5.5,9.45,9.45,0,0,1-2,5.5c-1,1-2,1.5-3,2.5s-1.5,1-2.5,2L35,110a17.81,17.81,0,0,0-5,10,21.42,21.42,0,0,0-1.5-5,21.54,21.54,0,0,0-3.5-5l-2.5-2.5c-1-1-1.5-1-2.5-2s-2-1.5-3-2.5a9.45,9.45,0,0,1-2-5.5A8.28,8.28,0,0,1,17,92a8.56,8.56,0,0,1,11,0c1.32,1.32,2,5.5,2,5.5"/><path id="path38" class="cls-2" d="M330,442.5s.68,4.18,2,5.5a7.51,7.51,0,0,0,13-5.5,9.45,9.45,0,0,0-2-5.5c-1-1-2-1.5-3-2.5s-1.5-1-2.5-2L335,430a17.81,17.81,0,0,1-5-10,17.81,17.81,0,0,1-5,10l-2.5,2.5c-1,1-1.5,1-2.5,2s-2,1.5-3,2.5a9.45,9.45,0,0,0-2,5.5,7.79,7.79,0,0,0,13,5.5c1.32-1.32,2-5.5,2-5.5"/><g id="text19469"><path id="path21005" class="cls-2" d="M45.31,79.92H41.19L38.33,67.69H25.76L22.91,79.92H19L29.57,36h5.15ZM37.14,62.68,32.05,41.13,26.93,62.68Z"/></g><g id="text19473"><path id="path21002" class="cls-2" d="M342.87,458.81h-4.12L335.9,471H323.32l-2.85-12.23h-3.93l10.59,43.89h5.15l10.59-43.89Zm-8.16,17.25-5.1,21.54-5.12-21.54Z"/></g></g></g></g></svg>