<svg xmlns="http://www.w3.org/2000/svg" viewBox="0 0 360 540"><defs><style>.cls-1{fill:#fff;stroke:#000;}</style></defs><g id="Layer_2" data-name="Layer 2"><g id="svg2"><g id="g21007"><rect id="rect14512" class="cls-1" x="0.5" y="0.5" width="359" height="539" rx="29.94"/><path id="path14518" d="M180,230c-1.33,6.67-2.85,8.39-5.33,12-2.14,3.11-5.13,5.56-8,8s-6.25,4.41-9.34,6.67c-3.58,2.62-7.82,4.59-10.66,8C143.48,268.48,140,273,140,278c0,4,2.41,8,5.33,10.67A19.89,19.89,0,0,0,158.67,294c5.37-.12,10.8-2.94,14.66-6.67,2.87-2.76,5.34-10.66,5.34-10.66v2.66c0,1.34-.14,7.29-1.34,10.67a31.92,31.92,0,0,1-6.66,10.67c-3,3.27-10.67,8-10.67,8V310s10.61-2.22,16-2.67a48.57,48.57,0,0,1,8,0c5.39.45,16,2.67,16,2.67v-1.33s-7.66-4.73-10.67-8A31.92,31.92,0,0,1,182.67,290c-1.2-3.38-1.34-10.67-1.34-10.67v-2.66s2.47,7.9,5.34,10.66c3.86,3.73,9.29,6.55,14.66,6.67a19.89,19.89,0,0,0,13.34-5.33C217.59,286,220,282,220,278c0-5-3.48-9.52-6.67-13.33-2.85-3.41-7.08-5.38-10.67-8-3.08-2.26-6.41-4.2-9.33-6.67s-5.86-4.89-8-8c-2.48-3.61-4-5.33-5.33-12"/><path id="path14520" d="M30,90a9.4,9.4,0,0,1-2,4.5,15.78,15.78,0,0,1-3,3c-1.09.93-2.34,1.65-3.5,2.5-1.35,1-2.93,1.72-4,3-1.19,1.43-2.5,3.14-2.5,5a5.79,5.79,0,0,0,2,4,7.44,7.44,0,0,0,5,2,8.6,8.6,0,0,0,5.5-2.5c1.07-1,2-4,2-4v1a15.14,15.14,0,0,1-.5,4,12.1,12.1,0,0,1-2.5,4,25.65,25.65,0,0,1-4,3v.5s4-.83,6-1a18.78,18.78,0,0,1,3,0c2,.17,6,1,6,1v-.5a25.65,25.65,0,0,1-4-3,12.1,12.1,0,0,1-2.5-4,17.68,17.68,0,0,1-.5-4v-1s.93,3,2,4A8.6,8.6,0,0,0,38,114a7.44,7.44,0,0,0,5-2,5.79,5.79,0,0,0,2-4c0-1.86-1.31-3.57-2.5-5-1.07-1.28-2.65-2-4-3-1.16-.85-2.41-1.57-3.5-2.5a15.78,15.78,0,0,1-3-3A9.4,9.4,0,0,1,30,90"/><path id="path14522" d="M330,450a9.4,9.4,0,0,0-2-4.5,15.78,15.78,0,0,0-3-3c-1.09-.93-2.34-1.65-3.5-2.5-1.35-1-2.93-1.72-4-3-1.19-1.43-2.5-3.14-2.5-5a5.79,5.79,0,0,1,2-4,7.42,7.42,0,0,1,5-2,8.6,8.6,0,0,1,5.5,2.5c1.07,1,2,4,2,4v-1a15.14,15.14,0,0,0-.5-4,12.1,12.1,0,0,0-2.5-4,25.65,25.65,0,0,0-4-3V420s4,.83,6,1a18.78,18.78,0,0,0,3,0c2-.17,6-1,6-1v.5a25.65,25.65,0,0,0-4,3,12.1,12.1,0,0,0-2.5,4,17.68,17.68,0,0,0-.5,4v1s.93-3,2-4A8.6,8.6,0,0,1,338,426a7.42,7.42,0,0,1,5,2,5.79,5.79,0,0,1,2,4c0,1.86-1.31,3.57-2.5,5-1.07,1.28-2.65,2-4,3-1.16.85-2.41,1.57-3.5,2.5a15.78,15.78,0,0,0-3,3,9.4,9.4,0,0,0-2,4.5"/><g id="text19545"><path id="path20987" d="M44.65,81.94H40.53L37.68,69.7H25.1L22.25,81.94H18.33L28.91,38h5.16ZM36.49,64.69l-5.1-21.55L26.28,64.69Z"/></g><g id="text19549"><path id="path20984" d="M342.22,458.83H338.1l-2.86,12.23H322.67l-2.86-12.23h-3.92l10.58,43.89h5.16Zm-8.17,17.24L329,497.62l-5.11-21.55Z"/></g></g></g></g></svg>