<svg xmlns="http://www.w3.org/2000/svg" viewBox="0 0 360 540"><defs><style>.cls-1,.cls-9{fill:#fff;}.cls-1,.cls-10,.cls-11,.cls-12,.cls-13,.cls-14,.cls-15,.cls-16,.cls-17,.cls-18,.cls-19,.cls-2,.cls-20,.cls-21,.cls-22,.cls-3,.cls-4,.cls-5,.cls-6,.cls-7,.cls-8,.cls-9{stroke:#000;}.cls-1,.cls-10,.cls-11,.cls-12,.cls-13,.cls-14,.cls-15,.cls-16,.cls-19,.cls-2,.cls-20,.cls-3,.cls-5,.cls-6,.cls-7,.cls-8,.cls-9{stroke-linecap:round;stroke-linejoin:round;}.cls-17,.cls-2,.cls-21,.cls-8{fill:none;}.cls-2{stroke-width:2px;}.cls-3{fill:#a00;}.cls-4,.cls-7{fill:#55a;}.cls-5{fill:#af5500;}.cls-6{fill:#faa;}.cls-9{fill-opacity:0.98;}.cls-10,.cls-11{fill:#5a5;}.cls-10{stroke-width:1.22px;}.cls-11{stroke-width:1.15px;}.cls-13{fill:#f55;}.cls-14{fill:#a50;}.cls-15,.cls-22{fill:#fa5;}.cls-16{fill:#aaf;}.cls-19{fill:#fffe55;}.cls-20{fill:#ff5;}.cls-21{stroke-width:0.96px;}</style></defs><g id="Layer_2" data-name="Layer 2"><g id="svg2"><g id="g22293"><rect id="rect1240" class="cls-1" x="0.5" y="0.5" width="359" height="539" rx="29.94"/><g id="g1246"><path id="path1248" class="cls-2" d="M50,30H330V410"/><path id="path1250" class="cls-2" d="M310,510H30V130"/><path id="path1252" class="cls-2" d="M30,270H330"/></g><g id="g1254"><path id="path1256" d="M90,40c-4-.08-6.67,1.33-9.33,4a12.09,12.09,0,0,0-4,9.33c0,4,1.51,6.38,4,9.34s4,4,5.33,6.66A31.48,31.48,0,0,1,88.67,80v4H86c-2.67,0-8-2.67-9.33-4l-4-4a12.11,12.11,0,0,0-9.34-4A12.09,12.09,0,0,0,54,76a12.88,12.88,0,0,0,0,18.66,12.09,12.09,0,0,0,9.33,4,12.11,12.11,0,0,0,9.34-4l4-4c1.33-1.33,6.66-4,9.33-4h2.67C88.6,90.45,88.32,97,87.33,100a29,29,0,0,1-6.66,10.66c-2.67,2.67-10.67,8-10.67,8V120s13.33-2.67,16-2.67h8c2.67,0,16,2.67,16,2.67v-1.34s-8-5.33-10.67-8A29,29,0,0,1,92.67,100c-1-3-1.27-9.56-1.34-13.34H94c2.67,0,8,2.67,9.33,4l4,4a12.89,12.89,0,0,0,18.67,0A12.88,12.88,0,0,0,126,76a12.89,12.89,0,0,0-18.67,0l-4,4C102,81.34,96.67,84,94,84H91.33V80A31.48,31.48,0,0,1,94,69.34c1.33-2.66,2.67-4,5.33-6.66a12.13,12.13,0,0,0,4-9.34,12.09,12.09,0,0,0-4-9.33A12.08,12.08,0,0,0,90,40"/><path id="path1258" d="M30,90a4.44,4.44,0,0,0-3.5,1.5A4.54,4.54,0,0,0,25,95a5,5,0,0,0,1.5,3.5,12.79,12.79,0,0,1,2,2.5,11.77,11.77,0,0,1,1,4v1.5h-1A7.47,7.47,0,0,1,25,105l-1.5-1.5A4.54,4.54,0,0,0,20,102a4.54,4.54,0,0,0-3.5,1.5,4.83,4.83,0,0,0,0,7A4.54,4.54,0,0,0,20,112a4.54,4.54,0,0,0,3.5-1.5L25,109a7.47,7.47,0,0,1,3.5-1.5h1a22.24,22.24,0,0,1-.5,5,10.89,10.89,0,0,1-2.5,4,39.87,39.87,0,0,1-4,3v.5s5-1,6-1h3c1,0,6,1,6,1v-.5a39.87,39.87,0,0,1-4-3,10.89,10.89,0,0,1-2.5-4,22.24,22.24,0,0,1-.5-5h1A7.47,7.47,0,0,1,35,109l1.5,1.5a4.83,4.83,0,0,0,7,0A5,5,0,0,0,40,102a4.54,4.54,0,0,0-3.5,1.5L35,105a7.47,7.47,0,0,1-3.5,1.5h-1V105a11.77,11.77,0,0,1,1-4,8.78,8.78,0,0,1,2-2.5,4.83,4.83,0,0,0,0-7A4.54,4.54,0,0,0,30,90"/><path id="path1260" d="M330,450a4.44,4.44,0,0,1-3.5-1.5A4.54,4.54,0,0,1,325,445a5,5,0,0,1,1.5-3.5,12.79,12.79,0,0,0,2-2.5,11.77,11.77,0,0,0,1-4v-1.5h-1A7.47,7.47,0,0,0,325,435l-1.5,1.5a5,5,0,1,1,0-7L325,431a7.47,7.47,0,0,0,3.5,1.5h1a22.24,22.24,0,0,0-.5-5,10.89,10.89,0,0,0-2.5-4,39.87,39.87,0,0,0-4-3V420s5,1,6,1h3c1,0,6-1,6-1v.5a39.87,39.87,0,0,0-4,3,10.89,10.89,0,0,0-2.5,4,22.24,22.24,0,0,0-.5,5h1A7.47,7.47,0,0,0,335,431l1.5-1.5a5,5,0,1,1,0,7L335,435a7.47,7.47,0,0,0-3.5-1.5h-1V435a11.77,11.77,0,0,0,1,4,8.78,8.78,0,0,0,2,2.5A5,5,0,0,1,330,450"/><path id="path1262" d="M270,500c-4,.08-6.67-1.33-9.33-4a12.09,12.09,0,0,1-4-9.33c0-4,1.51-6.37,4-9.34s4-4,5.33-6.66A31.48,31.48,0,0,0,268.67,460v-4H266c-2.67,0-8,2.67-9.34,4l-4,4a13.33,13.33,0,1,1,0-18.66l4,4c1.34,1.33,6.67,4,9.34,4h2.66c-.06-3.78-.34-10.37-1.33-13.34a28.87,28.87,0,0,0-6.67-10.66c-2.66-2.67-10.66-8-10.66-8V420s13.33,2.67,16,2.67h8c2.66,0,16-2.67,16-2.67v1.34s-8,5.33-10.67,8A29,29,0,0,0,272.66,440c-1,3-1.26,9.56-1.33,13.34H274c2.67,0,8-2.67,9.33-4l4-4a13.33,13.33,0,1,1,0,18.66l-4-4c-1.33-1.33-6.66-4-9.33-4h-2.67v4A31.48,31.48,0,0,0,274,470.71c1.33,2.67,2.67,4,5.33,6.66A13.34,13.34,0,0,1,270,500"/></g><g id="g1264"><path id="path1266" class="cls-3" d="M133.5,138.5c-9.14,4.75-19.29,7.24-28.42,11.87a14.62,14.62,0,0,0-6.1,8.89L56.5,269.5c15.5.33,30,.16,45,0-1.74-2.53-5.35-5.95-3-9.14,4-9.24,5.55-17.35,8.9-26.83.75-2.66,1.6-4.84,4.58-5.76a28.12,28.12,0,0,1,1.57,7.25c1,6.28,2.6,12.54,6.1,18,2,3.8,3.93,10.15,5.85,14,8.57-2.24,16.28-3.07,25.95-3.75,12.55-.35,26.06-.43,39-.75,13,0,26.06,1.25,39.09,1.25,6.91,1.75,9.83,1.5,15.25,3.25,1.19-7.69,1.75-13.68,4.11-21.08,2.4-4.27,1.57-9.26,2.64-13.92,2.76,1.81,2.77,5.4,3.75,8.26,1.27,3.66,3.53,7,2.75,11.3-.38,3.53-.88,7,1.51,10,.81,2.61.37,8.09,4.18,8L300,270c3.45-6.68,4.23-14.21,4-21.64-.15-6,.88-12.19-2.11-17.69-2.36-6.74-4.47-13.6-9-19.26a142.77,142.77,0,0,1-13.56-24.07c-3.9-7.69-6.54-15.94-11.42-23.11-3.46-4.83-6-10.67-11.54-13.46-4.69-3.18-10.27-8.9-16.28-8.13-28.35.15-75.43-17.73-106.61-4.14Z"/><path id="path1268" class="cls-4" d="M136.83,145.44l3.89,9.9,5.3,15.91,5.3,18,3.89,19.8L157,221.45l.36,9.9,1.06,10.25,1.06,11.32.35,9.92,18.39.71h34.29l16.82.79,7.57-25.56L239,225.34l.71-6.72,1.77-45.25-1.06-16.26,1.06-12.37-.36-2.13L225.57,132l-25.1-6.37-29.35-1.06L146.73,132l-12.38,7.07,3.19,8.13Z"/><g id="g1270"><g id="g1272"><path id="path1274" class="cls-5" d="M146,83.75c-2.38,2.43-3.59,5.79-4.39,9-1,3.75,1.51,7.42.48,11.15-1.67,2.93-5.34,4-7.08,6.93-1.79,2.69-1,6.13-.34,9,2.5,2.78-2.32,2.18-3.73,2.84A14.7,14.7,0,0,0,124,129c-1.33,3.82.15,8.06,3,10.79a20.62,20.62,0,0,0,7.16,5.14c3.69.51,7.52,0,10.16-2.46a14.66,14.66,0,0,0,5-6.5c1.32,2.63,4,1.2,5.14-.78,2.13-2.15,4.57-4,6.79-6,1.6-2.11-2.51-3.26-3.26-5.13-4.64-5.69-6.28-13.09-7.83-20.11A82.31,82.31,0,0,1,149,83.24c1.27-3-2.25,0-3,.51Z"/><path id="path1276" class="cls-5" d="M196.25,49.5c0,1.62,3.34,5.76,4,9,.55,2.76-.51,5.64-.19,8.44a23.65,23.65,0,0,0,1.17,4.52c.86,2.67,2.52,5.08,3.06,7.82.91,4.59.08,9.36.26,14,.23,6,.26,8.67,1.41,14.32.55,2.66-1.14,5.1-2.35,7.37-.48.89-1.81,1.35-1.89,2.35-.11,1.34,1.3,2.35,2,3.51a29.56,29.56,0,0,0,2.1,3.57,7,7,0,0,0,2.51,2.51,5.12,5.12,0,0,0,4.33,0,9.82,9.82,0,0,0,1.38,4c2,4.47,3.08,10.32,7.33,12.78,2.46,1.42,5.69.3,8.51,0,3.65-.42,7.67-.43,10.75-2.44a7.76,7.76,0,0,0,2.18-2.94,24.62,24.62,0,0,0,2.61-6.88c.56-2.9,1-6,.22-8.86-.62-2.28-2.89-3.81-3.71-6-1-2.57,0-5.73-1.32-8.11-1.45-2.54-4.56-3.67-6.72-5.64-.65-.6-1.69-1-1.88-1.89-.5-2.27,2.53-4.21,2.44-6.53-.12-3.44-2.7-6.34-4.32-9.37-1-1.84-2.51-3.4-3.28-5.35-.53-1.35-.42-2.89-.89-4.27-.69-2.08-1.93-3.93-2.82-5.94-1.36-3.08-1.93-6.55-3.81-9.35a21.88,21.88,0,0,0-5.43-5.3,23.73,23.73,0,0,0-6.38-3.3,54.26,54.26,0,0,0-11.22-2Z"/></g><path id="path1278" class="cls-6" d="M149.5,81.5a41.72,41.72,0,0,0-.68,10.75,73.32,73.32,0,0,0,1.77,14.32A58,58,0,0,0,155,119.21c1.46,2.92,3,6,5.44,8.13a19.63,19.63,0,0,0,9,4.21,26.84,26.84,0,0,0,11.16-.71,34.33,34.33,0,0,0,9.67-4.2,48.83,48.83,0,0,0,11-8.89c2.44-2.7,5.29-5.57,6-9.14.74-3.94-2-7.78-2.45-11.76-.31-2.93.11-5.9,0-8.85a52.55,52.55,0,0,0-.78-9.72c-.74-3.23-3.09-6-3.62-9.28-.56-3.44,1.38-7.06.53-10.44-.92-3.7-3-8.07-5.88-9.81-2.56-1.7-6.62-.26-9.85.3-6,1.06-11.75,3.39-17.41,5.68-6.34,2.56-11.1,8.55-14.59,14.44-2,3.45-1.81,7.83-3.3,11.54,0,.14-.14.25-.2.38s0,.33-.15.41Z"/><path id="path1280" class="cls-7" d="M150.75,67c-.27,2,1.8,4.47,2.95,1.6a49.21,49.21,0,0,1,8.1-9.9c3.91-3.92,8.2-4.48,13.12-6.63,9.86-3.7,20.7-3.14,30.88-1.28,5.92,1.28,11.5,5,14,10.61,1.52,1.83.69,8.65,4.25,6.56,2.35-1.3,3.54-4.78,3.12-7.3-.31-5.25-4.42-9.35-8.69-11.91-8.53-4.9-18.69-5.93-28.33-5a63.89,63.89,0,0,0-24.28,5.31,23.3,23.3,0,0,0-10.26,6.34c-2.2,2.41-5.75,4.19-5.87,7.86-.14,1.33.55,2.51,1,3.71Z"/><path id="path1282" class="cls-3" d="M150.5,61.5c-2,4.52,2.49,8.21,1,12.86a10.13,10.13,0,0,1-4.95,9c-5,2.28-8.7-3.27-10.86-7-2.43-4.2-.3-9.61-.75-14.52a28.36,28.36,0,0,1,3.75-16.82c6.86-5,12.85-8.73,21-10.85,5.12-2.13,12.14-4.37,17.84-4.51,13.5-1.15,27.21-1.14,40.57,1.26,5.26,1.57,10.91,2.55,15.55,5.62,7.69,5.75,10.56,16.46,8.7,25.61-1.63,4.49-4.19,9.43-8.58,11.7-3.87,2-10.19,2.85-10.33-3.36-.38-4,5.7-5.8,3.4-10.49-1-5.69-5.76-9.56-10.76-11.8-7.78-4.31-16.91-4.72-25.6-4.22-9.89-.33-19.55,2.84-28.47,6.86a34.11,34.11,0,0,0-11.56,10.62Z"/><g id="g1284"><path id="path1286" class="cls-8" d="M155,67.25c1.73-.63,4.12-1.75,6-1a6.19,6.19,0,0,1,3.23,4.29c1,4-1.28,8-2.06,12-.55,2.8-1.07,5.62-1.84,8.37-.42,1.53-2,3-1.53,4.52.29,1,1.59,1.4,2.45,2,1,.75,1.95,2.13,3.22,2s1.63-1.79,2.71-2.27a11.77,11.77,0,0,1,2.67-.36c.74-.14,1.72.08,2.21-.5a3.92,3.92,0,0,0,.28-4c-.11-.2-.39-.25-.59-.36"/><path id="path1288" class="cls-8" d="M174,72.5c-.18-.88-.73-1.77-.53-2.65a3.43,3.43,0,0,1,1.51-2c1.09-.69,2.51-.67,3.79-.85a33.53,33.53,0,0,1,5.58-.35,10.62,10.62,0,0,1,3.52.4A13.34,13.34,0,0,1,191,69.25c1.29,1,2.44,2.19,3.74,3.17.21.16.43.29.65.43"/><path id="path1290" class="cls-8" d="M175.36,77.91a10.74,10.74,0,0,1,1.51-2.51A8.1,8.1,0,0,1,181,73.49a9.23,9.23,0,0,1,4.81.65c1.63.68,2.59,2.51,4.2,3.24.58.26,1.29.13,1.88.37.81.33,1.31,1.17,2.19,1.4"/></g><path id="path1292" class="cls-9" d="M176.73,78.36c.79-1,2.67-.93,4.08-1.18a11.31,11.31,0,0,1,3.28-.25,16.77,16.77,0,0,1,3.52,1.12,18.94,18.94,0,0,0,3.22,1.28c.81.13,2.23-.82,2.48-.14.44,1.2-2.53,1.21-3.7,2-.74.47-1.3,1.15-2.07,1.56a6.77,6.77,0,0,1-2,.66,12.86,12.86,0,0,1-3.28.08,8.08,8.08,0,0,1-2.65-.49,6.08,6.08,0,0,1-1.52-1.14,4,4,0,0,1-1.25-1.94c-.17-.48-.47-1.09-.15-1.51Z"/><path id="path1294" class="cls-8" d="M163,75.61c-.81-1.06-1.31-2.43-2.39-3.22a5.8,5.8,0,0,0-2.94-1,10.16,10.16,0,0,0-3.11.57c-.92.22-1.79.57-2.7.83"/><path id="path1296" class="cls-9" d="M162.63,77.55c-.53-1.86-3.54-1.7-5.45-2a9.75,9.75,0,0,0-3,.2c-1,.18-2.15.17-2.84.89a1.87,1.87,0,0,0-.46,1.66c.13.57.74.89,1.16,1.29a7.84,7.84,0,0,0,2.24,1.84,6.62,6.62,0,0,0,3.28.28,5.43,5.43,0,0,0,2.42-.8c1.18-.83,3.09-2,2.69-3.39Z"/><g id="g1298"><path id="path1300" class="cls-10" d="M159,78.09a2.39,2.39,0,1,1-4.77,0h0a2.39,2.39,0,1,1,4.77,0Z"/><path id="path1302" class="cls-11" d="M185.77,80a2.66,2.66,0,0,1-5.31,0h0a2.66,2.66,0,0,1,5.31,0Z"/></g><path id="path1304" class="cls-12" d="M157.51,77.64a.71.71,0,1,1-1.41,0h0a.71.71,0,1,1,1.41,0Z"/><path id="path1306" class="cls-12" d="M184.51,79.72a.89.89,0,1,1-.88-1A.94.94,0,0,1,184.51,79.72Z"/><g id="g1308"><path id="path1310" class="cls-13" d="M159.51,106.57c.33-1,1.47-1.28,2.23-1.87.55-.42.9-1.2,1.69-1.23a2.5,2.5,0,0,1,2.47.82c.53.49,1.58.42,1.59-.35a3.78,3.78,0,0,1,2.1-.29,10.42,10.42,0,0,1,3.33,1.63c.52.26,1.31.47,1.35,1.17-.22.78-1.37.55-1.74,1.25-.83,1-1.31,1.13-2.2,2.06a4.28,4.28,0,0,1-2.61,1.94,10.46,10.46,0,0,1-4.08-.42,2.76,2.76,0,0,1-2.06-1.66c-.23-.79-.75-.37-1.19-1.05a15.89,15.89,0,0,1-.88-1.81v-.09l0-.1Z"/><path id="path1312" class="cls-13" d="M159.51,106.82a19.11,19.11,0,0,0,2.83-.28c.76-.22,1,.72,1.71.83a6.74,6.74,0,0,0,3.09.2,17.16,17.16,0,0,0,1.79-1,2.71,2.71,0,0,1,2.16-.36c.83.05,1.6.44,2.43.46a1.85,1.85,0,0,0,.5-.13"/></g><path id="path1314" class="cls-14" d="M167.19,99.88a22.37,22.37,0,0,1,3.29,0,9.15,9.15,0,0,1,2.43.51,14.9,14.9,0,0,1,3.63,2.18,5.47,5.47,0,0,1,1,1c.61.8.77,1.92,1.51,2.59a1.8,1.8,0,0,0,1.28.6c.55-.06.88-.66,1.31-1a7.21,7.21,0,0,1,1.08-1,3.82,3.82,0,0,1,1.5-.38,7.32,7.32,0,0,1,3.13.26c.48.17,1.2.36,1.26.86s-.5.83-.91,1c-.92.38-2.07-.54-3-.12-1.34.62-1.57,2.57-2.71,3.51a6.07,6.07,0,0,1-1.91,1,29.74,29.74,0,0,1-3.33.68c-.8.17-1.62-.47-2.29-1-1.08-.76-1.66-2.06-2.63-2.95a21.28,21.28,0,0,0-2.71-2,9.28,9.28,0,0,0-2.63-1.53,5.15,5.15,0,0,0-2.67.09,3.93,3.93,0,0,0-1.74,1c-.6.64-.66,1.64-1.21,2.32a4.61,4.61,0,0,1-1.42,1.14,4.39,4.39,0,0,1-2.2.65,5.71,5.71,0,0,1-2-.83c-.46-.21-.92-.46-1.37-.71s-.82-.44-1.22-.68-1.17-.47-1.49-1a1.61,1.61,0,0,1-.23-1.45,1,1,0,0,1,.85-.52c.77,0,1.14,1.3,1.91,1.29s1.22-.7,1.7-1.19c.7-.74.89-1.91,1.68-2.56a7.26,7.26,0,0,1,2.39-1,5.16,5.16,0,0,1,3.63-.36,9,9,0,0,1,1.56.2c.65-.14,1.77-.63,2.48-.71Z"/><g id="g1316"><path id="path1318" class="cls-1" d="M150.69,137.65a31.75,31.75,0,0,0,4.73,8.12c2.42,3.77,5,7.47,7.68,11.07,1.94,1.92,4.16,3.59,5.65,5.92a169,169,0,0,1,13.54-11.68c1.63-1-1.75-1.43-2.48-2.17a41.57,41.57,0,0,1-6.29-4.68c-2-2.39-4.56-4.45-5.65-7.49s-4.39-5.73-6.18-8.33c-1.55-.81-2.16,1.47-3.24,2.21-2.61,2.32-5.26,4.59-7.76,7Z"/><path id="path1320" class="cls-1" d="M194,150a72.28,72.28,0,0,0,11.92,10.17c1.05,1.61,2.05,1.74,3,0,2.07-2.4,4.45-4.58,5.62-7.6a53.08,53.08,0,0,1,5.72-9.29c-1.59-2.26-3.42-4.4-4-7.17-1-3.23-2.64-5.79-3.8-9-1.68-.12-3.78.15-5-1.32-1-.35-.37,2.59-.73,3.51-.14,2.9-1.25,5.66-2,8.42-2.26,3.86-2.51,5.88-6.28,8.5-.78.63-3.5,3.27-4.35,3.79Z"/></g><path id="path1322" class="cls-6" d="M162.75,129.5c2.5,4.17,5.63,7.92,8.1,12.11,1.22,1.66,3,2.8,4.47,4.24a18.64,18.64,0,0,0,4.22,3.06c1.78,1.22,3.58,2.7,5.8,2.89,1.7.06,3.49.51,5-.43s3.88-1.45,5.34-2.7A33.12,33.12,0,0,0,202.1,143a30.42,30.42,0,0,0,3.28-7.43c1.2-2.89,1.49-6.92,1.8-10-2.07-1.44-1.7-3.29-3.22-4.92-1-1-1.48-2.92-2.52-3.07-1.62,1.77-4.41,4.73-6.57,5.89-2.79,1.83-5.4,4-8.54,5.19a44.43,44.43,0,0,1-8.23,2.82c-2.72.11-5.48.48-8.19.37-2.41-.71-4.79-1.55-7.15-2.4Z"/><path id="path1324" class="cls-1" d="M169.25,162.25l2.25,9.25L173,183l2.25,16.25,1.5,14.25.25,9.25v9.5l.75,13.5.5,8.75.25,9H213l1-16.75,1.25-16.5-.25-16.5v-20.5l-1-11.75-2-15-2-7.5-2,2.25-5-3.5-4.5-3.25-2.75-2.75-1.5-2-3.75,1.5-3.75.75-3-.75-1.5-.5L178,155l-4.5,3.25Z"/><g id="g1326"><path id="path1328" class="cls-8" d="M187.25,152.25l3,17L192,183.5l2.25,16.25L196,216l.5,12.25v17L196,254l-.5,9.5"/><path id="path1330" class="cls-8" d="M198.75,263.5,200,241.75l-.25-23.25-2-21-2-11-1.5-11L193,166.25l-2-9.5-.75-5.25"/></g><g id="g1332"><path id="path1334" class="cls-15" d="M184.75,167.25a4,4,0,1,1-4-4A4,4,0,0,1,184.75,167.25Z"/><path id="path1336" class="cls-15" d="M187,181.25a4,4,0,1,1-4-4A4,4,0,0,1,187,181.25Z"/><path id="path1338" class="cls-15" d="M189.25,196.5a4,4,0,1,1-4-4A4,4,0,0,1,189.25,196.5Z"/><path id="path1340" class="cls-15" d="M190.75,212.75a4,4,0,1,1-4-4A4,4,0,0,1,190.75,212.75Z"/><path id="path1342" class="cls-15" d="M211.75,213.75a4,4,0,1,1-4-4A4,4,0,0,1,211.75,213.75Z"/><path id="path1344" class="cls-15" d="M211,196.75a4,4,0,1,1-4-4A4,4,0,0,1,211,196.75Z"/><path id="path1346" class="cls-15" d="M209,181a4,4,0,1,1-4-4A4,4,0,0,1,209,181Z"/><path id="path1348" class="cls-15" d="M206.25,166.25a4,4,0,1,1-4-4A4,4,0,0,1,206.25,166.25Z"/><path id="path1350" class="cls-15" d="M190.75,228a4,4,0,1,1-4-4A4,4,0,0,1,190.75,228Z"/><path id="path1352" class="cls-15" d="M191.25,242.75a4,4,0,1,1-4-4A4,4,0,0,1,191.25,242.75Z"/><path id="path1354" class="cls-15" d="M191,256.25a4,4,0,1,1-4-4A4,4,0,0,1,191,256.25Z"/><path id="path1356" class="cls-15" d="M210.25,256a4,4,0,1,1-4-4A4,4,0,0,1,210.25,256Z"/><path id="path1358" class="cls-15" d="M210.75,241.75a4,4,0,1,1-4-4A4,4,0,0,1,210.75,241.75Z"/><path id="path1360" class="cls-15" d="M211.5,228a4,4,0,1,1-4-4A4,4,0,0,1,211.5,228Z"/></g><path id="path1362" class="cls-16" d="M265.17,64.12l13.08-28.28c1.64-2.29,2.21.67,2.1,2.19l-.69,30.34c-1.25-.23-3.72-3.05-4.05-1.29-1.54,7.31-2.23,14.77-3.37,22.15,2.9-.1,5.9.18,8.73-.14,2.07-1.43,4.94-2,5.87-4.63,1.47-1.37,1.21-3.88,1-5.84a8.07,8.07,0,0,0-2.26-5.1c-1.35-1.56,1.81-2.48,2.58-3.75a33.76,33.76,0,0,0,7-7.59c2.25-3.13,4.77-6,7.2-9A56.16,56.16,0,0,1,308,61.36a74.89,74.89,0,0,1,5.45,13.77c1.08,4.86,2.25,9.71,2.34,14.71a70.48,70.48,0,0,1-.62,17.71,108.51,108.51,0,0,1-3,12.17c-1.71,4.25-3.18,8.62-5.84,12.41-2.52,4.54-3.62,5.61-6.29,10.07a43.24,43.24,0,0,1-8.4,8.8l-3.9,3.29c-3.15-7.68-6.11-15.43-10-22.78-.34-1.45-2.81-3.41-.55-4.22a9.92,9.92,0,0,0,3.13-3.65,12.46,12.46,0,0,0,.51-8.12,10.16,10.16,0,0,0-4.33-5.54c-2.21-1.34-5.08-2.74-7.63-1.38-1.92-.11-2.33-1.75-4.19-1.71-2.61,1-3.62.74-3.17-1.38-.65-1-3.11-.6-4.48-.72-1.64.11-2.77,2-3.6,3.35-1.24,1.12-.58,3.53-2,4.25-1.35-.11-2.26-2.6-2.63-4-.64-1.65-.06-3.59.69-5.08s3.27-2.84.84-3.84c-2.58-2.27-4.63-5.09-7.2-7.39,2.36-1.73,3.09-2.91,4.95-3.88s6.16-.76,6.17-2a5.28,5.28,0,0,1-.12-5c.46-2.38,3.31-3.12,5.26-4,.07,2.15-.43,4.44,1,6.27.93,1.66,2.42,3.33,4.48,3.25.66-1.55.7-4,1.12-5.83q1.29-8,2.59-16.06l-3.54-.71Z"/></g><g id="g1364"><path id="path1366" class="cls-17" d="M264.81,86.75l-3.18,18.74"/><path id="path1368" class="cls-17" d="M272.24,89.22l-2.83,19.09"/><path id="path1370" class="cls-17" d="M279.66,35.48,272.59,62.7l3.54,4.24"/><path id="path1372" class="cls-17" d="M272.59,62l-3.54,2.47"/></g><path id="path1374" class="cls-18" d="M298.73,93.3a3.41,3.41,0,0,0-4,2.54,3.31,3.31,0,0,0,.47,2.49,8.3,8.3,0,0,1,.95,1.92,7.94,7.94,0,0,1,.08,2.74c-.15.66-.13.59-.22,1l-.65-.14a4.9,4.9,0,0,1-2.06-1.48l-.77-1.19a3.21,3.21,0,0,0-4.55-1,3,3,0,0,0-1.48,2.06,3.3,3.3,0,0,0,5,3.5l1.19-.76a5,5,0,0,1,2.5-.48l.65.14a15.12,15.12,0,0,1-1,3.19,7.25,7.25,0,0,1-2.2,2.24,26.58,26.58,0,0,1-3,1.38l-.07.33s3.4.07,4.05.21l1.95.43c.66.14,3.77,1.51,3.77,1.51l.07-.33a27,27,0,0,1-2.18-2.52,7.42,7.42,0,0,1-1-3,14.9,14.9,0,0,1,.39-3.33l.65.14a4.9,4.9,0,0,1,2.06,1.48l.77,1.19a3.21,3.21,0,0,0,4.55,1,3,3,0,0,0,1.48-2.06,3.3,3.3,0,0,0-5-3.5l-1.19.76a5,5,0,0,1-2.5.48l-.65-.14c.1-.46.07-.33.22-1a7.75,7.75,0,0,1,1.22-2.46,5.78,5.78,0,0,1,1.66-1.34,3.07,3.07,0,0,0,1.48-2.07,3,3,0,0,0-.48-2.49,3,3,0,0,0-2.06-1.48Z"/><g id="g1376"><path id="path1378" class="cls-15" d="M39.5,269.5c2.84-12.67,4.86-25.5,7.06-38.29C48.89,219.39,52,212,53.68,207c3.57-9.58,4-10.17,8-19.55C64.32,181,65.48,176,69.11,170c2.3-4.36,4.54-9.11,7.72-12.9,2.78-3.88,6.29-9.16,9.88-12.34a42,42,0,0,1,9.19-7.5c1.67-1.41,3.19-2.45,3,.56.79,5.36,2.07,10.68,2.56,16A195.38,195.38,0,0,1,100,176.18a85.33,85.33,0,0,1-2.56,15.49c-2.36,10.39-5.06,20.71-8.29,30.87-2.62,7.4-4.77,15-8.34,22-3,6.72-6.73,13.09-10,19.69-1.41,1.67-2.5,4-4.12,5.26H39.5Z"/><g id="g1380"><path id="path1382" class="cls-19" d="M96.17,137.66c1.37,8.61,3.13,17.25,2.41,26-.65,17.78-4.83,35.24-10.12,52.15C83.49,230.22,79,245,70.75,258c-2.26,3.75-4.06,7.76-6.75,11.24,1.77.56,3.42.8,4.17-1.27A183.27,183.27,0,0,0,77.4,252c3.13-6.49,6.35-13,8.64-19.83,2.13-7.72,5.22-15.14,7.12-22.93,2.93-11,5.1-22.24,7.12-33.46.5-7.61,1.52-15.2,1-22.83-.25-5.07-1.63-10-2.29-15.06.21-2.36-1.12-2.78-2.37-.84l-.5.57Z"/><path id="path1384" class="cls-19" d="M52.33,269.53a125.39,125.39,0,0,0,8.16-12.3,152.75,152.75,0,0,0,7.9-14.91,253.23,253.23,0,0,0,10.19-26.53c1.39-4.26,2.35-8.64,3.5-13,1.49-5.64,3.34-11.2,4.43-16.93a120.53,120.53,0,0,0,2-16.29,109.85,109.85,0,0,0-.26-16.92c-.28-2.81-1.06-5.55-1.59-8.32l2.65-2.12c1,7.14,2,14.3,1.89,21.49a141.93,141.93,0,0,1-2.52,22.77c-1.05,6-2.68,11.94-4.31,17.83-2,7.4-4.25,14.76-6.82,22Q75,233.5,71.9,240.44c-2.69,6-5.51,12-8.76,17.74-2.26,4-5.12,7.78-7.45,11.52Z"/></g><path id="path1386" class="cls-20" d="M78.14,154.63c1.28.39,3.22.43,2,2.13-1,2.92-2.45,5.62-3.14,8.63-.61,2.41-.12,5-.28,7.45a15.69,15.69,0,0,1-1.18,5.3C74,180,73,182.36,70.64,183.31a5.45,5.45,0,0,0-2.83,2.84c-1,1.32-1.14,3-1.69,4.54,1.49,1.66,1.27-.95,1.66-2a16.55,16.55,0,0,1,2.4-3.76,11.8,11.8,0,0,1,4.95-2.53c1.26-.33,2.4,1,3.61,1.36,1,.64.63,2.38.76,3.48-.13,2.78-1.46,5.4-.93,8.21-.2,1.13,1,3-.48,3.45-2.73,1.48-5.74,3-7.31,5.76-1.45,1.56-1.69,3.73-2.19,5.71v5.09c-1.5-1.5-3.17-3.05-4-5a30.22,30.22,0,0,0-1-4.53,10.81,10.81,0,0,0-2.18,3.43,27.4,27.4,0,0,0-1.85,5.36c-.57,2.34-.66,4.78-1.08,7.16-.47,2.67-1.81,5.21-1.6,8,.22,1,3,.41,3.77,1.49a4.52,4.52,0,0,1,.47,4.63c-.88,1.51-3.06,2-4.81,2.1A6.28,6.28,0,0,1,52,236.65a38.25,38.25,0,0,1-3,8.82c-.91,2.18-1.86,4.38-3.69,6-.7.33-2.64,2.92-2.41,1.55,1.41-9,2.66-18,4.7-26.84q7.45-22.68,15.9-45c3.46-6.81,6.76-13.72,10.31-20.47l4.35-6Z"/><g id="g1388"><path id="path1390" class="cls-8" d="M54.27,207.13l6.89,2.3"/><path id="path1392" class="cls-8" d="M52.5,211l6.89,2.12"/><path id="path1394" class="cls-8" d="M51.44,214.91,58.86,217"/><path id="path1396" class="cls-8" d="M50.2,218.62l8.13,2.47"/></g><path id="path1398" class="cls-15" d="M89.8,220.39a36,36,0,0,1,4.6,1.06,42.81,42.81,0,0,1,5.12,2.65c1.42.76,2.85,1.51,4.25,2.3,1,.57,2,1.14,3,1.77.78.5,2.29,1.59,2.29,1.59a43.74,43.74,0,0,0-2.12,4.6c-.53,1.6-.58,3.33-1.06,4.95-.37,1.27-1,2.46-1.41,3.71s-1.06,3.36-1.06,3.36a12.23,12.23,0,0,0-2-2.83,8.32,8.32,0,0,0-2.3-1.06c-1.33-.57-2.71-1.05-4.06-1.59-1.6-.64-3.22-1.22-4.77-2a28.23,28.23,0,0,0-2.66-1.41,8.88,8.88,0,0,0-2.12-.36c-.53,0-1.59,0-1.59,0s2.21-5.5,3.18-8.3,2.66-8.49,2.66-8.49Z"/><path id="path1400" class="cls-20" d="M105.18,240.37a6.09,6.09,0,0,0-1.11-2c-1.86-1.87-4.55-2.68-6.9-3.87-2.06-1.05-4-2.42-6.3-2.88a10.16,10.16,0,0,0-4.25.1L87.68,228a22.25,22.25,0,0,1,6.42.4c1.84.5,3.42,1.7,5.12,2.58a30.23,30.23,0,0,1,5.07,2.67,15.05,15.05,0,0,1,2.39,2.7l.09.14Z"/></g><g id="g1402"><path id="path1404" class="cls-17" d="M112.08,227.64a57.91,57.91,0,0,0,2.82-5.83,29.22,29.22,0,0,0,1.78-6.28c1.24-8.93.57-18.05,0-27.05a91.94,91.94,0,0,0-1.51-11.31c-.6-3.13-1.48-6.21-2.35-9.28"/><path id="path1406" class="cls-17" d="M116.32,218.45c1.61-2.45,3.5-4.73,4.87-7.31a70.45,70.45,0,0,0,3.93-9.61,33,33,0,0,0,2.15-7.08,13.41,13.41,0,0,0-.17-2.52"/></g><g id="g1408"><path id="path1410" class="cls-6" d="M254.91,238.07a16,16,0,0,0,6-1.69c3.95-2.29,6.81-6.11,9.78-9.58.86-1,1.53-2.15,2.3-3.23-1.24-.88-2.79-1.43-3.78-2.61a9.1,9.1,0,0,1-1.71-3.7c-1.18-4.83-.35-9.95-.64-14.92a60.15,60.15,0,0,0-.56-7.35,16.64,16.64,0,0,0-1.35-4.49,27.85,27.85,0,0,0-5.11-6.95,15.9,15.9,0,0,0-3.26-2.45c-3.16-1.86-6.87-2.63-10-4.48-1.14-.66-2-1.84-3.17-2.35-.83-.36-1.89-.9-2.68-.46a2.5,2.5,0,0,0-.94,2.28,4.55,4.55,0,0,0,1.37,2.64,15.24,15.24,0,0,0,3.66,2.43c2.4,1.47,5,2.57,7.34,4.14,1.42,1,2.69,2.12,4,3.21.86.71,1.69,2.91,2.54,2.18.5-.42-.57-1.18-1-1.65-1.78-1.88-4.15-3.11-6.37-4.42a34.39,34.39,0,0,0-6-3c-2.12-.73-4.41-2-6.57-1.38a3.45,3.45,0,0,0-2.12,1.92,4.53,4.53,0,0,0,.08,3.16,11.39,11.39,0,0,0,3,4.14c1.21,1.2,3.68,2.41,4.14,3,.23.27-.68.2-1,.28-1.06.25-2.29,0-3.2.6a5.15,5.15,0,0,0-1.79,2.56,5,5,0,0,0-.33,3.1c.61,2.1,2.11,3.48,4.07,5.13.39.33-1,0-1.54.12-.8.13-1.75,0-2.35.59a4.67,4.67,0,0,0-1.06,2.92,7.21,7.21,0,0,0,.26,3.39c.54,1.5,1.9,2.53,2.74,3.94.35.58-1.37-.77-1.57,1.29a7.34,7.34,0,0,0,1,3.78c1.32,2.77,3.46,5.09,5.43,7.44,1.06,1.27,2,2.79,3.42,3.59,1.06.6,2.54.1,3.56.76a6.73,6.73,0,0,1,1.7,2.34c.72,1.2,1.1,2.57,1.84,3.78Z"/><g id="g1412"><path id="path1414" class="cls-15" d="M246.07,181.88s2.94,1.52,4.42,2.27l3,1.5,6.38-35.09-8-3.71Z"/><path id="path1416" class="cls-15" d="M261.28,108c-1.27,1.56-2.72,3.07-3.39,5a12.55,12.55,0,0,0-.19,5.81c.49.87,1.59,1,2.49,1.19,1.7.17,3.45-.23,5.12.28.73.16,1.6.23,2.07.88.49-.28.39-1.15.61-1.67.37-1.75.73-1.58,1.14-3.32a52.67,52.67,0,0,0,.36-5.45c0-.68-.74-2.34-1.53-2.65s-1.43-.57-2.1-1-1.6.1-2.38.18a11.11,11.11,0,0,0-2.2.72Z"/></g></g><g id="g1418"><path id="path1420" class="cls-17" d="M257.74,114.32c1.22-1,2.55-1.88,3.67-3s2.22-1.9,2.69-3.21a2.37,2.37,0,0,0,0-.88"/><path id="path1422" class="cls-17" d="M258.62,119.1c1.45-1.41,1.61-2.11,2.61-3s2.08-1.24,3.4-2.17a6.94,6.94,0,0,0,2.25-3.25,17.19,17.19,0,0,0,.4-2.76"/><path id="path1424" class="cls-21" d="M262.67,120c1.11-1,1.13-1.74,2.54-2.32a7.37,7.37,0,0,0,2.66-1.71,12.49,12.49,0,0,0,1.74-3.61"/></g><path id="path1426" class="cls-15" d="M258.09,119.45c-1.79-1-3.87,1.68-5.28,3.17s-2,3.62-2.91,5.51a45,45,0,0,0-3.12,7.94,56.9,56.9,0,0,0-.95,8.36c-.19,1.92-2.09,4.72-.47,5.78.71.46,1.4-1.38,2.22-1.19,1.06.23.84,2.69,1.92,2.61s.44-3.28,1.64-3.2.09,3.18,1.29,3.55c.77.23,1.15-1.5,1.95-1.42,1,.1,1,2.21,1.94,2.12.77-.06.47-2,1.24-1.94,1.08,0,.53,2.63,1.59,2.83s1.2-1.79,2.12-1.77,1.26,2.22,2.3,2.12c1.6-.16,1.26-4.21,2.83-3.89,1.3.27-.44,3.73.88,3.89,2,.24,2-3.48,2.71-5.33a26.29,26.29,0,0,0,1.89-6.1,40.52,40.52,0,0,0-.23-12.19,17.88,17.88,0,0,0-1.92-6,9.5,9.5,0,0,0-3.4-3.68c-1.93-1-4.31-1-6.51-1.14-.57,0-1.32.41-1.73,0Z"/><g id="g1428"><path id="path1430" class="cls-17" d="M247.75,148.88c.2-2.14.24-4.31.57-6.44a51.36,51.36,0,0,1,1.61-7.46,89.87,89.87,0,0,1,3.53-8.78,16.62,16.62,0,0,1,1.4-3.06c1-1.41,2.13-4.49,3.63-3.65.33.18-.15.74-.27,1.1-.76,2.32-2,4.46-2.83,6.76a58.4,58.4,0,0,0-2.4,7.86c-.6,2.88-.64,5.85-1,8.76a41,41,0,0,0-.69,4.62"/><path id="path1432" class="cls-17" d="M254.62,150.13c.38-3.9.68-7.8,1.2-11.68.3-2.25.67-4.5,1.11-6.72a62,62,0,0,1,2.19-9.47c.37-1,.5-2.47,1.5-2.88.44-.18,1.35,0,1.34.45,0,2.18-1.22,4-1.47,6-.31,2.49.18,5,0,7.53-.27,3.35-1,6.66-1.6,10-.41,2.36-1.21,4.53-1.37,7"/><path id="path1434" class="cls-17" d="M261.5,151.75c.41-2.18.93-4.34,1.25-6.53a77.94,77.94,0,0,0,1.16-11.68c0-2.67-.84-5.29-.91-8a29,29,0,0,1,.24-4c.06-.54-.19-1.31.26-1.63a1.18,1.18,0,0,1,1.32.23c1.4,1.23,1,3.61,1.66,5.36.37,1,1,1.82,1.29,2.82a27.3,27.3,0,0,1,.61,5.86,36.85,36.85,0,0,1-.05,5c-.22,2.26-.87,4.45-1.25,6.68-.21,1.25-.45,2.49-.58,3.76"/></g><g id="g1436"><path id="path1438" class="cls-22" d="M125.5,267c-.84,0-.17.75-.25,2.5,39.83-.08,79.67.08,119.5,0-.08-1.83-.17-1.17-.25-3a100.7,100.7,0,0,0-13.45-2.16c-4.2-.45-8.43-.56-12.66-.67-6.41-.17-12.82,0-19.23,0-4.84,0-9.67,0-14.51-.14-4.43-.11-8.86-.5-13.29-.56-7.45-.11-14.92-.18-22.35.32a146.94,146.94,0,0,0-15.5,1.86c-2.7.48-6.75,1.71-8,1.86Z"/><path id="path1440" class="cls-15" d="M246.39,229.62A47,47,0,0,1,243,226.1a70,70,0,0,1-4-6.25l-9.13,49.65h9.21Z"/></g><g id="g1442"><g id="g1444"><path id="path1446" class="cls-8" d="M273,223.5c3.33,2.16,5.6,5.13,8.83,7.06,3.07,1.83,6.7,2.52,9.86,4.19,1.74.93,3.67,1.73,5,3.21a10.26,10.26,0,0,1,1.09,2.29"/><path id="path1448" class="cls-8" d="M286,232.5a38.26,38.26,0,0,1,7.43-1.84,16.56,16.56,0,0,1,4.87.18c1.38.26,3.19,0,3.95,1.41"/></g><path id="path1450" class="cls-15" d="M258,249.38a28.32,28.32,0,0,0,6.63-1.67,38.75,38.75,0,0,0,6.52-4c2.39-1.84,4.71-4.69,6.74-6.93a33.13,33.13,0,0,0,2.9-3.95c.48-.71,1.34-2.2,1.34-2.2s-6.41-6.21-9.63-7.78c-1.58.73-2.41,3.72-3.75,5.49a39.42,39.42,0,0,1-6.17,6.54,11.64,11.64,0,0,1-3.57,1.75c-1.61.54-3.23.9-4.41,1.19a9.93,9.93,0,0,0,.91,3.21,35.61,35.61,0,0,1,1.69,4.33c.25,1.05.8,4,.8,4Z"/><g id="g1452"><path id="path1454" class="cls-8" d="M257.75,247a42,42,0,0,0,5.19-1.34,19.21,19.21,0,0,0,3.49-1.65,28.09,28.09,0,0,0,4.06-3.15,44.56,44.56,0,0,0,4.17-4.3,69.69,69.69,0,0,0,5.59-7.43"/><path id="path1456" class="cls-8" d="M201.53,50.33c1.53,3.87,3.21,7.81,3.71,12,.34,2.77-1,5.61-.48,8.35.45,2.37,2.41,4.23,3,6.55,1.17,4.57.93,9.4,1,14.11.14,6.13,3,9.58,2.91,14.51a19.6,19.6,0,0,1-2.23,9.32c-1.3,2.26-3.53,3.89-5.66,5.38"/><path id="path1458" class="cls-8" d="M206.16,50.91c1.53,3.87,3.21,7.81,3.72,12,.33,2.77-1,5.61-.49,8.35.45,2.37,2.41,4.23,3,6.55,1.17,4.57.93,9.4,1,14.11.14,6.13,3,9.58,2.91,14.51a24.38,24.38,0,0,1-2.48,11.07,25.41,25.41,0,0,1-7.15,7.63"/><path id="path1460" class="cls-8" d="M211.66,53.66c1.53,3.87,3.21,7.81,3.72,12,.33,2.77-.74,5.58-.49,8.35.38,4.29,2.46,8.29,3,12.55.33,2.56.06,3,.17,7.73.13,6.12,2.64,8.23,2.88,12.5a23.64,23.64,0,0,1-1.08,9.76c-1.52,4-4.79,9.09-7.41,10.58"/><path id="path1462" class="cls-8" d="M223.66,72.41c-1,5.12,1.34,8.33,2.22,12.46.58,2.72,1.64,5.35,2,8.1.47,3.41-.34,6.92.27,10.3.69,3.85,4.23,6.42,3.78,11.11-.23,2.44-2,3.19-3.22,4.66-2,2.49-4.76,3.52-4.91,8.49-.13,4.43,1.66,6,4.18,6.39,1.87.27,3.64-.59,4.31-3.67.9-4.12-4.3-5.86-4.5-1.25"/><path id="path1464" class="cls-8" d="M231.8,100.55c.56,5.29,3.9,6.49,4.55,9.6.53,2.94.4,6,1.33,8.59.83,2.2,2.88,3.93,3.29,6.24.56,3.15-.24,6.47-1.27,9.5a14.15,14.15,0,0,1-3,5.28,17.87,17.87,0,0,1-6.17,3.91"/><path id="path1466" class="cls-8" d="M148.67,86.22c-1.27,1.55-2.83,3-3.45,4.9a13.86,13.86,0,0,0-.11,5.88c.55,4.88,2.17,9.59,3.6,14.28,1.58,5.19,5,10,5.47,15.33.34,4-1.84,3.22-2.71,4.85-.78,1.46-.49,2.62-2.27,4.43"/><path id="path1468" class="cls-8" d="M142.13,103.72c1.34,3.69,3.08,8.23,4.49,12.39,1,3.1,2.89,6.09,2.94,9.35a16.92,16.92,0,0,1-2.38,8.4,17.21,17.21,0,0,1-5.75,6.06,7.43,7.43,0,0,1-4.17,1.29,7.76,7.76,0,0,1-4.43-1.9c-1.84-1.54-3.82-3.62-4-6a8.15,8.15,0,0,1,3.31-6.51c1.4-1,3.79-2,5.17-1,1.58,1.25,1.92,4.83.31,6.05-.93.71-2.4-1.82-3.32-1.09-1.15.9-.54,3.28.38,4.37a4.33,4.33,0,0,0,3,1.72c1.6,0,3.06-1.24,4.18-2.38a12.91,12.91,0,0,0,4-7.38c-.44-4.31-2.47-7.47-4.9-10.83"/><path id="path1470" class="cls-8" d="M135.41,121.57c2.74-.38,2.48-3.22,3.91-4.67,1.68-1.71,3.67-3.12,5.46-4.7"/><path id="path1472" class="cls-8" d="M134.7,117.33c1.63-1.45,1.68-2.34,2.69-3.37s2.48-1.72,3.47-2.83,2-3.36,2.5-3.88"/><path id="path1474" class="cls-8" d="M138.06,120.69a10.7,10.7,0,0,1,3.54,4.6c1,2.78.09,6.07.17,8.83"/><path id="path1476" class="cls-8" d="M217.26,57.74c1.53,3.86,1.35,7.8,2,11.71.46,2.86.08,5.74,1,8.6,2.69,8.19,1.83,12.34,2,16s1.46,4.42,2.62,9c1,4.08,1.81,5.33,1.59,8.06-.18,2.26-1.47,4.3-2.37,6.39-1.37,3.13-4,5.77-4.59,9.17a10.6,10.6,0,0,0,3.93,10.75,8.17,8.17,0,0,0,8,.86c3.19-1.57,5.19-6,5.61-9.06.6-4.33-5.47-10.91-10.48-8"/></g></g></g><g id="g1478"><path id="path1480" class="cls-3" d="M222.12,401.48c9.14-4.75,19.29-7.24,28.42-11.87a14.68,14.68,0,0,0,6.11-8.89q21.23-55.11,42.47-110.24c-15.5-.33-30-.16-45,0,1.74,2.53,5.35,5.95,3,9.14-4,9.24-5.55,17.35-8.9,26.83-.75,2.66-1.6,4.84-4.58,5.76a28.12,28.12,0,0,1-1.57-7.25c-1-6.28-2.6-12.54-6.1-18-2-3.8-3.93-10.15-5.85-14-8.57,2.24-16.28,3.07-26,3.75-12.55.35-26.06.43-39,.75-13,0-26.06-1.25-39.09-1.25-6.91-1.75-9.83-1.5-15.25-3.25-1.19,7.69-1.75,13.68-4.11,21.08-2.4,4.27-1.57,9.26-2.64,13.92-2.76-1.81-2.76-5.4-3.75-8.26-1.27-3.66-3.53-7-2.75-11.3.38-3.53.88-7-1.51-10-.8-2.61-.37-8.09-4.17-8L55.62,270c-3.46,6.68-4.24,14.21-4,21.64.14,6-.89,12.19,2.1,17.69,2.36,6.74,4.47,13.6,9,19.26a142.77,142.77,0,0,1,13.56,24.07c3.9,7.69,6.54,15.94,11.42,23.11,3.46,4.83,6,10.67,11.54,13.46,4.69,3.18,10.27,8.9,16.28,8.13,28.35-.15,75.43,17.73,106.61,4.14Z"/><path id="path1482" class="cls-4" d="M218.79,394.54l-3.89-9.9-5.3-15.91-5.3-18-3.89-19.8-1.77-12.37-.36-9.9-1.06-10.25-1.06-11.32-.35-9.92-18.39-.71H143.13l-16.82-.79-7.57,25.56-2.12,13.44-.71,6.72-1.77,45.25,1.06,16.26-1.06,12.37.36,2.13L130.05,408l25.1,6.37,29.35,1.06L208.89,408l12.38-7.07-3.19-8.13Z"/><g id="g1484"><g id="g1486"><path id="path1488" class="cls-5" d="M209.62,456.23c2.38-2.43,3.59-5.79,4.39-9,1-3.75-1.51-7.42-.48-11.15,1.67-2.93,5.34-4,7.08-6.93,1.79-2.69,1-6.13.34-9-2.5-2.78,2.32-2.18,3.74-2.84a14.73,14.73,0,0,0,6.89-6.2c1.33-3.82-.15-8.06-3-10.79a20.75,20.75,0,0,0-7.17-5.14c-3.69-.51-7.52,0-10.16,2.46a14.73,14.73,0,0,0-5,6.5c-1.31-2.63-4-1.2-5.14.78-2.13,2.15-4.57,4-6.79,6.05-1.6,2.11,2.51,3.26,3.26,5.13,4.64,5.69,6.29,13.09,7.83,20.11a81.84,81.84,0,0,1,1.19,20.61c-1.27,3,2.25,0,3-.51Z"/><path id="path1490" class="cls-5" d="M159.37,490.48c0-1.62-3.34-5.76-4-9-.55-2.77.51-5.65.19-8.45a23.65,23.65,0,0,0-1.17-4.52c-.86-2.67-2.52-5.08-3.06-7.82-.91-4.59-.08-9.36-.26-14-.23-6-.26-8.67-1.41-14.32-.55-2.66,1.14-5.1,2.36-7.37.47-.89,1.8-1.35,1.88-2.35.11-1.34-1.3-2.35-2-3.51a29.44,29.44,0,0,0-2.1-3.56,7,7,0,0,0-2.51-2.52,5.12,5.12,0,0,0-4.33,0,9.67,9.67,0,0,0-1.38-4c-2-4.47-3.08-10.32-7.33-12.78-2.46-1.41-5.69-.3-8.51,0-3.65.42-7.67.43-10.75,2.44a7.63,7.63,0,0,0-2.17,2.94,24,24,0,0,0-2.61,6.88c-.57,2.9-1,6-.23,8.87.62,2.27,2.89,3.8,3.72,6,1,2.56,0,5.72,1.31,8.1,1.45,2.54,4.56,3.67,6.72,5.64.65.61,1.7,1,1.88,1.89.5,2.28-2.53,4.21-2.44,6.54.12,3.43,2.7,6.33,4.32,9.36,1,1.84,2.51,3.4,3.28,5.35.53,1.35.42,2.89.89,4.27.7,2.08,1.93,3.93,2.82,5.94,1.36,3.08,1.94,6.55,3.81,9.35a21.88,21.88,0,0,0,5.43,5.3,23.88,23.88,0,0,0,6.38,3.3c3.6,1.22,7.44,1.54,11.22,2Z"/></g><path id="path1492" class="cls-6" d="M206.12,458.48a41.72,41.72,0,0,0,.68-10.75A74.08,74.08,0,0,0,205,433.41a58,58,0,0,0-4.38-12.64c-1.45-2.92-3-6-5.44-8.13a19.63,19.63,0,0,0-9-4.21,26.85,26.85,0,0,0-11.16.71,34.33,34.33,0,0,0-9.67,4.2,48.83,48.83,0,0,0-11,8.89c-2.44,2.7-5.29,5.57-6,9.14-.74,3.94,2,7.78,2.45,11.76.31,2.93-.11,5.9,0,8.85a52.55,52.55,0,0,0,.78,9.72c.74,3.23,3.09,6,3.62,9.28.56,3.44-1.38,7.06-.53,10.44.92,3.7,3,8.07,5.88,9.81,2.57,1.7,6.62.26,9.85-.3,6-1.06,11.75-3.39,17.41-5.68,6.34-2.56,11.1-8.55,14.59-14.44,2-3.45,1.81-7.83,3.3-11.54,0-.14.14-.25.2-.38s0-.33.15-.41Z"/><path id="path1494" class="cls-7" d="M204.87,473c.27-2-1.8-4.46-3-1.6a49.21,49.21,0,0,1-8.1,9.9c-3.91,3.92-8.2,4.48-13.12,6.63-9.86,3.7-20.7,3.14-30.88,1.28-5.92-1.28-11.5-5-14-10.61-1.52-1.83-.69-8.65-4.25-6.56-2.35,1.3-3.54,4.78-3.12,7.3.31,5.25,4.42,9.35,8.69,11.91,8.53,4.9,18.69,5.93,28.33,5a63.89,63.89,0,0,0,24.28-5.31A23.3,23.3,0,0,0,200,484.55c2.2-2.41,5.75-4.19,5.87-7.86.14-1.33-.55-2.51-1-3.71Z"/><path id="path1496" class="cls-3" d="M205.12,478.48c2-4.52-2.49-8.21-1-12.86a10.13,10.13,0,0,1,4.95-9c5-2.28,8.7,3.27,10.86,7,2.43,4.2.31,9.61.75,14.52a28.36,28.36,0,0,1-3.75,16.82c-6.86,5-12.85,8.73-21,10.85-5.12,2.13-12.14,4.37-17.84,4.51-13.49,1.15-27.21,1.14-40.57-1.26-5.26-1.57-10.91-2.54-15.55-5.62-7.69-5.75-10.56-16.45-8.7-25.61,1.63-4.49,4.19-9.43,8.58-11.7,3.87-2,10.19-2.85,10.33,3.36.38,4-5.7,5.8-3.4,10.49,1,5.69,5.76,9.56,10.76,11.8,7.78,4.31,16.91,4.72,25.6,4.23,9.89.32,19.55-2.85,28.47-6.87a34.11,34.11,0,0,0,11.56-10.62Z"/><g id="g1498"><path id="path1500" class="cls-8" d="M200.62,472.73c-1.73.63-4.12,1.75-6,1a6.19,6.19,0,0,1-3.23-4.29c-1-4,1.28-8.05,2.06-12.05.55-2.8,1.07-5.62,1.84-8.37.43-1.53,2-3,1.53-4.52-.29-1-1.59-1.4-2.45-2-1-.75-2-2.13-3.22-2s-1.63,1.79-2.71,2.27a11.77,11.77,0,0,1-2.67.36c-.74.14-1.72-.07-2.21.5a3.92,3.92,0,0,0-.28,4.05c.11.21.39.25.59.36"/><path id="path1502" class="cls-8" d="M181.67,467.48c.18.88.73,1.77.53,2.65a3.43,3.43,0,0,1-1.51,2c-1.09.69-2.51.67-3.79.85a32.49,32.49,0,0,1-5.58.35,10.62,10.62,0,0,1-3.52-.4,13,13,0,0,1-3.13-2.18c-1.29-1-2.44-2.19-3.74-3.17-.21-.16-.43-.29-.65-.43"/><path id="path1504" class="cls-8" d="M180.26,462.07a10.74,10.74,0,0,1-1.51,2.51,8.1,8.1,0,0,1-4.15,1.91,9.13,9.13,0,0,1-4.81-.65c-1.63-.68-2.59-2.51-4.2-3.24-.58-.26-1.29-.13-1.88-.37-.81-.33-1.31-1.17-2.19-1.4"/></g><path id="path1506" class="cls-9" d="M178.89,461.62c-.79,1-2.67.93-4.08,1.18a11.31,11.31,0,0,1-3.28.25,16.77,16.77,0,0,1-3.52-1.12,18.94,18.94,0,0,0-3.22-1.28c-.81-.13-2.23.82-2.48.14-.44-1.2,2.53-1.21,3.7-2,.74-.47,1.3-1.15,2.07-1.56a7.08,7.08,0,0,1,2-.66,12.86,12.86,0,0,1,3.28-.08A8.08,8.08,0,0,1,176,457a6.34,6.34,0,0,1,1.52,1.14,4.14,4.14,0,0,1,1.26,1.94c.16.48.46,1.09.14,1.51Z"/><path id="path1508" class="cls-8" d="M192.63,464.37c.81,1.06,1.31,2.43,2.39,3.22a5.8,5.8,0,0,0,2.94,1,10.16,10.16,0,0,0,3.11-.57c.92-.22,1.79-.57,2.7-.83"/><path id="path1510" class="cls-9" d="M193,462.43c.53,1.86,3.54,1.7,5.45,2a9.75,9.75,0,0,0,3-.2c1-.18,2.15-.17,2.84-.89a1.87,1.87,0,0,0,.46-1.66c-.13-.57-.74-.89-1.16-1.29a7.84,7.84,0,0,0-2.24-1.84,6.62,6.62,0,0,0-3.28-.28,5.43,5.43,0,0,0-2.42.8c-1.18.83-3.08,2-2.69,3.39Z"/><g id="g1512"><path id="path1514" class="cls-10" d="M196.61,461.89a2.39,2.39,0,1,1,4.77,0h0a2.39,2.39,0,1,1-4.77,0Z"/><path id="path1516" class="cls-11" d="M169.85,460a2.66,2.66,0,0,1,5.31,0h0a2.66,2.66,0,0,1-5.31,0Z"/></g><path id="path1518" class="cls-12" d="M198.11,462.34a.71.71,0,1,1,1.41,0h0a.71.71,0,1,1-1.41,0Z"/><path id="path1520" class="cls-12" d="M171.11,460.27a.89.89,0,1,1,.88,1A.94.94,0,0,1,171.11,460.27Z"/><g id="g1522"><path id="path1524" class="cls-13" d="M196.11,433.41c-.33,1-1.47,1.28-2.23,1.87-.55.42-.9,1.2-1.68,1.23a2.51,2.51,0,0,1-2.48-.82c-.53-.49-1.58-.42-1.59.35a3.78,3.78,0,0,1-2.1.29,10.27,10.27,0,0,1-3.32-1.63c-.53-.26-1.32-.47-1.35-1.17.21-.78,1.36-.55,1.73-1.25.83-1,1.31-1.13,2.2-2.06a4.31,4.31,0,0,1,2.61-1.94,10.44,10.44,0,0,1,4.08.42,2.76,2.76,0,0,1,2.06,1.66c.23.79.75.37,1.19,1.05a15.89,15.89,0,0,1,.88,1.81v.19Z"/><path id="path1526" class="cls-13" d="M196.11,433.16a19.11,19.11,0,0,0-2.83.28c-.76.22-1-.71-1.71-.83a6.74,6.74,0,0,0-3.09-.2,18.33,18.33,0,0,0-1.79,1,2.74,2.74,0,0,1-2.16.35c-.83-.05-1.6-.43-2.42-.46a1.68,1.68,0,0,0-.5.13"/></g><path id="path1528" class="cls-14" d="M188.43,440.1a22.37,22.37,0,0,1-3.29,0,9.15,9.15,0,0,1-2.43-.51,14.9,14.9,0,0,1-3.63-2.18,5.47,5.47,0,0,1-1-1c-.61-.79-.77-1.92-1.51-2.59a1.8,1.8,0,0,0-1.28-.6c-.55.06-.88.66-1.31,1a7.21,7.21,0,0,1-1.08,1,3.66,3.66,0,0,1-1.5.38,7.34,7.34,0,0,1-3.13-.26c-.48-.17-1.2-.36-1.26-.86s.5-.83.91-1c.92-.38,2.07.54,3,.12,1.34-.62,1.57-2.56,2.71-3.51a6.07,6.07,0,0,1,1.91-1,29.74,29.74,0,0,1,3.33-.68c.81-.17,1.62.47,2.29.95,1.08.76,1.66,2.07,2.63,2.95a21.28,21.28,0,0,0,2.71,2,9.18,9.18,0,0,0,2.63,1.53,5.15,5.15,0,0,0,2.67-.09,4,4,0,0,0,1.75-1c.59-.64.65-1.64,1.2-2.32a4.61,4.61,0,0,1,1.42-1.14,4.4,4.4,0,0,1,2.21-.65,5.74,5.74,0,0,1,2,.83c.47.21.92.47,1.37.71s.82.45,1.22.69,1.17.46,1.49.95a1.61,1.61,0,0,1,.23,1.45,1,1,0,0,1-.84.53c-.78,0-1.15-1.31-1.92-1.3s-1.21.7-1.7,1.19c-.7.74-.89,1.91-1.67,2.56a7.4,7.4,0,0,1-2.4,1,8.44,8.44,0,0,1-2,.53,8.61,8.61,0,0,1-1.6-.17,9.08,9.08,0,0,1-1.56-.2c-.65.14-1.77.63-2.48.71Z"/><g id="g1530"><path id="path1532" class="cls-1" d="M204.93,402.33a31.53,31.53,0,0,0-4.73-8.11c-2.42-3.78-5-7.48-7.68-11.07-1.93-1.93-4.16-3.6-5.65-5.93a169,169,0,0,1-13.54,11.68c-1.63,1,1.75,1.44,2.48,2.17a41.07,41.07,0,0,1,6.29,4.68c2,2.39,4.56,4.45,5.65,7.49s4.39,5.73,6.18,8.34c1.55.8,2.16-1.48,3.24-2.22,2.61-2.31,5.26-4.59,7.76-7Z"/><path id="path1534" class="cls-1" d="M161.62,390a72.28,72.28,0,0,0-11.92-10.17c-1-1.61-2-1.74-3,0-2.07,2.4-4.45,4.59-5.62,7.6a53.08,53.08,0,0,1-5.72,9.29c1.59,2.26,3.42,4.4,4,7.17,1,3.23,2.64,5.79,3.8,9,1.68.12,3.78-.15,5,1.32.95.35.37-2.59.73-3.51.14-2.9,1.25-5.66,2-8.42,2.26-3.86,2.51-5.88,6.28-8.5.78-.63,3.5-3.27,4.35-3.79Z"/></g><path id="path1536" class="cls-6" d="M192.87,410.48c-2.5-4.17-5.63-7.92-8.1-12.11-1.22-1.66-3-2.8-4.47-4.24a18.64,18.64,0,0,0-4.22-3.06c-1.78-1.22-3.58-2.7-5.8-2.89-1.7-.06-3.49-.51-5,.43s-3.88,1.45-5.34,2.7a33.12,33.12,0,0,0-6.39,5.63,30.42,30.42,0,0,0-3.28,7.43c-1.2,2.89-1.49,6.92-1.8,10,2.07,1.44,1.7,3.29,3.22,4.92,1,1,1.48,2.92,2.52,3.07,1.62-1.77,4.41-4.73,6.57-5.89,2.79-1.83,5.4-4,8.54-5.19a44.43,44.43,0,0,1,8.23-2.82c2.73-.11,5.48-.48,8.19-.37,2.41.71,4.79,1.55,7.15,2.4Z"/><path id="path1538" class="cls-1" d="M186.37,377.73l-2.25-9.25-1.5-11.5-2.25-16.25-1.5-14.25-.25-9.25v-9.5l-.75-13.5-.5-8.75-.25-9h-34.5l-1,16.75-1.25,16.5.25,16.5v20.5l1,11.75,2,15,2,7.5,2-2.25,5,3.5,4.5,3.25,2.75,2.75,1.5,2,3.75-1.5,3.75-.75,3,.75,1.5.5,4.25-4.25,4.5-3.25Z"/><g id="g1540"><path id="path1542" class="cls-8" d="M168.37,387.73l-3-17-1.75-14.25-2.25-16.25L159.62,324l-.5-12.25v-17l.5-8.75.5-9.5"/><path id="path1544" class="cls-8" d="M156.87,276.48l-1.25,21.75.25,23.25,2,21,2,11,1.5,11,1.25,9.25,2,9.5.75,5.25"/></g><g id="g1546"><path id="path1548" class="cls-15" d="M170.87,372.73a4,4,0,1,1,4,4A4,4,0,0,1,170.87,372.73Z"/><path id="path1550" class="cls-15" d="M168.62,358.73a4,4,0,1,1,4,4A4,4,0,0,1,168.62,358.73Z"/><path id="path1552" class="cls-15" d="M166.37,343.48a4,4,0,1,1,4,4A4,4,0,0,1,166.37,343.48Z"/><path id="path1554" class="cls-15" d="M164.87,327.23a4,4,0,1,1,4,4A4,4,0,0,1,164.87,327.23Z"/><path id="path1556" class="cls-15" d="M143.87,326.23a4,4,0,1,1,4,4A4,4,0,0,1,143.87,326.23Z"/><path id="path1558" class="cls-15" d="M144.62,343.23a4,4,0,1,1,4,4A4,4,0,0,1,144.62,343.23Z"/><path id="path1560" class="cls-15" d="M146.62,359a4,4,0,1,1,4,4A4,4,0,0,1,146.62,359Z"/><path id="path1562" class="cls-15" d="M149.37,373.73a4,4,0,1,1,4,4A4,4,0,0,1,149.37,373.73Z"/><path id="path1564" class="cls-15" d="M164.87,312a4,4,0,1,1,4,4A4,4,0,0,1,164.87,312Z"/><path id="path1566" class="cls-15" d="M164.37,297.23a4,4,0,1,1,4,4A4,4,0,0,1,164.37,297.23Z"/><path id="path1568" class="cls-15" d="M164.62,283.73a4,4,0,1,1,4,4A4,4,0,0,1,164.62,283.73Z"/><path id="path1570" class="cls-15" d="M145.37,284a4,4,0,1,1,4,4A4,4,0,0,1,145.37,284Z"/><path id="path1572" class="cls-15" d="M144.87,298.23a4,4,0,1,1,4,4A4,4,0,0,1,144.87,298.23Z"/><path id="path1574" class="cls-15" d="M144.12,312a4,4,0,1,1,4,4A4,4,0,0,1,144.12,312Z"/></g><path id="path1576" class="cls-16" d="M90.45,475.86,77.37,504.14c-1.63,2.29-2.21-.67-2.1-2.19L76,471.61c1.25.23,3.72,3.05,4.05,1.29,1.55-7.31,2.23-14.77,3.37-22.15-2.9.1-5.89-.18-8.73.14-2.07,1.43-4.94,2-5.87,4.63-1.46,1.37-1.21,3.88-1,5.84a8.07,8.07,0,0,0,2.26,5.1c1.35,1.56-1.81,2.48-2.58,3.75a33.76,33.76,0,0,0-7,7.59c-2.25,3.13-4.77,6-7.2,9a56.94,56.94,0,0,1-5.75-8.19,74.89,74.89,0,0,1-5.45-13.77c-1.07-4.86-2.25-9.71-2.34-14.71a70,70,0,0,1,.63-17.71,106.33,106.33,0,0,1,3-12.17c1.71-4.25,3.18-8.62,5.84-12.41,2.52-4.54,3.62-5.61,6.3-10.07a42.93,42.93,0,0,1,8.39-8.8l3.9-3.29c3.15,7.68,6.11,15.43,10,22.78.34,1.45,2.81,3.41.55,4.22a9.92,9.92,0,0,0-3.13,3.65,12.46,12.46,0,0,0-.51,8.12A10.16,10.16,0,0,0,79,430c2.21,1.34,5.09,2.74,7.63,1.38,1.92.11,2.33,1.75,4.19,1.71,2.61-1,3.62-.74,3.17,1.38.65.95,3.11.6,4.48.72,1.64-.11,2.77-2,3.6-3.35,1.24-1.12.58-3.53,2-4.25,1.35.11,2.26,2.6,2.63,4,.64,1.65.06,3.59-.69,5.08-.8,1.34-3.27,2.84-.84,3.84,2.58,2.27,4.63,5.09,7.2,7.39-2.36,1.73-3.09,2.91-5,3.88s-6.16.76-6.16,1.95a5.28,5.28,0,0,1,.11,5c-.46,2.38-3.3,3.12-5.26,4-.07-2.15.43-4.44-1-6.27-.93-1.66-2.42-3.33-4.48-3.25-.66,1.55-.69,4-1.11,5.83q-1.31,8-2.59,16.06l3.53.71Z"/></g><g id="g1578"><path id="path1580" class="cls-17" d="M90.81,453.23,94,434.49"/><path id="path1582" class="cls-17" d="M83.38,450.76l2.83-19.09"/><path id="path1584" class="cls-17" d="M76,504.5,83,477.28,79.49,473"/><path id="path1586" class="cls-17" d="M83,478l3.54-2.47"/></g><path id="path1588" class="cls-18" d="M56.89,446.68a3,3,0,0,0,2.49-.47,3,3,0,0,0,1.48-2.07,3.31,3.31,0,0,0-.47-2.49,8.3,8.3,0,0,1-1-1.92,7.94,7.94,0,0,1-.08-2.74c.15-.66.13-.59.22-1l.65.14a4.9,4.9,0,0,1,2.06,1.48l.77,1.19a3.21,3.21,0,0,0,4.55,1,3,3,0,0,0,1.48-2.06,3.3,3.3,0,0,0-5-3.5l-1.19.76a5,5,0,0,1-2.5.48l-.65-.14a15.12,15.12,0,0,1,1-3.19,7.25,7.25,0,0,1,2.2-2.24,26.58,26.58,0,0,1,3-1.38l.07-.33s-3.4-.07-4-.21l-2-.43c-.65-.14-3.77-1.51-3.77-1.51l-.07.33a27,27,0,0,1,2.18,2.52,7.41,7.41,0,0,1,1.05,3,14.88,14.88,0,0,1-.39,3.32l-.65-.14a4.9,4.9,0,0,1-2.06-1.48l-.77-1.19a3.21,3.21,0,0,0-4.55-1,3,3,0,0,0-1.48,2.06,3.39,3.39,0,0,0,2.54,4,3,3,0,0,0,2.49-.47l1.19-.76a5,5,0,0,1,2.5-.48l.65.14c-.1.46-.07.33-.22,1a7.75,7.75,0,0,1-1.22,2.46,5.78,5.78,0,0,1-1.66,1.34,3.07,3.07,0,0,0-1.48,2.07,3.43,3.43,0,0,0,2.54,4Z"/><g id="g1590"><path id="path1592" class="cls-15" d="M316.12,270.48c-2.84,12.67-4.86,25.5-7.06,38.29-2.32,11.82-5.41,19.24-7.12,24.21-3.57,9.58-4,10.17-8,19.55C291.3,359,290.14,364,286.51,370c-2.3,4.36-4.54,9.11-7.72,12.9-2.78,3.88-6.29,9.16-9.88,12.34a42,42,0,0,1-9.19,7.5c-1.67,1.41-3.19,2.45-3-.56-.79-5.36-2.07-10.68-2.56-16a197.69,197.69,0,0,1,1.48-22.29,85.33,85.33,0,0,1,2.56-15.49c2.36-10.39,5.06-20.71,8.29-30.87,2.62-7.4,4.77-15,8.34-22,3-6.72,6.73-13.09,10-19.69,1.42-1.67,2.5-4,4.12-5.26h27.2Z"/><g id="g1594"><path id="path1596" class="cls-19" d="M259.45,402.32c-1.37-8.61-3.13-17.25-2.41-26,.65-17.78,4.83-35.24,10.12-52.15,5-14.39,9.48-29.16,17.71-42.12,2.26-3.75,4.06-7.76,6.75-11.24-1.77-.56-3.42-.8-4.17,1.27A182,182,0,0,0,278.22,288c-3.13,6.48-6.35,13-8.64,19.82-2.13,7.72-5.22,15.14-7.12,22.93-2.93,11-5.1,22.24-7.12,33.46-.5,7.61-1.52,15.2-1.05,22.83.25,5.07,1.63,10,2.29,15.06-.21,2.36,1.12,2.78,2.37.84l.5-.57Z"/><path id="path1598" class="cls-19" d="M303.29,270.45a127.22,127.22,0,0,0-8.16,12.3,152.75,152.75,0,0,0-7.9,14.91A253.23,253.23,0,0,0,277,324.19c-1.39,4.26-2.35,8.64-3.49,13-1.5,5.64-3.35,11.2-4.44,16.93a120.73,120.73,0,0,0-2,16.29,109.85,109.85,0,0,0,.26,16.92c.29,2.81,1.06,5.55,1.6,8.32l-2.66,2.12c-1-7.13-2-14.3-1.89-21.49A141.93,141.93,0,0,1,267,353.47c1-6,2.68-11.94,4.31-17.83,2-7.4,4.26-14.76,6.82-22q2.53-7.15,5.63-14.1c2.68-6,5.5-12,8.75-17.74,2.26-4,5.12-7.78,7.45-11.52Z"/></g><path id="path1600" class="cls-20" d="M277.48,385.35c-1.28-.39-3.22-.43-2-2.13,1-2.92,2.45-5.62,3.14-8.63.61-2.4.12-5,.28-7.45a15.69,15.69,0,0,1,1.18-5.3c1.55-1.82,2.57-4.22,4.9-5.17a5.45,5.45,0,0,0,2.83-2.84c1-1.32,1.14-3,1.69-4.54-1.49-1.66-1.27.95-1.66,2a16.55,16.55,0,0,1-2.4,3.76,11.8,11.8,0,0,1-4.95,2.53c-1.26.33-2.4-1-3.6-1.36-1-.64-.64-2.38-.77-3.48.13-2.78,1.46-5.4.93-8.21.2-1.13-1-3,.48-3.45,2.73-1.48,5.74-3,7.31-5.76,1.45-1.56,1.69-3.73,2.19-5.71v-5.09c1.5,1.5,3.17,3,4,5a30.22,30.22,0,0,0,1,4.53,10.81,10.81,0,0,0,2.18-3.43A27.4,27.4,0,0,0,296,325.3c.57-2.34.66-4.78,1.08-7.16.47-2.67,1.81-5.21,1.6-8-.22-1-2.95-.41-3.77-1.49a4.52,4.52,0,0,1-.47-4.63c.88-1.51,3.06-2,4.81-2.1a6.28,6.28,0,0,1,4.38,1.39,38.25,38.25,0,0,1,3-8.82c.91-2.18,1.86-4.38,3.69-6,.7-.33,2.64-2.92,2.41-1.55-1.41,9-2.66,18-4.7,26.84q-7.46,22.68-15.9,45c-3.46,6.81-6.76,13.72-10.31,20.47l-4.35,6Z"/><g id="g1602"><path id="path1604" class="cls-8" d="M301.35,332.85l-6.89-2.3"/><path id="path1606" class="cls-8" d="M303.12,329l-6.89-2.12"/><path id="path1608" class="cls-8" d="M304.18,325.07,296.76,323"/><path id="path1610" class="cls-8" d="M305.42,321.36l-8.13-2.47"/></g><path id="path1612" class="cls-15" d="M265.82,319.59a36,36,0,0,1-4.6-1.06,42.81,42.81,0,0,1-5.12-2.65c-1.42-.76-2.84-1.51-4.25-2.3-1-.57-2-1.14-3-1.77-.78-.5-2.29-1.59-2.29-1.59a43.74,43.74,0,0,0,2.12-4.6c.53-1.6.58-3.33,1.06-4.95.37-1.27,1-2.46,1.41-3.71s1.06-3.36,1.06-3.36a12.23,12.23,0,0,0,2,2.83,8.32,8.32,0,0,0,2.3,1.06c1.34.57,2.71,1.05,4.06,1.59,1.6.64,3.22,1.22,4.78,1.95a26.89,26.89,0,0,0,2.65,1.41,8.88,8.88,0,0,0,2.12.36c.53,0,1.59,0,1.59,0s-2.21,5.5-3.18,8.3-2.65,8.49-2.65,8.49Z"/><path id="path1614" class="cls-20" d="M269,308.28a10.16,10.16,0,0,1-4.25.1c-2.26-.46-4.24-1.84-6.3-2.88-2.35-1.2-5-2-6.9-3.87a6.09,6.09,0,0,1-1.11-2l-1.59,3.88.09.14a14.68,14.68,0,0,0,2.39,2.7A29.9,29.9,0,0,0,256.4,309c1.7.87,3.27,2.07,5.12,2.57a22.25,22.25,0,0,0,6.42.4Z"/></g><g id="g1616"><path id="path1618" class="cls-17" d="M243.54,312.34a57.91,57.91,0,0,0-2.82,5.83,29.22,29.22,0,0,0-1.78,6.28c-1.24,8.93-.57,18.05,0,27.05a93.64,93.64,0,0,0,1.51,11.31c.6,3.14,1.48,6.21,2.35,9.29"/><path id="path1620" class="cls-17" d="M239.3,321.53c-1.61,2.45-3.5,4.73-4.87,7.31a70.45,70.45,0,0,0-3.93,9.61,33,33,0,0,0-2.15,7.08,13.41,13.41,0,0,0,.17,2.52"/></g><g id="g1622"><path id="path1624" class="cls-6" d="M100.71,301.91a16,16,0,0,0-5.95,1.69c-4,2.29-6.81,6.12-9.78,9.58-.86,1-1.53,2.15-2.3,3.23,1.24.88,2.79,1.44,3.78,2.61a9.1,9.1,0,0,1,1.71,3.7c1.18,4.84.35,9.95.64,14.92a60,60,0,0,0,.56,7.35,16.64,16.64,0,0,0,1.35,4.49,27.67,27.67,0,0,0,5.11,6.95,15.9,15.9,0,0,0,3.26,2.45c3.16,1.86,6.87,2.63,10,4.48,1.14.66,2,1.84,3.17,2.35.83.36,1.89.9,2.69.46a2.51,2.51,0,0,0,.93-2.28,4.5,4.5,0,0,0-1.37-2.64,15.24,15.24,0,0,0-3.66-2.43c-2.39-1.47-5-2.57-7.34-4.14-1.42-1-2.69-2.12-4-3.21-.86-.71-1.69-2.91-2.54-2.18-.49.42.57,1.18,1,1.65,1.78,1.88,4.15,3.11,6.37,4.42a33.71,33.71,0,0,0,6,3c2.12.73,4.41,2,6.57,1.38a3.42,3.42,0,0,0,2.12-1.92,4.53,4.53,0,0,0-.08-3.16,11.39,11.39,0,0,0-3-4.14c-1.21-1.2-3.68-2.41-4.14-3-.23-.27.68-.2,1-.28,1.06-.25,2.29,0,3.2-.6a5.15,5.15,0,0,0,1.79-2.56,5,5,0,0,0,.33-3.1c-.61-2.09-2.11-3.48-4.07-5.13-.39-.33,1,0,1.54-.12.8-.13,1.75,0,2.35-.58a4.72,4.72,0,0,0,1.06-2.92,7.19,7.19,0,0,0-.26-3.39c-.54-1.51-1.9-2.54-2.74-3.95-.35-.58,1.37.77,1.57-1.29a7.34,7.34,0,0,0-1-3.78c-1.32-2.77-3.46-5.09-5.43-7.44-1.06-1.27-2-2.79-3.42-3.59-1.06-.6-2.54-.1-3.56-.76a6.73,6.73,0,0,1-1.7-2.34c-.72-1.2-1.1-2.57-1.84-3.78Z"/><g id="g1626"><path id="path1628" class="cls-15" d="M109.55,358.1s-2.94-1.52-4.42-2.27l-3-1.5-6.38,35.09,8,3.71Z"/><path id="path1630" class="cls-15" d="M94.34,432c1.27-1.56,2.72-3.07,3.39-5a12.55,12.55,0,0,0,.19-5.81c-.49-.87-1.59-1-2.49-1.18-1.7-.18-3.45.22-5.12-.28-.73-.17-1.6-.24-2.07-.89-.49.28-.39,1.15-.61,1.67-.37,1.75-.73,1.58-1.14,3.32a52.67,52.67,0,0,0-.36,5.45c0,.68.74,2.34,1.53,2.65s1.43.58,2.1,1,1.6-.1,2.38-.18a11.11,11.11,0,0,0,2.2-.72Z"/></g></g><g id="g1632"><path id="path1634" class="cls-17" d="M97.88,425.66c-1.22,1-2.55,1.88-3.67,3s-2.22,1.9-2.69,3.21a2.6,2.6,0,0,0,0,.88"/><path id="path1636" class="cls-17" d="M97,420.88c-1.45,1.41-1.61,2.11-2.61,3S92.31,425.08,91,426a7,7,0,0,0-2.25,3.25,17.19,17.19,0,0,0-.4,2.76"/><path id="path1638" class="cls-21" d="M93,420c-1.11,1-1.13,1.74-2.53,2.32A7.32,7.32,0,0,0,87.75,424,12.76,12.76,0,0,0,86,427.62"/></g><path id="path1640" class="cls-15" d="M97.53,420.53c1.79,1,3.87-1.68,5.28-3.17s2-3.62,2.91-5.51a45,45,0,0,0,3.12-7.94,56.9,56.9,0,0,0,1-8.36c.19-1.92,2.09-4.72.47-5.78-.71-.46-1.4,1.38-2.22,1.2-1.06-.24-.84-2.7-1.91-2.62s-.45,3.28-1.65,3.2-.09-3.18-1.29-3.55c-.77-.23-1.15,1.5-2,1.42s-1-2.21-1.94-2.12c-.77.06-.47,2-1.24,1.94-1.08,0-.53-2.63-1.59-2.83-.91-.16-1.2,1.79-2.12,1.77s-1.26-2.22-2.3-2.12c-1.59.16-1.26,4.21-2.83,3.89-1.3-.27.44-3.73-.88-3.89-2-.24-2,3.48-2.71,5.33a26.29,26.29,0,0,0-1.89,6.1A40.52,40.52,0,0,0,84,409.68a17.88,17.88,0,0,0,1.92,6,9.5,9.5,0,0,0,3.4,3.68c1.93,1.05,4.31.95,6.51,1.14.57.05,1.32-.41,1.73,0Z"/><g id="g1642"><path id="path1644" class="cls-17" d="M107.87,391.1c-.2,2.14-.24,4.31-.57,6.44a51.36,51.36,0,0,1-1.61,7.46,91.06,91.06,0,0,1-3.53,8.79,16.84,16.84,0,0,1-1.4,3c-1,1.41-2.13,4.5-3.63,3.65-.33-.18.15-.74.27-1.1.76-2.32,2-4.46,2.83-6.76a58.4,58.4,0,0,0,2.4-7.86c.6-2.88.64-5.85,1-8.76a40.63,40.63,0,0,0,.69-4.62"/><path id="path1646" class="cls-17" d="M101,389.85c-.38,3.9-.68,7.8-1.2,11.69-.3,2.24-.67,4.49-1.11,6.71a62.1,62.1,0,0,1-2.19,9.48c-.37,1-.5,2.47-1.5,2.87-.44.18-1.35,0-1.34-.45,0-2.18,1.22-4,1.47-6,.31-2.49-.18-5,0-7.53.27-3.35,1-6.65,1.6-10,.41-2.35,1.21-4.53,1.37-7.05"/><path id="path1648" class="cls-17" d="M94.12,388.23c-.41,2.18-.93,4.34-1.25,6.53a77.94,77.94,0,0,0-1.16,11.69c0,2.66.84,5.28.91,7.95a27.47,27.47,0,0,1-.24,4c-.06.55.19,1.31-.26,1.63a1.18,1.18,0,0,1-1.32-.23c-1.4-1.23-1-3.61-1.66-5.36a29.82,29.82,0,0,1-1.29-2.82,27.3,27.3,0,0,1-.6-5.86,33.91,33.91,0,0,1,0-5c.21-2.26.86-4.45,1.24-6.68.21-1.25.45-2.49.58-3.76"/></g><g id="g1650"><path id="path1652" class="cls-22" d="M230.12,273c.84,0,.17-.75.25-2.5-39.83.08-79.67-.08-119.5,0,.08,1.83.17,1.17.25,3a100.7,100.7,0,0,0,13.45,2.16c4.2.45,8.43.56,12.66.67,6.41.17,12.82,0,19.23,0,4.84,0,9.67,0,14.51.14,4.43.11,8.86.5,13.3.56,7.44.11,14.91.18,22.34-.32a146.94,146.94,0,0,0,15.5-1.86c2.7-.48,6.75-1.71,8-1.86Z"/><path id="path1654" class="cls-15" d="M109.23,310.36a47,47,0,0,1,3.42,3.52,70,70,0,0,1,4,6.25l9.13-49.65h-9.21Z"/></g><g id="g1656"><g id="g1658"><path id="path1660" class="cls-8" d="M82.62,316.48c-3.33-2.16-5.6-5.13-8.83-7.06-3.07-1.83-6.7-2.52-9.86-4.19-1.74-.93-3.67-1.73-5-3.21a10.05,10.05,0,0,1-1.09-2.29"/><path id="path1662" class="cls-8" d="M69.62,307.48a38.26,38.26,0,0,1-7.43,1.84,16.56,16.56,0,0,1-4.87-.18c-1.38-.26-3.19,0-4-1.41"/></g><path id="path1664" class="cls-15" d="M97.62,290.6A28.32,28.32,0,0,0,91,292.27a39.42,39.42,0,0,0-6.52,4c-2.39,1.84-4.71,4.69-6.74,6.93a34.27,34.27,0,0,0-2.9,3.95c-.48.71-1.34,2.2-1.34,2.2s6.41,6.21,9.63,7.78c1.58-.73,2.41-3.72,3.75-5.49A39.82,39.82,0,0,1,93,305.07a11.58,11.58,0,0,1,3.58-1.75c1.6-.54,3.22-.9,4.4-1.19a9.93,9.93,0,0,0-.91-3.21,34,34,0,0,1-1.68-4.33c-.26-1-.81-4-.81-4Z"/><g id="g1666"><path id="path1668" class="cls-8" d="M97.87,293a42,42,0,0,0-5.19,1.34A18.91,18.91,0,0,0,89.19,296a28,28,0,0,0-4.06,3.14,44.56,44.56,0,0,0-4.17,4.3,70.71,70.71,0,0,0-5.59,7.43"/><path id="path1670" class="cls-8" d="M154.09,489.65c-1.53-3.86-3.21-7.81-3.71-12-.34-2.77,1-5.61.48-8.35-.44-2.36-2.41-4.23-3-6.55-1.17-4.57-.93-9.39-1-14.11-.14-6.13-3-9.58-2.91-14.51a19.6,19.6,0,0,1,2.23-9.32c1.3-2.26,3.53-3.89,5.66-5.38"/><path id="path1672" class="cls-8" d="M149.46,489.07c-1.53-3.86-3.21-7.81-3.71-12-.34-2.77,1-5.61.48-8.35-.44-2.36-2.41-4.23-3-6.55-1.17-4.57-.93-9.39-1-14.11-.14-6.13-3-9.58-2.91-14.51a24.51,24.51,0,0,1,2.48-11.07,25.31,25.31,0,0,1,7.16-7.63"/><path id="path1674" class="cls-8" d="M144,486.32c-1.53-3.86-3.21-7.81-3.71-12-.34-2.77.73-5.57.48-8.35-.38-4.29-2.46-8.29-3-12.55-.33-2.56-.06-3-.17-7.73-.13-6.12-2.63-8.23-2.88-12.5a23.8,23.8,0,0,1,1.08-9.76c1.52-4,4.79-9.09,7.42-10.58"/><path id="path1676" class="cls-8" d="M132,467.57c1-5.11-1.34-8.33-2.21-12.46-.58-2.72-1.65-5.34-2-8.1-.46-3.41.34-6.92-.27-10.3-.69-3.85-4.23-6.42-3.78-11.11.23-2.44,2-3.19,3.22-4.66,2-2.49,4.76-3.52,4.91-8.49.13-4.43-1.66-6-4.18-6.39-1.87-.27-3.64.6-4.31,3.67-.9,4.12,4.3,5.86,4.5,1.25"/><path id="path1678" class="cls-8" d="M123.82,439.43c-.56-5.29-3.9-6.49-4.55-9.6-.52-2.94-.4-6-1.33-8.59-.83-2.2-2.88-3.93-3.29-6.24-.56-3.15.24-6.47,1.27-9.49a14.12,14.12,0,0,1,3-5.29,17.87,17.87,0,0,1,6.17-3.91"/><path id="path1680" class="cls-8" d="M207,453.76c1.27-1.55,2.83-3,3.45-4.9a13.86,13.86,0,0,0,.11-5.88c-.55-4.88-2.17-9.58-3.6-14.28-1.58-5.19-5-10-5.47-15.33-.34-3.95,1.84-3.22,2.71-4.85.78-1.46.49-2.62,2.27-4.43"/><path id="path1682" class="cls-8" d="M213.49,436.26c-1.34-3.69-3.08-8.23-4.48-12.39-1-3.1-2.9-6.09-2.94-9.35a16.81,16.81,0,0,1,2.37-8.4,17.39,17.39,0,0,1,5.75-6.06,7.51,7.51,0,0,1,4.17-1.29,7.76,7.76,0,0,1,4.43,1.9c1.84,1.54,3.82,3.62,4,6a8.15,8.15,0,0,1-3.31,6.51c-1.4,1.05-3.79,2.05-5.17,1-1.58-1.25-1.92-4.83-.31-6.05.93-.71,2.4,1.82,3.32,1.1,1.15-.91.54-3.29-.37-4.38a4.35,4.35,0,0,0-3.05-1.72c-1.6,0-3.06,1.24-4.18,2.38a13,13,0,0,0-4,7.38c.44,4.31,2.47,7.47,4.9,10.83"/><path id="path1684" class="cls-8" d="M220.21,418.41c-2.74.38-2.48,3.23-3.91,4.67-1.68,1.71-3.67,3.12-5.46,4.7"/><path id="path1686" class="cls-8" d="M220.92,422.65c-1.63,1.45-1.68,2.35-2.69,3.37s-2.48,1.72-3.47,2.83-2,3.36-2.5,3.88"/><path id="path1688" class="cls-8" d="M217.56,419.29a10.78,10.78,0,0,1-3.54-4.6c-1-2.78-.09-6.07-.17-8.83"/><path id="path1690" class="cls-8" d="M138.36,482.24c-1.53-3.86-1.35-7.8-2-11.71-.46-2.86-.08-5.74-1-8.6-2.69-8.19-1.83-12.34-2-16.05s-1.46-4.42-2.62-9c-1-4.08-1.81-5.33-1.59-8.06.18-2.26,1.47-4.3,2.37-6.39,1.37-3.13,3.95-5.77,4.59-9.17a10.6,10.6,0,0,0-3.93-10.75,8.17,8.17,0,0,0-8-.86c-3.19,1.57-5.19,6-5.61,9.06-.6,4.33,5.47,10.91,10.48,8"/></g></g></g><g id="text21073"><path id="path21466" d="M36.4,68.28q0,5.77-2.34,8.9a7.38,7.38,0,0,1-6.25,3.13,15.39,15.39,0,0,1-2.5-.27,15.65,15.65,0,0,1-2.62-.59V74h.22a18.9,18.9,0,0,0,2,.85,6.63,6.63,0,0,0,2.4.45,5.63,5.63,0,0,0,2.85-.62,3.72,3.72,0,0,0,1.58-1.77A8.6,8.6,0,0,0,32.38,70c.1-1.14.15-2.46.15-4V40.45H26.38V35.8h10V68.28Z"/></g><g id="text21077"><path id="path21463" d="M326.25,470c0-3.85.78-6.81,2.35-8.9a7.39,7.39,0,0,1,6.25-3.12,21.87,21.87,0,0,1,5.11.85v5.46h-.21a18.74,18.74,0,0,0-2-.86,6.84,6.84,0,0,0-2.4-.44,5.7,5.7,0,0,0-2.86.62,3.73,3.73,0,0,0-1.58,1.77,8.79,8.79,0,0,0-.66,2.89c-.11,1.14-.16,2.45-.16,3.95v25.61h6.15v4.66h-10V470Z"/></g></g></g></g></svg>