<svg xmlns="http://www.w3.org/2000/svg" viewBox="0 0 360 540"><defs><style>.cls-1,.cls-9{fill:#fff;}.cls-1,.cls-10,.cls-11,.cls-12,.cls-13,.cls-14,.cls-15,.cls-16,.cls-17,.cls-18,.cls-2,.cls-4,.cls-5,.cls-6,.cls-7,.cls-8,.cls-9{stroke:#000;}.cls-13,.cls-18,.cls-2,.cls-5{fill:none;}.cls-2{stroke-linecap:square;stroke-width:2px;}.cls-12,.cls-3{fill:#f55;}.cls-14,.cls-4{fill:#fa5;}.cls-11,.cls-12,.cls-15,.cls-17,.cls-18,.cls-4,.cls-5,.cls-6,.cls-7,.cls-8,.cls-9{stroke-linecap:round;stroke-linejoin:round;}.cls-6{fill:#a00;}.cls-7{fill:#005;}.cls-8{fill:#faa;}.cls-10{fill:#aaa;}.cls-15{fill:#55a;}.cls-16,.cls-17{fill:#aaf;}.cls-18{stroke-width:0.99px;}</style></defs><g id="Layer_2" data-name="Layer 2"><g id="svg2"><g id="g21815"><rect id="rect1694" class="cls-1" x="0.5" y="0.5" width="359" height="539" rx="29.94"/><path id="path1704" class="cls-2" d="M50,30H330V410"/><path id="path1706" class="cls-2" d="M310,510H30V130"/><path id="path1708" class="cls-2" d="M30,270H330"/><path id="path1712" class="cls-3" d="M80,40s8,13.33,17.33,22.67S120,80,120,80s-13.33,8-22.67,17.33S80,120,80,120s-8-13.33-17.33-22.66S40,80,40,80s13.33-8,22.67-17.34S80,40,80,40"/><path id="path1714" class="cls-3" d="M30,90a51.6,51.6,0,0,0,6.5,8.5A51.6,51.6,0,0,0,45,105a51.6,51.6,0,0,0-8.5,6.5A51.6,51.6,0,0,0,30,120a51.6,51.6,0,0,0-6.5-8.5A51.6,51.6,0,0,0,15,105a51.6,51.6,0,0,0,8.5-6.5A51.6,51.6,0,0,0,30,90"/><path id="path1716" class="cls-3" d="M280,500s-8-13.22-17.33-22.48S240,460.37,240,460.37s13.33-7.93,22.67-17.19S280,420.66,280,420.66s8,13.22,17.33,22.48S320,460.33,320,460.33s-13.34,7.93-22.67,17.19S280,500,280,500"/><path id="path1718" class="cls-3" d="M330,450a40.48,40.48,0,0,0-15-15,40.48,40.48,0,0,0,15-15,40.48,40.48,0,0,0,15,15,40.48,40.48,0,0,0-15,15"/><g id="g1720"><g id="g1722"><path id="path1724" class="cls-4" d="M169.61,176.9c.84,5.5,3.42,10.59,5,15.93,1.16,3.92,2.1,7.91,3.27,11.82,5-.56,10.06-.94,15.1-1.25,4.29-.25,8.58-.44,12.88-.49,2.93,0,5.86.05,8.79.15a57.64,57.64,0,0,1,6.83.34,6.28,6.28,0,0,0,.31-2.2c.29-2.9.42-5.81.5-8.72a71.84,71.84,0,0,0,0-10.58,44.46,44.46,0,0,0-1.2-5c-2.76-.38-5.49-1-8.27-1.22-4-.29-8,0-11.94.05-4.83,0-9.65,0-14.47.11-2.57.07-5.14.17-7.71.32-3,.19-6,.54-9,.74Z"/><path id="path1726" class="cls-5" d="M171.54,183.27c4.81-.62,9.64-1.17,14.49-1.36,6.3-.26,12.61.16,18.92.23,4.74.05,9.49-.17,14.23.12.92.05,1.83.2,2.74.3"/><path id="path1728" class="cls-6" d="M224.73,188.39a3.08,3.08,0,1,1-6.14,0h0a3.08,3.08,0,1,1,6.14,0Z"/><g id="g1730"><path id="path1732" class="cls-5" d="M175.23,195.11c6.16-1.54,12.05-1.24,18.1-1.44,4-.13,8,0,12,.17a166.48,166.48,0,0,1,17,1.09"/><path id="path1734" class="cls-5" d="M177.5,201.83c9.3-1,18.64-1.69,28-1.91,5.3-.13,10.61.22,15.91.32"/><path id="path1736" class="cls-5" d="M176.63,197.41s1-1.69,1.76-1.61c.69-.17,2.52,4.28,3.23,4.3s2.57-4.83,3.09-4.63c.94-.19,3.57,4.68,4.21,4.08.65.4,3.79-4.53,4.5-4.4.47-.08,2.87,4.14,3.66,4,1,0,2.92-4.16,3.6-4.21s3.72,3.76,4.36,3.74c1,.24,3.84-3.58,4.24-3.56.77,0,3.34,3.79,4,3.71s3.07-3.43,3.86-3.18c.85-.25,4.22,3,4.22,3"/></g><path id="path1738" class="cls-6" d="M179.44,189.54a3.69,3.69,0,1,1-3.69-3.8A3.74,3.74,0,0,1,179.44,189.54Z"/><path id="path1740" class="cls-7" d="M191.66,188a3.25,3.25,0,1,1-6.5,0v0a3.25,3.25,0,1,1,6.5,0Z"/><path id="path1742" class="cls-6" d="M204.26,187.71a3.6,3.6,0,0,1-7.2,0h0a3.6,3.6,0,0,1,7.2,0Z"/><path id="path1744" class="cls-7" d="M215.18,188.24a3.16,3.16,0,1,1-6.32,0h0a3.16,3.16,0,1,1,6.32,0Z"/><path id="path1746" class="cls-8" d="M219.82,68.54a5.48,5.48,0,0,1,.35,2.47c.05.77-.08,1.54,0,2.3a3.43,3.43,0,0,0,.18.89c.25.69.85,1.23,1.05,1.94a9,9,0,0,1,.18,2.83,7.78,7.78,0,0,1-.36,2.3A20.06,20.06,0,0,1,220.17,83a9.11,9.11,0,0,0-.88,2.29,6.44,6.44,0,0,0,0,2.66,16.9,16.9,0,0,0,1.23,2.29,29.81,29.81,0,0,1,1.41,4.25c.23.93.28,1.9.52,2.82s.71,2,1.06,3a18.36,18.36,0,0,1,.87,2.66,6.3,6.3,0,0,1,0,2.29,4.84,4.84,0,0,1-.87,2.13,4.61,4.61,0,0,1-1.94,1.23,3.17,3.17,0,0,1-1.4.18,11.72,11.72,0,0,1-2.63-.88,24.47,24.47,0,0,1,.87,3,7.48,7.48,0,0,1,.18,3,3.51,3.51,0,0,1-1.05,1.76,4.54,4.54,0,0,1-1.94.89,13.08,13.08,0,0,1-2.45.17,6,6,0,0,1,1.75,1.42,4.46,4.46,0,0,1,.35,2.3,3.16,3.16,0,0,1-.35,1.94,1.76,1.76,0,0,1-1.23.53c-.53,0-1.12-.65-1.58-.35s-.42,1.17-.35,1.77.73,1.24.88,1.94a7.49,7.49,0,0,1,0,1.77,18.06,18.06,0,0,1-.18,2.65,9.64,9.64,0,0,1-.7,2.48,6,6,0,0,1-1.4,2.12,11.14,11.14,0,0,1-3.16,1.41,10,10,0,0,1-1.93.71c-.35.06-.78-.22-1.06,0-1.14.89-.64,2.84-1.05,4.24a28.38,28.38,0,0,1-1.58,4.6,29.83,29.83,0,0,1-2.63,3.89,13.82,13.82,0,0,1-1.91,2.49,13.45,13.45,0,0,1-2.48,1.39A11.75,11.75,0,0,1,189.1,152a52.57,52.57,0,0,0-5.1-3.53c-1.31-.83-2.75-1.43-4-2.3a18.48,18.48,0,0,1-2.46-1.95,17.22,17.22,0,0,1-2.28-2.47c-.56-.77-.78-1.77-1.41-2.48s-1.5-.73-1.93-1.41a2.41,2.41,0,0,1-.18-.88,4.73,4.73,0,0,0,.88-1.95c0-.53-.44-1-.7-1.41-.38-.67-.88-1.26-1.23-2a18.84,18.84,0,0,1-1.23-3.18,14,14,0,0,1-.52-2.65,5.55,5.55,0,0,1,0-2,5.14,5.14,0,0,1,1.4-2.65,6.35,6.35,0,0,1,2.46-.88c1.21-.36,2.62-.2,3.69-.89,1.36-.89,2.14-2.48,3-3.89A14.34,14.34,0,0,0,181,112a13.46,13.46,0,0,0,.36-2.83,39.47,39.47,0,0,0,0-4.07,15.89,15.89,0,0,0-.36-3.71c-.21-.76-.92-1.34-1.05-2.12a6.63,6.63,0,0,1,.53-4.24c.55-1,1.84-1.31,2.63-2.12s1-1.7,1.76-2.3c.55-.44,1.42-.39,1.93-.88a7.83,7.83,0,0,0,1.75-3.54,17.35,17.35,0,0,0,.36-3.54c.08-1.17.14-2.35.17-3.53,0-1,0-1.89,0-2.83,0-1.18.08-2.36,0-3.54-.06-.83-.26-1.64-.35-2.47s-.18-2.65-.18-2.65,4.24-.85,6.32-1.42c1.13-.3,2.21-.78,3.34-1.06a39.23,39.23,0,0,1,4-.71c1.34-.17,2.69-.22,4-.35a30.53,30.53,0,0,1,3.16-.35A16.37,16.37,0,0,1,214.91,65a23.59,23.59,0,0,1,3,2.13c.64.46,1.52.72,1.93,1.41Z"/><path id="path1748" class="cls-4" d="M218,78.13c.69.52.24,1.52.19,2.23-.18,1.1-1.07,1.34-2.13,1.62a6.4,6.4,0,0,1-4.87-.79c-1.46-.57-2.88-1.26-4.55-1a12,12,0,0,1-3,.54c-1.37,0-2.51.93-3.84,1.16-1,0-1.25,1.5-2.2,1.29-.22-.66.31-1.41.66-2A4.79,4.79,0,0,1,201.59,79a11.43,11.43,0,0,0,3-.92,12.74,12.74,0,0,1,3.75-.28,24.8,24.8,0,0,1,4.8,2,3.18,3.18,0,0,0,3-.42c.62-.36,1.15-.88,1.74-1.24l.08,0Z"/><path id="path1750" class="cls-9" d="M196.3,88.88c.73-.65,1.93.39,2.9.37a9.21,9.21,0,0,0,2.39-.41c1.5-.43,2.8-1.4,4.3-1.82a8.52,8.52,0,0,1,1.68-.26c.87-.09,1.74-.11,2.61-.13a9.89,9.89,0,0,1,2.55,0c.43.1.75.57,1.2.6.26,0,.58-.45.74-.25.46.54-.64,1.26-1,1.88a8.91,8.91,0,0,1-1.15,1.9,10.73,10.73,0,0,1-3.07,2,11.07,11.07,0,0,1-1.71.57,2.88,2.88,0,0,1-1.06.25,5.36,5.36,0,0,1-2.23-1c-.65-.41-1.13-1.08-1.78-1.51a8.22,8.22,0,0,0-2.2-1.09c-1.14-.33-2.5.19-3.56-.37a1.4,1.4,0,0,1-.62-.75Z"/></g><g id="g1752"><path id="path1754" class="cls-10" d="M211.32,89.81a2.69,2.69,0,1,1-2.67-3.06A2.89,2.89,0,0,1,211.32,89.81Z"/><path id="path1756" class="cls-11" d="M209.83,89.31c0,.52-.31.94-.68.94s-.69-.42-.69-.94.31-.94.69-.94.68.42.68.94Z"/></g><g id="g1758"><path id="path1760" class="cls-5" d="M211.81,103.38a4.21,4.21,0,0,0-1.35,2.4,2.56,2.56,0,0,0,1.53,2.51,6.46,6.46,0,0,0,2.63.58c.52,0,.75-.48.94-.88s.89-.39,1.36-.31a3,3,0,0,1,.6.2"/><path id="path1762" class="cls-4" d="M215.08,109c-.33.43-1.06.23-1.57.39s-1.11.53-1.71.69c-.84.22-1.86-.14-2.6.33-1,.65-1.11,2.12-1.87,3a4,4,0,0,1-1.15,1.05,3.16,3.16,0,0,1-1.22.24,2.54,2.54,0,0,1-1.29-.16c-.36-.21-.37-1-.79-1s-.45.46-.53.75a2.09,2.09,0,0,0,.14,1.18,1.32,1.32,0,0,0,.4.54,5.4,5.4,0,0,0,2.23.81,10.75,10.75,0,0,0,2.89,0,4.49,4.49,0,0,0,1-.21,5.52,5.52,0,0,0,1.5-.74c.61-.45.91.85,1.56-1.64.12-.48.93-.26,1.4-.38a11.91,11.91,0,0,1,1.31-.32c.6-.08,1.22,0,1.83,0s1.11.19,1.51-.12a1.71,1.71,0,0,0,.43-1.31,8.45,8.45,0,0,0-.72-3,3.28,3.28,0,0,0-.54-1.22.86.86,0,0,0-.54-.31,1.38,1.38,0,0,0-.85.32,2.3,2.3,0,0,0-.85,1Z"/><path id="path1764" class="cls-12" d="M218.4,113.63c-.48-.22-.94-.51-1.43-.7s-1.1-.18-1.64-.23c-.7.24-1.42.44-2.11.71-.57.58-1.12,1.19-1.7,1.76s-1.4,1-2.12,1.42l-1.43.54a8.39,8.39,0,0,0-.84-.18c-.12.11-.57.09-.39.3s.19.39.44.37a1.06,1.06,0,0,1,.67.25c.48.36,1,.66,1.5,1a7.1,7.1,0,0,1,1.22,1.29,7.74,7.74,0,0,1,.92,1.36.9.9,0,0,0,.45.49l1.18.85h1.37l.93-.94a13.62,13.62,0,0,0-.09-2.12,3.89,3.89,0,0,0-.44-1.25,3.23,3.23,0,0,0-.56-1c-.71-.34-1.67-.3-1.89-.56a16.18,16.18,0,0,0,3.33-.29,6.65,6.65,0,0,0,.91-.17c.52-.61,1-1.21,1.6-1.79l.12-1.12Z"/></g><g id="g1766"><path id="path1768" class="cls-13" d="M198.35,89l1.43-.44,1.49-.62,1.86-1.63,1.55-.94,2.3-.68,1.49-.25,1.36.18,1.18.44,1.31,1.25,1.18.38,1,.31"/><g id="g1770"><path id="path1772" class="cls-5" d="M219.83,85.38c.09-.49,1,.09,1.49,0s.65-.29,1-.38.77-.39.92-.12-.2.39-.37.5a12.79,12.79,0,0,1-2.05.37c-.35,0-1,0-1-.37Z"/><path id="path1774" class="cls-5" d="M217.36,69.77l.87,1.59,1.06,1.07,1,1.76"/><path id="path1776" class="cls-5" d="M187.38,132.44a6.46,6.46,0,0,0,2.85,2.39c1.88,1,4.07,1.2,6.14,1.66a36.52,36.52,0,0,0,4.63.83,24.19,24.19,0,0,0,3.36,0"/><path id="path1778" class="cls-5" d="M190.1,137.25a22.24,22.24,0,0,0,7,2.11c1,.17,2.06,0,3.09.12s1.95.35,2.93.34a2.85,2.85,0,0,0,.51-.07"/><path id="path1780" class="cls-5" d="M191.7,140.13a24.63,24.63,0,0,0,5.35.9c2,.22,4,0,5.95.35"/><path id="path1782" class="cls-5" d="M192.2,142.75a27.33,27.33,0,0,0,5.63.91c1.47.18,3-.27,4.43.34"/><path id="path1784" class="cls-5" d="M194.07,145.38a58.34,58.34,0,0,0,7.82.25"/><path id="path1786" class="cls-5" d="M195.28,147.31a17.63,17.63,0,0,0,3.46.46c.55,0,1.44,0,1.66,0"/><path id="path1788" class="cls-5" d="M196.55,149.63l2.61.25"/></g></g><path id="path1790" class="cls-14" d="M144.33,94.5c-1,1-1.18,2.74-2.31,3.61-1.35,1-3.26,1-4.86,1.55a9.74,9.74,0,0,0-2.56,1,9.89,9.89,0,0,0-1.54,1.8,8.16,8.16,0,0,1-1.54,1.81c-.82.52-1.94.33-2.81.77a11,11,0,0,0-3.33,2.58,11.13,11.13,0,0,0-2.82,4.9c-.36,1.87.46,3.79.77,5.67a15.1,15.1,0,0,0,.51,2.58c.24.64,1.37,1.2,1,1.8s-1.71-.08-2.56,0a13.44,13.44,0,0,0-3.84.77,18.63,18.63,0,0,0-2.31,1.55,29.73,29.73,0,0,1-3.33,1.81,4.83,4.83,0,0,1-.76.25,42.17,42.17,0,0,1-4.36.52c-.76.09-1.63-.13-2.3.26a5.33,5.33,0,0,0-2,2.83,10.9,10.9,0,0,0-.25,3.87,7.4,7.4,0,0,0,.25,3.09,6.42,6.42,0,0,0,2.56,2.58c.92.57,2.09.58,3.07,1s1.63,1.22,2.56,1.55a5.45,5.45,0,0,0,1.8.26,6.41,6.41,0,0,0,1.79-.26,6.3,6.3,0,0,0,2.3-1c.57-.47.63-1.47,1.28-1.8a1.92,1.92,0,0,1,1.54,0c.85.32,1.36,1.21,2,1.8.92.79,1.66,1.95,2.81,2.32a7.87,7.87,0,0,0,3.84-.26,4.78,4.78,0,0,0,2.31-.77c.58-.5.43-1.58,1-2.06,1-.85,2.79-1.85,3.84-1,.68.52,0,1.71,0,2.57a14,14,0,0,0,0,3.1,8.34,8.34,0,0,0,2.05,4.12,6.37,6.37,0,0,0,2.31,1c.75.3,1.68.26,2.3.78a4.38,4.38,0,0,1,1.28,2.32c.21.83-.22,1.74,0,2.57a3.94,3.94,0,0,0,1,1.81c1,.92,2.53,1,3.59,1.8a5.33,5.33,0,0,1,1.53,1.81c.57,1.18.19,2.69.77,3.87a5.31,5.31,0,0,0,1.79,2.06,6.46,6.46,0,0,0,2.56.77,6.64,6.64,0,0,0,2.31,0,5.88,5.88,0,0,0,3.58-2.58c.54-1.08.35-2.4.52-3.6.09-.69-.27-1.61.25-2.07s1.23.2,1.79,0a5.09,5.09,0,0,0,2.56-2.06,5.53,5.53,0,0,0,.77-3.35c-.09-1.12-1.46-2-1.28-3.1.15-.9,1.13-1.43,1.79-2.06s1.84-.95,2.31-1.8.21-1.89.25-2.84a20.19,20.19,0,0,1,0-2.58c.13-.72.77-1.33.77-2.06s-1-1.37-.77-2.07c.17-.47.94-.41,1.28-.77a3.42,3.42,0,0,0,.9-1.67,4.56,4.56,0,0,0-.26-2.45c-.41-1.13-1.58-1.86-2-3a14.49,14.49,0,0,1-.65-3.22,11.49,11.49,0,0,1-.38-2.84,4,4,0,0,1,.77-2.32c.44-.48,1.19-.51,1.79-.77.81-.35,1.61-.71,2.43-1a11.57,11.57,0,0,0,2.82-1,9.34,9.34,0,0,0,1.92-2.58,24.34,24.34,0,0,0,1.79-3.09,12.59,12.59,0,0,0,1.15-3.23c.27-1.65-.19-3.35-.12-5a18.08,18.08,0,0,0,.25-2.32,10.79,10.79,0,0,0-.77-2.7,9.87,9.87,0,0,1-.89-2.07,4.65,4.65,0,0,1,.38-1.93A6.39,6.39,0,0,1,181.7,94c.41-.44,1.07-.54,1.54-.9s.91-1,1.41-1.42a25.41,25.41,0,0,0,2.43-1.93,8.27,8.27,0,0,0,1.54-2.58A9.21,9.21,0,0,0,189,84.7c.17-2.14-.07-4.3,0-6.45,0-1.33.28-2.66.26-4,0-.91-.18-1.81-.26-2.71-.05-.6-.07-1.2-.13-1.8s-.25-2.07-.25-2.07-2.94.66-4.36,1.16c-1.1.39-2.08,1.07-3.2,1.42-1.32.41-2.76.38-4.09.77a26.41,26.41,0,0,0-4.48,1.81,42.7,42.7,0,0,0-4.1,2.58c-1.51,1-3,2-4.48,3.09-.61.45-1.18,1-1.79,1.42-.87.63-1.81,1.18-2.69,1.8-.7.5-1.34,1.07-2.05,1.55-.91.61-1.92,1-2.82,1.68a23.23,23.23,0,0,0-3.07,2.45,30.06,30.06,0,0,0-2.05,2.44c-.56.69-1.07,1.41-1.66,2.07a11.14,11.14,0,0,1-1.28,1.29c-.67.52-1.57.7-2.18,1.29Z"/><g id="g1792"><path id="path1794" class="cls-5" d="M185.42,69a28.07,28.07,0,0,1,.14,12.73,20.24,20.24,0,0,1-2.25,5.5c-1.55,2.93-4.5,5.13-5.47,8.31s.35,6.82-.11,10.19c-.34,2.44-.48,5.15-1.93,7.14-1.06,1.44-3,2-4.51,2.89-1.16.71-2.58,1.08-3.51,2.08a10,10,0,0,0-2.87,5.88c-.12,2.11,1.91,3.86,2.15,6,.22,1.88-.39,3.76-.66,5.62-.32,2.25,1,5-1.12,6.71-4.54,3.62-3.36,3.39-5.92,4.17-3,.91-6.45.51-9.2,2a9.91,9.91,0,0,0-3.83,3.85,11.29,11.29,0,0,0-1.24,5.63"/><path id="path1796" class="cls-5" d="M169.94,141.9a19.33,19.33,0,0,1-5.63,5.48c-2.36,1.34-5.26,1.33-7.87,2.08-1.77.51-3.76.58-5.26,1.65a7.09,7.09,0,0,0-3,4,6.06,6.06,0,0,0,1,4.91"/><path id="path1798" class="cls-5" d="M165.6,151.61c-3.38,1.42-7.23,1-10.63,2.24-1.31.48-3.12.71-3.68,2-1.08,2.48,1.33,5.46,2,7.88.4,1.45,3.06,1.85,4.35,1.1,1.86-1.1.36-4.59,1.72-6.29,1.1-1.37,5.09-.75,4.66-2.46-.78-3-6.3-.6-9.37.18-1.32.33-.17,3.86,1.19,3.93,1,.06.79-2.37,1.17-2.71"/><path id="path1800" class="cls-5" d="M143.05,151.15c.74-2.35,2.72-3.94,4.71-5.1,2.61-1.53,6-1,8.82-2.06,1.6-.62,3.38-1.2,4.48-2.52a10.27,10.27,0,0,0,2.11-6.09c.06-1.65-1-3.16-1.26-4.79-.32-1.79.22-3.76-.51-5.42-.65-1.49-2.5-2.16-3.25-3.6a5.21,5.21,0,0,1-.72-3.22c.31-1.6,1.78-2.71,2.76-4a17.63,17.63,0,0,1,2.33-2.83c2.28-2,6-2.35,7.69-4.85,1.22-1.78,1.12-4.2,1.29-6.35.21-2.8-1.27-5.75-.4-8.43,1-3.09,4.45-4.79,6.05-7.62a10.85,10.85,0,0,0,1.42-3.82c.4-2.91-.68-5.83-.76-8.78"/><path id="path1802" class="cls-5" d="M182.16,70.39c-.45,2.44,0,4.93-.39,7.36a29.62,29.62,0,0,1-1.87,7.13c-1.3,3-4.26,5.23-5.2,8.39-1.19,4,.8,8.44-.33,12.43a13.37,13.37,0,0,1-3.62,6.26c-2.14,2-6.09,1.39-7.87,3.69a6.64,6.64,0,0,0-1,5.25c.33,1.59,1.82,2.67,2.74,4"/><path id="path1804" class="cls-5" d="M173.65,73.68c.11,2.71.73,5.62-.17,8.2s-3.28,4.77-5.25,6.87-4.79,3.2-6.4,5.52c-1.08,1.55-1.09,3.64-2,5.31-1.43,2.71-3,5.53-5.28,7.51-1.83,1.56-4.6,1.65-6.49,3.14-1.47,1.17-3.22,2.53-3.55,4.38-.54,3,1.69,5.91,2.95,8.7.87,1.92,2.36,3.52,3.15,5.47.65,1.61,1.92,3.44,1.27,5.06-1.13,2.86-4.84,4.07-7.78,4.92-2.2.64-5.06-1.4-6.88,0-.55.42-.36,1.34-.54,2"/><path id="path1806" class="cls-5" d="M170.57,92.64A18.18,18.18,0,0,0,165.65,97c-1.36,1.69-1.9,4-3.22,5.67-3,3.86-6.85,7-10.5,10.19-.84.74-2.24,1-2.61,2.11-.9,2.59.94,5.42,1.76,8s2.59,4.7,3,7.29a12.09,12.09,0,0,1-.46,6.32,7.52,7.52,0,0,1-2.92,3.48c-3.13,2-8.13.05-10.73,2.68-1.62,1.63-1.24,4.44-1.63,6.74"/><path id="path1808" class="cls-5" d="M171.3,99a19.9,19.9,0,0,0-3.81,3c-2.32,2.15-4.18,4.76-6.43,7-1.49,1.49-3.23,2.72-4.68,4.26-1.1,1.16-2.6,2.18-3,3.73s.27,3.5.8,5.15c1,3,3.74,5.39,4.31,8.53a11.85,11.85,0,0,1-.64,6.06A9.15,9.15,0,0,1,155,141c-1.16.86-2.75.84-4.13,1.25-2.11.62-4.52.58-6.33,1.82a9,9,0,0,0-2.65,3.51,20.62,20.62,0,0,0-1,3.42"/><path id="path1810" class="cls-5" d="M169.85,75.68c-.53,2.28-.77,4.69-1.9,6.72-1.67,3-5.73,4.45-7,7.68-.65,1.69,0,4,0,5.44"/><path id="path1812" class="cls-5" d="M162.43,79.87c-.93,2.84-4.25,6.41-5.15,9.25s.61,5-.48,7.73c-.79,2-1.27,4.23-2.7,5.81-2.07,2.3-5.59,2.76-8,4.74-2.64,2.19-6.49,4.3-6.8,7.73-.19,2.06,2.49,3.36,3.18,5.31a8.27,8.27,0,0,1,.61,4.5,5.89,5.89,0,0,1-2.38,3.46c-2.09,1.4-5,.85-7.36,1.56-2.09.61-4.07,1.54-6.09,2.34-2.46,1-5.74.88-7.34,3-.77,1,0,2.27-.44,3.83"/><path id="path1814" class="cls-5" d="M154.46,85.19c-1.58,4.31-1.17,10.17-4,14.19-2.14,3.05-6.19,4.15-9.08,6.5-2.47,2-5.56,3.61-7,6.44a9,9,0,0,0-.71,5.21c.27,2.26,2.32,4.07,2.53,6.34a13.39,13.39,0,0,1-1.09,5.59"/><path id="path1816" class="cls-5" d="M149.39,90.48c-.51,1.52-.42,4-1.47,5.57-3.15,4.86-9.12,7.09-13.51,10.85-1.56,1.33-3.66,2.3-4.57,4.15a14.36,14.36,0,0,0-.8,10.23c.42,1.31,2.25,1.84,2.64,3.15a5.64,5.64,0,0,1-.46,3.82c-.72,1.54-3,3.12-3.48,3.71"/><path id="path1818" class="cls-5" d="M125,122.53a3,3,0,0,1,1.63,3.65c-.7,2.68-4.27,3.53-6.65,4.94-1.49.89-3.6.87-4.74,2.19a4.16,4.16,0,0,0-1,3.3c.32,1.78,2.32,3.06,3.3,4.32"/><path id="path1820" class="cls-5" d="M126.56,125.44c-1.37.36-3.55,0-5.18.57-1.37.52-2.33,1.83-3.64,2.49-2.22,1.11-5.27.69-7,2.44a6.35,6.35,0,0,0-1.68,4.71,8.57,8.57,0,0,0,2.38,4.88,13.69,13.69,0,0,0,3,2.05"/><path id="path1822" class="cls-5" d="M143.09,122.75c1.07,1.49,2.54,4.46,1.65,6.51-.78,1.8-3.31,2.16-5.14,2.82-2.59.93-5.61.39-8.11,1.55-2.12,1-5.07,2.09-5.45,4.4-.23,1.35,1.11,2.61,2.17,3.46.85.69,2,.73,3.08,1.1"/><path id="path1824" class="cls-5" d="M134,139.85c-1-1.78.73-1.91,1.48-2.54,1.55-1.31,3.82-1.37,5.7-2.12,2.09-.84,4.53-1.17,6.21-2.67a6.2,6.2,0,0,0,2-3.49c.18-1.27-.88-2.73-.88-3.74"/></g><g id="g1826"><path id="path1828" class="cls-15" d="M159.78,81.44c2.4-1.72,4.69-3.62,7.17-5.21,2.67-1.35,5.26-2.87,8-4.11,5.82-1.88,11.59-3.9,17.51-5.42A48,48,0,0,1,200.11,65c2.49-.39,4.95-1,7.49-.83,2,.06,4-.25,5.91.44,1.2.36,2.57.38,3.38,1.47l2.57,2.33c.91-1.53,2.25-2.86,2.51-4.69.33-1.25.85-2.48.52-3.79-.16-.8,0-1.9-.36-2.52-4.21-1-8.42-2.19-12.64-3.13-3.22.43-6.48.64-9.67,1.21-3.94,1-7.92,1.87-11.87,2.81-3.07.93-6.07,2.06-9,3.29a38.85,38.85,0,0,0-6.86,2.35c-1.33.59-2.75,1-4,1.71A30.28,30.28,0,0,0,164,70.7c-1.62,2.12-2.34,4.75-3.53,7.12a29.89,29.89,0,0,0-1.37,3.43l.71.19Z"/><path id="path1830" class="cls-5" d="M174.21,67.25a24.71,24.71,0,0,0-3.6,2,10.94,10.94,0,0,0-3.6,4,7.44,7.44,0,0,0-.13,2.5"/><path id="path1832" class="cls-6" d="M166.45,29.82a68.58,68.58,0,0,0-12,5.49c-3.85,2.18-8.11,3.75-11.35,6.87-1.41,1.15-3,2.12-3.46,4a37.18,37.18,0,0,0-3.37,9.42,48.13,48.13,0,0,1-6.67,9.19c-1.56,2.55-3.54,4.9-4,7.94a19.85,19.85,0,0,0-1.11,7.84c1.24,2.06,2.15,4.42,4.4,5.58,1.36.88,2.61,1.85,2.91,3.55a5.54,5.54,0,0,0,4.62,4c2,.46,4,1.4,6,1.3,1.56-.5,3.35-.65,4.21-2.27,2.24-2.62,4.43-5.29,7.34-7.18,1.16-1.25,3-1.58,4.21-2.65,1.88-3.62,3.06-7.55,4.62-11.28,1.67-1.83,3-4.16,4.87-5.68A58,58,0,0,1,179,61.41c4.77-1.46,9.23-3.95,14.25-4.45,4.2-.62,8.29-2,12.44-2.71,4.78.71,9.67,1.18,14.35,2.23,1.28,1.11,2.58,2.06,4.25,1.12a5.34,5.34,0,0,0,4-2.46c1.7-1.83,3.62-3.51,4.26-6,.4-1.53,1.73-3,1.56-4.58a102.15,102.15,0,0,0-3.22-10.27c-2.07-1.74-4.26-3.64-7-4.08l-57.41-.35Z"/><g id="g1834"><path id="path1836" class="cls-5" d="M148.26,44.88c-3.27,2.72-6.72,5.32-9.44,8.62"/><path id="path1838" class="cls-5" d="M154.46,44.63c-5.52,2.51-10.13,6.52-14.76,10.35-1.2,1-2.24,2.18-3.36,3.27"/><path id="path1840" class="cls-5" d="M148,51.5c-3.66,3.15-7.94,5.5-11.51,8.76-.92.83-1.68,1.83-2.52,2.74"/><path id="path1842" class="cls-5" d="M145,57.25a58.57,58.57,0,0,0-14.12,10.83,20.26,20.26,0,0,0-1.77,2.67"/><path id="path1844" class="cls-5" d="M144.78,60.5c-4,2.66-8.66,4.7-11.17,9"/><path id="path1846" class="cls-5" d="M142.55,65.63c-2.6,1.84-5.59,3.46-7.44,6.07a8.12,8.12,0,0,0-.75,2"/><path id="path1848" class="cls-5" d="M151.12,67.38a21,21,0,0,0-4.63,5.38,26.92,26.92,0,0,0-1.58,4"/><path id="path1850" class="cls-5" d="M169.61,50.88C167,54,164,56.77,161.17,59.75c-1.88,2-3.43,4.36-5.59,6.13"/><path id="path1852" class="cls-5" d="M168.86,55.13c-2.13,3.56-5.1,6.43-7.52,9.74-3.07,4.22-5.57,8.85-8.86,12.88-1.1,1.35-2.4,2.5-3.6,3.75"/><path id="path1854" class="cls-5" d="M178.55,51.63c-3.36,4-8.28,6.84-10.76,11.46a9.22,9.22,0,0,0-.54,2.29"/><path id="path1856" class="cls-5" d="M183.89,51.75c-2.64,3.46-5.54,6.68-8.19,10.12"/><path id="path1858" class="cls-5" d="M188.36,49.75a47.71,47.71,0,0,0-8.69,11"/><path id="path1860" class="cls-5" d="M194.93,46c-3.17,3.74-7,7-9.61,11.19a17.25,17.25,0,0,0-1.06,2.31"/><path id="path1862" class="cls-5" d="M199,44.88c-3.82,3.94-7.79,7.81-10.55,12.62"/><path id="path1864" class="cls-5" d="M202.76,45.25c-3.16,3.16-6.82,6-9.38,9.68a11.85,11.85,0,0,0-.8,1.69"/><path id="path1866" class="cls-5" d="M209.08,43c-3.32,3.49-7.36,6.36-10.26,10.23a14.35,14.35,0,0,0-1,1.89"/><path id="path1868" class="cls-5" d="M213.55,41.38a110.36,110.36,0,0,0-10.31,11.43c-.47.65-.82,1.38-1.23,2.07"/><path id="path1870" class="cls-5" d="M216.91,42c-3,3.46-6.64,6.38-9.39,10.06a25.15,25.15,0,0,0-1.29,2.19"/><path id="path1872" class="cls-5" d="M220.88,41.25c-3.22,3.66-6.12,7.58-9.15,11.4l-1.15,1.47"/><path id="path1874" class="cls-5" d="M224.11,42.25c-3.71,3.87-8.16,7.28-9.81,12.62"/><path id="path1876" class="cls-5" d="M224.61,46.63c-2.6,2.5-5.73,5.21-6.21,9"/><path id="path1878" class="cls-5" d="M229.69,47.75c-2,3.46-4.1,7.23-7.7,9.25"/><path id="path1880" class="cls-5" d="M155.34,37.75c3-.61,5.49-2.24,8.2-3.45,3.09-1.37,6.08-2.92,9.18-4.3"/><path id="path1882" class="cls-5" d="M167,34.75a42.6,42.6,0,0,0,12.16-4.25"/><path id="path1884" class="cls-5" d="M182.9,34c3.23-1.92,7-2.23,10.18-4.25"/></g><path id="path1886" class="cls-6" d="M55.5,269.5s.85-9.65,1.4-14.46c.41-3.55.81-7.1,1.4-10.61.49-2.85,1.15-5.66,1.76-8.49.56-2.59,1.13-5.19,1.76-7.77.54-2.25,1-4.53,1.75-6.72.29-.85.83-1.61,1.05-2.48.62-2.41.4-5,.71-7.42a44.54,44.54,0,0,1,1-6.72c.74-2.59,2.14-4.94,3.16-7.43,1.21-2.93,2.24-5.93,3.51-8.83,1.42-3.24,2.88-6.45,4.57-9.55,2.24-4.13,4.84-8.06,7.37-12,1.14-1.79,2.51-3.43,3.51-5.3,1.14-2.14,1.2-4.91,2.81-6.72s4.3-2.22,6.32-3.54,3.5-3.23,5.62-4.24,4.88-.64,7-1.77c1.1-.58,1.72-1.86,2.81-2.47,1.39-.78,3.17-.64,4.56-1.42a14.65,14.65,0,0,0,2.46-2.12,29.41,29.41,0,0,0,2,2.33c1.6,1.57,3.81,2.49,5.21,4.25,1.27,1.6,1.6,3.79,2.73,5.5,1.27,1.92,3.19,3.33,4.47,5.25A71.5,71.5,0,0,1,139.69,167c1.75,3.84,3.2,7.81,4.72,11.75,1.12,2.9,2.12,5.84,3.23,8.75s2.47,5.77,3.47,8.75c1.1,3.25,1.86,6.61,2.79,9.91,1,3.7,2.16,7.38,3.17,11.09.82,3,1.62,6,2.34,9s1.35,6.24,2,9.37c.55,2.69,1.15,5.38,1.62,8.09.39,2.24.65,4.5,1,6.75.24,1.58.54,3.16.75,4.75s.23,3.18.49,4.75c.19,1.1.75,3.25.75,3.25s-8.27.88-12.42,1c-4,.12-7.94-.33-11.91-.25-2.66.05-5.29.42-8,.5-2.07.06-4.14-.16-6.2,0-1.09.08-3.23.5-3.23.5a18.05,18.05,0,0,0-1.24-3.75c-.75-1.27-2-2.11-3-3.25a41.32,41.32,0,0,1-3.48-4.75c-.38-.64-.6-1.37-1-2-.22-.36-.33-1-.75-1-.87,0-1.3,1.23-1.73,2a6.79,6.79,0,0,0-.75,2.25c-.17,1.07.22,2.19,0,3.25a13.14,13.14,0,0,1-1.49,3.5c-.93,1.75-2.39,3.2-3.23,5a24.19,24.19,0,0,0-1,3.25Z"/><path id="path1888" class="cls-5" d="M97,161.5a68.66,68.66,0,0,1,7.92,6.33,62.44,62.44,0,0,1,7.36,8.95,58.27,58.27,0,0,1,6.56,12,48,48,0,0,1,2.91,12.8,136.78,136.78,0,0,1,1,14.14,73.19,73.19,0,0,1-.86,10.33,22.15,22.15,0,0,1-2.83,8c-.56,1-2.58.87-2.73,2-.46,3.53,1,7.16.43,10.67a20.09,20.09,0,0,1-1.42,3.83"/><g id="g1890"><path id="path1892" class="cls-15" d="M102,165.75c-1.41,3-2.37,6.22-3.72,9.25-1.8,4-4.12,7.82-5.83,11.89s-3,8.38-4.43,12.57c-1.42,4-3,8-4.28,12s-2.19,8.27-3.16,12.43-1.83,8.38-2.7,12.58c-.68,3.3-1.5,6.56-2,9.9-.55,4-.74,8-1,12-.19,3.7-.13,7.58-.27,11.11h14.9c.3-8,.34-16.39,1.21-24.53.35-3.21.92-6.4,1.58-9.56,1.63-7.76,3.65-15.44,5.88-23,1.26-4.3,2.69-8.55,4.24-12.75,2.58-7,6.6-13.42,8.44-20.62.29-1.15,1.95-2.55.39-3.53-2.62-3-5.21-6-8.1-8.72-.39-.37-.82-.67-1.23-1Z"/><path id="path1894" class="cls-15" d="M125.67,144.25c2.42.09,5.38-.13,6.57-2.62a2.61,2.61,0,0,1,3.67-1.8c1.26.65,0,3,.34,4.37a8.43,8.43,0,0,0,3.33,5.89c1.33.66,3.46.81,4.11,2.2s.33,3.37,1.07,4.77c1.47,1.8,4.35,2.14,5.37,4.48,1.26,1.62.74,4,2.26,5.49,1.79,2,4.8,1.1,7.17,1a8,8,0,0,0,2.35-5.61c0-2.61,1.35,1.58,2,2.27,2.75,5.1,4.67,10.63,6.89,16,3.89,13.45,8.09,26.85,10.49,40.67,1.07,5.72,2.55,11.61,2.75,17.45.45,6.82.82,6.22,1.47,13-.57,1.28,0,9-.34,11-5.94,0-13.29-.07-19.17.93-1.16-7.89-2.7-16.18-4.2-24.24-.78-4.21-1.44-6.93-2.51-12.58-2.07-7.28-3.74-13.43-5.49-21.57A419.57,419.57,0,0,0,139,165.11a26.8,26.8,0,0,0-4.51-8.24c-3-4.08-5.5-8.54-8.73-12.48Z"/></g><g id="g1896"><path id="path1898" class="cls-5" d="M74.65,201c-1.17,2-2.38,3.91-3.54,5.88-1.3,2.76-1.66,2.74-2.86,5.55a34.37,34.37,0,0,1-2,3.89c-.91,1.06-1.57,3.62-2.22,4.68"/><path id="path1900" class="cls-5" d="M113.63,204.25a58.55,58.55,0,0,1,1.21,6.53c.21,3.57-.61,7.13-.71,10.71a60.1,60.1,0,0,0,.09,9.2,20.47,20.47,0,0,0,1.08,4.43,16.48,16.48,0,0,0,.81,1.63"/><path id="path1902" class="cls-5" d="M104.2,230c.82,2.23,1.34,4.59,2.37,6.74.85,1.77,2.1,3.32,3.11,5a22.78,22.78,0,0,1,2.09,3.6,23.09,23.09,0,0,1,1,5.24c.1.8.09,1.61.14,2.41"/><path id="path1904" class="cls-5" d="M103.45,235a98.1,98.1,0,0,1,2.24,10.28c.19,1.65-.14,3.35.13,5,.43,2.66,1.68,5.11,2.35,7.73"/><path id="path1906" class="cls-5" d="M97,244.25c.7,2,1.07,4.21,2.07,6.11,1.12,2.13,3.09,3.7,4.31,5.77a19.78,19.78,0,0,1,2.34,5.15,30.29,30.29,0,0,1,.46,6.54c0,.22,0,.45,0,.68"/><path id="path1908" class="cls-5" d="M94.76,255.75a37.46,37.46,0,0,0,1.47,4.72c1,2,3,3.48,4,5.53a24.52,24.52,0,0,1,1,3.5"/><path id="path1910" class="cls-5" d="M170.31,194.58a22.48,22.48,0,0,1-1,4.35c-.79,1.71-2.35,2.94-3.42,4.49"/><path id="path1912" class="cls-5" d="M172.06,198.65c-1.71,2.95-2.82,6.32-5,8.93a11.11,11.11,0,0,1-1.65,1.32"/><path id="path1914" class="cls-5" d="M173.65,203.42c-1.76,2.87-3.75,5.58-5.53,8.43-1.36,2.17-2.7,4.34-4,6.6"/><path id="path1916" class="cls-5" d="M174.35,207.31c-2.62,4.59-5.37,9.1-8.16,13.59-1.12,1.79-2.29,3.55-3.43,5.32"/><path id="path1918" class="cls-5" d="M175.76,211.55c-1.26,2-2.39,4.08-3.71,6-1.48,2.19-3.23,4.18-4.71,6.37-1.19,1.76-2.18,3.66-3.35,5.44"/><path id="path1920" class="cls-5" d="M175.76,215.79c-1.76,2.29-2.4,5.07-3.45,7.66-.35.85-.55,1.76-.94,2.59"/><path id="path1922" class="cls-5" d="M176.63,220.21c-2.19,3.85-3.28,8.19-5.2,12.15-1.27,2.63-2.94,5-4.16,7.69-.39.85-.66,1.74-1,2.61"/><path id="path1924" class="cls-5" d="M177.16,225.69c-1.6,4.25-3,8.59-4.87,12.72-.91,2-2.13,3.85-3.12,5.82a35.61,35.61,0,0,0-1.62,3.42c-.17.45-.27.92-.4,1.37"/><path id="path1926" class="cls-5" d="M178.91,231.35c-2.16,5-3.9,10.27-6.4,15.14-1,2-2.41,3.76-3.47,5.72-.31.58-.55,1.18-.83,1.77"/><path id="path1928" class="cls-5" d="M180,235.77a96.82,96.82,0,0,1-3.39,9.56c-1.66,3.63-4.38,6.73-5.92,10.42a38.47,38.47,0,0,0-1.23,4.42"/><path id="path1930" class="cls-5" d="M180.31,243c-1.71,3.76-3.21,7.63-5,11.33a71,71,0,0,1-3.91,7.23"/><path id="path1932" class="cls-5" d="M181,249.38A42.75,42.75,0,0,0,178,256.1c-.74,1.8-1.47,3.61-2,5.48"/><path id="path1934" class="cls-5" d="M181.72,254a14.57,14.57,0,0,0-1.75,5,8.3,8.3,0,0,0,0,1.41"/><path id="path1936" class="cls-5" d="M128.88,215.62c-.48,2.65-.49,5.41-1.34,8a21.9,21.9,0,0,1-4,7.84c-.91,1-2.27,1.48-3.4,2.22"/><path id="path1938" class="cls-5" d="M135.38,222c-1.44,2.29-2.58,4.77-4,7.06a59.58,59.58,0,0,1-3.82,5.57c-.93,1.17-1.65,2.77-3,3.28-1.7.62-3.72.05-5.37-.67a1.29,1.29,0,0,1-.25-.21"/><path id="path1940" class="cls-5" d="M135.56,227.46c-1.47,1.7-2.78,3.52-4.14,5.29-1,1.35-1.75,3-3.06,4.08a13.44,13.44,0,0,1-3,1.41"/><path id="path1942" class="cls-5" d="M149.24,229.94a48.29,48.29,0,0,1-5.7,2.32c-1.21.31-2.57-.1-3.71.41a9.19,9.19,0,0,0-2.91,2.62,5.72,5.72,0,0,0-.32.48"/><path id="path1944" class="cls-5" d="M132.75,235.06c-1.28,1.18-2.3,2.72-3.81,3.59a14.4,14.4,0,0,1-4.21,1.23c-.31.07-.63.09-.94.13"/><path id="path1946" class="cls-5" d="M121.5,242.31c2.24.56,4.4,1.54,6.68,1.94a16,16,0,0,0,5.45.38c1.52-.26,2.77-1.4,4.24-1.84,3-.88,6.21-.79,9.24-1.53,1.83-.46,3.52-1.48,5.38-1.78a21.69,21.69,0,0,1,3.42,0"/><path id="path1948" class="cls-5" d="M123.61,247.26a111.31,111.31,0,0,0,10.06,8.62c2.18,1.57,4.37,3.3,6.92,4.12a14.13,14.13,0,0,0,5.22.47,19.72,19.72,0,0,0,5.36-1.19,24.58,24.58,0,0,0,2.81-1.41"/><path id="path1950" class="cls-5" d="M119.93,245a79.1,79.1,0,0,0,5.12,6.53,71.09,71.09,0,0,0,9.85,7.93,24.17,24.17,0,0,0,4.77,2.93,13.77,13.77,0,0,0,4.39,1,32,32,0,0,0,8.42-.94,23.72,23.72,0,0,0,5.58-1.84,31.24,31.24,0,0,0,3.82-2.68"/><path id="path1952" class="cls-5" d="M129.76,248.32c2.46.71,4.81,2.14,7.37,2.12,3.22,0,6-2.58,9.26-2.81,1.83-.13,3.61.93,5.44.83a23.53,23.53,0,0,0,4.61-1.2"/><path id="path1954" class="cls-5" d="M134.49,252.39c2.58,1.41,4.87,3.6,7.73,4.24a11.14,11.14,0,0,0,4.76-.3,46.62,46.62,0,0,0,8.16-3.11c1-.42,1.92-.91,2.88-1.36"/><path id="path1956" class="cls-5" d="M140.64,251.86a44.12,44.12,0,0,0,7.36-.37,57.25,57.25,0,0,0,6-1.58"/><path id="path1958" class="cls-5" d="M119.58,248.14c1.89,2.41,3.78,4.84,5.88,7.06a60.26,60.26,0,0,0,5,4.62c.74.63,1.54,1.17,2.31,1.75"/><path id="path1960" class="cls-5" d="M118.17,249.38c1.4,2.17,2.78,4.36,4.37,6.39a23.72,23.72,0,0,0,3.76,4.17A30.59,30.59,0,0,0,132,263"/><path id="path1962" class="cls-5" d="M118.87,240l1.23,2.3,1.76,3,2.1,1.94"/></g></g><g id="g1964"><path id="path1966" class="cls-16" d="M263.83,61.5c-3.05,2-6.51,3.47-9.26,5.88A47.15,47.15,0,0,0,245.74,78c-3,4.84-5,10.27-6.89,15.64a52.35,52.35,0,0,0-2.52,9.17,67.36,67.36,0,0,0-.69,13.24,45.89,45.89,0,0,0,1.4,10.45,62.91,62.91,0,0,0,13.14,23.3c2.45,2.7,5.46,4.83,8.19,7.25L271,140.75c-1.3-2.38-2.81-4.77-3.13-7.44a14.29,14.29,0,0,1,1-6.28,10.26,10.26,0,0,1,2.61-4.61c1.82-1.54,4.36-2.8,6.71-2.42,2,.32,2.95,2.84,4.75,3.73a15,15,0,0,0,4.2,1.06c2,.32,4.31,1.6,5.95.46,1.18-.82.14-3.21,1.21-4.18,1.44-1.32,3.83-1.39,5.75-1.07a7.44,7.44,0,0,1,4,2.25c1.43,1.49,3.13,3.22,2.87,5.51,0,1.32.22,4,1.92,2.28,2.44-.77,3.7-3.1,4.68-5.22a15.65,15.65,0,0,0,1-7.07,14.67,14.67,0,0,0-1.16-5.52,15.4,15.4,0,0,0-4.26-5.61c-1.5-1.2-3.52-1.51-5.21-2.4a11.38,11.38,0,0,1-3.34-2c-.87-.94.54-3.84-1.67-3.44-1.9-.45-3.64-1.34-5.54-1.71a21.73,21.73,0,0,0-4.41-.39c-2,0-4.07-.11-5.86.58-1.65,1-3.13,2.65-5,2.94A8.47,8.47,0,0,1,272.61,99a12.52,12.52,0,0,1-5.18-5.78,8.25,8.25,0,0,1-.19-5.13A11.45,11.45,0,0,1,270,83.73,32.89,32.89,0,0,1,274,80.26L263.83,61.51Z"/><path id="path1968" class="cls-17" d="M286.88,30.89c-.31,4.85-.36,9.74-.85,14.57-1.71,9.37-3.45,18.74-5.57,28-1.15,5.8-2.92,11.45-4.46,17.16A14.46,14.46,0,0,0,280.66,89a13,13,0,0,1,4-.71,35.93,35.93,0,0,0-.75,8.53,158,158,0,0,0-.77,17.27,77.11,77.11,0,0,0-.09,10.08c0,1.67,1.79,1.07,2.93,1.29a19.91,19.91,0,0,0,6.62-.42c-.31-7.89-.22-15.8-.27-23.7-.34-3,0-4.08-.14-7.84.1-1.45-.18-4-.08-5.46,1.2.63,2.08.6,3,1.35,1.29,1.28,3.34,1.15,5,1.86,1.79,1,.27-1.3.19-2.17-1.39-4.4-2.74-8.84-3.81-13.32a374.36,374.36,0,0,1-4.63-41.44c-.2-1.11.1-2.76-.41-3.53l-4.56.13Z"/></g><path id="path1970" class="cls-13" d="M284.44,88.75a45.91,45.91,0,0,0,1.3-7.45,92.62,92.62,0,0,1,1.49-10.36,56.23,56.23,0,0,0,1.21-8.15c.5-5,.7-10,1-15,.16,5.37.29,10.75.27,16.13.39,3.36.18,7.74,1,11,.34,3.37.71,4.67,1,7.21,0,.79.74,5,.74,5.74"/><g id="g1972"><path id="path1974" class="cls-12" d="M255.64,100.25a34.34,34.34,0,0,0,4.3,5.67,34.37,34.37,0,0,0,5.63,4.33,34.37,34.37,0,0,0-5.63,4.33,34.34,34.34,0,0,0-4.3,5.67,35,35,0,0,0-4.3-5.67,34.37,34.37,0,0,0-5.63-4.33,34.37,34.37,0,0,0,5.63-4.33,35,35,0,0,0,4.3-5.67"/><path id="path1976" class="cls-6" d="M283.44,125.25l-2.23.5a4.08,4.08,0,0,0-.08,2.1,24.24,24.24,0,0,1-2.65,2.9,8.22,8.22,0,0,0-.15,3.72c-.07.85.55,1.3,1.14,1.78a9.31,9.31,0,0,0,.13,3.37c-.82.68-1.93,1.09-2.55,1.95a20.41,20.41,0,0,0-2.37,4.91,7.47,7.47,0,0,0-.73,3.38c-.16,5.58-.24,11.18-.06,16.76a45.52,45.52,0,0,1-.32,7.2c-.33.91,1,.82,1.53,1.21,1.09,0,0,1.52.88,1.55a2.57,2.57,0,0,1,1.95,1c.43.79,1.29.5,2,.55s1,1.05,1.55,1.49c.46.87,1.12-.48,1.68-.69.58-.72,1.17.53,1.75.75.62.89,1.2.26,1.77-.31.57-.93,1.18-.33,1.79.21.58.85,1.25-.16,1.89-.44.14-.72.13-1.62,1.12-1.18.75,0,1.19,1.09,1.93.38.56-.49.87-1.26,1.78-1.14s1.24-.47,1.27-1.32c.58-.23,1.8.09,2-.5,0-10.63-.47-16.63-.49-27.25.45-3.49-2-7.53-3.31-8.89-.38-.52-.1-1.43-.1-2.1-.07-1.19,1.33-1.89,1.1-3.12a7.4,7.4,0,0,0-.55-3.6,27.92,27.92,0,0,1-1.46-2.66c0-.65.81-1.76-.22-1.86-1.65-.65-3.49-.34-5.23-.5l-4.76-.14Z"/><g id="g1978"><path id="path1980" class="cls-5" d="M281.46,128.25a53.81,53.81,0,0,0,6,.24c2.16,0,4.31-.32,6.46-.49"/><path id="path1982" class="cls-5" d="M279.47,136.25c3.28,0,6.55.1,9.83.12,1.81,0,3.63,0,5.44,0"/><path id="path1984" class="cls-5" d="M280.09,139.38c3.35.09,6.69.17,10,.1,1.33,0,2.66-.13,4-.23"/><path id="path1986" class="cls-5" d="M284.44,128.88c-.5,1.76-1.5,2.18-2.77,2.75s-2.53,2.74-2.94,3.37"/><path id="path1988" class="cls-5" d="M289.4,128.38a7.6,7.6,0,0,1-3.88,4.16c-1.49.78-2.21,2.73-2.82,3.34"/><path id="path1990" class="cls-5" d="M292.25,129a12.5,12.5,0,0,1-1.14,2.91c-.55.73-1.21.9-2.18,1.66a8.09,8.09,0,0,0-2,2.18"/><path id="path1992" class="cls-5" d="M294.74,130.75a9.94,9.94,0,0,1-1.15,2.41c-.7,1-2.22,1.19-2.58,2.59"/><path id="path1994" class="cls-5" d="M279.59,139.75a32.34,32.34,0,0,0-2,5.09,34.34,34.34,0,0,0-.86,6.31c-.27,4.19.16,8.39,0,12.59q-.15,4.83-.61,9.66c-.07.62-.17,1.23-.25,1.85"/><path id="path1996" class="cls-5" d="M278,177.38a60.43,60.43,0,0,0,1.53-7.5,68.09,68.09,0,0,0,.17-7.56c0-3.06-.19-6.13-.21-9.19,0-2.82-.47-5.69.07-8.45a26.3,26.3,0,0,1,1.87-4.7l0-.1h0"/><path id="path1998" class="cls-5" d="M280.47,178.13a58.47,58.47,0,0,0,1.35-6.22c.6-6-.36-12-.32-18,0-3.54-.36-7.14.33-10.6a11.15,11.15,0,0,1,1.24-3.25"/><path id="path2000" class="cls-5" d="M283.81,178.5c.18-5,.32-10,.25-15-.05-3.33-.55-6.66-.46-10,.06-2.22.73-4.41.67-6.64,0-1.44-.75-2.82-.68-4.26a14.49,14.49,0,0,1,.72-2.77"/><path id="path2002" class="cls-5" d="M286.92,178.38c.12-6,.27-12,.19-18-.05-3.08-.17-6.17-.37-9.24-.19-2.88-1.12-5.75-.81-8.62a19.23,19.23,0,0,1,.87-2.75"/><path id="path2004" class="cls-5" d="M290.52,177.25c0-6.59.18-13.18.05-19.78-.05-2.65,0-5.32-.32-8-.22-2-1-3.87-1.08-5.86a30.22,30.22,0,0,1,.35-3.9"/><path id="path2006" class="cls-5" d="M294.49,176.75c-.22-2-.64-3.95-.73-5.95-.13-3,.39-6,.32-9-.11-5.27-.7-10.52-1.25-15.77-.16-1.49-.48-3-.58-4.46,0-.6,0-1.21,0-1.82"/><path id="path2008" class="cls-5" d="M296.47,175.25c-.19-3.86-.37-7.72-.45-11.59-.12-5.72.84-11.51,0-17.16a42.85,42.85,0,0,0-2.24-7"/></g><path id="path2010" class="cls-4" d="M280,178.63l.12,10.25c1.37.34,2.72.73,4.09,1.05s2.54.46,3.8.72l1.67.61q-.24-5.88-.49-11.75l-1.87-1.25c-.29.7-.58,1.41-.86,2.12h-1.25l-1-.87.37-.75-.87-.25-.86,1.5H282l-.75-1.5-1.24.12Z"/><path id="path2012" class="cls-8" d="M279.87,225.49a7.13,7.13,0,0,1-2.21-1.12c-1.87-2-2.45-4.86-3.37-7.42-.66-1.85-.79-3.87-1.51-5.69a27.76,27.76,0,0,0-2.65-4.92c-.63-1-1.44-1.78-2.13-2.7-.88-1.16-2.12-2.15-2.57-3.54a5.63,5.63,0,0,1,0-4,4.27,4.27,0,0,1,2.84-2.41c.79-.14,1.56.45,2.28.81a14.87,14.87,0,0,1,3.66,2.51c.53.54,1.82,4,1.3,1.88a25.92,25.92,0,0,1,0-5.16c.19-1.18.19-2.69,1.15-3.4,2.76-2,6.86-.77,10.2-.14a22.28,22.28,0,0,1,9.26,3.76,15.64,15.64,0,0,1,4.41,5.52,35.34,35.34,0,0,1,2.95,11.11,39,39,0,0,1,.08,6.92c-.15,3.43-.58,6.85-1,10.27-.24,2-.67,4-.86,6.06-.21,2.21-.05,4.45-.3,6.65a21.67,21.67,0,0,1-.51,2.71,9.93,9.93,0,0,1-2.7,2.27,18.93,18.93,0,0,1-5.94,2.4,11.24,11.24,0,0,1-4,.1l.37-19.88a52,52,0,0,1-7.3-2.12c-.39-.28-.74-.17-1.36-.51Z"/><g id="g2014"><path id="path2016" class="cls-5" d="M275.37,195.75a5,5,0,0,0,3.14,2.42c3.45,1.16,7.31-.67,10.9-.07.77.13,2.41,0,2.22.77s-1.63-.28-2.45-.37a56.56,56.56,0,0,0-6.63-.38c-1.7,0-3.5-.22-5.07.44a5.76,5.76,0,0,0-2.73,2.31,4.74,4.74,0,0,0-.45,2,4.16,4.16,0,0,0,.05,1.41c.32,1.26.71,2.71,1.77,3.45,1.56,1.1,3.76.59,5.66.69,3,.15,6-.45,9-.16.55.05,1.69-.21,1.62.35-.12,1-2-.06-3.07-.1-1.64-.08-3.29-.34-4.94-.27-2.77.11-5.85-.28-8.25,1.12a2.49,2.49,0,0,0-1.24,1.62,7.64,7.64,0,0,0,2.16,6.05,5.18,5.18,0,0,0,2.84,1.16,30.92,30.92,0,0,0,8.1.12c1.15-.08,3.07-.83,3.44-.49s-2.23.4-3.36.52a31.6,31.6,0,0,1-4.56.24c-.79,0-1.57-.37-2.37-.34a4.49,4.49,0,0,0-2.44.49,3.91,3.91,0,0,0-1.58,2.43,4.41,4.41,0,0,0,.58,2.83c.28.51,1.15,1,1.24,1.21"/><path id="path2018" class="cls-5" d="M288.91,228.13a12.66,12.66,0,0,0,2.92.06,6.25,6.25,0,0,0,2.29-.44"/><path id="path2020" class="cls-5" d="M288.75,231.94a16.68,16.68,0,0,0,3.38.43,10.11,10.11,0,0,0,2.64-.25,17.2,17.2,0,0,0,3.25-1.46c.32-.16.62-.35.94-.53"/><path id="path2022" class="cls-5" d="M288.91,234.38a30.75,30.75,0,0,0,4.19.45,9.44,9.44,0,0,0,4.65-1.1,6,6,0,0,0,2-1.1"/><path id="path2024" class="cls-5" d="M288.53,236.75a37.09,37.09,0,0,0,4.16.71,14.34,14.34,0,0,0,4.57-.91c.87-.31,1.65-1,2.44-1.3"/><path id="path2026" class="cls-5" d="M288.66,239.5a9.29,9.29,0,0,0,2.85.62,17.3,17.3,0,0,0,5.47-.93,12.15,12.15,0,0,0,2.35-1.25"/><path id="path2028" class="cls-5" d="M288.78,242.38c1.33-.09,3,.32,4.5.11a16.53,16.53,0,0,0,4.53-1.45,11.18,11.18,0,0,0,1.27-.79"/><path id="path2030" class="cls-5" d="M288.66,245.13a21.45,21.45,0,0,0,4.81,0,21.79,21.79,0,0,0,5.18-2.23"/></g><path id="path2032" class="cls-15" d="M206.23,136.75c2.5,4.35,5.58,8.41,7.61,13a89.32,89.32,0,0,1,5.24,16.79,126.54,126.54,0,0,1,3,22.5,96,96,0,0,1-.75,13.23,254,254,0,0,1-3.68,25.49,139.64,139.64,0,0,1-5.45,20.37,62.66,62.66,0,0,1-5.51,11.61c-.44,2,.25,3.05,2.37,2.8,5.23.49,10.5.26,15.75.45,2.57-5,5.13-10.05,7.28-15.26a112,112,0,0,0,5.33-15.29c2-7.81,2.87-15.87,3.75-23.88a149.22,149.22,0,0,0,1.27-20.25A79.33,79.33,0,0,0,241,175.47a87.17,87.17,0,0,0-4.41-16.18,60.9,60.9,0,0,0-6.52-11.7,37.39,37.39,0,0,0-5.44-6.4q-6.4-1.89-12.86-3.6c-1.45-.38-2.65-1.88-4.36-1.08l-1.15.24Z"/><path id="path2034" class="cls-6" d="M225,141.52c3.72,3.16,9,6.43,12.74,9.55,2.44,4.47,5.26,7.65,8,11.93,1.86,3.93,5.59,6.8,6.16,11.36,1.72,5,.22,11.09,4,15.37,2.29,4.86,8.53,7.85,8,13.66-.25,4.85,3.72,8.28,5.9,12.2,3.27,3,7.09,5.31,8.8,9.69,2.49,1.33,1.26,4,1.34,6.22.19,2.62-.37,4.74-2.86,6.06-3.86,4.5-.07,10.37,3.12,13.5-.17,6-.33,12.46-.49,18.44-8.85.09-17.71-.08-26.56,0-1-3.9-3.16-7.2-7.24-7.81-2.64-1.81-4.6-6.57-4.7-8.36-3.45,3-5.71,9.32-8.93,10.83-2.58-1.93-9.64.93-5.82-3.88,4.44-10,10-19.77,11.76-30.76,2.25-14.68,4.94-29.46,4.46-44.37-1.48-9.56-2.78-19.36-6.64-28.3-2.74-5.54-7-10.61-11-15.33Z"/><g id="g2036"><path id="path2038" class="cls-5" d="M243.81,167.08l2.66,11.26,2.4,9.65,1.06,13.14-.53,11.8-.53,13.14L246.74,240l-2.4,8-3.19,5.63"/><path id="path2040" class="cls-5" d="M210,260.91c8.78-3.3,15.21-10.23,21.83-16.62"/><path id="path2042" class="cls-5" d="M215.86,261.72a51,51,0,0,0,12.51-8.31"/><path id="path2044" class="cls-5" d="M221.19,261.45l4.26-2.41"/><path id="path2046" class="cls-5" d="M209.47,258c11.16-3.81,17.46-13.4,24.76-22"/><path id="path2048" class="cls-5" d="M212.13,252.6c10.38-5.36,16.77-15.68,24.76-23.86"/><path id="path2050" class="cls-5" d="M214.79,247.24c9-5.12,14.93-15,22.37-22.25"/><path id="path2052" class="cls-5" d="M215.86,242.15c10-4.33,16.12-14.15,21.83-23.06"/><path id="path2054" class="cls-5" d="M217.72,237.05c10.28-4.66,16.18-15.78,21-25.47"/><path id="path2056" class="cls-5" d="M218.79,232.5c10.92-5.43,15.71-18.51,21.3-28.69"/><path id="path2058" class="cls-5" d="M219.86,227.94c11.09-7.1,15.25-21.45,21-32.71"/><path id="path2060" class="cls-5" d="M220.65,222.58c10.37-7.05,14.33-20.53,19.16-31.71l1.08-3.14"/><path id="path2062" class="cls-5" d="M221.45,217C233,209,236,192.82,240.35,180.22"/><path id="path2064" class="cls-5" d="M223.05,211.05c9.68-9.21,13.14-23.67,15.7-36.46"/><path id="path2066" class="cls-5" d="M237.16,169.49c-1.08,12.3-4.11,24.61-12.52,34"/><path id="path2068" class="cls-5" d="M224.38,195c9.54-9.17,9.71-22.57,11.18-34.85"/><path id="path2070" class="cls-5" d="M232.63,156.62a70.6,70.6,0,0,1-2.13,19.57"/><path id="path2072" class="cls-5" d="M229.71,152.33c0,4.39.37,8.71-1.33,12.87"/><path id="path2074" class="cls-5" d="M227.31,146.7a14.94,14.94,0,0,1-.54,7.24"/><g id="g2076"><path id="path2078" class="cls-18" d="M279.21,235.44c-4.46-1.56-9.43,3-8.54,7.5a19.92,19.92,0,0,0,8.81,14.48"/><path id="path2080" class="cls-18" d="M279.73,267.6c-4.82-3.69-9.35-9.29-10.18-16.37l-.12-.51"/><path id="path2082" class="cls-18" d="M271.34,239.2c-7.34,6.18-8.17,18-2.27,25.4a32.62,32.62,0,0,0,4.17,4.9"/><path id="path2084" class="cls-18" d="M265.18,250.12c-2.9,3.49-5.09,9.65-4.44,14.59,0,.79,1.19,2.83,1.14,3.62"/><path id="path2086" class="cls-18" d="M259.11,256.09c-2.24,2.76-4,8.18-2.59,12.54"/><path id="path2088" class="cls-18" d="M274.59,222a18.21,18.21,0,0,1-5.42,15c-2.83,3.1-5.48,6.43-8.83,9-4.88,3.7-7.65,6.6-7.39,15.06"/><path id="path2090" class="cls-18" d="M250.11,262.16c-.67-3.77-1-9.25.82-13.29,1.76-3.84,5.82-6.22,9.13-8.89,4.42-3.56,10.17-5.77,11.67-11.46.58-3.2,0-6.47.15-9.7"/><path id="path2092" class="cls-18" d="M269.16,216.68c0,4,2,8.34-.51,12-2.78,3.52-6.8,5.85-10.83,7.75-4.18,2.77-8.3,6.18-10.42,10.81-1.14,2.62-3.82,7.5-1.22,12.09"/><path id="path2094" class="cls-18" d="M266.72,215.07c-.18,4.38,1.64,9.22-.89,13.23a6.81,6.81,0,0,1-3.19,2"/><path id="path2096" class="cls-18" d="M264,212.92c-.45,4.46.57,9.58-2.69,13.27-2.44,2.82-5.46,5.1-7.63,8.17-1.5,1.86-3.36,3.77-3.8,6.17"/><path id="path2098" class="cls-18" d="M262.92,208.9c-.23,5.61-2.47,11-5.48,15.7-2,2.79-5.46,4.74-6.47,8.16"/><path id="path2100" class="cls-18" d="M261.56,202.47c-1.28,5.82-1,12.38-5.13,17.2a35.3,35.3,0,0,0-5.19,8"/><path id="path2102" class="cls-18" d="M259.66,200.59c-1.45,6.87-5.33,12.89-7.65,19.46a22.27,22.27,0,0,0-.77,2.26"/><path id="path2104" class="cls-18" d="M255.86,196.3c.2,4.06-1,8.07-2.32,11.88-.81,1.85-2,3.71-1.76,5.81"/></g><path id="path2106" class="cls-5" d="M228.11,262.79c3-2.26,6.12-4.43,9.32-6.43"/><path id="path2108" class="cls-5" d="M228.11,259.57c4.82-3.31,10-6.44,13.56-11.24.49-.78,2.15-2.74,2.59-3.56"/><path id="path2110" class="cls-5" d="M230.86,254.12a36.23,36.23,0,0,0,10.84-9.79c1.06-1.34,2.69-3.89,4.07-4.92"/><path id="path2112" class="cls-5" d="M233.81,247.74a76.44,76.44,0,0,1,7.28-6.75c1-.9,4.47-4.62,5.57-5.35"/><path id="path2114" class="cls-5" d="M235.94,241.56c3.2-2.35,7.1-6.49,10.54-8.53"/><path id="path2116" class="cls-5" d="M237.9,236.71c2.7-2.33,6.49-6.8,10.28-8.67"/><path id="path2118" class="cls-5" d="M239.29,231.69a64.68,64.68,0,0,1,8.52-7.78"/><path id="path2120" class="cls-5" d="M240.36,227.4c2.22-1.77,5.18-6,7.64-7.49"/><path id="path2122" class="cls-5" d="M240.43,223.9c2.09-2.54,4.64-5.86,7.64-7.49"/><path id="path2124" class="cls-5" d="M241.15,218.82c1.92-2.52,2.8-4.26,5.2-6.34l2.18-1.67"/><path id="path2126" class="cls-5" d="M241.76,212.83a36,36,0,0,1,6.85-7.42"/><path id="path2128" class="cls-5" d="M242.66,208.08c1.91-2.26,3.66-4.81,5.43-7.08"/><path id="path2130" class="cls-5" d="M243.3,202.91a33.05,33.05,0,0,1,5-6.34"/></g><path id="path2132" class="cls-6" d="M288.28,251.33c.92,0,1.86.06,2.77,0,2.05-.65,4.1-1.28,6.08-2.12a37.47,37.47,0,0,0,4-2.08,42.94,42.94,0,0,0,4.15-3.94,11.47,11.47,0,0,0,1.82-2.6c-.1,1.71-.32,3.42-.34,5.13.29,5.27.24,9.65.5,14.91-.23,2.69-1.16,6.23-1.39,8.91-6.26-.05-11.47.06-17.73,0,.05-6,.11-12.16.17-18.18Z"/><g id="g2134"><path id="path2136" class="cls-5" d="M288.46,260c2.81-.77,6.61-.61,9.48-2.12a20.37,20.37,0,0,0,6.53-6.08,27,27,0,0,0,1.9-3.82"/><path id="path2138" class="cls-5" d="M288.1,267.41c2-.57,5-1,7.4-1.85,2-.7,4.28-1.19,5.94-2.57,2.32-1.9,3.57-5.66,5.1-7.42"/><path id="path2140" class="cls-5" d="M296.71,269.5a24.09,24.09,0,0,0,6.2-3c1.4-1.08,2.42-3.09,3.46-4"/></g></g><g id="g2142"><path id="path2144" class="cls-1" d="M302,233.82c.89.57,2.16.39,3,1.06a15.86,15.86,0,0,1,2.29,4.53,2.79,2.79,0,0,1-.06,1.22,8.47,8.47,0,0,1-1.74,2.77,24.12,24.12,0,0,1-4.57,4,31.35,31.35,0,0,1-4.41,2.41,23.39,23.39,0,0,1-3.57,1.53,14.32,14.32,0,0,1-3.61.63c-.46,0-1.05.17-1.35-.17-.38-1.69,0-2.59,0-3.89a19.36,19.36,0,0,0,3.73,0,24.22,24.22,0,0,0,5.1-2.09,18.56,18.56,0,0,0,2.36-1.18,6.51,6.51,0,0,0,1.65-1.35,6.34,6.34,0,0,0,1.29-2.78,11.89,11.89,0,0,0-.4-3,9.55,9.55,0,0,1-.18-1.76c.05-.67-.15-1.78.49-2Z"/><path id="path2146" class="cls-9" d="M279.86,234.53q.18,8.17.35,16.35a25,25,0,0,1-1.79-1.92,15.56,15.56,0,0,1-1.5-2.51,14.35,14.35,0,0,1-1.19-3,6.17,6.17,0,0,1-.17-2.26,9.68,9.68,0,0,1,1.47-3.72c.73-1.14,1.88-1.62,2.83-2.91Z"/></g><path id="path2148" class="cls-14" d="M279.84,225.75l-.12,43.75H288l.62-41.25-3.47-1-3.35-1Z"/><g id="g2150"><path id="path2152" class="cls-9" d="M171.48,137.63c-1.7.43-.87,2.12-1.14,3.22-.63,2.53.13,5.47-1.17,7.72-.78,1.37-3.25,1.43-3.68,2.94-.33,1.18,1.2,2.25,1.23,3.48a6,6,0,0,1-1.24,4.3c-.71.74-2.42.07-2.94,1-.63,1.08.34,2.49.73,3.67,1.56,4.64,5.09,8.58,6.38,13.23,2-.68,4.07-.57,6.11-.74,3.51-.3,7-.44,10.56-.52,6.22-.14,12.45-.08,18.68.06,4.93.1,9.9-.14,14.79.58,2.05.94.62-1.7.62-2.59,0-6.33-2.52-12.45-4.6-18.42a85.21,85.21,0,0,0-5-11,91.49,91.49,0,0,0-4.7-8c-1.41.4-1.65,1.64-2.22,2.64-1.85,3.23-1.61,7.49-3.75,10.53-1.48,2.09-3.41,4.61-5.95,4.83-3.68.31-6.5-3.57-9.68-5.46a44.38,44.38,0,0,1-6.56-4.12c-1.63-1.41-2.77-3.31-4.22-4.92a28,28,0,0,0-2.25-2.38Z"/><path id="path2154" class="cls-5" d="M167.62,156.38c3.84,2.57,7.47,4.82,10.37,9.21.54.81,1.79,1.21,2.27.59a36.2,36.2,0,0,1,4-5c2.89-2.57,5.65-4.93,9.81-6.35,1.54-.53,3.1,1.13,4.44,2.06,3.11,2.14,5.12,5.62,8.13,7.91,1,.75,2,2.21,3.24,1.88s1.54-1.39,3.35-5.69c1-2.45,1.15-5.21,1.82-7.79"/><g id="g2156"><path id="path2158" class="cls-9" d="M185.41,262.81l11.23-.35,9.66.17,2.11-4.77L213.67,245l4.39-16.79,2.28-12,1.06-10.61v-2.29l-10.19-.71-12.28.53-11.41.88-6.15.27-3.68.26,2.8,11.85,2.11,11.84L184.09,240l.44,8.31Z"/><g id="g2160"><path id="path2162" class="cls-5" d="M185.23,245.84l10.53.53c2.64.12,5.27.32,7.9.35,3.05,0,9.13-.17,9.13-.17"/><path id="path2164" class="cls-5" d="M184.76,250.37s7.45,0,11.18.07c2.52.07,5,.17,7.55.36s7.19.7,7.19.7"/><path id="path2166" class="cls-5" d="M185.24,255s7.12-.57,10.69-.53a79,79,0,0,1,9.84.7c.89.12,2.63.53,2.63.53"/><path id="path2168" class="cls-5" d="M185.32,259.81s6.35-.43,9.53-.43c1.89,0,3.78.11,5.66.25,2.23.17,6.67.71,6.67.71"/></g><path id="path2170" class="cls-4" d="M196,203.42l-9.31,4.77s.56,5.42.7,8.13.18,5.43.18,8.14c0,3.12-.18,9.37-.18,9.37s3.77,2.2,5.62,3.35a42.67,42.67,0,0,1,4.39,2.83,39.26,39.26,0,0,1,3.16,3.18l1.23.18s2.26-2.12,3.46-3.11c1.54-1.27,3.25-2.33,4.79-3.61,1.15-1,3.34-3,3.34-3s.2-6.24.35-9.36.32-6,.52-9c.16-2.36.53-7.08.53-7.08s-4.08-1.68-6.14-2.47c-1.28-.49-2.61-.87-3.87-1.41-1-.42-2.81-1.42-2.81-1.42Z"/><path id="path2172" class="cls-5" d="M199.54,206.25s-2.71,1.67-4.12,2.39-4.22,1.85-4.22,1.85.42,2.88.53,4.33c.16,2.15.14,4.3.17,6.45,0,1.65,0,3.3,0,4.95,0,1.18.09,2.36,0,3.54-.05.83-.35,2.48-.35,2.48s1.74,1.2,2.64,1.76,1.64.93,2.45,1.42,1.92,1.11,2.81,1.77,2.2,1.85,2.2,1.85,1.84-1.5,2.72-2.3,1.66-1.57,2.46-2.38c1-1,2.8-3,2.8-3s0-5.78,0-8.66c0-2,.12-4,.18-6l.18-5.84s-2.59-1.27-3.87-1.94-2.33-1.32-3.51-2l-1.75-.88Z"/></g><path id="path2174" class="cls-12" d="M200.83,214.33a20.21,20.21,0,0,0,7.45,7.5,20.21,20.21,0,0,0-7.45,7.5,25.74,25.74,0,0,0-3.23-4.25,25.29,25.29,0,0,0-4.22-3.25,25.29,25.29,0,0,0,4.22-3.25,25.74,25.74,0,0,0,3.23-4.25"/><path id="path2176" class="cls-5" d="M245,168.49l2.67,11.26,2.39,9.65,1.07,13.14-.54,11.8-.53,13.14-2.13,13.94-2.39,8-3.2,5.63"/></g><g id="g2178"><path id="path2180" class="cls-14" d="M120.1,269.5a12.25,12.25,0,0,1,1.94-3.15,5.63,5.63,0,0,1,2.28-1.06,36.12,36.12,0,0,1,7.9-1.06c3.62-.24,7.26.1,10.88,0,4.22-.12,8.42-.56,12.64-.71,3.92-.14,7.85,0,11.76-.18,6.09-.19,12.17-.73,18.26-.88,7-.17,13.93-.12,20.9,0,5,.09,10.07.25,15.09.53a56.59,56.59,0,0,1,7,.53c1.68.3,3.65.26,4.92,1.41a3.27,3.27,0,0,1,.7,1.77,16.34,16.34,0,0,1,.18,2.8Z"/><path id="path2182" class="cls-5" d="M121.34,267.59s5.12-1,7.72-1.24c8.58-.65,17.2.27,25.81.18,10.42-.11,20.82-.8,31.24-.88,5.27,0,10.54.1,15.8.17,3.69.05,7.38.15,11.06.18s7.62-.19,11.41,0c1.82.09,3.64.29,5.45.53,1.41.19,4.21.71,4.21.71"/></g></g><g id="g2184"><g id="g2186"><path id="path2188" class="cls-4" d="M190.4,362.38c-.85-5.5-3.42-10.59-5-15.93-1.15-3.92-2.09-7.91-3.26-11.82-5,.56-10.06.94-15.11,1.25-4.28.26-8.58.44-12.87.49-2.93,0-5.87-.05-8.79-.15a57.64,57.64,0,0,1-6.83-.34,6.27,6.27,0,0,0-.32,2.2c-.29,2.9-.42,5.81-.49,8.72a73.25,73.25,0,0,0,0,10.58,46.74,46.74,0,0,0,1.2,5c2.76.38,5.49,1,8.27,1.22,4,.29,8,0,12-.05,4.82,0,9.65,0,14.47-.11,2.57-.07,5.14-.17,7.71-.32,3-.19,6-.54,9-.74Z"/><path id="path2190" class="cls-5" d="M188.47,356c-4.82.62-9.65,1.17-14.49,1.37-6.3.25-12.61-.17-18.92-.24-4.75-.05-9.5.17-14.23-.12-.92,0-1.83-.2-2.75-.3"/><path id="path2192" class="cls-6" d="M135.27,350.89a3.08,3.08,0,1,1,6.14,0h0a3.08,3.08,0,1,1-6.14,0Z"/><g id="g2194"><path id="path2196" class="cls-5" d="M184.78,344.17c-6.16,1.54-12.06,1.24-18.11,1.44-4,.13-8,0-11.95-.17a166.3,166.3,0,0,1-17-1.09"/><path id="path2198" class="cls-5" d="M182.5,337.45c-9.29,1-18.63,1.69-28,1.91-5.31.13-10.61-.22-15.91-.32"/><path id="path2200" class="cls-5" d="M183.37,341.87s-1,1.69-1.75,1.61c-.7.17-2.53-4.28-3.23-4.3s-2.58,4.83-3.09,4.63c-1,.19-3.58-4.68-4.21-4.08-.66-.4-3.8,4.53-4.51,4.4-.47.08-2.87-4.14-3.65-4-1,0-2.92,4.16-3.61,4.21s-3.71-3.76-4.35-3.74c-1-.24-3.84,3.58-4.25,3.56-.76,0-3.33-3.79-4-3.71s-3.06,3.43-3.86,3.18c-.85.25-4.21-3-4.21-3"/></g><path id="path2202" class="cls-6" d="M180.56,349.74a3.69,3.69,0,1,1,3.69,3.8A3.75,3.75,0,0,1,180.56,349.74Z"/><path id="path2204" class="cls-7" d="M168.35,351.27a3.25,3.25,0,1,1,6.5,0v0a3.25,3.25,0,1,1-6.5,0Z"/><path id="path2206" class="cls-6" d="M155.75,351.57a3.6,3.6,0,0,1,7.2,0h0a3.6,3.6,0,0,1-7.2,0Z"/><path id="path2208" class="cls-7" d="M144.82,351a3.16,3.16,0,1,1,6.32,0h0a3.16,3.16,0,1,1-6.32,0Z"/><path id="path2210" class="cls-8" d="M140.19,470.74a5.49,5.49,0,0,1-.36-2.47c-.05-.77.08-1.54,0-2.3a3.89,3.89,0,0,0-.17-.89c-.25-.69-.85-1.23-1-1.94a9,9,0,0,1-.18-2.83,7.77,7.77,0,0,1,.35-2.3,20.06,20.06,0,0,1,1.05-1.77,9.11,9.11,0,0,0,.88-2.29,6.28,6.28,0,0,0,0-2.66,15.86,15.86,0,0,0-1.23-2.29,29.77,29.77,0,0,1-1.4-4.25c-.24-.93-.28-1.9-.53-2.82s-.71-2-1.05-3a17.26,17.26,0,0,1-.88-2.66,6.52,6.52,0,0,1,0-2.29,4.74,4.74,0,0,1,.88-2.13,4.51,4.51,0,0,1,1.93-1.23,3.23,3.23,0,0,1,1.41-.18,11.72,11.72,0,0,1,2.63.88,25.83,25.83,0,0,1-.88-3,7.48,7.48,0,0,1-.17-3,3.51,3.51,0,0,1,1.05-1.76,4.5,4.5,0,0,1,1.93-.89,13.21,13.21,0,0,1,2.46-.17,6.09,6.09,0,0,1-1.76-1.42,4.56,4.56,0,0,1-.35-2.3,3.16,3.16,0,0,1,.35-1.94,1.78,1.78,0,0,1,1.23-.53c.54,0,1.13.65,1.58.35s.42-1.17.35-1.77-.72-1.24-.87-1.94a7,7,0,0,1,0-1.77,18.05,18.05,0,0,1,.17-2.65,10.51,10.51,0,0,1,.7-2.48,6,6,0,0,1,1.41-2.12,11.14,11.14,0,0,1,3.16-1.41,9.51,9.51,0,0,1,1.93-.71c.34-.06.78.22,1.05,0,1.14-.89.64-2.84,1.06-4.24a26.58,26.58,0,0,1,1.58-4.6,28.86,28.86,0,0,1,2.63-3.89,13.37,13.37,0,0,1,1.91-2.49,13.45,13.45,0,0,1,2.48-1.39,11.78,11.78,0,0,1,5.44,2.12,52.43,52.43,0,0,0,5.09,3.53c1.31.83,2.75,1.43,4,2.3a19.15,19.15,0,0,1,2.46,1.95,17.22,17.22,0,0,1,2.28,2.47c.56.77.77,1.77,1.4,2.48s1.5.73,1.93,1.41a2.21,2.21,0,0,1,.18.88,4.87,4.87,0,0,0-.88,1.95c0,.53.45.95.7,1.41.38.67.89,1.26,1.23,1.95a18.84,18.84,0,0,1,1.23,3.18,14.81,14.81,0,0,1,.53,2.65,6.07,6.07,0,0,1,0,1.95,5.08,5.08,0,0,1-1.41,2.65,6.31,6.31,0,0,1-2.45.88c-1.22.36-2.63.2-3.69.89-1.37.89-2.15,2.48-3,3.89a14.72,14.72,0,0,0-1.58,3.53,14.13,14.13,0,0,0-.35,2.83,39.47,39.47,0,0,0,0,4.07,16.44,16.44,0,0,0,.35,3.71c.22.76.92,1.34,1.05,2.12a6.63,6.63,0,0,1-.52,4.24c-.55,1-1.85,1.31-2.64,2.12s-1,1.7-1.75,2.3c-.56.44-1.42.39-1.93.88a7.74,7.74,0,0,0-1.76,3.54,17.35,17.35,0,0,0-.35,3.54c-.09,1.17-.15,2.35-.18,3.53,0,.95,0,1.89,0,2.83,0,1.18-.08,2.36,0,3.54.06.83.27,1.64.36,2.47s.17,2.65.17,2.65-4.23.85-6.32,1.42c-1.12.3-2.2.78-3.33,1.06a39.71,39.71,0,0,1-4,.71c-1.34.17-2.7.22-4,.35a30.53,30.53,0,0,1-3.16.35,12.24,12.24,0,0,1-2.63-.35,12.4,12.4,0,0,1-2.81-.88,22.9,22.9,0,0,1-3-2.13c-.65-.46-1.52-.72-1.93-1.41Z"/><path id="path2212" class="cls-4" d="M142,461.15c-.68-.52-.24-1.52-.18-2.23.18-1.1,1.07-1.34,2.12-1.62,1.69-.56,3.35,0,4.88.79,1.46.57,2.87,1.26,4.54,1.05a12.05,12.05,0,0,1,3-.54c1.38,0,2.52-.93,3.85-1.16.95,0,1.24-1.5,2.19-1.29.22.66-.31,1.41-.66,2a4.77,4.77,0,0,1-3.26,2.18,11.39,11.39,0,0,0-3,.92,12.72,12.72,0,0,1-3.75.28,25.06,25.06,0,0,1-4.8-2,3.18,3.18,0,0,0-3,.42c-.62.36-1.14.88-1.73,1.24l-.09,0Z"/><path id="path2214" class="cls-9" d="M163.7,450.4c-.73.65-1.92-.39-2.89-.37a9.36,9.36,0,0,0-2.4.41c-1.49.43-2.8,1.4-4.29,1.82a8.76,8.76,0,0,1-1.68.26c-.87.09-1.74.11-2.61.13a9.88,9.88,0,0,1-2.55,0c-.44-.1-.76-.57-1.2-.6-.27,0-.58.45-.75.25-.45-.54.64-1.26,1-1.88a9,9,0,0,1,1.16-1.9,10.73,10.73,0,0,1,3.07-2,11.31,11.31,0,0,1,1.7-.57,2.88,2.88,0,0,1,1.06-.25,5.36,5.36,0,0,1,2.23,1c.66.41,1.13,1.08,1.78,1.51a8.52,8.52,0,0,0,2.2,1.09c1.15.33,2.51-.19,3.56.37a1.36,1.36,0,0,1,.62.75Z"/></g><g id="g2216"><path id="path2218" class="cls-10" d="M148.69,449.47a2.69,2.69,0,1,1,2.67,3.06A2.88,2.88,0,0,1,148.69,449.47Z"/><path id="path2220" class="cls-11" d="M150.18,450c0-.52.3-.94.68-.94s.68.42.68.94-.3.94-.68.94-.68-.42-.68-.94Z"/></g><g id="g2222"><path id="path2224" class="cls-5" d="M148.19,435.9a4.29,4.29,0,0,0,1.36-2.4A2.57,2.57,0,0,0,148,431a6.46,6.46,0,0,0-2.63-.58c-.52,0-.75.48-.93.88s-.9.39-1.36.31a3.11,3.11,0,0,1-.61-.2"/><path id="path2226" class="cls-4" d="M144.92,430.26c.34-.43,1.06-.23,1.58-.39s1.11-.53,1.7-.69c.85-.22,1.87.14,2.6-.33,1-.65,1.12-2.12,1.88-3a4,4,0,0,1,1.15-1.05,3.12,3.12,0,0,1,1.22-.24,2.5,2.5,0,0,1,1.28.16c.37.21.38,1,.79,1s.46-.46.53-.75a1.93,1.93,0,0,0-.14-1.18,1.39,1.39,0,0,0-.39-.54,5.45,5.45,0,0,0-2.23-.81,10.75,10.75,0,0,0-2.89,0,4.49,4.49,0,0,0-1,.21,5.58,5.58,0,0,0-1.51.74c-.6.45-.91-.85-1.55,1.64-.12.48-.94.26-1.41.38a11.74,11.74,0,0,1-1.3.32c-.61.08-1.22,0-1.83,0s-1.12-.19-1.52.12a1.75,1.75,0,0,0-.43,1.31,8.68,8.68,0,0,0,.72,3,3.47,3.47,0,0,0,.55,1.22.86.86,0,0,0,.53.31,1.38,1.38,0,0,0,.85-.32,2.39,2.39,0,0,0,.86-1Z"/><path id="path2228" class="cls-12" d="M141.61,425.65c.48.23.94.51,1.43.7s1.09.18,1.64.23c.7-.24,1.42-.44,2.1-.7.57-.59,1.12-1.2,1.71-1.77s1.4-1,2.12-1.42l1.42-.54a8.39,8.39,0,0,0,.84.18c.13-.11.57-.09.4-.3s-.2-.39-.45-.37a1.06,1.06,0,0,1-.66-.25c-.49-.36-1-.66-1.5-1a7.52,7.52,0,0,1-1.23-1.29,7.18,7.18,0,0,1-.91-1.36.94.94,0,0,0-.45-.49l-1.19-.85h-1.36l-.94.94a13.62,13.62,0,0,0,.09,2.12,3.92,3.92,0,0,0,.45,1.25,3.23,3.23,0,0,0,.56,1c.7.34,1.66.3,1.88.56a16.3,16.3,0,0,0-3.33.29,6.65,6.65,0,0,0-.91.17c-.52.61-1,1.21-1.59,1.79l-.12,1.12Z"/></g><g id="g2230"><path id="path2232" class="cls-13" d="M161.66,450.28l-1.43.44-1.49.62L156.88,453l-1.56.94-2.29.68-1.49.25-1.37-.18-1.18-.44-1.3-1.25-1.18-.38-1-.31"/><g id="g2234"><path id="path2236" class="cls-5" d="M140.18,453.9c-.09.49-1-.09-1.49,0s-.66.29-1,.38-.76.39-.92.12.2-.39.37-.5a2.84,2.84,0,0,1,1.16-.25,2.73,2.73,0,0,1,.89-.12c.35,0,1.06,0,1,.37Z"/><path id="path2238" class="cls-5" d="M142.65,469.51l-.88-1.59-1.05-1.07-1-1.76"/><path id="path2240" class="cls-5" d="M172.63,406.84a6.46,6.46,0,0,0-2.85-2.39c-1.88-1-4.08-1.2-6.15-1.66A38.39,38.39,0,0,0,159,402a24.18,24.18,0,0,0-3.36,0"/><path id="path2242" class="cls-5" d="M169.91,402a22.32,22.32,0,0,0-7-2.11c-1-.17-2.07,0-3.09-.12s-1.95-.35-2.94-.34a3,3,0,0,0-.51.07"/><path id="path2244" class="cls-5" d="M168.3,399.15a24.54,24.54,0,0,0-5.34-.9c-2-.22-4,0-6-.35"/><path id="path2246" class="cls-5" d="M167.8,396.53a27.33,27.33,0,0,0-5.63-.91c-1.47-.18-3,.27-4.42-.34"/><path id="path2248" class="cls-5" d="M165.94,393.9a58.34,58.34,0,0,0-7.82-.25"/><path id="path2250" class="cls-5" d="M164.73,392a17.63,17.63,0,0,0-3.46-.46c-.56,0-1.45,0-1.67,0"/><path id="path2252" class="cls-5" d="M163.45,389.65l-2.6-.25"/></g></g><path id="path2254" class="cls-14" d="M215.68,444.78c1-1,1.18-2.74,2.3-3.61,1.35-1,3.27-1,4.87-1.55a10,10,0,0,0,2.56-1,9.84,9.84,0,0,0,1.53-1.8,8.43,8.43,0,0,1,1.54-1.81c.82-.52,1.94-.33,2.82-.77a12.7,12.7,0,0,0,6.14-7.48c.37-1.87-.45-3.79-.77-5.67a13.39,13.39,0,0,0-.51-2.58c-.24-.64-1.37-1.2-1-1.8s1.71.08,2.56,0a13.51,13.51,0,0,0,3.84-.77,19.3,19.3,0,0,0,2.3-1.55,29.73,29.73,0,0,1,3.33-1.81,5.32,5.32,0,0,1,.77-.25,42,42,0,0,1,4.35-.52c.77-.09,1.64.13,2.3-.26a5.19,5.19,0,0,0,2-2.83,11.14,11.14,0,0,0,.26-3.87,7.4,7.4,0,0,0-.26-3.09,6.36,6.36,0,0,0-2.56-2.58c-.92-.57-2.09-.58-3.07-1s-1.62-1.22-2.56-1.55a5.43,5.43,0,0,0-1.79-.26,7.91,7.91,0,0,0-4.1,1.29c-.57.47-.63,1.47-1.28,1.81a2,2,0,0,1-1.53,0c-.85-.33-1.36-1.22-2.05-1.81-.93-.79-1.66-2-2.82-2.32a7.88,7.88,0,0,0-3.84.26,4.88,4.88,0,0,0-2.3.77c-.58.51-.44,1.58-1,2.06-1,.85-2.79,1.85-3.84,1-.67-.53,0-1.72,0-2.58a13.39,13.39,0,0,0,0-3.1,8.26,8.26,0,0,0-2.05-4.12,6.32,6.32,0,0,0-2.3-1c-.76-.3-1.68-.26-2.3-.78a4.38,4.38,0,0,1-1.28-2.32c-.22-.83.22-1.74,0-2.57a4,4,0,0,0-1-1.81c-1-.92-2.53-1-3.58-1.8a5.47,5.47,0,0,1-1.54-1.81c-.57-1.18-.19-2.69-.77-3.87a5.23,5.23,0,0,0-1.79-2.06,6.46,6.46,0,0,0-2.56-.77,6.58,6.58,0,0,0-2.3,0,5.14,5.14,0,0,0-1.8.77,5.25,5.25,0,0,0-1.79,1.81c-.54,1.08-.35,2.4-.51,3.61-.09.68.26,1.6-.26,2.06s-1.22-.2-1.79,0a5.09,5.09,0,0,0-2.56,2.06,5.68,5.68,0,0,0-.77,3.35c.1,1.12,1.46,2,1.28,3.1-.14.9-1.13,1.43-1.79,2.06s-1.84.95-2.3,1.81-.22,1.88-.26,2.83a20.19,20.19,0,0,1,0,2.58c-.13.72-.77,1.33-.77,2.06s1,1.37.77,2.07c-.16.47-.94.41-1.28.77a3.49,3.49,0,0,0-.89,1.67,4.66,4.66,0,0,0,.25,2.45c.42,1.13,1.58,1.86,2,3a13.93,13.93,0,0,1,.64,3.22,11,11,0,0,1,.38,2.84,3.91,3.91,0,0,1-.76,2.32c-.44.48-1.2.52-1.8.77-.8.35-1.61.71-2.43,1a11.5,11.5,0,0,0-2.81,1,9.49,9.49,0,0,0-1.92,2.58,23.91,23.91,0,0,0-1.8,3.09,12.59,12.59,0,0,0-1.15,3.23c-.26,1.65.2,3.35.13,5a20.08,20.08,0,0,0-.26,2.32,11.23,11.23,0,0,0,.77,2.7,9.91,9.91,0,0,1,.9,2.07,4.66,4.66,0,0,1-.39,1.93,6.24,6.24,0,0,1-1.15,2.32c-.4.44-1.07.54-1.54.9s-.91,1-1.4,1.42a24.15,24.15,0,0,0-2.44,1.94,8.27,8.27,0,0,0-1.53,2.57,9.64,9.64,0,0,0-.39,2.45c-.16,2.14.07,4.3,0,6.45,0,1.33-.27,2.66-.25,4,0,.91.18,1.81.25,2.71.05.6.07,1.2.13,1.81s.26,2.06.26,2.06,2.93-.66,4.35-1.16c1.1-.39,2.09-1.07,3.2-1.42,1.33-.41,2.76-.38,4.1-.77a25.46,25.46,0,0,0,4.48-1.81,42.55,42.55,0,0,0,4.09-2.58c1.52-1,3-2,4.49-3.09.61-.45,1.17-1,1.79-1.42.87-.63,1.81-1.18,2.69-1.8.69-.5,1.33-1.07,2-1.55.91-.61,1.92-1.05,2.82-1.68a22.68,22.68,0,0,0,3.07-2.44,29.87,29.87,0,0,0,2.05-2.45c.56-.69,1.08-1.41,1.67-2.07a10.4,10.4,0,0,1,1.28-1.29,23.32,23.32,0,0,0,2.17-1.28Z"/><g id="g2256"><path id="path2258" class="cls-5" d="M174.59,470.3a28.07,28.07,0,0,1-.15-12.73,20,20,0,0,1,2.26-5.5c1.55-2.93,4.49-5.13,5.46-8.31s-.35-6.82.12-10.19c.34-2.44.47-5.15,1.93-7.14,1-1.44,3-1.95,4.51-2.89,1.15-.71,2.58-1.08,3.5-2.08a10,10,0,0,0,2.88-5.88c.11-2.11-1.91-3.86-2.16-6-.21-1.88.4-3.76.67-5.62.32-2.25-1-5,1.12-6.71,4.53-3.62,3.35-3.39,5.92-4.17,3-.91,6.44-.51,9.2-2a9.82,9.82,0,0,0,3.82-3.85,11.29,11.29,0,0,0,1.24-5.63"/><path id="path2260" class="cls-5" d="M190.07,397.38a19.3,19.3,0,0,1,5.62-5.48c2.37-1.34,5.27-1.33,7.88-2.08,1.76-.51,3.75-.58,5.26-1.65a7.14,7.14,0,0,0,3-4,6.1,6.1,0,0,0-1-4.91"/><path id="path2262" class="cls-5" d="M194.41,387.67c3.37-1.42,7.23-1,10.63-2.24,1.3-.48,3.11-.71,3.67-2,1.08-2.48-1.32-5.46-2-7.88-.4-1.45-3.05-1.85-4.35-1.1-1.86,1.1-.36,4.59-1.71,6.29-1.1,1.37-5.1.75-4.66,2.46.77,3,6.29.6,9.36-.18,1.32-.33.18-3.86-1.18-3.93-1-.06-.79,2.37-1.17,2.71"/><path id="path2264" class="cls-5" d="M217,388.13c-.74,2.35-2.71,3.94-4.71,5.1-2.61,1.53-6,1-8.81,2.06-1.6.62-3.39,1.2-4.49,2.52a10.26,10.26,0,0,0-2.1,6.09c-.07,1.65,1,3.16,1.26,4.79.31,1.79-.23,3.76.5,5.42.65,1.49,2.51,2.16,3.25,3.6a5.15,5.15,0,0,1,.73,3.22c-.31,1.6-1.79,2.71-2.76,4a18.76,18.76,0,0,1-2.33,2.83c-2.28,2-6,2.35-7.7,4.85-1.22,1.78-1.12,4.2-1.28,6.35-.21,2.8,1.26,5.75.4,8.43-1,3.09-4.46,4.79-6,7.62a10.86,10.86,0,0,0-1.43,3.82c-.4,2.91.69,5.83.76,8.78"/><path id="path2266" class="cls-5" d="M177.84,468.89c.46-2.44,0-4.93.4-7.36a29.62,29.62,0,0,1,1.87-7.13c1.29-3,4.26-5.23,5.2-8.39,1.18-4-.8-8.44.32-12.43a13.54,13.54,0,0,1,3.62-6.26c2.14-2,6.09-1.39,7.88-3.69a6.68,6.68,0,0,0,1-5.25c-.33-1.59-1.83-2.67-2.75-4"/><path id="path2268" class="cls-5" d="M186.35,465.6c-.11-2.71-.72-5.62.18-8.2s3.27-4.77,5.25-6.87,4.79-3.2,6.4-5.52c1.07-1.55,1.08-3.64,2-5.31,1.42-2.71,3-5.53,5.27-7.51,1.84-1.56,4.61-1.65,6.49-3.14,1.47-1.17,3.22-2.53,3.55-4.38.54-3-1.68-5.91-2.94-8.7-.87-1.92-2.36-3.52-3.15-5.47-.65-1.61-1.92-3.44-1.28-5.06,1.14-2.86,4.84-4.07,7.79-4.92,2.2-.64,5,1.4,6.87,0,.55-.42.37-1.34.55-2"/><path id="path2270" class="cls-5" d="M189.43,446.64a17.89,17.89,0,0,0,4.92-4.36c1.37-1.69,1.9-3.95,3.23-5.67,3-3.85,6.85-6.95,10.49-10.19.84-.74,2.24-1.05,2.62-2.11.9-2.59-.95-5.42-1.76-8s-2.59-4.7-3-7.29a11.89,11.89,0,0,1,.46-6.32,7.41,7.41,0,0,1,2.92-3.48c3.13-2,8.13-.05,10.73-2.68,1.62-1.63,1.24-4.44,1.63-6.74"/><path id="path2272" class="cls-5" d="M188.71,440.26a19.53,19.53,0,0,0,3.8-2.95c2.33-2.15,4.19-4.76,6.43-7,1.5-1.49,3.24-2.72,4.69-4.26,1.09-1.16,2.6-2.18,3-3.73s-.26-3.5-.79-5.15c-1-3-3.74-5.39-4.32-8.53a12,12,0,0,1,.65-6.06,9.08,9.08,0,0,1,2.87-4.29c1.15-.86,2.75-.84,4.13-1.25,2.1-.62,4.51-.58,6.32-1.82a8.92,8.92,0,0,0,2.65-3.51,18.86,18.86,0,0,0,1-3.42"/><path id="path2274" class="cls-5" d="M190.16,463.6c.52-2.28.76-4.69,1.89-6.72,1.68-3,5.73-4.45,7-7.68.65-1.69,0-4,0-5.44"/><path id="path2276" class="cls-5" d="M197.58,459.41c.93-2.84,4.24-6.4,5.14-9.25s-.61-5,.49-7.73c.79-2,1.27-4.23,2.69-5.81,2.08-2.3,5.59-2.76,8-4.74,2.64-2.19,6.49-4.3,6.8-7.73.19-2.06-2.5-3.36-3.18-5.31a8.18,8.18,0,0,1-.62-4.5,5.93,5.93,0,0,1,2.38-3.46c2.09-1.4,5-.85,7.37-1.56,2.08-.61,4.06-1.54,6.08-2.34,2.46-1,5.75-.88,7.35-3,.77-1,0-2.27.43-3.83"/><path id="path2278" class="cls-5" d="M205.54,454.09c1.59-4.31,1.17-10.17,4-14.19,2.14-3,6.19-4.15,9.09-6.5,2.46-2,5.55-3.61,7-6.44a9,9,0,0,0,.72-5.21c-.28-2.26-2.32-4.07-2.54-6.34a13.71,13.71,0,0,1,1.09-5.59"/><path id="path2280" class="cls-5" d="M210.61,448.8c.51-1.52.43-4,1.47-5.57,3.15-4.86,9.12-7.09,13.51-10.84,1.57-1.34,3.67-2.31,4.57-4.16A14.23,14.23,0,0,0,231,418c-.42-1.31-2.25-1.85-2.64-3.16a5.64,5.64,0,0,1,.46-3.82c.72-1.54,3-3.12,3.49-3.71"/><path id="path2282" class="cls-5" d="M235.05,416.75a3,3,0,0,1-1.63-3.65c.7-2.68,4.28-3.53,6.65-4.94,1.5-.89,3.6-.87,4.74-2.19a4.2,4.2,0,0,0,1-3.3c-.33-1.78-2.33-3.06-3.3-4.32"/><path id="path2284" class="cls-5" d="M233.45,413.84c1.37-.36,3.54,0,5.17-.57,1.38-.51,2.33-1.83,3.64-2.49,2.22-1.11,5.28-.69,7-2.44a6.4,6.4,0,0,0,1.68-4.71,8.57,8.57,0,0,0-2.38-4.88,14.17,14.17,0,0,0-3-2.05"/><path id="path2286" class="cls-5" d="M216.91,416.53c-1.06-1.49-2.54-4.46-1.64-6.51.78-1.8,3.3-2.16,5.14-2.82,2.59-.93,5.61-.39,8.11-1.55,2.11-1,5.06-2.09,5.45-4.4.22-1.35-1.11-2.61-2.17-3.46-.86-.69-2.06-.73-3.08-1.1"/><path id="path2288" class="cls-5" d="M226,399.43c1,1.78-.74,1.91-1.49,2.54-1.55,1.31-3.81,1.37-5.69,2.12-2.09.84-4.53,1.17-6.21,2.67a6.09,6.09,0,0,0-2,3.49c-.18,1.27.88,2.73.88,3.74"/></g><g id="g2290"><path id="path2292" class="cls-15" d="M200.23,457.84c-2.41,1.72-4.69,3.62-7.17,5.21-2.67,1.35-5.27,2.87-8,4.11-5.81,1.88-11.58,3.9-17.5,5.42a48.35,48.35,0,0,1-7.69,1.75c-2.48.39-4.95,1-7.48.83-2-.06-4,.25-5.92-.44-1.19-.36-2.57-.38-3.38-1.47l-2.57-2.33c-.9,1.53-2.25,2.86-2.51,4.69-.33,1.25-.85,2.48-.52,3.79.17.8,0,1.9.36,2.52,4.22,1,8.42,2.19,12.65,3.13,3.21-.43,6.47-.64,9.67-1.21,3.94-1,7.91-1.87,11.86-2.81,3.08-.93,6.08-2.06,9-3.29a38,38,0,0,0,6.85-2.35c1.33-.59,2.76-1,4-1.71a30.73,30.73,0,0,0,4.06-5.1c1.62-2.12,2.35-4.75,3.53-7.12A30,30,0,0,0,201,458l-.72-.19Z"/><path id="path2294" class="cls-5" d="M185.8,472a25.24,25.24,0,0,0,3.6-2,11,11,0,0,0,3.6-4,7.44,7.44,0,0,0,.12-2.5"/><path id="path2296" class="cls-6" d="M193.55,509.46a68.67,68.67,0,0,0,12-5.49c3.85-2.18,8.1-3.75,11.34-6.87,1.41-1.15,3-2.12,3.47-4a36.78,36.78,0,0,0,3.36-9.42,49,49,0,0,1,6.67-9.19c1.57-2.55,3.55-4.9,4-7.94a19.66,19.66,0,0,0,1.1-7.84c-1.24-2.06-2.15-4.42-4.39-5.58-1.36-.88-2.61-1.85-2.92-3.55a5.54,5.54,0,0,0-4.62-4c-2-.46-4-1.4-6-1.3-1.57.5-3.36.65-4.21,2.27-2.25,2.62-4.44,5.29-7.35,7.18-1.16,1.25-3,1.58-4.21,2.65-1.88,3.62-3.06,7.55-4.62,11.28-1.67,1.83-2.95,4.16-4.86,5.68a57.83,57.83,0,0,1-11.38,4.6c-4.76,1.46-9.22,3.95-14.24,4.45-4.2.62-8.29,2-12.44,2.71-4.78-.71-9.67-1.18-14.35-2.23-1.28-1.11-2.59-2.06-4.25-1.12a5.31,5.31,0,0,0-4,2.46c-1.71,1.83-3.62,3.51-4.26,6-.41,1.53-1.73,3-1.57,4.58A104.79,104.79,0,0,0,129.15,505c2.08,1.74,4.27,3.64,7,4.08l57.42.35Z"/><g id="g2298"><path id="path2300" class="cls-5" d="M211.75,494.4c3.27-2.72,6.71-5.32,9.43-8.62"/><path id="path2302" class="cls-5" d="M205.54,494.65c5.52-2.51,10.14-6.52,14.77-10.35,1.2-1,2.24-2.18,3.35-3.27"/><path id="path2304" class="cls-5" d="M212,487.78c3.66-3.15,7.94-5.5,11.51-8.76.91-.83,1.67-1.82,2.51-2.74"/><path id="path2306" class="cls-5" d="M215,482a58.57,58.57,0,0,0,14.12-10.83,19.31,19.31,0,0,0,1.77-2.67"/><path id="path2308" class="cls-5" d="M215.22,478.78c4-2.66,8.67-4.7,11.17-9"/><path id="path2310" class="cls-5" d="M217.46,473.65c2.59-1.84,5.58-3.46,7.44-6.07a8.52,8.52,0,0,0,.75-2.05"/><path id="path2312" class="cls-5" d="M208.89,471.9a21,21,0,0,0,4.62-5.38,26.92,26.92,0,0,0,1.58-4"/><path id="path2314" class="cls-5" d="M190.4,488.4c2.63-3.14,5.65-5.89,8.44-8.87,1.88-2,3.42-4.36,5.58-6.13"/><path id="path2316" class="cls-5" d="M191.14,484.15c2.13-3.56,5.11-6.43,7.53-9.74,3.06-4.21,5.57-8.85,8.86-12.88,1.09-1.35,2.4-2.5,3.6-3.75"/><path id="path2318" class="cls-5" d="M181.46,487.65c3.36-4,8.27-6.84,10.75-11.46a9.22,9.22,0,0,0,.54-2.29"/><path id="path2320" class="cls-5" d="M176.12,487.53c2.63-3.45,5.54-6.68,8.19-10.12"/><path id="path2322" class="cls-5" d="M171.65,489.53a47.71,47.71,0,0,0,8.69-11"/><path id="path2324" class="cls-5" d="M165.07,493.28c3.18-3.74,7-7,9.62-11.19a17.25,17.25,0,0,0,1.06-2.31"/><path id="path2326" class="cls-5" d="M161,494.4c3.83-3.94,7.79-7.81,10.55-12.62"/><path id="path2328" class="cls-5" d="M157.25,494c3.16-3.16,6.82-6,9.38-9.68a13,13,0,0,0,.8-1.69"/><path id="path2330" class="cls-5" d="M150.92,496.28c3.33-3.49,7.36-6.36,10.26-10.23a15.68,15.68,0,0,0,1-1.89"/><path id="path2332" class="cls-5" d="M146.45,497.9a109.23,109.23,0,0,0,10.31-11.43A22.65,22.65,0,0,0,158,484.4"/><path id="path2334" class="cls-5" d="M143.1,497.28c3-3.46,6.64-6.38,9.38-10.06a22.85,22.85,0,0,0,1.29-2.19"/><path id="path2336" class="cls-5" d="M139.12,498c3.22-3.66,6.13-7.58,9.15-11.4l1.16-1.47"/><path id="path2338" class="cls-5" d="M135.9,497c3.7-3.87,8.16-7.28,9.8-12.62"/><path id="path2340" class="cls-5" d="M135.4,492.65c2.6-2.5,5.73-5.21,6.21-9"/><path id="path2342" class="cls-5" d="M130.32,491.53c2-3.46,4.09-7.23,7.69-9.25"/><path id="path2344" class="cls-5" d="M204.67,501.53c-3,.61-5.5,2.24-8.21,3.45-3.08,1.37-6.08,2.92-9.17,4.3"/><path id="path2346" class="cls-5" d="M193,504.53a42.56,42.56,0,0,0-12.17,4.25"/><path id="path2348" class="cls-5" d="M177.11,505.28c-3.23,1.92-7,2.23-10.18,4.25"/></g><path id="path2350" class="cls-6" d="M304.51,269.78s-.85,9.65-1.4,14.46c-.41,3.55-.81,7.1-1.41,10.61-.48,2.85-1.14,5.66-1.75,8.49-.57,2.59-1.13,5.19-1.76,7.77-.55,2.25-1,4.53-1.76,6.72-.29.85-.83,1.61-1.05,2.48-.61,2.41-.39,5-.7,7.42a43.33,43.33,0,0,1-1.06,6.72c-.74,2.59-2.13,4.94-3.16,7.43-1.2,2.93-2.24,5.93-3.51,8.83-1.41,3.24-2.88,6.45-4.56,9.55-2.25,4.13-4.85,8.06-7.37,12-1.14,1.79-2.52,3.43-3.52,5.3-1.14,2.14-1.19,4.91-2.8,6.72s-4.3,2.22-6.32,3.54-3.51,3.23-5.62,4.24-4.89.64-7,1.77c-1.11.58-1.73,1.86-2.81,2.47-1.39.78-3.17.64-4.57,1.42a14.88,14.88,0,0,0-2.45,2.12s-1.25-1.62-2-2.33c-1.6-1.57-3.81-2.49-5.21-4.25-1.28-1.6-1.61-3.79-2.74-5.5-1.26-1.92-3.19-3.33-4.46-5.25a71.56,71.56,0,0,1-5.22-10.25c-1.74-3.84-3.2-7.81-4.71-11.75-1.12-2.9-2.12-5.84-3.23-8.75S209.9,346,208.89,343c-1.1-3.25-1.85-6.61-2.79-9.91-1-3.7-2.16-7.38-3.17-11.09-.81-3-1.62-6-2.33-9s-1.36-6.24-2-9.37c-.56-2.69-1.15-5.38-1.62-8.09-.39-2.24-.65-4.5-1-6.75-.24-1.58-.53-3.16-.74-4.75s-.24-3.18-.5-4.75c-.18-1.1-.74-3.25-.74-3.25s8.26-.88,12.41-1c4-.12,8,.33,11.92.25,2.65,0,5.29-.42,7.94-.5,2.07-.06,4.15.16,6.21,0,1.08-.08,3.23-.5,3.23-.5A17.44,17.44,0,0,0,237,278c.74,1.27,2,2.11,3,3.25A42.45,42.45,0,0,1,243.4,286c.39.64.61,1.37,1,2,.21.36.33,1,.74,1,.88,0,1.3-1.23,1.74-2a6.55,6.55,0,0,0,.74-2.25c.18-1.07-.21-2.19,0-3.25a13.82,13.82,0,0,1,1.49-3.5c.93-1.75,2.39-3.2,3.23-5a22.73,22.73,0,0,0,1-3.25Z"/><path id="path2352" class="cls-5" d="M263,377.78a67.92,67.92,0,0,1-7.93-6.33,63,63,0,0,1-7.35-8.95,58.31,58.31,0,0,1-6.57-12,48.39,48.39,0,0,1-2.91-12.8c-.48-4.7-1-9.42-1-14.14a74.72,74.72,0,0,1,.87-10.33,22.32,22.32,0,0,1,2.82-8c.57-1,2.59-.87,2.73-2,.47-3.53-1-7.16-.43-10.67a20.13,20.13,0,0,1,1.43-3.83"/><g id="g2354"><path id="path2356" class="cls-15" d="M258,373.53c1.42-3,2.38-6.21,3.73-9.25,1.8-4,4.12-7.82,5.83-11.89s2.94-8.38,4.43-12.57c1.42-4,3-8,4.28-12.05s2.18-8.26,3.16-12.43,1.83-8.38,2.69-12.58c.68-3.3,1.51-6.56,2-9.9.55-4,.75-8,1-12,.19-3.7.13-7.57.26-11.11H270.46c-.31,8-.35,16.39-1.22,24.53a93.84,93.84,0,0,1-1.58,9.56c-1.62,7.76-3.64,15.44-5.88,23q-1.89,6.45-4.24,12.75c-2.58,7-6.59,13.42-8.43,20.62-.29,1.15-2,2.55-.4,3.53,2.62,3,5.21,6,8.1,8.72.39.37.82.67,1.23,1Z"/><path id="path2358" class="cls-15" d="M234.34,395c-2.42-.09-5.39.13-6.58,2.62a2.61,2.61,0,0,1-3.67,1.8c-1.26-.65,0-3-.34-4.37a8.36,8.36,0,0,0-3.33-5.89c-1.33-.66-3.45-.81-4.1-2.2s-.33-3.37-1.07-4.77c-1.48-1.8-4.36-2.14-5.37-4.48-1.26-1.62-.75-4-2.26-5.49-1.8-2-4.8-1.1-7.17-1a8,8,0,0,0-2.36,5.61c0,2.61-1.35-1.58-2-2.27-2.76-5.1-4.68-10.63-6.89-16-3.9-13.45-8.09-26.85-10.5-40.67-1.07-5.72-2.55-11.61-2.74-17.45-.46-6.82-.82-6.22-1.47-13,.56-1.28,0-9,.34-11,5.93,0,13.29.07,19.16-.93,1.16,7.89,2.71,16.18,4.21,24.24.78,4.21,1.44,6.93,2.5,12.58,2.07,7.28,3.74,13.43,5.5,21.57A419.57,419.57,0,0,0,221,374.17a26.77,26.77,0,0,0,4.5,8.24c3,4.08,5.5,8.54,8.74,12.48Z"/></g><g id="g2360"><path id="path2362" class="cls-5" d="M285.35,338.28c1.18-2,2.39-3.91,3.54-5.88,1.3-2.76,1.66-2.74,2.86-5.55A36.07,36.07,0,0,1,293.8,323c.91-1.06,1.57-3.62,2.23-4.68"/><path id="path2364" class="cls-5" d="M246.38,335a58.59,58.59,0,0,1-1.22-6.53c-.21-3.57.62-7.13.72-10.71a60.1,60.1,0,0,0-.09-9.2,20.5,20.5,0,0,0-1.09-4.43,16.48,16.48,0,0,0-.81-1.63"/><path id="path2366" class="cls-5" d="M255.81,309.28c-.82-2.23-1.35-4.59-2.38-6.74-.85-1.77-2.1-3.32-3.11-5a22.72,22.72,0,0,1-2.08-3.6,23.11,23.11,0,0,1-1-5.24c-.09-.8-.09-1.61-.13-2.41"/><path id="path2368" class="cls-5" d="M256.55,304.28A98.05,98.05,0,0,1,254.32,294c-.2-1.65.13-3.35-.13-5-.43-2.66-1.69-5.11-2.35-7.73"/><path id="path2370" class="cls-5" d="M263,295c-.7-2-1.07-4.21-2.07-6.11-1.12-2.13-3.09-3.7-4.32-5.77a20.11,20.11,0,0,1-2.34-5.15,31.61,31.61,0,0,1-.46-6.54v-.68"/><path id="path2372" class="cls-5" d="M265.24,283.53a34.44,34.44,0,0,0-1.47-4.72c-1-2-3-3.48-4-5.53a23.28,23.28,0,0,1-1-3.5"/><path id="path2374" class="cls-5" d="M189.69,344.7a21.78,21.78,0,0,1,1-4.35c.79-1.71,2.34-2.94,3.42-4.49"/><path id="path2376" class="cls-5" d="M187.94,340.63c1.71-2.95,2.83-6.32,5-8.93a11,11,0,0,1,1.64-1.32"/><path id="path2378" class="cls-5" d="M186.35,335.86c1.76-2.87,3.75-5.58,5.54-8.43,1.36-2.17,2.69-4.34,3.94-6.6"/><path id="path2380" class="cls-5" d="M185.66,332c2.61-4.59,5.37-9.1,8.16-13.59,1.11-1.79,2.28-3.55,3.43-5.32"/><path id="path2382" class="cls-5" d="M184.25,327.73c1.25-2,2.39-4.08,3.71-6,1.47-2.19,3.23-4.18,4.7-6.37,1.2-1.76,2.18-3.66,3.35-5.44"/><path id="path2384" class="cls-5" d="M184.25,323.49c1.76-2.29,2.39-5.07,3.45-7.66.34-.85.54-1.76.94-2.59"/><path id="path2386" class="cls-5" d="M183.37,319.07c2.2-3.85,3.29-8.19,5.2-12.15,1.27-2.63,3-5,4.16-7.69.39-.85.67-1.74,1-2.61"/><path id="path2388" class="cls-5" d="M182.85,313.59c1.59-4.25,3-8.59,4.86-12.72.92-2,2.14-3.85,3.13-5.82a33.29,33.29,0,0,0,1.61-3.42c.17-.45.27-.92.41-1.37"/><path id="path2390" class="cls-5" d="M181.09,307.93c2.16-5,3.91-10.27,6.4-15.14,1-2,2.41-3.76,3.47-5.72.31-.58.56-1.18.84-1.77"/><path id="path2392" class="cls-5" d="M180,303.51a91.94,91.94,0,0,1,3.39-9.56c1.66-3.63,4.38-6.73,5.91-10.42a36.55,36.55,0,0,0,1.23-4.42"/><path id="path2394" class="cls-5" d="M179.69,296.26c1.72-3.76,3.22-7.62,5-11.33a75.11,75.11,0,0,1,3.91-7.23"/><path id="path2396" class="cls-5" d="M179,289.9a43.64,43.64,0,0,0,3-6.72c.75-1.8,1.47-3.61,2.05-5.48"/><path id="path2398" class="cls-5" d="M178.28,285.3a14.38,14.38,0,0,0,1.76-4.95,8.3,8.3,0,0,0,0-1.41"/><path id="path2400" class="cls-5" d="M231.12,323.66c.49-2.65.5-5.41,1.35-8a21.74,21.74,0,0,1,4-7.84c.91-1,2.27-1.48,3.4-2.22"/><path id="path2402" class="cls-5" d="M224.63,317.3c1.44-2.29,2.58-4.77,4-7.06a56,56,0,0,1,3.82-5.57c.93-1.17,1.65-2.77,3-3.28,1.69-.62,3.72-.05,5.37.67a1.13,1.13,0,0,1,.24.21"/><path id="path2404" class="cls-5" d="M224.45,311.82c1.46-1.7,2.77-3.52,4.14-5.29,1-1.35,1.74-3,3.06-4.08a13.24,13.24,0,0,1,3-1.41"/><path id="path2406" class="cls-5" d="M210.76,309.34a48.43,48.43,0,0,1,5.71-2.32c1.2-.31,2.57.1,3.71-.41a9.15,9.15,0,0,0,2.9-2.62,3.08,3.08,0,0,0,.32-.48"/><path id="path2408" class="cls-5" d="M227.26,304.22c1.28-1.18,2.3-2.72,3.81-3.58a14.11,14.11,0,0,1,4.21-1.24c.3-.07.62-.09.93-.13"/><path id="path2410" class="cls-5" d="M238.5,297c-2.23-.56-4.39-1.54-6.67-1.94a16,16,0,0,0-5.46-.38c-1.52.26-2.76,1.4-4.24,1.84-3,.88-6.2.79-9.23,1.53-1.84.46-3.52,1.48-5.38,1.78a21.82,21.82,0,0,1-3.43,0"/><path id="path2412" class="cls-5" d="M236.39,292a112.57,112.57,0,0,0-10-8.62c-2.19-1.57-4.38-3.3-6.93-4.12a14.11,14.11,0,0,0-5.22-.47,20.28,20.28,0,0,0-5.36,1.19,25.43,25.43,0,0,0-2.81,1.41"/><path id="path2414" class="cls-5" d="M240.08,294.32a77.13,77.13,0,0,0-5.13-6.53,71.6,71.6,0,0,0-9.84-7.93,24.76,24.76,0,0,0-4.77-2.93,13.89,13.89,0,0,0-4.4-1,31.88,31.88,0,0,0-8.41.94,23.8,23.8,0,0,0-5.59,1.84,32.86,32.86,0,0,0-3.82,2.68"/><path id="path2416" class="cls-5" d="M230.25,291c-2.46-.71-4.82-2.14-7.38-2.12-3.22,0-6,2.58-9.25,2.81-1.83.13-3.61-.93-5.44-.83a23.62,23.62,0,0,0-4.62,1.2"/><path id="path2418" class="cls-5" d="M225.51,286.89c-2.57-1.41-4.86-3.6-7.72-4.24a11.19,11.19,0,0,0-4.77.3,46.92,46.92,0,0,0-8.16,3.11c-1,.42-1.91.91-2.87,1.36"/><path id="path2420" class="cls-5" d="M219.36,287.42a44,44,0,0,0-7.35.37,57.42,57.42,0,0,0-6,1.58"/><path id="path2422" class="cls-5" d="M240.43,291.14c-1.9-2.41-3.78-4.84-5.89-7.06a58.57,58.57,0,0,0-5-4.62c-.74-.63-1.55-1.17-2.32-1.75"/><path id="path2424" class="cls-5" d="M241.84,289.9c-1.4-2.17-2.78-4.36-4.38-6.39a23.28,23.28,0,0,0-3.75-4.17,30.9,30.9,0,0,0-5.74-3"/><path id="path2426" class="cls-5" d="M241.13,299.27,239.9,297l-1.75-3L236,292"/></g></g><g id="g2428"><path id="path2430" class="cls-16" d="M96.17,477.78c3.06-2,6.52-3.47,9.27-5.88a47.69,47.69,0,0,0,8.83-10.57c3-4.84,5-10.27,6.89-15.64a53.23,53.23,0,0,0,2.52-9.17,66.6,66.6,0,0,0,.68-13.24,45.34,45.34,0,0,0-1.4-10.45,63.09,63.09,0,0,0-13.13-23.3c-2.45-2.7-5.46-4.83-8.19-7.25L89,398.53c1.3,2.38,2.82,4.77,3.14,7.44a14.3,14.3,0,0,1-1,6.28,10.24,10.24,0,0,1-2.6,4.61c-1.82,1.54-4.37,2.8-6.72,2.42-2-.32-2.94-2.84-4.75-3.73a14.92,14.92,0,0,0-4.19-1.06c-2-.32-4.32-1.6-6-.46-1.19.82-.14,3.21-1.21,4.18-1.45,1.32-3.83,1.39-5.76,1.07A7.45,7.45,0,0,1,56,417c-1.44-1.49-3.13-3.22-2.87-5.51-.05-1.32-.22-4-1.93-2.28-2.43.77-3.7,3.1-4.68,5.22a15.65,15.65,0,0,0-.95,7.07,14.67,14.67,0,0,0,1.16,5.52A15.29,15.29,0,0,0,51,432.66c1.49,1.2,3.51,1.51,5.21,2.4a11.64,11.64,0,0,1,3.34,2c.86.94-.55,3.84,1.66,3.44,1.91.45,3.65,1.34,5.54,1.71a21.79,21.79,0,0,0,4.41.39c2,0,4.08.11,5.86-.58,1.66-1,3.13-2.65,5.06-2.94a8.46,8.46,0,0,1,5.36,1.28,12.47,12.47,0,0,1,5.18,5.78,8.33,8.33,0,0,1,.2,5.13,11.47,11.47,0,0,1-2.72,4.31A32.79,32.79,0,0,1,86,459q5.09,9.38,10.18,18.75Z"/><path id="path2432" class="cls-17" d="M73.12,508.39c.32-4.85.36-9.74.85-14.57,1.72-9.37,3.45-18.74,5.57-28,1.16-5.8,2.92-11.45,4.47-17.16a14.52,14.52,0,0,0-4.67,1.68,12.88,12.88,0,0,1-4,.71,35.92,35.92,0,0,0,.74-8.53,155.5,155.5,0,0,0,.78-17.27,77.11,77.11,0,0,0,.09-10.08c0-1.67-1.79-1.07-2.93-1.29a20,20,0,0,0-6.63.42c.31,7.89.23,15.8.27,23.7.35,3,0,4.08.14,7.84-.09,1.45.18,4,.09,5.46-1.2-.63-2.08-.6-3-1.35-1.3-1.28-3.35-1.15-5-1.86-1.79-1-.27,1.3-.19,2.17,1.4,4.4,2.75,8.84,3.81,13.32A369.63,369.63,0,0,1,68.15,505c.2,1.11-.1,2.76.41,3.53l4.57-.13Z"/></g><path id="path2434" class="cls-13" d="M75.57,450.53a43.84,43.84,0,0,0-1.3,7.45,90.38,90.38,0,0,1-1.5,10.36,54.86,54.86,0,0,0-1.2,8.15c-.5,5-.7,10-1,15-.15-5.37-.29-10.75-.26-16.13-.39-3.36-.18-7.74-1-11-.34-3.37-.71-4.66-1-7.21,0-.79-.75-4.95-.75-5.74"/><g id="g2436"><path id="path2438" class="cls-12" d="M104.37,439a34.7,34.7,0,0,0-4.31-5.67A34,34,0,0,0,94.44,429a34,34,0,0,0,5.62-4.33,34.7,34.7,0,0,0,4.31-5.67,34.34,34.34,0,0,0,4.3,5.67A34.37,34.37,0,0,0,114.3,429a34.37,34.37,0,0,0-5.63,4.33,34.34,34.34,0,0,0-4.3,5.67"/><path id="path2440" class="cls-6" d="M76.56,414l2.23-.5a4,4,0,0,0,.08-2.1,24.33,24.33,0,0,1,2.66-2.9,8.22,8.22,0,0,0,.15-3.72c.07-.85-.56-1.3-1.15-1.78a9.31,9.31,0,0,0-.12-3.37c.81-.68,1.92-1.09,2.54-2a20.45,20.45,0,0,0,2.38-4.91,7.59,7.59,0,0,0,.72-3.38c.17-5.58.24-11.18.07-16.76a46.74,46.74,0,0,1,.31-7.2c.33-.91-1-.82-1.53-1.21-1.09,0,0-1.52-.88-1.55a2.59,2.59,0,0,1-2-1c-.42-.79-1.29-.5-2-.55s-1-1-1.55-1.49c-.45-.87-1.12.48-1.68.69-.57.72-1.16-.53-1.75-.75-.62-.89-1.19-.26-1.77.31-.57.93-1.17.33-1.78-.21-.59-.85-1.26.16-1.89.44-.15.72-.14,1.62-1.12,1.18-.75,0-1.19-1.09-1.94-.38-.55.49-.87,1.26-1.77,1.14s-1.25.47-1.27,1.32c-.59.23-1.81-.09-2,.5,0,10.63.48,16.63.5,27.25-.46,3.49,2,7.53,3.31,8.89.37.52.09,1.43.1,2.1.07,1.19-1.34,1.89-1.1,3.12a7.28,7.28,0,0,0,.54,3.6,26,26,0,0,1,1.47,2.66c0,.65-.82,1.76.22,1.86,1.65.65,3.49.34,5.23.5l4.75.14Z"/><g id="g2442"><path id="path2444" class="cls-5" d="M78.55,411a54,54,0,0,0-6-.24c-2.16,0-4.3.32-6.46.49"/><path id="path2446" class="cls-5" d="M80.53,403c-3.27,0-6.55-.1-9.82-.12-1.82,0-3.63,0-5.45,0"/><path id="path2448" class="cls-5" d="M79.92,399.9c-3.35-.09-6.7-.17-10-.1-1.33,0-2.65.13-4,.23"/><path id="path2450" class="cls-5" d="M75.57,410.4c.5-1.76,1.5-2.18,2.76-2.75s2.53-2.74,3-3.37"/><path id="path2452" class="cls-5" d="M70.6,410.9a7.6,7.6,0,0,1,3.88-4.16C76,406,76.7,404,77.31,403.4"/><path id="path2454" class="cls-5" d="M67.75,410.28a13.17,13.17,0,0,1,1.15-2.91c.55-.73,1.2-.9,2.18-1.66a8.28,8.28,0,0,0,2-2.18"/><path id="path2456" class="cls-5" d="M65.27,408.53a9.59,9.59,0,0,1,1.15-2.41c.7-1,2.21-1.19,2.57-2.59"/><path id="path2458" class="cls-5" d="M80.41,399.53a31.4,31.4,0,0,0,2-5.09,33.5,33.5,0,0,0,.86-6.31c.28-4.19-.16-8.39,0-12.59.1-3.22.3-6.44.62-9.65.06-.63.16-1.24.25-1.86"/><path id="path2460" class="cls-5" d="M82,361.9a60.39,60.39,0,0,0-1.52,7.5,68.09,68.09,0,0,0-.17,7.56c0,3.06.18,6.13.2,9.19,0,2.82.47,5.69-.07,8.45a25.58,25.58,0,0,1-1.87,4.7,1,1,0,0,0,0,.1h0"/><path id="path2462" class="cls-5" d="M79.54,361.15a61.09,61.09,0,0,0-1.36,6.22c-.59,6,.36,12,.32,18.05,0,3.54.37,7.14-.33,10.6a10.61,10.61,0,0,1-1.24,3.25"/><path id="path2464" class="cls-5" d="M76.19,360.78c-.17,5-.32,10-.25,15,0,3.34.56,6.66.46,10-.06,2.22-.73,4.41-.67,6.64,0,1.44.75,2.82.68,4.26a13.75,13.75,0,0,1-.71,2.77"/><path id="path2466" class="cls-5" d="M73.08,360.9c-.11,6-.27,12-.18,18,0,3.08.16,6.17.37,9.24.19,2.88,1.11,5.75.81,8.62a20.59,20.59,0,0,1-.87,2.75"/><path id="path2468" class="cls-5" d="M69.49,362c0,6.59-.18,13.18-.06,19.78,0,2.65,0,5.32.33,8,.22,2,1,3.87,1.07,5.86a28.54,28.54,0,0,1-.35,3.9"/><path id="path2470" class="cls-5" d="M65.52,362.53c.22,2,.64,4,.72,6,.13,3-.38,6-.32,9,.12,5.27.71,10.52,1.26,15.77.15,1.49.48,3,.57,4.46,0,.6,0,1.21,0,1.82"/><path id="path2472" class="cls-5" d="M63.53,364c.2,3.86.38,7.73.46,11.59.12,5.72-.85,11.51,0,17.16a43.8,43.8,0,0,0,2.23,7"/></g><path id="path2474" class="cls-4" d="M80,360.65c-.05-3.42-.09-6.83-.13-10.25-1.36-.34-2.72-.73-4.09-1s-2.53-.46-3.8-.72L70.35,348q.25,5.88.5,11.75L72.71,361l.87-2.12h1.24l1,.87-.37.75.87.25.87-1.5h.87l.74,1.5,1.25-.12Z"/><path id="path2476" class="cls-8" d="M80.14,313.79a7,7,0,0,1,2.2,1.12c1.87,2,2.46,4.86,3.37,7.42.66,1.85.8,3.87,1.52,5.69a27.09,27.09,0,0,0,2.64,4.92c.63,1,1.44,1.78,2.14,2.7.88,1.16,2.11,2.15,2.57,3.54a5.63,5.63,0,0,1,0,4,4.28,4.28,0,0,1-2.83,2.41c-.8.14-1.56-.45-2.28-.81a14.69,14.69,0,0,1-3.66-2.51c-.54-.54-1.82-4-1.3-1.88a26.7,26.7,0,0,1,0,5.16c-.19,1.18-.2,2.69-1.16,3.4-2.75,2-6.86.77-10.2.14a22.24,22.24,0,0,1-9.25-3.76,15.47,15.47,0,0,1-4.42-5.52,35.32,35.32,0,0,1-2.94-11.11,39,39,0,0,1-.08-6.92c.14-3.43.58-6.85,1-10.27.24-2,.67-4,.86-6.06.2-2.21,0-4.45.3-6.65a18.55,18.55,0,0,1,.51-2.71,10,10,0,0,1,2.69-2.27,18.93,18.93,0,0,1,5.94-2.4,11.3,11.3,0,0,1,4.06-.1l-.38,19.88a51.63,51.63,0,0,1,7.3,2.12c.39.28.75.17,1.36.51Z"/><g id="g2478"><path id="path2480" class="cls-5" d="M84.63,343.53a5,5,0,0,0-3.14-2.42c-3.44-1.16-7.31.67-10.89.07-.78-.13-2.42,0-2.23-.77s1.63.29,2.46.37a56.43,56.43,0,0,0,6.63.38c1.69,0,3.5.22,5.07-.44a5.8,5.8,0,0,0,2.73-2.31,4.73,4.73,0,0,0,.44-2,4.16,4.16,0,0,0,0-1.41c-.33-1.26-.72-2.71-1.77-3.45-1.56-1.1-3.77-.59-5.66-.69-3-.15-6,.45-9,.16-.55-.05-1.7.21-1.63-.35.13-1,2.05.06,3.07.1,1.65.08,3.3.34,4.94.27,2.78-.11,5.85.28,8.25-1.12a2.46,2.46,0,0,0,1.24-1.62,7.61,7.61,0,0,0-2.16-6,5.18,5.18,0,0,0-2.84-1.16A30.84,30.84,0,0,0,72,321c-1.16.08-3.07.83-3.45.49s2.24-.4,3.37-.52a31.46,31.46,0,0,1,4.55-.24c.8,0,1.57.37,2.37.34a4.49,4.49,0,0,0,2.44-.49,3.92,3.92,0,0,0,1.59-2.43,4.41,4.41,0,0,0-.58-2.83c-.28-.51-1.15-1-1.24-1.21"/><path id="path2482" class="cls-5" d="M71.1,311.15a13.34,13.34,0,0,0-2.93-.06,6.34,6.34,0,0,0-2.29.44"/><path id="path2484" class="cls-5" d="M71.26,307.34a16.88,16.88,0,0,0-3.39-.43,10.2,10.2,0,0,0-2.64.25A17.11,17.11,0,0,0,62,308.62c-.32.16-.63.35-.94.53"/><path id="path2486" class="cls-5" d="M71.1,304.9a30.93,30.93,0,0,0-4.19-.45,11,11,0,0,0-2.68.32,11.16,11.16,0,0,0-2,.78,6.09,6.09,0,0,0-2,1.1"/><path id="path2488" class="cls-5" d="M71.48,302.53a37.71,37.71,0,0,0-4.17-.71,14.4,14.4,0,0,0-4.57.91c-.86.31-1.64,1-2.44,1.3"/><path id="path2490" class="cls-5" d="M71.35,299.78a9.35,9.35,0,0,0-2.86-.62,17.3,17.3,0,0,0-5.47.93,12.48,12.48,0,0,0-2.35,1.25"/><path id="path2492" class="cls-5" d="M71.23,296.9c-1.34.09-3-.32-4.51-.11a16.46,16.46,0,0,0-4.52,1.45,11.3,11.3,0,0,0-1.28.79"/><path id="path2494" class="cls-5" d="M71.35,294.15a21.54,21.54,0,0,0-4.82,0,22,22,0,0,0-5.18,2.23"/></g><path id="path2496" class="cls-15" d="M153.77,402.53c-2.5-4.35-5.58-8.41-7.61-13a89.29,89.29,0,0,1-5.23-16.79,127.49,127.49,0,0,1-3.05-22.5,96,96,0,0,1,.75-13.23,251.13,251.13,0,0,1,3.69-25.49,140.89,140.89,0,0,1,5.44-20.37,63.3,63.3,0,0,1,5.51-11.61c.45-2-.24-3-2.36-2.8-5.23-.49-10.51-.26-15.76-.45-2.56,5-5.13,10.05-7.27,15.26a113.46,113.46,0,0,0-5.34,15.29c-2,7.81-2.86,15.87-3.74,23.88A149.23,149.23,0,0,0,117.52,351,79.35,79.35,0,0,0,119,363.81,86.4,86.4,0,0,0,123.45,380a61.4,61.4,0,0,0,6.51,11.7,37.45,37.45,0,0,0,5.45,6.4c4.26,1.26,8.56,2.46,12.86,3.6,1.45.38,2.64,1.88,4.36,1.08l1.14-.24Z"/><path id="path2498" class="cls-6" d="M135,397.76c-3.71-3.16-9-6.43-12.73-9.55-2.45-4.47-5.27-7.64-8-11.93-1.87-3.93-5.59-6.8-6.17-11.36-1.72-5.05-.22-11.09-4-15.37-2.29-4.86-8.52-7.85-8-13.66.24-4.85-3.72-8.28-5.9-12.2-3.27-3-7.1-5.31-8.8-9.69-2.49-1.33-1.26-4-1.35-6.22-.18-2.62.37-4.74,2.87-6.06,3.85-4.5.07-10.37-3.12-13.5.16-6,.32-12.46.48-18.44,8.86-.08,17.71.08,26.57,0,1,3.9,3.15,7.2,7.23,7.81,2.64,1.81,4.61,6.57,4.71,8.36,3.44-3,5.7-9.32,8.93-10.83,2.58,1.93,9.64-.93,5.81,3.88-4.44,10-10,19.77-11.75,30.76-2.26,14.68-4.94,29.46-4.46,44.37,1.47,9.56,2.78,19.36,6.64,28.3,2.74,5.54,7,10.61,11,15.33Z"/><g id="g2500"><path id="path2502" class="cls-5" d="M116.19,372.2l-2.66-11.26-2.39-9.65-1.07-13.14.53-11.8.54-13.14,2.13-13.94,2.39-8,3.2-5.63"/><path id="path2504" class="cls-5" d="M150,278.37c-8.78,3.3-15.21,10.23-21.83,16.62"/><path id="path2506" class="cls-5" d="M144.15,277.56a51.1,51.1,0,0,0-12.52,8.31"/><path id="path2508" class="cls-5" d="M138.82,277.83l-4.26,2.41"/><path id="path2510" class="cls-5" d="M150.53,281.32c-11.15,3.81-17.46,13.4-24.76,22"/><path id="path2512" class="cls-5" d="M147.87,286.68c-10.37,5.36-16.76,15.68-24.76,23.86"/><path id="path2514" class="cls-5" d="M145.21,292c-9,5.12-14.92,15-22.36,22.25"/><path id="path2516" class="cls-5" d="M144.15,297.13c-10.06,4.33-16.12,14.15-21.83,23.06"/><path id="path2518" class="cls-5" d="M142.28,302.23c-10.27,4.66-16.17,15.78-21,25.47"/><path id="path2520" class="cls-5" d="M141.22,306.78c-10.92,5.43-15.72,18.51-21.3,28.69"/><path id="path2522" class="cls-5" d="M140.15,311.34c-11.1,7.1-15.25,21.45-21,32.71"/><path id="path2524" class="cls-5" d="M139.35,316.7C129,323.75,125,337.23,120.2,348.41l-1.08,3.14"/><path id="path2526" class="cls-5" d="M138.56,322.33c-11.59,7.91-14.5,24.13-18.9,36.73"/><path id="path2528" class="cls-5" d="M137,328.23c-9.69,9.21-13.14,23.67-15.71,36.46"/><path id="path2530" class="cls-5" d="M122.85,369.79c1.07-12.3,4.11-24.61,12.51-34.05"/><path id="path2532" class="cls-5" d="M135.63,344.32c-9.55,9.17-9.72,22.57-11.18,34.85"/><path id="path2534" class="cls-5" d="M127.38,382.66a70.22,70.22,0,0,1,2.13-19.57"/><path id="path2536" class="cls-5" d="M130.3,387c0-4.39-.37-8.71,1.33-12.87"/><path id="path2538" class="cls-5" d="M132.7,392.58a14.81,14.81,0,0,1,.53-7.24"/><g id="g2540"><path id="path2542" class="cls-18" d="M80.8,303.84c4.46,1.56,9.43-3,8.54-7.5a20,20,0,0,0-8.81-14.48"/><path id="path2544" class="cls-18" d="M80.27,271.68c4.83,3.69,9.35,9.29,10.18,16.37l.12.51"/><path id="path2546" class="cls-18" d="M88.67,300.08c7.34-6.18,8.16-18,2.27-25.4a32.62,32.62,0,0,0-4.17-4.9"/><path id="path2548" class="cls-18" d="M94.83,289.16c2.9-3.49,5.08-9.65,4.44-14.59,0-.79-1.19-2.83-1.15-3.62"/><path id="path2550" class="cls-18" d="M100.9,283.19c2.23-2.76,4-8.18,2.59-12.54"/><path id="path2552" class="cls-18" d="M85.42,317.24a18.18,18.18,0,0,1,5.42-15c2.83-3.1,5.47-6.43,8.82-9,4.89-3.7,7.66-6.6,7.39-15.06"/><path id="path2554" class="cls-18" d="M109.89,277.12c.67,3.77,1,9.25-.81,13.29-1.77,3.84-5.82,6.22-9.14,8.89-4.41,3.56-10.17,5.77-11.66,11.46-.58,3.2,0,6.47-.16,9.7"/><path id="path2556" class="cls-18" d="M90.85,322.6c0-4-2-8.34.5-12,2.79-3.52,6.8-5.85,10.84-7.75,4.18-2.77,8.3-6.18,10.42-10.81,1.13-2.62,3.82-7.5,1.21-12.09"/><path id="path2558" class="cls-18" d="M93.29,324.21c.18-4.38-1.65-9.22.88-13.23a6.86,6.86,0,0,1,3.19-2.05"/><path id="path2560" class="cls-18" d="M96,326.36c.45-4.46-.56-9.58,2.7-13.27,2.44-2.82,5.46-5.1,7.62-8.17,1.5-1.86,3.36-3.77,3.81-6.17"/><path id="path2562" class="cls-18" d="M97.09,330.38c.23-5.61,2.47-11,5.48-15.7,2-2.79,5.46-4.74,6.47-8.16"/><path id="path2564" class="cls-18" d="M98.44,336.81c1.29-5.82,1-12.38,5.13-17.2a35.34,35.34,0,0,0,5.2-8"/><path id="path2566" class="cls-18" d="M100.35,338.69c1.44-6.87,5.33-12.89,7.65-19.46a22.27,22.27,0,0,0,.77-2.26"/><path id="path2568" class="cls-18" d="M104.15,343c-.2-4.06,1-8.07,2.31-11.88.81-1.85,2-3.71,1.76-5.81"/></g><path id="path2570" class="cls-5" d="M131.89,276.49c-3,2.26-6.12,4.43-9.31,6.43"/><path id="path2572" class="cls-5" d="M131.89,279.71c-4.82,3.31-10,6.44-13.55,11.24-.5.78-2.16,2.74-2.6,3.56"/><path id="path2574" class="cls-5" d="M129.14,285.16A36.35,36.35,0,0,0,118.3,295c-1,1.34-2.69,3.89-4.06,4.92"/><path id="path2576" class="cls-5" d="M126.19,291.54a74.11,74.11,0,0,1-7.28,6.75c-1,.9-4.46,4.62-5.56,5.35"/><path id="path2578" class="cls-5" d="M124.07,297.72c-3.21,2.35-7.1,6.49-10.54,8.53"/><path id="path2580" class="cls-5" d="M122.1,302.57c-2.69,2.33-6.48,6.8-10.27,8.67"/><path id="path2582" class="cls-5" d="M120.71,307.59a62.78,62.78,0,0,1-8.52,7.78"/><path id="path2584" class="cls-5" d="M119.65,311.88c-2.23,1.77-5.18,6-7.65,7.49"/><path id="path2586" class="cls-5" d="M119.58,315.38c-2.1,2.54-4.64,5.86-7.65,7.49"/><path id="path2588" class="cls-5" d="M118.86,320.46c-1.93,2.52-2.81,4.26-5.21,6.34l-2.18,1.67"/><path id="path2590" class="cls-5" d="M118.25,326.45a36,36,0,0,1-6.85,7.42"/><path id="path2592" class="cls-5" d="M117.35,331.2c-1.92,2.26-3.66,4.81-5.44,7.08"/><path id="path2594" class="cls-5" d="M116.7,336.37a33.09,33.09,0,0,1-5,6.34"/></g><path id="path2596" class="cls-6" d="M71.72,288c-.92,0-1.86-.06-2.77,0-2,.65-4.1,1.28-6.08,2.12a37.32,37.32,0,0,0-4,2.08,43.05,43.05,0,0,0-4.16,3.94,11.43,11.43,0,0,0-1.81,2.6c.1-1.71.31-3.42.33-5.13-.28-5.27-.24-9.65-.5-14.91.23-2.69,1.17-6.23,1.4-8.91,6.26.05,11.47-.06,17.73,0-.06,6-.12,12.16-.18,18.18Z"/><g id="g2598"><path id="path2600" class="cls-5" d="M71.55,279.29c-2.81.77-6.62.61-9.48,2.12a20.37,20.37,0,0,0-6.53,6.08,26,26,0,0,0-1.9,3.82"/><path id="path2602" class="cls-5" d="M71.9,271.87c-2.05.57-5,1-7.39,1.85-2.05.7-4.28,1.19-6,2.57-2.31,1.9-3.57,5.66-5.09,7.42"/><path id="path2604" class="cls-5" d="M63.29,269.78a24.41,24.41,0,0,0-6.2,3c-1.39,1.08-2.42,3.09-3.45,4"/></g></g><g id="g2606"><path id="path2608" class="cls-1" d="M58,305.46c-.89-.57-2.17-.39-3-1.06a16.13,16.13,0,0,1-2.28-4.53,2.65,2.65,0,0,1,.06-1.22,8.15,8.15,0,0,1,1.74-2.77,23.82,23.82,0,0,1,4.57-4.05,31.81,31.81,0,0,1,4.4-2.41,23.83,23.83,0,0,1,3.57-1.53,14.47,14.47,0,0,1,3.62-.63c.45,0,1-.17,1.35.17.38,1.69,0,2.59,0,3.89a19.46,19.46,0,0,0-3.74,0,24.14,24.14,0,0,0-5.09,2.09,18.56,18.56,0,0,0-2.36,1.18,5.82,5.82,0,0,0-2.94,4.13,11.46,11.46,0,0,0,.4,3,9.54,9.54,0,0,1,.17,1.76c0,.67.16,1.78-.49,2Z"/><path id="path2610" class="cls-9" d="M80.15,304.75l-.36-16.35a25.08,25.08,0,0,1,1.8,1.92,16.27,16.27,0,0,1,1.49,2.51,13.83,13.83,0,0,1,1.19,3,6.19,6.19,0,0,1,.18,2.26A9.68,9.68,0,0,1,83,301.84c-.74,1.14-1.88,1.62-2.83,2.91Z"/></g><path id="path2612" class="cls-14" d="M80.17,313.53l.12-43.75H72L71.35,311l3.48,1,3.35,1Z"/><g id="g2614"><path id="path2616" class="cls-9" d="M188.53,401.65c1.69-.43.86-2.12,1.14-3.22.63-2.53-.14-5.47,1.16-7.72.79-1.37,3.25-1.43,3.68-2.94.34-1.18-1.19-2.25-1.23-3.48a6.06,6.06,0,0,1,1.24-4.3c.72-.74,2.43-.07,2.95-1,.62-1.08-.34-2.49-.74-3.67-1.55-4.64-5.09-8.58-6.38-13.23-2,.68-4.06.57-6.11.74-3.51.3-7,.44-10.55.52-6.23.14-12.46.08-18.69-.06-4.93-.1-9.9.14-14.78-.58-2.06-.94-.63,1.7-.62,2.59,0,6.33,2.52,12.45,4.6,18.42a85.16,85.16,0,0,0,5,11c1.43,2.75,3,5.41,4.7,8,1.41-.4,1.65-1.64,2.23-2.64,1.85-3.23,1.6-7.49,3.75-10.53,1.47-2.09,3.4-4.61,5.94-4.83,3.69-.31,6.5,3.57,9.68,5.46a44.47,44.47,0,0,1,6.57,4.12c1.63,1.41,2.77,3.31,4.21,4.92a28.08,28.08,0,0,0,2.26,2.38Z"/><path id="path2618" class="cls-5" d="M192.38,382.9c-3.83-2.57-7.46-4.82-10.37-9.21-.53-.81-1.78-1.21-2.27-.59a36.2,36.2,0,0,1-4,4.95c-2.88,2.57-5.64,4.93-9.8,6.35-1.55.53-3.1-1.13-4.45-2.06-3.11-2.14-5.11-5.62-8.12-7.91-1-.75-2-2.21-3.24-1.88s-1.55,1.39-3.36,5.69c-1,2.45-1.14,5.21-1.81,7.79"/><g id="g2620"><path id="path2622" class="cls-9" d="M174.6,276.47l-11.24.35-9.66-.17-2.1,4.77-5.27,12.91-4.39,16.79-2.28,12-1,10.61V336l10.18.71,12.29-.53,11.41-.88,6.14-.27,3.69-.26L179.51,323l-2.11-11.84-1.49-11.84-.44-8.31Z"/><g id="g2624"><path id="path2626" class="cls-5" d="M174.77,293.44l-10.53-.53c-2.63-.12-5.26-.32-7.9-.35-3,0-9.13.17-9.13.17"/><path id="path2628" class="cls-5" d="M175.24,288.91s-7.45,0-11.17-.07c-2.52-.07-5-.17-7.55-.36s-7.2-.7-7.2-.7"/><path id="path2630" class="cls-5" d="M174.77,284.24s-7.13.57-10.69.53a79.14,79.14,0,0,1-9.85-.7c-.88-.12-2.63-.53-2.63-.53"/><path id="path2632" class="cls-5" d="M174.69,279.47s-6.36.43-9.54.43c-1.88,0-3.77-.11-5.66-.25-2.23-.17-6.67-.71-6.67-.71"/></g><path id="path2634" class="cls-4" d="M164.06,335.86l9.3-4.77s-.55-5.42-.7-8.13-.17-5.43-.17-8.14c0-3.12.17-9.37.17-9.37s-3.76-2.2-5.62-3.35a43.64,43.64,0,0,1-4.38-2.83,37.58,37.58,0,0,1-3.16-3.18l-1.23-.18S156,298,154.81,299c-1.55,1.27-3.25,2.33-4.79,3.61-1.16.95-3.34,3-3.34,3s-.2,6.24-.35,9.37-.33,6-.53,9c-.15,2.35-.52,7.07-.52,7.07s4.08,1.68,6.14,2.47c1.28.49,2.6.87,3.86,1.41,1,.42,2.81,1.42,2.81,1.42Z"/><path id="path2636" class="cls-5" d="M160.46,333s2.71-1.67,4.13-2.39,4.21-1.85,4.21-1.85-.42-2.88-.52-4.33c-.16-2.15-.15-4.3-.18-6.45,0-1.65,0-3.3,0-4.95,0-1.18-.08-2.36,0-3.54.06-.83.35-2.48.35-2.48s-1.73-1.2-2.63-1.76-1.65-.93-2.46-1.42-1.91-1.11-2.81-1.77-2.19-1.85-2.19-1.85-1.84,1.5-2.72,2.3-1.66,1.57-2.46,2.38c-1,1-2.81,3-2.81,3s0,5.78,0,8.66c0,2-.11,4-.17,6l-.18,5.84s2.59,1.27,3.86,1.94,2.33,1.32,3.51,1.95l1.76.88Z"/></g><path id="path2638" class="cls-12" d="M159.17,325A26,26,0,0,0,156,320.7a25.74,25.74,0,0,0-4.22-3.25A25.74,25.74,0,0,0,156,314.2a26,26,0,0,0,3.22-4.25,20.21,20.21,0,0,0,7.45,7.5,20.21,20.21,0,0,0-7.45,7.5"/><path id="path2640" class="cls-5" d="M115,370.79l-2.66-11.26-2.4-9.65-1.06-13.14.53-11.8.53-13.14,2.13-13.94,2.4-8,3.19-5.63"/></g><g id="g2642"><path id="path2644" class="cls-14" d="M239.9,269.78a12.12,12.12,0,0,1-1.93,3.15,5.75,5.75,0,0,1-2.28,1.06,36.12,36.12,0,0,1-7.9,1.06c-3.62.24-7.26-.1-10.89,0-4.22.12-8.42.56-12.64.71-3.92.14-7.84.05-11.76.18-6.09.19-12.16.73-18.26.88-7,.17-13.93.12-20.89,0-5-.09-10.07-.25-15.1-.53a56.74,56.74,0,0,1-7-.53c-1.68-.3-3.65-.26-4.91-1.41a3.28,3.28,0,0,1-.71-1.77,17.09,17.09,0,0,1-.17-2.8Z"/><path id="path2646" class="cls-5" d="M238.67,271.69s-5.13,1-7.73,1.24c-8.57.65-17.2-.27-25.8-.18-10.42.11-20.83.8-31.25.88-5.27.05-10.53-.1-15.8-.17-3.68,0-7.37-.15-11.06-.18s-7.61.19-11.41,0c-1.82-.09-3.63-.29-5.44-.53-1.41-.19-4.21-.71-4.21-.71"/></g></g><g id="text21065"><path id="path21472" class="cls-3" d="M36.4,68.28q0,5.77-2.34,8.9a7.38,7.38,0,0,1-6.25,3.13,15.39,15.39,0,0,1-2.5-.27,15.65,15.65,0,0,1-2.62-.59V74h.22a18.9,18.9,0,0,0,2,.85,6.63,6.63,0,0,0,2.4.45,5.63,5.63,0,0,0,2.85-.62,3.72,3.72,0,0,0,1.58-1.77A8.6,8.6,0,0,0,32.38,70c.1-1.14.15-2.46.15-4V40.45H26.38V35.8h10V68.28Z"/></g><g id="text21069"><path id="path21469" class="cls-3" d="M326.25,470c0-3.85.78-6.81,2.35-8.9a7.39,7.39,0,0,1,6.25-3.12,21.87,21.87,0,0,1,5.11.85v5.46h-.21a18.74,18.74,0,0,0-2-.86,6.84,6.84,0,0,0-2.4-.44,5.7,5.7,0,0,0-2.86.62,3.73,3.73,0,0,0-1.58,1.77,8.79,8.79,0,0,0-.66,2.89c-.11,1.14-.16,2.45-.16,3.95v25.61h6.15v4.66h-10V470Z"/></g></g></g></g></svg>