<svg xmlns="http://www.w3.org/2000/svg" viewBox="0 0 360 540"><defs><style>.cls-1,.cls-17{fill:#fff;}.cls-1,.cls-10,.cls-11,.cls-12,.cls-13,.cls-14,.cls-15,.cls-16,.cls-17,.cls-18,.cls-19,.cls-20,.cls-21,.cls-22,.cls-3,.cls-4,.cls-5,.cls-6,.cls-7,.cls-8,.cls-9{stroke:#000;}.cls-15,.cls-2{fill:#f55;}.cls-11,.cls-16,.cls-3,.cls-8{fill:none;}.cls-3{stroke-linecap:square;stroke-width:2px;}.cls-18,.cls-4,.cls-5{fill:#55a;}.cls-10,.cls-11,.cls-13,.cls-16,.cls-17,.cls-18,.cls-19,.cls-21,.cls-22,.cls-4,.cls-9{stroke-linecap:round;}.cls-10,.cls-11,.cls-13,.cls-17,.cls-18,.cls-19,.cls-21,.cls-22,.cls-4,.cls-9{stroke-linejoin:round;}.cls-6{fill:#a00;}.cls-7,.cls-9{fill:#fa5;}.cls-10{fill:#aaa;}.cls-12,.cls-14,.cls-22{fill:#faa;}.cls-12{fill-opacity:0.98;}.cls-13,.cls-20{fill:#a50;}.cls-18{stroke-width:0.79px;}.cls-21{fill:#aaf;}</style></defs><g id="Layer_2" data-name="Layer 2"><g id="svg2"><g id="g21480"><rect id="rect574" class="cls-1" x="0.5" y="0.5" width="359" height="539" rx="29.94"/><path id="path578" class="cls-2" d="M30,97.5s.68-4.18,2-5.5a8.56,8.56,0,0,1,11,0,8.28,8.28,0,0,1,2,5.5,9.45,9.45,0,0,1-2,5.5c-1,1-2,1.5-3,2.5s-1.5,1-2.5,2L35,110a17.81,17.81,0,0,0-5,10,21.42,21.42,0,0,0-1.5-5,21.54,21.54,0,0,0-3.5-5l-2.5-2.5c-1-1-1.5-1-2.5-2s-2-1.5-3-2.5a9.45,9.45,0,0,1-2-5.5A8.28,8.28,0,0,1,17,92a8.56,8.56,0,0,1,11,0c1.32,1.32,2,5.5,2,5.5"/><path id="path580" class="cls-2" d="M330,442.5s.68,4.18,2,5.5a7.51,7.51,0,0,0,13-5.5,9.45,9.45,0,0,0-2-5.5c-1-1-2-1.5-3-2.5s-1.5-1-2.5-2L335,430a17.81,17.81,0,0,1-5-10,17.81,17.81,0,0,1-5,10l-2.5,2.5c-1,1-1.5,1-2.5,2s-2,1.5-3,2.5a9.45,9.45,0,0,0-2,5.5,7.79,7.79,0,0,0,13,5.5c1.32-1.32,2-5.5,2-5.5"/><path id="path582" class="cls-2" d="M90,60s1.82-11.15,5.33-14.67S105,40,110,40s11.15,1.82,14.67,5.33S130,55,130,60s-2.67,12-5.33,14.67-5.34,4-8,6.66-4,2.67-6.67,5.34l-6.67,6.66A57.73,57.73,0,0,0,94,106.67C91.33,112,90,120,90,120s-1.33-8-4-13.33a57.73,57.73,0,0,0-9.33-13.34L70,86.67C67.33,84,66,84,63.33,81.33s-5.33-4-8-6.66S50,65,50,60s1.82-11.16,5.33-14.67S65,40,70,40s11.15,1.82,14.67,5.33S90,60,90,60"/><path id="path584" class="cls-2" d="M270,480s1.82,11.15,5.33,14.67S285,500,290,500s11.15-1.82,14.67-5.33S310,485,310,480s-2.67-12-5.33-14.67-5.34-4-8-6.66-4-2.67-6.67-5.34l-6.67-6.66A57.73,57.73,0,0,1,274,433.33C271.33,428,270,420,270,420s-1.33,8-4,13.33a57.73,57.73,0,0,1-9.33,13.34L250,453.33c-2.67,2.67-4,2.67-6.67,5.34s-5.33,4-8,6.66S230,475,230,480s1.82,11.15,5.33,14.67S245,500,250,500s11.15-1.82,14.67-5.33S270,480,270,480"/><g id="g590"><path id="path592" class="cls-3" d="M50,30H330V410"/><path id="path594" class="cls-3" d="M310,510H30V130"/><path id="path596" class="cls-3" d="M30,270H330"/></g><g id="g598"><g id="g600"><path id="path602" class="cls-4" d="M318.37,234.13l-.25,5.63-.25,4-1,3.5-1,3.75-.88,2.12.38,2.75-.25,4.25-.38,2.38-1.12,3-1,2.87-.75,1.25L269,269.38l-.87-1.5-1.38-3.75-1.12-2.25-1.13-3.37-.75-5.25-.5-5,.13-3-.63-2.38-.5-3.75-1.12-4-1.5-2.37-.5-2.75-.63-2.75-.62.37L256.49,232l-1.75,4.12-.75,3-1.25,4.13-.87,2.25-.5,3.12.12,3.63-.37,1.37-.13,1.75-.5.75L247.62,258l-3.13,1.5-4.37.87-4.75,1.13-4.13.37-4.75.5-2.87-.25L236,248.63l8.88-9.37,6.12-8,6.75-9.13,8.38-13.75,3.25-5.87,11.75-19.88,3.37-4.75,6.75-.25.38,36-1,.38-3.75,4.75-1.25,2.12-5.25,8.88L279,232.51l-1.12,1.75,3.62,4.62,5,3.38,3.5,1.5,5.75-.38,4.88-1h3.75l5.37-2.5,4-2.25Z"/><path id="path604" class="cls-5" d="M208,161.5,205.75,200s12-17.71,17.75-26.75c5.35-8.47,15.5-25.75,15.5-25.75l-15.5-6Z"/><path id="path606" class="cls-5" d="M98,163.75a145.85,145.85,0,0,1,14.94-7c7.28-3,13.87-8.78,21.47-11,6.7-2.42,13.39-3.6,20.09-6,0,10.32.4,20.65.1,31l-4.09,53-5,4.5c-4.6-2.91-9.62,4.19-12.12,2.09L98,163.75Z"/></g><g id="g608"><path id="path610" class="cls-6" d="M153.75,168.5l-2,15-1,18.25-1,16.25,1.75,43.5,51.75-22.25L206.5,194l1-18.25.75-13.25L195,149.25l-25.5-.5-10.75,7.75Z"/><path id="path612" class="cls-7" d="M175.5,156.25,173.75,167l-1,13.75-.75,16.5L171.75,208,171,220l11-3.25L181.75,201l1-22,1.5-15,.75-8.25-5.25.75Z"/><path id="path614" class="cls-8" d="M180,156.75l-1.25,8.5-1.25,11L177,191.5l-.5,11.5v8.75l-.25,6.75"/></g><g id="g616"><g id="g618"><path id="path620" class="cls-9" d="M165.75,186.5a3.88,3.88,0,1,1-3.87-4A3.93,3.93,0,0,1,165.75,186.5Z"/><path id="path622" class="cls-9" d="M166.38,170.25a3.88,3.88,0,1,1-3.88-4A3.94,3.94,0,0,1,166.38,170.25Z"/><path id="path624" class="cls-9" d="M165.12,203.5a3.87,3.87,0,1,1-3.87-4A3.93,3.93,0,0,1,165.12,203.5Z"/><path id="path626" class="cls-9" d="M199.12,171.25a3.87,3.87,0,1,1-3.87-4A3.93,3.93,0,0,1,199.12,171.25Z"/><path id="path628" class="cls-9" d="M197.88,186.75a3.88,3.88,0,1,1-3.88-4A3.94,3.94,0,0,1,197.88,186.75Z"/><path id="path630" class="cls-9" d="M197.62,203.25a3.87,3.87,0,1,1-3.87-4A3.93,3.93,0,0,1,197.62,203.25Z"/></g><path id="path632" class="cls-7" d="M130,262.5h14.5a42,42,0,0,0,6.1-2.79c1.61-.92,3.27-1.8,4.79-2.85a7.78,7.78,0,0,1,2.56-2.08l2.55-1.28c-.15-.45.32-1.51-.29-1.5a20.22,20.22,0,0,0-4.71.5c-1.36-.11-2.75-.11-4.08-.3-1.28-.82-2.67-1.49-3.88-2.41-1.12-1.16-2.33-2.25-3.39-3.46-.63-1.06-1.36-2.09-1.91-3.18a30.77,30.77,0,0,1-.4-6.13,28.18,28.18,0,0,1,.24-3.2,22.45,22.45,0,0,1,1.31-2.7l1.86-1.62v-1.75a22.75,22.75,0,0,0-2.59-.72,29.52,29.52,0,0,0-4.95,2.18A22,22,0,0,1,133.5,231q-1.75,15.75-3.5,31.5Z"/></g><path id="path634" class="cls-1" d="M152.91,143a14.25,14.25,0,0,0-1.77,11.38c.87,4.15,3.17,8.17,2.32,12.53,0,3.19,2.67,1,2.94-.81,3-4.23,7.69-7.06,12.53-8.73,3.79-.78,7.71-1.59,11.55-.66,3.89.22,7.82-1.46,11.66-.09,3.52,1.09,4.86,5.06,8,6.89,2.33.81,1.77,4.78,3.78,4.68,1.83-.09,2.75-5.63,5.38-7.55,2.75-3.86,6.92-6.53,9.17-10.78,1.86-3.17,5.05-5.66,5.42-9.56,1.37-4.76,2.82-10.32-.25-14.77-2.27-4.06-7.21-4.74-11.29-5.87a68.52,68.52,0,0,0-50.46,8.84c-2.86,1.82-6.06,3.84-6.85,7.4-.77,2.35-1.12,4.82-2.1,7.1Z"/><g id="g636"><path id="path638" class="cls-9" d="M30.75,175.41c7.72-3.93,9.3-12.13,9.69-18.48a78,78,0,0,0,20.07,2c9.61-.58,20.1-4.75,28.06-9.89C92.36,154,95.33,160,100.9,167.8c10,14.88,21.2,29.09,29.52,45,3.17,10.93,3.64,16.13,3.63,24,0,12.31-1.39,21.58-5.77,29.93-2.45,2.67-3.31,3.14-8.32,3H68.76c-7.13-4-14.4-7.76-20-13.84-6.93-7.32-10.94-12.85-18.22-20.16.17-20,.08-40.34.25-60.34Z"/><path id="path640" class="cls-10" d="M30.41,201.65c2.26-.81,4.79-1.15,6.9-2.26a79.38,79.38,0,0,0,9.18-8.78c1.87-2.59,4-5.06,5-8.15.58-1.36,1.14-3.45,3.05-3.08,3.84,0,7.7.15,11.48-.68a62,62,0,0,0,14.45-4.24c1.91-1.17,2.29-1.23,3.49.89A220.76,220.76,0,0,0,97,194a129.17,129.17,0,0,1,10.56,16.84,40.63,40.63,0,0,1,4,9.18,49,49,0,0,1,2.28,12.4c.56,7.61-.67,15.21-2.18,22.65-3.67,1.13-7.58.92-11.37,1.21-4.79-.59-9.66-.8-14.41-1.6-5.29-1.61-10.73-3.15-15.31-6.35-2.8-1.9-6.13-3-8.36-5.65-3.37-3.49-6.65-7.11-9.75-10.85-5.31-7-8.26-9.44-13.86-16.18-1.5-1.87-5.53-6.19-8.16-8.87l-.09-5.1Z"/><g id="g642"><path id="path644" class="cls-11" d="M30.25,198l4.25-1.25L38.75,194l5-5.25,3.5-5,2-5.75.75-2,1.25-.5,5.5.75,7.25-.5,8.25-1.5,5-1.75,3.5-1.5c1.67-.57,1.84-1,3.25-1.25l7,10.5s9.22,13.13,13.75,19.75c2.44,3.57,5.33,6.88,7.25,10.75A56.3,56.3,0,0,1,116.5,224a59.88,59.88,0,0,1,1.25,13.75,56,56,0,0,1-1,7.5c-.44,2.84-1.5,8.5-1.5,8.5l-1.5,4.5-7,1L98.5,259l-8-1-8-1.25-8.5-3-8-4.25-6.25-4-4-4.5L35.5,217.5,30.25,211Z"/><path id="path646" class="cls-11" d="M30.25,179.5c2.8-1,6.28-1.54,7.71-4.5,2.72-3.52,5-7.51,5.54-12,1.89-1.05,4.13.43,6.2.32a33.58,33.58,0,0,0,14.08-.54c5.33-1,10.75-2,15.6-4.56,2.46-1.09,7.87-4,7.87-4s.46.62,4.71,6.73c10.25,15.18,19.49,28.1,29.59,43.38,2.76,4.46,5.55,9,6.8,14.15,2.42,8.7,1.81,17.81,2.15,26.74-1.65,7.53-2.3,15.62-6.56,22.24a3.63,3.63,0,0,1-4.48,2.26H77.24c-6.16-3-12.71-5.41-18.22-9.46A81.21,81.21,0,0,1,42.84,244c-4.14-4.72-8.14-9.61-12.85-13.78q.12-25.38.25-50.75Z"/></g><g id="g648"><path id="path650" class="cls-9" d="M51.25,170.25A3.25,3.25,0,1,1,48,167,3.26,3.26,0,0,1,51.25,170.25Z"/><path id="path652" class="cls-9" d="M69.75,168a3.25,3.25,0,1,1-3.25-3.25A3.26,3.26,0,0,1,69.75,168Z"/><path id="path654" class="cls-9" d="M87.75,163a3.25,3.25,0,1,1-3.25-3.25A3.26,3.26,0,0,1,87.75,163Z"/><path id="path656" class="cls-9" d="M99,176.25A3.25,3.25,0,1,1,95.75,173,3.26,3.26,0,0,1,99,176.25Z"/><path id="path658" class="cls-9" d="M111.75,195a3.25,3.25,0,1,1-3.25-3.25A3.26,3.26,0,0,1,111.75,195Z"/><path id="path660" class="cls-9" d="M123.25,214.5a3.25,3.25,0,1,1-3.25-3.25A3.26,3.26,0,0,1,123.25,214.5Z"/><path id="path662" class="cls-9" d="M127.25,237a3.25,3.25,0,1,1-3.25-3.25A3.26,3.26,0,0,1,127.25,237Z"/><path id="path664" class="cls-9" d="M120.75,263.25A3.25,3.25,0,1,1,117.5,260,3.26,3.26,0,0,1,120.75,263.25Z"/><path id="path666" class="cls-9" d="M100,264.75a3.25,3.25,0,1,1-3.25-3.25A3.26,3.26,0,0,1,100,264.75Z"/><path id="path668" class="cls-9" d="M80.25,262.5A3.25,3.25,0,1,1,77,259.25,3.26,3.26,0,0,1,80.25,262.5Z"/><path id="path670" class="cls-9" d="M61.75,251.75a3.25,3.25,0,1,1-3.25-3.25A3.26,3.26,0,0,1,61.75,251.75Z"/><path id="path672" class="cls-9" d="M46,235.25A3.25,3.25,0,1,1,42.75,232,3.26,3.26,0,0,1,46,235.25Z"/><path id="path674" class="cls-9" d="M36.75,187.5a3.25,3.25,0,1,1-3.25-3.25A3.26,3.26,0,0,1,36.75,187.5Z"/></g></g><path id="path676" class="cls-12" d="M148.08,226.56c3.9-3,5.88-5.23,11.43-8.59,2.87-1.73,3.64-3.54,7.49-4.48s10.56-1.08,14.28-1.64c4.41-.67,5.51-.27,10.08.11,1.66,0,8.24-1.11,6.78.31-3.23,4.82-9.16,11.61-14,17.2-4.35,5-8,11-13.5,14.65-2.13,1.42-5,1.39-7.22,2.63-1.34.74-2.26,2.13-3.62,2.82-2.87,1.47-6.13,3.34-9.29,2.68-3-.61-5.48-3.14-7-5.75-1.74-3-1.93-6.78-1.76-10.25a12.24,12.24,0,0,1,1.71-6.35c1.08-1.56,3.12-2.18,4.63-3.34Z"/><g id="g678"><g id="g680"><path id="path682" class="cls-11" d="M191.73,220.46a65,65,0,0,0-8.89-1,59.57,59.57,0,0,0-8,1.19"/><path id="path684" class="cls-11" d="M183.79,229.29a47.44,47.44,0,0,0-6.27-.7,38,38,0,0,0-4.88.66"/><path id="path686" class="cls-11" d="M177.75,236.54a41,41,0,0,0-5.36-.15,18.87,18.87,0,0,0-2.33.49"/></g><path id="path688" class="cls-11" d="M164.4,236.83c.07-.86,1-1.22,1.24-1.94"/><path id="path690" class="cls-11" d="M164.23,229.76c.3-.56,1-.82,1.41-1.24"/><path id="path692" class="cls-11" d="M164.93,222.16c0-.81.9-1.23,1.59-1.41"/></g><path id="path694" class="cls-6" d="M144.6,262.64l7.6-3.89,6.19-3.89,5.83-5.12,5.84-5.31,10.43-10.6,9-11.49,8.48-11,9-12.73,12.73-19.8,12-18.56,6.36-12,4.6-8,10.78,6.54,8.13,5.3,6,5.31,2.3,1.06-4.42,9.19-11.31,20.68-12.37,19.45-17.15,22.63-10.43,12.19-10.61,10.43-11,9.55Z"/><g id="g696"><path id="path698" class="cls-8" d="M154.15,262.63c13.81-7.17,23.31-19.88,33.17-31.52,19.89-23.47,36.25-49.83,51.72-76.43q3.47-6.18,6.72-12.49"/><path id="path700" class="cls-8" d="M266.68,156.61c-13.45,32.8-34.46,60.63-57.58,86.38a125.41,125.41,0,0,1-22.4,19.64"/></g><path id="path702" class="cls-5" d="M152.93,64.91c-3.87,1.3-8.23-1.14-10.56-4.26-3.27-3.81-1.47-9.22.16-13.34,2.76-4.8,7.68-7.84,12-11.09,10.57-5.41,22.84-5.64,34.46-5.79,8.86.13,18,.51,26.3,4a57.25,57.25,0,0,1,20.63,18.32c5.71,7.55,10.55,15.93,11.24,25.65.21,4.28-3.61,7.33-7,9.28-4.06,1.24-9.28,1.15-12.31-2.28-5.13-4.52-7.53-11.12-11.79-16.3-4.22-4.64-10.41-6.68-16-9-10-2.85-20.56-3.49-31-3.61-5.3.48-11.39.37-15.48,4.33-1.09,1.26.16,3-.72,4.12Z"/><g id="g704"><path id="path706" class="cls-13" d="M153.5,69.75c-2.94,2.4-4.21,7.41-7.22,10.39-2.05,4.64,1.34,10.27-1.5,14.62-1.83,3.63-.86,8.1-4.78,10.74-1.2,5.13-.25,9.71-3,14.56-2.33,1.82.87,7.14-4.39,4.77-7.08.56-2.72,11.26-8.27,13.44-3.12,3.64-.83,8.47,2.51,10.33,3,2.34,7.18-3,11.18-2.35,4.67-.9,9.31-1.77,13.37-4.29,3.62-2.64,7.4-2.5,9.72-5.38,2.7-3.36,3.11-7.29,3.68-12.4,2.51-13.36,4.76-27.35,1.42-40.76-1.6-6.3-6-12.34-12.69-13.67Z"/><g id="g708"><path id="path710" class="cls-11" d="M139,113.84c.7,2.18-.26,10-1,12.55-.68,2.21-.14,6.33-2.48,6.65-1.84.24-5.85-1.85-4.14-4,1.2-1.53,3.57,0,3.57,0"/><path id="path712" class="cls-11" d="M152.9,83.42c-2.73,7.51-3.5,15.49-5.23,23.24-.63,2.81-1.5,5.57-1.87,8.42-.71,5.39.95,11.11-.68,16.29-.74,2.36-2.6,4.22-4,6.27-1.58,2.31-2.48,5.46-4.94,6.78-2.14,1.14-5.77,2.19-7.26.29s-.34-6.22,1.88-6.4c1.35-.11,4.45,2.29,1.76,3.67"/><path id="path714" class="cls-11" d="M126.15,136.85a7.12,7.12,0,0,1,8-.69c1.93,1.26,4.34,0,5.17-2a14.69,14.69,0,0,0,2.13-7,33.64,33.64,0,0,0,.89-8.92c1.12-3.53.33-4.35,1.57-8.14A37.7,37.7,0,0,1,147,98.6c1.79-3.92,1.59-8.28,1.88-12.48.47-3.69,1.58-7.61,4.31-10.28"/></g></g><g id="g716"><path id="path718" class="cls-8" d="M152.9,99.5c-1.87,4.11-2.56,8.62-3.28,13-.75,4.63-.33,9.4-1,14s-1.26,9.31-3.15,13.54a23.44,23.44,0,0,1-4.06,5.79"/><path id="path720" class="cls-8" d="M152.9,112.55c-.46,6.35-.63,12.76-1.76,19-.6,3.34-1.09,6.82-2.67,9.83a12.18,12.18,0,0,1-2.55,3"/><g id="g722"><path id="path724" class="cls-11" d="M152,141.67c1.11-3.95,2.74-5.07,2.85-10.57,0-2.4,2.31-4.55,1.32-7.08"/><path id="path726" class="cls-11" d="M159.88,129.84c-1.74,2.27-1.33,3-1.95,4.47-.67,1.65-.72,3.34-1.92,5"/></g></g><path id="path728" class="cls-14" d="M154,65.25c-1.23,2.11-.83,4.82-1,7.25a50,50,0,0,0,0,6c.08,1.59.37,3.16.5,4.75.12,1.41.26,2.83.25,4.25a64.84,64.84,0,0,1-.5,7.5c-.18,1.51-.63,3-.75,4.5a64.64,64.64,0,0,0,0,7.75,35.22,35.22,0,0,0,.5,6.25c.36,1.65,1.24,3.14,1.75,4.75s.62,3.24,1.25,4.75a31.33,31.33,0,0,0,2.5,4.25c1,1.6,1.91,3.22,3,4.75.93,1.3,2.25,2.34,3,3.75a24.76,24.76,0,0,1,1.25,4,30.31,30.31,0,0,0,1.25,3.5,33.23,33.23,0,0,0,2.25,3.75,37.82,37.82,0,0,0,3.75,5.5,14.09,14.09,0,0,0,3.75,3,9.33,9.33,0,0,0,3.5,1A15.56,15.56,0,0,0,185,156a17.18,17.18,0,0,0,5.75-2c2.37-1.55,3.79-4.21,5.75-6.25,1.79-1.87,3.71-3.62,5.5-5.5,1.63-1.71,3.24-3.44,4.75-5.25,1.14-1.37,2.21-2.8,3.25-4.25a38.9,38.9,0,0,0,4-6,38.43,38.43,0,0,0,3.25-11.25,38,38,0,0,0-.25-8.25,108,108,0,0,0-2-12.75c-.66-3-1.61-6-2.5-9-.95-3.18-1.91-6.36-3-9.5-1.31-3.79-1.49-8.34-4.25-11.25-2-2.11-5.21-2.66-8-3.5a53.2,53.2,0,0,0-13-2.25c-2.93-.13-5.83.59-8.75.75-3.33.18-6.7-.24-10,.25a24.49,24.49,0,0,0-7.25,2C156.65,62.79,154.9,63.71,154,65.25Z"/><path id="path730" class="cls-15" d="M162.62,120.63c.33-1,1.47-1.28,2.22-1.88.56-.42.9-1.19,1.69-1.22a2.48,2.48,0,0,1,2.48.82c.53.49,1.58.42,1.59-.35a3.74,3.74,0,0,1,2.09-.3,10.75,10.75,0,0,1,3.33,1.63c.52.27,1.32.48,1.35,1.17-.21.79-1.36.56-1.73,1.25-.83,1-1.32,1.14-2.21,2.07a4.25,4.25,0,0,1-2.61,1.94,10.3,10.3,0,0,1-4.08-.43,2.78,2.78,0,0,1-2.06-1.65c-.23-.79-.74-.37-1.18-1.05a15.89,15.89,0,0,1-.88-1.81v-.19Z"/><path id="path732" class="cls-7" d="M154.36,65.8c2-.13,2.8-1.1,5.52-1.9A22,22,0,0,1,170,62.41c6.38,0,12.82-.38,19.15.55,6.57,1.42,13.24,2.93,19.28,6,2,1.21,4,2.57,6,3.81,2.33.37,3.2-3.56,1.5-4.87-2.31-2.42-5.65-3.37-8.48-5-9.06-4.28-19.1-6.14-29.06-6.66-7.06-.09-14.36-.38-21.11,2.08a8,8,0,0,0-5.12,5.39c-.64,2.59.15,2.28,2.15,2.15Z"/><g id="g734"><path id="path736" class="cls-11" d="M153,77.75c2.95.21,5.92.29,8.88.26,1.26.95,3.25,1.64,3.29,3.5.19,2,.84,4.08.67,6.15-.33,1.93-1.08,3.75-1.48,5.66-.84,3.35-1.73,6.71-2.36,10.1-.72,2.68.21,3.88,2,4.68.86,1,1.29,2.76,2.81,3,2.08,0,2.23-2.71,3.88-3.41a3.76,3.76,0,0,1,3.79,1.41c1.62.3,2.21-1.71,2-3a3.71,3.71,0,0,0-2.21-2.86"/><path id="path738" class="cls-16" d="M198.25,82.25a27.16,27.16,0,0,1-4.11-2.56c-.73-.72-1.35-1.69-2.45-1.87-1.64-.37-3.31.05-5-.09-2.18,0-4.36,0-6.53.07a8.58,8.58,0,0,0-3.07.86c-1,.5-.81,1.69-.62,2.59"/><path id="path740" class="cls-11" d="M154,84a17.94,17.94,0,0,1,4.25-1,14,14,0,0,1,4.25,1c1,.33,3,1.24,3,1.24"/></g><path id="path742" class="cls-1" d="M154.12,87.63a25.36,25.36,0,0,1,5.37-1.87,5.81,5.81,0,0,1,2.75.25,14.33,14.33,0,0,1,3.25,2.25l-1.25,3.25s-2.15.55-3.25.75a17.7,17.7,0,0,1-3.75.5,20.06,20.06,0,0,1-3.5-.75Z"/><g id="g744"><path id="path746" class="cls-11" d="M179.25,85.5a15.81,15.81,0,0,1,3-1.5,19.29,19.29,0,0,1,4.5-.25,11.61,11.61,0,0,1,2.5,0,14,14,0,0,1,3.75,1.5,34.74,34.74,0,0,1,3,2l.75.5"/><path id="path748" class="cls-17" d="M179.25,90.5a9.11,9.11,0,0,1,2-2.5,6,6,0,0,1,2.5-.75,23.53,23.53,0,0,1,5.5,0c1.43.13,2.81.7,4.25.75.75,0,1.92-.93,2.25-.25.61,1.28-1.91,2.1-3,3a10.1,10.1,0,0,1-3,2,10.84,10.84,0,0,1-4.25.25,11.59,11.59,0,0,1-3.5-.75A5.26,5.26,0,0,1,179.25,90.5Z"/><g id="g750"><path id="path752" class="cls-18" d="M188.37,90.12a2.62,2.62,0,1,1-2.61-2.74A2.68,2.68,0,0,1,188.37,90.12Z"/><path id="path754" class="cls-4" d="M161,89.13a2.5,2.5,0,1,1-2.5-2.63A2.57,2.57,0,0,1,161,89.13Z"/></g><path id="path756" class="cls-19" d="M186.75,90.13c0,.48-.28.87-.63.87s-.62-.39-.62-.87.28-.88.62-.88S186.75,89.64,186.75,90.13Z"/><path id="path758" class="cls-19" d="M159,89.38a.51.51,0,1,1-.5-.63A.57.57,0,0,1,159,89.38Z"/></g><path id="path760" class="cls-15" d="M162.62,120.88a19,19,0,0,0,2.82-.29c.77-.21,1,.72,1.72.84a6.87,6.87,0,0,0,3.09.2,19.56,19.56,0,0,0,1.79-1,2.78,2.78,0,0,1,2.16-.36c.83.06,1.59.44,2.42.46a2.15,2.15,0,0,0,.5-.12"/><path id="path762" class="cls-20" d="M167.5,114c-1,.85-.75,2.44-1.64,3.43A5.44,5.44,0,0,1,162,120.7a5.89,5.89,0,0,1-5.32-1.06c-1.23-1.3-3.49-1.14-4.44-2.68.35-1.74,2.72-.09,3.78.26,1.61.94,3-1,3.59-2.35.4-1.9,2.28-1.81,3.78-2a8.77,8.77,0,0,1,3.78-1.37,12.91,12.91,0,0,1,5.75.62c1.77.55,4-.63,5.42,1a34.36,34.36,0,0,0,3.37,4c1.84,1.15,4.19.67,6.15.14a6.23,6.23,0,0,1,3.7-1.14c1.52-.15,3.62,1.37,2.86,3-1.7,1.25-1.86-2-3.51-1.08a25.07,25.07,0,0,0-5.4,2.59c-1.95.71-4.07.47-6.09.78-1.41.22-2.48-.84-3.26-1.87-1.16-1.22-2.92-1.54-4.21-2.61a5.62,5.62,0,0,1-2.63-3.09,1.93,1.93,0,0,0-1.79.14Z"/><g id="g764"><path id="path766" class="cls-11" d="M163.52,134.65c1.15,1.3,2,2.92,3.44,3.92a20.2,20.2,0,0,0,6.2,2.48,9.75,9.75,0,0,0,2.27.41,22.83,22.83,0,0,0,7.08-.83,30.21,30.21,0,0,0,5.41-2.67,43.89,43.89,0,0,0,5.6-3.25,63.1,63.1,0,0,0,6.87-6.52c.7-.71,1.38-1.43,2-2.2"/><g id="g768"><path id="path770" class="cls-21" d="M296.28,30.18l-.71,6.72L293.1,49.27l-1.77,6.37-1.41,5.3-2.13,4.24V67.3l6,.36-.35,13.79-2.12,1.41v2.83l-1.77,1.06-.35,1.41,2.83.71v19.8l.25,44.63,9.94,5.85-.5-49.94,1-20.57,1.66-1.18.71-1.06-.36-3.89-2.12-1.06-.35-1.07-.36-12.72,6.1.62L308.3,67l-2.83-8.49L303,47.86l-1.41-8.49-1.06-4.95-.35-4.24Z"/><path id="path772" class="cls-21" d="M272.24,43.26C268.86,47.75,265,51.92,262,56.65a76.63,76.63,0,0,0-6.85,12.9,62.36,62.36,0,0,0-3.53,12.79,73.77,73.77,0,0,0-.93,14.92,66.68,66.68,0,0,0,1.88,13.19,62.28,62.28,0,0,0,4.07,11.49,85.92,85.92,0,0,0,8.32,14.12c1.83,2.51,3.65,5.17,6.18,7,1,.7,2.41,3.5,3.29,1.39q4.57-6,9.14-12.08c-1.38-1.87-3.37-3.39-4.28-5.55a13.24,13.24,0,0,1-.93-6.7,13.5,13.5,0,0,1,2.94-7,14.49,14.49,0,0,1,6.8-4.11c2.87-.85,6-.15,9-.34,2.56.11,5.25-.45,7.56.94,1.63.22,2,2.13,2.27,3.46.6,1.29-1.13,3.72-.21,4,1.79-.17,4.05.68,5.41-.71,1.76-.54,1.39-2.91,1.58-4.44.14-2.66,2.1-4.7,3.32-7a32.55,32.55,0,0,1,4-5.17c-1.62-1.32-3.58-2.35-4.25-4.47-1.4-1.94-1.76-4.24-2.07-6.56-.23-1.82.47-3.85-.91-5.35-.31-1.34-3.2-2-3-.09-.54,2.4-.74,3.61-2.49,5.32a31.41,31.41,0,0,0-6.7.23c-4.73,0-9.56.68-14.15-.4a16.29,16.29,0,0,1-6.25-2.87A13.13,13.13,0,0,1,277.36,81a10.75,10.75,0,0,1-1.07-5.07,12.69,12.69,0,0,1,1.65-5.52,15,15,0,0,1,5.26-5.92q-5.47-10.61-11-21.21Z"/></g></g><path id="path774" class="cls-15" d="M269,95.94s.45-2.79,1.33-3.67A5,5,0,0,1,279,95.94a6.37,6.37,0,0,1-1.33,3.67c-.67.66-1.34,1-2,1.66s-1,.67-1.67,1.34l-1.67,1.66a14.65,14.65,0,0,0-2.33,3.34,14.05,14.05,0,0,0-1,3.33,14.05,14.05,0,0,0-1-3.33,14.65,14.65,0,0,0-2.33-3.34L264,102.61c-.67-.67-1-.67-1.67-1.34s-1.33-1-2-1.66A6.37,6.37,0,0,1,259,95.94a5.2,5.2,0,0,1,8.67-3.67c.88.88,1.33,3.67,1.33,3.67Z"/><g id="g776"><path id="path778" class="cls-11" d="M293.8,67.65c.63-3.87,1.43-7.72,2-11.59.85-4.64.66-7.6,1.37-14.05.25-4.07.29-10,.83-12.18,1,2,1.25,8.46,1.16,12.32.9,6.84.81,10.39,1.32,13.92.2,3.49,1.25,8.72,1.32,11.32"/><g id="g780"><path id="path782" class="cls-8" d="M293.45,81.09c2.71.12,9-.65,8.63,0"/><path id="path784" class="cls-8" d="M291,86l13.66,0"/></g></g><g id="g786"><path id="path788" class="cls-9" d="M316,205.25c.64-.78,1.13-2.85,2.05-1.2.84.74.43,2.18.24,3.17-.4,1.43-.64,3.19.41,4.39a11.12,11.12,0,0,1,2,4.26c-.51,3.15.43,6.27.79,9.38a5.73,5.73,0,0,0,1.75,3.25,4.1,4.1,0,0,1-1.19,3.17,65.14,65.14,0,0,1-10.49,7.26c-3.27,1.67-6.6,3.71-10.38,3.71-3.09,0-6,1.51-9.13,1-1.49-.07-3.05.08-4.32-.88-2.11-1.07-4.34-1.95-6-3.72a16.66,16.66,0,0,1-4.27-5c2.74-5.15,5.88-10.07,9-15a52.62,52.62,0,0,0,2-5c1.37-.45,2,.72,3,1.18,1.73.57,3.42,1.34,5.28,1.07,2.63-.13,5.35.41,7.85-.65a38.18,38.18,0,0,0,7.59-3.1,65.58,65.58,0,0,0,3.75-5.94v-1.31Z"/><g id="g790"><path id="path792" class="cls-11" d="M266.25,252c.86-1.86,1.67-3.75,2.57-5.6,1.51-2.16,3-4.34,4.51-6.49l4.67-5.16c-1.34,2.21-2.73,4.39-4.05,6.61-1,2.4-2,4.79-3,7.2-.32,1.69-.71,3.37-1,5.06v7.13"/><path id="path794" class="cls-11" d="M315,253.5c-1.34,2.19-2.7,4.36-4,6.56-.85,1.8-1.66,3.62-2.58,5.39,0,.1-.09.2-.14.3"/></g><path id="path796" class="cls-4" d="M56,262.5l-.5,7h13Z"/><path id="path798" class="cls-9" d="M124.75,269.5l131-.25s.06-1.83,0-2.75c-.08-1.26-.31-2.5-.5-3.75-.15-1-.28-2-.5-3A9.11,9.11,0,0,0,254,257a2.82,2.82,0,0,0-1-1,6.73,6.73,0,0,0-1.75-.5,36.54,36.54,0,0,1-6.25,4c-3.39,1.34-7.12,1.63-10.75,2-4,.41-8,.18-12,.25-6.42.11-12.83.15-19.25.25q-7,.11-14,.25c-7.67.15-15.33.48-23,.5-5.17,0-10.33-.17-15.5-.25s-10.17-.08-15.25-.25c-1.67-.05-5-.25-5-.25a23.35,23.35,0,0,1-2.25,4.75A18.56,18.56,0,0,1,124.75,269.5Z"/></g><g id="g800"><path id="path802" class="cls-8" d="M129.58,264.76c28.2.32,56.41.37,84.6-.19,7.76-.15,15.94.21,23.28-.87,6.06-.89,9.45-1.63,16.57-5.66"/><path id="path804" class="cls-11" d="M129.58,264.58l2.3,4.77,2.83-4.42,3.18,4.6,3-4.42,2.65,4.07,2.83-3.89L149,269l3.36-3.89,2.83,4.42,3.18-4.42,2.65,4.24,3-4.06,3,4.24,3-4.06,2.83,3.88,3.18-4.41,2.48,3.88,3.18-3.71,2.65,4.07,3.18-3.89,2.3,3.89,3.18-4.07,2.83,4.42,3-4.42,2.83,3.89,3.36-3.89,2.65,4.07,2.83-4.24,2.65,3.88,3-4.06,3.18,4.42,2.83-4.42,2.83,4.24,3.18-4.77,3.18,4.95,2.48-5.13,3,5.13,2.82-5.84,2.66,5.31,2.47-6.37,3.18,6.37,1.77-8.49,5.3,8.49"/></g><g id="g806"><path id="path808" class="cls-9" d="M192.16,262.05l32.09.2s6.66-7.51,10-11.25c4.32-4.85,9-9.41,13-14.5a251.18,251.18,0,0,0,15.5-22.25c3.88-6.16,7.07-12.72,10.75-19,2.52-4.29,5.34-8.4,7.75-12.75,1.71-3.1,5.3-6,4.75-9.5-1.09-6.93-14.75-15-14.75-15h-1.5s-9.57,20.33-15.25,30c-5.29,9-11.35,17.55-17.5,26-5.55,7.62-11.38,15.07-17.5,22.25-3.83,4.49-7.91,8.74-12,13a93.45,93.45,0,0,1-6.75,6.75c-2.68,2.25-8.59,6.05-8.59,6.05Z"/><g id="g810"><path id="path812" class="cls-11" d="M268.5,160.75s4.27,2.17,6.25,3.5A38.19,38.19,0,0,1,279.5,168c1.26,1.16,2.36,2.48,3.5,3.75s3,3.5,3,3.5"/><path id="path814" class="cls-11" d="M267.25,163.5s4.27,2.17,6.25,3.5a38.19,38.19,0,0,1,4.75,3.75c1.26,1.16,2.36,2.48,3.5,3.75s3,3.5,3,3.5"/><path id="path816" class="cls-11" d="M266,166.25s4,2,5.89,3.2a36.39,36.39,0,0,1,4.48,3.43,46.29,46.29,0,0,1,3.3,3.42c1,1,2.83,3.2,2.83,3.2"/><path id="path818" class="cls-11" d="M264.25,169.38s4,2,5.8,3.14a37.16,37.16,0,0,1,4.41,3.36c1.17,1,2.2,2.22,3.25,3.36s2.79,3.14,2.79,3.14"/><path id="path820" class="cls-11" d="M262.75,172.38s4,2,5.89,3.2a36.39,36.39,0,0,1,4.48,3.43,46.29,46.29,0,0,1,3.3,3.42c1,1,2.83,3.2,2.83,3.2"/><path id="path822" class="cls-11" d="M261.37,175.56s4,1.87,5.8,3a37.26,37.26,0,0,1,4.41,3.23,45.16,45.16,0,0,1,3.25,3.24c1,1,2.79,3,2.79,3"/><path id="path824" class="cls-11" d="M260.12,178.31s3.78,1.84,5.54,3a33.25,33.25,0,0,1,4.2,3.17,44,44,0,0,1,3.1,3.16c.91,1,2.66,3,2.66,3"/><path id="path826" class="cls-11" d="M258.87,181.06s3.72,1.87,5.45,3a35.93,35.93,0,0,1,4.14,3.23c1.09,1,2.05,2.14,3.05,3.24s2.61,3,2.61,3"/><path id="path828" class="cls-11" d="M256.87,183.94s3.84,1.84,5.62,3a34.07,34.07,0,0,1,4.28,3.17c1.13,1,2.12,2.09,3.15,3.16s2.7,3,2.7,3"/><path id="path830" class="cls-11" d="M255.87,186.94s3.66,1.87,5.36,3a35.18,35.18,0,0,1,4.07,3.23c1.08,1,2,2.14,3,3.24s2.57,3,2.57,3"/><path id="path832" class="cls-11" d="M254.06,189.41s3.72,2,5.45,3.26a35.08,35.08,0,0,1,4.14,3.49c1.09,1.08,2.05,2.31,3.05,3.49s2.61,3.26,2.61,3.26"/><path id="path834" class="cls-11" d="M252.06,191.91s3.9,2.06,5.71,3.32a35.19,35.19,0,0,1,4.35,3.56c1.15,1.09,2.15,2.34,3.2,3.55s2.74,3.32,2.74,3.32"/><path id="path836" class="cls-11" d="M250.81,195.16s3.78,1.91,5.54,3.08a33.32,33.32,0,0,1,4.2,3.3,43.83,43.83,0,0,1,3.1,3.29c.91,1,2.66,3.08,2.66,3.08"/><path id="path838" class="cls-11" d="M249.31,197.78s3.66,1.91,5.36,3.08a32.8,32.8,0,0,1,4.07,3.3c1.08,1,2,2.17,3,3.29s2.57,3.08,2.57,3.08"/><path id="path840" class="cls-11" d="M247.06,200.28s3.78,1.95,5.54,3.14a35.74,35.74,0,0,1,4.2,3.36c1.12,1,2.09,2.22,3.1,3.36s2.66,3.14,2.66,3.14"/><path id="path842" class="cls-11" d="M244.69,203.22s4,1.87,5.8,3a37.26,37.26,0,0,1,4.41,3.23,45.16,45.16,0,0,1,3.25,3.24c1,1,2.79,3,2.79,3"/><path id="path844" class="cls-11" d="M243.44,206s3.78,1.91,5.54,3.08a33.32,33.32,0,0,1,4.2,3.3,43.83,43.83,0,0,1,3.1,3.29c.91,1,2.66,3.08,2.66,3.08"/><path id="path846" class="cls-11" d="M241.94,208.47s3.78,1.91,5.54,3.08a33.32,33.32,0,0,1,4.2,3.3,43.83,43.83,0,0,1,3.1,3.29c.91,1,2.66,3.08,2.66,3.08"/><path id="path848" class="cls-11" d="M239.19,211.1s4.08,1.91,6,3.08a35.43,35.43,0,0,1,4.55,3.3c1.2,1,2.26,2.17,3.35,3.29s2.87,3.08,2.87,3.08"/><path id="path850" class="cls-11" d="M237.94,214.1s4,2,5.8,3.14a37.16,37.16,0,0,1,4.41,3.36c1.17,1,2.2,2.22,3.25,3.36s2.79,3.14,2.79,3.14"/><path id="path852" class="cls-11" d="M235.31,216.41s4,2,5.8,3.2a35.68,35.68,0,0,1,4.41,3.43,45.62,45.62,0,0,1,3.25,3.42c1,1,2.79,3.2,2.79,3.2"/><path id="path854" class="cls-11" d="M232.81,219.16s4.14,2.06,6.07,3.32a37,37,0,0,1,4.61,3.56,45.57,45.57,0,0,1,3.4,3.55c1,1.09,2.92,3.32,2.92,3.32"/><path id="path856" class="cls-11" d="M215.06,241.91s3.78,1.91,5.54,3.08a33.32,33.32,0,0,1,4.2,3.3,43.83,43.83,0,0,1,3.1,3.29c.91,1,2.66,3.08,2.66,3.08"/><path id="path858" class="cls-11" d="M230.56,222.53s4,1.95,5.8,3.14a37.16,37.16,0,0,1,4.41,3.36c1.17,1,2.2,2.22,3.25,3.36s2.79,3.14,2.79,3.14"/><path id="path860" class="cls-11" d="M228.81,225.53s4,2,5.89,3.2a36.39,36.39,0,0,1,4.48,3.43,46.29,46.29,0,0,1,3.3,3.42c1,1,2.83,3.2,2.83,3.2"/><path id="path862" class="cls-11" d="M226.19,228.22s4,1.87,5.8,3a37.26,37.26,0,0,1,4.41,3.23,45.16,45.16,0,0,1,3.25,3.24c1,1,2.79,3,2.79,3"/><path id="path864" class="cls-11" d="M224.19,231.22s3.9,2,5.71,3.2a35.08,35.08,0,0,1,4.35,3.43c1.15,1.05,2.16,2.26,3.2,3.42s2.74,3.2,2.74,3.2"/><path id="path866" class="cls-11" d="M221.94,234.22s3.72,1.87,5.45,3a35,35,0,0,1,4.13,3.23,44.43,44.43,0,0,1,3,3.24c.9,1,2.62,3,2.62,3"/><path id="path868" class="cls-11" d="M219.69,237.1s3.84,1.84,5.63,3a34.71,34.71,0,0,1,4.27,3.17c1.13,1,2.12,2.09,3.15,3.16s2.7,3,2.7,3"/><path id="path870" class="cls-11" d="M217.69,239.6s3.66,1.87,5.36,3a35.18,35.18,0,0,1,4.07,3.23c1.08,1,2,2.14,3,3.24s2.57,3,2.57,3"/><path id="path872" class="cls-11" d="M202.94,254.72s2.5,1.12,3.66,1.81a23,23,0,0,1,4.83,3.88c.6.59,1.76,1.81,1.76,1.81"/><path id="path874" class="cls-11" d="M213.31,244.28s3.59,1.95,5.27,3.14a34.54,34.54,0,0,1,4,3.36c1.06,1,2,2.22,2.95,3.36s2.53,3.14,2.53,3.14"/><path id="path876" class="cls-11" d="M209.81,247s3.9,1.87,5.71,3a36.58,36.58,0,0,1,4.35,3.23c1.15,1,2.16,2.14,3.2,3.24s2.74,3,2.74,3"/><path id="path878" class="cls-11" d="M207.56,249.91s3.84,1.84,5.62,3a34.07,34.07,0,0,1,4.28,3.17c1.13,1,2.12,2.09,3.15,3.16s2.7,3,2.7,3"/><path id="path880" class="cls-11" d="M205.56,252.41s3.17,1.46,4.64,2.35a29,29,0,0,1,3.53,2.53,32.58,32.58,0,0,1,2.6,2.52c.76.77,2.23,2.35,2.23,2.35"/><g id="g882"><path id="path884" class="cls-11" d="M195.25,260.37a7,7,0,0,1,3.19,1.63"/><path id="path886" class="cls-11" d="M200.25,256.75a36.41,36.41,0,0,1,3.75,2,42.74,42.74,0,0,1,3.75,3.25"/><path id="path888" class="cls-11" d="M197.62,258.56a14.71,14.71,0,0,1,5.31,3.44"/></g></g><path id="path890" class="cls-22" d="M307.84,158.12c2.49,2.13,4.58,3.83,4.4,8.66.5,5.92,1.76,11.72,2.66,17.58.36,3.85.8,7.73.22,11.57a22.38,22.38,0,0,0,.7,9.07c.25,3.62-3.14,6-5.4,8.31-2.6,1.89-5.88,1.55-8.84,2.19-2,1-2.65-.84-2.38-2.42-.15-7.19-.8-15.63-.95-22.83-3.44-2.18-5.17-3.09-8.73-3.26s-5,1.2-4.95-3.43a4.76,4.76,0,0,1,6.8-4.18c2.47.73,2.11.25,4.38,1.62-3.4-.63-3.56-1.41-6.93-2.14-2.41.63-4.27.8-4.48-2.71-1.38-3.48.59-5,3.07-6.15,3.14-.15,2.26.8,5.49.41,1.08.06,3.53,1.68,4.91,2.23-3.11-.39-5.63-2.93-8.81-2.64-2.06-.9-4.21,3.9-6.05-2.09-.19-3.09,2.91-4.77,4.89-6.59,1.64-1.3,4-.39,5.8.05a53.62,53.62,0,0,0,5.91,1.83c-3.61-.09-6.78-2.38-10.44-2.13-3.47.4-4.59,5.49-6.61,2.13-1.37-3.34,1-6.55,3.19-8.9,2-.67,2.86-1.63,6-1.91,2,.58,4.1,1.48,6,2.19,3.07,0,7.15,3,10.13,3.54Z"/><g id="g892"><g id="g894"><path id="path896" class="cls-11" d="M308.5,167.62a7,7,0,0,1,.25,1.63,11.31,11.31,0,0,1-.75,2.5"/><path id="path898" class="cls-11" d="M307.12,178.25a7.29,7.29,0,0,1-.13,1.25,10.69,10.69,0,0,1-.75,1.75"/></g><path id="path900" class="cls-11" d="M304.25,186.5a11.06,11.06,0,0,1-1.5,3.25,3.2,3.2,0,0,1-1.75,1,4.29,4.29,0,0,1-1.5-.25"/></g></g><path id="path902" class="cls-7" d="M291.5,269.5h8.75l.06-78.53c-3-3-5.91-3.22-9.06-3.71Z"/><path id="path904" class="cls-20" d="M200,65.63c.64,1.89,1.55,3.59,2,5.47.88,3.51.53,7.28,1.52,10.76.86,3,2.49,5.79,3.79,8.66,1.19,2.65,2.76,5.15,3.68,7.92a22,22,0,0,1,1,4.89c.35,4.13-.22,8.28-.41,12.41-.07,1.68-.62,3.39-.29,5a10.5,10.5,0,0,0,2.55,5.29c1.09,1.11,3.21.9,4.16,2.14,2,2.67.51,6.9,2.13,9.84,1.51,2.75,4.21,4.71,6.69,6.63,2.26,1.75,4.56,3.83,7.37,4.37,2,.39,4-1.15,6-.94,2.25.24,4.08,2.43,6.35,2.41,1.84,0,3.56-1.07,5.13-2a15.84,15.84,0,0,0,5.42-4.82,7.58,7.58,0,0,0,.91-3.45,14.44,14.44,0,0,0-.79-6.16,7.66,7.66,0,0,0-2.14-3c-1.17-1-3-1-4.12-2a6.07,6.07,0,0,1-1.58-2.3c-.54-1.33-.2-2.91-.74-4.24a28.65,28.65,0,0,0-5.34-8.06c-1.52-1.74-4-2.58-5.21-4.55s-1-4.22-1.48-6.35-.68-4.07-1.25-6c-.92-3.19-1.69-6.53-3.48-9.33s-5-4.53-7.06-7.13c-2.74-3.42-2.85-10.14-7.13-11.05-1.16-.25.32,2.9-3,1.93-4.21-1.25-6.85-3.19-10.34-4.61-1.46-.59-3.68-1.41-4.43-1.63Z"/><g id="g906"><path id="path908" class="cls-11" d="M204.7,67.76c.92,2.44,1.63,4.94,2.35,7.44.57,2,.88,4,1.58,6,1.13,3.15,3.07,6,4.2,9.11a69.39,69.39,0,0,1,2,7.77,53.39,53.39,0,0,1,1.47,7.13c.29,3.09-.43,6.21-.2,9.3a16.76,16.76,0,0,0,1,5.56c1.33,3,4.93,4.58,6,7.63.67,1.83-.31,3.95.16,5.84a9.54,9.54,0,0,0,2.27,4.62c1.55,1.51,3.88,2,5.89,2.74,2.85,1.11,5.79,2,8.72,2.82a36.35,36.35,0,0,0,4.77,1.24c1.57.24,3.28.83,4.75.23a7.58,7.58,0,0,0,4.54-4.86c.36-1.64-.68-3.37-1.55-4.81-.62-1-1.36-2.29-2.53-2.62a5.3,5.3,0,0,0-4.22,1,4.68,4.68,0,0,0-1.75,2.65c-.25,1.05-.42,2.47.36,3.21a2.68,2.68,0,0,0,2.92.2c.76-.41.84-1.5,1.26-2.26"/><path id="path910" class="cls-11" d="M207.29,68.41c1.45,2.51,3.15,4.89,4.46,7.48a84,84,0,0,1,4.33,10.37c.95,2.7,1.63,5.49,2.35,8.26a66.34,66.34,0,0,1,2.16,9.09c.45,3.82-1,7.83,0,11.55a9.29,9.29,0,0,0,1.55,2.73c1.75,2.55,4.79,4.3,5.86,7.2.64,1.73-.34,3.74.14,5.52s1,4,2.8,5.11c2,1.29,5.17,3.48,7.85,2.95s4.9-3.79,6.5-3.51"/><path id="path912" class="cls-11" d="M213.45,71.65a87.78,87.78,0,0,1,5.48,11.85A100.34,100.34,0,0,1,224,98.34c1,4.23.54,8.72,1.62,12.93a38.64,38.64,0,0,0,2.79,7.07c1,2.09,2.48,3.94,3.52,6,1.32,2.61.84,6.74,3.44,8.09s5.68-1.11,8.47-1.87c1.25-.33,2.71-.34,3.69-1.18.77-.66.9-1.8,1.35-2.7"/><path id="path914" class="cls-11" d="M217.33,71.65c1.43,3.1,3.43,5.9,4.79,9,1.13,2.6,1.87,5.35,2.78,8,1.31,3.88,2.95,7.67,3.85,11.66s.35,8.21,1.54,12.1c1,3.33,3.09,6.24,4.71,9.31,1,1.88,1.22,4.53,3.06,5.59a6.61,6.61,0,0,0,6-.11,3.68,3.68,0,0,0,1.8-2.41c.27-1.21.16-2.85-.8-3.63a2.11,2.11,0,0,0-2.55,0c-.51.52-.19,1.51.06,2.2,0,0,.06.07.06.07"/><path id="path916" class="cls-11" d="M226.73,83.31c1,2.09,2.3,4,3.08,6.21,1.79,5,2.34,10.31,3.62,15.44.79,3.2.75,6.78,2.5,9.57a5.6,5.6,0,0,0,2.5,2.14c2,.84,4.31.23,6.43.62.44.08.87.24,1.3.35"/></g><g id="g918"><g id="g920"><path id="path922" class="cls-4" d="M41.63,305.65l.25-5.62.25-4,1-3.5,1-3.75.88-2.13-.38-2.75.25-4.25.38-2.37,1.12-3,1-2.88.75-1.25L91,270.4l.87,1.5,1.38,3.75,1.12,2.25,1.13,3.38.75,5.25.5,5-.13,3,.63,2.37.5,3.75,1.12,4,1.5,2.38.5,2.75.63,2.75.62-.38,1.38-4.37,1.75-4.13.75-3,1.25-4.12.87-2.25.5-3.13-.12-3.62.37-1.38.13-1.75.5-.75,2.87-1.87,3.13-1.5,4.37-.88,4.75-1.12,4.13-.38,4.75-.5,2.87.25L124,291.15l-8.88,9.38-6.12,8-6.75,9.12L93.88,331.4l-3.25,5.88L78.88,357.15l-3.37,4.75-6.75.25-.38-36,1-.37L73.13,321l1.25-2.13L79.63,310,81,307.28l1.12-1.75-3.62-4.63-5-3.37L70,296l-5.75.37-4.88,1H55.63l-5.37,2.5-4,2.25Z"/><path id="path924" class="cls-5" d="M152,378.28l2.25-38.5s-12,17.71-17.75,26.75C131.15,375,121,392.28,121,392.28l15.5,6Z"/><path id="path926" class="cls-5" d="M262,376a145.85,145.85,0,0,1-14.94,7c-7.28,3-13.87,8.78-21.47,11-6.7,2.42-13.39,3.6-20.09,6,0-10.32-.4-20.65-.1-31l4.09-53,5-4.5c4.6,2.91,9.62-4.19,12.12-2.09L262,376Z"/></g><g id="g928"><path id="path930" class="cls-6" d="M206.25,371.28l2-15,1-18.25,1-16.25-1.75-43.5-51.75,22.25-3.25,45.25-1,18.25-.75,13.25L165,390.53l25.5.5,10.75-7.75Z"/><path id="path932" class="cls-7" d="M184.5,383.53l1.75-10.75,1-13.75.75-16.5.25-10.75.75-12L178,323l.25,15.75-1,22-1.5,15L175,384l5.25-.75Z"/><path id="path934" class="cls-8" d="M180,383l1.25-8.5,1.25-11,.5-15.25.5-11.5V328l.25-6.75"/></g><g id="g936"><g id="g938"><path id="path940" class="cls-9" d="M194.25,353.28a3.88,3.88,0,1,1,3.87,4A3.93,3.93,0,0,1,194.25,353.28Z"/><path id="path942" class="cls-9" d="M193.62,369.53a3.88,3.88,0,1,1,3.88,4A3.94,3.94,0,0,1,193.62,369.53Z"/><path id="path944" class="cls-9" d="M194.88,336.28a3.87,3.87,0,1,1,3.87,4A3.93,3.93,0,0,1,194.88,336.28Z"/><path id="path946" class="cls-9" d="M160.88,368.53a3.87,3.87,0,1,1,3.87,4A3.93,3.93,0,0,1,160.88,368.53Z"/><path id="path948" class="cls-9" d="M162.12,353a3.88,3.88,0,1,1,3.88,4A3.94,3.94,0,0,1,162.12,353Z"/><path id="path950" class="cls-9" d="M162.38,336.53a3.87,3.87,0,1,1,3.87,4A3.93,3.93,0,0,1,162.38,336.53Z"/></g><path id="path952" class="cls-7" d="M230,277.28H215.5a42,42,0,0,0-6.1,2.79c-1.61.92-3.27,1.8-4.79,2.85a7.78,7.78,0,0,1-2.56,2.08l-2.55,1.28c.15.45-.32,1.51.29,1.5a20.22,20.22,0,0,0,4.71-.5c1.36.12,2.75.11,4.08.3,1.28.82,2.67,1.49,3.88,2.41,1.12,1.16,2.33,2.25,3.39,3.46.63,1.06,1.36,2.09,1.91,3.18a30.77,30.77,0,0,1,.4,6.13,28.18,28.18,0,0,1-.24,3.2,22.45,22.45,0,0,1-1.31,2.7l-1.86,1.62V312a22.75,22.75,0,0,0,2.59.72,29.52,29.52,0,0,0,4.95-2.18,22,22,0,0,1,4.21-1.79q1.75-15.75,3.5-31.5Z"/></g><path id="path954" class="cls-1" d="M207.09,396.82a14.25,14.25,0,0,0,1.77-11.38c-.87-4.15-3.17-8.17-2.32-12.53,0-3.19-2.67-1-2.94.81-3,4.23-7.69,7.06-12.53,8.74-3.79.77-7.71,1.58-11.55.65-3.89-.22-7.82,1.46-11.66.09-3.52-1.08-4.86-5.06-8-6.89-2.33-.81-1.77-4.78-3.78-4.68-1.83.09-2.75,5.63-5.38,7.55-2.75,3.86-6.92,6.53-9.17,10.78-1.86,3.17-5.05,5.66-5.42,9.56-1.37,4.76-2.82,10.32.25,14.77,2.27,4.06,7.21,4.74,11.29,5.87a68.52,68.52,0,0,0,50.46-8.84c2.86-1.82,6.06-3.84,6.85-7.4.77-2.35,1.12-4.82,2.1-7.1Z"/><g id="g956"><path id="path958" class="cls-9" d="M329.25,364.37c-7.72,3.93-9.3,12.13-9.69,18.48a78,78,0,0,0-20.07-2c-9.61.58-20.1,4.75-28.06,9.89-3.79-4.91-6.76-10.92-12.33-18.76-10-14.88-21.2-29.09-29.52-45-3.17-10.93-3.64-16.13-3.63-24,0-12.31,1.39-21.58,5.77-29.93,2.45-2.67,3.31-3.14,8.32-3h51.2c7.13,4,14.4,7.76,20,13.85,6.93,7.31,10.94,12.84,18.22,20.15-.17,20-.08,40.35-.25,60.35Z"/><path id="path960" class="cls-10" d="M329.59,338.13c-2.26.81-4.79,1.15-6.9,2.26a79.38,79.38,0,0,0-9.18,8.78c-1.87,2.59-4,5.06-5,8.15-.58,1.36-1.14,3.45-3,3.08-3.84,0-7.7-.15-11.48.68a62.47,62.47,0,0,0-14.45,4.24c-1.91,1.17-2.29,1.23-3.49-.89A222.39,222.39,0,0,0,263,345.81,129.17,129.17,0,0,1,252.42,329a40.63,40.63,0,0,1-4-9.18,49,49,0,0,1-2.28-12.4c-.56-7.61.67-15.21,2.18-22.65,3.67-1.13,7.58-.92,11.37-1.21,4.79.59,9.66.8,14.41,1.6,5.29,1.61,10.73,3.15,15.31,6.35,2.8,1.9,6.13,3,8.36,5.65,3.37,3.49,6.65,7.11,9.75,10.85,5.31,7,8.26,9.44,13.86,16.18,1.5,1.87,5.53,6.19,8.16,8.87l.09,5.1Z"/><g id="g962"><path id="path964" class="cls-11" d="M329.75,341.78,325.5,343l-4.25,2.75-5,5.25-3.5,5-2,5.75-.75,2-1.25.5-5.5-.75L296,364l-8.25,1.5-5,1.75-3.5,1.5c-1.67.57-1.84,1-3.25,1.25l-7-10.5s-9.22-13.13-13.75-19.75c-2.44-3.56-5.33-6.88-7.25-10.75a56.3,56.3,0,0,1-4.5-13.25A59.88,59.88,0,0,1,242.25,302a56,56,0,0,1,1-7.5c.44-2.84,1.5-8.5,1.5-8.5l1.5-4.5,7-1,8.25.25,8,1,8,1.25,8.5,3,8,4.25,6.25,4,4,4.5,20.25,23.5,5.25,6.5Z"/><path id="path966" class="cls-11" d="M329.75,360.28c-2.8,1-6.28,1.54-7.71,4.5-2.72,3.52-5,7.51-5.54,12-1.89,1.05-4.13-.43-6.2-.32a33.58,33.58,0,0,0-14.08.54c-5.33,1-10.75,2-15.6,4.56-2.46,1.09-7.87,4-7.87,4s-.46-.62-4.71-6.73c-10.25-15.18-19.49-28.1-29.59-43.38-2.76-4.46-5.55-9-6.8-14.15-2.42-8.7-1.81-17.81-2.15-26.74,1.65-7.53,2.3-15.62,6.56-22.24a3.63,3.63,0,0,1,4.48-2.26h42.22c6.16,3,12.71,5.41,18.22,9.46a81.47,81.47,0,0,1,16.18,16.26c4.14,4.72,8.14,9.61,12.85,13.78q-.12,25.38-.25,50.75Z"/></g><g id="g968"><path id="path970" class="cls-9" d="M308.75,369.53a3.25,3.25,0,1,1,3.25,3.25A3.26,3.26,0,0,1,308.75,369.53Z"/><path id="path972" class="cls-9" d="M290.25,371.78A3.25,3.25,0,1,1,293.5,375,3.26,3.26,0,0,1,290.25,371.78Z"/><path id="path974" class="cls-9" d="M272.25,376.78A3.25,3.25,0,1,1,275.5,380,3.26,3.26,0,0,1,272.25,376.78Z"/><path id="path976" class="cls-9" d="M261,363.53a3.25,3.25,0,1,1,3.25,3.25A3.26,3.26,0,0,1,261,363.53Z"/><path id="path978" class="cls-9" d="M248.25,344.78A3.25,3.25,0,1,1,251.5,348,3.26,3.26,0,0,1,248.25,344.78Z"/><path id="path980" class="cls-9" d="M236.75,325.28a3.25,3.25,0,1,1,3.25,3.25A3.26,3.26,0,0,1,236.75,325.28Z"/><path id="path982" class="cls-9" d="M232.75,302.78A3.25,3.25,0,1,1,236,306,3.26,3.26,0,0,1,232.75,302.78Z"/><path id="path984" class="cls-9" d="M239.25,276.53a3.25,3.25,0,1,1,3.25,3.25A3.26,3.26,0,0,1,239.25,276.53Z"/><path id="path986" class="cls-9" d="M260,275a3.25,3.25,0,1,1,3.25,3.25A3.26,3.26,0,0,1,260,275Z"/><path id="path988" class="cls-9" d="M279.75,277.28a3.25,3.25,0,1,1,3.25,3.25A3.26,3.26,0,0,1,279.75,277.28Z"/><path id="path990" class="cls-9" d="M298.25,288a3.25,3.25,0,1,1,3.25,3.25A3.26,3.26,0,0,1,298.25,288Z"/><path id="path992" class="cls-9" d="M314,304.53a3.25,3.25,0,1,1,3.25,3.25A3.26,3.26,0,0,1,314,304.53Z"/><path id="path994" class="cls-9" d="M323.25,352.28a3.25,3.25,0,1,1,3.25,3.25A3.26,3.26,0,0,1,323.25,352.28Z"/></g></g><path id="path996" class="cls-12" d="M211.92,313.22c-3.9,3-5.88,5.24-11.43,8.59-2.87,1.73-3.64,3.54-7.49,4.48s-10.56,1.08-14.28,1.64c-4.41.67-5.51.27-10.08-.11-1.66,0-8.24,1.11-6.78-.31,3.23-4.82,9.16-11.61,14-17.2,4.35-5,8-11,13.5-14.65,2.13-1.42,5-1.39,7.22-2.63,1.34-.74,2.26-2.13,3.62-2.82,2.87-1.47,6.13-3.34,9.29-2.68,3,.61,5.48,3.14,7,5.75,1.74,3,1.93,6.78,1.76,10.25a12.24,12.24,0,0,1-1.71,6.35c-1.08,1.56-3.12,2.18-4.63,3.34Z"/><g id="g998"><g id="g1000"><path id="path1002" class="cls-11" d="M168.27,319.32a65,65,0,0,0,8.89,1,59.57,59.57,0,0,0,8-1.19"/><path id="path1004" class="cls-11" d="M176.21,310.49a47.44,47.44,0,0,0,6.27.7,36.19,36.19,0,0,0,4.88-.66"/><path id="path1006" class="cls-11" d="M182.25,303.24a42.27,42.27,0,0,0,5.36.16,20.31,20.31,0,0,0,2.33-.5"/></g><path id="path1008" class="cls-11" d="M195.6,303c-.07.86-1,1.22-1.24,1.95"/><path id="path1010" class="cls-11" d="M195.77,310c-.3.56-1,.82-1.41,1.24"/><path id="path1012" class="cls-11" d="M195.07,317.62c0,.81-.9,1.23-1.59,1.41"/></g><path id="path1014" class="cls-6" d="M215.4,277.14,207.8,281l-6.19,3.89L195.78,290l-5.84,5.31L179.51,306l-9,11.49-8.48,11-9,12.73-12.73,19.8-12,18.56-6.36,12-4.6,8-10.78-6.54-8.13-5.3-6-5.31-2.3-1.06,4.42-9.19,11.31-20.68,12.37-19.45,17.15-22.63,10.43-12.19,10.61-10.43,11-9.55Z"/><g id="g1016"><path id="path1018" class="cls-8" d="M205.85,277.15C192,284.32,182.54,297,172.68,308.67,152.79,332.14,136.43,358.5,121,385.1q-3.46,6.18-6.72,12.49"/><path id="path1020" class="cls-8" d="M93.32,383.17c13.45-32.8,34.46-60.63,57.58-86.38a125.41,125.41,0,0,1,22.4-19.64"/></g><path id="path1022" class="cls-5" d="M207.07,474.87c3.87-1.3,8.23,1.15,10.56,4.26,3.27,3.81,1.47,9.22-.16,13.34-2.76,4.8-7.68,7.84-12,11.09-10.57,5.41-22.84,5.64-34.46,5.79-8.86-.13-18-.51-26.3-4a57.25,57.25,0,0,1-20.63-18.32c-5.71-7.55-10.55-15.93-11.24-25.65-.21-4.28,3.61-7.33,7-9.28,4.06-1.24,9.28-1.15,12.31,2.28,5.13,4.52,7.53,11.12,11.79,16.3,4.22,4.64,10.41,6.68,16,9,10,2.85,20.56,3.49,31,3.61,5.3-.48,11.39-.37,15.48-4.33,1.09-1.26-.16-3,.72-4.12Z"/><g id="g1024"><path id="path1026" class="cls-13" d="M206.5,470c2.94-2.4,4.21-7.41,7.22-10.39,2.05-4.64-1.34-10.27,1.5-14.62,1.83-3.62.86-8.1,4.78-10.74,1.2-5.13.25-9.71,3-14.56,2.33-1.82-.87-7.14,4.39-4.77,7.08-.56,2.72-11.26,8.27-13.44,3.12-3.64.83-8.47-2.51-10.33-3-2.34-7.18,3.05-11.18,2.35-4.67.9-9.31,1.77-13.37,4.29-3.62,2.64-7.4,2.5-9.72,5.38-2.7,3.36-3.11,7.29-3.68,12.4-2.51,13.36-4.76,27.35-1.42,40.76,1.6,6.3,6,12.34,12.69,13.67Z"/><g id="g1028"><path id="path1030" class="cls-11" d="M221,425.94c-.7-2.18.26-10,1-12.55.68-2.21.14-6.33,2.48-6.64,1.84-.25,5.85,1.84,4.14,4-1.2,1.53-3.57,0-3.57,0"/><path id="path1032" class="cls-11" d="M207.1,456.36c2.73-7.51,3.5-15.49,5.23-23.24.63-2.8,1.5-5.57,1.87-8.42.71-5.39-.95-11.11.68-16.29.74-2.36,2.6-4.22,4-6.27,1.58-2.31,2.48-5.46,4.94-6.78,2.14-1.14,5.77-2.19,7.26-.29s.34,6.22-1.88,6.4c-1.35.11-4.45-2.29-1.76-3.67"/><path id="path1034" class="cls-11" d="M233.85,402.93a7.12,7.12,0,0,1-8,.69c-1.93-1.26-4.34.05-5.17,2a14.69,14.69,0,0,0-2.13,7,33.64,33.64,0,0,0-.89,8.92c-1.12,3.53-.33,4.35-1.57,8.14A37.7,37.7,0,0,1,213,441.18c-1.79,3.92-1.59,8.28-1.88,12.48-.47,3.69-1.58,7.61-4.31,10.28"/></g></g><g id="g1036"><path id="path1038" class="cls-8" d="M207.1,440.28c1.87-4.11,2.56-8.61,3.28-13,.75-4.63.33-9.4,1-14s1.26-9.31,3.15-13.54a23.44,23.44,0,0,1,4.06-5.79"/><path id="path1040" class="cls-8" d="M207.1,427.23c.46-6.35.63-12.75,1.76-19,.6-3.34,1.09-6.82,2.67-9.83a12.18,12.18,0,0,1,2.55-3"/><g id="g1042"><path id="path1044" class="cls-11" d="M208,398.11c-1.11,3.95-2.74,5.07-2.85,10.57,0,2.4-2.31,4.56-1.32,7.08"/><path id="path1046" class="cls-11" d="M200.12,409.94c1.74-2.27,1.33-3,1.95-4.47.67-1.65.72-3.34,1.92-5"/></g></g><path id="path1048" class="cls-14" d="M206,474.53c1.23-2.11.83-4.82,1-7.25a50,50,0,0,0,0-6c-.08-1.59-.37-3.16-.5-4.75-.12-1.41-.26-2.83-.25-4.25a64.84,64.84,0,0,1,.5-7.5c.18-1.51.63-3,.75-4.5a64.64,64.64,0,0,0,0-7.75,35.22,35.22,0,0,0-.5-6.25c-.36-1.65-1.24-3.14-1.75-4.75s-.62-3.24-1.25-4.75a31.33,31.33,0,0,0-2.5-4.25c-1-1.6-1.91-3.22-3-4.75-.93-1.3-2.25-2.34-3-3.75a24.46,24.46,0,0,1-1.25-4,31,31,0,0,0-1.25-3.5,33.23,33.23,0,0,0-2.25-3.75,37.82,37.82,0,0,0-3.75-5.5,14.09,14.09,0,0,0-3.75-3,9.52,9.52,0,0,0-3.5-1,15.56,15.56,0,0,0-4.75.5,17.18,17.18,0,0,0-5.75,2c-2.37,1.55-3.79,4.21-5.75,6.25-1.79,1.87-3.71,3.62-5.5,5.5-1.63,1.71-3.24,3.44-4.75,5.25-1.14,1.37-2.21,2.8-3.25,4.25a38.9,38.9,0,0,0-4,6,38.43,38.43,0,0,0-3.25,11.25,38,38,0,0,0,.25,8.25,107.65,107.65,0,0,0,2,12.75c.66,3,1.61,6,2.5,9,.95,3.18,1.91,6.36,3,9.5,1.31,3.79,1.49,8.34,4.25,11.25,2,2.11,5.21,2.66,8,3.5a53.2,53.2,0,0,0,13,2.25c2.93.13,5.83-.59,8.75-.75,3.33-.18,6.7.24,10-.25a24.19,24.19,0,0,0,7.25-2C203.35,477,205.1,476.07,206,474.53Z"/><path id="path1050" class="cls-15" d="M197.38,419.15c-.33,1-1.47,1.29-2.22,1.88-.56.42-.9,1.19-1.69,1.22a2.48,2.48,0,0,1-2.48-.82c-.53-.49-1.58-.42-1.59.35a3.74,3.74,0,0,1-2.09.3,10.75,10.75,0,0,1-3.33-1.63c-.52-.27-1.32-.48-1.35-1.17.21-.79,1.36-.56,1.73-1.25.83-1,1.32-1.14,2.21-2.07a4.25,4.25,0,0,1,2.61-1.94,10.3,10.3,0,0,1,4.08.43,2.78,2.78,0,0,1,2.06,1.65c.23.79.74.37,1.18,1a15.89,15.89,0,0,1,.88,1.81v.19Z"/><path id="path1052" class="cls-7" d="M205.64,474c-2,.13-2.8,1.1-5.52,1.9A22,22,0,0,1,190,477.37c-6.38,0-12.82.38-19.15-.55-6.57-1.42-13.24-2.93-19.28-6-2-1.21-4-2.57-6-3.81-2.33-.37-3.2,3.56-1.5,4.87,2.31,2.42,5.65,3.37,8.48,5,9.06,4.28,19.1,6.14,29.06,6.66,7.06.09,14.36.38,21.11-2.08a8,8,0,0,0,5.12-5.39c.64-2.59-.15-2.28-2.15-2.15Z"/><g id="g1054"><path id="path1056" class="cls-11" d="M207,462c-2.95-.21-5.92-.29-8.88-.26-1.26-.95-3.25-1.64-3.29-3.5-.19-2-.84-4.08-.67-6.15.33-1.93,1.08-3.75,1.48-5.66.84-3.35,1.73-6.71,2.36-10.1.72-2.68-.21-3.88-2-4.68-.86-1-1.29-2.76-2.81-3-2.08,0-2.23,2.71-3.88,3.41a3.76,3.76,0,0,1-3.79-1.41c-1.62-.3-2.21,1.71-2,3a3.71,3.71,0,0,0,2.21,2.86"/><path id="path1058" class="cls-16" d="M161.75,457.53a27.16,27.16,0,0,1,4.11,2.56c.73.72,1.35,1.69,2.45,1.87,1.64.37,3.31,0,5,.09,2.18.05,4.36,0,6.53-.07a8.58,8.58,0,0,0,3.07-.86c1-.5.81-1.69.62-2.59"/><path id="path1060" class="cls-11" d="M206,455.78a17.94,17.94,0,0,1-4.25,1,14,14,0,0,1-4.25-1c-1-.33-3-1.23-3-1.23"/></g><path id="path1062" class="cls-1" d="M205.88,452.15a25.79,25.79,0,0,1-5.37,1.88,6.08,6.08,0,0,1-2.75-.25,14.67,14.67,0,0,1-3.25-2.25l1.25-3.25s2.15-.56,3.25-.75a17.08,17.08,0,0,1,3.75-.5,19.13,19.13,0,0,1,3.5.75Z"/><g id="g1064"><path id="path1066" class="cls-11" d="M180.75,454.28a15.81,15.81,0,0,1-3,1.5,19.29,19.29,0,0,1-4.5.25,11.61,11.61,0,0,1-2.5,0,13.63,13.63,0,0,1-3.75-1.5,34.74,34.74,0,0,1-3-2l-.75-.5"/><path id="path1068" class="cls-17" d="M180.75,449.28a9.11,9.11,0,0,1-2,2.5,6,6,0,0,1-2.5.75,23.53,23.53,0,0,1-5.5,0c-1.43-.12-2.81-.7-4.25-.75-.75,0-1.92.93-2.25.25-.61-1.27,1.91-2.1,3-3a10.1,10.1,0,0,1,3-2,10.84,10.84,0,0,1,4.25-.25,11.59,11.59,0,0,1,3.5.75A5.26,5.26,0,0,1,180.75,449.28Z"/><g id="g1070"><path id="path1072" class="cls-18" d="M171.63,449.66a2.62,2.62,0,1,1,2.61,2.74A2.68,2.68,0,0,1,171.63,449.66Z"/><path id="path1074" class="cls-4" d="M199,450.66a2.5,2.5,0,1,1,2.5,2.62A2.57,2.57,0,0,1,199,450.66Z"/></g><path id="path1076" class="cls-19" d="M173.25,449.66c0-.49.28-.88.63-.88s.62.39.62.88-.28.87-.62.87S173.25,450.14,173.25,449.66Z"/><path id="path1078" class="cls-19" d="M201,450.41a.51.51,0,1,1,.5.62A.57.57,0,0,1,201,450.41Z"/></g><path id="path1080" class="cls-15" d="M197.38,418.9a19,19,0,0,0-2.82.29c-.77.21-1-.72-1.72-.84a6.87,6.87,0,0,0-3.09-.2,19.56,19.56,0,0,0-1.79,1,2.78,2.78,0,0,1-2.16.36c-.83-.06-1.59-.44-2.42-.46a2.15,2.15,0,0,0-.5.12"/><path id="path1082" class="cls-20" d="M192.5,425.78c1-.85.75-2.44,1.64-3.43a5.47,5.47,0,0,1,3.89-3.27,5.89,5.89,0,0,1,5.32,1.06c1.23,1.3,3.49,1.15,4.44,2.68-.35,1.74-2.72.09-3.78-.26-1.61-.94-3,1.05-3.59,2.35-.4,1.9-2.28,1.81-3.78,2a8.77,8.77,0,0,1-3.78,1.37,12.91,12.91,0,0,1-5.75-.62c-1.77-.55-4,.63-5.42-1a34.36,34.36,0,0,0-3.37-4c-1.84-1.15-4.19-.67-6.15-.14a6.23,6.23,0,0,1-3.7,1.14c-1.52.15-3.62-1.37-2.86-3,1.7-1.25,1.86,2,3.51,1.08a25.07,25.07,0,0,0,5.4-2.59c1.95-.71,4.07-.47,6.09-.78,1.41-.22,2.48.84,3.26,1.87,1.16,1.22,2.92,1.54,4.21,2.61a5.62,5.62,0,0,1,2.63,3.09,1.93,1.93,0,0,0,1.79-.14Z"/><g id="g1084"><path id="path1086" class="cls-11" d="M196.48,405.13c-1.15-1.3-2-2.92-3.44-3.92a19.93,19.93,0,0,0-6.2-2.47,9.27,9.27,0,0,0-2.27-.42,22.83,22.83,0,0,0-7.08.83,30.21,30.21,0,0,0-5.41,2.67,43.89,43.89,0,0,0-5.6,3.25,63.1,63.1,0,0,0-6.87,6.52c-.7.71-1.38,1.43-2,2.2"/><g id="g1088"><path id="path1090" class="cls-21" d="M63.72,509.6l.71-6.72,2.47-12.37,1.77-6.37,1.41-5.3,2.13-4.24v-2.12l-6-.36.35-13.79,2.12-1.41v-2.83L70.44,453l.35-1.41L68,450.91v-19.8l-.25-44.63-9.94-5.85.5,49.94-1,20.57-1.66,1.18-.71,1.07.36,3.88,2.12,1.07.35,1.06.36,12.72L52,471.5l-.27,1.33,2.83,8.49L57,491.92l1.41,8.49,1.06,4.95.35,4.24Z"/><path id="path1092" class="cls-21" d="M87.76,496.52C91.14,492,95,487.86,98,483.13a76.63,76.63,0,0,0,6.85-12.9,62.36,62.36,0,0,0,3.53-12.79,73.77,73.77,0,0,0,.93-14.92,66.68,66.68,0,0,0-1.88-13.19,62.28,62.28,0,0,0-4.07-11.49,85.92,85.92,0,0,0-8.32-14.12c-1.83-2.51-3.65-5.17-6.18-7-1-.7-2.41-3.5-3.29-1.39q-4.57,6-9.14,12.08c1.38,1.87,3.37,3.39,4.28,5.55a13.24,13.24,0,0,1,.93,6.7,13.5,13.5,0,0,1-2.94,7,14.49,14.49,0,0,1-6.8,4.11c-2.87.85-6,.15-9,.34-2.56-.11-5.25.45-7.56-.94-1.63-.22-2-2.13-2.27-3.46-.6-1.29,1.13-3.72.21-4-1.79.17-4-.68-5.41.71-1.76.54-1.39,2.91-1.58,4.44-.14,2.66-2.1,4.7-3.32,6.95A32.55,32.55,0,0,1,39,440c1.62,1.32,3.58,2.35,4.25,4.47,1.4,1.94,1.76,4.24,2.07,6.56.23,1.82-.47,3.85.91,5.35.31,1.34,3.2,2,3,.09.54-2.4.74-3.61,2.49-5.32a31.41,31.41,0,0,0,6.7-.23c4.73,0,9.56-.68,14.15.4a16.29,16.29,0,0,1,6.25,2.87,13.13,13.13,0,0,1,3.84,4.66,10.75,10.75,0,0,1,1.07,5.07,12.69,12.69,0,0,1-1.65,5.52,15,15,0,0,1-5.26,5.92q5.48,10.6,11,21.21Z"/></g></g><path id="path1094" class="cls-15" d="M91,443.84s-.45,2.79-1.33,3.67A5,5,0,0,1,81,443.84a6.37,6.37,0,0,1,1.33-3.67c.67-.66,1.34-1,2-1.66s1-.67,1.67-1.34l1.67-1.66A14.65,14.65,0,0,0,90,432.17a14.05,14.05,0,0,0,1-3.33,14.05,14.05,0,0,0,1,3.33,14.65,14.65,0,0,0,2.33,3.34L96,437.17c.67.67,1,.67,1.67,1.34s1.33,1,2,1.66a6.37,6.37,0,0,1,1.33,3.67,5.2,5.2,0,0,1-8.67,3.67c-.88-.88-1.33-3.67-1.33-3.67Z"/><g id="g1096"><path id="path1098" class="cls-11" d="M66.2,472.13c-.63,3.87-1.43,7.72-2,11.59-.85,4.64-.66,7.6-1.37,14-.25,4.07-.29,10-.83,12.18-1-2-1.25-8.46-1.16-12.32-.9-6.84-.81-10.39-1.32-13.92-.2-3.49-1.25-8.72-1.32-11.32"/><g id="g1100"><path id="path1102" class="cls-8" d="M66.55,458.69c-2.71-.12-9,.65-8.63,0"/><path id="path1104" class="cls-8" d="M69,453.74l-13.66,0"/></g></g><g id="g1106"><path id="path1108" class="cls-9" d="M44,334.53c-.64.78-1.13,2.85-2,1.2-.84-.74-.43-2.18-.24-3.17.4-1.43.64-3.19-.41-4.39a11.12,11.12,0,0,1-2-4.26c.51-3.15-.43-6.27-.79-9.38a5.73,5.73,0,0,0-1.75-3.25,4.1,4.1,0,0,1,1.19-3.17,65.14,65.14,0,0,1,10.49-7.26c3.27-1.67,6.6-3.71,10.38-3.71,3.09,0,6-1.51,9.13-1,1.49.07,3-.08,4.32.89,2.11,1.06,4.34,1.94,6,3.71a16.66,16.66,0,0,1,4.27,5c-2.74,5.15-5.88,10.07-9,15a52.62,52.62,0,0,0-2,5c-1.37.45-2-.72-3-1.18-1.73-.57-3.42-1.34-5.28-1.07-2.63.13-5.35-.41-7.85.65a38.18,38.18,0,0,0-7.59,3.1A65.58,65.58,0,0,0,44,333.22v1.31Z"/><g id="g1110"><path id="path1112" class="cls-11" d="M93.75,287.78c-.86,1.86-1.67,3.75-2.57,5.6-1.51,2.16-3,4.34-4.51,6.49L82,305c1.34-2.21,2.73-4.39,4-6.61,1-2.4,2-4.79,3-7.2.32-1.69.71-3.37,1-5.06V279"/><path id="path1114" class="cls-11" d="M45,286.28c1.34-2.19,2.7-4.36,4-6.56.85-1.8,1.66-3.62,2.58-5.39,0-.1.09-.2.14-.3"/></g><path id="path1116" class="cls-4" d="M304,277.28l.5-7h-13Z"/><path id="path1118" class="cls-9" d="M235.25,270.28l-131,.25s-.06,1.84,0,2.75c.08,1.26.31,2.5.5,3.75.15,1,.28,2,.5,3a9.11,9.11,0,0,0,.75,2.75,2.82,2.82,0,0,0,1,1,6.73,6.73,0,0,0,1.75.5,36.54,36.54,0,0,1,6.25-4c3.39-1.34,7.12-1.63,10.75-2,4-.41,8-.18,12-.25,6.42-.11,12.83-.15,19.25-.25q7-.11,14-.25c7.67-.15,15.33-.48,23-.5,5.17,0,10.33.17,15.5.25s10.17.08,15.25.25c1.67.06,5,.25,5,.25A23.35,23.35,0,0,1,232,273,19,19,0,0,1,235.25,270.28Z"/></g><g id="g1120"><path id="path1122" class="cls-8" d="M230.42,275c-28.2-.32-56.41-.37-84.6.19-7.76.15-15.94-.21-23.28.87-6.06.89-9.45,1.63-16.57,5.66"/><path id="path1124" class="cls-11" d="M230.42,275.2l-2.3-4.77-2.83,4.42-3.18-4.6-3,4.42-2.65-4.07-2.83,3.89L211,270.78l-3.36,3.89-2.83-4.42-3.18,4.42L199,270.43l-3,4.06-3-4.24-3,4.07-2.83-3.89-3.18,4.42L181.43,271l-3.18,3.71-2.65-4.07-3.18,3.89-2.3-3.89-3.18,4.07-2.83-4.42-3,4.42-2.83-3.89-3.36,3.89-2.65-4.07-2.83,4.25L146.78,271l-3,4.06-3.18-4.42L137.76,275l-2.83-4.24-3.18,4.77-3.18-4.95-2.48,5.13-3-5.13-2.82,5.84-2.66-5.31-2.47,6.37L112,271.13l-1.77,8.49-5.3-8.49"/></g><g id="g1126"><path id="path1128" class="cls-9" d="M167.84,277.73l-32.09-.2s-6.66,7.51-10,11.25c-4.32,4.85-9,9.41-13,14.5a251.18,251.18,0,0,0-15.5,22.25c-3.88,6.16-7.07,12.73-10.75,19-2.52,4.29-5.34,8.4-7.75,12.75-1.71,3.1-5.3,6-4.75,9.5,1.09,6.93,14.75,15,14.75,15h1.5s9.57-20.33,15.25-30c5.29-9,11.35-17.55,17.5-26,5.55-7.62,11.38-15.07,17.5-22.25,3.83-4.49,7.91-8.74,12-13a93.45,93.45,0,0,1,6.75-6.75c2.68-2.25,8.59-6,8.59-6Z"/><g id="g1130"><path id="path1132" class="cls-11" d="M91.5,379s-4.27-2.17-6.25-3.5a38.19,38.19,0,0,1-4.75-3.75c-1.26-1.16-2.36-2.48-3.5-3.75s-3-3.5-3-3.5"/><path id="path1134" class="cls-11" d="M92.75,376.28s-4.27-2.17-6.25-3.5A38.19,38.19,0,0,1,81.75,369c-1.26-1.16-2.36-2.48-3.5-3.75s-3-3.5-3-3.5"/><path id="path1136" class="cls-11" d="M94,373.53s-4-2-5.89-3.2a37.33,37.33,0,0,1-4.48-3.42c-1.19-1.06-2.23-2.27-3.3-3.43s-2.83-3.2-2.83-3.2"/><path id="path1138" class="cls-11" d="M95.75,370.4s-4-1.95-5.8-3.14a36.12,36.12,0,0,1-4.41-3.36c-1.17-1-2.2-2.22-3.25-3.36s-2.79-3.14-2.79-3.14"/><path id="path1140" class="cls-11" d="M97.25,367.4s-4-2-5.89-3.2a37.33,37.33,0,0,1-4.48-3.42c-1.19-1.06-2.23-2.27-3.3-3.43s-2.83-3.2-2.83-3.2"/><path id="path1142" class="cls-11" d="M98.63,364.22s-4-1.87-5.8-3A36.17,36.17,0,0,1,88.42,358a45.16,45.16,0,0,1-3.25-3.24c-1-1-2.79-3-2.79-3"/><path id="path1144" class="cls-11" d="M99.88,361.47s-3.78-1.84-5.54-3a34.15,34.15,0,0,1-4.2-3.16c-1.12-1-2.09-2.1-3.1-3.17s-2.66-3-2.66-3"/><path id="path1146" class="cls-11" d="M101.13,358.72s-3.72-1.87-5.45-3a34.86,34.86,0,0,1-4.14-3.23c-1.09-1-2.05-2.14-3.05-3.24s-2.61-3-2.61-3"/><path id="path1148" class="cls-11" d="M103.13,355.84s-3.84-1.84-5.62-3a35,35,0,0,1-4.28-3.16c-1.13-1-2.12-2.1-3.15-3.17s-2.7-3-2.7-3"/><path id="path1150" class="cls-11" d="M104.13,352.84s-3.66-1.87-5.36-3a34.14,34.14,0,0,1-4.07-3.23c-1.08-1-2-2.14-3-3.24s-2.57-3-2.57-3"/><path id="path1152" class="cls-11" d="M105.94,350.37s-3.72-2-5.45-3.26a35.08,35.08,0,0,1-4.14-3.49c-1.09-1.08-2-2.3-3-3.49s-2.61-3.26-2.61-3.26"/><path id="path1154" class="cls-11" d="M107.94,347.87s-3.9-2.06-5.71-3.32A36,36,0,0,1,97.88,341c-1.15-1.1-2.15-2.35-3.2-3.56s-2.74-3.32-2.74-3.32"/><path id="path1156" class="cls-11" d="M109.19,344.62s-3.78-1.91-5.54-3.08a34.18,34.18,0,0,1-4.2-3.29c-1.12-1-2.09-2.18-3.1-3.3s-2.66-3.08-2.66-3.08"/><path id="path1158" class="cls-11" d="M110.69,342s-3.66-1.91-5.36-3.08a33.66,33.66,0,0,1-4.07-3.29c-1.08-1-2-2.18-3-3.3s-2.57-3.08-2.57-3.08"/><path id="path1160" class="cls-11" d="M112.94,339.5s-3.78-1.95-5.54-3.14a35.74,35.74,0,0,1-4.2-3.36c-1.12-1-2.09-2.22-3.1-3.36s-2.66-3.14-2.66-3.14"/><path id="path1162" class="cls-11" d="M115.31,336.56s-4-1.87-5.8-3a36.17,36.17,0,0,1-4.41-3.23,45.16,45.16,0,0,1-3.25-3.24c-1-1-2.79-3-2.79-3"/><path id="path1164" class="cls-11" d="M116.56,333.81s-3.78-1.91-5.54-3.08a34.18,34.18,0,0,1-4.2-3.29c-1.12-1-2.09-2.18-3.1-3.3s-2.66-3.08-2.66-3.08"/><path id="path1166" class="cls-11" d="M118.06,331.31s-3.78-1.91-5.54-3.08a34.18,34.18,0,0,1-4.2-3.29c-1.12-1-2.09-2.18-3.1-3.3s-2.66-3.08-2.66-3.08"/><path id="path1168" class="cls-11" d="M120.81,328.68s-4.08-1.91-6-3.08a36.34,36.34,0,0,1-4.55-3.29c-1.2-1-2.26-2.18-3.35-3.3s-2.87-3.08-2.87-3.08"/><path id="path1170" class="cls-11" d="M122.06,325.68s-4-1.95-5.8-3.14a37.16,37.16,0,0,1-4.41-3.36c-1.17-1-2.2-2.22-3.25-3.36s-2.79-3.14-2.79-3.14"/><path id="path1172" class="cls-11" d="M124.69,323.37s-4-2-5.8-3.2a36.59,36.59,0,0,1-4.41-3.42c-1.17-1.06-2.2-2.27-3.25-3.43s-2.79-3.2-2.79-3.2"/><path id="path1174" class="cls-11" d="M127.19,320.62s-4.14-2.06-6.07-3.32a37.9,37.9,0,0,1-4.61-3.55,47.55,47.55,0,0,1-3.4-3.56c-1-1.09-2.92-3.32-2.92-3.32"/><path id="path1176" class="cls-11" d="M144.94,297.87s-3.78-1.91-5.54-3.08a34.18,34.18,0,0,1-4.2-3.29c-1.12-1-2.09-2.18-3.1-3.3s-2.66-3.08-2.66-3.08"/><path id="path1178" class="cls-11" d="M129.44,317.25s-4-1.95-5.8-3.14a37.16,37.16,0,0,1-4.41-3.36c-1.17-1-2.2-2.22-3.25-3.36s-2.79-3.14-2.79-3.14"/><path id="path1180" class="cls-11" d="M131.19,314.25s-4-2-5.89-3.2a37.33,37.33,0,0,1-4.48-3.42c-1.19-1.06-2.23-2.27-3.3-3.43s-2.83-3.2-2.83-3.2"/><path id="path1182" class="cls-11" d="M133.81,311.56s-4-1.87-5.8-3a36.17,36.17,0,0,1-4.41-3.23,45.16,45.16,0,0,1-3.25-3.24c-1-1-2.79-3-2.79-3"/><path id="path1184" class="cls-11" d="M135.81,308.56s-3.9-2-5.71-3.2a36,36,0,0,1-4.35-3.42c-1.15-1.06-2.16-2.27-3.2-3.43s-2.74-3.2-2.74-3.2"/><path id="path1186" class="cls-11" d="M138.06,305.56s-3.72-1.87-5.45-3a34,34,0,0,1-4.13-3.23,44.43,44.43,0,0,1-3-3.24c-.9-1-2.62-3-2.62-3"/><path id="path1188" class="cls-11" d="M140.31,302.68s-3.84-1.84-5.63-3a35.68,35.68,0,0,1-4.27-3.16c-1.13-1-2.12-2.1-3.15-3.17s-2.7-3-2.7-3"/><path id="path1190" class="cls-11" d="M142.31,300.18s-3.66-1.87-5.36-3a35.18,35.18,0,0,1-4.07-3.23c-1.08-1-2-2.14-3-3.24s-2.57-3-2.57-3"/><path id="path1192" class="cls-11" d="M157.06,285.06s-2.5-1.12-3.66-1.81a23,23,0,0,1-4.83-3.88c-.6-.59-1.76-1.81-1.76-1.81"/><path id="path1194" class="cls-11" d="M146.69,295.5s-3.59-1.95-5.27-3.14a34.54,34.54,0,0,1-4-3.36c-1.06-1-2-2.22-2.95-3.36s-2.53-3.14-2.53-3.14"/><path id="path1196" class="cls-11" d="M150.19,292.75s-3.9-1.87-5.71-3a35.52,35.52,0,0,1-4.35-3.23c-1.15-1-2.16-2.14-3.2-3.24s-2.74-3-2.74-3"/><path id="path1198" class="cls-11" d="M152.44,289.87s-3.84-1.84-5.62-3a35,35,0,0,1-4.28-3.16c-1.13-1-2.12-2.1-3.15-3.17s-2.7-3-2.7-3"/><path id="path1200" class="cls-11" d="M154.44,287.37s-3.17-1.46-4.64-2.35a30,30,0,0,1-3.53-2.52,34.55,34.55,0,0,1-2.6-2.53c-.76-.77-2.23-2.35-2.23-2.35"/><g id="g1202"><path id="path1204" class="cls-11" d="M164.75,279.41a7.11,7.11,0,0,1-3.19-1.62"/><path id="path1206" class="cls-11" d="M159.75,283a36.41,36.41,0,0,1-3.75-2,42.74,42.74,0,0,1-3.75-3.25"/><path id="path1208" class="cls-11" d="M162.38,281.22a14.58,14.58,0,0,1-5.31-3.44"/></g></g><path id="path1210" class="cls-22" d="M52.16,381.66c-2.49-2.13-4.58-3.83-4.4-8.66-.5-5.92-1.76-11.72-2.66-17.58-.36-3.85-.8-7.73-.22-11.57a22.38,22.38,0,0,0-.7-9.07c-.25-3.62,3.14-6,5.4-8.31,2.6-1.89,5.88-1.55,8.84-2.19,2-1,2.65.84,2.38,2.42.15,7.19.8,15.63,1,22.83,3.44,2.18,5.17,3.09,8.73,3.26s5-1.2,5,3.43a4.76,4.76,0,0,1-6.8,4.18c-2.47-.73-2.11-.25-4.38-1.62,3.4.63,3.56,1.41,6.93,2.14,2.41-.63,4.27-.8,4.48,2.71,1.38,3.48-.59,5-3.07,6.15-3.14.15-2.26-.8-5.49-.41-1.08-.06-3.53-1.68-4.91-2.23,3.11.39,5.63,2.93,8.81,2.64,2.06.9,4.21-3.9,6,2.09.19,3.09-2.91,4.77-4.89,6.59-1.64,1.3-4,.39-5.8,0a53.62,53.62,0,0,0-5.91-1.83c3.61.09,6.78,2.38,10.44,2.13,3.47-.4,4.59-5.49,6.61-2.13,1.37,3.34-1,6.55-3.19,8.9-2,.67-2.86,1.63-6,1.91-2-.58-4.1-1.48-6-2.19-3.07,0-7.15-3-10.13-3.53Z"/><g id="g1212"><g id="g1214"><path id="path1216" class="cls-11" d="M51.5,372.16a7,7,0,0,1-.25-1.62A11.13,11.13,0,0,1,52,368"/><path id="path1218" class="cls-11" d="M52.88,361.53a7.38,7.38,0,0,1,.13-1.25,11.12,11.12,0,0,1,.75-1.75"/></g><path id="path1220" class="cls-11" d="M55.75,353.28a11.06,11.06,0,0,1,1.5-3.25A3.26,3.26,0,0,1,59,349a4.29,4.29,0,0,1,1.5.25"/></g></g><path id="path1222" class="cls-7" d="M68.5,270.28H59.75l-.06,78.53c3,3,5.91,3.22,9.06,3.71Z"/><path id="path1224" class="cls-20" d="M160,474.15c-.64-1.89-1.55-3.59-2-5.47-.88-3.51-.53-7.27-1.52-10.76-.86-3-2.49-5.78-3.79-8.66-1.19-2.65-2.76-5.15-3.68-7.91a22.23,22.23,0,0,1-1-4.9c-.35-4.13.22-8.28.41-12.41.07-1.68.62-3.39.29-5a10.5,10.5,0,0,0-2.55-5.29c-1.09-1.11-3.21-.9-4.16-2.14-2-2.66-.51-6.9-2.13-9.84-1.51-2.75-4.21-4.71-6.69-6.63-2.26-1.74-4.56-3.83-7.37-4.37-2-.39-4,1.15-6,.94-2.25-.24-4.08-2.43-6.35-2.41-1.84,0-3.56,1.07-5.13,2a15.84,15.84,0,0,0-5.42,4.82,7.58,7.58,0,0,0-.91,3.45,14.44,14.44,0,0,0,.79,6.16,7.66,7.66,0,0,0,2.14,3c1.17,1,3,1,4.12,2a6.07,6.07,0,0,1,1.58,2.3c.54,1.33.2,2.91.74,4.24a28.65,28.65,0,0,0,5.34,8.06c1.52,1.74,4,2.58,5.21,4.55s1,4.22,1.48,6.35.68,4.07,1.25,6.05c.92,3.19,1.69,6.53,3.48,9.33s5,4.53,7.06,7.13c2.74,3.42,2.85,10.14,7.13,11.05,1.16.25-.32-2.9,3-1.93,4.21,1.25,6.85,3.19,10.34,4.61,1.46.59,3.68,1.41,4.43,1.63Z"/><g id="g1226"><path id="path1228" class="cls-11" d="M155.3,472c-.92-2.44-1.63-4.94-2.35-7.44-.57-2-.88-4-1.58-6-1.13-3.15-3.07-6-4.2-9.11a69.39,69.39,0,0,1-2-7.77,53.39,53.39,0,0,1-1.47-7.13c-.29-3.09.43-6.21.2-9.3a16.76,16.76,0,0,0-1-5.56c-1.33-3-4.93-4.58-6-7.63-.67-1.83.31-4-.16-5.84a9.54,9.54,0,0,0-2.27-4.62c-1.55-1.51-3.88-1.95-5.89-2.74-2.85-1.11-5.79-2-8.72-2.82a36.35,36.35,0,0,0-4.77-1.24c-1.57-.24-3.28-.83-4.75-.23a7.58,7.58,0,0,0-4.54,4.86c-.36,1.64.68,3.37,1.55,4.81.62,1,1.36,2.29,2.53,2.62a5.3,5.3,0,0,0,4.22-1,4.68,4.68,0,0,0,1.75-2.65c.25-1,.42-2.47-.36-3.21a2.68,2.68,0,0,0-2.92-.2c-.76.41-.84,1.5-1.26,2.26"/><path id="path1230" class="cls-11" d="M152.71,471.37c-1.45-2.51-3.15-4.89-4.46-7.48a84,84,0,0,1-4.33-10.37c-.95-2.7-1.63-5.49-2.35-8.26a66.34,66.34,0,0,1-2.16-9.09c-.45-3.82,1-7.83,0-11.55a9.29,9.29,0,0,0-1.55-2.73c-1.75-2.55-4.79-4.3-5.86-7.2-.64-1.73.34-3.74-.14-5.52s-1-4-2.8-5.11c-2-1.29-5.17-3.48-7.85-2.95s-4.9,3.79-6.5,3.51"/><path id="path1232" class="cls-11" d="M146.55,468.13a87.78,87.78,0,0,1-5.48-11.85A100.34,100.34,0,0,1,136,441.44c-1-4.23-.54-8.72-1.62-12.93a38.64,38.64,0,0,0-2.79-7.07c-1-2.09-2.48-3.94-3.52-6-1.32-2.61-.84-6.74-3.44-8.08s-5.68,1.1-8.47,1.86c-1.25.33-2.71.34-3.69,1.18-.77.66-.9,1.8-1.35,2.7"/><path id="path1234" class="cls-11" d="M142.67,468.13c-1.43-3.1-3.43-5.9-4.79-9-1.13-2.6-1.87-5.35-2.78-8-1.31-3.88-2.95-7.67-3.85-11.66s-.35-8.21-1.54-12.1c-1-3.33-3.09-6.24-4.71-9.31-1-1.88-1.22-4.53-3.06-5.59a6.61,6.61,0,0,0-6,.11,3.68,3.68,0,0,0-1.8,2.41c-.27,1.21-.16,2.85.8,3.63a2.11,2.11,0,0,0,2.55,0c.51-.52.19-1.51-.06-2.2,0,0-.06-.07-.06-.07"/><path id="path1236" class="cls-11" d="M133.27,456.47c-1-2.09-2.3-4-3.08-6.21-1.79-5-2.34-10.31-3.62-15.44-.79-3.2-.75-6.78-2.5-9.57a5.6,5.6,0,0,0-2.5-2.14c-2-.84-4.31-.23-6.43-.62-.44-.08-.87-.23-1.3-.35"/></g></g></g><g id="text20975"><path id="path21478" class="cls-2" d="M35,71.22q0,5.77-2.34,8.9a7.39,7.39,0,0,1-6.25,3.13A15.39,15.39,0,0,1,23.9,83a15.65,15.65,0,0,1-2.62-.59V76.94h.21a20.17,20.17,0,0,0,2,.85,6.63,6.63,0,0,0,2.4.45,5.63,5.63,0,0,0,2.85-.62,3.78,3.78,0,0,0,1.58-1.77A8.85,8.85,0,0,0,31,73c.1-1.14.15-2.46.15-3.95V43.39H25V38.74H35V71.22Z"/></g><g id="text20979"><path id="path21475" class="cls-2" d="M318.84,472.92c0-3.85.78-6.81,2.35-8.9a7.39,7.39,0,0,1,6.25-3.12,21.87,21.87,0,0,1,5.11.85v5.46h-.21a19.71,19.71,0,0,0-2-.86,6.94,6.94,0,0,0-2.41-.44,5.68,5.68,0,0,0-2.85.62,3.73,3.73,0,0,0-1.58,1.77,8.79,8.79,0,0,0-.66,2.89c-.11,1.14-.16,2.45-.16,3.95v25.61h6.15v4.66h-10V472.92Z"/></g></g></g></g></svg>