<svg xmlns="http://www.w3.org/2000/svg" viewBox="0 0 360 540"><defs><style>.cls-1,.cls-10,.cls-13{fill:#fff;}.cls-1,.cls-10,.cls-11,.cls-12,.cls-13,.cls-14,.cls-15,.cls-16,.cls-17,.cls-18,.cls-19,.cls-2,.cls-20,.cls-21,.cls-22,.cls-23,.cls-24,.cls-25,.cls-26,.cls-27,.cls-28,.cls-3,.cls-4,.cls-5,.cls-6,.cls-7,.cls-8,.cls-9{stroke:#000;}.cls-1,.cls-10,.cls-11,.cls-12,.cls-13,.cls-14,.cls-15,.cls-17,.cls-18,.cls-2,.cls-20,.cls-21,.cls-22,.cls-23,.cls-24,.cls-27,.cls-4,.cls-5,.cls-6,.cls-7,.cls-8{stroke-linecap:round;stroke-linejoin:round;}.cls-2,.cls-24,.cls-25,.cls-6{fill:none;}.cls-2{stroke-width:2px;}.cls-3{fill:#555;}.cls-26,.cls-27,.cls-4{fill:#fa5;}.cls-5{fill:#aaa;}.cls-16,.cls-7{fill:#a55;}.cls-8{fill:#faa;}.cls-9{fill:#f55;stroke-width:1.02px;}.cls-10,.cls-12{stroke-width:0.97px;}.cls-11,.cls-14{fill:#a50;}.cls-11{stroke-width:0.8px;}.cls-13,.cls-15{stroke-width:1.01px;}.cls-14{stroke-width:1.04px;}.cls-17,.cls-23{fill:#55a;}.cls-18,.cls-19{fill:#aaf;}.cls-20{fill:#a00;}.cls-21,.cls-22,.cls-28{fill:#ff5;}.cls-22{stroke-width:0.89px;}.cls-23,.cls-24{stroke-width:0.99px;}.cls-27{fill-opacity:0.33;}</style></defs><g id="Layer_2" data-name="Layer 2"><g id="svg2"><g id="g22523"><rect id="rect13576" class="cls-1" x="0.5" y="0.5" width="359" height="539" rx="29.94"/><g id="g13582"><path id="path13584" class="cls-2" d="M50,30H330V410"/><path id="path13586" class="cls-2" d="M310,510H30V130"/><path id="path13588" class="cls-2" d="M30,270H330"/></g><g id="g13590"><g id="g13592"><g id="g13594"><path id="path13596" class="cls-3" d="M139.12,269.11l-1.24-15.85-1.23-1.4-15.38,8.62L120,268.93Z"/><path id="path13598" class="cls-4" d="M274.75,123.37l8.87,63,1.63-.62,2.75-1.12,2.38-1.12,1-1.12-7.61-61Z"/></g><g id="g13600"><path id="path13602" class="cls-5" d="M120.25,31c-3.33,1.44-7.27,2.81-9,6.23-1.32,2.58,2.16,6.09-.38,7.91-3,2.13-2.91,5.92-2.6,9a8.69,8.69,0,0,0,5.81,7.27c1.63.49,2.86,1.37,1.15,2.91-2.46,2.23.16,6,2.27,8,1.56,1.52,3.21,1.21,5.47,1.19,1.92,0-1.79,3.93.71,5.75s6.09,3.74,9.28,2.6a8.71,8.71,0,0,0,5.29-6.3c.47-2,.62-2.11.82-.1s4.15,2.6,4.62-.29c.54-3.32,2-6.44,2.31-9.82.2-2.33,1.5-4.78.9-7s-1.5-3.28-.47-5.61c1.42-3.21-3.8-6-2.43-9.57,1.27-3.33,3.94-5.86,6.75-8,2-1.53,4-3.17,6-4.73l-36.5.5Z"/><g id="g13604"><path id="path13606" class="cls-6" d="M151.25,34.49a21.7,21.7,0,0,0-11.08-.73c-5.83,1.27-11.66,3.31-16.3,7-2.54,2-3.36,5.48-3.58,8.71-.35,5.07-.63,10.31,1,15.14a10.28,10.28,0,0,0,5.62,5.88c2.63,1.11,4.73-1.89,5-4.49.23-2.28,2.54,3,5,1.79,2.24-1.08,3.4-3.64,4-5.83a10.65,10.65,0,0,0,.16-2.59"/><path id="path13608" class="cls-6" d="M132,34c-2.66-1-6-.68-7.75,1.74a11,11,0,0,0-1.5,4.48"/><path id="path13610" class="cls-6" d="M120,37.48c-2.81,1.34-6.45,2.64-7.5,5.72-.83,2.43.65,5.1,1.79,7.32a3.75,3.75,0,0,0,3,1.89"/><path id="path13612" class="cls-6" d="M113.31,52.16c-.88,3-.64,6.32,1.9,8.78,1.72,1.67,3,3.85,5.54,3.42"/><path id="path13614" class="cls-6" d="M124.75,74.82c2.35,1,5.09,1,7.18-.89,1.75-1.61.59-6.3,3.94-4.2,2.84,1.78,5.74-1,6.56-3.54a9.73,9.73,0,0,0,.57-3.82"/><path id="path13616" class="cls-6" d="M126.75,78.31a4.79,4.79,0,0,0,6.48,0c1.94-1.66,1.15-5,3.06-5.67,2.09-.76,5,0,6.07-2.25A34.85,34.85,0,0,0,144,66.6"/><path id="path13618" class="cls-6" d="M141.25,36.23c-.87,1.9-1.85,4.22-.4,6.2.81,1.09,1.06,2.64,2.4,3.26"/><path id="path13620" class="cls-6" d="M137.25,39.47c-1.19,2.3-2.35,5.64-.37,7.7a5.65,5.65,0,0,0,5.62,1.51"/><path id="path13622" class="cls-6" d="M133,41c-.81,2.85-.75,6.2,1.41,8.48,1.28,1.36,2.86,3,4.84,3,.9,0,4.27-2.56,3-.75s-4.1,3.27-2.53,5.63c1.31,2,3.88,3.47,6.3,2.59"/><path id="path13624" class="cls-6" d="M127.75,44.2c-1.51,2.62-.39,5.29,2,7.22,1.87,1.51,3.84,3.11,6.29,2.67.4-.07.81-.11,1.21-.18"/><path id="path13626" class="cls-6" d="M126.25,52.16c-.16,3,2.16,4.62,4.8,5.47,2.16.69,4.68.73,6.45-.74"/><path id="path13628" class="cls-6" d="M125,57.89a8.46,8.46,0,0,0,5.25,6,7.15,7.15,0,0,0,8.5-3.24l.25-.5"/><path id="path13630" class="cls-6" d="M117.75,65.36c-1,3,2.18,5.73,5,5.23a5.76,5.76,0,0,0,1.75-.75"/><path id="path13632" class="cls-6" d="M150,35.48a30.18,30.18,0,0,0-9.75.5c-5.61,1.19-11.36,3-15.54,7-2.78,2.66-2.63,6.78-3.33,10.3s1.26,6.63,1.72,10c.33,2.5,2.17,5,4.65,5.29,1.63.21,3.09-1.23,4.5-2"/></g></g><g id="g13634"><path id="path13636" class="cls-1" d="M137.62,153.5c1,3.81,1.91,5.25,3.45,8.89,10.65,1,21.58,2.82,32.26,3.39a227.26,227.26,0,0,0,32.17-.43A99.42,99.42,0,0,0,221.89,162a45.92,45.92,0,0,0,4.74-1.53v-7.75c-1.71-1.43-3.72-2.71-4.48-5-.54-1.58-.77-3.22-2.23-4.36-1.29-1-3-1.07-4.39-2-1.15-.78-3.39.1-4-1-1.55-2.73-3.43-5.28-4.18-8.29-.31-1.26-.59-2.91.12-4,.88-1.33,2.79-2.39,2.88-3.93.22-3.83-2.67-7.38-2.09-11.23.19-1.27,1.79-2.38.6-3.6-.55-.56-2.53-2.48-2.72-1.22a112.6,112.6,0,0,1-6,17.76,67.48,67.48,0,0,1-5.15,9.1,25.61,25.61,0,0,1-4.64,5.28,16.73,16.73,0,0,1-6.27,4,14.18,14.18,0,0,1-7,.18c-2-.44-4-.9-5.56-2.32-1.8-1.63-3.37-2.9-4.52-5.18a48,48,0,0,1-2.37-5.94c-2-1.4-3.71-1.65-5-3.68-.9-1.4-3.08-3-4.19-4.18-1.13,1-.74,3.33-1.29,4.68-.71,1.73-2.28.33-3.24,1.41-1.65,1.86-1,4.39-1.14,6.62-.15,2.59-.85,5.66-3.34,7-1.08.58-2,2.29-3.27,1.88s-1.35-2.7-3-1.54-1.4,3.45-2.54,5c-.77,1.06-.07.56-1.14,1.89.18.59,1,2.29,1.22,3.34Z"/><path id="path13638" class="cls-4" d="M142.47,166.6l12.28,1.08L169,168.92l9.25.25H187l10.5-.49,8.75-.5,7.25-1,5.75-1.74L224,164l2-.25-2,17.48-2.48,17.87-2,12.23-4.07,15.93-5.13,17.61-4.15,14.08-.26,1.14-10.79.53-11.58.26H172.44l-4.5-11-4.6-14.61-3.8-13.73-4.86-13.82L150.79,195l-3.09-11.17-2.48-9.42Z"/><path id="path13640" class="cls-7" d="M146.25,70.59c-3.09,0-3,5.46-4.88,7.87-1.32,1.67-3,3-3.81,5.08a8.66,8.66,0,0,0-.81,3.57,9,9,0,0,0,1.78,5.39c.88,1.11-.4,2-.86,3-.55,1.12-1.19,2.68-2.35,3s-2.15-.12-3,.91a10.05,10.05,0,0,0-1.86,2.9,6,6,0,0,0,0,4.9c.49,1,5.08,3,6.13,2.75,1.89-.43-2-.46-2.52.66s-2.18.63-3,1.42c-1.06,1-2.32,1.69-2.81,3.12s-1.32,3.22-1.26,4.87a19.44,19.44,0,0,1-.44,5.6c-1.22-1.1-1-2.25-3.79-2.14-1.57.06-2.87,2-3.52,3.39s.46,3.19,1.32,4.58c.69,1.14,1.65,1.63-.29,1.51a5.26,5.26,0,0,0-3.14,1.08,5.63,5.63,0,0,0-2.39,3.79,3.51,3.51,0,0,0,.7,3.34,14.27,14.27,0,0,0,4,3.57c.85.42,2.29-.83,2.66.67a7,7,0,0,0,2,3.91,7.39,7.39,0,0,0,2.81,1.64c1.65.51,3.16-.31,4.68-.72s2.81.86,4.32.53c1-.21,1.06-1.84,1.56-2.7.92-1.57,1.44-3.41,2.48-4.91s.79,0,1.86.92c1.22,1,3.59.45,4.83-.26,2.12-1.23,1.69-2.78,2.42-5s.35-4,.86-6.11c.29-1.21.15-3.11,1.14-3.85s2.1.3,2.84-.94.45-2.18.8-3.16c1.55-.6.77-1.61.07-2.61a20.77,20.77,0,0,1-2.7-5.71c-1.37-5.23-3.76-10.24-4.52-15.58-.56-3.94-.27-7.95-.84-11.9-.45-3.18-.09-6.42-.31-9.63-.19-2.9-.07-5.82-.09-8.73Z"/><path id="path13642" class="cls-8" d="M147,57.33a12.08,12.08,0,0,0-.46,3.16c-.36,5.23-1.13,6.48-1.51,11.71s-.25,13.16,0,18.49c.4,4.85,1.79,10.44,2.85,15.2.73,3.75,2.17,6.17,3.31,9.81,1,2,1.5,4.41,2.87,6.19,2.82,2.32,4.1,4.2,6.23,7.08a10.82,10.82,0,0,0,4.48,2.09,17,17,0,0,0,1.55,5.57,10.36,10.36,0,0,0,2.85,3.52c2.13,1.3,4.18,2.87,6.38,4,2.57.15,5.18.91,7.66-.07,3.27-.48,5.66-3,8-5.15s4.07-4.83,5.95-7.33c3.37-7.49,8.43-15.11,10.9-22.93.63-1.35,1-2.64-.53-3.48-.76-1-2.54-1.68-2-3.19.83-1.79-1.14-1.87-1.35-3.27-1.21-1.7,1.67-1.8,1.33-3.37a40.08,40.08,0,0,1,1.34-7.78c.25-1.5-.85-2.51-1.39-3.7a11.53,11.53,0,0,1,.88-5.41c.59-1.82-.93-2.07-2.09-2.91-1.58-.65-1-2.13-1.6-3.31-.79-1.34.14-3,.08-4.53a11,11,0,0,0-1-3.31c-.25-1.26-.37-1.17-.67-3.16-2.86-.9-6.66-1.82-9.12-2.84a28.23,28.23,0,0,0-12.39-3.47c-4.34-.76-9.13-.3-13.52-.29a103.58,103.58,0,0,0-13.57,2.5c-1,.27-1.62.11-2.69.31Z"/><g id="g13644"><path id="path13646" class="cls-6" d="M146.26,71.49c.68-.91,2-.76,2.81-1.42,1.33-1,3.13-.84,4.73-.9a13.52,13.52,0,0,1,5.54.83A5.51,5.51,0,0,1,162,72.18a6.49,6.49,0,0,1,.52,2.71c.06.41.08.81.15,1.22"/><path id="path13648" class="cls-6" d="M162.66,75.54a36.94,36.94,0,0,1,0,8.07c-.18,2.3-.25,3-.4,5.31a22.47,22.47,0,0,1-.42,3.87,15.67,15.67,0,0,0-.59,3.84c0,1,0,2.93,1,3.34,1.43.57,2.44-.29,3.85.25.64.24,1.61,1,2.16.59,1-.75,1.53-.08,2.46-.94.53-.48,1.36-1.1,2.06-.9,1,.29,2.1,1.12,3,.62.6-.34,1.05-1.37.25-1.9-.08,0-.78-1.35-.85-1.42"/><path id="path13650" class="cls-6" d="M172.26,73.24c.87-.93,1.42-2.3,2.57-2.86a11,11,0,0,1,5-1.06,53,53,0,0,1,7,.11c1.2.18,2.56-.13,3.65.35s1.77.33,3.17,1.15"/></g></g><g id="g13652"><path id="path13654" class="cls-9" d="M161.35,109.35c.35-.73,1.56-.94,2.37-1.37.59-.31,1-.87,1.8-.9a3.44,3.44,0,0,1,2.64.6c.57.36,1.69.31,1.69-.25a5.6,5.6,0,0,1,2.24-.22,13.87,13.87,0,0,1,3.55,1.19c.55.2,1.4.35,1.44.86-.23.57-1.45.41-1.85.92-.88.71-1.4.83-2.35,1.51a4.79,4.79,0,0,1-2.78,1.42,16.22,16.22,0,0,1-4.35-.31,3,3,0,0,1-2.2-1.21c-.25-.58-.8-.27-1.27-.77a11.41,11.41,0,0,1-.93-1.33v-.14Z"/><path id="path13656" class="cls-9" d="M161.68,109.9a25.11,25.11,0,0,0,3-.26c.82-.19,1.11.64,1.83.75a8.67,8.67,0,0,0,3.29.18,20.71,20.71,0,0,0,1.91-.88,3.52,3.52,0,0,1,2.31-.32c.88,0,1.7.4,2.58.42a2.4,2.4,0,0,0,.53-.12"/></g><g id="g13658"><g id="g13660"><path id="path13662" class="cls-6" d="M165.29,131.39a29.58,29.58,0,0,0,4.6.53,34.59,34.59,0,0,0,6.89-1.23,42.35,42.35,0,0,0,6.54-1.94,38.87,38.87,0,0,0,6.54-3.52,33.79,33.79,0,0,0,4.95-3.87,37.22,37.22,0,0,0,3.71-4.4,32.61,32.61,0,0,0,3-4.4A40.53,40.53,0,0,0,203.3,108"/><path id="path13664" class="cls-6" d="M148.91,78.05c.48-.77.68-1.78,1.4-2.33a6.1,6.1,0,0,1,3-1.54,21.48,21.48,0,0,1,5.54.79c.66.13.83.81,1.25,1.2s0,0,.05.07a.14.14,0,0,1,0,.05"/><path id="path13666" class="cls-6" d="M175.1,77.49c.37-.71.47-1.72,1.06-2.16a7.38,7.38,0,0,1,6.6-1.51A23.88,23.88,0,0,1,188,75.35c.6.3,1,1,1.45,1.47"/></g><g id="g13668"><path id="path13670" class="cls-10" d="M148.62,80.31c1.46-.57,2.11-2.07,3.71-2.34a59,59,0,0,1,5.95-.38c1.06-.08,2.13.56,3.18.7a3.94,3.94,0,0,1-1,2.12,13.94,13.94,0,0,1-2.16,1.91A7.85,7.85,0,0,1,155,83.57a5.57,5.57,0,0,1-2.61-.1A7.06,7.06,0,0,1,150,82.13c-.78-.82-.67-1-1.42-1.82Z"/><g id="g13672"><path id="path13674" class="cls-11" d="M157.72,80.42a2.31,2.31,0,1,1-2.27-2.74A2.54,2.54,0,0,1,157.72,80.42Z"/><path id="path13676" class="cls-12" d="M156.25,80.17c0,.55-.27,1-.6,1s-.6-.45-.6-1,.27-1,.6-1S156.25,79.62,156.25,80.17Z"/></g></g><g id="g13678"><path id="path13680" class="cls-13" d="M174.94,78.9a19.91,19.91,0,0,1,3.16-1.52,8.36,8.36,0,0,1,3.07-.36,22.67,22.67,0,0,1,4.35-.14,10.08,10.08,0,0,1,3,.89,15.53,15.53,0,0,1,1.63,1.16c-.67.67-1.16,1.61-2,2a11.76,11.76,0,0,1-3.87,1.44,13.05,13.05,0,0,1-3.11.33,8.55,8.55,0,0,1-2.85-.64,4.56,4.56,0,0,1-2.11-1.3,17.92,17.92,0,0,1-1.31-1.91Z"/><g id="g13682"><path id="path13684" class="cls-14" d="M185.44,79.26a2.74,2.74,0,0,1-2.13,3.22,2.71,2.71,0,0,1-3.18-2.16,2.74,2.74,0,0,1,2.13-3.22A2.71,2.71,0,0,1,185.44,79.26Z"/><path id="path13686" class="cls-15" d="M183.8,79.2c.13.67-.09,1.29-.49,1.37s-.83-.41-1-1.08.09-1.29.49-1.37S183.67,78.53,183.8,79.2Z"/></g></g></g><g id="g13688"><path id="path13690" class="cls-16" d="M164.73,101.12c-1.26,0-1.48,1.61-2.61,2.22a5.47,5.47,0,0,0-2.65,1.85c-.82,1.06-2.33,1.36-3.26,2.29-.48.49-1.93-.24-2.2.42s-.45,1.61.31,1.58c.44,0,1.28.46,1.65.18a1.28,1.28,0,0,1,1-.38c.89-.07,1.74-.61,2.64-.59.5,0,.88.63,1.43.45s1.41,0,2-.36a7.61,7.61,0,0,1,3.09-1.59c1.05-.16,1.18-2.42,2.26-2.35.45,0,.44.25,1.13,0,.47-.2,1.5,1.84,2,1.78a4.74,4.74,0,0,1,2.23.27c.7.25,1.2.94,1.88,1.27.46.23.84.63,1.4.52a3.17,3.17,0,0,1,2,.12c.48.22,1,.58,1.51.28a4.6,4.6,0,0,1,2.34-.51c1.32,0,2.63.47,3.95.38.49,0,1.42-1.07,1.61-1.54s-.6-1.3-1.06-.84c-1.21,1.21-2.07.8-3.32.4a20.17,20.17,0,0,1-3-1.12c-.74-.4-.73-1.11-1.44-1.57-1-.69-2.23-.43-3.33-1-.69-.38-1.72-2.06-2.45-2.26-1.18-.32-1.73.13-2.93,0-.48,0-.9-.44-1.4-.16a5.67,5.67,0,0,1-2.89.85c-.62,0-1.19-.51-1.81-.51Z"/><path id="path13692" class="cls-16" d="M200.25,63.12c-2.78,0,1.15,5.56.42,8.18a4.63,4.63,0,0,0,.45,3.79c.92,1.64,3,2.13,3.5,3.78.66,2.14-1.47,4.54-.88,6.66.37,1.36,1.39,2.35,1.26,3.85-.21,2.4-2,4.49-1.5,7,.28,1.46-1.3,2.06-1,3.39s2,2.15,1.5,3.25c-.7,1.5.59,2.54,1.5,3.42,1.22,1.41,1,1.75,2,2.4,1.45.82,2.45,1.94,2,3.6-.31,1.25-1.26,2.24-1,3.67.32,2,0,4.33,1,6.09.77,1.38.72.8-.32,2.09-1.39,1.72-1.6,4.07-2.09,6.18-.32,1.38.9,3.82,1.63,5.08s1.68,2.47,1.9,4.32,3.26.73,4.75,1.46,2.69,1.81,4.37,2.2c1.88.43,1.53,2.86,2.15,4.4a8.79,8.79,0,0,0,3.1,3.78,8,8,0,0,0,6.92,1.16,19.67,19.67,0,0,0,5.94-2.78c.86-.62,2.59.44,3,1.66.49,1.4,2.3,1.78,3.64,2.28s3.2.24,3.74-1.09c.63-1.56,2-.23,3-.24a4.51,4.51,0,0,0,3-2c1.78-2.53,1.2-5.72,1.06-8.62a10,10,0,0,0-2.06-5.88c-1.11-1.33-2.15-3.38-3.87-3.63-1.91-.27-1.52-1.17-1.69-2.61-.21-1.69-.39-3.47-1.8-4.75s-2.87-2.64-4.92-2.46c-1.35.12-.06-2.32-.41-3.29-.7-2-1.41-4-3.08-5.44-1-.89-2.84-1.19-3.46-2.35s-.32-2.59,0-4,1.42-2.08,1.34-3.57c-.15-2.73.12-5.54-1.31-8-.72-1.25-2.34-1.55-3.52-2.29-2.26-1.44-4.6-2.88-6.13-5-1.41-2-1.09-4.68-1.26-7.08-.11-1.51-1.79-2.35-2.8-3.41-2.5-2.63-4.2-5.82-6.45-8.62a18.21,18.21,0,0,0-3.84-4,11.08,11.08,0,0,1-5.12-1,28,28,0,0,0-4.78-1.53Z"/></g></g><path id="path13694" d="M187.06,192.83a30.85,30.85,0,0,1-2,5,16.59,16.59,0,0,1-3,3.48,37.55,37.55,0,0,1-3.5,2.49c-1.35,1-2.93,1.71-4,3s-2.5,3.12-2.5,5a5.74,5.74,0,0,0,2,4,7.46,7.46,0,0,0,5,2,8.59,8.59,0,0,0,5.5-2.49c1.07-1,2-4,2-4v1a10.73,10.73,0,0,1-.5,3,12.67,12.67,0,0,1-2.5,4,25.76,25.76,0,0,1-4,3v.5s4-.83,6-1a16.7,16.7,0,0,1,3,0c2,.16,6,1,6,1v-.5a25.76,25.76,0,0,1-4-3,12.67,12.67,0,0,1-2.5-4,10.73,10.73,0,0,1-.5-3v-1s.93,2.95,2,4a8.59,8.59,0,0,0,5.5,2.49,7.48,7.48,0,0,0,5-2,5.74,5.74,0,0,0,2-4c0-1.86-1.31-3.56-2.5-5s-2.66-2-4-3a37.55,37.55,0,0,1-3.5-2.49,16.59,16.59,0,0,1-3-3.48,30.85,30.85,0,0,1-2-5"/><g id="g13696"><g id="g13698"><g id="g13700"><path id="path13702" class="cls-6" d="M149.55,139.72s2,3.72,3.18,5.46a35.44,35.44,0,0,0,3.71,4.57,39,39,0,0,0,3.54,3c1.27,1,3.89,3,3.89,3s2.89-3.23,4.24-4.93c1.18-1.48,2.16-3.12,3.36-4.58.66-.8,2.12-2.29,2.12-2.29"/><path id="path13704" class="cls-6" d="M186.85,143.06s3.72,3.36,5.66,4.93c1.43,1.17,3,2.32,4.33,3.61.95.94,2.56,2.91,2.56,2.91s2.62-1.84,3.89-2.82a38.44,38.44,0,0,0,4.07-3.34,25.7,25.7,0,0,0,1.94-2.47c.66-.87,1.37-1.71,1.95-2.64.41-.67,1.06-2.11,1.06-2.11"/></g><g id="g13706"><path id="path13708" class="cls-17" d="M121.27,146.06l-14.14,4.58L123.75,195c1.88.11,2.88,1.67,3.61,2.73a6.42,6.42,0,0,1,6.75.36,4.19,4.19,0,0,1,2.9,3.43c.69,2.41-2.25,1.9-2.25,3.44-.59,2.27,1.31,2.31,3.05,2.5,1.59.42,3.41.7,3.7,2.63.74,1.77,0,3.73-.44,5.51,1.91-.16,3,1,3.83,2.56a21.1,21.1,0,0,1,.41,5.89c-2.83.48,1.89.8,1,2.81a6.61,6.61,0,0,1-1.2,5.11c1.67.11,4-.36,3.18,2.05a12.14,12.14,0,0,1-1.46,7.08c-1.34.5-1,3.69.3,3.92,2-.11,1.91,2.25,1.86,3.67-.56,1.85,1.42,2.65,2.95,2.4,4.63.34,9.45.24,13.85,1.83,2.1.28,1.45,3-.48,3.06-2.53,1.35-5.47,1.4-8.18,2.22.25,1.26-1.17,4.3,1.16,3.38a90.82,90.82,0,0,1,14.36-.82,155.2,155.2,0,0,1-6.89-17.66c-3.21-9.21-5-18.87-8.53-28-2.53-7-4.89-14.08-6.76-21.3-1.82-7.07-4.38-13.92-6-21.05-2.51-7.55-5.36-15-8.05-22.48-2.66.53-5.42-.93-8,.39-1.54,1.05-3-.23-4.09-1.32-1.25-.93-1.67-2.65-3.13-3.29Z"/><path id="path13710" class="cls-17" d="M226.27,152.92l.18,7.4-1.06,10.91-1.6,11.62L222,195.17l-2.12,14.26-4.07,16L212,239.36l-3.36,12.32-2.8,8,5.1.13,7.25.36,5.83.52,3.71-13.2L232.63,230l3.54-13.9L239.35,201l2.48-12L244,174.58l1.41-10.39.71-9.85-2.12-.53-1.77-.71-1.06-1.4-.89-1.24-1.59-1.05-2.12,1.41-2.65,1.58-2.12.7-2.12.18Z"/></g><g id="g13712"><path id="path13714" class="cls-18" d="M270.25,86.4c.65,3.25,1.34,9.18,2,14.93.33,2.85,1.07,8,1.23,10.84-1.19.13-2.53-.17-3.6.32a6.54,6.54,0,0,0-2.77,2,9.91,9.91,0,0,0-1.73,3.84,8.75,8.75,0,0,0-.19,3.52c.39,1.77,2,2.91,3,4.39.81.55.1,1.29-.12,2a4.28,4.28,0,0,1-2.18.75,5.86,5.86,0,0,1-3.64-.43A28.48,28.48,0,0,1,257.8,126a19.42,19.42,0,0,1-3.3-3.66,6.18,6.18,0,0,1-1.21-2.87,30.75,30.75,0,0,1-.25-5.5,23.8,23.8,0,0,0-3-.89c-1.85-.38-2.2-1.61-3.71-2.77-1.72-1.32-3.31-2.78-5.06-4.07a35.11,35.11,0,0,0,3.54-5.21,10.18,10.18,0,0,1,2.7-3.18c1.27-.7,2.23-1.8,3.69-2-.17-.53-1-1.12-1.21-1.76a18.81,18.81,0,0,1-.91-5.21,8.5,8.5,0,0,1,0-3,20.53,20.53,0,0,1,2.4-4.35,4.33,4.33,0,0,1,1.95-1.57,42.24,42.24,0,0,1,4.67-2c-.18,1.32-.82,2.61-.39,4s.34,3,1,4.22a6.22,6.22,0,0,0,2.51,2.72c.81.4,1.44,1.2,2.46,1s2.06,0,3-.56a6.64,6.64,0,0,0,2.44-1.7l1.05-1.19Z"/><path id="path13716" class="cls-18" d="M268,88.39l.12-21.91c-.58-2-1.86.37-2.84.88-1.27.94-2.39,2.28-3.75,3-1.92.52-2.16-.58-1.83-2.22.22-7.47.35-14.94,1.17-22.37.36-4.84,1-9.66,1.51-14.49h6.87c2,7.54,3.82,15.21,7.25,22.27a127.66,127.66,0,0,1,4.12,12.89,5.44,5.44,0,0,1-2.86,2.8c-1.39,0-2-1.85-3-2.66-.71-.84-2.07-2.81-2.66-1.11,2.46,6.31,5.07,12.59,7.44,18.93,1.41,12.85,2.62,25.72,4.44,38.52.45,4.44,1.52,9.09.38,13.45-.88,1.1-1.83,2.09-3.35,2.07-1.24.19-2.14-1.69-2.39-2.81a62,62,0,0,0-2.9-9.47c-2.43-10.45-3.26-21.16-4.75-31.75-.32-2.5-.64-5-1-7.5l-2,1.5Z"/><path id="path13718" class="cls-18" d="M264.87,31.75l2.25,33.61"/><path id="path13720" class="cls-18" d="M266.25,31.63l6.63,33"/><g id="g13722"><path id="path13724" class="cls-18" d="M281,120.07a1.82,1.82,0,1,1-1.75-2.3A2.08,2.08,0,0,1,281,120.07Z"/><path id="path13726" class="cls-18" d="M282.62,130.53a1.48,1.48,0,1,1-1.44-1.81A1.65,1.65,0,0,1,282.62,130.53Z"/></g></g></g><path id="path13728" class="cls-19" d="M279.5,84l3.25.5,4-3.24,1.5-5,.5-3.23V68.6l-1.5-3-.75-1.74-2.25-2.49,5.25-8.47,2.75-6.47,2.25-6.23,2.25.5L302,45.19l5.5,5.48,5,7.22,4.5,9,2.5,6.72L322.25,84l.75,9.46v5.73l-.75,7.72-1.5,8-2.25,9-3.75,9L311,139.3,306,147l-6-6.47-5-5.48-4.5-3,3.5-4.73v-5l-2-6-3.5-2.74-2.75-1.25-3.5-.25Z"/></g><path id="path13730" d="M299.7,84.78a23.93,23.93,0,0,1-.82,4.06,12.27,12.27,0,0,1-1.79,3.07,30.5,30.5,0,0,1-2.31,2.38,16.24,16.24,0,0,0-2.62,2.83c-.71,1.25-1.46,2.73-1.2,4.14A4.44,4.44,0,0,0,293,104a5.76,5.76,0,0,0,4.08.81,6.57,6.57,0,0,0,3.83-2.66,9.78,9.78,0,0,0,1-3.3l.14.75a8.35,8.35,0,0,1,0,2.34,9.43,9.43,0,0,1-1.34,3.38,19.34,19.34,0,0,1-2.62,2.83l.07.38s2.91-1.19,4.43-1.6a13.45,13.45,0,0,1,2.28-.41c1.56-.16,4.7-.09,4.7-.09l-.07-.37a19.53,19.53,0,0,1-3.46-1.72,9.57,9.57,0,0,1-2.47-2.68,8.44,8.44,0,0,1-.8-2.2l-.14-.76a9.68,9.68,0,0,0,2.09,2.75,6.6,6.6,0,0,0,4.53,1.13,5.77,5.77,0,0,0,3.52-2.21,4.46,4.46,0,0,0,1-3.31c-.26-1.41-1.49-2.52-2.6-3.44a16.16,16.16,0,0,0-3.46-1.71,28.5,28.5,0,0,1-3-1.41,12.22,12.22,0,0,1-2.78-2.23,23.93,23.93,0,0,1-2.22-3.5"/><g id="g13732"><g id="g13734"><path id="path13736" class="cls-20" d="M246.07,154.16c1.69.24,2.17-2.18,3.41-2s2.71.68,3.66-.52,2.28,1.1,3.41,1.51a18.22,18.22,0,0,1,6.64,4.23,43.26,43.26,0,0,1,9.48,15.38,15.27,15.27,0,0,1-.23,9.89,56.24,56.24,0,0,0-3.15,16.79c0,3.62-1.31,7.63.5,10.92s3,4.64,4.75,7.81c.76,1.36,1.33,3,2,4.27-4.13,4.83-8.68,11.36-12.42,16.51-2.43,3.36-3.58,7.52-6.47,10.57a8.86,8.86,0,0,0-2.5,3.22c-1-1-.93-3.91-1.25-5.94-.25-1.57-.65-3.8-.85-5-1.4.23-2.59,3-3.17,4.3-2,4.31-3.4,7.2-4.48,11.44a13,13,0,0,1-1.79,4.29c-6.52-.55-13.06-1.09-19.62-1.05,2.73-9.75,5.9-19.38,8.28-29.21,3.28-13.51,6.69-27,9-40.73,1.33-7.72,2.8-15.44,3.63-23.22.47-4.47.77-9,1.15-13.44Z"/><g id="g13738"><path id="path13740" class="cls-6" d="M264.19,208c-2.47,4.4-5.41,8.66-7,13.46-1.65,5.08-1.8,10.49-3,15.68a46.55,46.55,0,0,1-1.14,4.66"/><path id="path13742" class="cls-6" d="M257,173.26c-.2,8.92.3,17.93-1,26.76-.75,5.17-1.16,10.31-1.81,15.47-.82,6.54-2,13-1.86,19.66.06,2.14.19,4.27.31,6.41"/></g><path id="path13744" class="cls-20" d="M106.75,150.5C98.91,154,91,158.46,84.43,164a23.45,23.45,0,0,0-6.91,10.58c-3.65,8.4-7.83,16.59-10.6,25.34-2.37,7-4.3,14.08-6.13,21.21-2.81,11.67-6.2,23.2-9,34.88-.56,2.56-1.3,2-1,4.58,2.93-3.54,7.23-8.7,10.46-12,3.87-3.23,7.54-6.72,12-9.16a83.38,83.38,0,0,1,9.48-4.56c2.87-.77,5.68-1.9,8.71-1.52a21.65,21.65,0,0,0,10-1.91,16.83,16.83,0,0,1,5.07-.25c2.7,1,3.68.37,7.1.1,1.84-3.45,3-9.5,5.51-12.59a26,26,0,0,1,4.09-5.28c.05-1.59-.19-2.34-.79-2.56s-1.55.07-2.92.58c-1.62-.11-3.54-1.23-3.25-3.06-.12-1.89-.09-3.74,1.15-5.29.41-2,2.88-.63,4-1.93,2.16-.62-.37-2.49.34-4,.6-1.83,0-1,2.16-2.51-5.35-13.94-11.82-30.24-17.16-44.18Z"/><g id="g13746"><path id="path13748" class="cls-6" d="M92.28,168.42C93.64,174,95,179.6,96.11,185.25c.74,3.88,1.75,7.73,2.25,11.64,1,7.43,1,15,1.7,22.41.36,3.64,1.7,7.14,2,10.81,0,.39.09.77.14,1.16"/><path id="path13750" class="cls-6" d="M87.5,192.72c2.13,4.62,4.22,9.26,6.15,14,1.33,3.23,2.39,6.59,4.17,9.62.85,1.44.84,3.18,1.17,4.79.72,3.55,1.29,7.13,1.94,10.7"/></g><g id="g13752"><path id="path13754" class="cls-21" d="M142.27,166.52l12.25,1.24L168.77,169l9.25.25h8.75l10.5-.5,8.75-.5,7.25-1,5.75-1.74,4.75-1.49,2.28-.69.13-2.71c-1.49.56-3,1.09-4.53,1.5a99.39,99.39,0,0,1-16.41,3.3,227.1,227.1,0,0,1-32.16.43c-10.68-.57-21.6-2.36-32.25-3.39.79,1.9,1,1.9,1.44,4.05Z"/><path id="path13756" class="cls-21" d="M147.25,182.12c-6.86-1.2,13.9.89,20.87.75,2,0,3.92,0,5.88,0,.54,3.91,1.53,7.8,1.25,11.78,0,1.3.43,3-1.49,2.51a7.74,7.74,0,0,0-4.54,1.29c-1.51.88-3.32,1.3-4.16,3-1,1.92-2.76,3.43-2.9,5.7-.11,1.75-.85,3.42-.12,5.21,1,2.45,1.17,5.39,3,7.35,1.61,1.76,4.39,1.62,6.72,2,1.79-.26,1.35,1.59,1.63,2.76a43.27,43.27,0,0,1,.65,9.44c1.93.46,4.16.25,5.85,1.23a17.9,17.9,0,0,1,6,5c.89,1.26,2.22,3.38,2.29,5,.83.12,1.5-2.62,2-3.6,1.09-2.08,1.78-2.47,3.51-4a12,12,0,0,1,4.5-2.93,43.57,43.57,0,0,1,4.58-.68c-.27-3.17-.12-6.36-.4-9.52-.19-1.3-.86-2.9,1.06-2.9a15.85,15.85,0,0,0,5.17-2.49,13.43,13.43,0,0,0,3.47-3.46,10.29,10.29,0,0,0,1.44-5.25c.06-2.11,1.08-4.43-.08-6.37-1.27-2.11-1.68-4.21-3.75-5.51-2.78-1.74-7.84-2.48-11.16-1.85.25-4.56.28-9.12.25-13.69,2.78.15,5.58.91,8.34.62,5.71-.59,11.28-2,16.91-3.11-.17,1.74-.33,3.49-.5,5.23a77,77,0,0,1-11.89,1.76c-2.48.13-6-.38-8.49-.29l-.36,5.81a22.15,22.15,0,0,1,6.76,1.28,14.29,14.29,0,0,1,5.79,4,11.72,11.72,0,0,1,2.72,5.56,17.63,17.63,0,0,1,0,6.79c-.56,2.58-.9,5.32-2.32,7.52a15.58,15.58,0,0,1-5.16,4.71c-1.51.92-3.31,1-4.95,1.47.47,4.1.87,8.2,1.06,12.32-2.28.57-4.7.54-6.89,1.41a13.15,13.15,0,0,0-6,5.31,69.82,69.82,0,0,0-3.89,8.42,8.86,8.86,0,0,1-2.93.09,18,18,0,0,0-1.88-7.46,15,15,0,0,0-7.78-5.9,15.42,15.42,0,0,0-6.68-.64,94.12,94.12,0,0,0-.65-12.56c0-1.35-2.15-.94-3.18-1.26-1.56-.49-3.37-.66-4.61-1.66-2.5-2-3.37-5.31-4.28-8.28a13.26,13.26,0,0,1-.47-6.83c.7-3.23,2.58-5.91,4.38-8.57,1.1-1.61,2.9-2.41,4.6-3.15a19.74,19.74,0,0,1,5.27-1.35,32.33,32.33,0,0,1-.7-8.09,66.33,66.33,0,0,1-11.36.27,61.32,61.32,0,0,0-10.92.25c-.47-1.47-.94-3-1.42-4.42Z"/><g id="g13758"><path id="path13760" class="cls-22" d="M162.1,176a4,4,0,0,1-7.95,0v0a4,4,0,0,1,7.95,0Z"/><path id="path13762" class="cls-21" d="M188.62,177.66A3.65,3.65,0,1,1,185,174.4,3.45,3.45,0,0,1,188.62,177.66Z"/><path id="path13764" class="cls-21" d="M212.66,175.64a3.31,3.31,0,0,1-6.54,0v0a3.31,3.31,0,0,1,6.54,0Z"/></g></g><path id="path13766" class="cls-6" d="M165.31,117.85a6.24,6.24,0,0,1,.93-.75,4.55,4.55,0,0,1,1.4-.43,5.44,5.44,0,0,1,1.8,0,4.09,4.09,0,0,1,1.27.49,4.19,4.19,0,0,1,.53.44"/><g id="g13768"><path id="path13770" class="cls-23" d="M156.79,31.08a47.91,47.91,0,0,0-9.59,7.32c-1.08,1.11-3.19,5.34-2.94,7,.18,1.27.29,4.89.77,6a9.67,9.67,0,0,0,1.22,2.63,154.3,154.3,0,0,1,18.9-4.91,49.63,49.63,0,0,1,10.9-.19,66.83,66.83,0,0,1,12.77,2.15,37.87,37.87,0,0,1,9.93,3.8,35.19,35.19,0,0,1,8.62,7.72,89.63,89.63,0,0,1,7.22,8.87c1.5,2.29,2.76,4.73,4.84,6.57,1.54,1.36,2.55,3.44,4.68,4,1.39.36,2.62,1.17,4.14.65s3.36-.57,4.6-1.89,3.23-2.13,3.69-4.1,1.89-3.64,1.91-5.56a28.42,28.42,0,0,0-1.43-9c-.67-2.05-1-4.15-2.45-5.9-3.1-3.81-5.44-8.17-8.9-11.71-2.38-2.44-4.69-5-7.13-7.32a20.61,20.61,0,0,0-5.18-3.36c-2.15-1.09-3.93-2.4-5.93-2.59-17.37,0-33.28-.17-50.65-.17Z"/><g id="g13772"><path id="path13774" class="cls-24" d="M169,42.21a7.27,7.27,0,0,0,6,5.5c.72.14,1.43.33,2.16.47"/><path id="path13776" class="cls-24" d="M173.8,39.47c.75,2.44,2,5.09,4.79,5.83,3.61,1,7.38,2.06,10,4.87"/><path id="path13778" class="cls-24" d="M189.34,42a18.34,18.34,0,0,0,7.32,6.18c4.31,1.9,7.07,6,9.28,10q2.25,4,4.53,8"/><path id="path13780" class="cls-24" d="M208.69,52.41c2.33,4,4.82,7.89,7.13,11.89a13.47,13.47,0,0,1,1.28,9.27"/><path id="path13782" class="cls-24" d="M209.11,44.19c2.9,6,6.89,11.57,9.06,17.9,1.31,3.84.82,9.25.88,13.27"/><path id="path13784" class="cls-24" d="M212.7,41.37a43.84,43.84,0,0,0,4.72,11A36.57,36.57,0,0,1,222.11,74c0,.45-.39,3.62-.47,4.06"/><path id="path13786" class="cls-24" d="M215.4,38.56a39.1,39.1,0,0,0,4.17,9.54c2.21,3.91,3.39,8.23,4.51,12.55.77,3,1.56,6,.85,9.11-.46,2-1.12,7.82-1.27,9.86"/><path id="path13788" class="cls-24" d="M224.41,50.88A45.78,45.78,0,0,0,227,60.75c1.3,3.27.65,6.82.7,10.24,0,2-1.6,7.64-2.23,9.5"/><path id="path13790" class="cls-24" d="M228.2,53.34a35.32,35.32,0,0,0,2.19,9.21c1.92,5.1-.7,13-3.11,18"/><path id="path13792" class="cls-24" d="M232.69,60.21a12.48,12.48,0,0,1,2,8.35C234.32,72.25,232.1,79,229.29,81"/></g></g><path id="path13794" class="cls-4" d="M149.59,53a8.93,8.93,0,0,0-2.5.75c-.67.36-1.52.76-1.75,1.49a8.16,8.16,0,0,0,.5,4c.59.67.59.89,2.37,1.24a7.85,7.85,0,0,0,3.88-.25,48.22,48.22,0,0,1,6.41-2,56,56,0,0,1,7.5-1c2.93-.07,5.86-1.27,8.75-.83,3.12.46,6.22.17,9.25,1a80.56,80.56,0,0,1,8.75,3.24c1.62.68,3.07,1.75,4.75,2.24,1.29.37,2.65.44,3.94.81,1.5.43,2.84,1.16,4.31,1.68a19.36,19.36,0,0,0,3,.75c.75.13,2.25.25,2.25.25a44.1,44.1,0,0,0-3.75-5,39.49,39.49,0,0,0-8-6.6,49.34,49.34,0,0,0-14-5.35c-4.31-1-8.82-.87-13.25-.75a87.83,87.83,0,0,0-9,1c-2.25.29-4.49,1.2-6.75,1.52-1.83.26-4.85,1.36-6.66,1.75Z"/><g id="g13796"><path id="path13798" class="cls-6" d="M141.86,78.67c-.08,2.61.61,5.49-.55,7.84-1.35,2.74,2,7.19,1.12,10.31-.72,2.47-6.24,3.16-5.27,5.52.79,1.94-.37,5.73-3.14,4.21-1.66-.91-.92-3.8.6-3.46"/><path id="path13800" class="cls-6" d="M136.83,114.2c-3.43,2-5.71,7-6.44,10.71a12.11,12.11,0,0,1-3.78,7.07c-1.33,1.1-3.08,1.78-4.63.88"/><path id="path13802" class="cls-6" d="M140.54,142.81c-2.61-1.39-1.32-4.81-1.95-6.61-.85-2.43-2.13-5-1.76-7.57.42-2.92.51-14,.62-17l.18-2.1,1.5-2.36,1.25-1.5v-2.36l1.62-1.25,2.38-1.24,1.5-1.5.25-1.86"/><path id="path13804" class="cls-6" d="M122,144.48c3.24-.06,4.3-.7,5.71-2.72s2.58-5.36,4.1-7.33,2.62-9.29,5.54-10"/><path id="path13806" class="cls-6" d="M201.87,64c.63,4,2.54,7.64,3,11.65.44,3.63,3.77,6.44,3.14,10.13-.6,3.52.18,7.15-1,10.59-1.34,3.74,2.25,5.88,3.38,9,1.2,3.25,1.18,6.56,4.4,8.84,3.5,2.49-.56,6.91-1.63,9.85-1.33,3.66-2,8.41.21,11.81,2,3,6.52,1.06,8.45,5.48,1.32,3,2.82,6.62,6,7.83,3.39,1.3,7.87.64,10.41-1.87,2.75-2.72,0-8.87-4.36-9.08-3.52-.17-6.71,7.83-1.2,6.1"/><path id="path13808" class="cls-6" d="M204.76,64.86c2.37,3.62,3.4,9.44,4.36,13.6.72,3.13,1.5,6,1.34,9.28-.2,4,.73,7.64,1.42,11.73.53,3.15.86,6.54,3.12,8.59,2.65,2.39,6.78,3.1,6.39,7.1a38.23,38.23,0,0,1-3,11.32c-1.59,3.77,2.55,8.41,5.38,9.83,3,1.52,8.67.26,9.09-3.61.47-4.35-1.1-8.88-3.3-4.56-1.63,3.19-6.79,1.64-5.57-3.07.92-3.59,3.31-3.21,3.65-6.51s-.84-4.9-1.58-8.1c-.79-3.39-7.28-3.5-8.9-7.11s-1.84-7.69-2.14-11.6c-.44-5.53-.62-11.13-2.39-16.5-.93-2.85-.25-5.78-2.36-8.27"/><path id="path13810" class="cls-6" d="M217,76.31c1.42,3.66,1.75,7.58,2.82,11.36,1.17,4.13,2.9,7.82,2.84,12.15,0,4,4.14,5,5.78,8.4a27.73,27.73,0,0,1,2.46,9.8c.33,3.09-2.91,7.92,2.3,8.34a9,9,0,0,1,7.43,4.41c2.06,3.67,1.42,7.79,1,11.77-.31,2.79,1.31,6.27-2.5,7.09"/><path id="path13812" class="cls-6" d="M225,90.63c.89,2.3,1,4.92,2.21,7,1.64,2.78,7.93,3.5,5.67,7.8-1.91,3.6,1.22,7,1.4,10.58s1.19,9.15,4.22,8.46c4.27-1,3.38,2.29,4.69,4.14,1.87,2.61,3.9,4.11,3.79,7.63-.11,3.26-2.82,5.42-2.84,9.14,0,2.73,3.45,4.15,4.36,6.48"/><path id="path13814" class="cls-6" d="M249.75,132.71c1,3.68,2.49,7.11,2.91,11.08.29,2.81-3,5.79-4.29,1.81-.45-1.43.9-2.58,1.63-3.81"/><path id="path13816" class="cls-6" d="M123,127.31c-.07.47-.27,1,.07,1.41a1.74,1.74,0,0,0,1.86.74,1.94,1.94,0,0,0,1.38-1.35,11.86,11.86,0,0,0,.31-1.94"/><path id="path13818" class="cls-6" d="M121.09,133c.64.46,1.43.81,1.8,1.58a4.16,4.16,0,0,1,.3,3.55c-.34.7-.39,1.67-1.1,2.09s-1.75-.1-2.36-.66c-.45-.41-.1-1-.14-1.55"/><path id="path13820" class="cls-6" d="M137.9,134.75a14.33,14.33,0,0,0-1.78,3.93,19.46,19.46,0,0,1-1.79,5.43,27.38,27.38,0,0,1-3.06,4.41,3.93,3.93,0,0,1-1.48,1.32c-.69.29-1.28.75-2,1s-2.54.08-2.53-.68"/><path id="path13822" class="cls-6" d="M147.12,102.58c-.6,1.11-1.13,2.45-2.44,2.86a8,8,0,0,0-2.19,4.07c-.63,2.26-1.53,4.5-1.4,6.89,0,3.12.33,6.23.15,9.36,0,2.55-.4,4.63,1,6.87,1.11,1.29,3.32,2.47,4.2,4,.58,1.35.81,3.38-.6,4.31-1.63.94-4.26-.64-3.7-2.12.19-.54.87-1.63,1.3-1.54"/><path id="path13824" class="cls-6" d="M148.24,106.44a19.15,19.15,0,0,0-2.31,5.91c-.21,1.67-1,3.23-.88,4.94-.05,3.27.19,4.24.24,7.51.11,1.92,1,3,2.19,5.76,1.61,1.45,1.52,5.72,1.71,7.73a11.08,11.08,0,0,1-.26,2.63"/><path id="path13826" class="cls-6" d="M150.62,115.27a13.87,13.87,0,0,0-1.25,2.49,7.67,7.67,0,0,0-.25,2.86,7.32,7.32,0,0,0,.87,2.87,8.09,8.09,0,0,0,1.38,1.49c.56.56,1.39.91,1.75,1.62a5.89,5.89,0,0,1,.25,2.11"/></g><path id="path13828" class="cls-8" d="M119.87,269a26.29,26.29,0,0,1-7.25-2.93,12.18,12.18,0,0,1-3.55-2.68,14.29,14.29,0,0,1-2.35-4.35c-.54-1.43-1.23-3.21-.22-4.23.86-.88,1.33-.71,1.41-1.76.17-2-.35-3.92-.26-5.86a10.22,10.22,0,0,1,1.51-4.72c1.6-2.72,2.39-5.82,3.75-8.67s1.93-6.14,3.23-9.07a38.33,38.33,0,0,1,4.48-7.78,17.41,17.41,0,0,1,3.38-3.82c2.45-1.76,4.85-3.71,7.75-4.69,1.16-.4,2.21-1.41,3.4-1.4a9.33,9.33,0,0,1,4.21.94,5.1,5.1,0,0,1,2.16,2.65,4.38,4.38,0,0,1-1.15,4.78c-.7.72-2,.56-2.88.93-2.29.91-4.85.68-7.18,1.4-1.69.52-2.85,1.9-4.19,3-.93.77-.39,1.5.35.68,1-1.14,2-2.84,3.48-3.19,3.71-.86,7.43-1.88,11.2-2.38a3.12,3.12,0,0,1,3.2,1.53,7.06,7.06,0,0,1,1,5.3,3.46,3.46,0,0,1-3.19,2.2,68.08,68.08,0,0,0-6.83.83c-2.2.35-3.64,1.8-5.43,3.14-.93.69-1,1.58,0,.8,2.67-2.19,3.12-2.54,5.1-3.14,2.23-.69,4.47-1,6.72-1.51a5.29,5.29,0,0,1,4.1.83c.66.45.64,1.67.83,2.48a3,3,0,0,1-.89,2.58,8.77,8.77,0,0,1-3.21,2c-1.58.78-3.44.92-4.91,2-.75.53-1.67,1.23-2.39,1.7s-1.38.7-1.22,1.23c.11.37,1.68-.63,2.37-1,2.75-1.65,5.1-4.12,8.19-5.07.87-.26,1.08.31,2,.78s1.47.87,1.4,2c-.09,1.27.59,2.68.19,3.86-.57,1.65-2.3,2.58-3.94,3.13a9.44,9.44,0,0,0-3.23,2.1c-.85.76-1.39,1.73-2.43,2.28s-2.43.69-2.94,1.7c-.31.6,2.22-1.37,2.25-.42a6.58,6.58,0,0,1-.6,3.32,7.29,7.29,0,0,1-1.78,2.77c-2.09,1.65-3.16,4.4-5.26,6-1.9,1.42-4.44,1.67-6.82,1.74-1,0-1.68.07-1.92,1.32a25.26,25.26,0,0,0,0,3.48c-.06,1.45-.5,3.59-1,3.49Z"/><g id="g13830"><path id="path13832" class="cls-6" d="M118.5,226.19c.17.91.33,1.82.5,2.74a2.49,2.49,0,0,0,3.12.24"/><path id="path13834" class="cls-6" d="M121.12,230.8c.14,1.65-.51,3.79,1.18,4.89a4.74,4.74,0,0,0,3.07.59"/><path id="path13836" class="cls-6" d="M126.62,241.87c0,1.21.18,2.56,1.54,2.84.45.37.84,0,1.21-.22"/></g><path id="path13838" class="cls-17" d="M45,269.51A33.79,33.79,0,0,0,48,265l1.75-3.74,3.5-3.11L57.5,253l4.38-4.48,3.62-3.61,5.75-4.11,5.87-3.11,6.13-3,5.63-1.37,4,.38,3-.88,4.24-.62,3.5-.87,1.76-.12,2,.12,1.87.75,1.75-.38,1.62-.12a6,6,0,0,0,1-.25s-.52,1.49-.74,2.24l-.76,2.49L111,238.89l-.87,2.12-1.5,2.86-1.13,2.86v3.11l-.5.87-1.25.63H103l-.62,1.24-2,1.74-1.75-.12h-3.5l-2.25,2.37L91,259.06l-1.75,3-1.87,2.74-.5,1.37-.25,1.12.75-1.37.87,1.62a6.09,6.09,0,0,1,.38,2l-43.12-.12Z"/><g id="g13840"><path id="path13842" class="cls-6" d="M59.12,269.14a58.22,58.22,0,0,1,6.87-10"/><path id="path13844" class="cls-6" d="M62.88,269a43.74,43.74,0,0,1,5.87-7.35"/><path id="path13846" class="cls-6" d="M66.62,268.89c1.54-1.71,3.32-3.24,4.5-5.23"/><path id="path13848" class="cls-6" d="M72.88,268.76A15.26,15.26,0,0,0,75,265.65"/><path id="path13850" class="cls-6" d="M77.25,256.69c.93-2.05,1.52-4.26,2.89-6.09a30.32,30.32,0,0,1,5.09-5.68c3-2.38,6.54-4,9.68-6.22A18.84,18.84,0,0,1,99,236c1.3-.49,2.07-1.75,2.92-2.79a8.2,8.2,0,0,1,2.69-1.8"/><path id="path13852" class="cls-6" d="M101.12,237.89c1.11-1,2-2.51,3.64-2.62.86-.05,1.76.15,2.49-.49a21.71,21.71,0,0,0,2.12-2.87"/><path id="path13854" class="cls-6" d="M101.37,246.48c-2.27,3-4.85,5.66-7.08,8.65-2,2.73-4.54,5.16-6.14,8.15-1,1.91-1.53,4.05-2.53,6"/><path id="path13856" class="cls-6" d="M107.5,246.1c-1.61,1.73-3.12,3.54-4.62,5.36"/></g><path id="path13858" class="cls-20" d="M264.9,268.94l.35-2.2,1-1.85,1-2.2.62-2.38.17-2.46.71-2.82.88-2.37,1.51-3,.79-3.61v-2.47l.18-2.72.88-2.64,1.51-2.38,1.23-1.94.45,1.94,1,1.5,2.38,1.76,2.74,2.55,2.83,1.32,2.57.7,2,.36h1.41l4-1.24,1.68-1.14,1.94-1.23,1.59-.79.09-1.68,1.59,4.84,2,4.23,1.32,3.08,1.51,3.7,1.41,4.75.53,4.84-.18,4.49.18,1.23Z"/><path id="path13860" class="cls-1" d="M277.62,232.41a1.88,1.88,0,0,0-1.88,1c-.45,1,.34,2.3.89,3.29a8.17,8.17,0,0,0,1.92,2.06,32.17,32.17,0,0,0,4.89,3.45,15.05,15.05,0,0,0,3.38,1.63,11.63,11.63,0,0,0,3.67.4,14.08,14.08,0,0,0,3.73-.72,14.92,14.92,0,0,0,3.43-1.61,6.8,6.8,0,0,0,2.57-2.26,5.08,5.08,0,0,0,.27-2.74c-.05-.39,0-1-.37-1.14-1.29-.3-1.74,2-2.77,2.84a14.05,14.05,0,0,1-3.7,2.25,9.25,9.25,0,0,1-3.33.6,8.7,8.7,0,0,1-3.34-.71,20.07,20.07,0,0,1-4.85-3.46A37.31,37.31,0,0,1,279,234c-.47-.52-.67-1.48-1.37-1.61Z"/><g id="g13862"><path id="path13864" class="cls-6" d="M292.48,250.46a12.33,12.33,0,0,1-4.88.08,16.86,16.86,0,0,1-4.15-1.26,17.22,17.22,0,0,1-2-1.11"/><path id="path13866" class="cls-6" d="M292.65,254.68a15.87,15.87,0,0,1-5.76,1.24,16.81,16.81,0,0,1-6.26-.71"/><path id="path13868" class="cls-6" d="M293.54,259.08a16.12,16.12,0,0,1-5.76,2.44,19.27,19.27,0,0,1-4.15-.12c-.91,0-1.82-.1-2.73-.12"/><path id="path13870" class="cls-6" d="M294,263.66c-1.88.33-3.63,1.19-5.5,1.53a33.85,33.85,0,0,1-6.51.6c-.27,0-.54-.07-.81-.1"/><path id="path13872" class="cls-6" d="M302.11,244.11a15.36,15.36,0,0,0,.46,4.1c.31,1.55.91,3,1.32,4.57s1,3.25,1.26,4.92c.33,1.95.37,3.92.52,5.89,0,.37,0,.74.06,1.12"/></g><path id="path13874" class="cls-8" d="M291.62,241.13c-1.83-.07-3.37.34-5-.5a26.81,26.81,0,0,1-6.68-5.62,8.47,8.47,0,0,0-2.2-2.6c.2-1.92.75-3.85.23-5.77a13.84,13.84,0,0,0-2.34-6.95c-2.12-3.25-3.91-6.72-5.8-10.09a13.54,13.54,0,0,1-.71-5.08A64,64,0,0,1,270,193a26.84,26.84,0,0,0,1.38-6.74,15.57,15.57,0,0,1,1.63-4.23,32.27,32.27,0,0,1,3.13-4.11c.44-1.14,1.23-2.24.76-3.5a5.66,5.66,0,0,1,1.56-3.7c1.12.26,2.5,0,3.14,1.2,1.11.82,1.34,2.18,1.61,3.44a21.59,21.59,0,0,1-.53,6.05,8.59,8.59,0,0,1-2.47,4.74c-1.05.09-1.35.34-2.3-.14a8.73,8.73,0,0,1,1.56,1.67c-.21,1.74.93.19,1.62-.25,1.57-1.07,3.53-1.51,5.28-2.28a10.61,10.61,0,0,0,5.12-2.89c1-.38,2.27-.89,2.42-.92,2.2.2,3.84-.11,6,0a6.46,6.46,0,0,1,2.49,4.54,2.28,2.28,0,0,1-1,2.77,13.16,13.16,0,0,1-2.87,2.28c1.56.41,3.23.53,4.74,1,.82.62,1.55,1.29,1.44,2.41a26.73,26.73,0,0,1,.11,5.21c-.82,1.69-2.75,2.17-4.29,3-.82-.13,1.57.73,1.58,1.44a30.28,30.28,0,0,0,1.43,2.71c0,1.66.61,3.28.14,4.91a8,8,0,0,1-3.44,1.15c-1.8-.3.06.8.6,1.4a4,4,0,0,1,1.63,2.49c-.43,1.15-.76,2.72-2.23,2.91-1.68.77-2.4,1.1-1.65,3.1.37,2.62-.11,5.27.13,7.91-.19,2.49.95,4.8,1,7.27.12,1,.33,2.2-1.05,2-2.17.49-4.25,1.82-6.56,1.44l-.58,0Z"/></g><g id="g13876"><path id="path13878" class="cls-25" d="M279.48,188.48c-.24.59-.8,1.14-.71,1.77a2.43,2.43,0,0,0,1.16,1.78,4.58,4.58,0,0,0,2.56.46c2.13-.36,4.23-.82,6.36-1.19.88-.15,1.66-.8,2.6-.59a13.18,13.18,0,0,0,5.76.21c.57-.13,1.14-.21,1.71-.32"/><g id="g13880"><path id="path13882" class="cls-6" d="M284,192.32c-1.13.86-3.48,1.24-4.12,2.5-.29.59-.29,2.69.29,3a23.54,23.54,0,0,0,6.65,1.79c1.51.3,3.11.48,4.58.91s2.89,1,4.42,1.35c1.15.27,2.4,0,3.53.27.4.11.77.29,1.15.43"/><path id="path13884" class="cls-6" d="M286,199.62c-.71.06-3.18,0-3.68.49A3.31,3.31,0,0,0,282,203c.7,1.38,2.21,1.57,3.49,2.46a13.55,13.55,0,0,0,3.14,2,25.44,25.44,0,0,1,5.1,2.23,30.65,30.65,0,0,0,5.11,2.67c.29.11.56.24.84.36"/><path id="path13886" class="cls-6" d="M294.58,210.39a21.2,21.2,0,0,0-4.63-.91c-.44,0-3.88-.27-4.71,0s-1.7.19-2.15.92-.75,2.25-.24,2.9c1.06,1.36,2.77,2.05,4.38,2.73,2.57,1.08,5.11,2.17,7.72,3.13a7.32,7.32,0,0,0,2.66.79c.56,0,1,.09,1.53.11.34,0,.71-.53,1-.42"/></g></g><path id="path13888" class="cls-26" d="M288.15,216.83,295,269.11l9.21.17L297.7,220l-3.36-1.06-2.66-.88Z"/><g id="g13890"><g id="g13892"><path id="path13894" class="cls-6" d="M278.6,207.85c-.22,1.62-.82,3.23-.69,4.85a30.27,30.27,0,0,0,1.8,7,4.71,4.71,0,0,0,.48.8"/><path id="path13896" class="cls-6" d="M276.48,221.06a45,45,0,0,0,3.16,3.45c.8.69,1.88,1.06,2.61,1.81a10.52,10.52,0,0,1,.77,1.08"/></g><path id="path13898" class="cls-4" d="M123,213.49l-.12-1.74c-.42-.38,0-.38-.38-.75-.73.23-2.33.18-3.06.36-.53-.14-1.1-.21-1.61-.4a13.42,13.42,0,0,1-1.34-1.14c-.1-.91-.34-1.81-.35-2.72.06-.75,0-1.52.15-2.25a10.68,10.68,0,0,1,1.83-2.24,1.86,1.86,0,0,1,1.07-.62c.86-.25,1.71-.54,2.56-.82,0-.49.24-1,0-1.44a4.65,4.65,0,0,1-.46-1.8c0-.39-.27-.86.1-1.15a13.13,13.13,0,0,1,1-1.23c.52-.15,1-.47,1.59-.28a8.63,8.63,0,0,1,1.27.21,22,22,0,0,1,2,2.13c.14.28.16,1,.5.46s.89-1,1.54-1.09a8.29,8.29,0,0,1,1.62-.53c.62.06,1.27,0,1.88.14,1,.62,1.94,1.22,2.86,1.89a17.07,17.07,0,0,1,1.12,1.56,13.7,13.7,0,0,1,.44,1.87,8.94,8.94,0,0,1-.27,1.29,9,9,0,0,0-1.86,1.72,2.11,2.11,0,0,0-.2,1c.14.32.12.8.57.81.66.1.17.24-.2.38-1.49.61-3,1.17-4.49,1.81-1.85,1.17-3.76,2.28-5.5,3.62l-1.77,1.54c-.13-.2-.25-.41-.38-.62Z"/><g id="g13900"><path id="path13902" class="cls-6" d="M122.75,210.88c.13-.75.37-1.87.5-2.61.52.23,1,.55,1.56.74a6,6,0,0,0,2.24-.35,6.76,6.76,0,0,0,1.27-.61c.56-.74,1.17-1.45,1.69-2.21a12.6,12.6,0,0,1,.83-2.59c.22-.17.69.15,1,.18a10.49,10.49,0,0,0,2.54.56,5.68,5.68,0,0,0,2-.33"/><path id="path13904" class="cls-6" d="M121.87,201a11.14,11.14,0,0,1,2.53,1.05,19.48,19.48,0,0,1,1.1,2.19c-.25.6-.34.15-.44-.25a15.28,15.28,0,0,1-.44-1.74"/><path id="path13906" class="cls-6" d="M127.75,198.3c0,.67-.39,1.7-.08,2.29.23.14.61.87.67.3a3.72,3.72,0,0,0-.34-1.09C127.71,199.42,128,198.68,127.75,198.3Z"/></g><g id="g13908"><path id="path13910" class="cls-20" d="M88.75,269.32,117,269l-1.62-1.19-2.32-1.24-3.12-2.18-1.44-1.68-1.38-2.37-.43-2.36-.57-1.43.07-1.56.87-.81.94-1v-1.43l-.25-1.93-1,1.12-1.13.38-1.31.06-1.12.12-.63,1.37-1.31.94-1.82.43H97l-1.69-.19-2.38,2.37-1.62,2.49-1.81,2.74-1.75,2.92-.44.88.44,1,.5,1.06.37.75Z"/><g id="g13912"><path id="path13914" class="cls-6" d="M88.69,268.26,90,265.83l1.69-2.11,1.69-1.93L95,259.48,96.63,257l.94-1.12,1.12-1.24"/><path id="path13916" class="cls-6" d="M101.62,264.53l.88.93,1.31,1.12,1.37.69,1.63.68,1.69.56,1.25.38"/></g></g><g id="g13918"><g id="g13920"><path id="path13922" class="cls-4" d="M137.8,246.58l1.86-1.49,2.12-2,1.94-1.14,1.86-1.06.79-.18V242l-.17,1.59.35,1.06,1.24.52,1.06.88.09,1.94.17,1.32.53,1.06,1.68.7,1.77.18,2-.09,3,.09,2.66.53,2.47.26,2,.26,1.15,1,.44,1.67-1.14.88-3.19,1.06-3.62.79-1.15.71-.79.08v1.24l-.09.88v.7l-1.68.7-.8.27v1.41l.53,1.58.89,2.55.53,1.23-4.69.36-6-.18-3.8.18-2.74-.27-.62-1.67-.62-1.14-2.21.88-2.12.44-1.94.88-1.68.35-2,.35-1.59-.17-1-.36-.35-1.58.53-1.06-.36-1-.7-.8.17-1.49,1.15-1.06,2-.7,3.18-1.24,2.12-1.23,1.59-1.14,1.24-1.5,1.85-2.29-1.23-1.32.53-2,1-1.94Z"/><path id="path13924" class="cls-27" d="M126,265.5l7.07-1.49,5.48-2.47,6.1-1.67,5.92-1.76,4.51-1,4.77-.88,4.16-.44,1.5-.53"/></g><path id="path13926" class="cls-27" d="M138.2,266.44l3.77-.92,6.13-1.66,3.49-.67,2.51-.55"/></g><g id="g13928"><path id="path13930" class="cls-6" d="M138.15,249.22A30.22,30.22,0,0,1,142.1,247a31.93,31.93,0,0,0,3-2c.28-.18.63-.1.95-.15l.39,0"/><path id="path13932" class="cls-6" d="M138.24,253c.91-.5,1.77-1.11,2.72-1.54l1.79-.4a5.44,5.44,0,0,0,1.94.93,1.83,1.83,0,0,0,1.58-.05c.45-.17,1-.19,1.36-.56l1.3-1.38"/></g></g><g id="g13934"><path id="path13936" class="cls-26" d="M156.5,269.13l-1.5-2.74-.62-2.12-.13-1.24,1.25-.87,2.38-.5,9.12-.75,7.5-.5H184l15-.49,9.75.12h8l8.37.25,7.76.37,5.37.5,5.25.75.5,2.36V269Z"/><path id="path13938" class="cls-28" d="M155,264.9l5.25-.63,8.63-.87,10.12-.62,14.62-.62H208l9.25-.13,8.62.25,6.75.38,7.5.74,3.63.38.12,1.61-5.37-.12-9.63-.87-9.75-.25h-9.62l-9.25-.13-14.75.5-10.12.5-8,.75-6,.74a31.42,31.42,0,0,0-5.63.88Z"/><g id="g13940"><path id="path13942" class="cls-6" d="M244,268.51l-3.5-2.74-3.5,2.87-3.38-3.49-3.12,3.49L226.88,265l-4.76,3.36-4.5-3.24-3.37,3.11-3.63-3-3.37,3.49L203,265.15l-3.25,3.36L195,265.15l-3.25,3.24-4.5-3-4,3.11-3.37-2.74-5,3-4.38-2.24-3.75,2.36-4.5-2L158,269"/><path id="path13944" class="cls-17" d="M276.5,222.32l-2.75,3.36-4.63,6.1-5.5,8.22-2.87,5.35-3,4.48-2.25,2.74-1.62,4.86-.88,3.86-.62,1.49-.88,2.12-.12,1.86V269H265l.5-2.86,1.12-2,.88-2.37.5-3.36.87-4.11,1.63-3.48,1.12-3.73.25-3.86v-2.12l1.88-4.23,2-3.36,2-1.5.75-3.73-.63-2.86Z"/><path id="path13946" class="cls-6" d="M271.5,241.37l-1.88,2.74L267.25,248l-1.63,3.61L264,255.69l-1.38,4-.87,4.11"/></g></g><g id="g13948"><path id="path13950" class="cls-17" d="M301,227.83c1.89,1.44,2.71,3,4.24,5,2.11,4.25,4.18,7.84,5.76,13,1.24,3,1.24,6.36,2.45,9.4,1.33,3.66.93,7.58,1.16,11.38.31,1.39.56,3.13-1.34,2.55l-4.49-.06c-.59-2.89.73-5.75.07-8.65-1-7.83-5.86-14.41-8-21.89-.38-2.4-1.45-4.66-1.43-7.13-.18-1.32-1.19-3.73-.71-5Z"/><path id="path13952" class="cls-6" d="M299.81,231.54a22.36,22.36,0,0,1,3.46,4.24c.65,1.35.81,2.87,1.48,4.22a10.66,10.66,0,0,1,1.15,4.09c.16,1.94.23,5.12.27,7.08"/></g></g></g><g id="g13954"><g id="g13956"><g id="g13958"><path id="path13960" class="cls-3" d="M220.88,270.88l1.24,15.85,1.23,1.4,15.38-8.62,1.24-8.45Z"/><path id="path13962" class="cls-4" d="M85.25,416.62l-8.87-63-1.63.62L72,355.38l-2.38,1.12-1,1.12,7.61,61Z"/></g><g id="g13964"><path id="path13966" class="cls-5" d="M239.75,509c3.33-1.44,7.27-2.81,9-6.23,1.32-2.58-2.16-6.09.38-7.91,3-2.13,2.91-5.92,2.6-9a8.69,8.69,0,0,0-5.81-7.27c-1.63-.49-2.86-1.37-1.15-2.91,2.46-2.23-.16-6-2.27-8-1.56-1.52-3.21-1.21-5.47-1.19-1.92,0,1.79-3.93-.71-5.75s-6.09-3.74-9.28-2.6a8.71,8.71,0,0,0-5.29,6.3c-.47,2.05-.62,2.11-.82.1s-4.15-2.6-4.62.29c-.54,3.32-2,6.44-2.31,9.82-.2,2.33-1.5,4.78-.9,7s1.5,3.28.47,5.61c-1.42,3.21,3.8,6,2.43,9.57-1.27,3.33-3.94,5.86-6.75,8-2,1.53-4,3.17-6,4.73l36.5-.5Z"/><g id="g13968"><path id="path13970" class="cls-6" d="M208.75,505.5a21.7,21.7,0,0,0,11.08.73c5.83-1.27,11.66-3.31,16.3-7,2.54-2,3.36-5.48,3.58-8.71.35-5.07.63-10.31-1-15.14a10.28,10.28,0,0,0-5.62-5.88c-2.63-1.11-4.73,1.89-5,4.49-.23,2.28-2.54-3-5-1.79-2.24,1.08-3.4,3.64-4,5.83a10.65,10.65,0,0,0-.16,2.59"/><path id="path13972" class="cls-6" d="M228,506c2.66,1,6,.68,7.75-1.74a11,11,0,0,0,1.5-4.48"/><path id="path13974" class="cls-6" d="M240,502.51c2.81-1.34,6.45-2.64,7.5-5.72.83-2.43-.65-5.1-1.79-7.32a3.75,3.75,0,0,0-3-1.89"/><path id="path13976" class="cls-6" d="M246.69,487.83c.88-3,.64-6.32-1.9-8.78-1.72-1.67-3-3.85-5.54-3.42"/><path id="path13978" class="cls-6" d="M235.25,465.17c-2.35-1-5.09-1-7.18.89-1.75,1.61-.59,6.3-3.94,4.2-2.84-1.78-5.74,1-6.56,3.54a9.73,9.73,0,0,0-.57,3.82"/><path id="path13980" class="cls-6" d="M233.25,461.68a4.79,4.79,0,0,0-6.48,0c-1.94,1.66-1.15,5-3.06,5.67-2.09.76-5,0-6.07,2.25a34.85,34.85,0,0,0-1.64,3.82"/><path id="path13982" class="cls-6" d="M218.75,503.76c.87-1.9,1.85-4.22.4-6.2-.81-1.09-1.06-2.64-2.4-3.26"/><path id="path13984" class="cls-6" d="M222.75,500.52c1.19-2.3,2.35-5.64.37-7.7a5.65,5.65,0,0,0-5.62-1.51"/><path id="path13986" class="cls-6" d="M227,499c.81-2.85.75-6.2-1.41-8.48-1.28-1.36-2.86-3-4.84-3-.9,0-4.27,2.56-3,.75s4.1-3.27,2.53-5.63c-1.31-2-3.88-3.47-6.3-2.59"/><path id="path13988" class="cls-6" d="M232.25,495.79c1.51-2.62.39-5.29-2-7.22-1.87-1.51-3.84-3.11-6.29-2.67-.4.07-.81.11-1.21.18"/><path id="path13990" class="cls-6" d="M233.75,487.83c.16-2.95-2.16-4.62-4.8-5.47-2.16-.69-4.68-.73-6.45.74"/><path id="path13992" class="cls-6" d="M235,482.1a8.46,8.46,0,0,0-5.25-6,7.15,7.15,0,0,0-8.5,3.24l-.25.5"/><path id="path13994" class="cls-6" d="M242.25,474.63c1.05-2.95-2.18-5.73-5-5.23a5.76,5.76,0,0,0-1.75.75"/><path id="path13996" class="cls-6" d="M210,504.51a30.18,30.18,0,0,0,9.75-.5c5.61-1.19,11.36-3,15.54-7,2.78-2.66,2.63-6.78,3.33-10.3s-1.26-6.63-1.72-10c-.33-2.5-2.17-5-4.65-5.29-1.63-.21-3.09,1.23-4.5,2"/></g></g><g id="g13998"><path id="path14000" class="cls-1" d="M222.38,386.49c-1-3.81-1.91-5.25-3.45-8.89-10.65-1-21.58-2.82-32.26-3.39a227.26,227.26,0,0,0-32.17.43A99.42,99.42,0,0,0,138.11,378a45.92,45.92,0,0,0-4.74,1.53v7.75c1.71,1.43,3.72,2.71,4.48,5,.54,1.58.77,3.22,2.23,4.36,1.29,1,3,1.07,4.39,2,1.15.78,3.39-.1,4,1,1.55,2.73,3.43,5.28,4.18,8.29.31,1.26.59,2.91-.12,4-.88,1.33-2.79,2.39-2.88,3.93-.22,3.83,2.67,7.38,2.09,11.23-.19,1.27-1.79,2.38-.6,3.6.55.56,2.53,2.48,2.72,1.22a112.6,112.6,0,0,1,6-17.76,67.48,67.48,0,0,1,5.15-9.1,25.61,25.61,0,0,1,4.64-5.28,16.73,16.73,0,0,1,6.27-4,14.18,14.18,0,0,1,7-.18c2,.44,4,.9,5.56,2.32,1.8,1.63,3.37,2.9,4.52,5.18a48,48,0,0,1,2.37,5.94c2,1.4,3.71,1.65,5,3.68.9,1.4,3.08,3,4.19,4.18,1.13-1,.74-3.33,1.29-4.68.71-1.73,2.28-.33,3.24-1.41,1.65-1.86,1-4.39,1.14-6.62.15-2.59.85-5.66,3.34-7,1.08-.58,2-2.29,3.27-1.88s1.35,2.7,3,1.54,1.4-3.45,2.54-5c.77-1.06.07-.56,1.14-1.89-.18-.59-1-2.29-1.22-3.34Z"/><path id="path14002" class="cls-4" d="M217.53,373.39l-12.28-1.08L191,371.07l-9.25-.25H173l-10.5.49-8.75.5-7.25,1-5.75,1.74L136,376l-2,.25,2-17.48,2.48-17.87,2-12.23,4.07-15.93,5.13-17.61,4.15-14.08.26-1.14,10.79-.53,11.58-.26h11.05l4.5,11,4.6,14.61,3.8,13.73,4.86,13.82L209.21,345l3.09,11.17,2.48,9.42Z"/><path id="path14004" class="cls-7" d="M213.75,469.4c3.09,0,3-5.46,4.88-7.87,1.32-1.67,3-3,3.81-5.08a8.66,8.66,0,0,0,.81-3.57,9,9,0,0,0-1.78-5.39c-.88-1.11.4-2,.86-2.95.55-1.12,1.19-2.68,2.35-3s2.15.12,3-.91a10.05,10.05,0,0,0,1.86-2.9,6,6,0,0,0,0-4.9c-.49-1-5.08-3-6.13-2.75-1.89.43,2,.46,2.52-.66s2.18-.63,3-1.42c1.06-1,2.32-1.69,2.81-3.12s1.32-3.22,1.26-4.87a19.44,19.44,0,0,1,.44-5.6c1.22,1.1,1,2.25,3.79,2.14,1.57-.06,2.87-2,3.52-3.39s-.46-3.19-1.32-4.58c-.69-1.14-1.65-1.63.29-1.51a5.26,5.26,0,0,0,3.14-1.08,5.63,5.63,0,0,0,2.39-3.79,3.51,3.51,0,0,0-.7-3.34,14.27,14.27,0,0,0-4-3.57c-.85-.42-2.29.83-2.66-.67a7,7,0,0,0-2-3.91,7.39,7.39,0,0,0-2.81-1.64c-1.65-.51-3.16.31-4.68.72s-2.81-.86-4.32-.53c-1,.21-1.06,1.84-1.56,2.7-.92,1.57-1.44,3.42-2.48,4.91s-.79,0-1.86-.92c-1.22-1-3.59-.45-4.83.26-2.12,1.23-1.69,2.78-2.42,5s-.35,4-.86,6.11c-.29,1.21-.15,3.11-1.14,3.85s-2.1-.3-2.84.94-.45,2.18-.8,3.16c-1.55.6-.77,1.61-.07,2.61a20.77,20.77,0,0,1,2.7,5.71c1.37,5.23,3.76,10.24,4.52,15.58.56,3.94.27,7.95.84,11.9.45,3.18.09,6.42.31,9.63.19,2.9.07,5.82.09,8.73Z"/><path id="path14006" class="cls-8" d="M213,482.66a12.08,12.08,0,0,0,.46-3.16c.36-5.23,1.13-6.48,1.51-11.71s.25-13.16,0-18.49c-.4-4.85-1.79-10.44-2.85-15.2-.73-3.75-2.17-6.17-3.31-9.81-1-2-1.5-4.41-2.87-6.19-2.82-2.32-4.1-4.2-6.23-7.08a10.82,10.82,0,0,0-4.48-2.09,17,17,0,0,0-1.55-5.57,10.36,10.36,0,0,0-2.85-3.52c-2.13-1.3-4.18-2.87-6.38-4-2.57-.15-5.18-.91-7.66.07-3.27.48-5.66,3-8,5.15s-4.07,4.83-5.95,7.33c-3.37,7.49-8.43,15.11-10.9,22.93-.63,1.35-1,2.64.53,3.48.76,1,2.54,1.68,2,3.19-.83,1.79,1.14,1.87,1.35,3.27,1.21,1.7-1.67,1.8-1.33,3.37a40,40,0,0,1-1.34,7.78c-.25,1.5.85,2.51,1.39,3.7a11.53,11.53,0,0,1-.88,5.41c-.59,1.82.93,2.07,2.09,2.91,1.58.65,1,2.13,1.6,3.31.79,1.34-.14,3-.08,4.53a11,11,0,0,0,1,3.31c.25,1.26.37,1.17.67,3.16,2.86.9,6.66,1.82,9.12,2.84a28.23,28.23,0,0,0,12.39,3.47c4.34.76,9.13.3,13.52.29a103.58,103.58,0,0,0,13.57-2.5c1-.27,1.62-.11,2.69-.31Z"/><g id="g14008"><path id="path14010" class="cls-6" d="M213.74,468.5c-.68.91-2,.76-2.81,1.42-1.33,1-3.13.85-4.73.9a13.52,13.52,0,0,1-5.54-.83,5.51,5.51,0,0,1-2.65-2.18,6.49,6.49,0,0,1-.52-2.71c-.06-.41-.08-.81-.15-1.22"/><path id="path14012" class="cls-6" d="M197.34,464.45a36.94,36.94,0,0,1,0-8.07c.18-2.3.25-3,.4-5.31a22.47,22.47,0,0,1,.42-3.87,15.59,15.59,0,0,0,.59-3.84c0-1,0-2.93-1-3.34-1.43-.57-2.44.29-3.85-.25-.64-.24-1.61-1-2.16-.59-1,.75-1.53.08-2.46.94-.53.48-1.36,1.1-2.06.9-1-.29-2.1-1.12-3-.62-.6.34-1.05,1.37-.25,1.9.08.05.78,1.35.85,1.42"/><path id="path14014" class="cls-6" d="M187.74,466.75c-.87.93-1.42,2.3-2.57,2.86a11,11,0,0,1-5,1.06,53,53,0,0,1-7-.11c-1.2-.18-2.56.13-3.65-.35s-1.77-.33-3.17-1.15"/></g></g><g id="g14016"><path id="path14018" class="cls-9" d="M198.65,430.64c-.35.73-1.56.94-2.37,1.37-.59.31-1,.87-1.8.9a3.44,3.44,0,0,1-2.64-.6c-.57-.36-1.69-.31-1.69.25a5.6,5.6,0,0,1-2.24.22,13.87,13.87,0,0,1-3.55-1.19c-.55-.2-1.4-.35-1.44-.86.23-.57,1.45-.41,1.85-.92.88-.71,1.4-.83,2.35-1.51a4.79,4.79,0,0,1,2.78-1.42,16.22,16.22,0,0,1,4.35.31,3,3,0,0,1,2.2,1.21c.25.58.8.27,1.27.77a11.41,11.41,0,0,1,.93,1.33v.14Z"/><path id="path14020" class="cls-9" d="M198.32,430.09a25.11,25.11,0,0,0-3,.26c-.82.19-1.11-.64-1.83-.75a8.67,8.67,0,0,0-3.29-.18,20.71,20.71,0,0,0-1.91.88,3.52,3.52,0,0,1-2.31.32c-.88-.05-1.7-.4-2.58-.42a2.4,2.4,0,0,0-.53.12"/></g><g id="g14022"><g id="g14024"><path id="path14026" class="cls-6" d="M194.71,408.6a29.58,29.58,0,0,0-4.6-.53,34.59,34.59,0,0,0-6.89,1.23,42.35,42.35,0,0,0-6.54,1.94,38.87,38.87,0,0,0-6.54,3.52,33.79,33.79,0,0,0-4.95,3.87,37.22,37.22,0,0,0-3.71,4.4,32.61,32.61,0,0,0-3,4.4A40.53,40.53,0,0,0,156.7,432"/><path id="path14028" class="cls-6" d="M211.09,461.94c-.48.77-.68,1.78-1.4,2.33a6.1,6.1,0,0,1-3,1.54,21.48,21.48,0,0,1-5.54-.79c-.66-.13-.83-.81-1.25-1.2s0,0-.05-.07a.14.14,0,0,1,0-.05"/><path id="path14030" class="cls-6" d="M184.9,462.5c-.37.71-.47,1.72-1.06,2.16a7.38,7.38,0,0,1-6.6,1.51,23.88,23.88,0,0,1-5.28-1.53c-.6-.3-1-1-1.45-1.47"/></g><g id="g14032"><path id="path14034" class="cls-10" d="M211.38,459.68c-1.46.57-2.11,2.07-3.71,2.34a59,59,0,0,1-5.95.38c-1.06.08-2.13-.56-3.18-.7a3.94,3.94,0,0,1,1-2.12,13.94,13.94,0,0,1,2.16-1.91,7.85,7.85,0,0,1,3.31-1.25,5.57,5.57,0,0,1,2.61.1,7.06,7.06,0,0,1,2.39,1.34c.78.82.67,1,1.42,1.82Z"/><g id="g14036"><path id="path14038" class="cls-11" d="M202.28,459.57a2.31,2.31,0,1,1,2.27,2.74A2.54,2.54,0,0,1,202.28,459.57Z"/><path id="path14040" class="cls-12" d="M203.75,459.82c0-.55.27-1,.6-1s.6.45.6,1-.27,1-.6,1S203.75,460.37,203.75,459.82Z"/></g></g><g id="g14042"><path id="path14044" class="cls-13" d="M185.06,461.09a19.91,19.91,0,0,1-3.16,1.52,8.36,8.36,0,0,1-3.07.36,22.67,22.67,0,0,1-4.35.14,10.08,10.08,0,0,1-3-.89,15.53,15.53,0,0,1-1.63-1.16c.67-.67,1.16-1.61,2-2.05a11.76,11.76,0,0,1,3.87-1.44,13.05,13.05,0,0,1,3.11-.33,8.55,8.55,0,0,1,2.85.64,4.56,4.56,0,0,1,2.11,1.3,17.92,17.92,0,0,1,1.31,1.91Z"/><g id="g14046"><path id="path14048" class="cls-14" d="M174.56,460.73a2.74,2.74,0,0,1,2.13-3.22,2.71,2.71,0,0,1,3.18,2.16,2.74,2.74,0,0,1-2.13,3.22A2.71,2.71,0,0,1,174.56,460.73Z"/><path id="path14050" class="cls-15" d="M176.2,460.79c-.13-.67.09-1.29.49-1.37s.83.41,1,1.08-.09,1.29-.49,1.37S176.33,461.46,176.2,460.79Z"/></g></g></g><g id="g14052"><path id="path14054" class="cls-16" d="M195.27,438.87c1.26,0,1.48-1.61,2.61-2.22a5.47,5.47,0,0,0,2.65-1.85c.82-1.06,2.33-1.36,3.26-2.29.48-.49,1.93.24,2.2-.42s.45-1.61-.31-1.58c-.44,0-1.28-.46-1.65-.18a1.28,1.28,0,0,1-1,.38c-.89.07-1.74.61-2.64.59-.5,0-.88-.63-1.43-.45s-1.41,0-2,.36a7.61,7.61,0,0,1-3.09,1.59c-1.05.16-1.18,2.42-2.26,2.35-.45,0-.44-.25-1.13,0-.47.2-1.5-1.84-2-1.78a4.74,4.74,0,0,1-2.23-.27c-.7-.25-1.2-.94-1.88-1.27-.46-.23-.84-.63-1.4-.52a3.17,3.17,0,0,1-2-.12c-.48-.22-1-.58-1.51-.28a4.6,4.6,0,0,1-2.34.51c-1.32,0-2.63-.47-3.95-.38-.49,0-1.42,1.07-1.61,1.54s.6,1.3,1.06.84c1.21-1.21,2.07-.8,3.32-.4a20.17,20.17,0,0,1,3,1.12c.74.4.73,1.11,1.44,1.57,1,.69,2.23.43,3.33,1,.69.38,1.72,2.06,2.45,2.26,1.18.32,1.73-.13,2.93,0,.48.05.9.44,1.4.16a5.67,5.67,0,0,1,2.89-.85c.62,0,1.19.51,1.81.51Z"/><path id="path14056" class="cls-16" d="M159.75,476.87c2.78,0-1.15-5.56-.42-8.18a4.63,4.63,0,0,0-.45-3.79c-.92-1.64-3-2.13-3.5-3.78-.66-2.14,1.47-4.54.88-6.66-.37-1.36-1.39-2.35-1.26-3.85.21-2.4,2-4.49,1.5-7-.28-1.46,1.3-2.06,1-3.39s-2-2.15-1.5-3.25c.7-1.5-.59-2.54-1.5-3.42-1.22-1.41-1-1.75-2-2.4-1.45-.82-2.45-1.94-2-3.6.31-1.25,1.26-2.24,1-3.67-.32-2,0-4.33-1-6.09-.77-1.38-.72-.8.32-2.09,1.39-1.72,1.6-4.07,2.09-6.18.32-1.38-.9-3.82-1.63-5.08s-1.68-2.47-1.9-4.32-3.26-.73-4.75-1.46-2.69-1.81-4.37-2.2c-1.88-.43-1.53-2.86-2.15-4.4a8.79,8.79,0,0,0-3.1-3.78,8,8,0,0,0-6.92-1.16,19.67,19.67,0,0,0-5.94,2.78c-.86.62-2.59-.44-3-1.66-.49-1.4-2.3-1.78-3.64-2.28s-3.2-.24-3.74,1.09c-.63,1.56-2,.23-3,.24a4.51,4.51,0,0,0-3,2c-1.78,2.53-1.2,5.72-1.06,8.62a10,10,0,0,0,2.06,5.88c1.11,1.33,2.15,3.38,3.87,3.63,1.91.27,1.52,1.17,1.69,2.61.21,1.69.39,3.47,1.8,4.75s2.87,2.64,4.92,2.46c1.35-.12.06,2.32.41,3.29.7,2,1.41,4,3.08,5.44,1,.89,2.84,1.19,3.46,2.35s.32,2.59,0,4-1.42,2.08-1.34,3.57c.15,2.73-.12,5.54,1.31,8,.72,1.25,2.34,1.55,3.52,2.29,2.26,1.44,4.6,2.88,6.13,5,1.41,2,1.09,4.68,1.26,7.08.11,1.51,1.79,2.35,2.8,3.41,2.5,2.63,4.2,5.82,6.45,8.62a18,18,0,0,0,3.84,4,11.08,11.08,0,0,1,5.12,1,28,28,0,0,0,4.78,1.53Z"/></g></g><path id="path14058" d="M172.94,347.16a30.85,30.85,0,0,1,2-5,16.59,16.59,0,0,1,3-3.48,37.55,37.55,0,0,1,3.5-2.49c1.35-1,2.93-1.71,4-3s2.5-3.12,2.5-5a5.74,5.74,0,0,0-2-4,7.46,7.46,0,0,0-5-2,8.59,8.59,0,0,0-5.5,2.49c-1.07,1-2,4-2,4v-1a10.73,10.73,0,0,1,.5-3,12.67,12.67,0,0,1,2.5-4,25.76,25.76,0,0,1,4-3v-.5s-4,.83-6,1a16.7,16.7,0,0,1-3,0c-2-.16-6-1-6-1v.5a25.76,25.76,0,0,1,4,3,12.67,12.67,0,0,1,2.5,4,10.73,10.73,0,0,1,.5,3v1s-.93-2.95-2-4a8.59,8.59,0,0,0-5.5-2.49,7.48,7.48,0,0,0-5,2,5.74,5.74,0,0,0-2,4c0,1.86,1.31,3.56,2.5,5s2.66,2,4,3a37.55,37.55,0,0,1,3.5,2.49,16.59,16.59,0,0,1,3,3.48,30.85,30.85,0,0,1,2,5"/><g id="g14060"><g id="g14062"><g id="g14064"><path id="path14066" class="cls-6" d="M210.45,400.27s-2-3.72-3.18-5.46a35.44,35.44,0,0,0-3.71-4.57,40.64,40.64,0,0,0-3.54-3c-1.27-1-3.89-3-3.89-3s-2.89,3.23-4.24,4.93c-1.18,1.48-2.16,3.12-3.36,4.58-.66.8-2.12,2.29-2.12,2.29"/><path id="path14068" class="cls-6" d="M173.15,396.93s-3.72-3.36-5.66-4.93c-1.43-1.17-3-2.32-4.33-3.61-.95-.94-2.56-2.91-2.56-2.91s-2.62,1.84-3.89,2.82a38.44,38.44,0,0,0-4.07,3.34,25.7,25.7,0,0,0-1.94,2.47c-.66.87-1.37,1.71-1.95,2.64-.41.67-1.06,2.11-1.06,2.11"/></g><g id="g14070"><path id="path14072" class="cls-17" d="M238.73,393.93l14.14-4.58L236.25,345c-1.88-.11-2.88-1.67-3.61-2.73a6.42,6.42,0,0,1-6.75-.36,4.19,4.19,0,0,1-2.9-3.43c-.69-2.41,2.25-1.9,2.25-3.44.59-2.27-1.31-2.31-3.05-2.5-1.59-.42-3.41-.7-3.7-2.63-.74-1.77,0-3.73.44-5.51-1.91.16-3-1-3.83-2.56a21.1,21.1,0,0,1-.41-5.89c2.83-.48-1.89-.8-1-2.81a6.61,6.61,0,0,1,1.2-5.11c-1.67-.11-4,.36-3.18-2a12.14,12.14,0,0,1,1.46-7.08c1.34-.5,1-3.69-.3-3.92-2,.11-1.91-2.25-1.86-3.67.56-1.85-1.42-2.65-2.95-2.4-4.63-.34-9.45-.24-13.85-1.83-2.1-.28-1.45-3,.48-3.06,2.53-1.35,5.47-1.4,8.18-2.22-.25-1.26,1.17-4.3-1.16-3.38a90.82,90.82,0,0,1-14.36.82,155.2,155.2,0,0,1,6.89,17.66c3.21,9.21,5,18.87,8.53,28,2.53,7,4.89,14.08,6.76,21.3,1.82,7.07,4.38,13.92,6,21.05,2.51,7.55,5.36,15,8.05,22.48,2.66-.53,5.42.93,8-.39,1.54-1.05,3,.23,4.09,1.32,1.25.93,1.67,2.65,3.13,3.29Z"/><path id="path14074" class="cls-17" d="M133.73,387.07l-.18-7.4,1.06-10.91,1.6-11.62L138,344.82l2.12-14.26,4.07-16,3.89-13.9,3.36-12.32,2.8-8-5.1-.13-7.25-.36-5.83-.52-3.71,13.2L127.37,310l-3.54,13.9L120.65,339l-2.48,12-2.12,14.44-1.41,10.39-.71,9.85,2.12.53,1.77.71,1.06,1.4.89,1.24,1.59,1.05,2.12-1.41,2.65-1.58,2.12-.7,2.12-.18Z"/></g><g id="g14076"><path id="path14078" class="cls-18" d="M89.75,453.59c-.65-3.25-1.34-9.18-2-14.93-.33-2.85-1.07-8-1.23-10.84,1.19-.13,2.53.17,3.6-.32a6.54,6.54,0,0,0,2.77-2,9.91,9.91,0,0,0,1.73-3.84,8.75,8.75,0,0,0,.19-3.52c-.39-1.77-2-2.91-3-4.39-.81-.55-.1-1.29.12-2a4.28,4.28,0,0,1,2.18-.75,5.93,5.93,0,0,1,3.64.43A28.48,28.48,0,0,1,102.2,414a19.42,19.42,0,0,1,3.3,3.66,6.18,6.18,0,0,1,1.21,2.87,30.75,30.75,0,0,1,.25,5.5,23.8,23.8,0,0,0,3,.89c1.85.38,2.2,1.61,3.71,2.77,1.72,1.32,3.31,2.78,5.06,4.07a35.11,35.11,0,0,0-3.54,5.21,10.18,10.18,0,0,1-2.7,3.18c-1.27.7-2.23,1.8-3.69,2,.17.53,1,1.12,1.21,1.76a18.81,18.81,0,0,1,.91,5.21,8.5,8.5,0,0,1,0,3,20.53,20.53,0,0,1-2.4,4.35,4.33,4.33,0,0,1-2,1.57,42.24,42.24,0,0,1-4.67,1.95c.18-1.32.82-2.61.39-3.95s-.34-3-1-4.22a6.22,6.22,0,0,0-2.51-2.72c-.81-.4-1.44-1.2-2.46-1s-2.06,0-3,.56a6.64,6.64,0,0,0-2.44,1.7l-1,1.19Z"/><path id="path14080" class="cls-18" d="M92,451.6l-.12,21.91c.58,2,1.86-.37,2.84-.88,1.27-.94,2.39-2.28,3.75-3,1.92-.52,2.16.58,1.83,2.22-.22,7.47-.35,14.94-1.17,22.37-.36,4.84-1,9.66-1.51,14.49H90.75c-2-7.54-3.82-15.21-7.25-22.27a127.66,127.66,0,0,1-4.12-12.89,5.44,5.44,0,0,1,2.86-2.8c1.39.05,2,1.85,3,2.66.71.84,2.07,2.81,2.66,1.11-2.46-6.31-5.07-12.59-7.44-18.93-1.41-12.85-2.62-25.72-4.44-38.52-.45-4.44-1.52-9.09-.38-13.45.88-1.1,1.83-2.09,3.35-2.07,1.24-.19,2.14,1.69,2.39,2.81a62,62,0,0,0,2.9,9.47C86.72,424.3,87.55,435,89,445.6c.32,2.5.64,5,1,7.5l2-1.5Z"/><path id="path14082" class="cls-18" d="M95.13,508.24l-2.25-33.61"/><path id="path14084" class="cls-18" d="M93.75,508.36l-6.63-33"/><g id="g14086"><path id="path14088" class="cls-18" d="M79,419.92a1.82,1.82,0,1,1,1.75,2.3A2.08,2.08,0,0,1,79,419.92Z"/><path id="path14090" class="cls-18" d="M77.38,409.46a1.48,1.48,0,1,1,1.44,1.81A1.65,1.65,0,0,1,77.38,409.46Z"/></g></g></g><path id="path14092" class="cls-19" d="M80.5,456l-3.25-.5-4,3.24-1.5,5-.5,3.23v4.48l1.5,3,.75,1.74,2.25,2.49-5.25,8.47-2.75,6.47-2.25,6.23-2.25-.5L58,494.8l-5.5-5.48-5-7.22-4.5-9-2.5-6.72L37.75,456,37,446.5v-5.73l.75-7.72,1.5-8,2.25-9,3.75-9L49,400.69,54,393l6,6.47,5,5.48,4.5,3L66,412.64v5l2,6,3.5,2.74,2.75,1.25,3.5.25Z"/></g><path id="path14094" d="M60.3,455.21a23.93,23.93,0,0,1,.82-4.06,12.27,12.27,0,0,1,1.79-3.07,30.5,30.5,0,0,1,2.31-2.38,16.24,16.24,0,0,0,2.62-2.83c.71-1.25,1.46-2.73,1.2-4.14A4.44,4.44,0,0,0,67,436a5.76,5.76,0,0,0-4.08-.81,6.57,6.57,0,0,0-3.83,2.66,9.78,9.78,0,0,0-1,3.3l-.14-.75a8.35,8.35,0,0,1,0-2.34,9.43,9.43,0,0,1,1.34-3.38,19.34,19.34,0,0,1,2.62-2.83l-.07-.38s-2.91,1.19-4.43,1.6a13.45,13.45,0,0,1-2.28.41c-1.56.16-4.7.09-4.7.09l.07.37a20.29,20.29,0,0,1,3.46,1.72,9.57,9.57,0,0,1,2.47,2.68,8.44,8.44,0,0,1,.8,2.2l.14.76a9.68,9.68,0,0,0-2.09-2.75,6.6,6.6,0,0,0-4.53-1.13,5.77,5.77,0,0,0-3.52,2.21,4.46,4.46,0,0,0-1,3.31c.26,1.41,1.49,2.52,2.6,3.44a16.16,16.16,0,0,0,3.46,1.71,28.5,28.5,0,0,1,3,1.41,12.22,12.22,0,0,1,2.78,2.23,23.93,23.93,0,0,1,2.22,3.5"/><g id="g14096"><g id="g14098"><path id="path14100" class="cls-20" d="M113.93,385.83c-1.69-.24-2.17,2.18-3.41,2s-2.71-.68-3.66.52-2.28-1.1-3.41-1.51a18.22,18.22,0,0,1-6.64-4.23,43.26,43.26,0,0,1-9.48-15.38,15.27,15.27,0,0,1,.23-9.89,56.24,56.24,0,0,0,3.15-16.79c0-3.62,1.31-7.63-.5-10.92s-3-4.64-4.75-7.81c-.76-1.36-1.33-3-2-4.27,4.13-4.83,8.68-11.36,12.42-16.51,2.43-3.36,3.58-7.52,6.47-10.57a8.86,8.86,0,0,0,2.5-3.22c1,1,.93,3.91,1.25,5.94.25,1.57.65,3.8.85,5,1.4-.23,2.59-3.05,3.17-4.3,2-4.31,3.4-7.2,4.48-11.44a13,13,0,0,1,1.79-4.29c6.52.55,13.06,1.09,19.62,1.05-2.73,9.75-5.9,19.38-8.28,29.21-3.28,13.51-6.69,27-9,40.73-1.33,7.72-2.8,15.44-3.63,23.22-.47,4.47-.77,9-1.15,13.44Z"/><g id="g14102"><path id="path14104" class="cls-6" d="M95.81,332c2.47-4.4,5.41-8.66,7-13.46,1.65-5.08,1.8-10.49,3-15.68a46.55,46.55,0,0,1,1.14-4.66"/><path id="path14106" class="cls-6" d="M103,366.73c.2-8.92-.3-17.93,1-26.76.75-5.17,1.16-10.31,1.81-15.47.82-6.54,2-13,1.86-19.66-.06-2.14-.19-4.27-.31-6.41"/></g><path id="path14108" class="cls-20" d="M253.25,389.49c7.84-3.51,15.8-8,22.32-13.51a23.45,23.45,0,0,0,6.91-10.58c3.65-8.4,7.83-16.59,10.6-25.34,2.37-7,4.3-14.08,6.13-21.21,2.81-11.67,6.2-23.2,9-34.88.56-2.55,1.3-2,1-4.58-2.93,3.54-7.23,8.7-10.46,11.95-3.87,3.23-7.54,6.72-12,9.16a83.38,83.38,0,0,1-9.48,4.56c-2.87.77-5.68,1.9-8.71,1.52a21.65,21.65,0,0,0-9.95,1.91,16.83,16.83,0,0,1-5.07.25c-2.7-1-3.68-.37-7.1-.1-1.84,3.45-3,9.5-5.51,12.59a26,26,0,0,1-4.09,5.28c0,1.59.19,2.34.79,2.56s1.55-.07,2.92-.58c1.62.11,3.54,1.23,3.25,3.06.12,1.89.09,3.74-1.15,5.29-.41,2-2.88.63-4,1.93-2.16.62.37,2.49-.34,4-.6,1.83,0,1-2.16,2.51,5.35,13.94,11.82,30.24,17.16,44.18Z"/><g id="g14110"><path id="path14112" class="cls-6" d="M267.72,371.57c-1.36-5.59-2.75-11.18-3.83-16.83-.74-3.88-1.75-7.73-2.25-11.64-.95-7.43-1-15-1.7-22.41-.36-3.64-1.7-7.14-2-10.81,0-.39-.09-.77-.14-1.16"/><path id="path14114" class="cls-6" d="M272.5,347.27c-2.13-4.62-4.22-9.26-6.15-14-1.33-3.23-2.39-6.59-4.17-9.62-.85-1.44-.84-3.18-1.17-4.79-.72-3.55-1.29-7.13-1.94-10.7"/></g><g id="g14116"><path id="path14118" class="cls-21" d="M217.73,373.47l-12.25-1.24L191.23,371l-9.25-.25h-8.75l-10.5.5-8.75.5-7.25,1L141,374.47,136.23,376l-2.28.69-.13,2.71c1.49-.56,3-1.09,4.53-1.5a100.43,100.43,0,0,1,16.41-3.3,227.1,227.1,0,0,1,32.16-.43c10.68.57,21.6,2.36,32.25,3.39-.79-1.9-1-1.9-1.44-4Z"/><path id="path14120" class="cls-21" d="M212.75,357.87c6.86,1.2-13.9-.89-20.87-.75-2,0-3.92,0-5.88,0-.54-3.91-1.53-7.8-1.25-11.78,0-1.3-.43-3,1.49-2.51a7.74,7.74,0,0,0,4.54-1.29c1.51-.88,3.32-1.3,4.16-3,1-1.92,2.76-3.43,2.9-5.7.11-1.75.85-3.42.12-5.21-1-2.45-1.17-5.39-3-7.35-1.61-1.76-4.39-1.62-6.72-2-1.79.26-1.35-1.59-1.63-2.76a43.27,43.27,0,0,1-.65-9.44c-1.93-.46-4.16-.25-5.85-1.23a17.9,17.9,0,0,1-6-5c-.89-1.26-2.22-3.38-2.29-5-.83-.12-1.5,2.62-2,3.6-1.09,2.08-1.78,2.47-3.51,4a12,12,0,0,1-4.5,2.93,41.1,41.1,0,0,1-4.58.68c.27,3.17.12,6.36.4,9.52.19,1.3.86,2.9-1.06,2.9a15.85,15.85,0,0,0-5.17,2.49,13.43,13.43,0,0,0-3.47,3.46,10.29,10.29,0,0,0-1.44,5.25c-.06,2.11-1.08,4.43.08,6.37,1.27,2.11,1.68,4.21,3.75,5.51,2.78,1.74,7.84,2.48,11.16,1.85-.25,4.56-.28,9.12-.25,13.69-2.78-.15-5.58-.91-8.34-.62-5.71.59-11.28,2-16.91,3.11.17-1.74.33-3.49.5-5.23a77,77,0,0,1,11.89-1.76c2.48-.13,6,.38,8.49.29l.36-5.81a22.15,22.15,0,0,1-6.76-1.28,14.29,14.29,0,0,1-5.79-4,11.72,11.72,0,0,1-2.72-5.56,17.63,17.63,0,0,1,0-6.79c.56-2.58.9-5.32,2.32-7.52a15.58,15.58,0,0,1,5.16-4.71c1.51-.92,3.31-1,4.95-1.47-.47-4.1-.87-8.2-1.06-12.32,2.28-.57,4.7-.54,6.89-1.41a13.15,13.15,0,0,0,6-5.31,69.82,69.82,0,0,0,3.89-8.42,8.86,8.86,0,0,1,2.93-.09,18,18,0,0,0,1.88,7.46,15,15,0,0,0,7.78,5.9,15.42,15.42,0,0,0,6.68.64,94.12,94.12,0,0,0,.65,12.56c0,1.35,2.15.94,3.18,1.26,1.56.49,3.37.66,4.61,1.66,2.5,2,3.37,5.31,4.28,8.28a13.26,13.26,0,0,1,.47,6.83c-.7,3.23-2.58,5.91-4.38,8.57-1.1,1.61-2.9,2.41-4.6,3.15a19.74,19.74,0,0,1-5.27,1.35,32.33,32.33,0,0,1,.7,8.09,66.33,66.33,0,0,1,11.36-.27,61.32,61.32,0,0,0,10.92-.25c.47,1.47.94,2.95,1.42,4.42Z"/><g id="g14122"><path id="path14124" class="cls-22" d="M197.9,364a4,4,0,0,1,7.95,0v0a4,4,0,0,1-7.95,0Z"/><path id="path14126" class="cls-21" d="M171.38,362.33a3.65,3.65,0,1,1,3.62,3.26A3.45,3.45,0,0,1,171.38,362.33Z"/><path id="path14128" class="cls-21" d="M147.34,364.35a3.31,3.31,0,0,1,6.54,0v0a3.31,3.31,0,0,1-6.54,0Z"/></g></g><path id="path14130" class="cls-6" d="M194.69,422.14a6.24,6.24,0,0,1-.93.75,4.55,4.55,0,0,1-1.4.43,5.44,5.44,0,0,1-1.8,0,4.09,4.09,0,0,1-1.27-.49,4.19,4.19,0,0,1-.53-.44"/><g id="g14132"><path id="path14134" class="cls-23" d="M203.21,508.91a47.91,47.91,0,0,0,9.59-7.32c1.08-1.11,3.19-5.34,2.94-7-.18-1.27-.29-4.89-.77-6a9.67,9.67,0,0,0-1.22-2.63,154.3,154.3,0,0,1-18.9,4.91A49.63,49.63,0,0,1,184,491a66.83,66.83,0,0,1-12.77-2.15,37.87,37.87,0,0,1-9.93-3.8,35.19,35.19,0,0,1-8.62-7.72,89.63,89.63,0,0,1-7.22-8.87c-1.5-2.29-2.76-4.73-4.84-6.57-1.54-1.36-2.55-3.44-4.68-4-1.39-.36-2.62-1.17-4.14-.65s-3.36.57-4.6,1.89-3.23,2.13-3.69,4.1-1.89,3.64-1.91,5.56a28.42,28.42,0,0,0,1.43,9c.67,2.05,1,4.15,2.45,5.9,3.1,3.81,5.44,8.17,8.9,11.71,2.38,2.44,4.69,4.95,7.13,7.32a20.61,20.61,0,0,0,5.18,3.36c2.15,1.09,3.93,2.4,5.93,2.59,17.37,0,33.28.17,50.65.17Z"/><g id="g14136"><path id="path14138" class="cls-24" d="M191,497.78a7.27,7.27,0,0,0-6-5.5c-.72-.14-1.43-.33-2.16-.47"/><path id="path14140" class="cls-24" d="M186.2,500.52c-.75-2.44-2-5.09-4.79-5.83-3.61-1-7.38-2.06-10-4.87"/><path id="path14142" class="cls-24" d="M170.66,498a18.34,18.34,0,0,0-7.32-6.18c-4.31-1.9-7.07-6-9.28-10q-2.25-4-4.53-8"/><path id="path14144" class="cls-24" d="M151.31,487.58c-2.33-4-4.82-7.89-7.13-11.89a13.47,13.47,0,0,1-1.28-9.27"/><path id="path14146" class="cls-24" d="M150.89,495.8c-2.9-6-6.89-11.57-9.06-17.9-1.31-3.84-.82-9.25-.88-13.27"/><path id="path14148" class="cls-24" d="M147.3,498.62a43.84,43.84,0,0,0-4.72-11A36.57,36.57,0,0,1,137.89,466c0-.45.39-3.62.47-4.06"/><path id="path14150" class="cls-24" d="M144.6,501.43a39.1,39.1,0,0,0-4.17-9.54c-2.21-3.9-3.39-8.23-4.51-12.55-.77-3-1.56-6-.85-9.11.46-2,1.12-7.82,1.27-9.86"/><path id="path14152" class="cls-24" d="M135.59,489.11a45.78,45.78,0,0,0-2.55-9.87c-1.3-3.27-.65-6.82-.7-10.24,0-2,1.6-7.64,2.23-9.5"/><path id="path14154" class="cls-24" d="M131.8,486.65a35.32,35.32,0,0,0-2.19-9.21c-1.92-5.1.7-13,3.11-17.95"/><path id="path14156" class="cls-24" d="M127.31,479.78a12.48,12.48,0,0,1-2-8.35c.36-3.69,2.58-10.44,5.39-12.41"/></g></g><path id="path14158" class="cls-4" d="M210.41,487a8.93,8.93,0,0,0,2.5-.75c.67-.36,1.52-.76,1.75-1.49a8.1,8.1,0,0,0-.5-4c-.59-.68-.59-.9-2.37-1.25a7.85,7.85,0,0,0-3.88.25,48.22,48.22,0,0,1-6.41,2,56,56,0,0,1-7.5,1c-2.93.07-5.86,1.27-8.75.83-3.12-.46-6.22-.17-9.25-1.05a80.56,80.56,0,0,1-8.75-3.24c-1.62-.68-3.07-1.75-4.75-2.24-1.29-.37-2.65-.44-3.94-.81-1.5-.43-2.84-1.16-4.31-1.68a19.36,19.36,0,0,0-3-.75c-.75-.13-2.25-.25-2.25-.25a44.1,44.1,0,0,0,3.75,5,39.49,39.49,0,0,0,8,6.6,49.34,49.34,0,0,0,14,5.35c4.31,1,8.82.87,13.25.75a87.83,87.83,0,0,0,9-1c2.25-.29,4.49-1.2,6.75-1.52,1.83-.26,4.85-1.36,6.66-1.75Z"/><g id="g14160"><path id="path14162" class="cls-6" d="M218.14,461.32c.08-2.61-.61-5.49.55-7.84,1.35-2.74-2-7.19-1.12-10.31.72-2.47,6.24-3.16,5.27-5.52-.79-1.94.37-5.73,3.14-4.21,1.66.91.92,3.8-.6,3.46"/><path id="path14164" class="cls-6" d="M223.17,425.79c3.43-2,5.71-7,6.44-10.71a12.11,12.11,0,0,1,3.78-7.07c1.33-1.1,3.08-1.78,4.63-.88"/><path id="path14166" class="cls-6" d="M219.46,397.18c2.61,1.39,1.32,4.81,1.95,6.61.85,2.43,2.13,5,1.76,7.57-.42,2.92-.51,14-.62,17l-.18,2.1-1.5,2.36-1.25,1.5v2.36L218,437.91l-2.38,1.24-1.5,1.5-.25,1.86"/><path id="path14168" class="cls-6" d="M238,395.51c-3.24.06-4.3.7-5.71,2.72s-2.58,5.36-4.1,7.33-2.62,9.29-5.54,10"/><path id="path14170" class="cls-6" d="M158.13,476c-.63-4-2.54-7.64-3-11.65-.44-3.63-3.77-6.44-3.14-10.13.6-3.52-.18-7.15,1-10.59,1.34-3.74-2.25-5.88-3.38-9-1.2-3.25-1.18-6.56-4.4-8.84-3.5-2.49.56-6.91,1.63-9.85,1.33-3.66,2-8.41-.21-11.81-2-3-6.52-1.06-8.45-5.48-1.32-3-2.82-6.62-6-7.83-3.39-1.3-7.87-.64-10.41,1.87-2.75,2.72,0,8.87,4.36,9.08,3.52.17,6.71-7.83,1.2-6.1"/><path id="path14172" class="cls-6" d="M155.24,475.13c-2.37-3.62-3.4-9.44-4.36-13.6-.72-3.13-1.5-6-1.34-9.28.2-4-.73-7.64-1.42-11.73-.53-3.15-.86-6.54-3.12-8.59-2.65-2.39-6.78-3.1-6.39-7.1a38.23,38.23,0,0,1,3-11.32c1.59-3.77-2.55-8.41-5.38-9.83-3-1.52-8.67-.26-9.09,3.61-.47,4.35,1.1,8.88,3.3,4.56,1.63-3.19,6.79-1.64,5.57,3.07-.92,3.59-3.31,3.21-3.65,6.51s.84,4.9,1.58,8.1c.79,3.39,7.28,3.5,8.9,7.11s1.84,7.69,2.14,11.6c.44,5.53.62,11.13,2.39,16.5.93,2.85.25,5.78,2.36,8.27"/><path id="path14174" class="cls-6" d="M143,463.68c-1.42-3.66-1.75-7.58-2.82-11.36-1.17-4.13-2.9-7.82-2.84-12.15,0-4-4.14-5-5.78-8.4a27.73,27.73,0,0,1-2.46-9.8c-.33-3.09,2.91-7.92-2.3-8.34a9,9,0,0,1-7.43-4.41c-2.06-3.67-1.42-7.79-1-11.77.31-2.79-1.31-6.27,2.5-7.09"/><path id="path14176" class="cls-6" d="M135,449.36c-.89-2.3-1-4.92-2.21-7-1.64-2.78-7.93-3.5-5.67-7.8,1.91-3.6-1.22-7-1.4-10.58s-1.19-9.15-4.22-8.46c-4.27,1-3.38-2.29-4.69-4.14-1.87-2.61-3.9-4.11-3.79-7.62.11-3.27,2.82-5.43,2.84-9.15,0-2.73-3.45-4.15-4.36-6.48"/><path id="path14178" class="cls-6" d="M110.25,407.28c-1-3.68-2.49-7.11-2.91-11.08-.29-2.81,3-5.79,4.29-1.81.45,1.43-.9,2.58-1.63,3.81"/><path id="path14180" class="cls-6" d="M237.05,412.68c.07-.47.27-1-.07-1.41a1.74,1.74,0,0,0-1.86-.74,1.94,1.94,0,0,0-1.38,1.35,11.86,11.86,0,0,0-.31,1.94"/><path id="path14182" class="cls-6" d="M238.91,407c-.64-.46-1.43-.81-1.8-1.58a4.16,4.16,0,0,1-.3-3.55c.34-.7.39-1.67,1.1-2.09s1.75.1,2.36.66c.45.41.1,1,.14,1.55"/><path id="path14184" class="cls-6" d="M222.1,405.24a14.2,14.2,0,0,0,1.78-3.93,19.46,19.46,0,0,1,1.79-5.43,27.38,27.38,0,0,1,3.06-4.41,3.93,3.93,0,0,1,1.48-1.32c.69-.29,1.28-.75,2-1s2.54-.08,2.53.68"/><path id="path14186" class="cls-6" d="M212.88,437.41c.6-1.11,1.13-2.45,2.44-2.86a8,8,0,0,0,2.19-4.07c.63-2.26,1.53-4.5,1.4-6.89,0-3.12-.33-6.23-.15-9.35,0-2.56.4-4.64-1-6.88-1.11-1.29-3.32-2.47-4.2-4-.58-1.35-.81-3.38.6-4.31,1.63-.94,4.26.64,3.7,2.12-.19.54-.87,1.63-1.3,1.54"/><path id="path14188" class="cls-6" d="M211.76,433.55a19.15,19.15,0,0,0,2.31-5.91c.21-1.67,1-3.23.88-4.94.05-3.27-.19-4.24-.24-7.51-.11-1.92-1-3-2.19-5.76-1.61-1.45-1.52-5.72-1.71-7.73a11.08,11.08,0,0,1,.26-2.63"/><path id="path14190" class="cls-6" d="M209.38,424.72a13.87,13.87,0,0,0,1.25-2.49,7.67,7.67,0,0,0,.25-2.86,7.37,7.37,0,0,0-.87-2.87,8.09,8.09,0,0,0-1.38-1.49c-.56-.56-1.39-.91-1.75-1.62a5.89,5.89,0,0,1-.25-2.11"/></g><path id="path14192" class="cls-8" d="M240.13,271a26.29,26.29,0,0,1,7.25,2.93,12.18,12.18,0,0,1,3.55,2.68,14.29,14.29,0,0,1,2.35,4.35c.54,1.43,1.23,3.21.22,4.23s-1.33.71-1.41,1.76c-.17,2,.35,3.92.26,5.86a10.22,10.22,0,0,1-1.51,4.72c-1.6,2.72-2.39,5.82-3.75,8.67s-1.93,6.14-3.23,9.07a38.68,38.68,0,0,1-4.48,7.79,17.59,17.59,0,0,1-3.38,3.81c-2.45,1.76-4.85,3.71-7.75,4.69-1.16.4-2.21,1.41-3.4,1.4a9.33,9.33,0,0,1-4.21-.94,5.06,5.06,0,0,1-2.16-2.65,4.38,4.38,0,0,1,1.15-4.78c.7-.72,2-.56,2.88-.93,2.29-.91,4.85-.68,7.18-1.4,1.69-.52,2.85-1.9,4.19-3,.93-.77.39-1.5-.35-.68-1,1.14-2,2.84-3.48,3.19-3.71.86-7.43,1.88-11.2,2.38a3.12,3.12,0,0,1-3.2-1.53,7.06,7.06,0,0,1-1-5.3,3.46,3.46,0,0,1,3.19-2.2,68.08,68.08,0,0,0,6.83-.83c2.2-.35,3.64-1.8,5.43-3.14.93-.69,1-1.58,0-.8-2.67,2.19-3.12,2.54-5.1,3.14-2.23.69-4.47,1-6.72,1.51a5.29,5.29,0,0,1-4.1-.83c-.66-.45-.64-1.67-.83-2.48a3,3,0,0,1,.89-2.58,8.77,8.77,0,0,1,3.21-1.95c1.58-.78,3.44-.92,4.91-2,.75-.53,1.67-1.23,2.39-1.7s1.38-.7,1.22-1.23c-.11-.37-1.68.63-2.37,1-2.75,1.65-5.1,4.12-8.19,5.07-.87.26-1.08-.31-2-.78s-1.47-.87-1.4-2c.09-1.27-.59-2.68-.19-3.86.57-1.65,2.3-2.58,3.94-3.13a9.44,9.44,0,0,0,3.23-2.1c.85-.76,1.39-1.73,2.43-2.28s2.43-.69,2.94-1.7c.31-.6-2.22,1.37-2.25.42a6.58,6.58,0,0,1,.6-3.32,7.29,7.29,0,0,1,1.78-2.77c2.09-1.65,3.16-4.4,5.26-6,1.9-1.42,4.44-1.67,6.82-1.74,1,0,1.68-.07,1.92-1.32a25.26,25.26,0,0,0,0-3.48c.06-1.45.5-3.59,1-3.49Z"/><g id="g14194"><path id="path14196" class="cls-6" d="M241.5,313.8c-.17-.91-.33-1.82-.5-2.74a2.49,2.49,0,0,0-3.12-.24"/><path id="path14198" class="cls-6" d="M238.88,309.19c-.14-1.65.51-3.79-1.18-4.89a4.74,4.74,0,0,0-3.07-.59"/><path id="path14200" class="cls-6" d="M233.38,298.12c0-1.21-.18-2.56-1.54-2.84-.45-.37-.84,0-1.21.22"/></g><path id="path14202" class="cls-17" d="M315,270.48a33.79,33.79,0,0,0-3,4.48l-1.75,3.74-3.5,3.11L302.5,287l-4.38,4.48-3.62,3.61-5.75,4.11-5.87,3.11-6.13,3-5.63,1.37-4-.38-3,.88-4.24.62-3.5.87-1.76.12-2-.12-1.87-.75-1.75.38-1.62.12a6,6,0,0,0-1,.25s.52-1.49.74-2.24l.76-2.49L249,301.1l.87-2.12,1.5-2.86,1.13-2.86v-3.11l.5-.87,1.25-.63H257l.62-1.24,2-1.74,1.75.12h3.5l2.25-2.37,1.88-2.48,1.75-3,1.87-2.74.5-1.37.25-1.12-.75,1.37-.87-1.62a6.09,6.09,0,0,1-.38-2l43.12.12Z"/><g id="g14204"><path id="path14206" class="cls-6" d="M300.88,270.85a58.22,58.22,0,0,1-6.87,10"/><path id="path14208" class="cls-6" d="M297.12,271a43.74,43.74,0,0,1-5.87,7.35"/><path id="path14210" class="cls-6" d="M293.38,271.1c-1.54,1.71-3.32,3.24-4.5,5.23"/><path id="path14212" class="cls-6" d="M287.12,271.23a15.26,15.26,0,0,0-2.12,3.11"/><path id="path14214" class="cls-6" d="M282.75,283.3c-.93,2.05-1.52,4.26-2.89,6.09a30.32,30.32,0,0,1-5.09,5.68c-3,2.38-6.54,4-9.68,6.22A18.84,18.84,0,0,1,261,304c-1.3.49-2.07,1.75-2.92,2.79a8.2,8.2,0,0,1-2.69,1.8"/><path id="path14216" class="cls-6" d="M258.88,302.1c-1.11,1-2,2.51-3.64,2.62-.86,0-1.76-.15-2.49.49a21.71,21.71,0,0,0-2.12,2.87"/><path id="path14218" class="cls-6" d="M258.63,293.51c2.27-3,4.85-5.66,7.08-8.65,2-2.73,4.54-5.16,6.14-8.15,1-1.91,1.53-4,2.53-6"/><path id="path14220" class="cls-6" d="M252.5,293.89c1.61-1.73,3.12-3.54,4.62-5.36"/></g><path id="path14222" class="cls-20" d="M95.1,271.05l-.35,2.2-1,1.85-1,2.2-.62,2.38L92,282.14,91.3,285l-.88,2.37-1.51,3-.79,3.61v2.47l-.18,2.72-.88,2.64-1.51,2.38-1.23,1.94-.45-1.94-1-1.5-2.38-1.76-2.74-2.55L75,297l-2.57-.7-2-.36H68.94l-4,1.24-1.68,1.14-1.94,1.23-1.59.79L59.66,302l-1.59-4.84L56,293l-1.32-3.08-1.51-3.7-1.41-4.75-.53-4.84.18-4.49-.18-1.23Z"/><path id="path14224" class="cls-1" d="M82.38,307.58a1.88,1.88,0,0,0,1.88-1c.45-1-.34-2.3-.89-3.29a8.17,8.17,0,0,0-1.92-2.06,32.17,32.17,0,0,0-4.89-3.45,15.05,15.05,0,0,0-3.38-1.63,11.63,11.63,0,0,0-3.67-.4,14.08,14.08,0,0,0-3.73.72,14.92,14.92,0,0,0-3.43,1.61,6.74,6.74,0,0,0-2.57,2.27,5,5,0,0,0-.27,2.73c.05.39,0,1.05.37,1.14,1.29.3,1.74-2,2.77-2.84a14.05,14.05,0,0,1,3.7-2.25,9.25,9.25,0,0,1,3.33-.6,8.7,8.7,0,0,1,3.34.71,20.07,20.07,0,0,1,4.85,3.46A37.31,37.31,0,0,1,81,306c.47.52.67,1.48,1.37,1.61Z"/><g id="g14226"><path id="path14228" class="cls-6" d="M67.52,289.53a12.33,12.33,0,0,1,4.88-.08,16.86,16.86,0,0,1,4.15,1.26,17.22,17.22,0,0,1,2,1.11"/><path id="path14230" class="cls-6" d="M67.35,285.31a15.87,15.87,0,0,1,5.76-1.24,16.81,16.81,0,0,1,6.26.71"/><path id="path14232" class="cls-6" d="M66.46,280.91a16.12,16.12,0,0,1,5.76-2.44,19.27,19.27,0,0,1,4.15.12c.91,0,1.82.1,2.73.12"/><path id="path14234" class="cls-6" d="M66,276.33c1.88-.33,3.63-1.19,5.5-1.53a33.85,33.85,0,0,1,6.51-.6c.27,0,.54.07.81.1"/><path id="path14236" class="cls-6" d="M57.89,295.88a15.36,15.36,0,0,0-.46-4.1c-.31-1.55-.91-3-1.32-4.57s-1-3.25-1.26-4.92c-.33-2-.37-3.92-.52-5.89,0-.37,0-.74-.06-1.12"/></g><path id="path14238" class="cls-8" d="M68.38,298.87c1.83.06,3.37-.35,5,.49A26.81,26.81,0,0,1,80.06,305a8.47,8.47,0,0,0,2.2,2.6c-.2,1.92-.75,3.85-.23,5.77a13.84,13.84,0,0,0,2.34,6.95c2.12,3.25,3.91,6.72,5.8,10.09a13.54,13.54,0,0,1,.71,5.08A64,64,0,0,1,90,347a26.84,26.84,0,0,0-1.38,6.74A15.57,15.57,0,0,1,87,358a32.27,32.27,0,0,1-3.13,4.11c-.44,1.14-1.23,2.24-.76,3.5a5.66,5.66,0,0,1-1.56,3.7c-1.12-.26-2.5,0-3.14-1.2-1.11-.82-1.34-2.18-1.61-3.44a21.59,21.59,0,0,1,.53-6.05,8.59,8.59,0,0,1,2.47-4.74c1-.09,1.35-.34,2.3.14a8.73,8.73,0,0,1-1.56-1.67c.21-1.74-.93-.19-1.62.25-1.57,1.07-3.53,1.51-5.28,2.28a10.61,10.61,0,0,0-5.12,2.89c-1,.38-2.27.89-2.42.92-2.2-.2-3.84.11-6,0a6.46,6.46,0,0,1-2.49-4.54,2.28,2.28,0,0,1,1-2.77,13.16,13.16,0,0,1,2.87-2.28c-1.56-.41-3.23-.53-4.74-1-.82-.62-1.55-1.29-1.44-2.41a26.73,26.73,0,0,1-.11-5.21c.82-1.69,2.75-2.17,4.29-3,.82.13-1.57-.73-1.58-1.44a30.28,30.28,0,0,0-1.43-2.71c0-1.66-.61-3.28-.14-4.91a8,8,0,0,1,3.44-1.15c1.8.3-.06-.8-.6-1.4a4,4,0,0,1-1.63-2.49c.43-1.15.76-2.72,2.23-2.91,1.68-.77,2.4-1.1,1.65-3.1-.37-2.62.11-5.27-.13-7.91.19-2.49-.95-4.8-1-7.27-.12-1-.33-2.2,1.05-2,2.17-.49,4.25-1.82,6.56-1.44l.58,0Z"/></g><g id="g14240"><path id="path14242" class="cls-25" d="M80.52,351.51c.24-.59.8-1.14.71-1.77A2.43,2.43,0,0,0,80.07,348a4.58,4.58,0,0,0-2.56-.46c-2.13.36-4.23.82-6.36,1.19-.88.15-1.66.8-2.6.59a13.18,13.18,0,0,0-5.76-.21c-.57.13-1.14.21-1.71.32"/><g id="g14244"><path id="path14246" class="cls-6" d="M76,347.67c1.13-.86,3.48-1.24,4.12-2.5.29-.59.29-2.69-.29-3a23.54,23.54,0,0,0-6.65-1.79c-1.51-.3-3.11-.48-4.58-.91s-2.89-1-4.42-1.35c-1.15-.27-2.4,0-3.53-.27-.4-.11-.77-.29-1.15-.43"/><path id="path14248" class="cls-6" d="M74,340.37c.71-.06,3.18,0,3.68-.49A3.31,3.31,0,0,0,78,337c-.7-1.38-2.21-1.57-3.49-2.46a13.55,13.55,0,0,0-3.14-2,25.44,25.44,0,0,1-5.1-2.23,30.65,30.65,0,0,0-5.11-2.67c-.29-.11-.56-.24-.84-.36"/><path id="path14250" class="cls-6" d="M65.42,329.6a21.2,21.2,0,0,0,4.63.91c.44,0,3.88.27,4.71,0s1.7-.19,2.15-.92.75-2.25.24-2.9c-1.06-1.36-2.77-2.05-4.38-2.73-2.57-1.08-5.11-2.17-7.72-3.13a7.32,7.32,0,0,0-2.66-.79c-.56,0-1-.09-1.53-.11-.34,0-.71.53-1,.42"/></g></g><path id="path14252" class="cls-26" d="M71.85,323.16,65,270.88l-9.21-.17L62.3,320l3.36,1.06,2.66.88Z"/><g id="g14254"><g id="g14256"><path id="path14258" class="cls-6" d="M81.4,332.14c.22-1.62.82-3.23.69-4.85a30.27,30.27,0,0,0-1.8-7,4.71,4.71,0,0,0-.48-.8"/><path id="path14260" class="cls-6" d="M83.52,318.93a45,45,0,0,0-3.16-3.45c-.8-.69-1.88-1.06-2.61-1.81a10.52,10.52,0,0,1-.77-1.08"/></g><path id="path14262" class="cls-4" d="M237,326.5l.12,1.74c.42.38,0,.38.38.75.73-.23,2.33-.18,3.06-.36.53.14,1.1.21,1.61.4a14.89,14.89,0,0,1,1.34,1.14c.1.91.34,1.81.35,2.72-.06.75,0,1.52-.15,2.25a10.68,10.68,0,0,1-1.83,2.24,1.86,1.86,0,0,1-1.07.62c-.86.25-1.71.54-2.56.82,0,.49-.24,1,.05,1.44a4.65,4.65,0,0,1,.46,1.8c0,.39.27.86-.1,1.15a13.13,13.13,0,0,1-1,1.23c-.52.15-1,.47-1.59.28a8.63,8.63,0,0,1-1.27-.21,22,22,0,0,1-2-2.13c-.14-.28-.16-1-.5-.46-.49.4-.89,1-1.54,1.09a8.29,8.29,0,0,1-1.62.53c-.62-.06-1.27,0-1.88-.14-1-.62-1.94-1.22-2.86-1.89a17.07,17.07,0,0,1-1.12-1.56,13.7,13.7,0,0,1-.44-1.87,8.94,8.94,0,0,1,.27-1.29,9,9,0,0,0,1.86-1.72,2.11,2.11,0,0,0,.2-1c-.14-.32-.12-.8-.57-.81-.66-.1-.17-.24.2-.37,1.49-.62,3-1.18,4.49-1.82,1.85-1.17,3.76-2.28,5.5-3.62l1.77-1.54c.13.2.25.41.38.62Z"/><g id="g14264"><path id="path14266" class="cls-6" d="M237.25,329.11c-.13.75-.37,1.87-.5,2.61-.52-.23-1-.55-1.56-.74a6,6,0,0,0-2.24.35,6.76,6.76,0,0,0-1.27.61c-.56.74-1.17,1.45-1.69,2.21a12.6,12.6,0,0,1-.83,2.59c-.22.17-.69-.15-1-.18a10.49,10.49,0,0,0-2.54-.56,5.68,5.68,0,0,0-2,.33"/><path id="path14268" class="cls-6" d="M238.13,339a11.14,11.14,0,0,1-2.53-1.05,19.48,19.48,0,0,1-1.1-2.19c.25-.6.34-.15.44.25a15.28,15.28,0,0,1,.44,1.74"/><path id="path14270" class="cls-6" d="M232.25,341.69c-.05-.67.39-1.7.08-2.29-.23-.14-.61-.87-.67-.3a3.72,3.72,0,0,0,.34,1.09C232.29,340.57,232,341.31,232.25,341.69Z"/></g><g id="g14272"><path id="path14274" class="cls-20" d="M271.25,270.67,243,271l1.62,1.19,2.32,1.24,3.12,2.18,1.44,1.68,1.38,2.37.43,2.36.57,1.43-.07,1.56-.87.81-.94,1v1.43l.25,1.93,1-1.12,1.13-.38,1.31-.06,1.12-.12.63-1.37,1.31-.94,1.82-.43H263l1.69.19,2.38-2.37,1.62-2.49,1.81-2.74,1.75-2.92.44-.88-.44-1-.5-1.06-.37-.75Z"/><g id="g14276"><path id="path14278" class="cls-6" d="M271.31,271.73,270,274.16l-1.69,2.11-1.69,1.93L265,280.51,263.37,283l-.94,1.12-1.12,1.24"/><path id="path14280" class="cls-6" d="M258.38,275.46l-.88-.93-1.31-1.12-1.37-.69-1.63-.68-1.69-.56-1.25-.38"/></g></g><g id="g14282"><g id="g14284"><path id="path14286" class="cls-4" d="M222.2,293.41l-1.86,1.49-2.12,2-1.94,1.14-1.86,1.06-.79.18V298l.17-1.59-.35-1.06-1.24-.52-1.06-.88-.09-1.94-.17-1.32-.53-1.06-1.68-.7-1.77-.18-2,.09-3-.09-2.66-.53-2.47-.26-2-.26-1.15-1-.44-1.67,1.14-.88,3.19-1.06,3.62-.79,1.15-.71.79-.08v-1.24l.09-.88v-.7l1.68-.7.8-.27v-1.41l-.53-1.58-.89-2.55-.53-1.23,4.69-.36,6,.18,3.8-.18,2.74.27.62,1.67.62,1.14,2.21-.88,2.12-.44,1.94-.88,1.68-.35,2-.35,1.59.17,1,.36.35,1.58-.53,1.06.36,1.05.7.8-.17,1.49-1.15,1.06-2,.7L229,280.3l-2.12,1.23-1.59,1.14-1.24,1.5-1.85,2.29,1.23,1.32-.53,2-1,1.94Z"/><path id="path14288" class="cls-27" d="M234,274.49,226.89,276l-5.48,2.47-6.1,1.67-5.92,1.76-4.51,1-4.77.88-4.16.44-1.5.53"/></g><path id="path14290" class="cls-27" d="M221.8,273.55l-3.77.92-6.13,1.66-3.49.67-2.51.55"/></g><g id="g14292"><path id="path14294" class="cls-6" d="M221.85,290.77A30.22,30.22,0,0,1,217.9,293a31.93,31.93,0,0,0-3,2c-.28.18-.63.1-.95.15l-.39,0"/><path id="path14296" class="cls-6" d="M221.76,287c-.91.5-1.77,1.11-2.72,1.54l-1.79.4a5.44,5.44,0,0,0-1.94-.93,1.83,1.83,0,0,0-1.58.05c-.45.17-1,.19-1.36.56l-1.3,1.38"/></g></g><g id="g14298"><path id="path14300" class="cls-26" d="M203.5,270.86l1.5,2.74.62,2.12.13,1.24-1.25.87-2.38.5-9.12.75-7.5.5H176l-15,.49-9.75-.12h-8l-8.37-.25-7.76-.37-5.37-.5-5.25-.75-.5-2.36V271Z"/><path id="path14302" class="cls-28" d="M205,275.09l-5.25.63-8.63.87-10.12.62-14.62.62H152l-9.25.13-8.62-.25-6.75-.37-7.5-.75-3.63-.38-.12-1.61,5.37.12,9.63.87,9.75.25h9.62l9.25.13,14.75-.5,10.12-.5,8-.75,6-.74a31.42,31.42,0,0,0,5.63-.88Z"/><g id="g14304"><path id="path14306" class="cls-6" d="M116,271.48l3.5,2.74,3.5-2.86,3.38,3.48,3.12-3.48,3.62,3.6,4.76-3.36,4.5,3.24,3.37-3.11,3.63,3,3.37-3.49,4.25,3.61,3.25-3.36,4.75,3.36,3.25-3.24,4.5,3,4-3.11,3.37,2.74,5-3,4.38,2.24,3.75-2.36,4.5,2L202,271"/><path id="path14308" class="cls-17" d="M83.5,317.67l2.75-3.36,4.63-6.1,5.5-8.22,2.87-5.35,3-4.48,2.25-2.74,1.62-4.86.88-3.86.62-1.49.88-2.12.12-1.86V271H95l-.5,2.86-1.12,2-.88,2.37-.5,3.36-.87,4.11-1.63,3.48-1.12,3.74-.25,3.85v2.12l-1.88,4.23-2,3.36-2,1.5-.75,3.73.63,2.86Z"/><path id="path14310" class="cls-6" d="M88.5,298.62l1.88-2.74L92.75,292l1.63-3.61L96,284.3l1.38-4,.87-4.11"/></g></g><g id="g14312"><path id="path14314" class="cls-17" d="M59,312.16c-1.89-1.44-2.71-3-4.24-5-2.11-4.25-4.18-7.84-5.76-13-1.24-3-1.24-6.36-2.45-9.4-1.33-3.66-.93-7.58-1.16-11.38-.31-1.39-.56-3.13,1.34-2.55l4.49.06c.59,2.89-.73,5.75-.07,8.65,1,7.83,5.86,14.41,8,21.89.38,2.4,1.45,4.66,1.43,7.13.18,1.32,1.19,3.73.71,5Z"/><path id="path14316" class="cls-6" d="M60.19,308.46a22.74,22.74,0,0,1-3.46-4.25c-.65-1.35-.81-2.87-1.48-4.22a10.66,10.66,0,0,1-1.15-4.09c-.16-1.94-.23-5.12-.27-7.07"/></g></g></g><path id="path14318" d="M80,40c-1.33,6.67-2.85,8.39-5.33,12-2.14,3.11-5.13,5.56-8,8s-6.25,4.41-9.34,6.67c-3.58,2.62-7.82,4.59-10.66,8C43.48,78.48,40,83,40,88c0,4,2.41,8,5.33,10.67A19.89,19.89,0,0,0,58.67,104c5.36-.12,10.8-2.94,14.66-6.67,2.87-2.76,5.34-10.66,5.34-10.66v2.66c0,1.34-.14,7.29-1.34,10.67a31.92,31.92,0,0,1-6.66,10.67c-3,3.27-10.67,8-10.67,8V120s10.61-2.22,16-2.67a48.57,48.57,0,0,1,8,0c5.39.45,16,2.67,16,2.67v-1.33s-7.66-4.73-10.67-8A31.92,31.92,0,0,1,82.67,100c-1.2-3.38-1.34-10.67-1.34-10.67V86.67s2.47,7.9,5.34,10.66c3.86,3.73,9.29,6.55,14.66,6.67a19.89,19.89,0,0,0,13.34-5.33C117.59,96,120,92,120,88c0-5-3.48-9.52-6.67-13.33-2.85-3.41-7.08-5.38-10.67-8-3.08-2.26-6.41-4.2-9.33-6.67s-5.86-4.89-8-8c-2.48-3.61-4-5.33-5.33-12"/><path id="path14320" d="M280,500c-1.33-6.67-2.85-8.39-5.33-12-2.14-3.11-5.13-5.56-8-8s-6.25-4.41-9.34-6.67c-3.58-2.62-7.81-4.58-10.66-8C243.48,461.56,240,457,240,452c0-4,2.41-8,5.33-10.67A19.89,19.89,0,0,1,258.67,436c5.37.12,10.8,2.94,14.66,6.67,2.86,2.76,5.34,10.66,5.34,10.66v-2.66c0-1.34-.14-7.29-1.34-10.67a31.92,31.92,0,0,0-6.66-10.67c-3-3.27-10.67-8-10.67-8V420s10.61,2.22,16,2.67a48.57,48.57,0,0,0,8,0c5.39-.45,16-2.67,16-2.67v1.33s-7.66,4.73-10.67,8A31.92,31.92,0,0,0,282.67,440c-1.21,3.38-1.34,10.67-1.34,10.67v2.66s2.47-7.9,5.34-10.66c3.86-3.73,9.29-6.55,14.66-6.67a19.89,19.89,0,0,1,13.34,5.33c2.92,2.69,5.33,6.69,5.33,10.67,0,5-3.48,9.52-6.67,13.33-2.85,3.42-7.08,5.38-10.67,8-3.08,2.26-6.41,4.2-9.33,6.67s-5.86,4.89-8,8c-2.48,3.61-4,5.33-5.33,12"/><path id="path14322" d="M30,90a9.4,9.4,0,0,1-2,4.5,15.78,15.78,0,0,1-3,3c-1.09.93-2.34,1.65-3.5,2.5-1.34,1-2.93,1.72-4,3-1.19,1.43-2.5,3.14-2.5,5a5.79,5.79,0,0,0,2,4,7.49,7.49,0,0,0,5,2,8.6,8.6,0,0,0,5.5-2.5c1.07-1,2-4,2-4v1a15.14,15.14,0,0,1-.5,4,12.1,12.1,0,0,1-2.5,4,25.65,25.65,0,0,1-4,3v.5s4-.83,6-1a18.78,18.78,0,0,1,3,0c2,.17,6,1,6,1v-.5a25.65,25.65,0,0,1-4-3,12.1,12.1,0,0,1-2.5-4,17.68,17.68,0,0,1-.5-4v-1s.93,3,2,4A8.6,8.6,0,0,0,38,114a7.49,7.49,0,0,0,5-2,5.79,5.79,0,0,0,2-4c0-1.86-1.31-3.57-2.5-5-1.07-1.28-2.66-2-4-3-1.16-.85-2.41-1.57-3.5-2.5a15.78,15.78,0,0,1-3-3A9.4,9.4,0,0,1,30,90"/><path id="path14324" d="M330,450a9.4,9.4,0,0,0-2-4.5,15.78,15.78,0,0,0-3-3c-1.09-.93-2.34-1.65-3.5-2.5-1.35-1-2.93-1.72-4-3-1.19-1.43-2.5-3.14-2.5-5a5.79,5.79,0,0,1,2-4,7.44,7.44,0,0,1,5-2,8.6,8.6,0,0,1,5.5,2.5c1.07,1,2,4,2,4v-1a15.14,15.14,0,0,0-.5-4,12.1,12.1,0,0,0-2.5-4,25.65,25.65,0,0,0-4-3V420s4,.83,6,1a18.78,18.78,0,0,0,3,0c2-.17,6-1,6-1v.5a25.65,25.65,0,0,0-4,3,12.1,12.1,0,0,0-2.5,4,17.68,17.68,0,0,0-.5,4v1s.93-3,2-4A8.6,8.6,0,0,1,338,426a7.44,7.44,0,0,1,5,2,5.79,5.79,0,0,1,2,4c0,1.86-1.31,3.57-2.5,5-1.07,1.28-2.65,2-4,3-1.16.85-2.41,1.57-3.5,2.5a15.78,15.78,0,0,0-3,3,9.4,9.4,0,0,0-2,4.5"/><g id="text21081"><path id="path21460" d="M36.4,72.32q0,5.78-2.34,8.9a7.38,7.38,0,0,1-6.25,3.13,15.39,15.39,0,0,1-2.5-.27,14.71,14.71,0,0,1-2.62-.59V78h.22a18.9,18.9,0,0,0,2,.85,6.63,6.63,0,0,0,2.4.45,5.63,5.63,0,0,0,2.85-.62A3.68,3.68,0,0,0,31.71,77a8.6,8.6,0,0,0,.67-2.89c.1-1.14.15-2.46.15-4V44.49H26.38V39.84h10V72.32Z"/></g><g id="text21085"><path id="path21457" d="M326.25,472c0-3.85.78-6.81,2.35-8.9a7.39,7.39,0,0,1,6.25-3.12,21.87,21.87,0,0,1,5.11.85v5.46h-.21a18.74,18.74,0,0,0-2-.86,6.84,6.84,0,0,0-2.4-.44,5.7,5.7,0,0,0-2.86.62,3.73,3.73,0,0,0-1.58,1.77,8.79,8.79,0,0,0-.66,2.89c-.11,1.14-.16,2.45-.16,3.95v25.61h6.15v4.66h-10Z"/></g></g></g></g></svg>