<svg xmlns="http://www.w3.org/2000/svg" viewBox="0 0 360 540"><defs><style>.cls-1,.cls-10,.cls-15,.cls-50{fill:#fff;}.cls-1,.cls-10,.cls-11,.cls-12,.cls-13,.cls-14,.cls-15,.cls-16,.cls-17,.cls-18,.cls-19,.cls-2,.cls-20,.cls-21,.cls-22,.cls-23,.cls-24,.cls-25,.cls-26,.cls-27,.cls-28,.cls-29,.cls-3,.cls-30,.cls-31,.cls-32,.cls-33,.cls-34,.cls-35,.cls-36,.cls-37,.cls-38,.cls-39,.cls-4,.cls-40,.cls-41,.cls-42,.cls-43,.cls-44,.cls-45,.cls-46,.cls-47,.cls-48,.cls-49,.cls-5,.cls-50,.cls-51,.cls-6,.cls-7,.cls-8,.cls-9{stroke:#000;}.cls-16,.cls-17,.cls-18,.cls-19,.cls-2,.cls-20,.cls-21,.cls-22,.cls-23,.cls-24,.cls-25,.cls-26,.cls-27,.cls-28,.cls-29,.cls-30,.cls-31,.cls-32,.cls-35,.cls-39,.cls-5{fill:#fa5;}.cls-3{fill:#aaf;}.cls-10,.cls-11,.cls-12,.cls-13,.cls-14,.cls-15,.cls-16,.cls-17,.cls-18,.cls-19,.cls-20,.cls-22,.cls-23,.cls-24,.cls-25,.cls-26,.cls-27,.cls-28,.cls-29,.cls-3,.cls-30,.cls-31,.cls-32,.cls-33,.cls-35,.cls-36,.cls-37,.cls-39,.cls-4,.cls-41,.cls-42,.cls-43,.cls-44,.cls-45,.cls-46,.cls-47,.cls-48,.cls-49,.cls-5,.cls-50,.cls-7,.cls-8,.cls-9{stroke-linecap:round;}.cls-10,.cls-11,.cls-12,.cls-13,.cls-14,.cls-15,.cls-16,.cls-17,.cls-18,.cls-19,.cls-20,.cls-21,.cls-22,.cls-23,.cls-24,.cls-25,.cls-26,.cls-27,.cls-28,.cls-29,.cls-3,.cls-30,.cls-31,.cls-32,.cls-33,.cls-35,.cls-36,.cls-37,.cls-39,.cls-4,.cls-41,.cls-42,.cls-43,.cls-44,.cls-45,.cls-46,.cls-47,.cls-48,.cls-49,.cls-5,.cls-50,.cls-7,.cls-8,.cls-9{stroke-linejoin:round;}.cls-4{fill:#faa;}.cls-43,.cls-44,.cls-45,.cls-46,.cls-47,.cls-48,.cls-49,.cls-51,.cls-6,.cls-8{fill:none;}.cls-38,.cls-7{fill:#a00;}.cls-9{fill:#a55;}.cls-11,.cls-42{fill:#f55;}.cls-12,.cls-40{fill:#5a5;}.cls-13{stroke-width:0.91px;}.cls-15{stroke-width:1.07px;}.cls-16{stroke-width:1.06px;}.cls-17{stroke-width:1.01px;}.cls-18{stroke-width:1.03px;}.cls-19{stroke-width:0.97px;}.cls-20{stroke-width:1.06px;}.cls-22{stroke-width:1.03px;}.cls-23{stroke-width:1.03px;}.cls-24{stroke-width:1.01px;}.cls-25{stroke-width:1.09px;}.cls-26{stroke-width:1.03px;}.cls-27{stroke-width:1.1px;}.cls-28{stroke-width:1.04px;}.cls-29{stroke-width:1.13px;}.cls-30{stroke-width:1.07px;}.cls-31{stroke-width:1.12px;}.cls-32{stroke-width:1.1px;}.cls-33,.cls-34{fill:#55a;}.cls-35{stroke-width:1.05px;}.cls-36,.cls-41{fill:#ff5;}.cls-36{stroke-width:1.16px;}.cls-37{stroke-width:0.5px;}.cls-39{stroke-width:0.93px;}.cls-42{stroke-width:0.87px;}.cls-44{stroke-width:1.13px;}.cls-45{stroke-width:1.17px;}.cls-46{stroke-width:1.3px;}.cls-48{stroke-width:1.29px;}.cls-50{stroke-width:1.63px;}.cls-51{stroke-linecap:square;stroke-width:2px;}</style></defs><g id="Layer_2" data-name="Layer 2"><g id="svg2"><g id="g25779"><rect id="rect5938" class="cls-1" x="0.5" y="0.5" width="359" height="539" rx="29.94"/><path id="path5944" d="M90,40c-4-.08-6.67,1.33-9.33,4a12.09,12.09,0,0,0-4,9.33c0,4,1.52,6.37,4,9.34s4,4,5.33,6.66A31.48,31.48,0,0,1,88.67,80v4H86c-2.67,0-8-2.67-9.33-4l-4-4a12.11,12.11,0,0,0-9.34-4A12.09,12.09,0,0,0,54,76a12.88,12.88,0,0,0,0,18.66,12.09,12.09,0,0,0,9.33,4,12.11,12.11,0,0,0,9.34-4l4-4c1.33-1.33,6.66-4,9.33-4h2.67C88.6,90.45,88.32,97,87.33,100a29,29,0,0,1-6.66,10.66c-2.67,2.67-10.67,8-10.67,8V120s13.33-2.67,16-2.67h8c2.67,0,16,2.67,16,2.67v-1.34s-8-5.33-10.67-8A29,29,0,0,1,92.67,100c-1-3-1.27-9.56-1.34-13.34H94c2.67,0,8,2.67,9.33,4l4,4a12.89,12.89,0,0,0,18.67,0A12.88,12.88,0,0,0,126,76a12.89,12.89,0,0,0-18.67,0l-4,4C102,81.34,96.67,84,94,84H91.33V80A31.48,31.48,0,0,1,94,69.34c1.33-2.66,2.67-4,5.33-6.66a12.13,12.13,0,0,0,4-9.34,12.09,12.09,0,0,0-4-9.33A12.08,12.08,0,0,0,90,40"/><path id="path5946" d="M270,500c-4,.08-6.69-1.33-9.37-4a12.07,12.07,0,0,1-4-9.33c0-4,1.52-6.37,4-9.34s4-4,5.35-6.66A31.27,31.27,0,0,0,268.66,460v-4H266c-2.68,0-8,2.67-9.37,4l-4,4a13.33,13.33,0,1,1,0-18.66l4,4c1.34,1.33,6.69,4,9.37,4h2.68c-.07-3.78-.35-10.37-1.34-13.34a29,29,0,0,0-6.69-10.66c-2.68-2.67-10.71-8-10.71-8V420s13.39,2.67,16.07,2.67h8c2.67,0,16.06-2.67,16.06-2.67v1.34s-8,5.33-10.71,8A28.91,28.91,0,0,0,272.68,440c-1,3-1.27,9.56-1.34,13.34H274c2.68,0,8-2.67,9.37-4l4-4a13.33,13.33,0,1,1,0,18.66l-4-4c-1.34-1.33-6.69-4-9.37-4h-2.68v4A31.27,31.27,0,0,0,274,470.71c1.34,2.67,2.68,4,5.35,6.66A13.34,13.34,0,0,1,270,500"/><path id="path5948" d="M30,90a4.44,4.44,0,0,0-3.5,1.5A4.54,4.54,0,0,0,25,95a5,5,0,0,0,1.5,3.5,12.79,12.79,0,0,1,2,2.5,11.77,11.77,0,0,1,1,4v1.5h-1A7.47,7.47,0,0,1,25,105l-1.5-1.5A4.54,4.54,0,0,0,20,102a4.54,4.54,0,0,0-3.5,1.5,4.83,4.83,0,0,0,0,7A4.54,4.54,0,0,0,20,112a4.54,4.54,0,0,0,3.5-1.5L25,109a7.47,7.47,0,0,1,3.5-1.5h1a22.24,22.24,0,0,1-.5,5,10.89,10.89,0,0,1-2.5,4,39.87,39.87,0,0,1-4,3v.5s5-1,6-1h3c1,0,6,1,6,1v-.5a39.87,39.87,0,0,1-4-3,10.89,10.89,0,0,1-2.5-4,22.24,22.24,0,0,1-.5-5h1A7.47,7.47,0,0,1,35,109l1.5,1.5a4.83,4.83,0,0,0,7,0A5,5,0,0,0,40,102a4.54,4.54,0,0,0-3.5,1.5L35,105a7.47,7.47,0,0,1-3.5,1.5h-1V105a11.77,11.77,0,0,1,1-4,8.78,8.78,0,0,1,2-2.5,4.83,4.83,0,0,0,0-7A4.54,4.54,0,0,0,30,90"/><path id="path5950" d="M330,450a4.44,4.44,0,0,1-3.5-1.5A4.54,4.54,0,0,1,325,445a5,5,0,0,1,1.5-3.5,12.79,12.79,0,0,0,2-2.5,11.77,11.77,0,0,0,1-4v-1.5h-1A7.47,7.47,0,0,0,325,435l-1.5,1.5a5,5,0,1,1,0-7L325,431a7.47,7.47,0,0,0,3.5,1.5h1a22.24,22.24,0,0,0-.5-5,10.89,10.89,0,0,0-2.5-4,39.87,39.87,0,0,0-4-3V420s5,1,6,1h3c1,0,6-1,6-1v.5a39.87,39.87,0,0,0-4,3,10.89,10.89,0,0,0-2.5,4,22.24,22.24,0,0,0-.5,5h1A7.47,7.47,0,0,0,335,431l1.5-1.5a5,5,0,1,1,0,7L335,435a7.47,7.47,0,0,0-3.5-1.5h-1V435a11.77,11.77,0,0,0,1,4,8.78,8.78,0,0,0,2,2.5A5,5,0,0,1,330,450"/><g id="g5952"><path id="path5954" class="cls-2" d="M128.52,170a73.58,73.58,0,0,0,9.14,4.78,105.84,105.84,0,0,0,15.43,5.06A201,201,0,0,0,182,185a119.17,119.17,0,0,0,18.22.42,140.34,140.34,0,0,0,21.12-2.76c5.15-1.07,10.37-2.21,15.17-4.38a43.85,43.85,0,0,0,8.51-5.4c2.9,4,5.17,6.67,6.1,11.29a107.93,107.93,0,0,1-10.38,5.6,101.64,101.64,0,0,1-16.6,5,152.4,152.4,0,0,1-16.76,2.59,162.61,162.61,0,0,1-20.9,1.44,116.18,116.18,0,0,1-15.78-1.68A176.65,176.65,0,0,1,149,192.51a117.74,117.74,0,0,1-14.28-5.31c-4.94-2.16-9.56-5.16-14.46-7.29a111.37,111.37,0,0,1,8.31-9.9Z"/><g id="g5956"><path id="path5958" class="cls-3" d="M212.12,38.13c-5.7-8-15.46-8.77-24.44-8.06-11.05-.09-19.54,9.74-26.79,17.15C150.46,60,139.8,74.53,138.37,91.54c-7.66,13.18-12.36,27.18-19.5,40.6-20.6,14.21-45,22.91-63.86,39.48-11.07,10.91-21.92,24.14-24.75,39.69.12,19.56.24,38.63.36,58.2,12-.09,21.42.08,33.37,0C81.16,251,90.14,230.88,96,208.6a112.6,112.6,0,0,0-.24-28.09c7.66-.81,16.68,5.62,22.25,2.82,3.1-6.07,9.11-12.58,14.58-17.13,5.89-1.15,11.45-9.36,10.1-15.6,1.48-6.14,3.2-11.72,2.21-18.24,3.57-5.27,4.77-11.06,4.86-17.23,5.18-7.18.11-15.82,4.88-23,1.88-11.41,1.41-24.06,9.47-33.47,8.38-12.63,19.26-22.28,34.52-24.95,5.13-.52,9.3,2.19,13.51,4.42Z"/><path id="path5960" class="cls-4" d="M128.53,170.26c1.64-2.19,3.3-4.35,6.07-5.08a6.37,6.37,0,0,0,4.69-5.57,12.77,12.77,0,0,1,6-8.38c3.11-2.62,6.58-4.95,9.49-7.74,1.38-3.26,3.61-6.29,4.48-9.68.38-15.17,2.43-30.28,2-45.48-.39-6.62,1.72-13,2.65-19.52,4.11-5.62,7.47-11.87,12.82-16.46,4.61-5.26,10.74-8.75,16.25-12.94,3.41-.31,6.91-1.21,10.26-1.16C206.42,39.9,210,41.11,213,43c2.9,5.23,6.36,10.24,8.91,15.61,1.63,7.5,3.77,14.95,5.1,22.49-.27,6.14.08,12.39-.57,18.46-4.37,12.32-8.15,24.85-12.15,37.29-.85,2.36-2.94,4.55-3,7,.49,2.36.37,5.06,2.8,6.35,2.89,3.13,6.92,4.84,10.67,6.67,2.65,0,3.64,2.32,4.86,4.27,1.44,2.4,2.85,4.84,5.66,5.76,3.55,1.57,6.34,4.48,9.9,5.94-3.46,2.38-6.69,5.24-10.92,6.11A70.72,70.72,0,0,1,218,183.12c-12.05,1.8-24.29,4-36.47,2.4-12.15-2.39-24.59-3.81-36.23-8.23-5.42-2-11.36-2.9-16-6.54l-.78-.49Z"/><path id="path5962" class="cls-5" d="M182.79,30c-2.28,1.21-4.72,2.14-6.89,3.55a63.87,63.87,0,0,0-8.14,6.54,109.54,109.54,0,0,0-8.9,9.25c-1.68,2-3.21,4-4.72,6.14-2.16,3-4.26,6-6.2,9.13-1.64,2.66-3.05,5.45-4.57,8.17a30.65,30.65,0,0,1-3.5-2.69c-1.17-1.23-2.48-2.55-2.87-4.2a6.62,6.62,0,0,1,.49-3.58c1.79-5.06,5.2-9.42,8.34-13.77a69.72,69.72,0,0,1,6.75-7.92,104.19,104.19,0,0,1,8.73-7.81A31.3,31.3,0,0,1,165.06,30Z"/></g><path id="path5964" class="cls-6" d="M144.78,70.66a39.79,39.79,0,0,1-3.39-3.61,5.42,5.42,0,0,1-1.21-2,5.82,5.82,0,0,1,.41-2.87,26.66,26.66,0,0,1,3.06-5.65,79.06,79.06,0,0,1,5.09-7.1,118.27,118.27,0,0,1,8.92-10.06A63.36,63.36,0,0,1,166,32.2a45.64,45.64,0,0,1,4.41-2.38"/><g id="g5966"><g id="g5968"><path id="path5970" class="cls-7" d="M147,55.38c.77.46.75,1.9,0,3.21s-2.06,2-2.83,1.54h0c-.77-.46-.75-1.89,0-3.21s2.06-2,2.83-1.54Z"/><path id="path5972" class="cls-7" d="M155.37,45.33c.65.62.32,2-.74,3.12s-2.45,1.5-3.1.88l0,0c-.65-.61-.31-2,.75-3.11s2.45-1.5,3.1-.88Z"/><path id="path5974" class="cls-7" d="M164,36.33c.59.68.13,2-1,3s-2.59,1.26-3.18.58h0c-.59-.68-.12-2,1-3s2.58-1.26,3.17-.58Z"/><path id="path5976" class="cls-7" d="M173.56,30.83c.31.84-.61,2-2.05,2.47s-2.86.26-3.17-.58v0c-.31-.84.61-2,2-2.47s2.86-.26,3.17.58Z"/></g><g id="g5978"><g id="g5980"><path id="path5982" class="cls-5" d="M136.83,65l-17.15-5.3,17.85-3.89-11-13.08,19.27,1.59L143.9,31.24,158,33.18,158,30.71c3.39-.12,2.89-.06,6.28-.18,0,0-7.82,6.18-11.31,9.72a79.9,79.9,0,0,0-6.19,7.43q-2.41,3.1-4.6,6.36a43.92,43.92,0,0,0-4.06,6.54A30.18,30.18,0,0,0,136.83,65Z"/><path id="path5984" class="cls-5" d="M129.93,42.9a3.8,3.8,0,1,1-3.8-3.71A3.76,3.76,0,0,1,129.93,42.9Z"/><path id="path5986" class="cls-5" d="M123.57,59.61a3.46,3.46,0,1,1-3.45-3.8,3.63,3.63,0,0,1,3.45,3.8Z"/></g><path id="path5988" class="cls-5" d="M139.12,30.54a3.54,3.54,0,0,0,7.07,0h-7.07Z"/></g><path id="path5990" class="cls-8" d="M126.4,61.47l12.73-3,2.12-2.65-8.84-10.08,14.5,1.94,2.65-3.53-2.48-9.73,9.37,2.13"/><path id="path5992" class="cls-9" d="M199.75,41c-3.07,4.15-4.37,10.11-9.36,12.33-2.78.37-6.7-1.16-8.09,2.14-2.6,2.9-1.06,8.49-5.3,10.21-2.48,1.93-6.25,1.23-7.38,4.81-2.34,4.21-.74,9.34-.49,13.9,1.17,4.58,3.67,9.3,1.57,14-1.35,2.9,2.3,5,.88,7.89-1.51,2.34-2.38,5.23,0,7.57,2.51,3.7,1.53,8.37-.61,12-.28,3-4,2.68-4.22,6.34,1.74,2.6,3.46,5.16,2.84,8.25.14,3.47-2.89,5.33-6.21,5.5-2.91-1.35-6.54,2.2-3.23,4.26,2.51,3.15.73,9.34-3.58,9.13-3.75-.14-4.68-3.3-6.57-4.63-.36,2.38,1.45,3,1.47,6.5,0,3-1.15,4.07-4.08,5.68-2.49.78-6.82,0-6.64-3.26,4.33,2,6.77-2.62,3.54-6.37-2.79-1.85-4.54-4.34-3.52-7.6.44-4.13,3.74-2.5,2-12.16-.5-3.7,2.07-6.52,3.61-9.48,1.63-3.22.72-6.76,1-10.11,1.46-3.38,3.41-6.48,3.51-10.28,0-2.82-1.81-5.46,0-8.31a31.16,31.16,0,0,0,2.85-15.24c1-5.94,1.12-12.23,4.69-17.35,2.9-3.88,4.88-8.41,7.83-12.21,4.86-5.13,8.13-7.68,13.4-12.36,4.14-3.37,8.06-5,12.85-7a19,19,0,0,1,10.4-1.13c5.44,1.21,9.95,5.08,14.28,8.69,3,2.55,3.79,6.95,5.32,10.6,1.3,3.1,3.33,5.67,3.26,9.57-.06,2.91,0,5.7,2.13,8,1.55,3.35,1.43,7.09,1.49,10.64.88,3.81,3.47,7.18,4,11,.34,3.21-1.69,6.3.22,9.26,2.34,5.39.53,11.38-1.83,16.28-1.61,4.32-1.36,10.27-1.14,15.39S224.69,138.07,226,146c.42,2.62,0,4,3,7a11.47,11.47,0,0,1,3.4,7.89c.34,2.15.3,2.36.51,4.46-1.8-.77-2.85-.91-4.55-2.21-6.11-2.82-11.64-7.73-18.65-7.81-4.7-1.46-10.89-4.24-10.49-10.05-.15-4.83.47-9.67.23-14.52,5.72.73,10.7-2.68,13.52-7.27,3.65-4.6,5.37-10.47,7.15-16,1.61-8.89,3.14-17.84,2.72-26.91.64-5.51.53-12.56-3.06-17.8-2.45-3.58-2.83-7.84-5.65-11.75-3-1.09-6.5.29-8.87-2.45-2.55-1.64-3.05-5.18-4-7.63-.17-.44-.95,0-1.42,0Z"/><g id="g5994"><path id="path5996" class="cls-8" d="M195.62,34.25a4,4,0,0,1-.15,1.59A18.13,18.13,0,0,1,192.65,41a31.73,31.73,0,0,1-6.05,6.67c-3.19,2.5-8.08,2.7-10.71,5.79-1.36,1.59-.75,4.31-2.08,5.92-1.89,2.31-5.24,3.41-7.7,4.54-3,1.38-2.45,7.22-2.78,11s.61,7.37.75,11,1.78,7.22.13,10.87c-2.35,5.18,2.43,4.1,2.28,6.34-.17,2.66-3.26,4.86-3.65,7.1a13.31,13.31,0,0,0,.3,3.76c.26,2.26,1.49,4.52,1,6.74-.34,1.66-2.25,2.67-2.69,4.3a7.08,7.08,0,0,0,.11,3.45,19.27,19.27,0,0,0,1.39,2.9"/><path id="path5998" class="cls-8" d="M164.5,95.25c-1.63,2-3.07,2.46-4.27,4-1.69,2.17-3.47,4.53-4,7.23s1.36,5.6,1,8.4c-.24,2.21-1.86,4.09-2.25,6.28-.75,4.19,1.2,8.72-.13,12.76-.61,1.88-2.69,3-3.46,4.83a6.18,6.18,0,0,0-.73,4.05c.35,1.9,1.4,1.15,1.82,4.2.14,1-.75,2.54-1.53,3.76s-1.63,2.14-1.14,4.24"/><path id="path6000" class="cls-8" d="M221.12,100.5c2.19,10.26-.58,13.38-2.1,19.77-.69,2.91,1.34,9.11.47,12-1.43,4.76-4.67,4.54-5.75,7.5a10.39,10.39,0,0,0-.19,4.31,14.64,14.64,0,0,0,.79,3.87,28.58,28.58,0,0,0,2.66,4.89c.69,1.15,1.58,2.16,2.22,3.33a21.28,21.28,0,0,1,1,2.35"/><path id="path6002" class="cls-8" d="M164.2,90.75c-1.63,2-5.18,3.68-7.14,6.12-1.6,2-3.72,4.19-3.63,6.73a64.74,64.74,0,0,1-.44,11.28c-.36,2.75-2.18,6-1.62,8.15,2.23,8.54-2.89,9.83-4.38,14.89-.79,2.67,2,6,1.28,9-.56,2.19-4,3.16-4.1,5.42-.17,3.08,4.6,4.88,4.7,7.95a3.78,3.78,0,0,1-1.41,2.76c-.91.77-2.38,1.51-3.39,1.11"/><path id="path6004" class="cls-8" d="M163.94,100.75c-1.69,2.18-4.18,4.94-4.75,8s2,6.18,1.56,9.28c-.31,2-2.44,3.4-2.75,5.4-.72,4.72,3.62,10.1,2.37,14.14-.5,1.64-2.66,2.22-3.71,3.58-.77,1-1.74,2.05-1.85,3.3-.3,3.28,4.09,6.17,3.19,9.33-.26.89-1.32,2.15-2.16,1.76-3.76-1.75-1-4.39-3.89-6.17"/><path id="path6006" class="cls-8" d="M215.57,119.46c-.06,2.69.83,6.4,0,9.44-.89,3.29-4.28,7.21-5.15,8.84-1.45,2.7-1.15,3.37-1.31,5.13a18.41,18.41,0,0,0,.3,4.31,14.93,14.93,0,0,0,.8,3.45,11.46,11.46,0,0,0,1.82,2.89c.83,1,2.23,2,2.86,2.64"/><path id="path6008" class="cls-8" d="M210.17,126.53c-.06,2.13,0,5.16-1,7.47-.87,2-3.28,3.84-4.15,5.12-1.45,2.14-1.27,3.91-1.31,5.93a16.19,16.19,0,0,0,.55,3.22,11.59,11.59,0,0,0,.55,2.92,7.46,7.46,0,0,0,1.82,2.3c.64.58,1.6,1,2.24,1.49"/><path id="path6010" class="cls-8" d="M204.12,131c0,1,.27,2.16-.13,3.12-.51,1.26-2,1.9-2.75,3a12.16,12.16,0,0,0-1,2c-.43.95-.73,1.95-1.1,2.92"/><path id="path6012" class="cls-8" d="M223.25,76.75c.19,2.41,1.19,4.71,1.37,7.13.27,3.4-.62,6.83-.37,10.24.22,3,1.32,5.89,1.63,8.88a23,23,0,0,1,.12,6.62c-.36,1.87-1.79,3.4-2.21,5.26-.65,2.81-.47,5.75-.48,8.64s1.34,6.11.48,9c-1.44,4.76-4.68,4.54-5.75,7.5a10.23,10.23,0,0,0-.2,4.31,15,15,0,0,0,.79,3.87,29.28,29.28,0,0,0,2.66,4.89c.69,1.15,1.63,2.14,2.22,3.33.75,1.53,1.23,3.82,1.65,4.85"/><path id="path6014" class="cls-8" d="M199.37,33.73a25.77,25.77,0,0,1-.88,3.57c-1.31,3.3-2.77,6.7-5.18,9.31a24.48,24.48,0,0,1-7.24,4.79c-2.32,1.16-5.65.63-7.33,2.6-.76.9-.14,2.41-.63,3.48C177,60,174.66,61.86,172.84,64s-4.58,3.68-5.72,6.27c-1.24,2.78-1,6-.87,9.08.14,4.29,1.66,8.94,2.05,12.72.32,3.07-1.15,3.86-1.06,5.84.12,2.35,1.92,4.52,1.94,6.78-.68,2.81-2,3.22-2.31,5a9.17,9.17,0,0,0,.62,5.29c2.7,6,1.48,5.82.87,8.93-.38,1.93-2.66,3.15-3.71,4.92-.66,1.09-1.57,2.2-1.6,3.47-.07,2.64,3.48,4.77,2.94,7.35a3.66,3.66,0,0,1-2.79,2.76c-2.12.26-4.37,0-4,3.9"/></g></g><g id="g6016"><path id="path6018" class="cls-6" d="M163.5,83.12,161.38,87l-3.26,2.12-2.87,3.13L152.38,95"/><g id="g6020"><path id="path6022" class="cls-8" d="M190.75,35.75A20.8,20.8,0,0,1,186.23,41,34,34,0,0,1,181,45c-2.08,1.31-4.78,1.67-6.58,3.35-2.27,2.11-2.8,5.61-4.79,8-1.22,1.46-3,2.33-4.3,3.76a26.1,26.1,0,0,0-4.34,6.3,29.83,29.83,0,0,0-2.35,8.71c-.24,1.89.53,3.87.05,5.7-.8,3-2.88,5.52-4.69,8.05"/><path id="path6024" class="cls-8" d="M202.31,34.09a19.44,19.44,0,0,0,1.62,5.8,16.51,16.51,0,0,0,3.58,4.86c2,1.85,4.71,2.78,7,4.31a15.27,15.27,0,0,1,3.66,2.68c2,2.55,2.74,5.92,3.88,9,.84,2.27,1.41,4.63,2.16,6.92.37,1.11.75,2.21,1.14,3.31a38.21,38.21,0,0,1,1.45,4c.78,3.36.58,7.19,1.1,10.29.43,2.56,1.22,5.05,1.5,7.63.19,1.78,0,3.58.12,5.37.11,2.13.27,4.26.5,6.38.17,1.5.73,3,.63,4.5-.16,2.24-1.32,4.31-1.84,6.5a55.37,55.37,0,0,0-1.72,8.89c-.21,3,1.33,6.11.47,9-1.43,4.76-4.67,4.54-5.75,7.5a10.24,10.24,0,0,0-.19,4.31,14.24,14.24,0,0,0,.79,3.88,28.64,28.64,0,0,0,2.66,4.89,34.3,34.3,0,0,1,2.21,3.33c.85,1.84,1.23,4.81,1.65,5.84"/><path id="path6026" class="cls-8" d="M205.89,35.68c.35,1.89.47,2.89,1.29,4,1.29,1.8,3.44,2.81,5.33,3.94,1.68,1,3.73,1.33,5.3,2.5a16.63,16.63,0,0,1,2.8,3.11"/><path id="path6028" class="cls-8" d="M177,71a65.15,65.15,0,0,0,6.79-1.19,42.62,42.62,0,0,1,5.22-.93,19.07,19.07,0,0,1,4.94.44,7,7,0,0,1,3.38,1.25,5.41,5.41,0,0,1,1.21,2.63,2.48,2.48,0,0,1,0,.27"/><path id="path6030" class="cls-8" d="M196.22,78.44c-.81-1-1.34-2.21-2.35-3a7.84,7.84,0,0,0-4.14-1.61A12.42,12.42,0,0,0,184,75.58a13,13,0,0,0-3,2.15"/></g></g><g id="g6032"><path id="path6034" class="cls-10" d="M195.69,79.85c-.48-1-1.85-1.34-2.92-1.72a10.32,10.32,0,0,0-3.93-.58,17.78,17.78,0,0,0-4.71,1.27c-.93.33-2.44.26-2.71,1.21-.11.38.38.7.65,1a10.33,10.33,0,0,0,4.07,3.08,10.68,10.68,0,0,0,6.3-.25,5.26,5.26,0,0,0,2.9-1.87,2.36,2.36,0,0,0,.35-2.12Z"/><g id="g6036"><path id="path6038" class="cls-8" d="M221.5,71.37c-2.65-.29-5.33-1.39-8-.88a5.89,5.89,0,0,0-3.21,1.7,8.54,8.54,0,0,0-1.69,4.1,17,17,0,0,0,0,4.22c.18,3,.63,6.08,1,9.11.22,1.67.08,3.46.76,5,.4.92,1.55,1.41,1.88,2.35a3.72,3.72,0,0,1,0,2.65c-.47,1-1.7,1.32-2.49,2s-.92,2-2,2c-2.66,0-2-1.11-3-1.61-.86-.43-.91-1.16-2.62-1.2-.83,0-1.06,1-1.73,1.08a2.42,2.42,0,0,1-2-.6c-.32-.33-.21-.9-.34-1.35s-.37-1.07-.52-1.6"/><path id="path6040" class="cls-8" d="M210.54,76a18.43,18.43,0,0,1,4.5-1.73,8.74,8.74,0,0,1,4.06.41,8.49,8.49,0,0,1,2.5,1.67,10.92,10.92,0,0,1,1,1.07"/></g><path id="path6042" class="cls-10" d="M208.68,79.94c.52-1,1.85-1.48,2.94-1.89a13.15,13.15,0,0,1,4.83-.67,8.55,8.55,0,0,1,3.37.62c1,.45,2.49.94,2.56,2,.08,1.29-1.62,2.08-2.72,2.77a7.6,7.6,0,0,1-3.78,1.28A10.18,10.18,0,0,1,210,82.43a3.55,3.55,0,0,1-1.3-1.64,1.1,1.1,0,0,1,0-.85Z"/><path id="path6044" class="cls-11" d="M198.37,110.38a6.75,6.75,0,0,1,2.45-1.11,5.46,5.46,0,0,1,2-.59c.74,0,1.19.57,1.83.62,1.09.09,2.13-.64,3.22-.56a3.69,3.69,0,0,1,1.67.59c.71.47,1.82,1,1.72,1.86-.07.67-1.17.68-1.67,1.12-.68.58-1,1.61-1.8,2a6.22,6.22,0,0,1-4.45.32c-.8-.25-1.3-1.07-2-1.59a12.71,12.71,0,0,0-1.82-1.39c-.51-.26-1.17-.12-1.63-.51s.19-.57.4-.77Z"/><path id="path6046" class="cls-8" d="M199.5,111.25a5.76,5.76,0,0,1,3.13-.61c.74.1,1.26.89,2,1,1.51.2,3-.67,4.47-.92.55-.09,1.1-.15,1.66-.2"/><g id="g6048"><path id="path6050" class="cls-12" d="M192.16,80.12c0,1.22-1.42,2.21-3.18,2.21s-3.18-1-3.18-2.21h0c0-1.22,1.42-2.21,3.18-2.21s3.18,1,3.18,2.21Z"/><path id="path6052" class="cls-12" d="M219.21,79.77c0,1.22-1.55,2.21-3.45,2.21s-3.45-1-3.45-2.21,1.54-2.21,3.45-2.21S219.21,78.55,219.21,79.77Z"/></g><path id="path6054" class="cls-13" d="M190.73,79.67c0,.39-.45.71-1,.71s-1-.31-1-.7h0c0-.39.45-.7,1-.71s1,.32,1,.71Z"/><path id="path6056" class="cls-14" d="M217.43,79.23a1,1,0,0,1-2,0v0a.91.91,0,0,1,1-.8.92.92,0,0,1,1,.79Z"/></g><path id="path6058" class="cls-6" d="M199.42,130.77c-1.83-.24-3.75-.52-5.59-.94a21.27,21.27,0,0,1-4-1.2,18.1,18.1,0,0,1-2.64-1.71"/><g id="g6060"><path id="path6062" class="cls-15" d="M175.3,156.55a2.35,2.35,0,1,1-2.34-2.26A2.3,2.3,0,0,1,175.3,156.55Z"/><path id="path6064" class="cls-15" d="M163.7,148.44a2.34,2.34,0,1,1-2.34-2.27A2.31,2.31,0,0,1,163.7,148.44Z"/><path id="path6066" class="cls-15" d="M167.29,151.42a2.34,2.34,0,1,1-2.34-2.26A2.3,2.3,0,0,1,167.29,151.42Z"/><path id="path6068" class="cls-15" d="M171.21,153.85a2.34,2.34,0,1,1-2.34-2.26A2.3,2.3,0,0,1,171.21,153.85Z"/><path id="path6070" class="cls-15" d="M179.27,158.92a2.34,2.34,0,1,1-2.34-2.26A2.3,2.3,0,0,1,179.27,158.92Z"/><path id="path6072" class="cls-15" d="M184.06,160.47a2.34,2.34,0,1,1-2.34-2.26A2.3,2.3,0,0,1,184.06,160.47Z"/><path id="path6074" class="cls-15" d="M188.85,161.46a2.34,2.34,0,1,1-2.34-2.26A2.3,2.3,0,0,1,188.85,161.46Z"/><path id="path6076" class="cls-15" d="M193.86,162a2.34,2.34,0,1,1-2.34-2.27A2.3,2.3,0,0,1,193.86,162Z"/><path id="path6078" class="cls-15" d="M198.43,160.69a2.34,2.34,0,1,1-2.34-2.27A2.3,2.3,0,0,1,198.43,160.69Z"/><path id="path6080" class="cls-15" d="M202.35,158a2.34,2.34,0,1,1-2.34-2.26A2.3,2.3,0,0,1,202.35,158Z"/><path id="path6082" class="cls-15" d="M205.62,154.61a2.34,2.34,0,1,1-2.34-2.26A2.3,2.3,0,0,1,205.62,154.61Z"/></g><g id="g6084"><g id="g6086"><path id="path6088" class="cls-16" d="M196.73,185.63l-2.84.43v10.19l2.84-.43Z"/><path id="path6090" class="cls-17" d="M191.42,191.4c0,1,1.74,1.82,3.88,1.82s3.89-.81,3.89-1.82h0c0-1-1.73-1.82-3.88-1.82s-3.89.81-3.89,1.82Z"/></g><g id="g6092"><path id="path6094" class="cls-15" d="M178.34,172.45a2.34,2.34,0,1,1-2.21-2.39A2.29,2.29,0,0,1,178.34,172.45Z"/><path id="path6096" class="cls-15" d="M167.83,162.82a2.34,2.34,0,1,1-2.22-2.38A2.31,2.31,0,0,1,167.83,162.82Z"/><path id="path6098" class="cls-15" d="M171,166.1a2.34,2.34,0,1,1-2.22-2.39A2.3,2.3,0,0,1,171,166.1Z"/><path id="path6100" class="cls-15" d="M174.41,169.52a2.34,2.34,0,1,1-2.22-2.38A2.31,2.31,0,0,1,174.41,169.52Z"/><path id="path6102" class="cls-15" d="M182.18,175a2.34,2.34,0,1,1-2.21-2.39A2.29,2.29,0,0,1,182.18,175Z"/><path id="path6104" class="cls-15" d="M186.89,176.82a2.34,2.34,0,1,1-2.22-2.38A2.3,2.3,0,0,1,186.89,176.82Z"/><path id="path6106" class="cls-15" d="M191.62,178.08a2.34,2.34,0,1,1-2.22-2.39A2.31,2.31,0,0,1,191.62,178.08Z"/><path id="path6108" class="cls-15" d="M196.59,178.9a2.34,2.34,0,1,1-2.22-2.38A2.32,2.32,0,0,1,196.59,178.9Z"/><path id="path6110" class="cls-15" d="M201.23,177.82a2.34,2.34,0,1,1-2.22-2.39A2.3,2.3,0,0,1,201.23,177.82Z"/><path id="path6112" class="cls-15" d="M205.28,175.38a2.34,2.34,0,1,1-2.22-2.38A2.3,2.3,0,0,1,205.28,175.38Z"/><path id="path6114" class="cls-15" d="M208.72,172.14a2.34,2.34,0,1,1-2.21-2.38A2.29,2.29,0,0,1,208.72,172.14Z"/><path id="path6116" class="cls-15" d="M165.16,159a2.34,2.34,0,1,1-2.22-2.39A2.31,2.31,0,0,1,165.16,159Z"/><path id="path6118" class="cls-15" d="M210.89,168a2.34,2.34,0,1,1-2.22-2.38A2.3,2.3,0,0,1,210.89,168Z"/><path id="path6120" class="cls-15" d="M212.53,163.48a2.34,2.34,0,1,1-2.21-2.38A2.3,2.3,0,0,1,212.53,163.48Z"/><path id="path6122" class="cls-15" d="M213,158.59a2.34,2.34,0,1,1-2.22-2.38A2.3,2.3,0,0,1,213,158.59Z"/></g><g id="g6124"><g id="g6126"><path id="path6128" class="cls-18" d="M182.09,185.26l2.94.48v10.41l-2.94-.48Z"/><path id="path6130" class="cls-19" d="M187.4,191.37c0,1.08-1.74,1.95-3.88,1.95s-3.89-.87-3.89-1.94h0c0-1.07,1.73-1.94,3.88-1.94s3.89.87,3.89,1.94Z"/></g><g id="g6132"><path id="path6134" class="cls-20" d="M209.2,184.3l-2.84.44v10l2.84-.44Z"/><path id="path6136" class="cls-5" d="M203.89,190c0,1,1.74,1.85,3.88,1.85s3.89-.83,3.89-1.84h0c0-1-1.73-1.84-3.88-1.84s-3.89.83-3.89,1.84Z"/></g></g><g id="g6138"><path id="path6140" class="cls-15" d="M180.84,183.2a2.34,2.34,0,1,1-2.22-2.39A2.3,2.3,0,0,1,180.84,183.2Z"/><path id="path6142" class="cls-15" d="M169.49,173.91a2.34,2.34,0,0,1-4.67-.25,2.34,2.34,0,0,1,4.67.25Z"/><path id="path6144" class="cls-15" d="M173.18,177.35A2.34,2.34,0,1,1,171,175,2.3,2.3,0,0,1,173.18,177.35Z"/><path id="path6146" class="cls-15" d="M176.9,180.28a2.34,2.34,0,1,1-2.22-2.39A2.3,2.3,0,0,1,176.9,180.28Z"/><path id="path6148" class="cls-15" d="M184.67,185.78a2.34,2.34,0,0,1-4.67-.25,2.34,2.34,0,0,1,4.67.25Z"/><path id="path6150" class="cls-15" d="M189.38,187.58a2.34,2.34,0,1,1-2.22-2.39A2.3,2.3,0,0,1,189.38,187.58Z"/><path id="path6152" class="cls-15" d="M194.11,188.83a2.34,2.34,0,1,1-2.22-2.39A2.3,2.3,0,0,1,194.11,188.83Z"/><path id="path6154" class="cls-15" d="M199.08,189.66a2.34,2.34,0,1,1-2.22-2.39A2.3,2.3,0,0,1,199.08,189.66Z"/><path id="path6156" class="cls-15" d="M203.72,188.57a2.34,2.34,0,1,1-2.22-2.39A2.3,2.3,0,0,1,203.72,188.57Z"/><path id="path6158" class="cls-15" d="M207.77,186.13a2.34,2.34,0,1,1-2.22-2.39A2.3,2.3,0,0,1,207.77,186.13Z"/><path id="path6160" class="cls-15" d="M166.16,170a2.34,2.34,0,0,1-4.67-.25,2.34,2.34,0,0,1,4.67.25Z"/><path id="path6162" class="cls-15" d="M214.54,179.2a2.34,2.34,0,1,1-2.22-2.39A2.3,2.3,0,0,1,214.54,179.2Z"/><path id="path6164" class="cls-15" d="M211.22,182.89A2.34,2.34,0,1,1,209,180.5,2.3,2.3,0,0,1,211.22,182.89Z"/><path id="path6166" class="cls-15" d="M217,174.73a2.34,2.34,0,1,1-2.22-2.39A2.3,2.3,0,0,1,217,174.73Z"/><path id="path6168" class="cls-15" d="M218.5,170a2.34,2.34,0,1,1-2.22-2.39A2.3,2.3,0,0,1,218.5,170Z"/><path id="path6170" class="cls-15" d="M219.59,165.43a2.34,2.34,0,1,1-2.22-2.39A2.3,2.3,0,0,1,219.59,165.43Z"/><path id="path6172" class="cls-15" d="M220.58,160.48a2.34,2.34,0,1,1-2.22-2.39A2.3,2.3,0,0,1,220.58,160.48Z"/><path id="path6174" class="cls-15" d="M163.08,166.09a2.34,2.34,0,0,1-4.67-.25,2.34,2.34,0,0,1,4.67.25Z"/><path id="path6176" class="cls-15" d="M160.44,161.8a2.34,2.34,0,1,1-2.22-2.39A2.3,2.3,0,0,1,160.44,161.8Z"/></g><g id="g6178"><path id="path6180" class="cls-8" d="M194.25,30.5c-7.6,1.6-14.26,6.06-20.18,10.89-7.75,6.32-14.8,14.06-19.27,23-3.54,7.07-3.49,15.42-5.43,23.08q-2.13,8.46-4.56,16.83c-2.06,7.1-3.37,14.48-6.56,21.19"/><path id="path6182" class="cls-8" d="M138.57,91.43c2.77-5.38,4.16-8.93,6.93-12.43"/><path id="path6184" class="cls-8" d="M140.5,97.5a102.68,102.68,0,0,1-7.74,22.5,138.6,138.6,0,0,1-16.26,25.25"/><path id="path6186" class="cls-8" d="M118.75,132.25c-5.2,8.36-9.85,17.15-15.81,25-.88,1.16-2,2.17-2.94,3.25"/><path id="path6188" class="cls-8" d="M136.5,144.5c.16,9-8.44,13.68-13,20.26-1.25,1.8-3.49,3-4,5.24"/><path id="path6190" class="cls-8" d="M63.25,165c7.15-4.81,16.73-3.81,24.36-1,2,.72,3.08,2.85,4.64,4.26"/><path id="path6192" class="cls-8" d="M95.75,181.25c-4.17-5.54-10-10.27-16.6-12.31-3.27-1-6.92-.39-10.25.39a26.11,26.11,0,0,0-9,4c-5.59,3.91-10.08,9.3-14.24,14.71a77.09,77.09,0,0,0-10.17,16.9c-2.58,6.13-3.78,12.78-5,19.32-.14.75-.19,1.51-.28,2.26"/></g></g><path id="path6194" class="cls-6" d="M72.75,168.75a8,8,0,0,1,6.64,1.92,11.47,11.47,0,0,1,2.92,4.77,30.84,30.84,0,0,1,1.44,7.75,61.06,61.06,0,0,1-.35,12.75c-1,7.47-3.36,14.69-6.06,21.73a130,130,0,0,1-6,13.62,155.07,155.07,0,0,1-9.81,15.8A141.33,141.33,0,0,1,51.84,260,35.78,35.78,0,0,1,45,266.4a23,23,0,0,1-6.7,3.1"/><g id="g6196"><g id="g6198"><path id="path6200" class="cls-5" d="M44.25,269.5a25.28,25.28,0,0,0,6.46-3.25c5-3.51,8.58-8.69,11.95-13.81,3.91-5.93,7.73-11.92,11.13-18.16a119.25,119.25,0,0,0,5.65-11.73,122.54,122.54,0,0,0,6.57-22c1.26-6.08,2.17-12.33,1.42-18.49a21.55,21.55,0,0,0-3.14-9.39,15.49,15.49,0,0,0-2.79-3.15l6.88,4.19A17.34,17.34,0,0,1,93,181.94a31.48,31.48,0,0,1,.67,6.51,94.74,94.74,0,0,1-.33,12.72,82.87,82.87,0,0,1-3.53,16,134.61,134.61,0,0,1-8,19.73c-2.71,5.41-5.77,10.63-9,15.77-2.76,4.46-5.66,8.92-9.52,12.47a31.2,31.2,0,0,1-6,4.36h-13"/><path id="path6202" class="cls-21" d="M71.5,181.25A47.46,47.46,0,0,1,71,191c-.4,2.31-1.51,4.77-2,6.75.9,1.42,3.64-.25,5,.75a5.13,5.13,0,0,1,1.57,3.28,7.59,7.59,0,0,1-.4,4.32c-.69,1.58-2.28,2.6-3.46,3.88a37.45,37.45,0,0,0-3.31,3.48,49.83,49.83,0,0,0-5.21,9.71c-.7,1.64-.87,2.76-1.69,5.08-2-3.37-1.85-5-2.51-7.62-.37-1.45.65-4.07-.81-4.41a45.08,45.08,0,0,0-3.41,6.38,39.51,39.51,0,0,0-3.27,10.51,38.93,38.93,0,0,0,.33,11.8c.28,1.7,1.59,3.2,1.54,4.91a4.32,4.32,0,0,1-1,2.79,7.24,7.24,0,0,1-3.54,1.57,17.84,17.84,0,0,1-5.4.53,17.27,17.27,0,0,1-5.69-1.15,15,15,0,0,1-5.29-3.48,8.44,8.44,0,0,1-2-3.61,4.65,4.65,0,0,1,.09-3.23c.64-1.17,2.22-1.48,3.3-2.26a38.56,38.56,0,0,0,4-3.12,46.73,46.73,0,0,0,6.34-7.49,71.47,71.47,0,0,0,4-7.47c.74-1.44,1.57-2.85,2.17-4.36S51.75,214,51.75,214c-2.86,3.18-5.47,5.5-8.58,5.55-1.7,0,3.13-5.46,3.81-8.48.52-2.27.08-4.65.18-7,.11-2.5-.57-5.21.45-7.5A6.4,6.4,0,0,1,51.17,193a2.78,2.78,0,0,1,2.15.45c1.38.85,2.62,4.06,2.62,4.06a51.14,51.14,0,0,1,2.58-9,12.32,12.32,0,0,1,2-2.77,52.89,52.89,0,0,1,7.1-6.17c1.08-.83,2.53-2.78,3.39-2.28.71.42.45,2.66.5,4Z"/></g><g id="g6204"><g id="g6206"><path id="path6208" class="cls-8" d="M58.12,205.5a26.84,26.84,0,0,1,1.43-5.36A55.85,55.85,0,0,1,63.11,193c1-1.85,2.06-3.71,3.15-5.52.76-1.27,1.56-2.52,2.43-3.71a16.83,16.83,0,0,1,1.81-2.13,12.94,12.94,0,0,1,1-.84"/><path id="path6210" class="cls-8" d="M69,197.88a36.55,36.55,0,0,1-3,5c-.67,1-1.39,1.86-2.14,2.73"/></g><path id="path6212" class="cls-3" d="M230.16,135.53l-4.6,6,1.07,7.78,3.88,5.3L233,165.23l5.66,1.41,3.89,1.77,4.59,2.12,4.6,3.18,5.3,5.84a85.59,85.59,0,0,1,8.81,13.25c2.74,5.06,5.2,10.21,7.1,14.32,1.07-1.76.07-4.07-.18-5.12-1-4.26-6.18-13.44-6.18-13.44l-6-9.19-7.43-8.13-3.89-6-4.59-7.07-5.66-12-4.6-10.26-3.53-13.78Z"/><path id="path6214" class="cls-8" d="M226.63,140.84c1.91,1.75,4.19,3.15,5.83,5.17a12.17,12.17,0,0,1,2.3,4c.46,1.48-.15,3.19.38,4.65.6,1.61,2,2.83,3,4.19,1.16,1.51,2.86,2.67,3.63,4.41.7,1.58.47,3.43.76,5.13"/><g id="g6216"><path id="path6218" class="cls-22" d="M161,181.48l2.73.64-1.79,10.94-2.73-.65Z"/><path id="path6220" class="cls-17" d="M165.32,187.14c-.16,1-2,1.72-4.13,1.58s-3.71-1.06-3.55-2.07h0c.17-1,2-1.71,4.14-1.58s3.7,1.06,3.54,2.07Z"/></g><path id="path6222" class="cls-8" d="M122.52,178.07c4.44,2.32,8.49,5,13,6.92a138.53,138.53,0,0,0,18.87,6.35,149.06,149.06,0,0,0,19.4,3.9,110.62,110.62,0,0,0,15.75.93,145.09,145.09,0,0,0,18.72-1.64c8.39-1.23,16.83-2.61,24.93-5.13a71.86,71.86,0,0,0,13.29-5.61,43.56,43.56,0,0,0,3.65-2.5"/><g id="g6224"><path id="path6226" class="cls-23" d="M149.75,178.65l2.7,1-2.21,10.55-2.69-1Z"/><path id="path6228" class="cls-24" d="M153.88,184.88c-.2,1-2.07,1.4-4.17,1s-3.64-1.58-3.44-2.55h0c.2-1,2.07-1.41,4.17-1s3.64,1.58,3.44,2.55Z"/></g><g id="g6230"><g id="g6232"><path id="path6234" class="cls-23" d="M171.48,183.79l2.77.78L173,195.28l-2.77-.78Z"/><path id="path6236" class="cls-24" d="M176.16,189.61c-.12,1-1.93,1.59-4.07,1.35s-3.77-1.25-3.66-2.23h0c.12-1,1.94-1.58,4.07-1.34s3.77,1.24,3.66,2.23Z"/></g><g id="g6238"><path id="path6240" class="cls-25" d="M220.37,182.62l-2.77.67.9,9.49,2.77-.67Z"/><path id="path6242" class="cls-26" d="M215.53,188.45c.09,1,1.89,1.56,4,1.34s3.81-1.17,3.72-2.12h0c-.08-1-1.88-1.56-4-1.34s-3.8,1.17-3.72,2.12Z"/></g><g id="g6244"><path id="path6246" class="cls-27" d="M232,180l-3,.87,1.35,9.25,3-.87Z"/><path id="path6248" class="cls-28" d="M227.36,185.77c.13.93,1.95,1.43,4.08,1.11s3.74-1.35,3.62-2.28h0c-.13-.94-1.95-1.43-4.08-1.11s-3.74,1.35-3.62,2.28Z"/></g><g id="g6250"><path id="path6252" class="cls-29" d="M241.15,176.21l-2.58,1.1,2.8,8.87,2.59-1.1Z"/><path id="path6254" class="cls-30" d="M237.49,182.22c.25.86,2.13,1.06,4.19.46S245.2,180.9,245,180h0c-.25-.86-2.12-1.06-4.18-.46s-3.53,1.78-3.28,2.64Z"/></g><g id="g6256"><path id="path6258" class="cls-23" d="M139.89,175.77l2.72,1-2,9.78-2.72-1Z"/><path id="path6260" class="cls-24" d="M144,182c-.2,1-2.07,1.41-4.17,1s-3.64-1.58-3.44-2.55h0c.2-1,2.07-1.41,4.17-1S144.22,181,144,182Z"/></g><g id="g6262"><path id="path6264" class="cls-31" d="M131,172.34l2.56,1.2-3.31,8.64L127.69,181Z"/><path id="path6266" class="cls-32" d="M134.43,178.11c-.3.79-2.2.93-4.24.3s-3.44-1.79-3.14-2.59h0c.3-.8,2.2-.93,4.24-.3s3.45,1.79,3.14,2.59Z"/></g></g><path id="path6268" class="cls-33" d="M64.35,269.5h55c-1.46-1.34-3.32-2.42-4.27-4.17-.41-.75,0-1.82-.5-2.52-.69-1-2.14-1.07-3.06-1.81a19.69,19.69,0,0,1-3.24-3.4,29.1,29.1,0,0,1-3-4.78c-.73-1.5-1-3.19-1.73-4.68a9.64,9.64,0,0,0-2-3.24c-.84-.73-2.34-.5-3-1.35-.91-1.1-.3-2.92-1-4.16-.86-1.54-2.76-2.27-3.77-3.72a25.29,25.29,0,0,1-2.34-5.19c-.45-1.11-.79-2.25-1.2-3.37-1.86,4.49-3.65,9-5.76,13.39a120.88,120.88,0,0,1-5.87,10.94A95.13,95.13,0,0,1,72,260.79c-1.89,2.38-4.15,4.44-6.1,6.77a12.31,12.31,0,0,0-1.51,1.94Z"/></g></g><g id="g6270"><path id="path6272" class="cls-34" d="M120,179.91s5.41,2.73,8.13,4.07c2.94,1.43,5.85,2.91,8.84,4.24,2.27,1,4.54,2,6.9,2.83,4,1.34,8.22,2.21,12.37,3.18,3,.71,6.11,1.39,9.19,1.94,4,.72,12,1.77,12,1.77s1.7,15.47,2.83,23.16c.7,4.79,1.54,9.57,2.47,14.32q1,5.24,2.3,10.43c.87,3.56,1.84,7.09,2.83,10.61,1.23,4.37,3.89,13.05,3.89,13.05H180.13s-3.43-13.18-5.12-19.77c-1.79-7-3.7-13.87-5.31-20.86-1.11-4.87-2-9.77-3-14.67-.68-3.44-2-10.31-2-10.31s-8.15-2.22-12.17-3.48-8-2.57-11.84-4.07c-2.93-1.12-5.79-2.45-8.67-3.71-2.54-1.1-5.1-2.16-7.6-3.36-2-.94-3.84-2.09-5.83-3-1.73-.79-5.3-2.12-5.3-2.12Z"/><path id="path6274" class="cls-34" d="M251.13,184.41c-4,1.93-8,4.09-12.15,5.78a100.13,100.13,0,0,1-10.39,3.55c-2.79.78-5.63,1.38-8.47,1.91-2.22.42-6.69,1-6.69,1s1.6,14.94,1.43,22.42a94.51,94.51,0,0,1-1.61,14.62c-.62,3.37-1.66,6.66-2.55,10-1.15,4.21-2.44,8.39-3.61,12.6-1.22,4.41-3.59,13.24-3.59,13.24h10.33s3.42-10.76,4.83-16.22c1.58-6.11,2.81-12.3,4.07-18.48,1-4.71,2.27-9.37,2.66-14.16.54-6.56-.42-19.75-.42-19.75,6.36-2.44,7.18-2.25,10.72-3.49,3.36-1.18,6.71-2.37,10-3.77,2.79-1.2,5.55-3,8.2-4Z"/></g><g id="g6276"><path id="path6278" class="cls-35" d="M211.67,217.48c.37,10.16-5.66,18.63-13.46,18.91s-14.43-7.72-14.8-17.89,5.65-18.63,13.46-18.91S211.3,207.31,211.67,217.48Z"/><path id="path6280" class="cls-36" d="M208.24,217.6c.31,8.4-4.34,15.4-10.39,15.62s-11.21-6.4-11.52-14.8v0c-.31-8.41,4.35-15.4,10.4-15.63s11.2,6.41,11.51,14.81Z"/><path id="path6282" class="cls-37" d="M196.79,207.64a2.05,2.05,0,0,0-1.72,1,3.3,3.3,0,0,0-.66,2.25,3.54,3.54,0,0,0,.83,2.18,6.14,6.14,0,0,1,1.64,4.06l0,1-.5,0a3.41,3.41,0,0,1-1.78-.88l-.79-.93a2.09,2.09,0,0,0-3.5.13,3.32,3.32,0,0,0-.67,2.24,3.27,3.27,0,0,0,.84,2.19,2.08,2.08,0,0,0,1.78.89,2.06,2.06,0,0,0,1.71-1l.72-1a3.38,3.38,0,0,1,1.71-1h.5a17.93,17.93,0,0,1-.13,3.17,7.38,7.38,0,0,1-1.16,2.58,21.59,21.59,0,0,1-1.93,2v.32a30.25,30.25,0,0,1,3-.75l1.5-.05a29.53,29.53,0,0,1,3,.52v-.31a21.57,21.57,0,0,1-2.07-1.83,7.3,7.3,0,0,1-1.34-2.49,18.4,18.4,0,0,1-.37-3.15l.5,0a3.35,3.35,0,0,1,1.78.89l.79.92a2.09,2.09,0,0,0,3.5-.13,3.32,3.32,0,0,0,.67-2.24,3.27,3.27,0,0,0-.84-2.19,2.1,2.1,0,0,0-1.78-.89,2.08,2.08,0,0,0-1.71,1l-.72,1a3.38,3.38,0,0,1-1.71,1h-.5l0-.94a9.05,9.05,0,0,1,.41-2.55,5.66,5.66,0,0,1,.94-1.62,3.65,3.65,0,0,0-.16-4.43A2.06,2.06,0,0,0,196.79,207.64Z"/></g><g id="g6284"><path id="path6286" class="cls-7" d="M111,183.62s4.26,4.82,5.3,7.78c1,2.78-.28,6,.71,8.84.76,2.15,2.79,3.64,3.89,5.65a49.72,49.72,0,0,1,3.54,8.49c.52,1.63.28,3.53,1.14,5,1,1.63,3,2.33,4.16,3.83,1.86,2.42,2.35,5.72,4.24,8.13,2.42,3.09,6.29,4.8,8.84,7.78,1,1.16,1.3,2.9,2.48,3.89,3.32,2.78,8.63,2.24,12,4.95,1.12.89,1.47,2.49,2.47,3.53,2.57,2.67,6.05,4.29,8.84,6.72,1.51,1.31,2.57,3.14,4.24,4.24a20.6,20.6,0,0,0,3.54,1.42c.83.34,2.47,1.06,2.47,1.06s-2.34-9.43-3.53-14.14c-1.57-6.19-3.33-12.34-4.78-18.56-1.64-7.1-2.8-14.3-4.41-21.39-.55-2.37-1.77-7.07-1.77-7.07s-9.84-2.65-14.67-4.25q-8.16-2.7-16.09-6c-3-1.24-5.94-2.62-8.84-4.06-2.46-1.22-4.72-2.85-7.25-3.89a62.38,62.38,0,0,0-6.54-1.95Z"/><path id="path6288" class="cls-38" d="M225,200.94c.42,6.55,1,13.16.4,19.7-1,11.25-4.16,22.21-6.76,33.2-1,4.38-2.38,8.69-3.54,13,4.42-2.7,7.1-7.76,11.88-9.93,4.39-2,4.6-8.36,9.66-10.76,5.62-2.66,4.86-9.73,10.28-15.55,3-3.24,2.81-9.06,5.24-12.22,2.84-3.67.19-10,3.11-13.56,2.48-3.05.06-6.87-.16-10.27q-.56-2.57-1.12-5.13A169.69,169.69,0,0,1,233.91,198C231,199.12,228,200,225,201Z"/></g><g id="g6290"><path id="path6292" class="cls-39" d="M198,198.61a2.14,2.14,0,1,1-2.12-1.87A2,2,0,0,1,198,198.61Z"/><path id="path6294" class="cls-33" d="M272,205.5a74.3,74.3,0,0,1-.83,7.59c-.37,2.32-.17,4.92-1.42,6.91-.73,1.16-2.67,1.27-3.25,2.5-1.14,2.41,1.09,5.47.25,8-.73,2.18-3.17,3.39-4.3,5.4-2.22,4-1.74,9.34-4.65,12.84a5.94,5.94,0,0,1-2.34,1.38c-1.19.52-2.87.15-3.71,1.13-1,1.18.1,3.23-.61,4.6-1.18,2.26-4.32,3-5.64,5.15-1.52,2.51-1.5,5.75-2.25,8.5,9.83-.08,19.67.08,29.5,0,.53-2.73.77-5.86,1.5-8.72,1.1-4.34,3.18-8.4,4.33-12.73,1.08-4.05,1.41-8.27,2.4-12.35.42-1.76,2-3.47,1.52-5.21-.19-.66-1-.92-1.52-1.39a10.79,10.79,0,0,1-1.76-1.75,19.92,19.92,0,0,1-1.93-5.18c-1.14-3.87-1.2-8-2.62-11.8-.65-1.73-2.05-3.1-2.67-4.87Z"/></g><path id="path6296" class="cls-38" d="M272.77,269.5c.92-4.22,1.67-8.27,2.82-12.43a58.79,58.79,0,0,0,2.47-7.54c1.13-3.73,1.52-7.63,2.48-11.41.34-2.13,1.4-4.05,2.13-6.07a20.5,20.5,0,0,0,4.62,1.92c1.81.51,3.53,1.34,5.34,1.81l5.24.34c1.62-.39,3.56-1.64,5.13-1.06,1.19.33,3.13-.71,3.94-1.82.41-.47.85-1.49,1.24-1.61a58,58,0,0,1,3.72,7.59c.75,2,1.83,3.87,2.07,6,.6,3.24,1.35,6.48,1.78,9.75.23,4.9.49,9.6.51,14.52Z"/><path id="path6298" class="cls-1" d="M283.2,232.41c-1.68-2.28-.81-5.66-.52-8.48.25-2.5-.08-5.83,2-7.27.82-.56,2,0,3,.27,1.59.55,2.66,2.16,4.23,2.75a16,16,0,0,0,6.33.94c2.55-.2,3.52-.87,5.34-2.35,1-.83,2.31-3.23,3.79-2.74s1.22,2.86,1.37,4.38c.25,2.66-1.08,5.28-.93,7.94.08,1.23,1.25,2.44.85,3.6s-1.91,1.92-3.12,2.49c-1.48.7-3.2.69-4.81,1-1.84.37-3.65,1.11-5.52,1-2.59-.08-5.07-1.15-7.55-1.93-1.5-.47-3.48-.4-4.41-1.67Z"/><g id="g6300"><path id="path6302" class="cls-40" d="M270.62,131.5a64,64,0,0,1-.78,7.44,38.84,38.84,0,0,1-.29,5.32c.28,2.59-.2,4.08.6,6.57a50.77,50.77,0,0,0,1.77,4.93l3.2,4.74,2.63-2.5a20,20,0,0,1-3.11-4.37,20.92,20.92,0,0,1-1.81-4.9c-.2-1.75-.64-3.52-.25-5.27a33.29,33.29,0,0,0,.07-5.65c0-1.13,1.29-3,.9-4l-2.93-2.34Z"/><path id="path6304" class="cls-40" d="M270.75,145.58a16.67,16.67,0,0,0-4.16-4.46,9.86,9.86,0,0,0-2.87-1.81,20.59,20.59,0,0,0-4.77-.62c-1.7-.18-3.39-.42-5.1-.46a27.79,27.79,0,0,1-3.53.15,15.88,15.88,0,0,1-5.5-1.91,9.78,9.78,0,0,1-1.5-1.24l-2.09-1.85c-.32.45.13.93.27,1.38a20.78,20.78,0,0,0,1.46,3.59,17,17,0,0,0,2.58,4.08,12.78,12.78,0,0,0,3.5,2.43,18,18,0,0,0,3.46,1.21c2.6.71,5.28,1,7.91,1.6,1.6.36,3.16.92,4.78,1.17,1.91.29,3.89-.05,5.78.37.3.07,1,.85.88.36a18.08,18.08,0,0,0-1.1-4Z"/><path id="path6306" class="cls-40" d="M270.73,152.82a12.93,12.93,0,0,1-3.75,3A8.36,8.36,0,0,1,264.5,157a17.53,17.53,0,0,1-3.9,0c-1.38,0-2.77,0-4.14-.14a27.34,27.34,0,0,0-2.83-.46,13.73,13.73,0,0,0-4.6.94,9,9,0,0,0-1.32.81l-1.85,1.22c-.22-.38.19-.7.34-1a15.8,15.8,0,0,1,1.51-2.61,13,13,0,0,1,2.45-2.88,10.35,10.35,0,0,1,3-1.53,15.79,15.79,0,0,1,2.89-.6c2.16-.29,4.35-.27,6.51-.46,1.32-.12,2.63-.4,3.95-.44,1.57,0,3.13.42,4.69.27.25,0,.91-.55.74-.19a13.43,13.43,0,0,1-1.25,3Z"/></g><g id="g6308"><path id="path6310" class="cls-4" d="M286.38,216.5c-.24-5,.12-10-.48-15a23.67,23.67,0,0,0-1.2-5.67,15.36,15.36,0,0,0-2.27-4c-1.5-1.92-4-3-5.3-5.05-1.86-3-2-6.8-3.09-10.16s-2.81-6.64-3.61-10.17c-.95-2.93-2.79-5.49-4.29-8.16-1.4-1-2.25-1.7-3.45-2.46a1.69,1.69,0,0,1,1.39-2.29,2.28,2.28,0,0,1,2.89-.14c1.94.88,4.17,1.31,5.64,3a10.25,10.25,0,0,1,3.16,4.05c.7-1.72,2.52-2.48,3.86-3.62,1.32-.78,5.62-3.35,6.93-4.16-1,.38-4.16,1.45-5.13.89-1.06-.28-2.45.45-3.36-.18-2.1.49-4.85,1.51-7,.61-1-.22-1.07-2-.14-2.44,1.14-1.15,2.32-1.19,3.89-1.71a5.4,5.4,0,0,1,3.85-1.12c.83-.49,4.28-.49,4.85.26,1.75.34,1.46,1.25,2.78,2.1.83,1.08-.55,2.78.7,1.78a5.8,5.8,0,0,1,4.24-.12c.87.36,2.1,1.11,1.86,2.21.29,1-.78,2.27-.54,2.82,1.78-.44,4-.69,5.28,1,1,.63,1.2,1.92,1.39,2.95.29.86-2,2.47-.52,1.95a7.7,7.7,0,0,1,4.28-.53c1.32,1.3,1.8,3.06,2.33,4.77a62.19,62.19,0,0,1,1,11.31,39.45,39.45,0,0,1-.51,7c-.49,2.88-2,5.55-2.33,8.44a21.84,21.84,0,0,0,.07,4.78c.3,3.21,1.56,6.29,1.66,9.55.15,2.22.43,4.42.77,6.62-1,1.09-1.68,2.6-2.93,3.42a29.34,29.34,0,0,1-3.43,1.68c-3.55-.45-7.33-.6-10.5-2.4-.88-.66-1.84-1.22-2.76-1.82Z"/><g id="g6312"><path id="path6314" class="cls-8" d="M263.75,154.28c1.27,1.3,3.71,2,4,3.84.07.42-.45.72-.62,1.11"/><path id="path6316" class="cls-8" d="M271.18,151.27c1.37-1,4.68-.88,5.16.8.29,1-1.67,1.64-2.33,2"/><path id="path6318" class="cls-8" d="M275.59,160.11c-.74,1.37-2.95,2-2.88,3.58a3.47,3.47,0,0,0,2.81,2.88c2.29.32,4-2.31,6-3.47,1.54-.9,3-1.9,4.62-2.72,2-1,4.31-1.53,6.24-2.74"/><path id="path6320" class="cls-8" d="M281.25,163.11c-1.1,1.49-3.91,2.12-3.84,3.95,0,1.16,1.51,2,2.62,2.29,1.56.43,3.25-.34,4.79-.84,1.93-.63,3.59-1.91,5.47-2.67a34.39,34.39,0,0,1,7.34-2.38,5,5,0,0,1,.77,0"/><path id="path6322" class="cls-8" d="M298.75,163.64a58.18,58.18,0,0,0-7.83,6.23c-.44.45-1.23.87-1.16,1.49.15,1.31,1.76,2.23,3,2.5,1.54.34,3.13-.55,4.55-1.21a18.39,18.39,0,0,0,5-3.41,10.49,10.49,0,0,0,1.84-2.45,7.06,7.06,0,0,0,.39-1"/><path id="path6324" class="cls-8" d="M273.91,161.7c1.21-.47,3-1.4,4.35-.72.85,0,.89.81,1.15,1.43.48.66-.05,1.27-.34,1.89,0,.07-.95,1-1,1.1"/><path id="path6326" class="cls-8" d="M283.71,169c.47-.65,2.09-1.66,1.79-2.7-.45-1.52-2.66-2.34-4.38-1.9-.37,0-.74.08-1.1.14"/><path id="path6328" class="cls-8" d="M295,173.72c.71-.88,2.47-1.58,2.12-2.65-.61-1.88-4-2.68-5.73-1.54"/></g><path id="path6330" class="cls-41" d="M264.61,116.11c-2.26-1.14-4.56-2.38-5.74-3.67s-1.46-2.78-2-4.22c-.31-.78-.68-2.34.21-2.45,3.13-.39,6.35.32,9.4,1.08a4.37,4.37,0,0,1,3.08,2.64c.24.64,2.76,2.36,2.29,1.84-2-2.21-2.33-3.86-1.84-5.71.42-1.63,2.44-2.51,3.49-3.83.47-.59.49-2,1.46-.82,1.25,1.59,3.44,2.12,5,3.35a5.09,5.09,0,0,1,1.78,4.53c0,.59-1.5,3.56-.92,2.11.83-2,4.23-4.74,6.66-4.58a23,23,0,0,1,5.94,1.15c2.19.74-.51,3.53-.51,4.94,0,2.08-2.52,3.08-6.91,4.28,3.24-.41,4.65,1.42,4.65,1.42,1.31.57,1.35,2.39,1.36,3.72a13.9,13.9,0,0,1-.79,4.51c-.41,1.26.16,3.06-1.92,2.48-1.87-.52-3.39-2.07-5.34-2.42s-5.25-6.44-1.46-.79a3.44,3.44,0,0,1-1.29,4.77c-2,1.18-3.39,3.12-5.44,4.24-1.33.72-2.57-1.87-3.78-2.67-1.55-1-2.91-2.45-3-4.36-.07-1,1.56-4.4,1.47-4.27-1.22,1.63-3.95,4.46-6.26,4.49a17.62,17.62,0,0,1-5.46-.54c-1.4-.44-2.79-.62-2.1-2.38.83-2.13.9-4.66,2.5-6.41,1.12-1.24,3.43-2.73,5.54-2.43Z"/><path id="path6332" class="cls-42" d="M282.07,116c.28,1.94-2.51,4-6.24,4.71s-7-.37-7.26-2.31h0c-.29-1.94,2.5-4,6.23-4.71s7,.37,7.27,2.31Z"/></g><g id="g6334"><path id="path6336" class="cls-40" d="M272.25,145.75a17,17,0,0,1,2.67-5.68,10.7,10.7,0,0,1,2.27-2.73,22.58,22.58,0,0,1,4.59-2.28c1.63-.78,3.25-1.61,4.94-2.25a33.19,33.19,0,0,0,3.59-1.11,17.47,17.47,0,0,0,4.87-3.76,10.35,10.35,0,0,0,1.09-1.71c.5-.82,1-1.65,1.48-2.48.47.31.17.93.19,1.4a21.25,21.25,0,0,1-.26,3.9,16.77,16.77,0,0,1-1.23,4.76,13.43,13.43,0,0,1-2.69,3.54,19.55,19.55,0,0,1-3.06,2.37c-2.37,1.6-4.95,2.83-7.39,4.32-1.48.91-2.86,2-4.4,2.8-1.81,1-3.91,1.33-5.66,2.41-.28.17-.76,1.16-.76.65a17.12,17.12,0,0,1-.24-4.15Z"/><path id="path6338" class="cls-40" d="M282.84,169.65l10.61,12.55,6,7.43,8.84,12.72,3.71,5.48,1.59.18,1.41-6-10.08-12.73-9.37-10.78-9.72-10.43Z"/><path id="path6340" class="cls-40" d="M303.1,188.41a23.07,23.07,0,0,1-1.64-7.09,15,15,0,0,1,0-4.12,28.75,28.75,0,0,1,2-5.37c.73-1.89,1.41-3.81,2.26-5.61a36.93,36.93,0,0,0,2-3.6,23.2,23.2,0,0,0,1.24-6.93,15.28,15.28,0,0,0-.28-2.33c-.15-1.12-.31-2.22-.48-3.33.55-.06.72.71,1,1.13a25.23,25.23,0,0,1,2.3,3.73,22.16,22.16,0,0,1,2.14,5.21,18.59,18.59,0,0,1,.25,5.16,26.34,26.34,0,0,1-.77,4.36c-.75,3.16-1.9,6.15-2.77,9.26-.53,1.89-.86,3.87-1.49,5.71-.75,2.18-2.08,4-2.7,6.28-.1.36.18,1.6-.16,1.14-.94-1.2-2.16-2.18-2.83-3.6Z"/></g><g id="g6342"><path id="path6344" class="cls-8" d="M284.43,179.2c-.12,1.83-.61,3.67-.35,5.48a16.24,16.24,0,0,0,1.63,4.49,19.09,19.09,0,0,0,2.11,3.67,37.6,37.6,0,0,0,3.68,3.68"/><g id="g6346"><path id="path6348" class="cls-12" d="M266,182.65c.57-2.49.8-5.19,2.14-7.36a14.94,14.94,0,0,1,4.67-4.31,11.53,11.53,0,0,1,4.25-1.86,13.64,13.64,0,0,1,4.62.35,14.59,14.59,0,0,1,11.05,8.1,24,24,0,0,1,1,2.6A22.64,22.64,0,0,0,291,178a14.24,14.24,0,0,0-3.25-1.2,26,26,0,0,0-5.44-1,14.73,14.73,0,0,0-3.57.29,18.29,18.29,0,0,0-4.35,1.41c-1.87.91-3.43,2.38-5.2,3.49a22,22,0,0,1-2,1.17c-.41.2-.92.79-1.28.5Z"/><path id="path6350" class="cls-12" d="M269.25,192c.67-2.58.62-5.47,2-7.75a16.31,16.31,0,0,1,5.32-4.78,15,15,0,0,1,5-2.22,19.46,19.46,0,0,1,5.65,0,21.59,21.59,0,0,1,5.59,1,19.44,19.44,0,0,1,5.48,3.27,16.44,16.44,0,0,1,3,3.32,23.72,23.72,0,0,1,1.43,2.62,28.59,28.59,0,0,0-3.4-2,19.21,19.21,0,0,0-4.05-1,36.87,36.87,0,0,0-6.7-.68,20.19,20.19,0,0,0-4.31.55,24.07,24.07,0,0,0-5.17,1.76c-2.16,1.06-4,2.7-6,4-.76.47-1.52,1-2.32,1.35-.49.24-1,.41-1.52.61Z"/></g><path id="path6352" class="cls-10" d="M95.89,180.32a109.41,109.41,0,0,1,.22,27.74,186.52,186.52,0,0,1-5.81,18.5c.41,1.12.74,2.27,1.18,3.37a25.08,25.08,0,0,0,2.35,5.19c1,1.45,2.91,2.18,3.78,3.72.7,1.24.09,3.06,1,4.16.71.85,2.22.64,3.06,1.37a9.62,9.62,0,0,1,2,3.22c.74,1.49,1,3.2,1.72,4.69a28,28,0,0,0,3,4.78,20.19,20.19,0,0,0,3.25,3.41c.93.74,2.38.84,3.06,1.81.5.7.1,1.75.5,2.5a20.94,20.94,0,0,0,4.25,4.72h61.08l-1.76-5.22-2.19-.94a20.53,20.53,0,0,1-3.57-1.4c-1.66-1.11-2.71-2.94-4.21-4.25-2.79-2.44-6.28-4.06-8.85-6.72-1-1-1.34-2.64-2.47-3.53-3.38-2.71-8.71-2.19-12-5-1.17-1-1.47-2.71-2.47-3.88-2.55-3-6.42-4.69-8.84-7.78-1.89-2.41-2.39-5.7-4.25-8.12-1.15-1.5-3.21-2.22-4.16-3.85-.86-1.48-.63-3.37-1.15-5a49.78,49.78,0,0,0-3.53-8.5c-1.1-2-3.11-3.5-3.88-5.65-1-2.79.27-6-.72-8.82-1-3-5.28-7.78-5.28-7.78-5.44-2-10.36-3.08-15.28-2.77Z"/><g id="g6354"><path id="path6356" class="cls-43" d="M114.49,253.85a16.52,16.52,0,0,1,3,2c1.14,1,2.48,3.65,3.49,4.8a20.92,20.92,0,0,0,3.77,3.45,5.6,5.6,0,0,0,3.47,1.14c.39-.59-1.56-2.52-2.07-3.52a18.82,18.82,0,0,1-1.56-3.46c-.13-.51.38-1.07.21-1.57a15.32,15.32,0,0,0-1.71-2.77"/><path id="path6358" class="cls-43" d="M120.5,256.63c.65.77,1.37,1.47,2,2.28s1,2.16,1.91,2.93c.46.4,1.2.21,1.8.32"/><path id="path6360" class="cls-43" d="M122.12,255.89a8.19,8.19,0,0,1,1.14,1.14c.22.35.16.85.42,1.16a9,9,0,0,0,1.27,1"/></g><g id="g6362"><g id="g6364"><path id="path6366" class="cls-44" d="M148.83,257.36a14.55,14.55,0,0,1,2.8,1.53c1.07.83,2.4,3,3.36,4a18.88,18.88,0,0,0,3.55,2.8,5.15,5.15,0,0,0,3.19.78c.32-.53-1.52-2.1-2-2.94a15.27,15.27,0,0,1-1.56-2.93c-.15-.43.29-.95.11-1.38a13.21,13.21,0,0,0-1.67-2.32"/><path id="path6368" class="cls-44" d="M154.37,259.43c.62.63,1.3,1.21,1.86,1.88s1,1.83,1.86,2.44c.43.33,1.08.12,1.63.18"/><path id="path6370" class="cls-44" d="M155.79,258.7a6.9,6.9,0,0,1,1.08.92c.22.29.19.74.44,1a7.83,7.83,0,0,0,1.19.82"/></g><g id="g6372"><path id="path6374" class="cls-45" d="M121,231.58a13.76,13.76,0,0,1,2.75,1.35c1,.76,2.43,2.84,3.4,3.71a17.66,17.66,0,0,0,3.52,2.55,4.8,4.8,0,0,0,3.08.62c.28-.53-1.56-2-2.08-2.77a14.59,14.59,0,0,1-1.63-2.77c-.16-.41.23-.94,0-1.34a12.56,12.56,0,0,0-1.7-2.18"/><path id="path6376" class="cls-45" d="M126.37,233.34c.62.58,1.3,1.11,1.86,1.74a13.09,13.09,0,0,0,1.89,2.29c.43.29,1,.06,1.56.09"/><path id="path6378" class="cls-45" d="M127.69,232.56a6.85,6.85,0,0,1,1.08.85c.21.27.21.7.46.94a7.73,7.73,0,0,0,1.17.74"/></g><g id="g6380"><path id="path6382" class="cls-8" d="M99.23,208.55a16.22,16.22,0,0,1,2.21,2.83c.73,1.34,1.15,4.25,1.73,5.67a21.14,21.14,0,0,0,2.42,4.49,5.64,5.64,0,0,0,2.92,2.21c.56-.42-.65-2.89-.8-4a17.86,17.86,0,0,1-.35-3.78c0-.52.71-.88.71-1.41a14.74,14.74,0,0,0-.71-3.18"/><path id="path6384" class="cls-8" d="M104,213.14c.36.93.82,1.84,1.1,2.79.33,1.12.27,2.38.85,3.4.3.52,1.06.59,1.59.88"/><path id="path6386" class="cls-8" d="M105.77,213a8.11,8.11,0,0,1,.71,1.45c.09.4-.13.86,0,1.23a7.94,7.94,0,0,0,.86,1.38"/></g><g id="g6388"><path id="path6390" class="cls-46" d="M101.27,184a12,12,0,0,1,1.83,2c.61,1,1,3.05,1.44,4.06a14.82,14.82,0,0,0,2,3.22A4.76,4.76,0,0,0,109,194.9c.46-.31-.55-2.07-.67-2.87a11.31,11.31,0,0,1-.29-2.71c0-.37.59-.63.59-1A9.34,9.34,0,0,0,108,186"/><path id="path6392" class="cls-46" d="M105.23,187.29c.3.67.68,1.32.91,2a9.7,9.7,0,0,0,.71,2.43c.25.37.88.42,1.32.63"/><path id="path6394" class="cls-46" d="M106.7,187.17a6,6,0,0,1,.59,1c.08.29-.11.61,0,.88a6.25,6.25,0,0,0,.72,1"/></g></g><path id="path6396" class="cls-10" d="M235.41,166.56c3.55,1.57,6.34,4.48,9.91,5.94,0,0,0,0-.07.06,2.85,4,5.09,6.58,6,11.16l.92,1.69,1.8,3.74.19-.09,1.13,5.12c.21,3.4,2.63,7.24.15,10.29-2.93,3.6-.26,9.89-3.09,13.56-2.44,3.15-2.23,9-5.25,12.22-5.43,5.82-4.67,12.87-10.28,15.53-5.07,2.4-5.27,8.79-9.66,10.78-4.77,2.17-7.45,7.2-11.87,9.91l-1.29,3h29.41c.73-2.73.72-6.43,2.22-8.91,1.32-2.18,4.48-2.87,5.66-5.12.71-1.38-.41-3.45.59-4.63.83-1,2.53-.61,3.72-1.12a6.06,6.06,0,0,0,2.34-1.38c2.91-3.5,2.43-8.87,4.66-12.84,1.12-2,3.55-3.23,4.28-5.41.84-2.53-1.39-5.59-.25-8,.58-1.23,2.52-1.34,3.25-2.5,1.25-2,1.07-4.58,1.44-6.91.59-2,1.18-4,1.78-6-1.9-4.11-4.38-9.25-7.13-14.32a86.56,86.56,0,0,0-8.81-13.25l-5.28-5.84-4.59-3.19-4.6-2.09-3.9-1.78Z"/><g id="g6398"><path id="path6400" class="cls-47" d="M259.25,233.9a16.93,16.93,0,0,0-2.61,2.46c-.93,1.22-1.78,4-2.56,5.35a21.46,21.46,0,0,1-3.08,4.07,5.68,5.68,0,0,1-3.22,1.75c-.49-.51,1.08-2.76,1.4-3.83a18.42,18.42,0,0,0,.91-3.69c0-.52-.56-1-.48-1.5a14.28,14.28,0,0,1,1.18-3"/><path id="path6402" class="cls-47" d="M253.84,237.72c-.49.87-1.08,1.69-1.5,2.6s-.63,2.31-1.35,3.22c-.38.48-1.14.42-1.71.63"/><path id="path6404" class="cls-47" d="M252.12,237.28a8.32,8.32,0,0,0-.92,1.33c-.15.38,0,.87-.2,1.22a8.9,8.9,0,0,1-1.07,1.23"/></g><g id="g6406"><g id="g6408"><path id="path6410" class="cls-48" d="M238.63,256.18a12.6,12.6,0,0,0-2.23,1.67c-.83.86-1.8,3-2.54,4a17.26,17.26,0,0,1-2.77,2.89,4.2,4.2,0,0,1-2.6,1c-.3-.46,1.13-2.07,1.5-2.89A15.53,15.53,0,0,0,231.1,260c.1-.41-.3-.85-.18-1.25a13,13,0,0,1,1.24-2.29"/><path id="path6412" class="cls-48" d="M234.16,258.61c-.47.63-1,1.22-1.43,1.89a12.49,12.49,0,0,1-1.39,2.42c-.33.33-.89.2-1.34.31"/><path id="path6414" class="cls-48" d="M232.93,258.07a6.88,6.88,0,0,0-.84.95c-.16.28-.1.69-.29.94a7,7,0,0,1-.94.87"/></g><g id="g6416"><path id="path6418" class="cls-49" d="M265.12,196.14a16.64,16.64,0,0,0-.86,3.49c-.11,1.52.7,4.35.76,5.88a21.16,21.16,0,0,1-.38,5.09,5.61,5.61,0,0,1-1.75,3.22c-.68-.16-.59-2.9-.9-4a18.35,18.35,0,0,0-1.24-3.59c-.25-.46-1-.52-1.23-1a15.45,15.45,0,0,1-.66-3.19"/><path id="path6420" class="cls-49" d="M262.65,202.29c.06,1,0,2,.15,3,.16,1.15.73,2.28.62,3.44-.06.6-.73,1-1.09,1.46"/><path id="path6422" class="cls-49" d="M261,202.86a7.91,7.91,0,0,0-.05,1.61c.08.4.46.73.49,1.13a8.91,8.91,0,0,1-.23,1.62"/></g></g><g id="g6424"><path id="path6426" class="cls-50" d="M272.75,114.35a1.48,1.48,0,0,1-1.57,1.41,1.5,1.5,0,1,1,1.57-1.41Z"/><path id="path6428" class="cls-50" d="M276.4,112.37a1.48,1.48,0,0,1-1.57,1.41,1.5,1.5,0,1,1,1.57-1.41Z"/><path id="path6430" class="cls-50" d="M279.92,112.37a1.48,1.48,0,0,1-1.57,1.41,1.5,1.5,0,1,1,1.57-1.41Z"/><path id="path6432" class="cls-50" d="M284,115.51a1.48,1.48,0,0,1-1.57,1.41,1.5,1.5,0,1,1,1.57-1.41Z"/><path id="path6434" class="cls-50" d="M281.77,119.58A1.48,1.48,0,0,1,280.2,121a1.5,1.5,0,1,1,1.57-1.41Z"/><path id="path6436" class="cls-50" d="M277.7,121.43a1.48,1.48,0,0,1-1.57,1.41,1.5,1.5,0,1,1,1.57-1.41Z"/><path id="path6438" class="cls-50" d="M273.44,121.62a1.48,1.48,0,0,1-1.57,1.41,1.5,1.5,0,1,1,1.57-1.41Z"/><path id="path6440" class="cls-50" d="M269,118.84a1.48,1.48,0,0,1-1.57,1.41,1.5,1.5,0,1,1,1.57-1.41Z"/></g><path id="path6442" class="cls-8" d="M265.1,101.41c1,1.94,1.79,4,2.95,5.84a22.72,22.72,0,0,0,2.78,3.69,40.31,40.31,0,0,0,3.54,3"/><path id="path6444" class="cls-50" d="M266.41,100.39a1.48,1.48,0,0,1-1.57,1.41,1.5,1.5,0,1,1,1.57-1.41Z"/><path id="path6446" class="cls-8" d="M282.79,99a41.76,41.76,0,0,1,.26,5.35,20.2,20.2,0,0,1-1.1,4.8,39.07,39.07,0,0,1-2,4.18"/><path id="path6448" class="cls-50" d="M284.24,98.34a1.48,1.48,0,0,1-1.57,1.41,1.5,1.5,0,1,1,1.57-1.41Z"/></g><g id="g6450"><path id="path6452" class="cls-2" d="M231.73,370a73.58,73.58,0,0,0-9.14-4.78,105.84,105.84,0,0,0-15.43-5.06,201,201,0,0,0-28.9-5.11A119.17,119.17,0,0,0,160,354.6a140.34,140.34,0,0,0-21.12,2.76c-5.15,1.07-10.37,2.21-15.17,4.38a43.85,43.85,0,0,0-8.51,5.4c-2.9-4-5.17-6.67-6.1-11.29a107.93,107.93,0,0,1,10.38-5.6,101.64,101.64,0,0,1,16.6-5,152.4,152.4,0,0,1,16.76-2.59,162.61,162.61,0,0,1,20.9-1.44,116.18,116.18,0,0,1,15.78,1.68,176.65,176.65,0,0,1,21.74,4.54,117.74,117.74,0,0,1,14.28,5.31c4.94,2.16,9.56,5.16,14.46,7.29a111.37,111.37,0,0,1-8.31,9.9Z"/><g id="g6454"><path id="path6456" class="cls-3" d="M148.13,501.85c5.7,8,15.46,8.77,24.44,8.06,11.05.09,19.54-9.74,26.79-17.15,10.43-12.75,21.09-27.31,22.52-44.32,7.66-13.18,12.36-27.18,19.5-40.6,20.6-14.21,45-22.91,63.86-39.48,11.07-10.91,21.92-24.14,24.75-39.69-.12-19.56-.24-38.63-.36-58.2-12,.09-21.42-.08-33.37,0-17.17,18.48-26.15,38.63-32,60.91a112.6,112.6,0,0,0,.24,28.09c-7.66.81-16.68-5.62-22.25-2.82-3.1,6.07-9.11,12.58-14.58,17.13-5.89,1.15-11.45,9.36-10.1,15.6-1.48,6.14-3.2,11.72-2.21,18.24-3.57,5.27-4.77,11.06-4.86,17.23-5.18,7.18-.11,15.82-4.88,23-1.88,11.41-1.41,24.06-9.47,33.47-8.38,12.63-19.26,22.28-34.52,24.95-5.13.52-9.3-2.19-13.51-4.42Z"/><path id="path6458" class="cls-4" d="M231.72,369.72c-1.64,2.19-3.3,4.35-6.07,5.08a6.37,6.37,0,0,0-4.69,5.57,12.77,12.77,0,0,1-6,8.38c-3.11,2.62-6.58,4.95-9.49,7.74-1.38,3.25-3.61,6.29-4.48,9.68-.38,15.17-2.43,30.28-2,45.48.39,6.62-1.72,13-2.65,19.52-4.11,5.62-7.47,11.87-12.82,16.46-4.61,5.26-10.74,8.75-16.25,12.94-3.41.31-6.91,1.21-10.26,1.16-3.2-1.65-6.81-2.86-9.76-4.79-2.9-5.23-6.36-10.24-8.91-15.61-1.63-7.5-3.77-14.95-5.1-22.49.27-6.14-.08-12.39.57-18.46,4.37-12.33,8.15-24.85,12.15-37.29.85-2.36,2.94-4.55,3-7-.49-2.36-.37-5.06-2.8-6.35-2.89-3.13-6.92-4.84-10.67-6.67-2.65-.05-3.64-2.32-4.86-4.27-1.44-2.4-2.85-4.84-5.66-5.76-3.55-1.57-6.34-4.48-9.9-5.94,3.46-2.38,6.69-5.24,10.92-6.11a70.72,70.72,0,0,1,16.22-4.11c12.05-1.8,24.29-4,36.47-2.4,12.15,2.39,24.59,3.81,36.23,8.23,5.42,2,11.36,2.9,16,6.54l.78.49Z"/><path id="path6460" class="cls-5" d="M177.46,510c2.28-1.21,4.72-2.14,6.89-3.55a63.87,63.87,0,0,0,8.14-6.54,109.54,109.54,0,0,0,8.9-9.25c1.68-2,3.21-4.05,4.72-6.14,2.16-3,4.26-6,6.2-9.13,1.64-2.66,3.05-5.45,4.57-8.17a30.65,30.65,0,0,1,3.5,2.69c1.17,1.23,2.48,2.55,2.87,4.2a6.62,6.62,0,0,1-.49,3.58c-1.79,5.06-5.2,9.42-8.34,13.77a69.72,69.72,0,0,1-6.75,7.92,104.19,104.19,0,0,1-8.73,7.81,31.3,31.3,0,0,1-3.75,2.81Z"/></g><path id="path6462" class="cls-6" d="M215.47,469.32a39.79,39.79,0,0,1,3.39,3.61,5.42,5.42,0,0,1,1.21,2,5.82,5.82,0,0,1-.41,2.87,26.66,26.66,0,0,1-3.06,5.65,79.06,79.06,0,0,1-5.09,7.1,118.27,118.27,0,0,1-8.92,10.06,63.36,63.36,0,0,1-8.34,7.2,45.64,45.64,0,0,1-4.41,2.38"/><g id="g6464"><g id="g6466"><path id="path6468" class="cls-7" d="M213.23,484.6c-.77-.46-.75-1.9,0-3.21s2.06-2,2.83-1.54h0c.77.46.75,1.89,0,3.21s-2.06,2-2.83,1.54Z"/><path id="path6470" class="cls-7" d="M204.88,494.65c-.65-.62-.32-2,.74-3.12s2.45-1.5,3.1-.88l0,0c.65.61.31,2-.75,3.11s-2.45,1.5-3.1.88Z"/><path id="path6472" class="cls-7" d="M196.21,503.65c-.59-.68-.13-2,1-3s2.59-1.26,3.18-.58h0c.59.68.12,2-1,3s-2.58,1.26-3.17.58Z"/><path id="path6474" class="cls-7" d="M186.69,509.15c-.31-.84.61-1.95,2.05-2.47s2.86-.26,3.17.58v0c.31.84-.61,2-2,2.47s-2.86.26-3.17-.58Z"/></g><g id="g6476"><g id="g6478"><path id="path6480" class="cls-5" d="M223.42,475l17.15,5.3-17.85,3.89,11,13.08-19.27-1.59,1.94,13.08-14.1-1.94.05,2.47c-3.39.12-2.89.06-6.28.18,0,0,7.82-6.18,11.31-9.73a79.77,79.77,0,0,0,6.19-7.42q2.41-3.1,4.6-6.36a44,44,0,0,0,4.06-6.55,30.17,30.17,0,0,0,1.24-4.41Z"/><path id="path6482" class="cls-5" d="M230.32,497.08a3.8,3.8,0,1,1,3.8,3.71A3.76,3.76,0,0,1,230.32,497.08Z"/><path id="path6484" class="cls-5" d="M236.68,480.37a3.46,3.46,0,1,1,3.45,3.8,3.63,3.63,0,0,1-3.45-3.8Z"/></g><path id="path6486" class="cls-5" d="M221.13,509.44a3.54,3.54,0,0,0-7.07,0h7.07Z"/></g><path id="path6488" class="cls-8" d="M233.85,478.51l-12.73,3L219,484.17l8.84,10.08-14.5-1.94-2.65,3.53,2.48,9.73-9.37-2.13"/><path id="path6490" class="cls-9" d="M160.5,499c3.07-4.15,4.37-10.11,9.36-12.33,2.78-.37,6.7,1.16,8.09-2.14,2.6-2.9,1.06-8.49,5.3-10.21,2.48-1.93,6.25-1.23,7.38-4.81,2.34-4.21.74-9.34.49-13.9-1.17-4.58-3.67-9.3-1.57-14,1.35-2.9-2.3-5-.88-7.89,1.51-2.34,2.38-5.23,0-7.57-2.51-3.7-1.53-8.37.61-12,.28-3,4-2.68,4.22-6.34-1.74-2.6-3.46-5.16-2.84-8.25-.14-3.47,2.89-5.33,6.21-5.5,2.91,1.35,6.54-2.2,3.23-4.26-2.51-3.15-.73-9.34,3.58-9.13,3.75.14,4.68,3.3,6.57,4.63.36-2.38-1.45-2.95-1.47-6.5,0-3,1.15-4.07,4.08-5.68,2.49-.78,6.82,0,6.64,3.26-4.33-2-6.77,2.62-3.54,6.37,2.79,1.85,4.54,4.34,3.52,7.6-.44,4.13-3.74,2.5-2,12.16.5,3.7-2.07,6.52-3.61,9.48-1.63,3.22-.72,6.76-1,10.11-1.46,3.38-3.41,6.48-3.51,10.28,0,2.82,1.81,5.46,0,8.31a31.16,31.16,0,0,0-2.85,15.24c-1,5.94-1.12,12.23-4.69,17.35-2.9,3.88-4.88,8.41-7.83,12.21-4.86,5.13-8.13,7.68-13.4,12.36-4.14,3.37-8.06,5-12.85,7a19,19,0,0,1-10.4,1.13c-5.44-1.21-9.95-5.08-14.28-8.69-3-2.55-3.79-6.95-5.32-10.6-1.3-3.1-3.33-5.67-3.26-9.57.06-2.91,0-5.7-2.13-8-1.55-3.35-1.43-7.09-1.49-10.64-.88-3.81-3.47-7.19-4-11-.34-3.21,1.69-6.3-.22-9.26-2.34-5.39-.53-11.38,1.83-16.28,1.61-4.32,1.36-10.27,1.14-15.39s5.86-4.62,4.59-12.58c-.42-2.62,0-4-3-7a11.47,11.47,0,0,1-3.4-7.89c-.34-2.15-.3-2.36-.51-4.46,1.8.77,2.85.91,4.55,2.21,6.11,2.82,11.64,7.73,18.65,7.81,4.7,1.46,10.89,4.24,10.49,10.05.15,4.83-.47,9.67-.23,14.52-5.72-.73-10.7,2.68-13.52,7.27-3.65,4.6-5.37,10.47-7.15,16-1.61,8.89-3.14,17.84-2.72,26.91-.64,5.51-.53,12.56,3.06,17.8,2.45,3.58,2.83,7.84,5.65,11.75,3,1.09,6.5-.29,8.87,2.45,2.55,1.64,3.05,5.18,4,7.63.17.44.95,0,1.42,0Z"/><g id="g6492"><path id="path6494" class="cls-8" d="M164.63,505.73a3.84,3.84,0,0,1,.15-1.59A18.13,18.13,0,0,1,167.6,499a31.73,31.73,0,0,1,6.05-6.67c3.19-2.5,8.08-2.7,10.71-5.79,1.36-1.59.75-4.31,2.08-5.92,1.89-2.31,5.24-3.41,7.7-4.54,3-1.38,2.45-7.22,2.78-11s-.61-7.37-.75-11.05-1.78-7.22-.13-10.87c2.35-5.18-2.43-4.1-2.28-6.35.17-2.65,3.26-4.85,3.65-7.09a13.31,13.31,0,0,0-.3-3.76c-.26-2.26-1.49-4.52-1-6.74.34-1.66,2.25-2.67,2.69-4.3a7.08,7.08,0,0,0-.11-3.45,19.27,19.27,0,0,0-1.39-2.9"/><path id="path6496" class="cls-8" d="M195.75,444.73c1.63-2.05,3.07-2.46,4.27-4,1.69-2.17,3.47-4.53,4-7.23s-1.36-5.6-1-8.4c.24-2.21,1.86-4.09,2.25-6.28.75-4.19-1.2-8.72.13-12.76.61-1.88,2.69-3,3.46-4.83a6.18,6.18,0,0,0,.73-4.05c-.35-1.9-1.4-1.15-1.82-4.2-.14-1,.75-2.54,1.53-3.76s1.63-2.14,1.14-4.24"/><path id="path6498" class="cls-8" d="M139.13,439.48c-2.19-10.26.58-13.38,2.1-19.77.69-2.92-1.34-9.11-.47-12,1.43-4.76,4.67-4.54,5.75-7.5a10.39,10.39,0,0,0,.19-4.31,14.64,14.64,0,0,0-.79-3.87,28.58,28.58,0,0,0-2.66-4.89c-.69-1.15-1.58-2.16-2.22-3.33a21.28,21.28,0,0,1-1-2.35"/><path id="path6500" class="cls-8" d="M196.05,449.23c1.63-2.05,5.18-3.68,7.14-6.12,1.6-2,3.72-4.19,3.63-6.73a64.74,64.74,0,0,1,.44-11.28c.36-2.75,2.18-6,1.62-8.15-2.23-8.54,2.89-9.84,4.38-14.89.79-2.67-2-6-1.28-9,.56-2.19,4-3.16,4.1-5.42.17-3.08-4.6-4.88-4.7-7.95a3.78,3.78,0,0,1,1.41-2.76c.91-.77,2.38-1.51,3.39-1.11"/><path id="path6502" class="cls-8" d="M196.31,439.23c1.69-2.18,4.18-4.94,4.75-8s-2-6.18-1.56-9.28c.31-2,2.44-3.4,2.75-5.4.72-4.72-3.62-10.1-2.37-14.14.5-1.64,2.66-2.22,3.71-3.58.77-1,1.74-2.05,1.85-3.3.3-3.28-4.09-6.17-3.19-9.33.26-.89,1.32-2.15,2.16-1.76,3.76,1.75,1,4.39,3.89,6.17"/><path id="path6504" class="cls-8" d="M144.68,420.52c.06-2.69-.83-6.4,0-9.44.89-3.29,4.28-7.21,5.15-8.84,1.45-2.7,1.15-3.37,1.31-5.13a18.41,18.41,0,0,0-.3-4.31,14.93,14.93,0,0,0-.8-3.45,11.46,11.46,0,0,0-1.82-2.89c-.83-1-2.23-2-2.86-2.64"/><path id="path6506" class="cls-8" d="M150.08,413.45c.06-2.13,0-5.16,1-7.47.87-2,3.28-3.84,4.15-5.12,1.45-2.14,1.27-3.91,1.31-5.93a16.19,16.19,0,0,0-.55-3.22,11.59,11.59,0,0,0-.55-2.92,7.46,7.46,0,0,0-1.82-2.3c-.64-.58-1.6-1-2.24-1.49"/><path id="path6508" class="cls-8" d="M156.13,409c0-1-.27-2.16.13-3.13.51-1.25,2-1.89,2.75-3a11.66,11.66,0,0,0,1-2c.43-.95.73-1.95,1.1-2.92"/><path id="path6510" class="cls-8" d="M137,463.23c-.19-2.41-1.19-4.71-1.38-7.13-.26-3.4.63-6.84.38-10.25-.22-3-1.32-5.88-1.62-8.87a22.7,22.7,0,0,1-.13-6.63c.36-1.86,1.79-3.39,2.21-5.25.65-2.81.47-5.75.48-8.64s-1.34-6.11-.48-9c1.44-4.76,4.68-4.54,5.75-7.5a10.23,10.23,0,0,0,.2-4.31,15,15,0,0,0-.79-3.87,29.28,29.28,0,0,0-2.66-4.89c-.69-1.15-1.63-2.14-2.22-3.33-.75-1.53-1.23-3.82-1.65-4.85"/><path id="path6512" class="cls-8" d="M160.88,506.25a25.77,25.77,0,0,1,.88-3.57c1.31-3.3,2.77-6.7,5.18-9.31a24.48,24.48,0,0,1,7.24-4.79c2.32-1.16,5.65-.63,7.33-2.6.76-.9.14-2.41.63-3.48,1.16-2.53,3.45-4.38,5.27-6.49s4.58-3.68,5.72-6.27c1.24-2.78,1-6,.87-9.08-.14-4.29-1.66-8.94-2.05-12.72-.32-3.07,1.15-3.86,1.06-5.84-.12-2.35-1.92-4.52-1.94-6.78.68-2.81,2-3.22,2.31-5a9.17,9.17,0,0,0-.62-5.29c-2.7-6-1.48-5.82-.87-8.93.38-1.93,2.66-3.15,3.71-4.92.66-1.09,1.57-2.2,1.6-3.47.07-2.64-3.48-4.77-2.94-7.35a3.66,3.66,0,0,1,2.79-2.76c2.12-.26,4.37,0,4-3.9"/></g></g><g id="g6514"><path id="path6516" class="cls-6" d="M196.75,456.86l2.13-3.88,3.24-2.12,2.88-3.13,2.88-2.75"/><g id="g6518"><path id="path6520" class="cls-8" d="M169.5,504.23A20.8,20.8,0,0,1,174,499a34,34,0,0,1,5.23-4c2.08-1.31,4.78-1.67,6.58-3.35,2.27-2.11,2.8-5.61,4.79-8,1.22-1.46,3-2.33,4.3-3.76a26.1,26.1,0,0,0,4.34-6.3,29.83,29.83,0,0,0,2.35-8.71c.24-1.89-.53-3.87-.05-5.7.8-3,2.88-5.52,4.69-8.05"/><path id="path6522" class="cls-8" d="M157.94,505.89a19.44,19.44,0,0,0-1.62-5.8,16.51,16.51,0,0,0-3.58-4.86c-2-1.85-4.71-2.78-7-4.31a15.27,15.27,0,0,1-3.66-2.68c-2-2.55-2.74-5.92-3.88-9-.84-2.27-1.41-4.63-2.16-6.92-.37-1.11-.75-2.21-1.14-3.31a38.21,38.21,0,0,1-1.45-4c-.78-3.36-.58-7.19-1.1-10.29-.43-2.56-1.22-5.05-1.5-7.63-.19-1.78,0-3.58-.12-5.37-.11-2.13-.27-4.26-.5-6.38-.17-1.51-.73-3-.63-4.5.16-2.25,1.32-4.31,1.84-6.5a55.37,55.37,0,0,0,1.72-8.89c.21-3-1.33-6.11-.47-9,1.43-4.76,4.67-4.54,5.75-7.5a10.24,10.24,0,0,0,.19-4.31,14.24,14.24,0,0,0-.79-3.88,28.64,28.64,0,0,0-2.66-4.89,34.3,34.3,0,0,1-2.21-3.33c-.85-1.84-1.23-4.81-1.65-5.84"/><path id="path6524" class="cls-8" d="M154.36,504.3c-.35-1.89-.47-2.89-1.29-4-1.29-1.8-3.44-2.81-5.33-3.94-1.68-1-3.73-1.33-5.3-2.5a16.63,16.63,0,0,1-2.8-3.11"/><path id="path6526" class="cls-8" d="M183.3,469a65.15,65.15,0,0,0-6.79,1.19,42.62,42.62,0,0,1-5.22.93,19.07,19.07,0,0,1-4.94-.44A7,7,0,0,1,163,469.4a5.41,5.41,0,0,1-1.21-2.63,2.4,2.4,0,0,1,0-.28"/><path id="path6528" class="cls-8" d="M164,461.54c.81,1,1.34,2.21,2.35,2.95a7.77,7.77,0,0,0,4.14,1.62,12.42,12.42,0,0,0,5.75-1.71,13,13,0,0,0,3-2.15"/></g></g><g id="g6530"><path id="path6532" class="cls-10" d="M164.56,460.13c.48,1,1.85,1.34,2.92,1.72a10.32,10.32,0,0,0,3.93.58,17.78,17.78,0,0,0,4.71-1.27c.93-.33,2.44-.26,2.71-1.21.11-.38-.38-.7-.65-1a10.33,10.33,0,0,0-4.07-3.08,10.68,10.68,0,0,0-6.3.25,5.26,5.26,0,0,0-2.9,1.87,2.36,2.36,0,0,0-.35,2.12Z"/><g id="g6534"><path id="path6536" class="cls-8" d="M138.75,468.61c2.65.29,5.33,1.38,8,.88a5.89,5.89,0,0,0,3.21-1.7,8.54,8.54,0,0,0,1.69-4.1,17,17,0,0,0,0-4.22c-.18-3.05-.63-6.08-1-9.11-.22-1.67-.08-3.46-.76-5-.4-.92-1.55-1.41-1.88-2.35a3.72,3.72,0,0,1,0-2.65c.47-1,1.7-1.32,2.49-2s.92-2,2-2c2.66,0,2,1.11,3,1.61.86.43.91,1.16,2.62,1.2.83,0,1.06-1,1.73-1.08a2.42,2.42,0,0,1,2,.6c.32.33.21.9.34,1.35s.37,1.07.52,1.6"/><path id="path6538" class="cls-8" d="M149.71,464a18.43,18.43,0,0,1-4.5,1.73,8.74,8.74,0,0,1-4.06-.41,8.49,8.49,0,0,1-2.5-1.67,10.92,10.92,0,0,1-1-1.07"/></g><path id="path6540" class="cls-10" d="M151.57,460c-.52,1-1.85,1.48-2.94,1.88a13,13,0,0,1-4.83.68,8.55,8.55,0,0,1-3.37-.62c-1-.45-2.49-.94-2.56-2-.08-1.29,1.62-2.08,2.72-2.77a7.6,7.6,0,0,1,3.78-1.28,10.18,10.18,0,0,1,5.85,1.65,3.5,3.5,0,0,1,1.3,1.64,1.1,1.1,0,0,1,0,.85Z"/><path id="path6542" class="cls-11" d="M161.88,429.6a6.75,6.75,0,0,1-2.45,1.11,5.27,5.27,0,0,1-2,.58c-.74,0-1.19-.56-1.83-.61-1.09-.09-2.13.64-3.22.55a3.56,3.56,0,0,1-1.67-.58c-.71-.47-1.82-1-1.72-1.86.07-.67,1.17-.68,1.67-1.12.68-.58,1-1.61,1.8-2a6.22,6.22,0,0,1,4.45-.32c.8.25,1.3,1.07,2,1.59a12.71,12.71,0,0,0,1.82,1.39c.51.26,1.17.12,1.63.51s-.19.57-.4.77Z"/><path id="path6544" class="cls-8" d="M160.75,428.73a5.76,5.76,0,0,1-3.13.61c-.74-.1-1.26-.89-2-1-1.5-.19-3,.68-4.46.93-.55.09-1.1.15-1.66.2"/><g id="g6546"><path id="path6548" class="cls-12" d="M168.09,459.86c0-1.22,1.42-2.21,3.18-2.21s3.18,1,3.18,2.21h0c0,1.22-1.42,2.21-3.18,2.21s-3.18-1-3.18-2.21Z"/><path id="path6550" class="cls-12" d="M141,460.21c0-1.22,1.55-2.21,3.45-2.21s3.45,1,3.45,2.21-1.54,2.21-3.45,2.21S141,461.43,141,460.21Z"/></g><path id="path6552" class="cls-13" d="M169.52,460.31c0-.39.45-.71,1-.71s1,.31,1,.7h0c0,.39-.45.7-1,.71s-1-.32-1-.71Z"/><path id="path6554" class="cls-14" d="M142.82,460.75a1,1,0,0,1,2,0v0a.91.91,0,0,1-1,.8.92.92,0,0,1-1-.79Z"/></g><path id="path6556" class="cls-6" d="M160.83,409.21c1.83.24,3.75.52,5.59.94a21.27,21.27,0,0,1,4,1.2,18.1,18.1,0,0,1,2.64,1.71"/><g id="g6558"><path id="path6560" class="cls-15" d="M185,383.43a2.35,2.35,0,1,1,2.34,2.26A2.3,2.3,0,0,1,185,383.43Z"/><path id="path6562" class="cls-15" d="M196.55,391.54a2.34,2.34,0,1,1,2.34,2.27A2.31,2.31,0,0,1,196.55,391.54Z"/><path id="path6564" class="cls-15" d="M193,388.56a2.34,2.34,0,1,1,2.34,2.26A2.3,2.3,0,0,1,193,388.56Z"/><path id="path6566" class="cls-15" d="M189,386.13a2.34,2.34,0,1,1,2.34,2.26A2.3,2.3,0,0,1,189,386.13Z"/><path id="path6568" class="cls-15" d="M181,381.06a2.34,2.34,0,1,1,2.34,2.26A2.3,2.3,0,0,1,181,381.06Z"/><path id="path6570" class="cls-15" d="M176.19,379.51a2.34,2.34,0,1,1,2.34,2.26A2.3,2.3,0,0,1,176.19,379.51Z"/><path id="path6572" class="cls-15" d="M171.4,378.52a2.34,2.34,0,1,1,2.34,2.26A2.3,2.3,0,0,1,171.4,378.52Z"/><path id="path6574" class="cls-15" d="M166.39,378a2.34,2.34,0,1,1,2.34,2.27A2.3,2.3,0,0,1,166.39,378Z"/><path id="path6576" class="cls-15" d="M161.82,379.29a2.34,2.34,0,1,1,2.34,2.27A2.3,2.3,0,0,1,161.82,379.29Z"/><path id="path6578" class="cls-15" d="M157.9,381.94a2.34,2.34,0,1,1,2.34,2.26A2.3,2.3,0,0,1,157.9,381.94Z"/><path id="path6580" class="cls-15" d="M154.63,385.37a2.34,2.34,0,1,1,2.34,2.26A2.3,2.3,0,0,1,154.63,385.37Z"/></g><g id="g6582"><g id="g6584"><path id="path6586" class="cls-16" d="M163.52,354.35l2.84-.43V343.73l-2.84.43Z"/><path id="path6588" class="cls-17" d="M168.83,348.58c0-1-1.74-1.82-3.88-1.82s-3.89.81-3.89,1.82h0c0,1,1.73,1.82,3.88,1.82s3.89-.81,3.89-1.82Z"/></g><g id="g6590"><path id="path6592" class="cls-15" d="M181.91,367.53a2.34,2.34,0,1,1,2.21,2.39A2.29,2.29,0,0,1,181.91,367.53Z"/><path id="path6594" class="cls-15" d="M192.42,377.16a2.34,2.34,0,1,1,2.22,2.38A2.31,2.31,0,0,1,192.42,377.16Z"/><path id="path6596" class="cls-15" d="M189.23,373.88a2.34,2.34,0,1,1,2.22,2.39A2.3,2.3,0,0,1,189.23,373.88Z"/><path id="path6598" class="cls-15" d="M185.84,370.46a2.34,2.34,0,1,1,2.22,2.38A2.31,2.31,0,0,1,185.84,370.46Z"/><path id="path6600" class="cls-15" d="M178.07,365a2.34,2.34,0,1,1,2.21,2.39A2.29,2.29,0,0,1,178.07,365Z"/><path id="path6602" class="cls-15" d="M173.36,363.16a2.34,2.34,0,1,1,2.22,2.38A2.3,2.3,0,0,1,173.36,363.16Z"/><path id="path6604" class="cls-15" d="M168.63,361.9a2.34,2.34,0,1,1,2.22,2.39A2.31,2.31,0,0,1,168.63,361.9Z"/><path id="path6606" class="cls-15" d="M163.66,361.08a2.34,2.34,0,1,1,2.22,2.38A2.32,2.32,0,0,1,163.66,361.08Z"/><path id="path6608" class="cls-15" d="M159,362.16a2.34,2.34,0,1,1,2.22,2.39A2.3,2.3,0,0,1,159,362.16Z"/><path id="path6610" class="cls-15" d="M155,364.6a2.34,2.34,0,1,1,2.22,2.38A2.3,2.3,0,0,1,155,364.6Z"/><path id="path6612" class="cls-15" d="M151.53,367.84a2.34,2.34,0,1,1,2.21,2.38A2.29,2.29,0,0,1,151.53,367.84Z"/><path id="path6614" class="cls-15" d="M195.09,381a2.34,2.34,0,1,1,2.22,2.39A2.31,2.31,0,0,1,195.09,381Z"/><path id="path6616" class="cls-15" d="M149.36,372a2.34,2.34,0,1,1,2.22,2.38A2.3,2.3,0,0,1,149.36,372Z"/><path id="path6618" class="cls-15" d="M147.72,376.5a2.34,2.34,0,1,1,2.21,2.38A2.3,2.3,0,0,1,147.72,376.5Z"/><path id="path6620" class="cls-15" d="M147.22,381.39a2.34,2.34,0,1,1,2.22,2.38A2.3,2.3,0,0,1,147.22,381.39Z"/></g><g id="g6622"><g id="g6624"><path id="path6626" class="cls-18" d="M178.16,354.72l-2.94-.48V343.83l2.94.48Z"/><path id="path6628" class="cls-19" d="M172.85,348.61c0-1.08,1.74-1.95,3.88-1.95s3.89.87,3.89,1.94h0c0,1.07-1.73,1.94-3.88,1.94s-3.89-.87-3.89-1.94Z"/></g><g id="g6630"><path id="path6632" class="cls-20" d="M151.05,355.68l2.84-.44v-10l-2.84.44Z"/><path id="path6634" class="cls-5" d="M156.36,350c0-1-1.74-1.85-3.88-1.85s-3.89.83-3.89,1.84h0c0,1,1.73,1.84,3.88,1.84s3.89-.83,3.89-1.84Z"/></g></g><g id="g6636"><path id="path6638" class="cls-15" d="M179.41,356.78a2.34,2.34,0,1,1,2.22,2.39A2.3,2.3,0,0,1,179.41,356.78Z"/><path id="path6640" class="cls-15" d="M190.76,366.07a2.34,2.34,0,0,1,4.67.25,2.34,2.34,0,0,1-4.67-.25Z"/><path id="path6642" class="cls-15" d="M187.07,362.63a2.34,2.34,0,1,1,2.22,2.39A2.3,2.3,0,0,1,187.07,362.63Z"/><path id="path6644" class="cls-15" d="M183.35,359.7a2.34,2.34,0,1,1,2.22,2.39A2.3,2.3,0,0,1,183.35,359.7Z"/><path id="path6646" class="cls-15" d="M175.58,354.2a2.34,2.34,0,0,1,4.67.25,2.34,2.34,0,0,1-4.67-.25Z"/><path id="path6648" class="cls-15" d="M170.87,352.4a2.34,2.34,0,1,1,2.22,2.39A2.3,2.3,0,0,1,170.87,352.4Z"/><path id="path6650" class="cls-15" d="M166.14,351.15a2.34,2.34,0,1,1,2.22,2.39A2.3,2.3,0,0,1,166.14,351.15Z"/><path id="path6652" class="cls-15" d="M161.17,350.32a2.34,2.34,0,1,1,2.22,2.39A2.3,2.3,0,0,1,161.17,350.32Z"/><path id="path6654" class="cls-15" d="M156.53,351.41a2.34,2.34,0,1,1,2.22,2.39A2.3,2.3,0,0,1,156.53,351.41Z"/><path id="path6656" class="cls-15" d="M152.48,353.85a2.34,2.34,0,1,1,2.22,2.39A2.3,2.3,0,0,1,152.48,353.85Z"/><path id="path6658" class="cls-15" d="M194.09,369.94a2.34,2.34,0,0,1,4.67.25,2.34,2.34,0,0,1-4.67-.25Z"/><path id="path6660" class="cls-15" d="M145.71,360.78a2.34,2.34,0,1,1,2.22,2.39A2.3,2.3,0,0,1,145.71,360.78Z"/><path id="path6662" class="cls-15" d="M149,357.09a2.34,2.34,0,1,1,2.22,2.39A2.3,2.3,0,0,1,149,357.09Z"/><path id="path6664" class="cls-15" d="M143.24,365.25a2.34,2.34,0,1,1,2.22,2.39A2.3,2.3,0,0,1,143.24,365.25Z"/><path id="path6666" class="cls-15" d="M141.75,370a2.34,2.34,0,1,1,2.22,2.39A2.3,2.3,0,0,1,141.75,370Z"/><path id="path6668" class="cls-15" d="M140.66,374.55a2.34,2.34,0,1,1,2.22,2.39A2.3,2.3,0,0,1,140.66,374.55Z"/><path id="path6670" class="cls-15" d="M139.67,379.5a2.34,2.34,0,1,1,2.22,2.39A2.3,2.3,0,0,1,139.67,379.5Z"/><path id="path6672" class="cls-15" d="M197.17,373.89a2.34,2.34,0,0,1,4.67.25,2.34,2.34,0,0,1-4.67-.25Z"/><path id="path6674" class="cls-15" d="M199.81,378.18a2.34,2.34,0,1,1,2.22,2.39A2.3,2.3,0,0,1,199.81,378.18Z"/></g><g id="g6676"><path id="path6678" class="cls-8" d="M166,509.48c7.6-1.6,14.26-6.06,20.18-10.89,7.75-6.32,14.8-14.06,19.27-23,3.54-7.07,3.49-15.42,5.43-23.08q2.13-8.46,4.56-16.83c2.06-7.1,3.37-14.48,6.56-21.19"/><path id="path6680" class="cls-8" d="M221.68,448.55c-2.77,5.38-4.16,8.93-6.93,12.43"/><path id="path6682" class="cls-8" d="M219.75,442.48a102.68,102.68,0,0,1,7.74-22.5,138.6,138.6,0,0,1,16.26-25.25"/><path id="path6684" class="cls-8" d="M241.5,407.73c5.2-8.37,9.85-17.15,15.81-25,.88-1.16,2-2.17,2.94-3.25"/><path id="path6686" class="cls-8" d="M223.75,395.48c-.16-9,8.44-13.68,13-20.26,1.25-1.8,3.49-3,4-5.24"/><path id="path6688" class="cls-8" d="M297,375c-7.15,4.81-16.73,3.81-24.36,1-2-.72-3.08-2.85-4.64-4.26"/><path id="path6690" class="cls-8" d="M264.5,358.73c4.17,5.54,10,10.27,16.6,12.31,3.27,1,6.92.38,10.25-.39a26.11,26.11,0,0,0,8.95-4c5.59-3.91,10.08-9.3,14.24-14.71a77.32,77.32,0,0,0,10.17-16.9c2.58-6.13,3.78-12.78,5-19.32.14-.75.19-1.51.28-2.26"/></g></g><path id="path6692" class="cls-6" d="M287.5,371.23a8,8,0,0,1-6.64-1.92,11.47,11.47,0,0,1-2.92-4.77,30.84,30.84,0,0,1-1.44-7.75,61.06,61.06,0,0,1,.35-12.75c1-7.47,3.36-14.69,6.06-21.73a130,130,0,0,1,6-13.62,155.07,155.07,0,0,1,9.81-15.8,141.33,141.33,0,0,1,9.68-12.9,35.78,35.78,0,0,1,6.89-6.41,23,23,0,0,1,6.7-3.1"/><g id="g6694"><g id="g6696"><path id="path6698" class="cls-5" d="M316,270.48a25.28,25.28,0,0,0-6.46,3.25c-5,3.51-8.58,8.69-12,13.81-3.91,5.93-7.73,11.92-11.13,18.16a119.25,119.25,0,0,0-5.65,11.73,122.54,122.54,0,0,0-6.57,22c-1.26,6.08-2.17,12.33-1.42,18.49a21.55,21.55,0,0,0,3.14,9.39,15.49,15.49,0,0,0,2.79,3.15l-6.88-4.19a17.34,17.34,0,0,1-4.64-8.25,31.48,31.48,0,0,1-.67-6.51,94.74,94.74,0,0,1,.33-12.72,82.87,82.87,0,0,1,3.53-16,134.61,134.61,0,0,1,8-19.73c2.71-5.41,5.77-10.63,8.95-15.77,2.76-4.46,5.66-8.92,9.52-12.47a31.2,31.2,0,0,1,6.05-4.36h13"/><path id="path6700" class="cls-21" d="M288.75,358.73a47.46,47.46,0,0,1,.5-9.75c.4-2.31,1.51-4.77,2-6.75-.9-1.42-3.64.25-5-.75a5.13,5.13,0,0,1-1.57-3.28,7.59,7.59,0,0,1,.4-4.32c.69-1.58,2.28-2.6,3.46-3.88a38.81,38.81,0,0,0,3.31-3.48,49.83,49.83,0,0,0,5.21-9.71c.7-1.64.87-2.76,1.69-5.08,2,3.37,1.85,5,2.51,7.62.37,1.45-.65,4.07.81,4.41a45.08,45.08,0,0,0,3.41-6.38,39.46,39.46,0,0,0,3.27-10.52,38.87,38.87,0,0,0-.33-11.79c-.28-1.7-1.59-3.2-1.54-4.91a4.32,4.32,0,0,1,1.05-2.79,7.24,7.24,0,0,1,3.54-1.57,17.84,17.84,0,0,1,5.4-.53,17.27,17.27,0,0,1,5.69,1.15,15,15,0,0,1,5.29,3.48,8.44,8.44,0,0,1,2,3.61,4.65,4.65,0,0,1-.09,3.23c-.64,1.17-2.22,1.48-3.3,2.26a38.56,38.56,0,0,0-4.05,3.12,46.73,46.73,0,0,0-6.34,7.49,71.47,71.47,0,0,0-4,7.47c-.74,1.44-1.57,2.85-2.17,4.36S308.5,326,308.5,326c2.86-3.18,5.47-5.5,8.58-5.55,1.7,0-3.13,5.46-3.81,8.48-.52,2.27-.08,4.65-.18,7-.11,2.5.57,5.21-.45,7.5a6.4,6.4,0,0,1-3.56,3.62,2.78,2.78,0,0,1-2.15-.45c-1.38-.85-2.62-4.06-2.62-4.06a51.14,51.14,0,0,1-2.58,9,12.32,12.32,0,0,1-2,2.77,52.89,52.89,0,0,1-7.1,6.17c-1.08.83-2.53,2.78-3.39,2.28-.71-.42-.45-2.66-.5-4Z"/></g><g id="g6702"><g id="g6704"><path id="path6706" class="cls-8" d="M302.13,334.48a26.84,26.84,0,0,1-1.43,5.36,55.85,55.85,0,0,1-3.56,7.19c-1,1.85-2.06,3.7-3.15,5.52-.76,1.27-1.56,2.52-2.43,3.71a17.56,17.56,0,0,1-1.81,2.13,12.94,12.94,0,0,1-1,.84"/><path id="path6708" class="cls-8" d="M291.25,342.1a36.55,36.55,0,0,1,3-5c.67-.95,1.39-1.86,2.15-2.74"/></g><path id="path6710" class="cls-3" d="M130.09,404.45l4.6-6-1.07-7.78-3.88-5.3-2.48-10.61-5.66-1.41-3.89-1.77-4.59-2.12-4.6-3.18-5.3-5.84a85.59,85.59,0,0,1-8.81-13.25c-2.74-5.06-5.2-10.21-7.1-14.32-1.07,1.76-.07,4.07.18,5.12,1,4.26,6.18,13.44,6.18,13.44l6,9.19,7.43,8.13,3.89,6,4.59,7.07,5.66,12,4.6,10.26,3.53,13.78Z"/><path id="path6712" class="cls-8" d="M133.62,399.14c-1.91-1.75-4.19-3.15-5.83-5.17a12.27,12.27,0,0,1-2.3-4c-.46-1.48.15-3.19-.38-4.65-.6-1.61-2-2.83-3-4.19-1.16-1.51-2.86-2.67-3.63-4.41-.7-1.58-.47-3.43-.76-5.13"/><g id="g6714"><path id="path6716" class="cls-22" d="M199.3,358.5l-2.73-.64,1.79-10.94,2.73.65Z"/><path id="path6718" class="cls-17" d="M194.93,352.84c.16-1,2-1.72,4.13-1.58s3.71,1.06,3.55,2.07h0c-.17,1-2,1.71-4.14,1.58s-3.7-1.06-3.54-2.07Z"/></g><path id="path6720" class="cls-8" d="M237.73,361.91c-4.44-2.32-8.49-5-13-6.92a137.17,137.17,0,0,0-18.87-6.35,149.09,149.09,0,0,0-19.4-3.91,110.61,110.61,0,0,0-15.75-.92A145.09,145.09,0,0,0,152,345.45c-8.39,1.23-16.83,2.61-24.93,5.13a71.86,71.86,0,0,0-13.29,5.61,43.56,43.56,0,0,0-3.65,2.5"/><g id="g6722"><path id="path6724" class="cls-23" d="M210.5,361.33l-2.7-1L210,349.75l2.69,1Z"/><path id="path6726" class="cls-24" d="M206.37,355.1c.2-1,2.07-1.4,4.17-1s3.64,1.58,3.44,2.55h0c-.2,1-2.07,1.41-4.17,1s-3.64-1.58-3.44-2.55Z"/></g><g id="g6728"><g id="g6730"><path id="path6732" class="cls-23" d="M188.77,356.19l-2.77-.78,1.23-10.71,2.77.78Z"/><path id="path6734" class="cls-24" d="M184.09,350.37c.12-1,1.93-1.59,4.07-1.35s3.77,1.25,3.66,2.23h0c-.12,1-1.94,1.58-4.07,1.34s-3.77-1.24-3.66-2.23Z"/></g><g id="g6736"><path id="path6738" class="cls-25" d="M139.88,357.36l2.77-.67-.9-9.49-2.77.67Z"/><path id="path6740" class="cls-26" d="M144.72,351.53c-.09-1-1.89-1.56-4-1.34s-3.81,1.17-3.72,2.12h0c.08,1,1.88,1.56,4,1.34s3.8-1.17,3.72-2.12Z"/></g><g id="g6742"><path id="path6744" class="cls-27" d="M128.3,360l3-.87L130,349.91l-3,.87Z"/><path id="path6746" class="cls-28" d="M132.89,354.21c-.13-.93-1.95-1.43-4.08-1.11s-3.74,1.35-3.62,2.28h0c.13.94,2,1.43,4.08,1.11s3.74-1.35,3.62-2.28Z"/></g><g id="g6748"><path id="path6750" class="cls-29" d="M119.1,363.77l2.58-1.1-2.8-8.87-2.59,1.1Z"/><path id="path6752" class="cls-30" d="M122.76,357.76c-.25-.86-2.13-1.06-4.19-.46s-3.52,1.78-3.27,2.64h0c.25.86,2.12,1.06,4.18.46s3.53-1.78,3.28-2.64Z"/></g><g id="g6754"><path id="path6756" class="cls-23" d="M220.36,364.21l-2.72-1,2-9.78,2.72,1Z"/><path id="path6758" class="cls-24" d="M216.23,358c.2-1,2.07-1.4,4.17-1s3.64,1.58,3.44,2.55h0c-.2,1-2.07,1.41-4.17,1S216,359,216.23,358Z"/></g><g id="g6760"><path id="path6762" class="cls-31" d="M229.25,367.64l-2.56-1.2L230,357.8l2.56,1.21Z"/><path id="path6764" class="cls-32" d="M225.82,361.87c.3-.79,2.2-.93,4.24-.3s3.44,1.79,3.14,2.59h0c-.3.8-2.2.93-4.24.3s-3.45-1.79-3.14-2.59Z"/></g></g><path id="path6766" class="cls-33" d="M295.9,270.48h-55c1.46,1.34,3.32,2.42,4.27,4.17.41.75,0,1.82.5,2.52.69,1,2.14,1.07,3.06,1.81a19.69,19.69,0,0,1,3.24,3.4,29.1,29.1,0,0,1,3,4.78c.73,1.5,1,3.19,1.73,4.68a9.74,9.74,0,0,0,2,3.24c.84.73,2.34.5,3,1.35.91,1.1.3,2.92,1,4.16.86,1.54,2.76,2.27,3.77,3.72a25,25,0,0,1,2.34,5.19c.45,1.11.79,2.25,1.2,3.37,1.86-4.49,3.65-9,5.76-13.39a120.88,120.88,0,0,1,5.87-10.94,95.13,95.13,0,0,1,6.57-9.35c1.89-2.38,4.15-4.45,6.1-6.77a12.31,12.31,0,0,0,1.51-1.94Z"/></g></g><g id="g6768"><path id="path6770" class="cls-34" d="M240.22,360.07s-5.41-2.73-8.13-4.07c-2.94-1.43-5.85-2.91-8.84-4.24-2.27-1-4.54-2.05-6.9-2.83-4-1.34-8.22-2.21-12.37-3.18-3-.71-6.11-1.39-9.19-1.94-4-.72-12-1.77-12-1.77s-1.7-15.47-2.83-23.16c-.7-4.79-1.54-9.57-2.47-14.32q-1-5.24-2.3-10.43c-.87-3.56-1.84-7.09-2.83-10.61-1.23-4.37-3.89-13-3.89-13h11.67s3.43,13.18,5.12,19.77c1.79,6.95,3.7,13.87,5.31,20.86,1.11,4.86,2,9.77,3,14.67.68,3.43,2,10.31,2,10.31s8.15,2.22,12.17,3.48,8,2.56,11.84,4.07c2.93,1.12,5.79,2.45,8.67,3.71,2.54,1.1,5.1,2.16,7.6,3.36,2,.94,3.84,2.09,5.83,3,1.73.79,5.3,2.12,5.3,2.12Z"/><path id="path6772" class="cls-34" d="M109.12,355.57c4-1.93,8-4.09,12.15-5.78a100.13,100.13,0,0,1,10.39-3.55c2.79-.78,5.63-1.38,8.47-1.91,2.22-.42,6.69-1,6.69-1s-1.6-14.94-1.43-22.42A94.51,94.51,0,0,1,147,306.29c.62-3.37,1.66-6.66,2.55-10,1.15-4.21,2.44-8.39,3.61-12.6,1.22-4.41,3.59-13.24,3.59-13.24H146.42s-3.42,10.76-4.83,16.22c-1.58,6.11-2.81,12.3-4.07,18.48-1,4.71-2.27,9.37-2.66,14.16-.54,6.56.42,19.75.42,19.75-6.36,2.44-7.18,2.25-10.72,3.49-3.36,1.18-6.71,2.37-10,3.77-2.79,1.2-5.55,3-8.2,4Z"/></g><g id="g6774"><path id="path6776" class="cls-35" d="M148.58,322.5c-.37-10.16,5.66-18.63,13.46-18.91s14.43,7.72,14.8,17.89-5.65,18.63-13.46,18.91S149,332.67,148.58,322.5Z"/><path id="path6778" class="cls-36" d="M152,322.38c-.31-8.4,4.34-15.4,10.39-15.62s11.21,6.4,11.52,14.8v0c.31,8.41-4.35,15.4-10.4,15.63S152.32,330.8,152,322.4Z"/><path id="path6780" class="cls-37" d="M163.46,332.34a2.05,2.05,0,0,0,1.72-1,3.3,3.3,0,0,0,.66-2.25,3.54,3.54,0,0,0-.83-2.18,6.14,6.14,0,0,1-1.64-4.06l0-.95.5,0a3.41,3.41,0,0,1,1.78.88l.79.93a2.09,2.09,0,0,0,3.5-.13,3.32,3.32,0,0,0,.67-2.24,3.27,3.27,0,0,0-.84-2.19,2.08,2.08,0,0,0-1.78-.89,2.06,2.06,0,0,0-1.71,1l-.72,1a3.38,3.38,0,0,1-1.71,1h-.5a17.93,17.93,0,0,1,.13-3.17,7.38,7.38,0,0,1,1.16-2.58,21.59,21.59,0,0,1,1.93-2v-.32a30.25,30.25,0,0,1-3,.75L162,314a29.53,29.53,0,0,1-3-.52v.31a21.57,21.57,0,0,1,2.07,1.83,7.3,7.3,0,0,1,1.34,2.49,18.4,18.4,0,0,1,.37,3.15l-.5,0a3.35,3.35,0,0,1-1.78-.89l-.79-.92a2.09,2.09,0,0,0-3.5.13,3.32,3.32,0,0,0-.67,2.24,3.27,3.27,0,0,0,.84,2.19,2.1,2.1,0,0,0,1.78.89,2.08,2.08,0,0,0,1.71-1l.72-1a3.38,3.38,0,0,1,1.71-1h.5l0,.94a9.05,9.05,0,0,1-.41,2.55,5.66,5.66,0,0,1-.94,1.62,3.65,3.65,0,0,0,.16,4.43A2.06,2.06,0,0,0,163.46,332.34Z"/></g><g id="g6782"><path id="path6784" class="cls-7" d="M249.23,356.36s-4.26-4.82-5.3-7.78c-1-2.79.28-6.05-.71-8.84-.76-2.15-2.79-3.64-3.89-5.65a50.06,50.06,0,0,1-3.54-8.49c-.52-1.63-.28-3.53-1.14-5s-3-2.33-4.16-3.83c-1.86-2.42-2.35-5.72-4.24-8.13-2.42-3.09-6.29-4.8-8.84-7.78-1-1.16-1.3-2.9-2.48-3.89-3.32-2.78-8.63-2.24-12-4.95-1.12-.9-1.47-2.5-2.47-3.53-2.57-2.67-6.05-4.29-8.84-6.72-1.51-1.31-2.57-3.14-4.24-4.24a20.6,20.6,0,0,0-3.54-1.42c-.83-.34-2.47-1.06-2.47-1.06s2.34,9.43,3.53,14.14c1.57,6.19,3.33,12.34,4.78,18.56,1.64,7.1,2.8,14.3,4.41,21.39.55,2.37,1.77,7.07,1.77,7.07s9.84,2.65,14.67,4.25c5.44,1.79,10.81,3.81,16.09,6,3,1.24,5.94,2.62,8.84,4.06,2.46,1.22,4.72,2.85,7.25,3.89a62.38,62.38,0,0,0,6.54,1.95Z"/><path id="path6786" class="cls-38" d="M135.21,339c-.42-6.55-1-13.16-.4-19.7,1-11.25,4.16-22.21,6.76-33.2,1-4.38,2.38-8.69,3.54-13-4.42,2.7-7.1,7.76-11.88,9.93-4.39,2-4.6,8.36-9.66,10.76-5.62,2.66-4.86,9.73-10.28,15.55-3,3.24-2.81,9.06-5.24,12.22-2.84,3.67-.19,10-3.11,13.56-2.48,3.05-.06,6.87.16,10.27q.56,2.57,1.12,5.13A169.69,169.69,0,0,1,126.34,342c2.91-1.1,5.91-1.95,8.87-2.93Z"/></g><g id="g6788"><path id="path6790" class="cls-39" d="M162.25,341.37a2.14,2.14,0,1,1,2.13,1.87A2,2,0,0,1,162.25,341.37Z"/><path id="path6792" class="cls-33" d="M88.25,334.48a74.3,74.3,0,0,1,.83-7.59c.37-2.32.17-4.92,1.42-6.91.73-1.16,2.67-1.27,3.25-2.5,1.14-2.41-1.09-5.47-.25-8,.73-2.18,3.17-3.39,4.3-5.4,2.22-4,1.74-9.34,4.65-12.85a6,6,0,0,1,2.34-1.37c1.19-.52,2.87-.15,3.71-1.13,1-1.18-.1-3.23.61-4.6,1.18-2.26,4.32-3,5.64-5.15,1.52-2.51,1.5-5.75,2.25-8.5-9.83.08-19.67-.08-29.5,0-.53,2.73-.77,5.86-1.5,8.72-1.1,4.34-3.18,8.4-4.33,12.73-1.08,4.05-1.41,8.27-2.4,12.35-.42,1.76-2,3.47-1.52,5.21.19.66,1,.92,1.52,1.39A10.79,10.79,0,0,1,81,312.63,19.92,19.92,0,0,1,83,317.81c1.14,3.87,1.2,8,2.62,11.8.65,1.73,2,3.1,2.67,4.87Z"/></g><path id="path6794" class="cls-38" d="M87.48,270.48c-.92,4.22-1.67,8.27-2.82,12.43a58.79,58.79,0,0,0-2.47,7.54c-1.13,3.73-1.52,7.63-2.48,11.41-.34,2.13-1.4,4.05-2.13,6.07A20.5,20.5,0,0,0,73,306c-1.81-.51-3.53-1.34-5.34-1.81l-5.24-.34c-1.62.39-3.56,1.64-5.13,1.06-1.19-.33-3.13.71-3.94,1.82-.41.47-.85,1.49-1.24,1.61a58,58,0,0,1-3.72-7.59c-.75-2-1.83-3.87-2.07-6-.6-3.24-1.35-6.48-1.78-9.75-.23-4.9-.49-9.6-.51-14.52Z"/><path id="path6796" class="cls-1" d="M77.05,307.57c1.68,2.28.81,5.66.52,8.48-.25,2.5.08,5.83-2,7.27-.82.56-2,.05-3-.27-1.59-.55-2.66-2.16-4.23-2.75a16,16,0,0,0-6.33-.94c-2.55.2-3.52.87-5.34,2.35-1,.83-2.31,3.23-3.79,2.74s-1.22-2.86-1.37-4.38c-.25-2.66,1.08-5.28.93-7.94-.08-1.23-1.25-2.44-.85-3.6s1.91-1.92,3.12-2.49c1.48-.7,3.2-.69,4.81-1,1.84-.37,3.65-1.11,5.52-1,2.59.08,5.07,1.15,7.55,1.93,1.5.47,3.48.4,4.41,1.67Z"/><g id="g6798"><path id="path6800" class="cls-40" d="M89.63,408.48a64,64,0,0,1,.78-7.44,38.84,38.84,0,0,1,.29-5.32c-.28-2.59.2-4.08-.6-6.57a50.77,50.77,0,0,0-1.77-4.93l-3.2-4.74L82.5,382a20,20,0,0,1,3.11,4.37,20.92,20.92,0,0,1,1.81,4.9c.2,1.75.64,3.52.25,5.27a33.29,33.29,0,0,0-.07,5.65c.05,1.13-1.29,3-.9,4l2.93,2.34Z"/><path id="path6802" class="cls-40" d="M89.5,394.4a16.67,16.67,0,0,0,4.16,4.46,9.86,9.86,0,0,0,2.87,1.81,20.59,20.59,0,0,0,4.77.62c1.7.18,3.39.42,5.1.46a27.79,27.79,0,0,1,3.53-.15,15.88,15.88,0,0,1,5.5,1.91,9.78,9.78,0,0,1,1.5,1.24L119,406.6c.32-.45-.13-.93-.27-1.38a20.78,20.78,0,0,0-1.46-3.59,17,17,0,0,0-2.58-4.08,12.78,12.78,0,0,0-3.5-2.43,18,18,0,0,0-3.46-1.21c-2.6-.71-5.28-1-7.91-1.6-1.6-.36-3.16-.92-4.78-1.17-1.91-.29-3.89.05-5.78-.37-.3-.07-1-.85-.88-.36a18.08,18.08,0,0,0,1.1,4Z"/><path id="path6804" class="cls-40" d="M89.52,387.16a12.93,12.93,0,0,1,3.75-3A8.36,8.36,0,0,1,95.75,383a17.53,17.53,0,0,1,3.9,0c1.38,0,2.77,0,4.14.14a27.34,27.34,0,0,0,2.83.46,13.73,13.73,0,0,0,4.6-.94,9,9,0,0,0,1.32-.81l1.85-1.22c.22.38-.19.7-.34,1a15.49,15.49,0,0,1-1.51,2.62,13,13,0,0,1-2.45,2.88,10.35,10.35,0,0,1-3,1.53,15,15,0,0,1-2.89.59c-2.16.3-4.35.28-6.51.47-1.32.12-2.63.4-4,.44-1.57,0-3.13-.42-4.69-.27-.25,0-.91.55-.74.19a13.43,13.43,0,0,1,1.25-3Z"/></g><g id="g6806"><path id="path6808" class="cls-4" d="M73.87,323.48c.24,5-.12,10,.48,15a23.67,23.67,0,0,0,1.2,5.67,15.36,15.36,0,0,0,2.27,4c1.5,1.92,4,3,5.3,5.05,1.86,3,2,6.8,3.09,10.16S89,370,89.82,373.48c1,2.94,2.79,5.5,4.29,8.17,1.4,1,2.25,1.7,3.45,2.46a1.69,1.69,0,0,1-1.39,2.29,2.28,2.28,0,0,1-2.89.14c-1.94-.88-4.17-1.31-5.64-3a10.25,10.25,0,0,1-3.16-4.05c-.7,1.72-2.52,2.47-3.86,3.62-1.32.78-5.62,3.35-6.93,4.16,1-.38,4.16-1.45,5.13-.89,1.06.28,2.45-.45,3.36.18,2.1-.49,4.85-1.51,7-.61,1,.22,1.07,2,.14,2.44-1.14,1.15-2.32,1.19-3.89,1.7a5.36,5.36,0,0,1-3.85,1.13c-.83.49-4.28.49-4.85-.26-1.75-.34-1.46-1.25-2.78-2.1-.83-1.08.55-2.78-.7-1.78a5.8,5.8,0,0,1-4.24.12c-.87-.36-2.1-1.11-1.86-2.21-.29-1,.78-2.27.54-2.82-1.78.44-4,.69-5.28-1-1-.63-1.2-1.92-1.39-2.95-.29-.86,2-2.47.52-2a7.7,7.7,0,0,1-4.28.53c-1.32-1.3-1.8-3.06-2.33-4.77a62.19,62.19,0,0,1-1-11.31,39.45,39.45,0,0,1,.51-7c.49-2.88,2-5.55,2.33-8.44a21.84,21.84,0,0,0-.07-4.78c-.3-3.21-1.56-6.29-1.66-9.55-.15-2.22-.43-4.42-.77-6.62,1-1.09,1.68-2.6,2.93-3.42a29.34,29.34,0,0,1,3.43-1.68c3.55.45,7.33.6,10.5,2.4.88.66,1.84,1.22,2.76,1.82Z"/><g id="g6810"><path id="path6812" class="cls-8" d="M96.5,385.7c-1.27-1.3-3.71-2-4-3.84-.07-.42.45-.72.62-1.11"/><path id="path6814" class="cls-8" d="M89.07,388.71c-1.37,1-4.68.88-5.16-.8-.29-1,1.67-1.64,2.33-2"/><path id="path6816" class="cls-8" d="M84.66,379.87c.74-1.37,3-2.05,2.88-3.58a3.47,3.47,0,0,0-2.81-2.88c-2.29-.32-4,2.31-6,3.47-1.54.9-3,1.9-4.62,2.72-2,1-4.31,1.53-6.24,2.74"/><path id="path6818" class="cls-8" d="M79,376.87c1.1-1.49,3.91-2.12,3.84-3.95,0-1.16-1.51-2-2.62-2.29-1.56-.43-3.25.34-4.79.84-1.93.63-3.59,1.91-5.47,2.67a35,35,0,0,1-7.34,2.38,5,5,0,0,1-.77,0"/><path id="path6820" class="cls-8" d="M61.5,376.34a58.18,58.18,0,0,0,7.83-6.23c.44-.45,1.23-.87,1.16-1.49-.15-1.31-1.76-2.23-3-2.5-1.54-.34-3.13.55-4.55,1.21a18.39,18.39,0,0,0-5,3.41,10.49,10.49,0,0,0-1.84,2.45,7.06,7.06,0,0,0-.39,1"/><path id="path6822" class="cls-8" d="M86.34,378.28c-1.21.47-3,1.4-4.35.72-.85,0-.89-.81-1.15-1.43-.48-.66,0-1.27.34-1.89,0-.07.95-1,1-1.1"/><path id="path6824" class="cls-8" d="M76.54,371c-.47.65-2.09,1.66-1.79,2.69.45,1.53,2.66,2.35,4.38,1.91.37,0,.74-.08,1.1-.14"/><path id="path6826" class="cls-8" d="M65.21,366.26c-.71.88-2.47,1.58-2.12,2.65.61,1.88,4,2.68,5.73,1.54"/></g><path id="path6828" class="cls-41" d="M95.64,423.87c2.26,1.14,4.56,2.38,5.74,3.67s1.46,2.78,2,4.22c.31.78.68,2.34-.21,2.45-3.13.39-6.35-.32-9.4-1.08a4.37,4.37,0,0,1-3.08-2.64c-.24-.64-2.76-2.36-2.29-1.84,2,2.21,2.33,3.86,1.84,5.71-.42,1.62-2.44,2.5-3.49,3.83-.47.59-.49,2-1.46.82-1.25-1.59-3.44-2.12-5-3.35a5.09,5.09,0,0,1-1.78-4.53c0-.59,1.5-3.56.92-2.11-.83,2.05-4.23,4.74-6.66,4.58a23,23,0,0,1-5.94-1.15c-2.19-.74.51-3.53.51-4.94,0-2.08,2.52-3.08,6.91-4.28-3.24.41-4.65-1.42-4.65-1.42-1.31-.57-1.35-2.39-1.36-3.72a13.9,13.9,0,0,1,.79-4.51c.41-1.26-.16-3.06,1.92-2.48,1.87.52,3.4,2.07,5.34,2.42s5.25,6.44,1.46.79a3.44,3.44,0,0,1,1.29-4.77c2-1.18,3.39-3.12,5.44-4.24,1.33-.72,2.57,1.87,3.78,2.67,1.55,1,2.91,2.45,3,4.36.07,1-1.56,4.4-1.47,4.27,1.22-1.63,4-4.46,6.26-4.49a17.62,17.62,0,0,1,5.46.54c1.4.44,2.79.62,2.1,2.38-.83,2.13-.9,4.66-2.5,6.41-1.12,1.24-3.43,2.73-5.54,2.43Z"/><path id="path6830" class="cls-42" d="M78.18,423.94c-.28-1.94,2.51-4.05,6.24-4.71s7,.37,7.26,2.31h0c.29,1.94-2.5,4-6.23,4.71s-7-.37-7.27-2.31Z"/></g><g id="g6832"><path id="path6834" class="cls-40" d="M88,394.23a17,17,0,0,1-2.67,5.68,10.7,10.7,0,0,1-2.27,2.73,23.11,23.11,0,0,1-4.59,2.28c-1.63.78-3.25,1.61-4.94,2.25a33.19,33.19,0,0,0-3.59,1.11A17.47,17.47,0,0,0,65.07,412a10.7,10.7,0,0,0-1.09,1.7c-.5.83-1,1.66-1.48,2.49-.47-.31-.17-.93-.19-1.4a21.25,21.25,0,0,1,.26-3.9,16.77,16.77,0,0,1,1.23-4.76,13.43,13.43,0,0,1,2.69-3.54,19.55,19.55,0,0,1,3.06-2.37c2.37-1.6,5-2.83,7.39-4.32,1.48-.91,2.86-2,4.4-2.8,1.81-1,3.91-1.33,5.66-2.41.28-.17.76-1.16.76-.65a17.12,17.12,0,0,1,.24,4.15Z"/><path id="path6836" class="cls-40" d="M77.41,370.33,66.8,357.78l-6-7.43L52,337.63l-3.71-5.48L46.65,332l-1.41,6,10.08,12.73,9.37,10.78,9.72,10.43Z"/><path id="path6838" class="cls-40" d="M57.15,351.57a23.07,23.07,0,0,1,1.64,7.09,15,15,0,0,1,.05,4.12,28.75,28.75,0,0,1-2,5.37c-.73,1.89-1.41,3.81-2.26,5.61a36.93,36.93,0,0,0-2,3.6,23.2,23.2,0,0,0-1.24,6.93,15.28,15.28,0,0,0,.28,2.33q.22,1.67.48,3.33c-.55.06-.72-.72-1-1.13a25.23,25.23,0,0,1-2.3-3.73,22.16,22.16,0,0,1-2.14-5.21,18.59,18.59,0,0,1-.25-5.16,26.34,26.34,0,0,1,.77-4.36c.75-3.16,1.9-6.15,2.77-9.26.53-1.89.86-3.87,1.49-5.71.75-2.18,2.08-4,2.7-6.28.1-.36-.18-1.6.16-1.14.94,1.2,2.16,2.18,2.83,3.6Z"/></g><g id="g6840"><path id="path6842" class="cls-8" d="M75.82,360.78c.12-1.83.61-3.67.35-5.48a16.24,16.24,0,0,0-1.63-4.49,19.09,19.09,0,0,0-2.11-3.67,37.6,37.6,0,0,0-3.68-3.68"/><g id="g6844"><path id="path6846" class="cls-12" d="M94.29,357.33c-.57,2.49-.8,5.19-2.14,7.36A14.94,14.94,0,0,1,87.48,369a11.53,11.53,0,0,1-4.25,1.86,13.64,13.64,0,0,1-4.62-.35,15.6,15.6,0,0,1-4.52-1.27,15.87,15.87,0,0,1-6.53-6.83,24.87,24.87,0,0,1-1-2.6A22.64,22.64,0,0,0,69.21,362a14.24,14.24,0,0,0,3.25,1.2,26,26,0,0,0,5.44,1,14.73,14.73,0,0,0,3.57-.29,18.29,18.29,0,0,0,4.35-1.41c1.87-.91,3.43-2.38,5.2-3.49a22,22,0,0,1,2-1.17c.41-.2.92-.79,1.28-.5Z"/><path id="path6848" class="cls-12" d="M91,348c-.67,2.58-.62,5.47-2,7.75a16.31,16.31,0,0,1-5.32,4.78,15,15,0,0,1-5,2.22,19.46,19.46,0,0,1-5.65,0,21.59,21.59,0,0,1-5.59-1A19.44,19.44,0,0,1,62,358.42a16.44,16.44,0,0,1-3-3.32,23.72,23.72,0,0,1-1.43-2.62,28.59,28.59,0,0,0,3.4,2,19.21,19.21,0,0,0,4.05,1,36.87,36.87,0,0,0,6.7.68,20.19,20.19,0,0,0,4.31-.55,24.07,24.07,0,0,0,5.17-1.76c2.16-1.06,4-2.7,6-4,.76-.47,1.52-1,2.32-1.35.49-.24,1-.41,1.52-.61Z"/></g><path id="path6850" class="cls-10" d="M264.36,359.66a109.41,109.41,0,0,1-.22-27.74,185.69,185.69,0,0,1,5.81-18.5c-.41-1.12-.74-2.27-1.18-3.38a25.24,25.24,0,0,0-2.35-5.18c-1-1.45-2.91-2.18-3.78-3.72-.7-1.24-.09-3.06-1-4.16-.71-.85-2.22-.64-3.06-1.37a9.62,9.62,0,0,1-2-3.22c-.74-1.49-1-3.2-1.72-4.69a28,28,0,0,0-3-4.78,20.19,20.19,0,0,0-3.25-3.41c-.93-.74-2.38-.84-3.06-1.81-.5-.7-.1-1.75-.5-2.5a20.94,20.94,0,0,0-4.25-4.72H179.72l1.76,5.22,2.19.94a20.53,20.53,0,0,1,3.57,1.4c1.66,1.11,2.71,2.94,4.21,4.25,2.79,2.44,6.28,4.06,8.85,6.72,1,1,1.34,2.64,2.47,3.53,3.38,2.71,8.71,2.19,12,5,1.17,1,1.47,2.71,2.47,3.88,2.55,3,6.42,4.69,8.84,7.78,1.89,2.41,2.39,5.7,4.25,8.12,1.15,1.5,3.21,2.22,4.16,3.85s.63,3.37,1.15,5a49.78,49.78,0,0,0,3.53,8.5c1.1,2,3.11,3.5,3.88,5.65,1,2.79-.27,6,.72,8.82,1,3,5.28,7.78,5.28,7.78,5.44,2,10.36,3.08,15.28,2.77Z"/><g id="g6852"><path id="path6854" class="cls-43" d="M245.76,286.13a16.52,16.52,0,0,1-3-1.95c-1.14-1-2.48-3.65-3.49-4.8a20.92,20.92,0,0,0-3.77-3.45,5.6,5.6,0,0,0-3.47-1.14c-.39.59,1.56,2.52,2.07,3.52a18.82,18.82,0,0,1,1.56,3.46c.13.51-.38,1.07-.21,1.57a15.32,15.32,0,0,0,1.71,2.77"/><path id="path6856" class="cls-43" d="M239.75,283.35c-.65-.77-1.37-1.47-1.95-2.28s-1-2.16-1.91-2.93c-.46-.4-1.2-.21-1.8-.32"/><path id="path6858" class="cls-43" d="M238.13,284.09A8.19,8.19,0,0,1,237,283c-.22-.35-.16-.85-.42-1.16a9,9,0,0,0-1.27-1"/></g><g id="g6860"><g id="g6862"><path id="path6864" class="cls-44" d="M211.42,282.62a14.55,14.55,0,0,1-2.8-1.53c-1.07-.83-2.4-3-3.36-4a18.88,18.88,0,0,0-3.55-2.8,5.15,5.15,0,0,0-3.19-.78c-.32.53,1.52,2.1,2,2.94a15.27,15.27,0,0,1,1.56,2.93c.15.43-.29.95-.11,1.38a13.21,13.21,0,0,0,1.67,2.32"/><path id="path6866" class="cls-44" d="M205.88,280.55c-.62-.63-1.3-1.21-1.86-1.88s-1-1.83-1.86-2.44c-.43-.33-1.08-.12-1.63-.18"/><path id="path6868" class="cls-44" d="M204.46,281.28a6.9,6.9,0,0,1-1.08-.92c-.22-.29-.19-.74-.44-1a7.83,7.83,0,0,0-1.19-.82"/></g><g id="g6870"><path id="path6872" class="cls-45" d="M239.27,308.4a13.76,13.76,0,0,1-2.75-1.35c-1.05-.76-2.43-2.84-3.4-3.71a17.66,17.66,0,0,0-3.52-2.55,4.8,4.8,0,0,0-3.08-.62c-.28.53,1.56,2,2.08,2.77a14.59,14.59,0,0,1,1.63,2.77c.16.41-.23.94,0,1.34a12.56,12.56,0,0,0,1.7,2.18"/><path id="path6874" class="cls-45" d="M233.88,306.64c-.62-.58-1.3-1.11-1.86-1.74a13.09,13.09,0,0,0-1.89-2.29c-.43-.29-1-.06-1.56-.09"/><path id="path6876" class="cls-45" d="M232.56,307.42a6.85,6.85,0,0,1-1.08-.85c-.21-.27-.21-.7-.46-.94a7.73,7.73,0,0,0-1.17-.74"/></g><g id="g6878"><path id="path6880" class="cls-8" d="M261,331.43a16.22,16.22,0,0,1-2.21-2.83c-.73-1.34-1.15-4.25-1.73-5.67a21.14,21.14,0,0,0-2.42-4.49,5.64,5.64,0,0,0-2.92-2.21c-.56.42.65,2.89.8,4a17.86,17.86,0,0,1,.35,3.78c0,.52-.71.88-.71,1.41a14.74,14.74,0,0,0,.71,3.18"/><path id="path6882" class="cls-8" d="M256.25,326.84c-.36-.93-.82-1.84-1.1-2.79-.33-1.12-.27-2.38-.85-3.4-.3-.52-1.06-.59-1.59-.88"/><path id="path6884" class="cls-8" d="M254.48,327a8.11,8.11,0,0,1-.71-1.45c-.09-.4.13-.86,0-1.23a7.94,7.94,0,0,0-.86-1.38"/></g><g id="g6886"><path id="path6888" class="cls-46" d="M259,356a12,12,0,0,1-1.83-2c-.61-1-1-3.05-1.44-4.06a14.82,14.82,0,0,0-2-3.22,4.76,4.76,0,0,0-2.43-1.59c-.46.31.55,2.07.67,2.87a11.31,11.31,0,0,1,.29,2.71c0,.37-.59.63-.59,1a9.34,9.34,0,0,0,.59,2.28"/><path id="path6890" class="cls-46" d="M255,352.69c-.3-.67-.68-1.32-.91-2a9.7,9.7,0,0,0-.71-2.43c-.25-.37-.88-.42-1.32-.63"/><path id="path6892" class="cls-46" d="M253.55,352.81a6,6,0,0,1-.59-1c-.08-.29.11-.61,0-.88a6.25,6.25,0,0,0-.72-1"/></g></g><path id="path6894" class="cls-10" d="M124.84,373.42c-3.55-1.57-6.34-4.48-9.91-5.94,0,0,0,0,.07-.06-2.85-4-5.09-6.58-6-11.16l-.92-1.69-1.8-3.74-.19.09L105,345.79c-.21-3.39-2.63-7.23-.15-10.28,2.93-3.6.26-9.89,3.09-13.56,2.44-3.15,2.23-9,5.25-12.22,5.43-5.82,4.67-12.87,10.28-15.53,5.07-2.4,5.27-8.79,9.66-10.78,4.77-2.17,7.45-7.2,11.87-9.91l1.29-3H116.84c-.73,2.73-.72,6.43-2.22,8.91-1.32,2.18-4.48,2.87-5.66,5.12-.71,1.38.41,3.45-.59,4.63-.83,1-2.53.61-3.72,1.12a6.06,6.06,0,0,0-2.34,1.38c-2.91,3.5-2.43,8.87-4.66,12.84-1.12,2-3.55,3.23-4.28,5.41-.84,2.53,1.39,5.59.25,8-.58,1.23-2.52,1.34-3.25,2.5-1.25,2-1.07,4.58-1.44,6.91-.59,2-1.18,4-1.78,6,1.9,4.11,4.38,9.25,7.13,14.32a86.56,86.56,0,0,0,8.81,13.25l5.28,5.84,4.59,3.19,4.6,2.09,3.9,1.78Z"/><g id="g6896"><path id="path6898" class="cls-47" d="M101,306.08a16.93,16.93,0,0,0,2.61-2.46c.93-1.22,1.78-4,2.56-5.35a21.46,21.46,0,0,1,3.08-4.07,5.68,5.68,0,0,1,3.22-1.75c.49.51-1.08,2.76-1.4,3.83a18.42,18.42,0,0,0-.91,3.69c0,.52.56,1,.48,1.5a14.28,14.28,0,0,1-1.18,3"/><path id="path6900" class="cls-47" d="M106.41,302.26c.49-.87,1.08-1.69,1.5-2.6s.63-2.31,1.35-3.22c.38-.48,1.14-.42,1.71-.63"/><path id="path6902" class="cls-47" d="M108.13,302.7a8.32,8.32,0,0,0,.92-1.33c.15-.38,0-.87.2-1.22a8.9,8.9,0,0,1,1.07-1.23"/></g><g id="g6904"><g id="g6906"><path id="path6908" class="cls-48" d="M121.62,283.8a12.6,12.6,0,0,0,2.23-1.67c.83-.86,1.8-3,2.54-4a17.26,17.26,0,0,1,2.77-2.89,4.2,4.2,0,0,1,2.6-1c.3.46-1.13,2.07-1.5,2.89a15.53,15.53,0,0,0-1.11,2.83c-.1.41.3.85.18,1.25a13,13,0,0,1-1.24,2.29"/><path id="path6910" class="cls-48" d="M126.09,281.37c.47-.63,1-1.22,1.43-1.89a12.49,12.49,0,0,1,1.39-2.42c.33-.33.89-.2,1.34-.31"/><path id="path6912" class="cls-48" d="M127.32,281.91a6.88,6.88,0,0,0,.84-1c.16-.28.1-.69.29-.94a7,7,0,0,1,.94-.87"/></g><g id="g6914"><path id="path6916" class="cls-49" d="M95.13,343.84a16.64,16.64,0,0,0,.86-3.49c.11-1.52-.7-4.35-.76-5.88a21.16,21.16,0,0,1,.38-5.09,5.61,5.61,0,0,1,1.75-3.22c.68.16.59,2.9.9,4a18.58,18.58,0,0,0,1.24,3.59c.25.46,1,.52,1.23,1a15.45,15.45,0,0,1,.66,3.19"/><path id="path6918" class="cls-49" d="M97.6,337.69c-.06-1,0-2-.15-3-.16-1.15-.73-2.28-.62-3.44.06-.6.73-1,1.09-1.46"/><path id="path6920" class="cls-49" d="M99.28,337.12a7.91,7.91,0,0,0,0-1.61c-.08-.4-.46-.73-.49-1.13a8.91,8.91,0,0,1,.23-1.62"/></g></g><g id="g6922"><path id="path6924" class="cls-50" d="M87.5,425.63a1.48,1.48,0,0,1,1.57-1.41,1.5,1.5,0,1,1-1.57,1.41Z"/><path id="path6926" class="cls-50" d="M83.85,427.61a1.48,1.48,0,0,1,1.57-1.41,1.5,1.5,0,1,1-1.57,1.41Z"/><path id="path6928" class="cls-50" d="M80.33,427.61a1.48,1.48,0,0,1,1.57-1.41,1.5,1.5,0,1,1-1.57,1.41Z"/><path id="path6930" class="cls-50" d="M76.26,424.47a1.48,1.48,0,0,1,1.57-1.41,1.5,1.5,0,1,1-1.57,1.41Z"/><path id="path6932" class="cls-50" d="M78.48,420.4A1.48,1.48,0,0,1,80.05,419a1.5,1.5,0,1,1-1.57,1.41Z"/><path id="path6934" class="cls-50" d="M82.55,418.55a1.48,1.48,0,0,1,1.57-1.41,1.5,1.5,0,1,1-1.57,1.41Z"/><path id="path6936" class="cls-50" d="M86.81,418.36A1.48,1.48,0,0,1,88.38,417a1.5,1.5,0,1,1-1.57,1.41Z"/><path id="path6938" class="cls-50" d="M91.25,421.14a1.48,1.48,0,0,1,1.57-1.41,1.5,1.5,0,1,1-1.57,1.41Z"/></g><path id="path6940" class="cls-8" d="M95.15,438.57c-1-1.94-1.79-4-3-5.84A22.72,22.72,0,0,0,89.42,429a40.31,40.31,0,0,0-3.54-3"/><path id="path6942" class="cls-50" d="M93.84,439.59a1.48,1.48,0,0,1,1.57-1.41,1.5,1.5,0,1,1-1.57,1.41Z"/><path id="path6944" class="cls-8" d="M77.46,441a41.85,41.85,0,0,1-.26-5.35,20.2,20.2,0,0,1,1.1-4.8,39.07,39.07,0,0,1,2-4.18"/><path id="path6946" class="cls-50" d="M76,441.64a1.48,1.48,0,0,1,1.57-1.41A1.5,1.5,0,1,1,76,441.64Z"/></g></g><g id="g6948"><path id="path6950" class="cls-51" d="M50,30H330V410"/><path id="path6952" class="cls-51" d="M310,510H30V130"/><path id="path6954" class="cls-51" d="M30,270H330"/></g></g><g id="text24122"><path id="path24708" d="M44.26,85.39a11.92,11.92,0,0,1-2.32.62,13.71,13.71,0,0,1-2.32.2,6.45,6.45,0,0,1-5.47-2.83c-1.37-1.86-2.11-4.55-2.23-8a6,6,0,0,1-.92.14,5.93,5.93,0,0,1-.84.06A10.54,10.54,0,0,1,24.58,74a12.85,12.85,0,0,1-4.26-4.45,24.33,24.33,0,0,1-2.72-7.17,45.53,45.53,0,0,1-.93-9.69,45.08,45.08,0,0,1,.93-9.61,24.7,24.7,0,0,1,2.74-7.31,12.43,12.43,0,0,1,4.26-4.43,10.63,10.63,0,0,1,5.56-1.53,10.32,10.32,0,0,1,5.61,1.56A13,13,0,0,1,40,35.78,23.75,23.75,0,0,1,42.72,43a44.44,44.44,0,0,1,1,9.7,36.9,36.9,0,0,1-2.19,13.56Q39.33,71.77,35.65,74a12,12,0,0,0,1.06,5.22,3.64,3.64,0,0,0,3.55,1.85,5.79,5.79,0,0,0,1.9-.38A7,7,0,0,0,43.74,80h.52v5.37ZM39.65,52.7q0-8.55-2.53-13.18t-6.94-4.66c-2.95,0-5.28,1.55-7,4.66S20.69,47,20.69,52.7s.86,10.17,2.58,13.23,4,4.57,6.91,4.57,5.19-1.52,6.9-4.57,2.58-7.48,2.58-13.23Z"/></g><g id="text24126"><path id="path24711" d="M317.57,454.76a11.25,11.25,0,0,1,2.32-.62,12.78,12.78,0,0,1,2.33-.21,6.48,6.48,0,0,1,5.47,2.83c1.36,1.87,2.11,4.55,2.22,8.05a5,5,0,0,1,.92-.15,6.15,6.15,0,0,1,.84-.06,10.5,10.5,0,0,1,5.59,1.54,12.83,12.83,0,0,1,4.25,4.45,23.88,23.88,0,0,1,2.72,7.16,45.52,45.52,0,0,1,.94,9.7,45,45,0,0,1-.94,9.61,24.81,24.81,0,0,1-2.74,7.31,12.46,12.46,0,0,1-4.25,4.42,10.69,10.69,0,0,1-5.57,1.53,10.35,10.35,0,0,1-5.61-1.56,12.75,12.75,0,0,1-4.23-4.39,23.85,23.85,0,0,1-2.72-7.22,44.5,44.5,0,0,1-1-9.7,36.82,36.82,0,0,1,2.19-13.56q2.18-5.52,5.84-7.72a12,12,0,0,0-1.05-5.22,3.66,3.66,0,0,0-3.56-1.86,6,6,0,0,0-1.89.38,8.19,8.19,0,0,0-1.59.65h-.52v-5.36Zm4.61,32.69q0,8.55,2.54,13.18t6.93,4.65q4.44,0,7-4.65t2.52-13.18q0-8.64-2.58-13.24c-1.71-3-4-4.57-6.91-4.57s-5.19,1.53-6.89,4.57-2.58,7.48-2.58,13.24Z"/></g></g></g></g></svg>