<svg xmlns="http://www.w3.org/2000/svg" viewBox="0 0 360 540"><defs><style>.cls-1,.cls-14{fill:#fff;}.cls-1,.cls-10,.cls-11,.cls-12,.cls-13,.cls-14,.cls-15,.cls-16,.cls-17,.cls-18,.cls-19,.cls-20,.cls-21,.cls-22,.cls-23,.cls-24,.cls-25,.cls-26,.cls-27,.cls-28,.cls-29,.cls-3,.cls-30,.cls-31,.cls-32,.cls-33,.cls-4,.cls-5,.cls-7,.cls-8,.cls-9{stroke:#000;}.cls-19,.cls-2{fill:#f55;}.cls-13,.cls-3,.cls-9{fill:none;}.cls-3{stroke-linecap:square;stroke-width:2px;}.cls-4,.cls-6{fill:#a00;}.cls-5,.cls-8{fill:#aaf;}.cls-5{fill-opacity:0.99;}.cls-10,.cls-12,.cls-14,.cls-15,.cls-16,.cls-17,.cls-18,.cls-19,.cls-20,.cls-21,.cls-22,.cls-23,.cls-24,.cls-25,.cls-26,.cls-27,.cls-28,.cls-30,.cls-31,.cls-32,.cls-33,.cls-5,.cls-8,.cls-9{stroke-linecap:round;stroke-linejoin:round;}.cls-15,.cls-17,.cls-7{fill:#55a;}.cls-10{fill:#faa;}.cls-11{fill:#fa5;}.cls-12{fill:#ffab55;}.cls-17{stroke-width:1.17px;}.cls-18{stroke-width:1.05px;}.cls-20,.cls-21,.cls-22,.cls-23,.cls-24,.cls-25,.cls-26,.cls-27,.cls-28,.cls-31{fill:#ff5;}.cls-20{stroke-width:0.9px;}.cls-21{stroke-width:0.77px;}.cls-22{stroke-width:0.78px;}.cls-23{stroke-width:0.72px;}.cls-24{stroke-width:0.78px;}.cls-25{stroke-width:0.83px;}.cls-26{stroke-width:0.81px;}.cls-27{stroke-width:0.81px;}.cls-28{stroke-width:0.8px;}.cls-29,.cls-30{fill:#5a5;}.cls-32{fill:#acaaff;}.cls-33{fill:#ffa055;}</style></defs><g id="Layer_2" data-name="Layer 2"><g id="svg2"><g id="g24719"><rect id="rect11234" class="cls-1" x="0.5" y="0.5" width="359" height="539" rx="29.94"/><g id="g11236"><path id="path11238" class="cls-2" d="M30,97.5s.68-4.18,2-5.5a8.56,8.56,0,0,1,11,0,8.28,8.28,0,0,1,2,5.5,9.45,9.45,0,0,1-2,5.5c-1,1-2,1.5-3,2.5s-1.5,1-2.5,2L35,110a17.81,17.81,0,0,0-5,10,21.42,21.42,0,0,0-1.5-5,21.54,21.54,0,0,0-3.5-5l-2.5-2.5c-1-1-1.5-1-2.5-2s-2-1.5-3-2.5a9.45,9.45,0,0,1-2-5.5A8.28,8.28,0,0,1,17,92a8.56,8.56,0,0,1,11,0c1.32,1.32,2,5.5,2,5.5"/><path id="path11240" class="cls-2" d="M330,442.5s.68,4.18,2,5.5a7.51,7.51,0,0,0,13-5.5,9.45,9.45,0,0,0-2-5.5c-1-1-2-1.5-3-2.5s-1.5-1-2.5-2L335,430a17.81,17.81,0,0,1-5-10,17.81,17.81,0,0,1-5,10l-2.5,2.5c-1,1-1.5,1-2.5,2s-2,1.5-3,2.5a9.45,9.45,0,0,0-2,5.5,7.79,7.79,0,0,0,13,5.5c1.32-1.32,2-5.5,2-5.5"/><path id="path11242" class="cls-2" d="M90,60s1.82-11.15,5.33-14.67S105,40,110,40s11.15,1.82,14.67,5.33S130,55,130,60s-2.67,12-5.33,14.67-5.34,4-8,6.66-4,2.67-6.67,5.34l-6.67,6.66A57.73,57.73,0,0,0,94,106.67C91.33,112,90,120,90,120s-1.33-8-4-13.33a57.73,57.73,0,0,0-9.33-13.34L70,86.67C67.33,84,66,84,63.33,81.33s-5.33-4-8-6.66S50,65,50,60s1.82-11.16,5.33-14.67S65,40,70,40s11.15,1.82,14.67,5.33S90,60,90,60"/><path id="path11244" class="cls-2" d="M270,480s1.83,11.15,5.36,14.67S285.1,500,290.08,500s11.21-1.82,14.73-5.33,5.36-9.7,5.36-14.67-2.68-12-5.36-14.67-5.35-4-8-6.66-4-2.67-6.69-5.34l-6.7-6.66A57.73,57.73,0,0,1,274,433.33C271.34,428,270,420,270,420s-1.34,8-4,13.33a57.43,57.43,0,0,1-9.37,13.34l-6.7,6.66c-2.67,2.67-4,2.67-6.69,5.34s-5.36,4-8,6.66-5.36,9.7-5.36,14.67,1.83,11.15,5.36,14.67,9.74,5.33,14.73,5.33,11.2-1.82,14.73-5.33S270,480,270,480"/></g><g id="g11246"><path id="path11248" class="cls-3" d="M50,30H330V410"/><path id="path11250" class="cls-3" d="M310,510H30V130"/><path id="path11252" class="cls-3" d="M30,270H330"/></g><g id="g11260"><g id="g11262"><path id="path11264" class="cls-4" d="M114.9,269.89,111,263.17l-4.59-8.84-3-6.18-3-4.78-12.55-8L79,257.52l-9.54-14.14-8.31,10.25v3.54l.35,2.47v3l.53,3,.18,2.12.71,2.12Z"/><path id="path11266" class="cls-5" d="M91.39,226.4a3.82,3.82,0,0,1,1.89-2.51c1.17-.71,2.68-.59,4-.67a14.38,14.38,0,0,1,5.32.24,8.71,8.71,0,0,1,3.39,2.27c1.93,2,3,4.67,4.41,7.06,2,3.48,3.52,7.31,5.88,10.59,1.33,1.85,3.42,3.12,4.63,5.06s1.41,4.25,2.42,6.25a30,30,0,0,0,2.79,4.38c2.4,3.19,5.27,6,7.89,9,.44.5,1.65,1.33.22,1.29-6.57-.19-13.15.11-19.72.17-1.63-2.95-3.4-5.81-5-8.79-1.2-2.26-2.24-4.6-3.43-6.87-1.85-3.51-3.79-7-5.76-10.4-2.11-3.66-4.62-7.1-6.5-10.89-1-2-2.77-4-2.48-6.19Z"/></g><path id="path11268" class="cls-6" d="M132.58,167.71l-7.07,11L122.68,191l-1.41,9.2v11.31l2.12,10.25,8.13,10.61,8.49,12,7.42,6.72,6.72,9.19,2.83,5,1.06,4.14h48.08l20.5-11.93,11.32-12,9.19-12,6.36-11.66,9.9-21.21-.7-15.56L256,171.6l-5.3-6.36-9.55,6.36-12,7.07L221,181.15,204.71,184l-14.85,2.12-10.26-.71-9.54-1.06L157,180.79l-6.37-1.41-9.54-5.66Z"/><g id="g11270"><path id="path11272" class="cls-7" d="M168,269.45a92.81,92.81,0,0,0-.14-13.75c-.19-3.3-1.49-6.44-2.26-9.64a90,90,0,0,0-5.23-13.39c-2.06-4.9-5.35-9.23-6.74-14.4-1.31-4-2.83-7.94-3.92-12-.41-4.14-.93-8.27-.52-12.44a64.54,64.54,0,0,1,1.53-9.76c.56-1.14.69-3.11,1.5-3.76A123.71,123.71,0,0,0,172.13,185a58.65,58.65,0,0,0,11.51,1.21c5.3.18,10.57-.66,15.86-.92a145.72,145.72,0,0,0,22.25-4c0,3.06.37,6.17.12,9.2-1.35,4.25-2.1,8.73-4.36,12.62-1.83,3.63-3.34,7.44-5.92,10.63a141.05,141.05,0,0,0-12.17,20.77c-1.39,4-3.2,7.91-3.72,12.16A114.55,114.55,0,0,0,193.93,263c-.21,2.12-.75,4.27.18,6.31.06,1.12-2.59.33-3.6.62L168,269.45Z"/><g id="g11274"><path id="path11276" class="cls-8" d="M261.5,190c-.71,5.92-.55,12-2.14,17.74A69,69,0,0,1,252,224.25c-2.31,3.91-5.44,7.28-8.21,10.88-3.06,4-5.91,8.15-9.29,11.87a90.93,90.93,0,0,1-12.68,12.06c-5.32,4-10.83,7.85-17.26,9.87-3.1.94-1.05.89,1,.83l100.15.24a53.15,53.15,0,0,0,8.64-16.6,37.79,37.79,0,0,0,1.55-9.7c.38-6.55-.25-13.13-.83-19.67-.39-4.44-1.08-8.85-1.78-13.25-.64-4-1.27-8.06-2.22-12-.78-3.3-1.28-6.68-2.86-9.76-2.05,1.22-3.67,2.94-5.66,4.19a23,23,0,0,1-4.17,2.18,18.34,18.34,0,0,1-6.91,1.49c-1.89-.08-3.54-1.37-5.4-1.7-1.54-.27-3.16.11-4.69-.2a27.32,27.32,0,0,1-5.78-2.07c-1.86-.83-3.47-2.19-5.39-2.88a13,13,0,0,0-4.75-1,17.76,17.76,0,0,0-4,1Z"/><g id="g11278"><path id="path11280" class="cls-9" d="M299,197.5a41.93,41.93,0,0,1,2.25,12.61,29.64,29.64,0,0,1-.47,7.1c-.48,2.6-2,5-2.35,7.57-.48,3.15.17,6.37,0,9.54a55.44,55.44,0,0,1-1.14,10.13,35.6,35.6,0,0,1-3.93,10.15,26.2,26.2,0,0,1-6.36,7.15c-2.69,2.05-6.64,2.17-9.1,4.49-1,1-1.47,2.48-2.15,3.76"/><path id="path11282" class="cls-9" d="M266.5,190.25c-.57,9-3.34,17.62-6.5,26"/><path id="path11284" class="cls-9" d="M270,191.5c-1.28,6-2.43,12.13-4.47,17.94-1.7,4.85-3.58,9.74-6.45,14-2.06,3.06-4.95,5.47-7.58,8.06"/><path id="path11286" class="cls-9" d="M275,192.75c-1.35,6-1.72,12.24-3.86,18a62.94,62.94,0,0,1-12.41,19,147.62,147.62,0,0,1-13.27,12.35,96.11,96.11,0,0,1-9.06,6.77c-.21.13-.43.24-.65.36"/><path id="path11288" class="cls-9" d="M304.25,195.25c1.72.66,1.1,1.82,1.2,2.84s-.65,2.12-.64,3.22.68,2.28.75,3.46c.06,1-.68,2.07-.28,3,.32.73,1.8.66,1.91,1.45.24,1.65-3.47,2.47-2.94,4.05s4.46-.16,5,1.5c.68,2.09-4.57,3.12-4,5.25.44,1.66,4.33.34,4.75,2,.52,2.07-3.61,2.9-4,5-.22,1.19,1.37,2.29,1.08,3.46s-2.18,1.64-2.83,2.8-.68,2.83-1,4.25a34,34,0,0,1-.89,4.29c-.55,1.51-2.67,2.68-2.31,4.26.19.8,1.7.68,2,1.44.55,1.32-.66,2.79-.7,4.22,0,.91-.51,2.27.28,2.73,1.24.72,3-2.86,3.94-1.74,1.18,1.46-4.24,2.88-3.35,4.54.79,1.47,4.57-1.86,5-.25.81,3-8.75,1.2-8.25,4.25.28,1.66,4.71-.91,5,.75.91,5.14-9.16,5-13.75,7.5"/><path id="path11290" class="cls-9" d="M289.75,197.75c-2.08,1.42-5.5,1.84-6.25,4.25-.48,1.54,2.06,2.92,1.75,4.5-.23,1.21-2.08,1.55-2.54,2.7s.78,2.62,0,3.51c-1,1.22-3.73-.46-4.73.79-1.35,1.68,1,4.4.34,6.45s-2.73,3.37-4.09,5.05"/><path id="path11292" class="cls-9" d="M295.5,198c0,2.33-.52,4.73,0,7,.29,1.25,1.33,2.22,1.68,3.46a10,10,0,0,1,.47,4.34,12.82,12.82,0,0,1-1.69,3.62c-.7,1.33-1.66,2.51-2.28,3.87-.5,1.09-.14,2.77-1.16,3.4-1.2.75-2.92-1.13-4.22-.56-2.12.91-2,4.49-4.05,5.62s-5.27-1.2-6.75.5c-1.2,1.37.9,3.72.33,5.44-.66,2-3.48,2.8-4,4.81s2,4.41,1,6.25-4.57.78-5.75,2.5,1.29,4.72-.25,6-4-1.87-5.5-.75c-2.07,1.58,1.33,6.6-1,7.75-1.64.81-3-3.32-4.75-2.75-2,.65-.44,5.42-2.5,5.75-1.87.29-1.88-4.48-3.75-4.25-2.15.26-1,4.95-3,5.75-1.35.54-2.71-1.71-4.12-1.39-2.65.59-3.92,3.76-5.88,5.64"/><path id="path11294" class="cls-9" d="M274,225.25c.5,2.42,2.76,5.13,1.5,7.25-.89,1.5-3.91.15-5,1.5-1.31,1.63.81,4.62-.5,6.25s-4.3.37-5.75,1.75-.56,4.19-2,5.5-4.87-.28-5.75,1.5c-.76,1.54,3.2,3.52,2,4.75-.81.83-2.25-1.85-3.25-1.25-1.15.69.62,3.26-.5,4-1.3.86-3.13-2-4.5-1.25-1.16.62-.83,2.5-1.25,3.75"/><path id="path11296" class="cls-9" d="M268,234.75a92.71,92.71,0,0,0-8.73,5.49c-3.8,2.72-7.32,5.8-10.88,8.83-3.8,3.22-7.33,6.74-11.17,9.92-4.05,3.35-8.43,6.3-12.49,9.65-.34.27-.65.57-1,.86"/><path id="path11298" class="cls-9" d="M214,269.5c4.36-2.89,9.14-5.05,13.61-7.75,2.49-1.51,5-3,7.35-4.71,3.62-2.69,6.89-5.82,10.29-8.79"/><path id="path11300" class="cls-9" d="M298.75,220.75c-1.24.94-1.81,2.32-2.71,3.49a25.35,25.35,0,0,1-2.33,3.1c-.89.87-2.1,1.36-3,2.19s-1.44,2.07-2.48,2.72-2.68.09-3.47,1,.25,2.67-.5,3.63-2.61.34-3.29,1.3.3,2.32-.13,3.36c-.53,1.26-2,1.92-2.81,3s-1.6,2.51-2.43,3.75a26.93,26.93,0,0,0-2.52,3.71c-.78,1.8.13,4.4-1.3,5.75-1.13,1.06-3.39-.24-4.59.74-1.78,1.47-.44,5.29-2.41,6.51-1.35.84-3.25-1-4.75-.5-1.23.44-1.58,2.25-2.77,2.78-1.35.6-3.09-.4-4.41.23-.71.34-1,1.16-1.57,1.74"/><path id="path11302" class="cls-9" d="M292.25,203c-.13,2.73.48,5.57-.18,8.23a26.57,26.57,0,0,1-4.1,8.21,45.57,45.57,0,0,1-4.47,5.06"/><path id="path11304" class="cls-9" d="M298,228.5c-1.47.83-1.89,2.42-2.76,3.68s-1.19,2.66-2.27,3.57-2.82.77-3.91,1.67c-2.64,2.17-3.44,6-5.77,8.48-1,1.12-2.79,1.55-3.58,2.86-1,1.63-.28,3.88-1.06,5.62a22.81,22.81,0,0,1-6.15,8.12c-1.34,1.12-3.29,1.29-4.66,2.38-1.66,1.32-2.73,3.25-4.09,4.87"/><path id="path11306" class="cls-9" d="M312,231.75c-.4,2.48-1.56,4.95-1.37,7.47.15,2.05,1.71,3.8,2,5.83.74,5.36-.61,10.8-.88,16.2"/></g></g><path id="path11308" class="cls-10" d="M208.25,106.5c-1.51,2.93-2.38,6.26-4.38,8.89a36.92,36.92,0,0,1-8.83,7.93,26.11,26.11,0,0,1-7.95,4c-3.07.81-6.9,1.43-9.5.47-.41,5.82.75,3.66.76,5.51s.13,4.13-.75,5.91a10.32,10.32,0,0,1-4,4c-3,1.78-6.61,2.1-9.94,3-3.67,1-7.61,1.28-11.08,2.86a30.18,30.18,0,0,0-8.81,6,32.86,32.86,0,0,0-7.67,11c-.5,1.43,2,2.26,3.22,3.17a60.06,60.06,0,0,0,13,7.52,71.41,71.41,0,0,0,12.32,3.52,102.68,102.68,0,0,0,17.21,2.85,129.31,129.31,0,0,0,26-1.59,86.09,86.09,0,0,0,17.72-4.35,56.75,56.75,0,0,0,9.85-5.24c4.1-2.59,8.32-6,11.73-8.61-2.27-2.91-1.82-1.82-2.5-2.89-2.76-4.42-2.16-11-6.17-14.35-.9-.74-2.33-.35-3.43-.75a29.39,29.39,0,0,1-4.27-2.23c-1.54-.86-3.52-1.27-4.51-2.72-1.8-2.64-.61-6.42-1.62-9.45a22.15,22.15,0,0,0-2.29-4.43,14.61,14.61,0,0,0-2.56-3.55c-1.73-1.53-4.71-1.45-6.08-3.31s-.77-4.33-1.26-6.47-.61-7.83-1.64-6l-2.5-.75Z"/><path id="path11310" class="cls-11" d="M150.5,54c-1.63,1.35-1,4.13-1.18,6.24a29.27,29.27,0,0,0,.36,7.48c.3,1.57,1.72,2.94,1.54,4.52-.27,2.28-2.46,3.86-3.66,5.82-1,1.7-2.74,3.17-3.06,5.13-.56,3.48,3,6.88,2.25,10.32-.32,1.53-2.25,2.3-2.8,3.77a8.87,8.87,0,0,0-.36,5.07c.39,1.62,2.18,2.65,2.62,4.26a9.55,9.55,0,0,1-.07,4.22c-.33,1.78-1.54,3.31-1.89,5.08a16.91,16.91,0,0,0-.23,6.79,12.35,12.35,0,0,0,3,5.89c.88.92,3,.61,3.35,1.85.39,1.52-2.12,2.45-2.54,4-.75,2.64.73,5.54.17,8.22-.37,1.77-2.68,3.16-2.3,4.93a3.84,3.84,0,0,0,2.92,2.49c4.29,1,8.51-2.23,12.75-3.39,4.5-1.23,9.75-1,13.49-3.8,1.67-1.26,2.58-3.37,3.32-5.33,1.27-3.31-1-8.34,1.82-10.47,1.44-1.09,3.59.68,5.39.59A18.38,18.38,0,0,0,192.8,126c2.19-1.14,3.8-3.19,5.46-5a68.55,68.55,0,0,0,5.9-8c1.48-2.21,1.44-6.67,4.08-6.84,1.75-.12,2.42,2.59,3.27,4.12a8.43,8.43,0,0,1,1.45,4.12c-.07,2.22-2.75,3.91-2.61,6.13a4.44,4.44,0,0,0,1.76,3c1.12.87,3.24.06,4.09,1.19s-.65,3,0,4.22c.53,1,2.18.89,2.77,1.83.94,1.49.43,3.49.73,5.23s-.2,4.25,1.19,5.52c2.17,2,6.12-.23,8.76,1.08,1.29.64,1.64,2.7,3,3.09s3.13-.35,4.46-1.11a6.18,6.18,0,0,0,2.77-2.88c2.11-5.46.19-11.74-.56-17.54a97.07,97.07,0,0,0-4-17.57c-1.41-4.31-4.58-8-5.36-12.49-.42-2.41.64-4.89.44-7.32a27.06,27.06,0,0,0-1.2-5.24,29.93,29.93,0,0,0-2.39-6.75c-.85-1.47-2.37-2.47-3.3-3.89-1.7-2.62-2.18-6-4.09-8.45a12.7,12.7,0,0,0-3.94-3.35c-1.22-.66-2.74-.58-4-1.17-2.11-1-3.54-3.3-5.79-4-1.9-.56-4,.63-6,.18-1.37-.32-2.34-1.83-3.74-2-1.7-.19-3.24,1.45-5,1.35-1.53-.09-2.81-1.24-4.27-1.71-2-.66-4.09-2.07-6.13-1.54-1.46.37-1.87,2.64-3.31,3.08-2.07.63-4.27-.83-6.43-1s-4.06,0-6.09-.13c-2.7-.2-5.42-1.64-8.06-1-1.7.39-2.69,2.44-4.39,2.88a6.32,6.32,0,0,1-1.88-.12Z"/><g id="g11312"><path id="path11314" class="cls-12" d="M238,64.5a15.45,15.45,0,0,1,3.57-4.82A37.3,37.3,0,0,1,246,55.75c2.37-1.19,2.28-2.3,4.76-3.25,1.85-.07,1.93-2.39.51-2.35-3.35-1.12-8.44-1-11.91-1.61.37-2,4.89-5.36,8.15-7.29-.93-.88-2.09-.75-3.27-.61-3.4.25-6.81.43-10.23.36.42-1.75,3.06-3.51,4-5,1-1.12,2.59-2.38,3.25-3.73a19.38,19.38,0,0,0-6.5.25,38.24,38.24,0,0,0-6.5,1.25,18,18,0,0,1,2.25-3.25H204c3,1.37,6.16,2.4,9,4,2.43,1.66,5.06,3.08,7.37,4.89,2.87,2.94,6,5.66,8.34,9a54.06,54.06,0,0,1,5.53,8.12C236,59,236.84,61.8,238,64.5Z"/><path id="path11316" class="cls-12" d="M256.75,50.88a2.64,2.64,0,1,1-2.63-2.38A2.51,2.51,0,0,1,256.75,50.88Z"/><path id="path11318" class="cls-12" d="M251.12,40.26a2.63,2.63,0,1,1-2.62-2.38A2.5,2.5,0,0,1,251.12,40.26Z"/><path id="path11320" class="cls-12" d="M244.38,32.26a2.64,2.64,0,1,1-2.63-2.38A2.51,2.51,0,0,1,244.38,32.26Z"/></g><path id="path11322" class="cls-13" d="M239.5,61.5c-.79-2-1.37-4-2.35-5.9a47.3,47.3,0,0,0-4.77-7.23,83.54,83.54,0,0,0-9.3-10.24,35.53,35.53,0,0,0-3.71-2.86c-2-1.38-4-2.7-6.1-3.89-.74-.41-1.51-.75-2.27-1.13"/><g id="g11324"><path id="path11326" class="cls-10" d="M163.21,50.51c-1.24.51-2.7.92-3.5,2-1.08,1.44-.86,3.49-1.25,5.25-.61,2.74-1.12,5.5-1.71,8.24a16.18,16.18,0,0,0-.5,2.25c-.11,1.84.42,3.66.5,5.5.06,1.25,0,2.5,0,3.75s.19,2.34.25,3.5c.11,1.92.21,3.84.25,5.75.07,2.84-.16,5.67,0,8.5a40.31,40.31,0,0,0,.75,6.5,37,37,0,0,0,2.5,7.25,49.61,49.61,0,0,0,5,8.5,40.25,40.25,0,0,0,4.5,5,21.26,21.26,0,0,0,4.75,4,19,19,0,0,0,7,1.75,18.73,18.73,0,0,0,7-.5A12.73,12.73,0,0,0,191,126.5a44.84,44.84,0,0,0,5-2.5,25.56,25.56,0,0,0,3.36-3.14,36.7,36.7,0,0,0,3.75-4,44,44,0,0,0,4.14-7.56,21.71,21.71,0,0,0,1.5-4,12.33,12.33,0,0,0,.5-4.25c-.14-1.23-1.23-2.26-1.25-3.5,0-1.85,1-3.56,1.75-5.25.63-1.48,2-2.67,2.25-4.25a8.9,8.9,0,0,0-.75-4,38.21,38.21,0,0,0-2-4.25A26.27,26.27,0,0,0,208,77c-.42-.72-1.19-1.23-1.5-2-.53-1.33-.11-2.88-.5-4.25s-1.43-2.41-1.75-3.75c-.68-2.84.75-6-.29-8.75-.7-1.82-2.31-3.17-3.75-4.5a14,14,0,0,0-4.25-3c-1.41-.53-3-.26-4.5-.5-1.26-.19-2.48-.62-3.75-.75-2.32-.23-4.67.05-7,0s-4.5-.2-6.75-.25c-1.08,0-2.17,0-3.25,0a31.35,31.35,0,0,0-3.75.25,17.3,17.3,0,0,0-3.75,1Z"/><g id="g11328"><path id="path11330" class="cls-9" d="M157,69c2.11-.1,4.26-.9,6.32-.46a5.92,5.92,0,0,1,3.18,1.71,9.45,9.45,0,0,1,2,5.08c.49,3.79-.58,7.62-1.36,11.37-.3,2.61-1.6,5-2,7.54-.19,1.17.16,3.1,1.53,3.31,1.53.57,2.61,2.23,4.39,2.18.94-.24,2.89.27,2.61-1.28-1-.49-1-1.7.27-1.72A2,2,0,0,1,176,98,3.2,3.2,0,0,0,179.42,97c.29-.82,1.19-1.7.39-2.49l-.56-1"/><g id="g11332"><path id="path11334" class="cls-9" d="M180.75,71.75A12.45,12.45,0,0,1,183,69a9.29,9.29,0,0,1,3.5-1.25,20.8,20.8,0,0,1,4.25-.25,17.66,17.66,0,0,1,3.25.25,15.94,15.94,0,0,1,2.5.75c.77.29,1.51.65,2.25,1s1.65.86,2.5,1.25c.58.27,1.75.75,1.75.75"/><path id="path11336" class="cls-9" d="M180.25,77.75s2.21-2.75,3.75-3.5a8.86,8.86,0,0,1,3.25-.5c1-.08,2,0,3,0a17.8,17.8,0,0,1,3.5,0,9,9,0,0,1,3,1.25,13.69,13.69,0,0,1,2.5,2.25c.37.39,1,1.25,1,1.25"/></g></g><g id="g11338"><path id="path11340" class="cls-14" d="M182,78.25a14,14,0,0,1,1.9-.75,15.71,15.71,0,0,1,3-.25,26.7,26.7,0,0,1,4,0,24.64,24.64,0,0,1,3.25.75,21.77,21.77,0,0,1,2.5.75c.52.21,1,.59,1.5.75a11,11,0,0,0,1.85.25,18.3,18.3,0,0,0-2.91.85c-.93.44-1.66,1.23-2.56,1.72a13.88,13.88,0,0,1-2.13.93,13.35,13.35,0,0,1-2.75.75,7.94,7.94,0,0,1-2.75,0,8.56,8.56,0,0,1-2.75-1.25,5.65,5.65,0,0,1-1.5-1.25,3.6,3.6,0,0,1-.75-1.5,6.37,6.37,0,0,1,.1-1.75Z"/><path id="path11342" class="cls-15" d="M192.16,80.91a3.11,3.11,0,0,1-6.19,0h0a3.11,3.11,0,0,1,6.19,0Z"/></g><path id="path11344" class="cls-16" d="M189.68,80.29a1,1,0,0,1-1,1,1,1,0,0,1-1-1v0a1,1,0,0,1,1-1,1,1,0,0,1,1,1S189.69,80.29,189.68,80.29Z"/><path id="path11346" class="cls-9" d="M157.53,75.87a11.18,11.18,0,0,1,2.16-1.58,9.5,9.5,0,0,1,3.74-.59,6.34,6.34,0,0,1,2,.4,6.82,6.82,0,0,1,1.77,1,9.45,9.45,0,0,1,1,1"/><path id="path11348" class="cls-14" d="M157.53,79.8l1.57-1.57c1.07-.11,2.14-.2,3.19-.37.52-.07,1-.17,1.56-.21.72.26,1.44.51,2.16.79l1.75,1.17c-.21.52-.39,1.07-.61,1.59-.6.52-1.18,1-1.78,1.56L163,83.93l-2.56-.19c-.6-.41-1.2-.79-1.79-1.21-.33-.38-.64-.8-1-1.16l-.57-.19.4-1.38Z"/><path id="path11350" class="cls-17" d="M164.56,80.88a2.51,2.51,0,1,1-5,0h0a2.51,2.51,0,1,1,5,0Z"/><path id="path11352" class="cls-18" d="M162.68,80.48a.92.92,0,1,1-1.84,0v0a1,1,0,0,1,.91-1,1,1,0,0,1,.93,1Z"/><path id="path11354" class="cls-19" d="M167.17,106.94c-.16-.81.19-2.13,1.14-2.21s1-1.16,2-1.19a2.48,2.48,0,0,1,2.66.4,3.43,3.43,0,0,0,3-.53c.55-.46,2.39.28,2.71.81a11.11,11.11,0,0,0,2.91,1.34,1.72,1.72,0,0,1,1.42,2.29c-.48.65-.62.52-1.22,1-.89.41-2.73.4-3.06,1.31-.55,1.13-.89.6-1.91,1.34-.85.56-1.87.07-2.8.16a6.42,6.42,0,0,1-2.27-.18,5.07,5.07,0,0,1-2.33-1.7,8.8,8.8,0,0,0-1.24-1.83c-.34-.29-.84-.49-1-1Z"/><path id="path11356" class="cls-9" d="M167.76,106.35a7.31,7.31,0,0,1,2.36-.2c.86.22,1.47,1,2.23,1.43a3.1,3.1,0,0,0,1,.54,1.83,1.83,0,0,0,1-.2c.44-.18.74-.65,1.2-.8a3.38,3.38,0,0,1,1.31-.08c.49,0,.95.28,1.44.27s1.13-.37,1.72-.36.94.34,1.43.37a7,7,0,0,0,1.28-.18"/><path id="path11358" class="cls-8" d="M170.5,30.5c-2.25.06-4.72,2.89-6.75,4.75a17.31,17.31,0,0,0-4,4.75c-.5,1-.26,2.25-.75,3.25a16.36,16.36,0,0,1-3.25,4c-1,1-2.34,1.66-3.25,2.75s-2.26,2.18-2,3.5c.18.93,1.33,1.52,2.25,1.75a5,5,0,0,0,3-.5,6.3,6.3,0,0,0,1.75-1.25c.57-.52.93-1.24,1.5-1.75a2.19,2.19,0,0,1,.75-.5,1.56,1.56,0,0,1,1,0c.83.31,1.2,1.37,2,1.75a4.36,4.36,0,0,0,2.75.5c1.39-.3,2.46-1.45,3.5-2.41.39-.37.47-1.2,1-1.25,1.41-.14,1.92,2.26,3.25,2.75a5.2,5.2,0,0,0,3,0,7.79,7.79,0,0,0,2.25-1.25c.54-.37,1-.86,1.5-1.25a2.46,2.46,0,0,1,.75-.5,3,3,0,0,1,2.5,0c.43.3.18,1.08.5,1.5a4.82,4.82,0,0,0,2.25,1.5,8.79,8.79,0,0,0,3.75.25,7.63,7.63,0,0,0,3.25-1c.74-.49.87-2,1.75-2s1.11,1.63,1.75,2.38a8.87,8.87,0,0,0,2.5,2.53,5.83,5.83,0,0,0,2.25.25A6.88,6.88,0,0,0,204,55c.72-.27,1-1.57,1.75-1.5,1.48.15,1.6,2.56,2.75,3.5a5.79,5.79,0,0,0,2,1,7.11,7.11,0,0,0,2.25.25c.43,0,.83-.29,1.25-.25a1.66,1.66,0,0,1,1.25.5c.33.48-.15,1.19,0,1.75a3.71,3.71,0,0,0,1,1.75,6.34,6.34,0,0,0,2.5,1.25,7.32,7.32,0,0,0,1.75.25c.25,0,.58-.19.75,0,.5.56-.24,1.5-.25,2.25a21.13,21.13,0,0,0,.25,2.75c.13,1-.1,2.26.5,3.13a3.37,3.37,0,0,0,1.75,1c.56.19,1.36-.2,1.75.25,1,1.19-.23,3.18,0,4.75a6.16,6.16,0,0,0,.75,2.5,3.27,3.27,0,0,0,1.5,1.25c.47.17,1-.2,1.5,0a1.63,1.63,0,0,1,1,1c.18.76-.69,1.46-.75,2.25a8,8,0,0,0,.25,1.5c.15,1.24.21,2.49.25,3.75,0,1-.11,2,0,3,.21,1.86.87,3.65,1.25,5.5a21.55,21.55,0,0,0,.75,4c.68,1.63,2.25,2.77,3,4.37.92,2,1.14,4.17,1.75,6.25,1,3.26,2.49,6.39,3,9.75.35,2.31,0,4.67,0,7,0,3.08.55,6.18.25,9.25-.2,2.05-1.54,4-1.37,6,.19,2.32,1.78,4.3,2.62,6.47.7,1.82,1.16,3.73,2,5.49a70.85,70.85,0,0,0,4.25,7.1c1,1.61,2.07,3.19,3.15,4.75.91,1.32,1.88,2.6,2.81,3.92a71,71,0,0,1,4,5.87,52.2,52.2,0,0,1,3.17,7.18c.51,1.37.09,3.36,1.3,4.18,1.73,1.18,4.31.25,6.28-.49.39-.15.61-.9,1-.75.79.3,0,1.81.5,2.5a3,3,0,0,0,1.75,1,5.79,5.79,0,0,0,1.5,0c.66,0,1.5-.45,2,0s-.18,1.78.25,2.5a2.83,2.83,0,0,0,2.25,1.5c.53,0,.8-.71,1.25-1s1-.9,1.5-.75c.75.21.59,1.57,1.25,2a4.29,4.29,0,0,0,3.25.5,3.77,3.77,0,0,0,1.75-1.25c.33-.36.26-1.2.75-1.25,1.81-.19,2,3.35,3.75,4a4.47,4.47,0,0,0,3-.25,6.88,6.88,0,0,0,2.5-1.75c.21-.21.2-.68.5-.75.47-.11.8.57,1.25.75a4.42,4.42,0,0,0,2,.5,3.72,3.72,0,0,0,2.25-1,5.55,5.55,0,0,0,1.5-3.25c.05-.42-.55-.95-.25-1.25s.83.32,1.25.25A4.12,4.12,0,0,0,307,190.5a4.36,4.36,0,0,0,1-2c.17-.73-.51-1.69,0-2.25s2.09.48,2.5-.25c1.8-3.26-3.1-6.79-5-10a89.71,89.71,0,0,0-6.25-9c-2-2.52-4.24-4.77-6.25-7.25s-3.85-5-5.75-7.5c-2.44-3.23-4.74-6.57-7.25-9.75s-5.3-6.36-8-9.5c-1.89-2.19-3.77-4.39-5.75-6.5-1.7-1.8-3.73-3.3-5.25-5.25a50.33,50.33,0,0,1-4.5-7.5c-1.39-2.6-2.49-5.34-3.75-8a51.9,51.9,0,0,1-3-6.25c-.6-1.85-.48-3.87-1-5.75a36.73,36.73,0,0,0-1.75-4.5c-.94-2.19-2.21-4.25-3-6.5-.69-1.94-1-4-1.5-6-.25-1-.46-2-.75-3a55.86,55.86,0,0,0-2-5.75c-.51-1.2-1.19-2.32-1.75-3.5-1.72-3.56-2.91-7.4-5-10.75a65.8,65.8,0,0,0-7.5-9.25,53.81,53.81,0,0,0-6.75-6.5,33.41,33.41,0,0,0-5.5-3.25c-1.61-.79-3.4-1.19-5-2S205.39,30,203.75,30c-12.51.34-21.07.16-33.25.5Z"/></g><path id="path11360" class="cls-13" d="M157.33,45c6.46-2.88,13.62-3.68,20.61-4.25A46.6,46.6,0,0,1,191,41.3c4.78,1,9.24,3.15,13.69,5.14,5.3,2.39,11.34,4,15.44,8.12,2.57,2.59,3.46,6.43,5,9.72,1.34,2.77,2.52,5.62,3.78,8.44,1,2.2,2,4.38,3,6.61,1.24,3,2.91,5.79,3.51,8.93.56,3-.58,6.13,0,9.09.54,2.64,2.18,4.92,3.13,7.43.82,2.18,1.58,4.4,2.23,6.64.87,3,1.37,6,2.23,9,1.95,6.78,5.22,13.18,6.66,20.08.66,3.18.23,6.51.87,9.69.68,3.41,1.39,7,3.16,9.95,1.49,2.53,4.14,4.17,6.07,6.38,1.62,1.85,2.66,4.27,4.63,5.74,1.53,1.13,3.62,1.22,5.28,2.13a60.47,60.47,0,0,1,5.68,4c2.37,1.68,4.33,4.21,7.11,5,2,.59,4.22-.66,6.27-.26,2.94.57,5.22,3.23,8.17,3.69,2.49.4,5-.84,7.51-.83,1.17,0,2.16.66,3.48.39"/><g id="g11362"><g id="g11364"><path id="path11366" class="cls-20" d="M175.42,146.61a2.62,2.62,0,0,1-5.24,0h0a2.62,2.62,0,0,1,5.24,0Z"/><path id="path11368" class="cls-21" d="M180.54,150.34a3,3,0,0,1-6,0h0a3,3,0,0,1,6,0Z"/><path id="path11370" class="cls-22" d="M186.76,152.68a3.07,3.07,0,0,1-6.12,0h0a3.07,3.07,0,0,1,6.12,0Z"/><path id="path11372" class="cls-23" d="M193.85,153.68a3.19,3.19,0,1,1-6.37,0h0a3.19,3.19,0,1,1,6.37,0Z"/><path id="path11374" class="cls-24" d="M200,152.56a3,3,0,0,1-6,0h0a3,3,0,0,1,6,0Z"/><path id="path11376" class="cls-25" d="M205.86,150.2a2.75,2.75,0,1,1-5.5,0h0a2.75,2.75,0,1,1,5.5,0Z"/><path id="path11378" class="cls-26" d="M211,146.93a3,3,0,0,1-6,0h0a3,3,0,0,1,6,0Z"/><path id="path11380" class="cls-27" d="M215.78,143.32a2.94,2.94,0,0,1-5.87,0h0a2.94,2.94,0,0,1,5.87,0Z"/><path id="path11382" class="cls-28" d="M219.71,139.16a2.94,2.94,0,0,1-5.88,0h0a2.94,2.94,0,0,1,5.88,0Z"/></g><g id="g11384"><path id="path11386" class="cls-9" d="M159.94,43.88a6.79,6.79,0,0,0,.71,1.95,3.56,3.56,0,0,0,1.62,1.06,5.06,5.06,0,0,0,2.12.16,4.11,4.11,0,0,0,2.44-.69c.74-.69.68-1.9,1.07-2.83"/><path id="path11388" class="cls-9" d="M167.91,42a6.79,6.79,0,0,0,.71,1.95A3.56,3.56,0,0,0,170.24,45a5.06,5.06,0,0,0,2.12.16,4.11,4.11,0,0,0,2.44-.69c.74-.69.68-1.9,1.07-2.83"/><path id="path11390" class="cls-9" d="M176.25,41.81a6.79,6.79,0,0,0,.71,1.95,3.56,3.56,0,0,0,1.62,1.06,5.06,5.06,0,0,0,2.12.16,4.13,4.13,0,0,0,2.44-.69c.74-.69.68-1.9,1.07-2.83"/><path id="path11392" class="cls-9" d="M184.61,42.26a6.79,6.79,0,0,0,.71,2,3.56,3.56,0,0,0,1.62,1.06,5.06,5.06,0,0,0,2.12.16,4.13,4.13,0,0,0,2.44-.69c.74-.69.68-1.9,1.07-2.83"/><path id="path11394" class="cls-9" d="M192.56,42.44a6.58,6.58,0,0,0-.15,2.06,3.55,3.55,0,0,0,1.05,1.64,5.15,5.15,0,0,0,1.87,1,4.14,4.14,0,0,0,2.52.36c1-.32,1.39-1.46,2.12-2.15"/><path id="path11396" class="cls-9" d="M200.39,45.8a6.9,6.9,0,0,0-.1,2.07,3.48,3.48,0,0,0,1.1,1.6,4.93,4.93,0,0,0,1.89,1,4.12,4.12,0,0,0,2.52.3c.95-.35,1.35-1.5,2.07-2.21"/><path id="path11398" class="cls-9" d="M208.12,48.51a6.9,6.9,0,0,0-.1,2.07,3.48,3.48,0,0,0,1.1,1.6,4.93,4.93,0,0,0,1.89,1,4.12,4.12,0,0,0,2.52.3c.95-.35,1.35-1.5,2.07-2.21"/><path id="path11400" class="cls-9" d="M215.62,52a6.63,6.63,0,0,0-.82,1.9,3.5,3.5,0,0,0,.45,1.89,5,5,0,0,0,1.43,1.58,4.17,4.17,0,0,0,2.25,1.17c1,0,1.79-.92,2.71-1.33"/></g></g><g id="g11402"><path id="path11404" class="cls-29" d="M82.67,180.16l6.88-7.5,4.37-4.75L97.05,163l3.25-5.25,3.75-5.25,2.75-4,4.75-4.75,2.25-3,2-1.75,1.5-1-5.25-2.75-2,4.75-1,3.5-1,2-4,5.5-4.63,6.5-3.5,5.5-3.37,5-5,5-5.25,4.75Z"/><g id="g11406"><g id="g11408"><path id="path11410" class="cls-30" d="M102.55,155c1.52-1.32,2.77-3,4.32-4.24a13.56,13.56,0,0,1,3.17-2.13,8.62,8.62,0,0,1,4-.83c1.34.11,2.5,1.15,3.81,1.47,1.53.36,3.27-.27,4.69.45a5.68,5.68,0,0,1,2.36,2.53,13.74,13.74,0,0,1,1.08,5.88,8.77,8.77,0,0,1-.61,3.85,10.45,10.45,0,0,1-2.69,2.9,11.71,11.71,0,0,0-1.44-3.93,7.45,7.45,0,0,0-2.87-2.1,11.07,11.07,0,0,0-3.77-1,12.58,12.58,0,0,0-2.8.2c-1,.14-2,.82-3.06.6-1.37-.3-2.29-1.78-3.54-2.47-.86-.48-1.79-.75-2.68-1.16Z"/><path id="path11412" class="cls-30" d="M98.92,159.79a50.12,50.12,0,0,0,1.79-5,54.5,54.5,0,0,0,2.06-7.61,9.17,9.17,0,0,0,.13-2.86,13.75,13.75,0,0,0-2.35-6.37,8.06,8.06,0,0,0-3.88-2.63c-2.59-.78-5.42.21-8.13,0-1.4-.09-2.8-.77-4.19-.54a5.31,5.31,0,0,0-4,3.38c1.4.1,2.9-.27,4.23.21a6.93,6.93,0,0,1,3.06,2.29c1.37,1.75,1.17,4.42,2.58,6.13.7.85,1.94,1.08,2.73,1.84A22.49,22.49,0,0,1,96.85,154a22.88,22.88,0,0,1,1.73,4.3c.15.48.23,1,.34,1.48Z"/><path id="path11414" class="cls-30" d="M88.92,172.29A22,22,0,0,0,93,170.57c1.51-1.06,2.48-2.73,3.75-4.06,1.08-1.13,2-2.51,3.29-3.32a10.65,10.65,0,0,1,3.81-1.22c2.49-.44,5.16-1.07,7.57-.3a9.21,9.21,0,0,1,3.79,2.92,8.62,8.62,0,0,1,1.59,2.65,14.35,14.35,0,0,1,.62,3c.12.77.07,1.56.25,2.32-1-.37-2-1.13-3.13-1.23a8.52,8.52,0,0,0-3.25.61c-.88.27-1.63.89-2.53,1.1-2,.46-4.13-.26-6.09.28-1.14.3-2,1.35-3.13,1.64a15.45,15.45,0,0,1-6.06.13,19.17,19.17,0,0,1-3.93-1.27l-.63-1.5Z"/><path id="path11416" class="cls-30" d="M86.05,173.42a16.55,16.55,0,0,1,2.5-4c1.15-1.57,2.72-2.81,3.81-4.42a9.41,9.41,0,0,0,1.94-3.68,7.5,7.5,0,0,0-.65-3.72,9.94,9.94,0,0,0-2.08-3.35,18.72,18.72,0,0,0-4-2.65c-.93-.55-2-.9-2.86-1.52a20,20,0,0,1-4.57-4c-.49-.66-1.42-1.22-1,.06a19.47,19.47,0,0,0,.6,3.56c.44,2.2,1,4.37,1.48,6.57.38,1.89.73,3.79,1,5.71a12.9,12.9,0,0,0,.3,2.57c.43,1.18,1.57,2,2.11,3.13A18.92,18.92,0,0,1,86,172.47c0,.31-.27.93,0,.95Z"/></g><path id="path11418" class="cls-19" d="M111.43,127.14c-1.79-.79-4.23.25-5.65,1.59a2.93,2.93,0,0,0-.67,2,3.58,3.58,0,0,0,.49,2.3,6.25,6.25,0,0,0,2.83,1.63c1.35.56,2.85.66,4.21,1.17,2.09.8,4,2,6,2.93,1.06.47,2,1.51,3.19,1.34a2.55,2.55,0,0,0,1.53-1.29,3.17,3.17,0,0,0,.48-1.82,4.39,4.39,0,0,0-.7-1.89c-.43-.72-2.18-1.24-1.66-1.9.28-.35.88.31,1.19.64.72.77.65,2.05,1.28,2.9a4,4,0,0,0,1.69,1.41,7.17,7.17,0,0,0,3.62-.06,3.46,3.46,0,0,0,1.94-.64c.89-.88.91-2.34,1.24-3.54a17.26,17.26,0,0,0,.81-4.13A5.55,5.55,0,0,0,133,128a4.16,4.16,0,0,0-.82-1.75c-.27-.26-.7-.29-1-.49s-1.37-.53-1.12-.94c.86-1.43,3,1.74,4.63,1.88.62,0,1.51.12,1.84-.41.59-1-.45-2.23-.83-3.3-.58-1.65-1.64-3.1-2.19-4.75-.29-.89-.21-1.89-.58-2.75a7.13,7.13,0,0,0-2.11-3.11,2.11,2.11,0,0,0-1.39-.41,3.1,3.1,0,0,0-1.75.84,4.2,4.2,0,0,0-1,1.89c-.3,1,0,2.16-.21,3.22-.08.44.06,1.38-.38,1.29-1.13-.22.35-2.28.33-3.43A10.19,10.19,0,0,0,126,113a7.35,7.35,0,0,0-1.33-2.84,4.91,4.91,0,0,0-2.21-1.42,8.58,8.58,0,0,0-4.33-.11,5.06,5.06,0,0,0-2.47,1.25,2.89,2.89,0,0,0-.7,1.46,4.6,4.6,0,0,0,0,1.92,8.82,8.82,0,0,0,1,2.7c.47.8,2.4,1.51,1.74,2.16-.19.18-.43-.31-.59-.51-.57-.7-.76-1.66-1.31-2.39a13.53,13.53,0,0,0-2.63-2.66,5.34,5.34,0,0,0-1.76-1,2.05,2.05,0,0,0-1.52,0c-1,.58-1.15,2-1.65,3-.8,1.67-1.34,3.45-2.12,5.12a19.65,19.65,0,0,0-1.52,2.86,2.61,2.61,0,0,0-.09,1.65,5.07,5.07,0,0,0,2.67,2.42c1.27.58,3.35,1.66,4.15.52Z"/><path id="path11420" class="cls-31" d="M123.8,125.46a4.07,4.07,0,0,1-8.13,0v0a4.07,4.07,0,0,1,8.13,0Z"/></g></g><g id="g11422"><path id="path11424" class="cls-10" d="M61.69,232.59c-1.2-7.59-2.75-15.14-3.49-22.8-.74-2.1-2.06-4-3-6.08-1.46-2.25-1.27-5-2.17-7.48a6.73,6.73,0,0,0-2.26-3.6c-1.14-.75-2.6-1.2-3-2.65-1.35-2.3-2.31-4.8-3.73-7.06-.2-1.41-.84-2.83-.15-4.2.78-3.08,2-6.05,3-9.06a21.37,21.37,0,0,1,.35-5.3,3.24,3.24,0,0,1,3,1.08c1.36.75,1.55,2.45,2.3,3.69a27.39,27.39,0,0,1-.17,7.78,13.17,13.17,0,0,1,5.1-1.67,13,13,0,0,1,5.33.43c.17-1-.37-2.44.3-3.19a6,6,0,0,1,5-1.26,12.09,12.09,0,0,1,4.94.92c.11-1.11-.12-2.44,1.25-2.75a5.51,5.51,0,0,1,3.34-.9,3.56,3.56,0,0,1,2.48,1.88,7,7,0,0,1,2.28,3.36,22.76,22.76,0,0,1,1.54,6.36c.21.72-.59,4.29.21,2.62,1-1.74,2.68-4.41,4.27-5.69a6.13,6.13,0,0,1,3.55-.64,3.64,3.64,0,0,1,.88,3c0,2.28-1,4.45-1.5,6.66a36.78,36.78,0,0,0-4.16,14.55c-.57,2-1,2.87-2.27,3.86-1.38,1.87-3.21,3.22-4.66,5-.59.62-1.37,2.11-.31,2.73,1.48.93,1.89,2.65,2.65,4.12,1.33,2.94,1,5.09,1.59,7.6,0,1.53.27,3.14-.69,4.46-.7,2.2-2.61,3.59-4.08,5.27-2.14.79-4.17,2-6.37,2.53-1.63.06-3.33.56-4.92.34A12.8,12.8,0,0,1,63.57,234L61.7,232.6Z"/><g id="g11426"><path id="path11428" class="cls-9" d="M52.5,176.73c-.81.65-1.79,1.16-2.09,2.23-.48.7.55,1.33.77,2a13.6,13.6,0,0,0,3,3.44,11.41,11.41,0,0,1,2.32,1.39,18.39,18.39,0,0,0,1.09,1.79,14.28,14.28,0,0,1-.51-3.95c.74.15,1.68-.07,2.07.74a14.71,14.71,0,0,0,2.7,2.27c.7.08,1.6-.16,2.18.11a21.16,21.16,0,0,0,2.69,4.47,34.44,34.44,0,0,0,2.73,2.67,11.2,11.2,0,0,0,2.39.26c.4-.57,1.44-.93,1-1.76A13,13,0,0,0,71.82,188a40,40,0,0,0-3-6.22c-1.5-1.88-2.79-4-4.92-5.27l-1.5-1.06"/><path id="path11430" class="cls-9" d="M73.36,192.46c.47.49.72,1.31,1.37,1.53s1.57.66,2.34-.47a15.34,15.34,0,0,0,.53-4.62,37.44,37.44,0,0,0,0-6c-.11-1.27-.89-2.4-1.28-3.61-.7-1.45-1-3.06-1.79-4.47a12,12,0,0,0-2.08-2.52"/><path id="path11432" class="cls-9" d="M83.79,183.09a9,9,0,0,1-.4,3.77,26.46,26.46,0,0,1-2.07,5.6c-.5.61-1,1.1-1.88.88-1,.06-1.63-.91-2.19-1.59"/><path id="path11434" class="cls-9" d="M79.2,210.67a19.79,19.79,0,0,0-2.48,5"/><path id="path11436" class="cls-9" d="M71.59,203.77c0,2,.12,4-.67,5.86L70,211"/><path id="path11438" class="cls-9" d="M92.1,178.14c-.91,0-1.89-.19-2.61.51a8,8,0,0,0,0,5.07,6.27,6.27,0,0,0,1.7,1.85"/><path id="path11440" class="cls-9" d="M82,190.51a18.18,18.18,0,0,0-.1-3.07,2.38,2.38,0,0,0-2.07-.64c-.78,0-1.2.78-1.32,1.46s-.38,1.15-.58,1.72"/><path id="path11442" class="cls-9" d="M77.25,191c-.46-.77-.63-1.81-1.28-2.42s-1.27-.7-1.9-.05c-.69.86-.48,2.84-.53,3.89"/><path id="path11444" class="cls-9" d="M72.66,190.6c-.7-.47-2.25-2.1-3.21-1.86-1-.28-1.18.32-1,1.2a2.7,2.7,0,0,0,.63,2.16,10.39,10.39,0,0,0,1.49,2"/></g><path id="path11446" class="cls-30" d="M69.12,193.87s-1.2,1.52-1.77,2.3S66,198,65.41,199c-.77,1.25-1.34,2.62-2.1,3.88s-1.89,2.51-2.65,3.89-1.26,3-1.95,4.41-1.35,2.87-2.12,4.25-1.87,2.77-2.65,4.24-1.35,3.21-2.12,4.77c-.6,1.21-1.37,2.32-2,3.54-.41.86-.6,1.82-1.06,2.65a19.27,19.27,0,0,1-1.41,2A17,17,0,0,1,49.85,231a7.76,7.76,0,0,1,2.12-.53c.23,0,.71,0,.71,0s1.08-3.22,1.77-4.77c.62-1.4,1.49-2.67,2.12-4.06.54-1.21.86-2.51,1.41-3.72.67-1.46,1.62-2.78,2.3-4.24s1.11-3,1.77-4.42c.53-1.17,1.12-2.32,1.76-3.45s1.51-2.43,2.3-3.62c.45-.67.94-1.3,1.37-2,.64-1,1.28-2.08,1.82-3a10.16,10.16,0,0,1,1.93-2.75c-1,.32-1.08.22-2.11-.61Z"/><g id="g11448"><path id="path11450" class="cls-9" d="M256.75,175.25c1.42.75,4.56,0,6,1.5,1.07,1.1.18,3.2,1,4.5a2.9,2.9,0,0,0,1.6,1.24c1.11.29,2.36-1,3.4-.49,1.51.7,1.67,2.89,2.67,4.22.33.44.57,1,1.08,1.23,1.48.59,3.23-.92,4.75-.45s2.32,1.74,3.35,2.75c.7.69,1,1.95,1.9,2.25,1.31.42,2.63-1.12,4-1s2.24,1.17,3.45,1.52c2.09.6,4.35.39,6.46.92a52.31,52.31,0,0,1,6.34,2.31"/><path id="path11452" class="cls-9" d="M202.25,32.75c5.41,2.83,11.21,5.42,15.46,9.81,4.45,4.6,7,10.77,9.75,16.54,5,10.4,8.06,21.64,12.29,32.38,3.22,8.17,5.95,16.58,9.95,24.4,4.81,9.4,13.18,21,16.8,26.87"/><path id="path11454" class="cls-9" d="M225.25,45c2.89,4.89,6.55,9.4,8.82,14.62,1.57,3.62,2,7.64,3.24,11.39,2.53,7.63,5.64,15,8.55,22.53,4.06,10.4,8.17,20.77,12.44,31.09,2.18,5.25,3.94,10.71,6.71,15.67,4.68,8.35,11.35,15.42,16.59,23.43,4.61,7,9,14.21,13,21.57,0,.07.1.2.1.2"/><path id="path11456" class="cls-9" d="M255,116a126.72,126.72,0,0,0,10.73,17.38c4.94,6.43,11.46,11.51,16.75,17.66,5.64,6.58,11.65,13,15.92,20.55A55.72,55.72,0,0,1,304,186"/><path id="path11458" class="cls-9" d="M204.75,55a59.13,59.13,0,0,1,3.66,7.8c1.18,3.6.7,7.66,2.2,11.14,1.28,3,5,4.75,5.64,7.94S215,88,214.07,91.05c-.69,2.36-2.45,4.51-2.47,7,0,4.61,4,8.52,4.4,13.1.26,2.66-.5,5.34-1.05,7.95-.32,1.55-1.17,4.08-1.32,4.56"/><path id="path11460" class="cls-9" d="M209.12,57c1.91,4.68,4.24,12.07,6.81,15.08,2.31,2.71,4.48,6.11,4.56,9.67.07,2.69-2.16,4.93-3.08,7.46-.58,1.61-1.45,3.19-1.54,4.9-.1,1.89.79,3.71,1.13,5.57.94,5.18,5.26,11.11,2.5,15.59-.72,1.16-1.94,3-3.88,1.23"/><path id="path11462" class="cls-9" d="M212.75,58.75c2.39,4.84,5.86,9.06,8.19,13.92,1,2.14,2.34,4.29,2.53,6.66.21,2.72-1.25,5.32-1.67,8-.69,4.44-2.11,9-1.4,13.4.42,2.63,2.67,4.69,3.27,7.28.42,1.83,1.41,4.23.17,5.63-1.08,1.21-2.9,1.89-3.59-.66"/><path id="path11464" class="cls-9" d="M226.62,80.88c-1.15,5.67-3.16,9.85-3.08,14.93.05,3.22,1.63,6.24,2.25,9.4.74,3.83,2.79,7.82,1.74,11.58-.46,1.66-1.6,4.28-3.29,4-1.42-.26-2.22-2.94-1.37-4.12.39-.54,1.5-1.42,2,0"/><path id="path11466" class="cls-9" d="M220.5,117.25a5.57,5.57,0,0,0,.51,5.52,5.08,5.08,0,0,0,4.61,1.41,5.8,5.8,0,0,0,3.74-2.74c1.23-2,1.11-4.65,1.09-7,0-4.74-2.17-9.27-2.42-14a63.72,63.72,0,0,1,1-14.91,5.11,5.11,0,0,1,.23-.76"/><path id="path11468" class="cls-9" d="M217.25,117.75c-1,7.21,3.34,9.56,7.53,11.16a5.76,5.76,0,0,0,6-1.5c4.46-5.44,1.37-14,1-21.06-.09-2-.56-3.9-.83-5.85"/><path id="path11470" class="cls-9" d="M236.25,113c-.53,5.32-.06,10.83-1.64,15.93-.49,1.56-.83,3.73-2.36,4.32s-3.25-1.92-5-1.79S224.9,136,222.6,134a37.55,37.55,0,0,1-3.6-3.7"/><path id="path11472" class="cls-9" d="M220.75,136.5c3.41,6.12,6.35-1.59,9.76.62,1.54,1,3.63-1.41,4.7-2.91,2.84-4,2.51-9.42,3.29-14.21"/><path id="path11474" class="cls-9" d="M228.5,141.75c3.3-1,2-.36,3-.75,1.55-.63,3.27-1.24,4.36-2.52,2.2-2.58,2.37-6.34,3.65-9.48"/><path id="path11476" class="cls-9" d="M231,143.75a11.9,11.9,0,0,0,5.13-2.24A13.61,13.61,0,0,0,239.5,136"/><path id="path11478" class="cls-9" d="M153.25,55.5c-.52,1.73-1.56,3.38-1.7,5.19-.37,4.88,3.22,9.65,2.4,14.47-.24,1.41-1.38,2.51-2.07,3.77a21.77,21.77,0,0,0-2.07,3.82,13.91,13.91,0,0,0-.43,4.81c.12,2.14,1.13,4.16,1.31,6.29.24,3-5.89,6-.26,9,1.8,1,.14,4.1-.25,6.1-.56,2.79-2.72,5.19-2.93,8a14.06,14.06,0,0,0,1.64,7.9c1.22,2.14,3.4,3.63,5.46,5a11.93,11.93,0,0,0,3.69,1.62c2.91.7,6.44-1.11,9,.5a2.67,2.67,0,0,1,1.35,2.52c-.26,1.06-1.64,1.61-2.7,1.84s-2.39-.35-3.55-.65c-1.43-.36-2.73-1.26-4.2-1.38-1.18-.09-2.72-.33-3.5.56s-.33,2.32-.09,3.44c.47,2.26,2.59,4,2.94,6.27a5.63,5.63,0,0,1-.47,3.53c-.16.29-.52.41-.78.62"/><path id="path11480" class="cls-9" d="M156,55c-.25,2.39-.33,4.78-.37,7.18-.07,4.63.62,9.27.29,13.89a46.91,46.91,0,0,1-.92,5.51c-.36,1.82-1,3.59-1.25,5.43-.54,4.11,1,8.67-.43,12.43-.57,1.5,2.37,2.51,2.53,4.11.21,2.19-1.47,4.16-2.29,6.2-1.1,2.7-3.42,5.08-3.56,8-.11,2.37,1.13,4.67,2.26,6.76s3.48,4.17,4.74,6"/><path id="path11482" class="cls-9" d="M158.75,103.75c-.68,2.49-1.78,4.82-2.53,7.28a38.67,38.67,0,0,0-1.78,6.82,14.94,14.94,0,0,0,.16,5.85,9.24,9.24,0,0,0,2,3.42c1.57,1.79,3.76,2.93,5.65,4.38"/><path id="path11484" class="cls-9" d="M160.75,110.75c-.95,3.15-2.11,6.35-2.19,9.65a9,9,0,0,0,.84,4.74c1.25,2.14,3.87,3.12,5.75,4.74.8.69,1.57,1.41,2.35,2.12"/><path id="path11486" class="cls-9" d="M154.25,130c-1.28,1.78-3.28,3.29-3.74,5.45-.4,1.88.64,3.79,1.05,5.67a25.27,25.27,0,0,1,.94,3.69c.09,1.4.36,3.07-.5,4.19-.55.71-1.67.67-2.5,1"/><path id="path11488" class="cls-9" d="M164,116.75c-.32,2.14-.82,4.33-.37,6.43a8,8,0,0,0,1.62,3.08c1.8,2.33,5.1,3.37,6.54,5.94a6.05,6.05,0,0,1,.85,4.47,5.25,5.25,0,0,1-2.79,2.94c-1.32.66-2.93.51-4.4.48-1.16,0-2.52-1.22-3.43-.51s-.53,2.22-.38,3.33a12.68,12.68,0,0,0,1.11,2.84"/><path id="path11490" class="cls-9" d="M170.25,123.25c.12,1.17-.43,2.56.17,3.61.77,1.35,3,1.32,3.91,2.57a8.84,8.84,0,0,1,1.42,4.88,10.21,10.21,0,0,1-.86,4,7,7,0,0,1-1.78,3c-1.81,1.45-5.85,0-6.61,2.15-.2.57.67,1,1,1.5"/></g><path id="path11492" class="cls-32" d="M135.94,167a61.89,61.89,0,0,0-6.72-4.77,4.78,4.78,0,0,1,1.24-4.25c1.25-.81,3.3-.48,4.23-.95.21-1.33-1-3.55,1-3.79a5.59,5.59,0,0,1,4.34-.57c1.13,1.05,2.54,1.94,2.46,3.67.46,1.45-1.06,2.72-2,3.71-1.91.54-1.09,2.48.37,2.71,1.49.47,2.86-.83,4.2-.51,1.84,0,.86,3.12-.55,3-2.92.47.25.3,1.49.33,1.37,1.29,0,2.92-.69,4.24,2.32-1.08,4.93-2.34,7.49-1.27a11.15,11.15,0,0,1,1.88,5.51,49.94,49.94,0,0,0,6.36-.18c-.28-1.51-1.12-3.3,1-3.6,1-.36,3.2.65,3.32,1.87.67,1.48-.23,2.59-1.34,3.5a11.16,11.16,0,0,1,5.92-1.57,16,16,0,0,1,5.21.87c1.14,1.22.14,3.31-.34,3.54,1.32-1,2.23-3,4.14-2.48,1.29-.42,3.88,1.26,1.58-.42-2-.88-1.53-2-.17-3.34a4,4,0,0,1,3.87,1.56c1.38,2.16,1.38.22,2.81-.16s3.6.58,2.69,2.16c.41.67,2.39-1.72,3.6-1.57,2-.72,2.17,1.09,1.62,2.47-2.06,1.61-.91,1.46,1,.81,2.3-.73,4.9-1.58,7.28-.94,1.7,1.49,1.37,1.1,1.78-1.08.84-1.39,2.92-1.84,4.53-2s3.62.19,3.93,2c.23,2.42,1.46-1,2.72-1.16,1.64-1.25,3.83-.69,5.68-1.45s2.59,1.56,3.54,2.66c-.48-1.7.28-3.23.88-4.78,1.65-.82,3.52-.7,5.31-.7-.81-1.36-1.45-2.71,0-3.89,1.53-1.71,3.86-.62,5.65,0,.4.34.51-3.07,1.91-3.06,1.55-.64,3.25.64,2.6,1.41.39-2.05,2.12-3.88,4.34-3.48.72.41,2.78,2.48,2,3-4.31,2-6.6,4.2-10.6,6.75-2.77,1.95-7,4.81-10.34,5.73a107.23,107.23,0,0,1-13.71,4.62,118.33,118.33,0,0,1-16,2,107.06,107.06,0,0,1-15.61.53c-4.37.24-8.5-1.46-12.74-2.25-3.79-.9-7.74-1.23-11.43-2.43a108.81,108.81,0,0,1-14.2-6.69A58.46,58.46,0,0,1,136,167Z"/><path id="path11494" class="cls-8" d="M132.23,164.53c-2,2.28-4,3.95-6.06,5.9s-4.47,3.65-6.3,5.86a29,29,0,0,0-4.72,7.54,26.13,26.13,0,0,0-1.66,8.16,48.37,48.37,0,0,0,.73,9.06c.89,6.95,2.73,13.76,3.66,20.72,1,7.47.43,15.16,2,22.53A49.13,49.13,0,0,0,124,255.89a30.59,30.59,0,0,0,3.58,5.32c2.37,3,5.35,5.43,7.84,8.32h24.75c-2.19-3.78-3.64-7.93-5.79-11.72a80.87,80.87,0,0,0-5-7.75,52,52,0,0,0-5-6c-1.69-1.68-3.86-2.83-5.52-4.55a86.15,86.15,0,0,1-8.74-11.34,35.31,35.31,0,0,1-4-6.46A43.31,43.31,0,0,1,123,208c-.33-5.6,1.3-11.14,1.79-16.73.22-2.57-.17-5.24.5-7.74A33.92,33.92,0,0,1,130,174.2c1.74-2.71,4.3-4.81,6.12-7.49-1-.77-2.61-1.46-3.84-2.19Z"/><g id="g11496"><path id="path11498" class="cls-9" d="M119.15,192.11c.13,2.62.1,5.26.37,7.87a42.89,42.89,0,0,0,1.06,6.67,13.42,13.42,0,0,0,1.1,2.86A34.09,34.09,0,0,0,124.1,213"/><path id="path11500" class="cls-9" d="M127.28,224.28a35.55,35.55,0,0,0,1.09,7.5,32.63,32.63,0,0,0,2.22,6.14c1.39,2.92,3.44,5.47,5,8.29,1,1.84,1.81,3.82,2.87,5.64a59.17,59.17,0,0,0,3.36,5.11c.76,1.05,1.62,2,2.42,3"/></g><path id="path11502" class="cls-31" d="M133.29,170.54c4.51,4.13,10.15,6.55,15.35,9.59-4.85,11.38-5.44,25,.3,36.14,5.34,9.81,9.55,20.17,14.14,30.33,3,7.41,2.34,15.13,2.38,22.93l3.63-.2c1-16.88-2-21.42-6.16-33.37-3.85-11.1-11.83-20.79-12.74-32.85-1.48-7.18.77-14.22,2.61-21.08l6.48,1.95c-2.62,7.91-2.29,17,2.55,24.05,3.58,5.42,8.73,10.67,14.95,12.72a24.32,24.32,0,0,0,17-1.2c5.25-2.38,8.85-7.26,12.29-12.19,3.62-6.32,6.26-14.63,5.42-22.05l9.67-1.91a42.41,42.41,0,0,1-.66,6.23c-1.31,8.28-5,16-9.73,22.82A181.1,181.1,0,0,0,199.2,231a76,76,0,0,0-5.5,20.18,76.21,76.21,0,0,0-1.19,18.2l4.13.17c-1-11.11.76-20.64,4-30.28,3.56-10.43,10.73-19.47,16.57-28.61,4.3-8.49,9-18.67,8.39-28.42,3.83-2.38,9.65-4.26,13.88-7.74,1.58-1.21,8.26-5.91,10.23-7.84l-1.7-3.28c-2.82,1.35-6.49,5-8.56,6-5.75,4.88-12.45,7.61-19.53,9.9-7.81,3.51-16.56,3.29-24.89,4.41-5.93-.1-11.91,1.29-17.72-.55a93.73,93.73,0,0,1-17.95-3.94c-6-1.43-11.77-3.5-16.68-7.28-3-1.07-3.8-3-6.8-5.31-.34.43-2.28,3.52-2.63,3.95Z"/><path id="path11504" class="cls-33" d="M163,185a42.16,42.16,0,0,1,7.25,1.5c-.39,1.5-1.16,2.93-1.25,4.48a7.51,7.51,0,0,0,.43,2.73,20,20,0,0,0,2.6,4.95c1.68,2.47,4,4.41,5.84,6.79,1.33,1.77,1.79,4.32,3.63,5.55a3.47,3.47,0,0,0,2.36.45,5,5,0,0,0,2.45-1.3c1.14-1,1.56-2.66,2.53-3.86a37.58,37.58,0,0,1,4.61-4.66c1-.86,2.25-1.39,3.16-2.33a11,11,0,0,0,1.9-2.73,14.8,14.8,0,0,0,1.36-4.14,5.84,5.84,0,0,0,0-2.53c-.37-1.21-1.43-2.1-2.14-3.15l10.25-1c-.05,2.32.18,4.66-.07,7a34.42,34.42,0,0,1-1.34,6.28,25.24,25.24,0,0,1-1.94,4.65,33.91,33.91,0,0,1-3.27,4.69,27.07,27.07,0,0,1-3.83,4.3,25.08,25.08,0,0,1-7.8,4.62,17.91,17.91,0,0,1-6.23.73,27,27,0,0,1-5.91-1,11.55,11.55,0,0,1-3.38-1.15,27.31,27.31,0,0,1-7.77-7.64,29.29,29.29,0,0,1-4.88-15.5,20.58,20.58,0,0,1,.52-4.75A29.27,29.27,0,0,1,163,185Z"/><path id="path11506" class="cls-9" d="M167.87,185.87s-4.73,1.84-5.38,3.75c-.75,2.22,6.09.67,6.38,3,.35,2.79-7.21,2.65-6.5,5.38.81,3.09,8.06-1.15,9.45,1.74s-6.7,6.12-4.7,8.76c2.16,2.84,7.9-4.83,10.46-2.34,2.27,2.22-4.36,7.42-1.84,9.34,2.08,1.58,4.41-3.75,7-3.5s3.63,5.51,5.88,4.5c3.06-1.39-2.31-8.56.7-10.06s5.48,7.13,8.17,5.31c3-2.05-4.8-8.27-2.12-10.75,2.16-2,6.63,4.64,8.5,2.37,2-2.44-5.44-5.56-4.25-8.5,1-2.57,8.58-.06,7.87-2.75-.6-2.3-8.37-5.14-8.37-5.14"/><path id="path11508" class="cls-19" d="M184,192.38s.46-2.79,1.33-3.67a5,5,0,0,1,8.67,3.67,6.37,6.37,0,0,1-1.33,3.67c-.67.66-1.34,1-2,1.66s-1,.67-1.67,1.34l-1.67,1.66a14.65,14.65,0,0,0-2.33,3.34,14.05,14.05,0,0,0-1,3.33,14.05,14.05,0,0,0-1-3.33,14.65,14.65,0,0,0-2.33-3.34L179,199.05c-.67-.67-1-.67-1.67-1.34s-1.33-1-2-1.66a6.37,6.37,0,0,1-1.33-3.67,5.2,5.2,0,0,1,8.67-3.67C183.55,189.59,184,192.38,184,192.38Z"/><path id="path11510" class="cls-15" d="M113.25,191.75c-1.53,1.43-3.34,2.59-4.64,4.23-1.88,2.37-2.94,5.29-4.44,7.92-1,1.76-2.75,3.24-3,5.24-.1.68-.07,1.61.5,2s1.43,0,2.07-.26c2-.86,3.37-2.73,5-4.12-1.27,1.18-2.29,2.68-3.75,3.61-2.41,1.55-5.81,1.3-8,3.14-1.44,1.21-1.66,3.43-2.93,4.81a6.76,6.76,0,0,1-2.1,1.53,9,9,0,0,1-2.47.66l1.5,5.75c.81-.82,1.36-2,2.39-2.53a10.35,10.35,0,0,1,4.77-.72,12.92,12.92,0,0,1,3.71.5,10.18,10.18,0,0,1,4,1.86c2,1.87,3,4.7,4.26,7.15.64,1.19,1.06,2.48,1.74,3.65s1.55,2,2.19,3.1.87,2.26,1.54,3.26c1.24,1.83,3.25,3,4.51,4.85a22.7,22.7,0,0,1,1.43,2.88c-.65-2.89-1.62-5.72-2-8.66-.48-3.53-.27-7.13-.47-10.69-.15-2.86-.18-5.72-.57-8.55-.44-3.28-1.34-6.47-2-9.71-.71-3.41-1.61-6.8-2.13-10.25s-.73-7.09-1-10.64Z"/><g id="g11512"><path id="path11514" class="cls-9" d="M137.53,181.85a50.8,50.8,0,0,0-8.94,8.64,30.9,30.9,0,0,0-4,6.67,13.73,13.73,0,0,0-.49,1.66"/><path id="path11516" class="cls-9" d="M132.94,175.49c-.79,1.68-2.08,3.17-2.51,5a20.16,20.16,0,0,0,0,7.74"/><path id="path11518" class="cls-9" d="M130.81,222.16c3,2,5.69,4.44,8.84,6.16a36.19,36.19,0,0,0,9,3.76c2.45.56,6.06.35,7.53.46"/><path id="path11520" class="cls-9" d="M133.29,229.23c3.61,2.24,6.86,5.17,10.8,6.77,4.83,1.95,11.25,2.18,15.31,3.26"/><path id="path11522" class="cls-9" d="M141.42,238.07c3.32,1.82,6.37,4.24,9.93,5.58A38.31,38.31,0,0,0,162.22,246"/><path id="path11524" class="cls-9" d="M148.49,245.14c2.8,1.33,5.5,2.93,8.48,3.8,2,.59,5.25.65,6.31.92"/><path id="path11526" class="cls-9" d="M153.44,250.44a35.46,35.46,0,0,0,7.25,2.76c1.08.29,3.24.53,3.3.55"/><path id="path11528" class="cls-9" d="M156.27,254.68c1.65.71,6.3,2.66,8.58,2.87"/><path id="path11530" class="cls-9" d="M158.39,258.93c1.18.59,5.48,1.3,6.66,1.89"/><path id="path11532" class="cls-9" d="M159.81,262.82c.94.35,4.64,1.08,5.58,1.44"/><path id="path11534" class="cls-9" d="M204.27,230.89c3.88.08,10.9.5,16.33.05A46.4,46.4,0,0,0,231,229.15a42,42,0,0,0,8.53-4.2,23.79,23.79,0,0,0,5.55-4,18.26,18.26,0,0,0,3.53-5.84,31.08,31.08,0,0,0,1.72-8.83,15,15,0,0,0-.15-4.12,9.91,9.91,0,0,0-.59-1.57"/><path id="path11536" class="cls-9" d="M254.56,206.25c-.52,2.75-.52,5.65-1.5,8.28a26,26,0,0,1-4,6.81,30.8,30.8,0,0,1-7.34,7.25c-3.08,2-6.75,2.82-10.26,3.85a74.13,74.13,0,0,1-11.32,2.45c-3.44.45-6.92.37-10.39.48-2.43.08-6.33-.07-7.29.12"/><path id="path11538" class="cls-9" d="M200,241.37c6.06-.62,15.39.29,22.87-1.24,4.12-.85,8-2.68,11.86-4.34a41.64,41.64,0,0,0,6.76-3.34c3.95-2.63,6.74-6.14,10.73-9.34"/><path id="path11540" class="cls-9" d="M198.26,247.61c5.12-.74,13.3-.51,19.69-2.19,5.76-1.51,11-4.65,16.46-7"/><path id="path11542" class="cls-9" d="M197.55,253.71c4.36-1.35,12.23-2.48,18.15-4.41A77.13,77.13,0,0,0,226.1,245c3.8-1.89,7.36-4.25,11-6.48,1.72-1.06,3.41-2.19,5.11-3.29"/><path id="path11544" class="cls-9" d="M196.45,260.09c4.5-1.51,12.78-3.34,19-5.62a137.86,137.86,0,0,0,15.61-7c1.77-.92,3.42-2.06,5.15-3.06"/><path id="path11546" class="cls-9" d="M197,264.69c5.47-2,11.06-2.28,16.37-4.14,4.72-1.66,10.78-5,13.66-6.22"/><path id="path11548" class="cls-9" d="M170.47,233.53a65.87,65.87,0,0,0,9.76,1.1,83.58,83.58,0,0,0,12.15-.78c1.88-.24,3.7-.68,5.55-1"/><path id="path11550" class="cls-9" d="M173,239.52c3.28.22,7.82.54,11.73.43a52,52,0,0,0,10.53-.94"/><path id="path11552" class="cls-9" d="M173.57,245.16c3.13.22,6.27.84,9.4.68,3.78-.19,7.33-1.22,11.17-1.94"/><path id="path11554" class="cls-9" d="M174.22,249.84c3.09,0,7.24.44,10.85.21a32.81,32.81,0,0,0,5-.72c1.2-.25,2.32-.67,3.48-1"/><path id="path11556" class="cls-9" d="M173.57,254c3.58.11,7.16.5,10.74.34,2.93-.13,6.12-.7,8.74-1"/><path id="path11558" class="cls-9" d="M173.13,259.25c3.28,0,6.55.08,9.83,0s6.8-.44,9.58-.67"/><path id="path11560" class="cls-9" d="M171.35,263.83c3.32,0,6.64.11,10,0a104.16,104.16,0,0,0,10.65-.88"/><path id="path11562" class="cls-9" d="M170,267c3.61,0,7.23.16,10.84,0s7.9-.67,11.23-1.13"/></g><path id="path11564" class="cls-14" d="M61.75,232.25a2.18,2.18,0,0,0-2,.87c-.74,1-.42,2.49-.37,3.74a18.68,18.68,0,0,0,.64,3.78c.32,1.35,1,2.6,1.24,4a22.53,22.53,0,0,1,.27,6.4c-.12,1.07-1.06,2.05-.86,3.11a2,2,0,0,0,1.23,1.61c.8.18,1.55-.62,2.19-1.14s1.19-1.65,1.94-2.33c.42-.39,1.1-.5,1.41-1,.56-.85.1-2.09.57-3,.39-.74.93-1.8,1.77-1.78,1.08,0,1.47,1.59,2.18,2.42.52.6,1,1.24,1.51,1.86.9,1.08,1.93,2.07,2.75,3.22,1.27,1.81,1.13,5.38,3.31,5.75.6.1,1.06-.67,1.36-1.19.74-1.26.33-2.93.86-4.28a13.37,13.37,0,0,1,1.61-2.66,23.54,23.54,0,0,1,2.53-3.18c.58-.57,1.44-.86,1.94-1.52a5.87,5.87,0,0,0,1-2.29,26,26,0,0,0,.23-4.5c0-.69-.41-1.6.1-2s1.28-.12,1.81.18c1.88,1.08,2.15,3.9,3.86,5.24a5.85,5.85,0,0,0,3,1.25c.77.07,1.8.12,2.26-.5s.1-1.53-.16-2.22c-.74-2-2.72-3.22-3.8-5a48.2,48.2,0,0,1-3.84-8.08c-1-2.82-1.15-6-2.45-8.68A11.53,11.53,0,0,0,87,216.36,6.44,6.44,0,0,0,84.25,215c-.73-.18-1.83-.62-2.25,0-.91,1.33,1.42,2.92,1.77,4.5a17.66,17.66,0,0,1,.43,6.86,10.15,10.15,0,0,1-1.69,3.92,13.47,13.47,0,0,1-3.41,3.45,13.87,13.87,0,0,1-3.26,1.53,19.15,19.15,0,0,1-5.46,1.47,9.19,9.19,0,0,1-3.85-.6,12.33,12.33,0,0,1-3.44-2.4c-.5-.44-.69-1.34-1.34-1.48Z"/><path id="path11566" class="cls-8" d="M61,244.5c-1.53-.78-3.24,1.34-4.5,2.5-1.78,1.65-2.68,4-4,6.07-.19.28-.25.73-.57.86-.61.24-1.29-.61-1.91-.43-1.61.47-2.57,2.2-3.53,3.56a16.83,16.83,0,0,0-1.78,3.64c-.21.52-.17,1.14-.5,1.59s-1.13.47-1.45,1c-1.11,1.74-.82,4.06-1,6.13-.24.6.51.31.86.38l20.1.24c-.35-1.36-.7-2.73-.92-4.12a59.49,59.49,0,0,1-.58-6.54c-.07-1.57,0-3.15,0-4.72,0-.49-.1-1-.08-1.47,0-.9.33-1.78.36-2.68a29.35,29.35,0,0,0-.22-3.63c-.07-.78.42-2-.28-2.34Z"/><g id="g11568"><path id="path11570" class="cls-9" d="M52.25,253.25c-.84,2.68-1.91,5.3-2.51,8-.28,1.3-.33,2.64-.49,4"/><path id="path11572" class="cls-9" d="M61,253.75A24.34,24.34,0,0,0,57.75,257c-1.25,1.84-1.8,4.06-2.64,6.11-.57,1.37-1.07,2.76-1.61,4.14"/><path id="path11574" class="cls-9" d="M56.75,260.5A24.25,24.25,0,0,1,57.5,264a15.11,15.11,0,0,1-.25,2.21"/><path id="path11576" class="cls-9" d="M94.4,229.05c1.3.59,3,.65,3.89,1.77s-.17,3.35.88,4.42c1.4,1.41,4.45-.19,5.84,1.23,1.16,1.21-.2,3.68.88,4.95,1.43,1.69,4.42,1,6.26,2.2,1.43.95,2.31,2.54,3.46,3.81"/><path id="path11578" class="cls-9" d="M99.35,241.25c2.11,1,4.33,1.75,6.37,2.88A61.33,61.33,0,0,1,113,249a29.15,29.15,0,0,1,3,2.55c2.23,2.2,4.68,4.33,6.18,7.07a14.52,14.52,0,0,1,.89,3"/><path id="path11580" class="cls-9" d="M102.88,246.55c1.65.71,3.88.68,5,2.12,1.27,1.71-.85,4.91.71,6.36,1,1,3.17-.75,4.24.18,1.8,1.58-.52,5.44,1.24,7.07s5.13-.65,7.07.71c1.77,1.24,1.88,3.89,2.83,5.83"/><path id="path11582" class="cls-9" d="M125.33,259.28a48.57,48.57,0,0,1,1.63,5.09,19.91,19.91,0,0,1,.32,4.63"/><path id="path11584" class="cls-9" d="M61.69,259.28A30.57,30.57,0,0,0,64.36,263a14,14,0,0,0,3.51,2.45,37,37,0,0,0,5,1.65"/><path id="path11586" class="cls-9" d="M87.68,251.68c1-1.52,2.36-2.85,3-4.54,1-2.57,1.07-5.43,1.39-8.19"/><path id="path11588" class="cls-9" d="M89.8,254.33a43.3,43.3,0,0,0,3.21-5.6A37.87,37.87,0,0,0,94.22,243"/><path id="path11590" class="cls-9" d="M90.86,258.75c1.46-2.4,3.47-4.55,4.44-7.19.8-2.2.69-4.63,1-6.95"/><path id="path11592" class="cls-9" d="M89.63,264.05c2-2.17,4.52-3.95,6.05-6.48A24.39,24.39,0,0,0,98.31,250a44.38,44.38,0,0,0,.51-5.42"/><path id="path11594" class="cls-9" d="M88.39,268.65c2.66-2.23,5.85-3.93,8-6.65a19.89,19.89,0,0,0,3-6c1.22-3.51,1.47-7.27,2.25-10.9"/><path id="path11596" class="cls-9" d="M99.7,269.36c1.65-2.59,4-4.86,5-7.78s.4-6.13.71-9.19"/><path id="path11598" class="cls-9" d="M104.65,269.53a46.32,46.32,0,0,0,2.33-5.37,43.57,43.57,0,0,0,.85-5.94"/><path id="path11600" class="cls-9" d="M108.54,269.53c.68-2.3,1.21-4.64,1.7-7,0-.14,0-.29.07-.44"/><path id="path11602" class="cls-9" d="M111.37,268.83c.3-1.12.59-2.24.88-3.36"/></g></g></g></g><g id="g11604"><g id="g11606"><path id="path11608" class="cls-4" d="M242.89,270l3.89,6.72,4.6,8.84,3,6.18,3,4.78L270,304.46l8.84-22.1,9.54,14.14,8.31-10.25v-3.54l-.35-2.47v-3l-.53-3-.18-2.12-.71-2.12Z"/><path id="path11610" class="cls-5" d="M266.4,313.48a3.82,3.82,0,0,1-1.89,2.51c-1.17.71-2.68.59-4,.67a14.38,14.38,0,0,1-5.32-.24,8.71,8.71,0,0,1-3.39-2.27c-1.93-2-3-4.67-4.41-7.06-2-3.48-3.52-7.31-5.88-10.59-1.33-1.85-3.42-3.12-4.63-5.06s-1.41-4.25-2.42-6.25a30,30,0,0,0-2.79-4.38c-2.4-3.19-5.27-6-7.89-9-.44-.5-1.65-1.33-.22-1.29,6.57.19,13.15-.11,19.72-.17,1.63,2.95,3.4,5.81,5,8.79,1.2,2.26,2.24,4.6,3.43,6.87,1.85,3.51,3.79,7,5.76,10.4,2.11,3.66,4.62,7.1,6.5,10.89,1,2,2.77,4,2.48,6.19Z"/></g><path id="path11612" class="cls-6" d="M225.21,372.17l7.07-11,2.83-12.37,1.41-9.2V328.33l-2.12-10.25-8.13-10.61-8.49-12-7.42-6.72-6.72-9.19-2.83-5-1.06-4.24-48.08-.41-20.5,12.43-11.32,12-9.19,12-6.36,11.66-9.9,21.21.7,15.56,6.72,13.44,5.3,6.36,9.55-6.36,12-7.07,8.13-2.48,16.27-2.83,14.84-2.12,10.26.71,9.54,1.06,13.08,3.54,6.37,1.41,9.54,5.66Z"/><g id="g11614"><path id="path11616" class="cls-7" d="M189.79,270.63a90.13,90.13,0,0,0,.14,13.55c.19,3.3,1.49,6.44,2.26,9.64a90,90,0,0,0,5.23,13.39c2.06,4.9,5.35,9.23,6.74,14.4,1.32,4,2.83,7.94,3.92,12,.41,4.14.93,8.27.52,12.44a64.54,64.54,0,0,1-1.53,9.76c-.56,1.14-.69,3.11-1.5,3.76a123.71,123.71,0,0,0-19.91-4.64,58.65,58.65,0,0,0-11.51-1.21c-5.3-.18-10.57.66-15.86.92a145.94,145.94,0,0,0-22.25,4c0-3.06-.37-6.17-.12-9.2,1.35-4.25,2.1-8.72,4.37-12.62,1.82-3.63,3.33-7.44,5.91-10.63a141.05,141.05,0,0,0,12.17-20.77c1.39-4,3.21-7.91,3.72-12.16a116,116,0,0,0,1.78-16.32c.2-2.12.74-4.27-.19-6.3-.06-1.13,2.59-.14,3.6-.43l22.51.43Z"/><g id="g11618"><path id="path11620" class="cls-8" d="M96.29,349.88c.71-5.92.55-12,2.14-17.74a69.37,69.37,0,0,1,7.36-16.51c2.31-3.91,5.44-7.28,8.21-10.88,3.06-4,5.91-8.15,9.29-11.87A90.93,90.93,0,0,1,136,280.82c5.32-4,10.83-7.85,17.26-9.87,3.1-.94,1.05-.89-1-.83L52,269.88a53.15,53.15,0,0,0-8.64,16.6,37.79,37.79,0,0,0-1.55,9.7c-.38,6.55.25,13.13.83,19.67.39,4.44,1.08,8.85,1.78,13.25.64,4,1.27,8.06,2.22,12,.78,3.3,1.28,6.68,2.86,9.76,2.05-1.22,3.67-2.94,5.66-4.19a23,23,0,0,1,4.17-2.18A18.34,18.34,0,0,1,66.28,343c1.89.08,3.54,1.37,5.4,1.7,1.54.27,3.16-.11,4.69.2A27.32,27.32,0,0,1,82.15,347c1.86.83,3.47,2.19,5.39,2.88a13,13,0,0,0,4.75,1,17.76,17.76,0,0,0,4-1Z"/><g id="g11622"><path id="path11624" class="cls-9" d="M58.79,342.38a41.93,41.93,0,0,1-2.25-12.61,29.64,29.64,0,0,1,.47-7.1c.48-2.6,2-5,2.35-7.57.48-3.15-.17-6.37,0-9.54a55.44,55.44,0,0,1,1.14-10.13,35.6,35.6,0,0,1,3.93-10.15,26.2,26.2,0,0,1,6.36-7.15c2.69-2.05,6.64-2.17,9.1-4.49,1-1,1.47-2.48,2.15-3.76"/><path id="path11626" class="cls-9" d="M91.29,349.63c.57-9,3.34-17.62,6.5-26"/><path id="path11628" class="cls-9" d="M87.79,348.38c1.28-6,2.43-12.13,4.47-17.94,1.7-4.85,3.58-9.74,6.45-14,2.06-3.06,5-5.47,7.58-8.06"/><path id="path11630" class="cls-9" d="M82.79,347.13c1.35-6,1.72-12.24,3.86-18a62.94,62.94,0,0,1,12.41-19,147.62,147.62,0,0,1,13.27-12.35,97.42,97.42,0,0,1,9.06-6.77c.21-.13.43-.24.65-.36"/><path id="path11632" class="cls-9" d="M53.54,344.63c-1.72-.66-1.1-1.82-1.2-2.84s.65-2.12.64-3.22-.68-2.28-.75-3.46c-.06-1,.68-2.07.28-3-.32-.73-1.8-.66-1.91-1.45-.24-1.65,3.47-2.47,2.94-4.05s-4.46.16-5-1.5c-.68-2.09,4.57-3.12,4-5.25-.44-1.66-4.33-.34-4.75-2-.52-2.07,3.61-2.9,4-5,.22-1.19-1.37-2.29-1.08-3.46s2.18-1.64,2.83-2.8.68-2.83,1-4.25a34,34,0,0,1,.89-4.29c.55-1.51,2.67-2.68,2.31-4.26-.19-.8-1.7-.68-2-1.44-.55-1.32.66-2.79.7-4.22,0-.91.51-2.27-.28-2.73-1.24-.72-3,2.86-3.94,1.74-1.18-1.46,4.24-2.88,3.35-4.54-.79-1.47-4.57,1.86-5,.25-.81-3,8.75-1.2,8.25-4.25-.28-1.66-4.71.91-5-.75-.91-5.14,9.16-5,13.75-7.5"/><path id="path11634" class="cls-9" d="M68,342.13c2.08-1.42,5.5-1.84,6.25-4.25.48-1.54-2.06-2.92-1.75-4.5.24-1.21,2.08-1.55,2.54-2.7s-.78-2.61,0-3.51c1-1.22,3.73.46,4.73-.79,1.35-1.68-1-4.4-.34-6.45s2.73-3.37,4.09-5.05"/><path id="path11636" class="cls-9" d="M62.29,341.88c0-2.33.52-4.73,0-7-.29-1.25-1.33-2.22-1.68-3.45a10.08,10.08,0,0,1-.47-4.35,12.58,12.58,0,0,1,1.7-3.62c.69-1.33,1.65-2.51,2.27-3.87.5-1.09.14-2.77,1.16-3.4,1.21-.75,2.92,1.13,4.22.56,2.12-.91,2-4.49,4.05-5.62s5.27,1.2,6.75-.5c1.2-1.37-.9-3.72-.33-5.44.66-2,3.48-2.8,4-4.81s-2-4.41-1-6.25,4.57-.78,5.75-2.5-1.28-4.72.25-6,4,1.87,5.5.75c2.07-1.58-1.33-6.6,1-7.75,1.64-.81,3,3.32,4.75,2.75,2-.65.44-5.42,2.5-5.75,1.87-.29,1.88,4.48,3.75,4.25,2.15-.26,1-4.95,3-5.75,1.35-.54,2.71,1.71,4.12,1.39,2.65-.59,3.92-3.76,5.88-5.64"/><path id="path11638" class="cls-9" d="M83.79,314.63c-.5-2.42-2.76-5.13-1.5-7.25.89-1.49,3.91-.15,5-1.5,1.31-1.63-.81-4.62.5-6.25s4.3-.37,5.75-1.75.56-4.19,2-5.5,4.87.28,5.75-1.5c.76-1.54-3.2-3.52-2-4.75.81-.83,2.25,1.85,3.25,1.25s-.62-3.25.5-4c1.3-.86,3.13,2,4.5,1.25,1.16-.62.83-2.5,1.25-3.75"/><path id="path11640" class="cls-9" d="M89.79,305.13a92.71,92.71,0,0,0,8.73-5.49c3.8-2.72,7.32-5.8,10.88-8.82,3.8-3.23,7.33-6.75,11.17-9.92,4.05-3.36,8.43-6.31,12.49-9.66.34-.27.65-.57,1-.86"/><path id="path11642" class="cls-9" d="M143.79,270.38c-4.36,2.89-9.14,5.05-13.61,7.75-2.49,1.51-5,3-7.35,4.71-3.62,2.69-6.89,5.82-10.29,8.79"/><path id="path11644" class="cls-9" d="M59,319.13c1.24-.94,1.81-2.32,2.71-3.49a26.14,26.14,0,0,1,2.33-3.1c.89-.87,2.1-1.36,3-2.19s1.44-2.07,2.48-2.72,2.69-.09,3.47-1-.25-2.67.5-3.63,2.61-.34,3.29-1.3-.3-2.32.13-3.36c.53-1.26,2-1.92,2.81-3s1.6-2.51,2.43-3.75a26.93,26.93,0,0,0,2.52-3.71c.78-1.8-.13-4.4,1.3-5.75,1.13-1.06,3.39.25,4.59-.74,1.78-1.47.44-5.29,2.41-6.51,1.35-.84,3.25,1,4.75.5,1.23-.44,1.58-2.25,2.77-2.78,1.35-.6,3.09.4,4.42-.23.7-.34,1-1.16,1.56-1.74"/><path id="path11646" class="cls-9" d="M65.54,336.88c.13-2.73-.47-5.57.18-8.23a26.57,26.57,0,0,1,4.1-8.21,45.57,45.57,0,0,1,4.47-5.06"/><path id="path11648" class="cls-9" d="M59.79,311.38c1.47-.83,1.89-2.42,2.76-3.68s1.19-2.66,2.27-3.57,2.82-.77,3.91-1.67c2.64-2.17,3.44-6,5.77-8.48,1-1.12,2.79-1.55,3.58-2.86,1-1.63.28-3.88,1.06-5.62a22.81,22.81,0,0,1,6.15-8.12c1.34-1.12,3.29-1.29,4.66-2.38,1.66-1.32,2.73-3.25,4.09-4.87"/><path id="path11650" class="cls-9" d="M45.79,308.13c.4-2.48,1.56-4.95,1.37-7.47-.15-2.05-1.71-3.8-2-5.83-.74-5.36.61-10.8.88-16.2"/></g></g><path id="path11652" class="cls-10" d="M149.54,433.38c1.51-2.93,2.38-6.26,4.38-8.89a36.92,36.92,0,0,1,8.83-7.93,26.34,26.34,0,0,1,7.95-4c3.07-.81,6.9-1.43,9.5-.47.41-5.82-.75-3.66-.76-5.51s-.13-4.13.76-5.91a10.23,10.23,0,0,1,4-4c3-1.78,6.61-2.1,9.94-3,3.67-1,7.61-1.28,11.08-2.86a30.18,30.18,0,0,0,8.81-6,32.86,32.86,0,0,0,7.67-11c.5-1.43-2-2.26-3.22-3.17a60.06,60.06,0,0,0-13-7.52,72.32,72.32,0,0,0-12.32-3.52A102.68,102.68,0,0,0,176,356.67a129.31,129.31,0,0,0-26,1.59,86.09,86.09,0,0,0-17.72,4.35,57.44,57.44,0,0,0-9.85,5.24c-4.1,2.59-8.32,6-11.73,8.61,2.27,2.91,1.82,1.82,2.5,2.89,2.76,4.42,2.16,11,6.17,14.35.9.74,2.33.35,3.43.75a29.39,29.39,0,0,1,4.27,2.23c1.54.86,3.52,1.27,4.51,2.72,1.8,2.64.61,6.42,1.62,9.45a22.15,22.15,0,0,0,2.29,4.43,14.61,14.61,0,0,0,2.56,3.55c1.73,1.53,4.71,1.45,6.08,3.31s.77,4.33,1.27,6.47.6,7.83,1.63,6l2.5.75Z"/><path id="path11654" class="cls-11" d="M207.29,485.88c1.63-1.35,1-4.13,1.18-6.24a29.27,29.27,0,0,0-.36-7.48c-.29-1.57-1.72-2.94-1.54-4.52.27-2.28,2.46-3.86,3.66-5.82,1-1.7,2.74-3.17,3.06-5.13.56-3.48-3-6.88-2.25-10.32.32-1.53,2.25-2.3,2.8-3.77a8.87,8.87,0,0,0,.36-5.07c-.39-1.62-2.18-2.65-2.62-4.26a9.55,9.55,0,0,1,.07-4.22c.33-1.78,1.54-3.31,1.89-5.08a16.91,16.91,0,0,0,.23-6.79,12.35,12.35,0,0,0-3-5.89c-.88-.92-3-.61-3.35-1.85-.39-1.52,2.12-2.45,2.54-4,.75-2.64-.73-5.54-.17-8.22.37-1.77,2.68-3.16,2.3-4.93a3.84,3.84,0,0,0-2.92-2.49c-4.29-1-8.51,2.23-12.75,3.39-4.5,1.23-9.75,1-13.49,3.8-1.67,1.26-2.58,3.37-3.32,5.33-1.27,3.31,1,8.34-1.82,10.47-1.44,1.09-3.59-.68-5.39-.59a18.38,18.38,0,0,0-7.45,1.62c-2.19,1.14-3.8,3.19-5.46,5a68.55,68.55,0,0,0-5.9,8c-1.48,2.21-1.44,6.67-4.08,6.84-1.75.12-2.42-2.59-3.27-4.12a8.43,8.43,0,0,1-1.45-4.12c.07-2.22,2.75-3.91,2.62-6.13a4.49,4.49,0,0,0-1.77-3c-1.12-.87-3.24-.06-4.09-1.19s.65-3,0-4.22c-.53-1-2.18-.89-2.77-1.83-.94-1.49-.43-3.49-.73-5.23s.2-4.25-1.19-5.52c-2.17-2-6.12.23-8.76-1.08-1.29-.64-1.64-2.7-3-3.09s-3.13.35-4.46,1.11a6.23,6.23,0,0,0-2.77,2.88c-2.11,5.46-.19,11.74.56,17.54a97.92,97.92,0,0,0,4,17.57c1.41,4.31,4.58,8,5.36,12.49.42,2.41-.64,4.89-.44,7.32a27.06,27.06,0,0,0,1.2,5.24A29.93,29.93,0,0,0,131,465c.85,1.47,2.37,2.47,3.3,3.89,1.71,2.62,2.18,6,4.09,8.45a12.7,12.7,0,0,0,3.94,3.35c1.22.66,2.74.58,4,1.17,2.11,1,3.55,3.3,5.79,3.95,1.9.56,4-.63,5.95-.18,1.37.32,2.34,1.83,3.74,2,1.7.19,3.24-1.45,4.95-1.35,1.53.09,2.81,1.24,4.27,1.72,2,.65,4.09,2.06,6.13,1.53,1.46-.37,1.87-2.64,3.31-3.08,2.07-.63,4.27.83,6.43,1s4.06,0,6.09.13c2.7.2,5.42,1.64,8.06,1,1.7-.39,2.69-2.44,4.39-2.88a6.32,6.32,0,0,1,1.88.12Z"/><g id="g11656"><path id="path11658" class="cls-12" d="M119.79,475.38a15.45,15.45,0,0,1-3.57,4.82,37.3,37.3,0,0,1-4.42,3.93c-2.37,1.19-2.28,2.3-4.76,3.25-1.85.07-1.93,2.39-.51,2.35,3.35,1.12,8.44,1,11.91,1.61-.37,2-4.89,5.36-8.15,7.29.93.88,2.09.76,3.27.61,3.4-.25,6.81-.42,10.23-.36-.42,1.75-3.06,3.51-4,5-1,1.12-2.59,2.38-3.25,3.73a19.38,19.38,0,0,0,6.5-.25,37.29,37.29,0,0,0,6.5-1.25,18,18,0,0,1-2.25,3.25h26.5c-3-1.37-6.16-2.4-9-4-2.43-1.66-5.06-3.08-7.37-4.89-2.86-2.94-6-5.66-8.34-9.05a54.06,54.06,0,0,1-5.53-8.12c-1.71-2.42-2.58-5.24-3.74-7.94Z"/><path id="path11660" class="cls-12" d="M101,489a2.64,2.64,0,1,1,2.63,2.37A2.51,2.51,0,0,1,101,489Z"/><path id="path11662" class="cls-12" d="M106.67,499.63a2.64,2.64,0,1,1,2.62,2.37A2.5,2.5,0,0,1,106.67,499.63Z"/><path id="path11664" class="cls-12" d="M113.42,507.63A2.64,2.64,0,1,1,116,510,2.5,2.5,0,0,1,113.42,507.63Z"/></g><path id="path11666" class="cls-13" d="M118.29,478.38c.79,2,1.37,4,2.35,5.9a48.06,48.06,0,0,0,4.77,7.23,83.61,83.61,0,0,0,9.3,10.24,35.53,35.53,0,0,0,3.71,2.86c2,1.39,4,2.7,6.1,3.89.74.41,1.51.75,2.27,1.13"/><g id="g11668"><path id="path11670" class="cls-10" d="M194.58,489.37c1.24-.51,2.7-.92,3.5-2,1.08-1.44.86-3.49,1.25-5.25.61-2.74,1.12-5.5,1.71-8.24a16.18,16.18,0,0,0,.5-2.25c.12-1.84-.42-3.66-.5-5.5-.06-1.25,0-2.5,0-3.75s-.19-2.33-.25-3.5c-.11-1.92-.21-3.83-.25-5.75-.06-2.84.16-5.67,0-8.5a40.31,40.31,0,0,0-.75-6.5,37,37,0,0,0-2.5-7.25,49.61,49.61,0,0,0-5-8.5,40.25,40.25,0,0,0-4.5-5,21.26,21.26,0,0,0-4.75-4,19,19,0,0,0-7-1.75,18.73,18.73,0,0,0-7,.5,13.1,13.1,0,0,0-2.25,1.25,44.84,44.84,0,0,0-5,2.5,25.56,25.56,0,0,0-3.36,3.14,37.62,37.62,0,0,0-3.75,4,44.68,44.68,0,0,0-4.14,7.56,21.71,21.71,0,0,0-1.5,4,12.33,12.33,0,0,0-.5,4.25c.14,1.24,1.23,2.27,1.25,3.5,0,1.85-1,3.56-1.75,5.25-.63,1.48-2,2.67-2.25,4.25a8.88,8.88,0,0,0,.75,4,38.21,38.21,0,0,0,2,4.25,26.27,26.27,0,0,0,1.25,2.75c.42.72,1.19,1.23,1.5,2,.53,1.33.11,2.88.5,4.25s1.43,2.41,1.75,3.75c.68,2.84-.75,6,.29,8.75.7,1.82,2.32,3.17,3.75,4.5a14,14,0,0,0,4.25,3c1.41.53,3,.27,4.5.5,1.26.19,2.48.62,3.75.75,2.32.23,4.67-.05,7,0s4.5.21,6.75.25c1.08,0,2.17,0,3.25,0a29.4,29.4,0,0,0,3.75-.25,17.3,17.3,0,0,0,3.75-1Z"/><g id="g11672"><path id="path11674" class="cls-9" d="M200.79,470.88c-2.11.11-4.25.9-6.32.46a5.92,5.92,0,0,1-3.18-1.71,9.45,9.45,0,0,1-2-5.08c-.49-3.78.58-7.62,1.36-11.37.3-2.6,1.6-4.95,2-7.54.19-1.17-.16-3.1-1.53-3.31-1.53-.57-2.61-2.23-4.39-2.18-.94.24-2.89-.27-2.61,1.28,1,.49,1,1.7-.27,1.72a2,2,0,0,1-2-1.31,3.2,3.2,0,0,0-3.44,1.07c-.29.82-1.19,1.7-.39,2.49l.56,1"/><g id="g11676"><path id="path11678" class="cls-9" d="M177,468.13a12.45,12.45,0,0,1-2.25,2.75,9.29,9.29,0,0,1-3.5,1.25,20.8,20.8,0,0,1-4.25.25,17.66,17.66,0,0,1-3.25-.25,15.94,15.94,0,0,1-2.5-.75c-.77-.28-1.51-.65-2.25-1s-1.65-.86-2.5-1.25c-.58-.27-1.75-.75-1.75-.75"/><path id="path11680" class="cls-9" d="M177.54,462.13s-2.21,2.75-3.75,3.5a8.86,8.86,0,0,1-3.25.5c-1,.08-2,0-3,0a17.8,17.8,0,0,1-3.5,0,9,9,0,0,1-3-1.25,13.33,13.33,0,0,1-2.5-2.25c-.37-.39-1-1.25-1-1.25"/></g></g><g id="g11682"><path id="path11684" class="cls-14" d="M175.79,461.63a12.27,12.27,0,0,1-1.9.75,15.71,15.71,0,0,1-3,.25,25.44,25.44,0,0,1-4,0,23.15,23.15,0,0,1-3.25-.75,21.77,21.77,0,0,1-2.5-.75c-.52-.21-1-.58-1.5-.75a11,11,0,0,0-1.85-.25,18.3,18.3,0,0,0,2.91-.85c.93-.44,1.66-1.23,2.56-1.72a17.81,17.81,0,0,1,4.88-1.68,8.19,8.19,0,0,1,2.75,0,8.56,8.56,0,0,1,2.75,1.25,5.68,5.68,0,0,1,1.5,1.25,3.6,3.6,0,0,1,.75,1.5,6.37,6.37,0,0,1-.1,1.75Z"/><path id="path11686" class="cls-15" d="M165.63,459a3.11,3.11,0,0,1,6.19,0h0a3.11,3.11,0,0,1-6.19,0Z"/></g><path id="path11688" class="cls-16" d="M168.11,459.59a1,1,0,0,1,1-1,1,1,0,0,1,1,1v0a1,1,0,0,1-1,1,1,1,0,0,1-1-1S168.1,459.59,168.11,459.59Z"/><path id="path11690" class="cls-9" d="M200.26,464a10.76,10.76,0,0,1-2.16,1.58,9.5,9.5,0,0,1-3.74.59,6.34,6.34,0,0,1-2-.4,6.82,6.82,0,0,1-1.77-1,9.45,9.45,0,0,1-1-1"/><path id="path11692" class="cls-14" d="M200.26,460.08l-1.57,1.57c-1.07.11-2.13.2-3.19.37-.52.07-1,.17-1.56.21-.72-.26-1.44-.51-2.16-.79L190,460.27c.21-.52.39-1.07.62-1.59.59-.52,1.17-1.05,1.77-1.56l2.33-1.17,2.56.19c.6.41,1.2.79,1.79,1.21.33.38.64.8,1,1.16l.57.19-.4,1.38Z"/><path id="path11694" class="cls-17" d="M193.23,459a2.51,2.51,0,1,1,5,0h0a2.51,2.51,0,1,1-5,0Z"/><path id="path11696" class="cls-18" d="M195.11,459.4a.92.92,0,1,1,1.84,0v0a1,1,0,0,1-.91,1,1,1,0,0,1-.93-1Z"/><path id="path11698" class="cls-19" d="M190.62,432.94c.16.81-.19,2.13-1.14,2.21s-1,1.16-2,1.19a2.48,2.48,0,0,1-2.66-.4,3.43,3.43,0,0,0-3,.53c-.55.46-2.39-.28-2.71-.81a11.11,11.11,0,0,0-2.91-1.34,1.72,1.72,0,0,1-1.42-2.29c.48-.65.62-.52,1.22-.95.89-.41,2.73-.4,3.06-1.31.55-1.13.89-.6,1.91-1.34.85-.56,1.87-.07,2.8-.16a6.42,6.42,0,0,1,2.27.18,5.07,5.07,0,0,1,2.33,1.7,8.8,8.8,0,0,0,1.24,1.83c.34.29.84.49,1,1Z"/><path id="path11700" class="cls-9" d="M190,433.53a7.31,7.31,0,0,1-2.36.2c-.86-.22-1.47-1-2.23-1.43a3.19,3.19,0,0,0-1-.54,1.83,1.83,0,0,0-1,.2c-.44.18-.74.65-1.2.8a3.38,3.38,0,0,1-1.31.08c-.49,0-.95-.28-1.44-.27s-1.13.37-1.72.36-.94-.34-1.43-.37a7,7,0,0,0-1.28.18"/><path id="path11702" class="cls-8" d="M187.29,509.38c2.25-.06,4.72-2.89,6.75-4.75a17.13,17.13,0,0,0,4-4.75c.5-1,.26-2.25.75-3.25a16.36,16.36,0,0,1,3.25-4c1-1,2.34-1.66,3.25-2.75s2.26-2.18,2-3.5c-.18-.93-1.33-1.52-2.25-1.75a5,5,0,0,0-3,.5,6.3,6.3,0,0,0-1.75,1.25c-.57.52-.92,1.24-1.5,1.75a2.1,2.1,0,0,1-.75.5,1.56,1.56,0,0,1-1,0c-.83-.31-1.2-1.36-2-1.75a4.43,4.43,0,0,0-2.75-.5c-1.39.3-2.46,1.45-3.5,2.41-.39.37-.47,1.2-1,1.25-1.41.14-1.92-2.26-3.25-2.75a5.2,5.2,0,0,0-3,0,7.79,7.79,0,0,0-2.25,1.25c-.54.37-1,.87-1.5,1.25a2.46,2.46,0,0,1-.75.5,3,3,0,0,1-2.5,0c-.43-.3-.18-1.08-.5-1.5a4.82,4.82,0,0,0-2.25-1.5A8.79,8.79,0,0,0,168,487a7.77,7.77,0,0,0-3.25,1c-.74.49-.86,2-1.75,2s-1.11-1.63-1.75-2.38a8.87,8.87,0,0,0-2.5-2.53,5.83,5.83,0,0,0-2.25-.25,6.88,6.88,0,0,0-2.75,0c-.72.27-1,1.58-1.75,1.5-1.48-.14-1.6-2.56-2.75-3.5a5.7,5.7,0,0,0-2-1,7.11,7.11,0,0,0-2.25-.25c-.42,0-.83.29-1.25.25a1.66,1.66,0,0,1-1.25-.5c-.33-.48.15-1.19,0-1.75a3.71,3.71,0,0,0-1-1.75,6.34,6.34,0,0,0-2.5-1.25,7.32,7.32,0,0,0-1.75-.25c-.25,0-.58.19-.75,0-.5-.56.24-1.49.25-2.25a21.13,21.13,0,0,0-.25-2.75c-.13-1.05.1-2.26-.5-3.12a3.21,3.21,0,0,0-1.75-1c-.56-.2-1.36.19-1.75-.25-1-1.2.23-3.19,0-4.75a6.07,6.07,0,0,0-.75-2.5,3.15,3.15,0,0,0-1.5-1.25c-.47-.17-1,.19-1.5,0a1.65,1.65,0,0,1-1-1c-.18-.77.69-1.47.75-2.25a7.71,7.71,0,0,0-.25-1.5c-.14-1.25-.21-2.5-.25-3.75,0-1,.11-2,0-3-.21-1.87-.87-3.66-1.25-5.5a21.24,21.24,0,0,0-.75-4c-.68-1.64-2.25-2.78-3-4.38-.92-2-1.14-4.17-1.75-6.25-1-3.26-2.49-6.39-3-9.75-.35-2.31,0-4.67,0-7,0-3.08-.55-6.18-.25-9.25.2-2.05,1.54-4,1.37-6-.19-2.32-1.78-4.3-2.62-6.47-.7-1.82-1.16-3.73-2-5.49a70.85,70.85,0,0,0-4.25-7.1c-1-1.61-2.07-3.19-3.15-4.75-.91-1.32-1.88-2.6-2.81-3.91-1.36-1.95-2.88-3.81-4-5.88a52.2,52.2,0,0,1-3.17-7.18c-.51-1.37-.09-3.36-1.3-4.18-1.73-1.18-4.31-.25-6.28.49-.39.15-.61.9-1,.75-.79-.3,0-1.81-.5-2.5a3,3,0,0,0-1.75-1,5.79,5.79,0,0,0-1.5,0c-.66,0-1.5.45-2,0s.18-1.78-.25-2.5a2.83,2.83,0,0,0-2.25-1.5c-.53,0-.8.71-1.25,1s-1,.9-1.5.75c-.75-.21-.59-1.57-1.25-2a4.33,4.33,0,0,0-3.25-.5,3.84,3.84,0,0,0-1.75,1.25c-.33.36-.26,1.2-.75,1.25-1.81.19-2-3.34-3.75-4a4.47,4.47,0,0,0-3,.25,7,7,0,0,0-2.5,1.75c-.21.21-.2.68-.5.75-.47.11-.8-.56-1.25-.75a4.42,4.42,0,0,0-2-.5,3.74,3.74,0,0,0-2.25,1,5.55,5.55,0,0,0-1.5,3.25c0,.42.55.95.25,1.25s-.83-.32-1.25-.25a4.15,4.15,0,0,0-2.25,1.25,4.36,4.36,0,0,0-1,2c-.17.73.51,1.69,0,2.25s-2.09-.48-2.5.25c-1.8,3.26,3.1,6.79,5,10a89.71,89.71,0,0,0,6.25,9c2,2.52,4.24,4.77,6.25,7.25s3.86,5,5.75,7.5c2.44,3.23,4.74,6.57,7.25,9.75s5.3,6.37,8,9.5c1.89,2.19,3.77,4.39,5.75,6.5,1.7,1.8,3.73,3.3,5.25,5.25a50.33,50.33,0,0,1,4.5,7.5c1.39,2.6,2.49,5.34,3.75,8a51.9,51.9,0,0,1,3,6.25c.6,1.85.48,3.88,1,5.75a38.42,38.42,0,0,0,1.75,4.5c.94,2.2,2.21,4.25,3,6.5.69,1.94,1,4,1.5,6,.25,1,.46,2,.75,3a55.86,55.86,0,0,0,2,5.75c.51,1.2,1.19,2.32,1.75,3.5,1.72,3.56,2.91,7.4,5,10.75a65.23,65.23,0,0,0,7.5,9.25,53.81,53.81,0,0,0,6.75,6.5,33.41,33.41,0,0,0,5.5,3.25c1.61.79,3.4,1.2,5,2s2.86,2.79,4.5,2.75c12.51-.34,21.07-.16,33.25-.5Z"/></g><path id="path11704" class="cls-13" d="M200.46,494.85c-6.46,2.88-13.62,3.68-20.61,4.25a46.6,46.6,0,0,1-13.08-.52c-4.78-1-9.24-3.15-13.68-5.14-5.31-2.39-11.35-4-15.45-8.12-2.57-2.59-3.46-6.43-5-9.72-1.34-2.77-2.52-5.62-3.77-8.44-1-2.2-2-4.38-3-6.61-1.24-2.95-2.91-5.79-3.51-8.93-.56-3,.58-6.13,0-9.09-.54-2.64-2.18-4.92-3.13-7.43-.82-2.18-1.58-4.4-2.23-6.64-.87-3-1.37-6-2.23-9-1.95-6.78-5.22-13.18-6.66-20.08-.66-3.18-.23-6.51-.87-9.69-.68-3.41-1.39-7-3.16-10-1.49-2.53-4.13-4.17-6.07-6.38-1.62-1.85-2.66-4.27-4.63-5.74-1.53-1.13-3.62-1.22-5.28-2.13a60.47,60.47,0,0,1-5.68-4c-2.37-1.68-4.33-4.21-7.11-5-2-.59-4.22.66-6.27.26-2.94-.57-5.22-3.23-8.17-3.69-2.49-.4-5,.84-7.51.83-1.17,0-2.16-.66-3.48-.39"/><g id="g11706"><g id="g11708"><path id="path11710" class="cls-20" d="M182.37,393.27a2.62,2.62,0,0,1,5.24,0h0a2.62,2.62,0,0,1-5.24,0Z"/><path id="path11712" class="cls-21" d="M177.25,389.54a3,3,0,0,1,6,0h0a3,3,0,0,1-6,0Z"/><path id="path11714" class="cls-22" d="M171,387.2a3.07,3.07,0,0,1,6.12,0h0a3.07,3.07,0,0,1-6.12,0Z"/><path id="path11716" class="cls-23" d="M163.94,386.2a3.19,3.19,0,1,1,6.37,0h0a3.19,3.19,0,1,1-6.37,0Z"/><path id="path11718" class="cls-24" d="M157.77,387.32a3,3,0,0,1,6,0h0a3,3,0,0,1-6,0Z"/><path id="path11720" class="cls-25" d="M151.93,389.68a2.75,2.75,0,1,1,5.5,0h0a2.75,2.75,0,1,1-5.5,0Z"/><path id="path11722" class="cls-26" d="M146.82,393a3,3,0,0,1,6,0h0a3,3,0,0,1-6,0Z"/><path id="path11724" class="cls-27" d="M142,396.56a2.94,2.94,0,0,1,5.87,0h0a2.94,2.94,0,0,1-5.87,0Z"/><path id="path11726" class="cls-28" d="M138.08,400.72a2.94,2.94,0,0,1,5.88,0h0a2.94,2.94,0,0,1-5.88,0Z"/></g><g id="g11728"><path id="path11730" class="cls-9" d="M197.85,496a6.62,6.62,0,0,0-.71-1.94,3.5,3.5,0,0,0-1.62-1.07,5.06,5.06,0,0,0-2.12-.16,4.13,4.13,0,0,0-2.44.69c-.74.69-.68,1.9-1.06,2.83"/><path id="path11732" class="cls-9" d="M189.88,497.93a6.62,6.62,0,0,0-.71-1.94,3.5,3.5,0,0,0-1.62-1.07,5.06,5.06,0,0,0-2.12-.16,4.13,4.13,0,0,0-2.44.69c-.74.69-.68,1.9-1.06,2.83"/><path id="path11734" class="cls-9" d="M181.54,498.07a6.62,6.62,0,0,0-.71-1.94,3.5,3.5,0,0,0-1.62-1.07,5.06,5.06,0,0,0-2.12-.16,4.13,4.13,0,0,0-2.44.69c-.74.69-.68,1.9-1.06,2.83"/><path id="path11736" class="cls-9" d="M173.18,497.62a6.62,6.62,0,0,0-.71-1.94,3.5,3.5,0,0,0-1.62-1.07,5.06,5.06,0,0,0-2.12-.16,4.13,4.13,0,0,0-2.44.69c-.74.69-.68,1.9-1.06,2.83"/><path id="path11738" class="cls-9" d="M165.23,497.44a6.58,6.58,0,0,0,.15-2.06,3.55,3.55,0,0,0-1-1.64,5.07,5.07,0,0,0-1.87-1,4.14,4.14,0,0,0-2.52-.36c-.95.32-1.39,1.46-2.12,2.15"/><path id="path11740" class="cls-9" d="M157.4,494.08a6.9,6.9,0,0,0,.1-2.07,3.48,3.48,0,0,0-1.1-1.6,5.07,5.07,0,0,0-1.89-1,4.12,4.12,0,0,0-2.52-.3c-1,.35-1.35,1.5-2.07,2.21"/><path id="path11742" class="cls-9" d="M149.67,491.37a6.9,6.9,0,0,0,.1-2.07,3.48,3.48,0,0,0-1.1-1.6,5.07,5.07,0,0,0-1.89-1,4.12,4.12,0,0,0-2.52-.3c-.95.35-1.35,1.5-2.07,2.21"/><path id="path11744" class="cls-9" d="M142.17,487.9A6.63,6.63,0,0,0,143,486a3.5,3.5,0,0,0-.45-1.89,5,5,0,0,0-1.43-1.58,4.15,4.15,0,0,0-2.25-1.16c-1,0-1.79.91-2.71,1.32"/></g></g><g id="g11746"><path id="path11748" class="cls-29" d="M275.12,359.72l-6.88,7.5L263.87,372l-3.13,4.87-3.25,5.25-3.75,5.25-2.75,4-4.75,4.75-2.25,3-2,1.75-1.5,1,5.25,2.75,2-4.75,1-3.5,1-2,4-5.5,4.63-6.5,3.5-5.5,3.37-5,5-5,5.25-4.75Z"/><g id="g11750"><g id="g11752"><path id="path11754" class="cls-30" d="M255.24,384.84c-1.52,1.32-2.77,3-4.32,4.24a13.56,13.56,0,0,1-3.17,2.13,8.62,8.62,0,0,1-4,.83c-1.34-.11-2.49-1.15-3.81-1.47-1.53-.36-3.27.27-4.69-.45a5.68,5.68,0,0,1-2.36-2.53,13.71,13.71,0,0,1-1.08-5.88,8.77,8.77,0,0,1,.61-3.85,10.45,10.45,0,0,1,2.69-2.9,11.71,11.71,0,0,0,1.44,3.93,7.45,7.45,0,0,0,2.87,2.1,11.13,11.13,0,0,0,3.77,1,12.71,12.71,0,0,0,2.81-.2c1-.14,2-.82,3.05-.6,1.37.3,2.29,1.78,3.54,2.47.86.48,1.79.75,2.68,1.16Z"/><path id="path11756" class="cls-30" d="M258.87,380.09a50.12,50.12,0,0,0-1.79,5,54.5,54.5,0,0,0-2.06,7.61,9.17,9.17,0,0,0-.13,2.86,13.75,13.75,0,0,0,2.35,6.37,8.06,8.06,0,0,0,3.88,2.63c2.59.78,5.42-.21,8.13,0,1.4.09,2.8.77,4.19.54a5.63,5.63,0,0,0,2.71-1.36,5.72,5.72,0,0,0,1.34-2c-1.4-.1-2.9.27-4.23-.21a6.93,6.93,0,0,1-3.06-2.29c-1.37-1.75-1.17-4.42-2.58-6.13-.7-.85-1.94-1.08-2.73-1.84a22.49,22.49,0,0,1-3.95-5.38,22.88,22.88,0,0,1-1.73-4.3c-.15-.48-.23-1-.34-1.48Z"/><path id="path11758" class="cls-30" d="M268.87,367.59a22,22,0,0,0-4.08,1.72c-1.51,1.06-2.48,2.73-3.75,4.06-1.08,1.13-2,2.51-3.28,3.32a10.77,10.77,0,0,1-3.81,1.22c-2.49.44-5.17,1.07-7.58.3a9.18,9.18,0,0,1-3.79-2.91,9.08,9.08,0,0,1-1.59-2.66,14.35,14.35,0,0,1-.62-3c-.12-.77-.07-1.56-.25-2.32,1,.37,2,1.13,3.13,1.23a8.52,8.52,0,0,0,3.25-.61c.88-.27,1.63-.89,2.53-1.1,2-.46,4.13.26,6.09-.28,1.14-.3,2-1.35,3.13-1.64a15.45,15.45,0,0,1,6.06-.13,19.17,19.17,0,0,1,3.93,1.27l.63,1.5Z"/><path id="path11760" class="cls-30" d="M271.74,366.46a16.55,16.55,0,0,1-2.5,4c-1.15,1.57-2.72,2.81-3.81,4.42a9.45,9.45,0,0,0-1.94,3.69,7.38,7.38,0,0,0,.66,3.71,9.76,9.76,0,0,0,2.07,3.35,18.72,18.72,0,0,0,4,2.65c.93.55,2,.9,2.86,1.52a20,20,0,0,1,4.57,4c.49.66,1.42,1.22,1-.06a19.47,19.47,0,0,0-.6-3.56c-.44-2.2-1-4.37-1.48-6.57-.38-1.89-.73-3.79-1-5.71a12.9,12.9,0,0,0-.3-2.57c-.43-1.18-1.57-2-2.11-3.13a18.92,18.92,0,0,1-1.42-4.85c-.05-.31.27-.93-.05-1Z"/></g><path id="path11762" class="cls-19" d="M246.36,412.74c1.79.79,4.23-.25,5.65-1.59a2.93,2.93,0,0,0,.67-1.95,3.59,3.59,0,0,0-.49-2.3,6.25,6.25,0,0,0-2.83-1.63c-1.35-.56-2.85-.66-4.21-1.17-2.09-.8-4-2-6-2.93-1.06-.47-2.05-1.51-3.19-1.34a2.55,2.55,0,0,0-1.53,1.29,3.17,3.17,0,0,0-.48,1.82,4.39,4.39,0,0,0,.7,1.89c.43.72,2.18,1.24,1.66,1.9-.28.35-.88-.31-1.19-.64-.72-.77-.65-2-1.28-2.9a3.91,3.91,0,0,0-1.69-1.41,7.17,7.17,0,0,0-3.62.06,3.46,3.46,0,0,0-1.94.64c-.89.88-.91,2.34-1.24,3.54a17.26,17.26,0,0,0-.81,4.13,5.55,5.55,0,0,0,.25,1.76,4.16,4.16,0,0,0,.82,1.75c.27.26.7.29,1,.49s1.37.53,1.12.94c-.86,1.43-3-1.74-4.63-1.88-.62,0-1.51-.12-1.84.41-.59,1,.45,2.23.83,3.3.58,1.65,1.64,3.1,2.19,4.75.29.89.21,1.89.58,2.75a7.13,7.13,0,0,0,2.11,3.11,2.11,2.11,0,0,0,1.39.41,3.1,3.1,0,0,0,1.75-.84,4.2,4.2,0,0,0,1-1.89c.3-1,0-2.16.21-3.22.08-.44-.06-1.38.38-1.29,1.13.22-.35,2.28-.33,3.43a10.19,10.19,0,0,0,.39,2.74,7.35,7.35,0,0,0,1.33,2.84,4.91,4.91,0,0,0,2.21,1.42,8.58,8.58,0,0,0,4.33.11,5.06,5.06,0,0,0,2.47-1.25,2.89,2.89,0,0,0,.7-1.46,4.6,4.6,0,0,0,0-1.92,8.82,8.82,0,0,0-1.05-2.7c-.47-.8-2.4-1.51-1.74-2.16.19-.18.43.31.59.51.58.7.76,1.66,1.31,2.39a13.53,13.53,0,0,0,2.63,2.66,5.34,5.34,0,0,0,1.76,1,2.05,2.05,0,0,0,1.52,0c1-.58,1.15-2,1.65-3,.8-1.67,1.34-3.45,2.13-5.12a19.58,19.58,0,0,0,1.51-2.86,2.68,2.68,0,0,0,.1-1.65,5.13,5.13,0,0,0-2.68-2.42c-1.27-.58-3.35-1.66-4.15-.52Z"/><path id="path11764" class="cls-31" d="M234,414.42a4.07,4.07,0,0,1,8.13,0v0a4.07,4.07,0,0,1-8.13,0Z"/></g></g><g id="g11766"><path id="path11768" class="cls-10" d="M296.1,307.29c1.2,7.59,2.75,15.14,3.49,22.8.74,2.1,2.06,4,3,6.09,1.46,2.24,1.27,5,2.17,7.47a6.73,6.73,0,0,0,2.26,3.6c1.15.75,2.6,1.2,3,2.65,1.36,2.3,2.31,4.8,3.73,7.06.2,1.41.84,2.83.15,4.2-.78,3.08-2,6-3,9.06a21.87,21.87,0,0,1-.36,5.3,3.24,3.24,0,0,1-3-1.08c-1.36-.75-1.55-2.45-2.3-3.69a27,27,0,0,1,.18-7.78,13.27,13.27,0,0,1-5.11,1.67,12.94,12.94,0,0,1-5.32-.43c-.18,1,.36,2.44-.3,3.19a6,6,0,0,1-5,1.26,12.1,12.1,0,0,1-5-.92c-.11,1.11.12,2.44-1.25,2.75a5.51,5.51,0,0,1-3.34.9,3.56,3.56,0,0,1-2.48-1.88,7,7,0,0,1-2.28-3.36,22.76,22.76,0,0,1-1.54-6.36c-.21-.72.59-4.29-.21-2.62-1.05,1.74-2.68,4.41-4.27,5.69a6.13,6.13,0,0,1-3.55.64,3.64,3.64,0,0,1-.88-3c0-2.28,1-4.45,1.5-6.66a36.78,36.78,0,0,0,4.16-14.55c.57-2,1-2.87,2.27-3.86,1.38-1.87,3.21-3.22,4.66-5,.59-.62,1.37-2.11.32-2.73-1.49-.93-1.9-2.65-2.66-4.12-1.33-2.94-1-5.09-1.59-7.6,0-1.53-.27-3.14.69-4.46.71-2.2,2.61-3.59,4.08-5.27,2.14-.79,4.17-2,6.37-2.53,1.63-.06,3.33-.56,4.92-.34a12.8,12.8,0,0,1,4.52,2.51l1.87,1.42Z"/><g id="g11770"><path id="path11772" class="cls-9" d="M305.29,363.15c.81-.65,1.79-1.16,2.09-2.23.48-.7-.54-1.33-.77-2a13.4,13.4,0,0,0-3-3.44,11.41,11.41,0,0,1-2.32-1.39,16.59,16.59,0,0,0-1.09-1.79,14.28,14.28,0,0,1,.51,3.95c-.74-.15-1.68.07-2.07-.74a14.71,14.71,0,0,0-2.7-2.27c-.7-.08-1.6.16-2.18-.11a20.75,20.75,0,0,0-2.69-4.47,34.44,34.44,0,0,0-2.73-2.67,11.2,11.2,0,0,0-2.39-.26c-.4.57-1.44.93-1.05,1.76a12.74,12.74,0,0,0,1.1,4.34,40,40,0,0,0,3,6.22c1.5,1.88,2.79,4,4.92,5.27l1.5,1.06"/><path id="path11774" class="cls-9" d="M284.43,347.42c-.47-.49-.72-1.31-1.37-1.53s-1.57-.66-2.34.47a15.34,15.34,0,0,0-.53,4.62,37.44,37.44,0,0,0,0,6c.11,1.27.89,2.4,1.28,3.61.7,1.45,1.05,3.06,1.79,4.47a12,12,0,0,0,2.08,2.52"/><path id="path11776" class="cls-9" d="M274,356.79a9,9,0,0,1,.4-3.77,26.67,26.67,0,0,1,2.07-5.6c.5-.61,1-1.1,1.88-.88,1-.06,1.63.91,2.19,1.59"/><path id="path11778" class="cls-9" d="M278.59,329.21a19.79,19.79,0,0,0,2.48-4.95"/><path id="path11780" class="cls-9" d="M286.2,336.11c0-2-.12-4,.67-5.86l.92-1.39"/><path id="path11782" class="cls-9" d="M265.69,361.74c.91,0,1.89.19,2.61-.51a8,8,0,0,0,0-5.07,6.23,6.23,0,0,0-1.7-1.84"/><path id="path11784" class="cls-9" d="M275.77,349.37a18.18,18.18,0,0,0,.1,3.07,2.38,2.38,0,0,0,2.07.64c.78,0,1.2-.78,1.32-1.46s.39-1.15.58-1.72"/><path id="path11786" class="cls-9" d="M280.54,348.84c.46.78.63,1.81,1.28,2.42s1.27.7,1.9.05c.69-.86.48-2.84.53-3.88"/><path id="path11788" class="cls-9" d="M285.13,349.28c.7.47,2.25,2.1,3.22,1.86,1,.28,1.17-.32,1-1.2a2.7,2.7,0,0,0-.63-2.16,10.39,10.39,0,0,0-1.49-1.95"/></g><path id="path11790" class="cls-30" d="M288.67,346s1.2-1.52,1.77-2.3,1.35-1.85,1.94-2.83c.77-1.25,1.34-2.62,2.1-3.88s1.89-2.51,2.66-3.88,1.26-3,1.94-4.42,1.35-2.87,2.12-4.25,1.87-2.77,2.65-4.24,1.35-3.21,2.12-4.77c.6-1.21,1.37-2.32,1.95-3.54.41-.86.6-1.82,1.06-2.65a19.27,19.27,0,0,1,1.41-1.95,17,17,0,0,1-2.45,1.59,7.76,7.76,0,0,1-2.12.53,5.28,5.28,0,0,1-.71,0s-1.08,3.22-1.76,4.77c-.62,1.4-1.5,2.67-2.13,4.07-.54,1.2-.86,2.5-1.41,3.71-.67,1.46-1.61,2.78-2.3,4.24s-1.11,3-1.77,4.42c-.53,1.17-1.12,2.33-1.76,3.45s-1.51,2.43-2.3,3.62c-.44.67-.93,1.3-1.37,2-.64,1-1.28,2.07-1.82,3a10.37,10.37,0,0,1-1.93,2.76c.95-.33,1.08-.23,2.11.6Z"/><g id="g11792"><path id="path11794" class="cls-9" d="M101,364.63c-1.42-.75-4.56,0-6-1.5-1.07-1.1-.18-3.2-1-4.5a2.9,2.9,0,0,0-1.6-1.24c-1.11-.29-2.36,1-3.4.49-1.51-.7-1.67-2.89-2.67-4.22-.33-.44-.57-1-1.08-1.23-1.48-.59-3.23.92-4.75.45s-2.32-1.74-3.35-2.75c-.7-.69-1-1.95-1.9-2.25-1.31-.42-2.63,1.12-4,1s-2.24-1.17-3.45-1.52c-2.09-.6-4.35-.39-6.46-.92A52.31,52.31,0,0,1,55,344.13"/><path id="path11796" class="cls-9" d="M155.54,507.13c-5.41-2.83-11.21-5.42-15.46-9.81-4.45-4.6-7-10.77-9.75-16.54-5-10.4-8.06-21.64-12.29-32.38-3.22-8.17-6-16.58-10-24.4-4.81-9.4-13.18-21-16.8-26.87"/><path id="path11798" class="cls-9" d="M132.54,494.88c-2.89-4.89-6.55-9.4-8.81-14.61-1.58-3.63-2-7.65-3.25-11.4-2.53-7.63-5.64-15-8.55-22.53-4.06-10.4-8.17-20.77-12.44-31.09-2.18-5.25-3.94-10.71-6.71-15.67-4.68-8.35-11.35-15.42-16.59-23.43-4.61-7-9-14.21-13-21.57l-.1-.2"/><path id="path11800" class="cls-9" d="M102.79,423.88A127.32,127.32,0,0,0,92.06,406.5C87.12,400.07,80.6,395,75.31,388.84c-5.64-6.58-11.65-13-15.92-20.55a55.72,55.72,0,0,1-5.6-14.41"/><path id="path11802" class="cls-9" d="M153,484.88a59.13,59.13,0,0,1-3.66-7.8c-1.18-3.6-.7-7.66-2.2-11.14-1.28-3-5-4.75-5.64-7.94s1.29-6.15,2.18-9.17c.7-2.36,2.45-4.51,2.47-7,0-4.61-4-8.52-4.4-13.1-.26-2.66.5-5.33,1.05-7.95.32-1.55,1.17-4.08,1.32-4.56"/><path id="path11804" class="cls-9" d="M148.67,482.88c-1.91-4.68-4.24-12.07-6.81-15.08-2.31-2.71-4.48-6.11-4.56-9.67-.07-2.69,2.16-4.93,3.08-7.46.58-1.61,1.45-3.19,1.54-4.9.1-1.89-.79-3.71-1.13-5.57-.94-5.18-5.25-11.11-2.49-15.59.71-1.15,1.93-3,3.87-1.23"/><path id="path11806" class="cls-9" d="M145,481.13c-2.39-4.84-5.86-9.06-8.19-13.92-1-2.14-2.34-4.29-2.53-6.66-.21-2.72,1.25-5.32,1.67-8,.69-4.44,2.11-9,1.4-13.4-.42-2.62-2.67-4.68-3.27-7.28-.42-1.83-1.41-4.23-.17-5.63,1.08-1.21,2.9-1.89,3.59.66"/><path id="path11808" class="cls-9" d="M131.17,459c1.15-5.67,3.16-9.85,3.08-14.93-.05-3.22-1.63-6.24-2.25-9.4-.74-3.83-2.79-7.82-1.74-11.58.46-1.65,1.6-4.28,3.29-4,1.42.26,2.22,2.95,1.37,4.12-.39.54-1.5,1.42-2,0"/><path id="path11810" class="cls-9" d="M137.29,422.63a5.57,5.57,0,0,0-.51-5.52,5.08,5.08,0,0,0-4.61-1.41,5.83,5.83,0,0,0-3.74,2.74c-1.23,2-1.11,4.65-1.09,7,0,4.74,2.17,9.27,2.42,14a63.72,63.72,0,0,1-1,14.91,5.11,5.11,0,0,1-.23.76"/><path id="path11812" class="cls-9" d="M140.54,422.13c1-7.21-3.34-9.56-7.53-11.16a5.76,5.76,0,0,0-6,1.5c-4.46,5.44-1.37,14-1,21.06.09,2,.56,3.9.83,5.85"/><path id="path11814" class="cls-9" d="M121.54,426.88c.53-5.32.06-10.83,1.64-15.92.49-1.57.83-3.74,2.36-4.33s3.25,1.92,5,1.79,2.33-4.51,4.63-2.49a37.55,37.55,0,0,1,3.6,3.7"/><path id="path11816" class="cls-9" d="M137,403.38c-3.41-6.12-6.34,1.59-9.76-.61-1.54-1-3.63,1.4-4.7,2.9-2.84,3.95-2.51,9.42-3.29,14.21"/><path id="path11818" class="cls-9" d="M129.29,398.13c-3.3,1-2,.36-3,.75-1.55.63-3.27,1.25-4.36,2.52-2.2,2.58-2.37,6.34-3.65,9.48"/><path id="path11820" class="cls-9" d="M126.79,396.13a11.9,11.9,0,0,0-5.13,2.24,13.68,13.68,0,0,0-3.37,5.51"/><path id="path11822" class="cls-9" d="M204.54,484.38c.52-1.73,1.56-3.38,1.7-5.19.37-4.88-3.22-9.65-2.4-14.47.24-1.41,1.38-2.51,2.07-3.77a21.77,21.77,0,0,0,2.07-3.82,13.91,13.91,0,0,0,.43-4.81c-.12-2.14-1.13-4.16-1.31-6.29-.24-3,5.89-6,.26-9-1.8-1-.14-4.1.25-6.1.56-2.79,2.72-5.19,2.93-8a14.06,14.06,0,0,0-1.64-7.9c-1.22-2.14-3.4-3.63-5.46-5a11.93,11.93,0,0,0-3.69-1.62c-2.91-.7-6.43,1.11-9-.5a2.67,2.67,0,0,1-1.35-2.52c.26-1.06,1.64-1.61,2.7-1.84s2.39.35,3.55.65c1.43.36,2.74,1.26,4.21,1.38,1.17.09,2.71.33,3.49-.56s.33-2.32.09-3.44c-.47-2.26-2.59-4-2.94-6.27a5.59,5.59,0,0,1,.47-3.52c.17-.29.52-.42.78-.63"/><path id="path11824" class="cls-9" d="M201.79,484.88c.25-2.39.33-4.78.37-7.18.07-4.63-.62-9.27-.29-13.89a46.91,46.91,0,0,1,.92-5.51c.37-1.82,1-3.59,1.25-5.43.54-4.11-1-8.67.43-12.43.57-1.5-2.37-2.51-2.52-4.11-.22-2.19,1.46-4.16,2.28-6.2,1.1-2.7,3.42-5.08,3.56-8,.11-2.37-1.13-4.67-2.26-6.76-1.21-2.24-3.48-4.16-4.74-6"/><path id="path11826" class="cls-9" d="M199,436.13c.68-2.49,1.78-4.82,2.53-7.28a38.67,38.67,0,0,0,1.78-6.82,14.94,14.94,0,0,0-.16-5.85,9.24,9.24,0,0,0-2-3.42c-1.57-1.79-3.76-2.93-5.65-4.38"/><path id="path11828" class="cls-9" d="M197,429.13c1-3.15,2.11-6.35,2.19-9.65a9,9,0,0,0-.84-4.74c-1.25-2.14-3.87-3.12-5.75-4.74-.8-.69-1.57-1.41-2.35-2.12"/><path id="path11830" class="cls-9" d="M203.54,409.88c1.28-1.78,3.28-3.29,3.74-5.45.4-1.88-.64-3.79-1.05-5.67a25.27,25.27,0,0,1-.94-3.69c-.09-1.4-.36-3.07.5-4.19.55-.71,1.67-.67,2.5-1"/><path id="path11832" class="cls-9" d="M193.79,423.13c.32-2.14.82-4.33.37-6.43a8,8,0,0,0-1.62-3.08c-1.8-2.33-5.1-3.37-6.54-5.94a6.1,6.1,0,0,1-.85-4.47,5.25,5.25,0,0,1,2.79-2.94,9.56,9.56,0,0,1,4.4-.48c1.16,0,2.52,1.22,3.43.51s.53-2.22.39-3.33a13.21,13.21,0,0,0-1.12-2.84"/><path id="path11834" class="cls-9" d="M187.54,416.63c-.12-1.17.43-2.56-.17-3.61-.77-1.35-3-1.31-3.91-2.57a8.84,8.84,0,0,1-1.42-4.88,10.21,10.21,0,0,1,.86-4,7.07,7.07,0,0,1,1.78-3c1.81-1.45,5.85,0,6.61-2.15.2-.57-.67-1-1-1.5"/></g><path id="path11836" class="cls-32" d="M221.85,372.88a60.54,60.54,0,0,0,6.72,4.77,4.78,4.78,0,0,1-1.24,4.25c-1.25.81-3.3.48-4.23,1-.21,1.33,1,3.55-1,3.79a5.55,5.55,0,0,1-4.34.57c-1.13-1-2.54-1.94-2.46-3.67-.46-1.45,1.06-2.72,2-3.71,1.91-.54,1.09-2.48-.37-2.71-1.48-.47-2.86.83-4.2.51-1.84,0-.86-3.12.55-3,2.92-.47-.25-.3-1.49-.33-1.37-1.29,0-2.92.69-4.24-2.32,1.08-4.93,2.34-7.49,1.27a11.15,11.15,0,0,1-1.88-5.51,49.94,49.94,0,0,0-6.36.18c.28,1.51,1.12,3.3-1,3.6-1,.36-3.2-.65-3.32-1.87-.67-1.48.23-2.59,1.34-3.5a11.16,11.16,0,0,1-5.92,1.57,16,16,0,0,1-5.21-.87c-1.14-1.22-.14-3.31.34-3.54-1.32,1-2.23,3-4.14,2.48-1.29.42-3.88-1.26-1.58.42,2,.88,1.53,2.05.17,3.34a4,4,0,0,1-3.87-1.56c-1.38-2.16-1.38-.22-2.81.16s-3.6-.58-2.69-2.16c-.41-.67-2.39,1.72-3.6,1.57-2,.72-2.17-1.09-1.62-2.47,2.06-1.61.91-1.46-.95-.81-2.3.73-4.9,1.58-7.28.94-1.7-1.49-1.37-1.1-1.78,1.08-.84,1.39-2.92,1.84-4.53,2s-3.62-.19-3.93-2c-.23-2.42-1.46,1-2.72,1.16-1.64,1.25-3.83.69-5.68,1.45s-2.59-1.56-3.54-2.66c.48,1.7-.28,3.23-.88,4.78-1.65.82-3.52.7-5.31.7.81,1.36,1.45,2.71,0,3.89-1.53,1.71-3.86.62-5.65,0-.4-.34-.51,3.07-1.91,3.06-1.55.64-3.25-.64-2.6-1.41-.39,2-2.12,3.88-4.34,3.48-.72-.41-2.78-2.48-2-3,4.31-2,6.6-4.2,10.6-6.75,2.77-2,7-4.81,10.34-5.73a107.23,107.23,0,0,1,13.71-4.62,118.33,118.33,0,0,1,16-2,107.06,107.06,0,0,1,15.61-.53c4.37-.24,8.5,1.46,12.74,2.25,3.79.9,7.74,1.23,11.43,2.43a108.81,108.81,0,0,1,14.2,6.69,58.46,58.46,0,0,1,7.51,5.3Z"/><path id="path11838" class="cls-8" d="M225.56,375.35c2.05-2.28,4-4,6.06-5.9s4.47-3.65,6.3-5.86a28.87,28.87,0,0,0,4.72-7.54,26.13,26.13,0,0,0,1.66-8.16,47.55,47.55,0,0,0-.73-9.06c-.89-6.95-2.73-13.76-3.66-20.72-1-7.47-.43-15.16-2-22.53A49.13,49.13,0,0,0,233.8,284a30.59,30.59,0,0,0-3.58-5.32c-2.37-3-5.35-5.43-7.84-8.32H197.63c2.19,3.78,3.64,7.93,5.79,11.72a80.87,80.87,0,0,0,5,7.75,52,52,0,0,0,5,6c1.69,1.68,3.86,2.83,5.52,4.55a86.15,86.15,0,0,1,8.74,11.34,35.31,35.31,0,0,1,4,6.46,43.31,43.31,0,0,1,3.09,13.69c.33,5.6-1.3,11.14-1.79,16.73-.22,2.57.17,5.24-.5,7.74a33.92,33.92,0,0,1-4.62,9.34c-1.74,2.71-4.3,4.81-6.12,7.49,1,.77,2.61,1.46,3.84,2.19Z"/><g id="g11840"><path id="path11842" class="cls-9" d="M238.64,347.77c-.13-2.62-.1-5.26-.37-7.87a42.89,42.89,0,0,0-1.06-6.67,13.42,13.42,0,0,0-1.1-2.86,34.09,34.09,0,0,0-2.42-3.46"/><path id="path11844" class="cls-9" d="M230.51,315.6a35.55,35.55,0,0,0-1.09-7.5A32.63,32.63,0,0,0,227.2,302c-1.39-2.92-3.44-5.47-5-8.29-1-1.84-1.81-3.82-2.87-5.64a59.17,59.17,0,0,0-3.36-5.11c-.76-1.05-1.62-2-2.42-3"/></g><path id="path11846" class="cls-31" d="M224.5,369.34c-4.51-4.13-10.15-6.55-15.35-9.59,4.85-11.38,5.44-25-.3-36.14-5.34-9.81-9.55-20.17-14.14-30.33-3-7.41-2.34-15.13-2.38-22.93l-3.63-.4c-1,16.88,2,22,6.16,34,3.85,11.1,11.83,20.79,12.74,32.85,1.48,7.18-.77,14.22-2.61,21.08l-6.48-1.94c2.62-7.92,2.29-17-2.55-24.05-3.58-5.43-8.73-10.68-15-12.72a24.27,24.27,0,0,0-17,1.19c-5.25,2.38-8.85,7.26-12.29,12.19-3.62,6.33-6.26,14.63-5.42,22.05l-9.67,1.91a42.41,42.41,0,0,1,.66-6.23c1.31-8.28,5-16,9.73-22.82a180,180,0,0,0,11.6-18.52,76,76,0,0,0,5.5-20.18,81.28,81.28,0,0,0,1.19-18.8l-4.13.43c1,11.11-.76,20.64-4,30.28-3.56,10.43-10.73,19.47-16.57,28.62-4.3,8.48-9,18.67-8.39,28.41-3.83,2.38-9.65,4.26-13.88,7.74-1.58,1.21-8.26,5.91-10.23,7.84l1.7,3.28c2.82-1.35,6.49-5,8.56-6,5.75-4.88,12.45-7.61,19.53-9.9,7.81-3.51,16.56-3.28,24.89-4.41,5.93.1,11.91-1.29,17.72.55a93.73,93.73,0,0,1,17.95,3.94c6,1.43,11.77,3.5,16.68,7.28,3,1.07,3.8,3,6.8,5.31.34-.43,2.28-3.52,2.63-3.95Z"/><path id="path11848" class="cls-33" d="M194.79,354.88a42.16,42.16,0,0,1-7.25-1.5c.39-1.5,1.16-2.93,1.25-4.48a7.51,7.51,0,0,0-.43-2.73,20,20,0,0,0-2.6-4.95c-1.68-2.47-4-4.41-5.84-6.79-1.33-1.77-1.79-4.32-3.63-5.55a3.43,3.43,0,0,0-2.35-.45,5,5,0,0,0-2.46,1.3c-1.13,1-1.56,2.67-2.53,3.86a37.58,37.58,0,0,1-4.61,4.66c-1,.86-2.25,1.39-3.16,2.33a11.23,11.23,0,0,0-1.9,2.73,14.8,14.8,0,0,0-1.36,4.14,5.84,5.84,0,0,0,0,2.53c.37,1.21,1.43,2.1,2.14,3.15l-10.25,1c.05-2.32-.18-4.66.07-7a34.42,34.42,0,0,1,1.34-6.28,25.24,25.24,0,0,1,1.94-4.65,33.91,33.91,0,0,1,3.27-4.69,27.07,27.07,0,0,1,3.83-4.3,25.08,25.08,0,0,1,7.8-4.62,17.91,17.91,0,0,1,6.23-.73,27,27,0,0,1,5.91,1.05,11.55,11.55,0,0,1,3.38,1.15,27.31,27.31,0,0,1,7.77,7.64,29.29,29.29,0,0,1,4.88,15.5,20.58,20.58,0,0,1-.52,4.75,29.27,29.27,0,0,1-.9,2.89Z"/><path id="path11850" class="cls-9" d="M189.92,354s4.73-1.84,5.38-3.75c.75-2.22-6.09-.67-6.38-3-.35-2.79,7.21-2.65,6.5-5.37-.81-3.1-8.06,1.14-9.45-1.75s6.7-6.11,4.7-8.75c-2.16-2.85-7.9,4.82-10.46,2.33-2.27-2.22,4.36-7.41,1.84-9.33-2.08-1.58-4.41,3.74-7,3.5s-3.63-5.52-5.88-4.5c-3.06,1.38,2.31,8.56-.7,10.06s-5.48-7.14-8.17-5.32c-3,2.05,4.8,8.27,2.12,10.75-2.16,2-6.63-4.64-8.5-2.37-2,2.44,5.44,5.56,4.25,8.5-1,2.58-8.58.06-7.87,2.75.6,2.3,8.37,5.14,8.37,5.14"/><path id="path11852" class="cls-19" d="M173.79,347.5s-.45,2.79-1.33,3.67a5,5,0,0,1-8.67-3.67,6.37,6.37,0,0,1,1.33-3.67c.67-.66,1.34-1,2-1.66s1-.67,1.67-1.34l1.67-1.66a14.65,14.65,0,0,0,2.33-3.34,14.05,14.05,0,0,0,1-3.33,14.05,14.05,0,0,0,1,3.33,14.65,14.65,0,0,0,2.33,3.34l1.67,1.66c.67.67,1,.67,1.67,1.34s1.33,1,2,1.66a6.37,6.37,0,0,1,1.33,3.67,5.2,5.2,0,0,1-8.67,3.67C174.25,350.29,173.79,347.5,173.79,347.5Z"/><path id="path11854" class="cls-15" d="M244.54,348.13c1.53-1.43,3.34-2.59,4.64-4.23,1.88-2.37,2.94-5.29,4.44-7.92,1-1.76,2.75-3.24,3-5.24.1-.68.07-1.61-.5-2s-1.43,0-2.07.26c-2,.86-3.37,2.73-5,4.12,1.27-1.18,2.29-2.68,3.75-3.61,2.41-1.55,5.81-1.3,8-3.14,1.44-1.21,1.66-3.43,2.93-4.81a6.88,6.88,0,0,1,2.1-1.53,9,9,0,0,1,2.47-.66l-1.5-5.75c-.81.82-1.36,2-2.39,2.53a10.35,10.35,0,0,1-4.77.72,12.92,12.92,0,0,1-3.71-.5,10,10,0,0,1-4-1.86c-2.05-1.87-3-4.7-4.26-7.15-.64-1.18-1.06-2.48-1.74-3.65s-1.55-2-2.19-3.1-.87-2.26-1.54-3.26c-1.24-1.83-3.25-3-4.51-4.85a22.7,22.7,0,0,1-1.43-2.88c.65,2.89,1.62,5.72,2,8.66.48,3.53.27,7.13.47,10.7.15,2.85.18,5.71.57,8.54.44,3.28,1.34,6.47,2,9.71.71,3.41,1.6,6.8,2.12,10.25s.73,7.09,1,10.64Z"/><g id="g11856"><path id="path11858" class="cls-9" d="M220.26,358a50.8,50.8,0,0,0,8.94-8.64,30.9,30.9,0,0,0,4-6.67,15.86,15.86,0,0,0,.5-1.66"/><path id="path11860" class="cls-9" d="M224.85,364.39c.79-1.68,2.08-3.17,2.51-5a20,20,0,0,0,0-7.74"/><path id="path11862" class="cls-9" d="M227,317.72c-3-2-5.69-4.44-8.84-6.16a36.19,36.19,0,0,0-9-3.76c-2.45-.56-6.06-.35-7.53-.46"/><path id="path11864" class="cls-9" d="M224.5,310.65c-3.61-2.24-6.86-5.17-10.8-6.77-4.83-1.95-11.25-2.18-15.31-3.26"/><path id="path11866" class="cls-9" d="M216.37,301.81c-3.32-1.82-6.37-4.24-9.92-5.58a38.44,38.44,0,0,0-10.88-2.32"/><path id="path11868" class="cls-9" d="M209.3,294.74c-2.8-1.33-5.5-2.93-8.48-3.8-2-.59-5.25-.65-6.31-.92"/><path id="path11870" class="cls-9" d="M204.35,289.44a35.46,35.46,0,0,0-7.25-2.76c-1.08-.29-3.24-.53-3.3-.55"/><path id="path11872" class="cls-9" d="M201.52,285.2c-1.65-.71-6.3-2.66-8.57-2.87"/><path id="path11874" class="cls-9" d="M199.4,281c-1.18-.59-5.48-1.3-6.66-1.89"/><path id="path11876" class="cls-9" d="M198,277.06c-.94-.35-4.64-1.08-5.58-1.44"/><path id="path11878" class="cls-9" d="M153.52,309c-3.88-.08-10.9-.5-16.33-.05a46.4,46.4,0,0,0-10.42,1.79,42.5,42.5,0,0,0-8.53,4.2,23.79,23.79,0,0,0-5.55,4,18.44,18.44,0,0,0-3.53,5.84,31.15,31.15,0,0,0-1.72,8.83,15,15,0,0,0,.15,4.12,9.91,9.91,0,0,0,.59,1.57"/><path id="path11880" class="cls-9" d="M103.23,333.63c.52-2.75.52-5.65,1.5-8.28a26,26,0,0,1,4-6.81,31,31,0,0,1,7.34-7.25c3.08-2,6.76-2.82,10.26-3.85A74.13,74.13,0,0,1,137.69,305c3.44-.45,6.92-.37,10.39-.48,2.43-.08,6.33.07,7.29-.12"/><path id="path11882" class="cls-9" d="M157.76,298.51c-6.06.62-15.39-.29-22.87,1.24-4.12.85-8,2.68-11.86,4.34a41.64,41.64,0,0,0-6.76,3.34c-4,2.63-6.74,6.14-10.73,9.34"/><path id="path11884" class="cls-9" d="M159.53,292.27c-5.11.74-13.3.51-19.69,2.19-5.76,1.51-11,4.65-16.46,7"/><path id="path11886" class="cls-9" d="M160.24,286.17c-4.36,1.35-12.23,2.48-18.15,4.41a77.13,77.13,0,0,0-10.4,4.29c-3.8,1.89-7.36,4.25-11,6.48-1.72,1.06-3.41,2.19-5.11,3.29"/><path id="path11888" class="cls-9" d="M161.34,279.79c-4.5,1.51-12.78,3.34-19,5.62a137.86,137.86,0,0,0-15.61,7c-1.77.92-3.42,2.06-5.15,3.06"/><path id="path11890" class="cls-9" d="M160.84,275.19c-5.47,2-11.06,2.28-16.37,4.14-4.72,1.66-10.77,5-13.66,6.22"/><path id="path11892" class="cls-9" d="M187.32,306.35a65.87,65.87,0,0,0-9.76-1.1,83.67,83.67,0,0,0-12.15.78c-1.88.24-3.7.68-5.55,1"/><path id="path11894" class="cls-9" d="M184.77,300.36c-3.28-.22-7.82-.53-11.73-.43a51.86,51.86,0,0,0-10.52.94"/><path id="path11896" class="cls-9" d="M184.22,294.72c-3.13-.22-6.26-.84-9.4-.68-3.78.19-7.33,1.22-11.17,1.94"/><path id="path11898" class="cls-9" d="M183.57,290c-3.09,0-7.24-.44-10.85-.21a32.81,32.81,0,0,0-4.95.72c-1.2.25-2.32.67-3.48,1"/><path id="path11900" class="cls-9" d="M184.22,285.92c-3.58-.11-7.16-.49-10.74-.34-2.93.13-6.12.7-8.74,1.05"/><path id="path11902" class="cls-9" d="M184.66,280.63c-3.28,0-6.55-.08-9.83,0s-6.8.44-9.58.67"/><path id="path11904" class="cls-9" d="M186.44,276.05c-3.32,0-6.64-.11-9.95,0-3.56.16-7.77.42-10.65.88"/><path id="path11906" class="cls-9" d="M187.77,272.88c-3.61,0-7.23-.16-10.84,0-3.76.19-7.9.67-11.23,1.13"/></g><path id="path11908" class="cls-14" d="M296,307.63a2.18,2.18,0,0,0,2-.87c.74-1,.42-2.49.38-3.74a19.42,19.42,0,0,0-.65-3.78c-.32-1.35-1-2.6-1.24-4a22.53,22.53,0,0,1-.27-6.4c.12-1.07,1.06-2.05.86-3.11a2,2,0,0,0-1.23-1.61c-.8-.18-1.55.62-2.19,1.14s-1.19,1.65-1.94,2.33c-.42.39-1.1.5-1.41,1-.55.85-.1,2.09-.57,3-.39.74-.93,1.8-1.77,1.78-1.08,0-1.47-1.59-2.18-2.42-.52-.6-1-1.24-1.51-1.86-.9-1.08-1.93-2.07-2.75-3.22-1.27-1.81-1.13-5.38-3.31-5.75-.59-.1-1.06.67-1.36,1.19-.74,1.26-.33,2.93-.86,4.28a13.37,13.37,0,0,1-1.61,2.66,23.54,23.54,0,0,1-2.53,3.18c-.58.57-1.44.86-1.94,1.52a5.87,5.87,0,0,0-.95,2.29,26,26,0,0,0-.23,4.5c0,.69.41,1.6-.1,2.05s-1.28.12-1.81-.18c-1.88-1.08-2.15-3.9-3.86-5.24a5.85,5.85,0,0,0-3-1.25c-.77-.07-1.8-.12-2.26.5s-.1,1.53.16,2.22c.74,2,2.72,3.22,3.81,5a49,49,0,0,1,3.83,8.08c1.05,2.82,1.15,6,2.45,8.68a11.67,11.67,0,0,0,2.79,3.89,6.44,6.44,0,0,0,2.71,1.36c.73.18,1.83.62,2.25,0,.91-1.33-1.42-2.92-1.77-4.5a17.66,17.66,0,0,1-.43-6.86,10.15,10.15,0,0,1,1.69-3.92,13.47,13.47,0,0,1,3.41-3.45,13.87,13.87,0,0,1,3.26-1.53,19.15,19.15,0,0,1,5.46-1.47,9.19,9.19,0,0,1,3.85.6,12.33,12.33,0,0,1,3.44,2.4c.5.44.69,1.34,1.34,1.48Z"/><path id="path11910" class="cls-8" d="M296.79,295.38c1.53.78,3.24-1.34,4.5-2.5,1.78-1.65,2.68-4,4-6.07.19-.28.25-.73.57-.85.61-.25,1.29.6,1.91.42,1.61-.47,2.57-2.2,3.54-3.56a17.26,17.26,0,0,0,1.77-3.64c.21-.52.17-1.14.5-1.59s1.13-.47,1.45-1c1.11-1.74.82-4.06,1-6.13.24-.6-.51-.31-.86-.38l-20.1-.24c.35,1.36.7,2.73.92,4.12a59.49,59.49,0,0,1,.58,6.54c.07,1.57,0,3.15,0,4.72,0,.49.1,1,.08,1.47,0,.9-.33,1.78-.36,2.68a29.35,29.35,0,0,0,.22,3.63c.07.78-.42,2,.28,2.34Z"/><g id="g11912"><path id="path11914" class="cls-9" d="M305.54,286.63c.84-2.68,1.91-5.3,2.51-8,.28-1.3.33-2.64.49-4"/><path id="path11916" class="cls-9" d="M296.79,286.13a24.34,24.34,0,0,0,3.25-3.25c1.25-1.84,1.8-4.06,2.64-6.11.57-1.37,1.07-2.76,1.61-4.14"/><path id="path11918" class="cls-9" d="M301,279.38a24.25,24.25,0,0,1-.75-3.54,15.11,15.11,0,0,1,.25-2.21"/><path id="path11920" class="cls-9" d="M263.39,310.83c-1.3-.59-3-.65-3.89-1.77s.17-3.35-.88-4.42c-1.4-1.41-4.45.19-5.84-1.23-1.16-1.21.21-3.68-.88-5-1.43-1.69-4.42-1-6.26-2.2-1.43-.95-2.31-2.54-3.46-3.81"/><path id="path11922" class="cls-9" d="M258.44,298.63c-2.11-1-4.33-1.75-6.37-2.88a61.33,61.33,0,0,1-7.26-4.82,29.15,29.15,0,0,1-3-2.55c-2.23-2.2-4.68-4.33-6.18-7.07a14.52,14.52,0,0,1-.89-3"/><path id="path11924" class="cls-9" d="M254.91,293.33c-1.65-.71-3.88-.68-4.95-2.12-1.27-1.71.85-4.91-.71-6.36-1-1-3.17.75-4.24-.18-1.8-1.58.52-5.44-1.24-7.07s-5.13.65-7.07-.71c-1.77-1.24-1.88-3.89-2.82-5.83"/><path id="path11926" class="cls-9" d="M232.46,280.6a48.57,48.57,0,0,1-1.63-5.09,19.9,19.9,0,0,1-.31-4.63"/><path id="path11928" class="cls-9" d="M296.1,280.6a30.57,30.57,0,0,0-2.67-3.68,14,14,0,0,0-3.51-2.45,37,37,0,0,0-5-1.65"/><path id="path11930" class="cls-9" d="M270.11,288.2c-1,1.52-2.36,2.85-3,4.54-1,2.57-1.07,5.43-1.39,8.19"/><path id="path11932" class="cls-9" d="M268,285.55a43.3,43.3,0,0,0-3.21,5.6,39.15,39.15,0,0,0-1.21,5.71"/><path id="path11934" class="cls-9" d="M266.93,281.13c-1.46,2.4-3.47,4.55-4.44,7.19-.8,2.2-.69,4.63-1,6.95"/><path id="path11936" class="cls-9" d="M268.16,275.83c-2,2.17-4.52,3.95-6.05,6.48a24.39,24.39,0,0,0-2.63,7.55,44.38,44.38,0,0,0-.51,5.42"/><path id="path11938" class="cls-9" d="M269.4,271.23c-2.66,2.23-5.85,3.93-8,6.65a20.13,20.13,0,0,0-3,6c-1.22,3.51-1.47,7.27-2.25,10.9"/><path id="path11940" class="cls-9" d="M258.09,270.52c-1.65,2.59-4,4.86-4.95,7.78s-.4,6.13-.71,9.19"/><path id="path11942" class="cls-9" d="M253.14,270.35a46.32,46.32,0,0,0-2.33,5.37,43.57,43.57,0,0,0-.85,5.94"/><path id="path11944" class="cls-9" d="M249.25,270.35c-.68,2.3-1.21,4.64-1.69,7,0,.14-.05.29-.08.44"/><path id="path11946" class="cls-9" d="M246.42,271.05c-.29,1.12-.59,2.24-.88,3.36"/></g></g></g></g><g id="text21448"><path id="path24696" class="cls-2" d="M44.26,85.39a11.92,11.92,0,0,1-2.32.62,13.71,13.71,0,0,1-2.32.2,6.45,6.45,0,0,1-5.47-2.83c-1.37-1.86-2.11-4.55-2.23-8a6,6,0,0,1-.92.14,5.93,5.93,0,0,1-.84.06A10.54,10.54,0,0,1,24.58,74a12.85,12.85,0,0,1-4.26-4.45,24.33,24.33,0,0,1-2.72-7.17,45.53,45.53,0,0,1-.93-9.69,45.08,45.08,0,0,1,.93-9.61,24.7,24.7,0,0,1,2.74-7.31,12.43,12.43,0,0,1,4.26-4.43,10.63,10.63,0,0,1,5.56-1.53,10.32,10.32,0,0,1,5.61,1.56A13,13,0,0,1,40,35.78,23.75,23.75,0,0,1,42.72,43a44.44,44.44,0,0,1,1,9.7,36.9,36.9,0,0,1-2.19,13.56Q39.33,71.77,35.65,74a12,12,0,0,0,1.06,5.22,3.64,3.64,0,0,0,3.55,1.85,5.79,5.79,0,0,0,1.9-.38A7,7,0,0,0,43.74,80h.52v5.37ZM39.65,52.7q0-8.55-2.53-13.18t-6.94-4.66c-2.95,0-5.28,1.55-7,4.66S20.69,47,20.69,52.7s.86,10.17,2.58,13.23,4,4.57,6.91,4.57,5.19-1.52,6.9-4.57,2.58-7.48,2.58-13.23Z"/></g><g id="text21452"><path id="path24699" class="cls-2" d="M317.57,454.76a11.25,11.25,0,0,1,2.32-.62,12.78,12.78,0,0,1,2.33-.21,6.46,6.46,0,0,1,5.47,2.83c1.36,1.87,2.11,4.55,2.22,8.05a5,5,0,0,1,.92-.15,6.15,6.15,0,0,1,.84-.06,10.5,10.5,0,0,1,5.59,1.54,12.83,12.83,0,0,1,4.25,4.45,23.88,23.88,0,0,1,2.72,7.16,50.05,50.05,0,0,1,0,19.31,24.81,24.81,0,0,1-2.74,7.31,12.46,12.46,0,0,1-4.25,4.42,10.69,10.69,0,0,1-5.57,1.53,10.35,10.35,0,0,1-5.61-1.56,12.84,12.84,0,0,1-4.23-4.39,23.85,23.85,0,0,1-2.72-7.22,44.5,44.5,0,0,1-1-9.7,36.82,36.82,0,0,1,2.19-13.56q2.18-5.52,5.84-7.72a12,12,0,0,0-1.05-5.22,3.66,3.66,0,0,0-3.56-1.86,6,6,0,0,0-1.89.38,8.19,8.19,0,0,0-1.59.65h-.52v-5.36Zm4.61,32.69q0,8.55,2.54,13.17t6.93,4.66q4.44,0,7-4.66t2.52-13.17q0-8.64-2.58-13.24c-1.71-3-4-4.57-6.91-4.57s-5.19,1.53-6.89,4.57-2.58,7.48-2.58,13.24Z"/></g></g></g></g></svg>